M48
; DRILL file {KiCad 7.0.8} date Fri Nov 10 09:55:42 2023
; FORMAT={-:-/ absolute / metric / decimal}
; #@! TF.CreationDate,2023-11-10T09:55:42+08:00
; #@! TF.GenerationSoftware,Kicad,Pcbnew,7.0.8
; #@! TF.FileFunction,Plated,1,2,PTH
FMAT,2
METRIC
; #@! TA.AperFunction,Plated,PTH,ComponentDrill
T1C0.200
; #@! TA.AperFunction,Plated,PTH,ViaDrill
T2C0.400
; #@! TA.AperFunction,Plated,PTH,ViaDrill
T3C0.500
; #@! TA.AperFunction,Plated,PTH,ComponentDrill
T4C0.650
; #@! TA.AperFunction,Plated,PTH,ViaDrill
T5C0.700
; #@! TA.AperFunction,Plated,PTH,ComponentDrill
T6C0.800
; #@! TA.AperFunction,Plated,PTH,ComponentDrill
T7C1.000
; #@! TA.AperFunction,Plated,PTH,ComponentDrill
T8C1.100
; #@! TA.AperFunction,Plated,PTH,ComponentDrill
T9C1.380
; #@! TA.AperFunction,Plated,PTH,ViaDrill
T10C4.000
%
G90
G05
T1
X145.45Y-56.28
X145.45Y-57.805
X146.213Y-55.517
X146.213Y-57.042
X146.213Y-58.567
X146.975Y-56.28
X146.975Y-57.805
X147.737Y-55.517
X147.737Y-57.042
X147.737Y-58.567
X148.5Y-56.28
X148.5Y-57.805
T2
X113.82Y-84.23
X113.84Y-86.33
X120.23Y-111.64
X121.37Y-73.02
X121.64Y-64.4
X126.88Y-81.3
X129.95Y-111.97
X132.83Y-76.54
X133.92Y-63.64
X134.15Y-80.82
X135.63Y-60.04
X135.77Y-69.377
X136.78Y-63.66
X136.98Y-56.01
X137.0Y-57.3
X137.18Y-52.82
X137.31Y-61.12
X140.33Y-62.4
X143.27Y-71.79
X143.46Y-73.78
X144.09Y-71.05
X144.69Y-76.88
X144.79Y-75.08
X145.47Y-69.88
X146.77Y-69.24
X150.38Y-85.63
X150.49Y-81.52
X151.88Y-57.73
X153.68Y-54.84
X153.8Y-63.98
X154.42Y-61.92
X154.987Y-70.73
X155.14Y-83.43
X156.39Y-70.48
X158.15Y-82.6
X167.83Y-57.38
X168.05Y-54.29
T3
X121.25Y-70.77
X121.28Y-62.65
X122.78Y-94.29
X123.51Y-60.99
X123.52Y-66.43
X123.52Y-69.23
X123.58Y-72.06
X123.59Y-63.35
X123.97Y-88.43
X124.81Y-86.65
X126.25Y-83.54
X126.67Y-95.07
X129.09Y-94.96
X131.81Y-102.75
X133.25Y-92.17
X133.38Y-90.34
X134.93Y-89.91
X135.09Y-101.58
X135.88Y-88.98
X136.39Y-50.98
X138.81Y-95.9
X140.31Y-94.87
X141.45Y-93.84
X145.19Y-60.09
X146.33Y-62.71
X148.76Y-62.43
X148.77Y-59.97
X148.92Y-87.72
X149.72Y-83.13
X149.85Y-79.87
X150.38Y-88.94
X151.1Y-71.6
X152.14Y-69.22
X152.17Y-72.88
X152.82Y-93.38
X153.13Y-65.42
X153.45Y-70.02
X153.51Y-96.6
X154.68Y-97.79
X155.93Y-89.69
X156.1Y-93.41
X157.64Y-93.68
X157.644Y-95.283
X160.52Y-57.39
X160.52Y-60.31
X162.84Y-66.32
X163.69Y-50.13
X163.78Y-63.96
X164.13Y-52.77
X168.06Y-68.95
X168.3Y-74.12
X169.37Y-75.64
X171.16Y-58.0
X171.18Y-52.63
X171.24Y-63.52
X171.4Y-78.26
X173.09Y-78.1
X175.46Y-75.64
X176.48Y-72.47
X176.5Y-51.8
X176.54Y-68.03
X176.63Y-57.05
X176.63Y-62.73
X179.55Y-72.92
X180.03Y-56.64
X180.3Y-52.28
X181.38Y-62.05
X181.64Y-66.82
X182.21Y-67.79
X182.24Y-70.48
X182.36Y-71.65
T5
X118.8Y-87.71
X119.98Y-88.84
X120.66Y-83.4
X125.81Y-116.63
X135.35Y-99.17
X135.85Y-86.03
X136.53Y-87.29
X138.02Y-82.13
X139.46Y-83.49
X139.67Y-116.58
X143.7Y-93.7
X147.01Y-89.22
X147.43Y-103.63
X156.45Y-99.22
X159.54Y-96.1
X168.617Y-103.862
X170.41Y-102.4
X178.1Y-101.29
X178.19Y-97.62
X179.55Y-103.45
T6
X151.91Y-112.55
X151.91Y-115.05
X159.35Y-112.55
X159.35Y-115.05
X175.73Y-107.37
X175.73Y-109.87
X183.0Y-103.46
X183.0Y-105.96
T7
X176.12Y-80.79
X176.12Y-83.33
X176.12Y-85.87
X176.12Y-88.41
X176.12Y-90.95
X176.12Y-93.49
X181.11Y-113.82
X183.65Y-113.82
X183.98Y-85.98
X183.98Y-88.52
X183.98Y-91.06
X183.98Y-93.6
X184.1Y-76.26
X184.1Y-78.8
X184.1Y-81.34
X184.12Y-51.877
X184.12Y-54.417
X184.12Y-56.957
X184.19Y-61.595
X184.19Y-64.135
X184.19Y-66.675
X184.19Y-69.215
X184.19Y-71.755
T8
X112.907Y-96.625
X112.907Y-101.705
X113.007Y-109.215
X113.007Y-114.295
T10
X113.58Y-53.41
X148.54Y-96.21
T4
G00X111.855Y-80.67
M15
G01X111.105Y-80.67
M16
G05
G00X111.855Y-89.32
M15
G01X111.105Y-89.32
M16
G05
G00X116.195Y-80.67
M15
G01X115.125Y-80.67
M16
G05
G00X116.035Y-89.32
M15
G01X115.285Y-89.32
M16
G05
T9
G00X111.4Y-129.12
M15
G01X111.4Y-130.14
M16
G05
G00X184.3Y-129.12
M15
G01X184.3Y-130.14
M16
G05
T0
M30
