G04 #@! TF.GenerationSoftware,KiCad,Pcbnew,7.0.8*
G04 #@! TF.CreationDate,2023-11-10T10:01:46+08:00*
G04 #@! TF.ProjectId,ESPCARproject,45535043-4152-4707-926f-6a6563742e6b,rev?*
G04 #@! TF.SameCoordinates,Original*
G04 #@! TF.FileFunction,Copper,L2,Bot*
G04 #@! TF.FilePolarity,Positive*
%FSLAX46Y46*%
G04 Gerber Fmt 4.6, Leading zero omitted, Abs format (unit mm)*
G04 Created by KiCad (PCBNEW 7.0.8) date 2023-11-10 10:01:46*
%MOMM*%
%LPD*%
G01*
G04 APERTURE LIST*
G04 #@! TA.AperFunction,ComponentPad*
%ADD10O,2.000000X1.000000*%
G04 #@! TD*
G04 #@! TA.AperFunction,ComponentPad*
%ADD11O,1.800000X0.900000*%
G04 #@! TD*
G04 #@! TA.AperFunction,ComponentPad*
%ADD12R,1.700000X1.700000*%
G04 #@! TD*
G04 #@! TA.AperFunction,ComponentPad*
%ADD13O,1.700000X1.700000*%
G04 #@! TD*
G04 #@! TA.AperFunction,HeatsinkPad*
%ADD14C,0.600000*%
G04 #@! TD*
G04 #@! TA.AperFunction,ComponentPad*
%ADD15C,3.000000*%
G04 #@! TD*
G04 #@! TA.AperFunction,ComponentPad*
%ADD16R,1.600000X1.600000*%
G04 #@! TD*
G04 #@! TA.AperFunction,ComponentPad*
%ADD17C,1.600000*%
G04 #@! TD*
G04 #@! TA.AperFunction,ComponentPad*
%ADD18O,2.070000X4.140000*%
G04 #@! TD*
G04 #@! TA.AperFunction,ViaPad*
%ADD19C,1.200000*%
G04 #@! TD*
G04 #@! TA.AperFunction,ViaPad*
%ADD20C,1.000000*%
G04 #@! TD*
G04 #@! TA.AperFunction,ViaPad*
%ADD21C,0.800000*%
G04 #@! TD*
G04 #@! TA.AperFunction,ViaPad*
%ADD22C,4.500000*%
G04 #@! TD*
G04 #@! TA.AperFunction,Conductor*
%ADD23C,0.800000*%
G04 #@! TD*
G04 #@! TA.AperFunction,Conductor*
%ADD24C,1.200000*%
G04 #@! TD*
G04 #@! TA.AperFunction,Conductor*
%ADD25C,0.700000*%
G04 #@! TD*
G04 #@! TA.AperFunction,Conductor*
%ADD26C,0.500000*%
G04 #@! TD*
G04 #@! TA.AperFunction,Conductor*
%ADD27C,0.250000*%
G04 #@! TD*
G04 #@! TA.AperFunction,Conductor*
%ADD28C,0.600000*%
G04 #@! TD*
G04 #@! TA.AperFunction,Conductor*
%ADD29C,1.000000*%
G04 #@! TD*
G04 #@! TA.AperFunction,Conductor*
%ADD30C,0.200000*%
G04 #@! TD*
G04 APERTURE END LIST*
D10*
X115660000Y-80670000D03*
D11*
X115660000Y-89320000D03*
X111480000Y-80670000D03*
X111480000Y-89320000D03*
D12*
X176120000Y-80790000D03*
D13*
X176120000Y-83330000D03*
X176120000Y-85870000D03*
X176120000Y-88410000D03*
X176120000Y-90950000D03*
X176120000Y-93490000D03*
X184190000Y-71755000D03*
X184190000Y-69215000D03*
X184190000Y-66675000D03*
X184190000Y-64135000D03*
D12*
X184190000Y-61595000D03*
D14*
X145450000Y-56280000D03*
X145450000Y-57805000D03*
X146212500Y-55517500D03*
X146212500Y-57042500D03*
X146212500Y-58567500D03*
X146975000Y-56280000D03*
X146975000Y-57805000D03*
X147737500Y-55517500D03*
X147737500Y-57042500D03*
X147737500Y-58567500D03*
X148500000Y-56280000D03*
X148500000Y-57805000D03*
D15*
X113007500Y-114295000D03*
X113007500Y-109215000D03*
D16*
X175730000Y-107370000D03*
D17*
X175730000Y-109870000D03*
D12*
X183980000Y-85980000D03*
D13*
X183980000Y-88520000D03*
X183980000Y-91060000D03*
X183980000Y-93600000D03*
D16*
X159350000Y-112550000D03*
D17*
X159350000Y-115050000D03*
D16*
X183000000Y-103460000D03*
D17*
X183000000Y-105960000D03*
D12*
X184120000Y-56957500D03*
D13*
X184120000Y-54417500D03*
X184120000Y-51877500D03*
D12*
X181110000Y-113820000D03*
D13*
X183650000Y-113820000D03*
D18*
X111400000Y-129630000D03*
X184300000Y-129630000D03*
D12*
X184100000Y-76260000D03*
D13*
X184100000Y-78800000D03*
X184100000Y-81340000D03*
D15*
X112907500Y-101705000D03*
X112907500Y-96625000D03*
D16*
X151910000Y-112550000D03*
D17*
X151910000Y-115050000D03*
D19*
X125810000Y-116630000D03*
D20*
X182210000Y-67790000D03*
D21*
X167830000Y-57380000D03*
D20*
X157644497Y-95282943D03*
X163690000Y-50130000D03*
X124810000Y-86650000D03*
X146330000Y-62710000D03*
X153510000Y-96600000D03*
X180300000Y-52280000D03*
X152820000Y-93380000D03*
X164130000Y-52770000D03*
X163780000Y-63960000D03*
X151100000Y-71600000D03*
X173090000Y-78100000D03*
X153450000Y-70020000D03*
X126250000Y-83540000D03*
X133380000Y-90340000D03*
X135880000Y-88980000D03*
X138810000Y-95900000D03*
X150380000Y-88940000D03*
X179550000Y-72920000D03*
X152170000Y-72880000D03*
X182240000Y-70480000D03*
X160520000Y-57390000D03*
X153130000Y-65420000D03*
D21*
X150380000Y-85630000D03*
D20*
X134930000Y-89910000D03*
X152140000Y-69220000D03*
D21*
X168050000Y-54290000D03*
D20*
X145190000Y-60090000D03*
X140310000Y-94870000D03*
X181640000Y-66820000D03*
X135090000Y-101580000D03*
D22*
X148540000Y-96210000D03*
D20*
X148770000Y-59970000D03*
X156100000Y-93410000D03*
D22*
X113580000Y-53410000D03*
D20*
X157640000Y-93680000D03*
X131810000Y-102750000D03*
X169370000Y-75640000D03*
X171400000Y-78260000D03*
X154680000Y-97790000D03*
X180030000Y-56640000D03*
X162840000Y-66320000D03*
X160520000Y-60310000D03*
X126670000Y-95070000D03*
X141450000Y-93840000D03*
X175460000Y-75640000D03*
X182360000Y-71650000D03*
X148760000Y-62430000D03*
X181380000Y-62050000D03*
X129090000Y-94960000D03*
D19*
X120660000Y-83400000D03*
X118800000Y-87710000D03*
X135350000Y-99170000D03*
X147430000Y-103630000D03*
X139670000Y-116580000D03*
X159540000Y-96100000D03*
X119980000Y-88840000D03*
X156450000Y-99220000D03*
D20*
X122780000Y-94290000D03*
X168300000Y-74120000D03*
D19*
X136530000Y-87290000D03*
D21*
X155140000Y-83430000D03*
D19*
X179550000Y-103450000D03*
D20*
X133250000Y-92170000D03*
X123520000Y-66430000D03*
X168060000Y-68950000D03*
X121280000Y-62650000D03*
X123590000Y-63350000D03*
X176500000Y-51800000D03*
X123520000Y-69230000D03*
X136390000Y-50980000D03*
X123580000Y-72060000D03*
D19*
X168617500Y-103862500D03*
X170410000Y-102400000D03*
D20*
X155930000Y-89690000D03*
X171180000Y-52630000D03*
D19*
X135850000Y-86030000D03*
D20*
X123510000Y-60990000D03*
D19*
X143700000Y-93700000D03*
X147010000Y-89220000D03*
X178190000Y-97620000D03*
D20*
X176630000Y-62730000D03*
X176540000Y-68030000D03*
X121250000Y-70770000D03*
D19*
X139460000Y-83490000D03*
X178100000Y-101290000D03*
D20*
X171160000Y-58000000D03*
X176630000Y-57050000D03*
X176480000Y-72470000D03*
X171240000Y-63520000D03*
X123970000Y-88430000D03*
D19*
X138020000Y-82130000D03*
D20*
X149850000Y-79870000D03*
X148920000Y-87720000D03*
X149720000Y-83130000D03*
D21*
X121640000Y-64400000D03*
X137180000Y-52820000D03*
X121370000Y-73020000D03*
X156390000Y-70480000D03*
X113820000Y-84230000D03*
X113840000Y-86330000D03*
X135770000Y-69377500D03*
X150490000Y-81520000D03*
X140330000Y-62400000D03*
X146770000Y-69240000D03*
X154987408Y-70730000D03*
X158150000Y-82600000D03*
X133920000Y-63640000D03*
X144690000Y-76880000D03*
X135630000Y-60040000D03*
X144090000Y-71050000D03*
X137310000Y-61120000D03*
X145470000Y-69880000D03*
X136980000Y-56010000D03*
X137000000Y-57300000D03*
X126880000Y-81300000D03*
X144790000Y-75080000D03*
X151880000Y-57730000D03*
X154420000Y-61920000D03*
X153800000Y-63980000D03*
X143460000Y-73780000D03*
X153680000Y-54840000D03*
X132830000Y-76540000D03*
X134150000Y-80820000D03*
X120230000Y-111640000D03*
X129950000Y-111970000D03*
X136780000Y-63660000D03*
X143270000Y-71790000D03*
D23*
X179560000Y-124890000D02*
X184300000Y-129630000D01*
D24*
X183650000Y-113820000D02*
X184300000Y-114470000D01*
D23*
X125810000Y-118940000D02*
X131760000Y-124890000D01*
X131760000Y-124890000D02*
X179560000Y-124890000D01*
D24*
X184300000Y-114470000D02*
X184300000Y-129630000D01*
D23*
X125810000Y-116630000D02*
X125810000Y-118940000D01*
D25*
X169370000Y-75640000D02*
X171400000Y-77670000D01*
D26*
X157640000Y-93680000D02*
X157250000Y-93680000D01*
D25*
X180300000Y-52280000D02*
X180300000Y-56370000D01*
D26*
X133510000Y-90340000D02*
X138810000Y-95640000D01*
D27*
X182240000Y-67820000D02*
X182210000Y-67790000D01*
D26*
X124810000Y-84980000D02*
X126250000Y-83540000D01*
X140280000Y-94870000D02*
X140310000Y-94870000D01*
D28*
X129090000Y-95580000D02*
X135090000Y-101580000D01*
D25*
X171400000Y-77670000D02*
X171400000Y-78260000D01*
D26*
X138810000Y-95640000D02*
X138810000Y-95900000D01*
X134930000Y-89910000D02*
X135320000Y-89910000D01*
D28*
X168030000Y-57180000D02*
X168030000Y-54310000D01*
D25*
X175460000Y-75640000D02*
X174990000Y-75640000D01*
D26*
X163660000Y-52350000D02*
X164100000Y-52790000D01*
X154680000Y-97790000D02*
X157187057Y-95282943D01*
D25*
X148760000Y-60180000D02*
X148660000Y-60080000D01*
D26*
X124810000Y-86650000D02*
X124810000Y-84980000D01*
X152850000Y-93410000D02*
X156100000Y-93410000D01*
D28*
X167830000Y-57380000D02*
X168030000Y-57180000D01*
X126670000Y-95070000D02*
X131810000Y-100210000D01*
D25*
X152140000Y-70560000D02*
X152140000Y-69220000D01*
D23*
X148760000Y-62430000D02*
X148760000Y-60180000D01*
D25*
X153450000Y-71610000D02*
X153450000Y-70020000D01*
D26*
X150380000Y-85630000D02*
X150380000Y-88940000D01*
D28*
X168030000Y-54310000D02*
X168050000Y-54290000D01*
D25*
X173090000Y-78100000D02*
X173090000Y-77540000D01*
D23*
X146330000Y-61230000D02*
X145190000Y-60090000D01*
D26*
X157250000Y-93680000D02*
X154330000Y-96600000D01*
D25*
X182360000Y-71650000D02*
X180820000Y-71650000D01*
D28*
X131810000Y-100210000D02*
X131810000Y-102750000D01*
X129090000Y-94960000D02*
X129090000Y-95580000D01*
D25*
X152170000Y-72880000D02*
X152180000Y-72880000D01*
X181350000Y-62770000D02*
X181350000Y-62080000D01*
X153130000Y-65420000D02*
X153130000Y-68230000D01*
X180820000Y-71650000D02*
X179550000Y-72920000D01*
D26*
X135880000Y-88980000D02*
X136590000Y-88980000D01*
X152820000Y-93380000D02*
X152850000Y-93410000D01*
X136590000Y-88980000D02*
X141450000Y-93840000D01*
D25*
X162840000Y-66320000D02*
X163780000Y-65380000D01*
D26*
X133380000Y-90340000D02*
X133510000Y-90340000D01*
D25*
X180300000Y-56370000D02*
X180030000Y-56640000D01*
X181640000Y-66820000D02*
X181640000Y-63060000D01*
X163780000Y-65380000D02*
X163780000Y-63960000D01*
X181640000Y-63060000D02*
X181350000Y-62770000D01*
D26*
X163660000Y-50110000D02*
X163660000Y-52350000D01*
D25*
X153130000Y-68230000D02*
X152140000Y-69220000D01*
D23*
X146330000Y-62710000D02*
X146330000Y-61230000D01*
D25*
X160520000Y-60310000D02*
X160520000Y-57390000D01*
X151100000Y-71600000D02*
X152140000Y-70560000D01*
D27*
X148660000Y-60080000D02*
X148770000Y-59970000D01*
D25*
X152180000Y-72880000D02*
X153450000Y-71610000D01*
X173090000Y-77540000D02*
X174990000Y-75640000D01*
D26*
X154330000Y-96600000D02*
X153510000Y-96600000D01*
D25*
X181350000Y-62080000D02*
X181380000Y-62050000D01*
X182240000Y-70480000D02*
X182240000Y-67820000D01*
D26*
X157187057Y-95282943D02*
X157644497Y-95282943D01*
X135320000Y-89910000D02*
X140280000Y-94870000D01*
X118800000Y-87710000D02*
X120470000Y-86040000D01*
D23*
X156450000Y-99190000D02*
X159540000Y-96100000D01*
D28*
X128610000Y-92430000D02*
X123570000Y-92430000D01*
D23*
X156450000Y-99220000D02*
X156450000Y-99190000D01*
D28*
X135350000Y-99170000D02*
X128610000Y-92430000D01*
D26*
X120470000Y-86040000D02*
X120470000Y-83590000D01*
D29*
X147430000Y-108820000D02*
X139670000Y-116580000D01*
X147430000Y-103630000D02*
X147430000Y-108820000D01*
D26*
X120470000Y-83590000D02*
X120660000Y-83400000D01*
D28*
X123570000Y-92430000D02*
X119980000Y-88840000D01*
D26*
X152300000Y-90050000D02*
X152660000Y-89690000D01*
X147840000Y-90050000D02*
X152300000Y-90050000D01*
X147010000Y-89220000D02*
X147840000Y-90050000D01*
X152660000Y-89690000D02*
X155930000Y-89690000D01*
X148710000Y-87510000D02*
X148920000Y-87720000D01*
X148710000Y-84140000D02*
X148710000Y-87510000D01*
X149720000Y-83130000D02*
X148710000Y-84140000D01*
D27*
X137180000Y-52820000D02*
X136560000Y-52820000D01*
X124980000Y-64400000D02*
X121640000Y-64400000D01*
X136560000Y-52820000D02*
X124980000Y-64400000D01*
X122030000Y-73730000D02*
X121330000Y-73030000D01*
X161040000Y-84230000D02*
X157730000Y-84230000D01*
X139290000Y-73730000D02*
X122030000Y-73730000D01*
X157730000Y-84230000D02*
X155760000Y-82260000D01*
X161450000Y-75540000D02*
X161450000Y-83820000D01*
X156390000Y-70480000D02*
X161450000Y-75540000D01*
X161450000Y-83820000D02*
X161040000Y-84230000D01*
X147820000Y-82260000D02*
X139290000Y-73730000D01*
X155760000Y-82260000D02*
X147820000Y-82260000D01*
D30*
X113820000Y-84230000D02*
X113820000Y-86310000D01*
X113820000Y-86310000D02*
X113840000Y-86330000D01*
D27*
X150490000Y-81520000D02*
X147870000Y-81520000D01*
X135770000Y-69420000D02*
X135770000Y-69377500D01*
X147870000Y-81520000D02*
X135770000Y-69420000D01*
X146770000Y-68840000D02*
X146770000Y-69240000D01*
X140330000Y-62400000D02*
X146770000Y-68840000D01*
X158150000Y-82600000D02*
X158150000Y-82120000D01*
X144820000Y-76930000D02*
X144690000Y-76880000D01*
X154970000Y-78940000D02*
X154970000Y-70747408D01*
X137340000Y-69770000D02*
X137340000Y-67060000D01*
X144450000Y-76880000D02*
X137340000Y-69770000D01*
X158150000Y-82120000D02*
X154970000Y-78940000D01*
X144720000Y-76930000D02*
X144770000Y-76930000D01*
X154970000Y-70747408D02*
X154987408Y-70730000D01*
X154970000Y-76880000D02*
X144870000Y-76880000D01*
X154970000Y-70747408D02*
X154970000Y-76880000D01*
X137340000Y-67060000D02*
X133920000Y-63640000D01*
X144690000Y-76880000D02*
X144450000Y-76880000D01*
X144690000Y-76880000D02*
X144720000Y-76930000D01*
X144870000Y-76880000D02*
X144820000Y-76930000D01*
X135630000Y-60040000D02*
X135630000Y-61290000D01*
X144090000Y-69750000D02*
X144090000Y-71050000D01*
X135630000Y-61290000D02*
X144090000Y-69750000D01*
X145470000Y-69880000D02*
X137310000Y-61720000D01*
X137310000Y-61720000D02*
X137310000Y-61120000D01*
X162920000Y-54370000D02*
X162920000Y-60810000D01*
X136980000Y-56010000D02*
X141280000Y-56010000D01*
X162920000Y-60810000D02*
X181700000Y-79590000D01*
X144050000Y-53240000D02*
X161790000Y-53240000D01*
X181700000Y-79590000D02*
X181700000Y-86240000D01*
X141280000Y-56010000D02*
X144050000Y-53240000D01*
X181700000Y-86240000D02*
X183980000Y-88520000D01*
X161790000Y-53240000D02*
X162920000Y-54370000D01*
X137010000Y-57290000D02*
X137000000Y-57300000D01*
X144360000Y-53900000D02*
X140970000Y-57290000D01*
X161330000Y-53900000D02*
X144360000Y-53900000D01*
X180810000Y-87600000D02*
X180810000Y-79750000D01*
X162250000Y-61190000D02*
X162250000Y-54820000D01*
X183980000Y-91060000D02*
X183980000Y-90770000D01*
X183980000Y-90770000D02*
X180810000Y-87600000D01*
X162250000Y-54820000D02*
X161330000Y-53900000D01*
X180810000Y-79750000D02*
X162250000Y-61190000D01*
X140970000Y-57290000D02*
X137010000Y-57290000D01*
X164450000Y-95420000D02*
X161220000Y-92190000D01*
X127950000Y-83340000D02*
X126880000Y-82270000D01*
X144090000Y-92190000D02*
X135240000Y-83340000D01*
X178350000Y-94470000D02*
X177400000Y-95420000D01*
X177110000Y-80790000D02*
X178350000Y-82030000D01*
X126880000Y-82270000D02*
X126880000Y-81300000D01*
X135240000Y-83340000D02*
X127950000Y-83340000D01*
X177400000Y-95420000D02*
X164450000Y-95420000D01*
X178350000Y-82030000D02*
X178350000Y-94470000D01*
X176120000Y-80790000D02*
X177110000Y-80790000D01*
X161220000Y-92190000D02*
X144090000Y-92190000D01*
X151880000Y-67900000D02*
X151880000Y-57730000D01*
X176120000Y-83330000D02*
X174480000Y-83330000D01*
X174480000Y-83330000D02*
X151880000Y-60730000D01*
X151880000Y-60730000D02*
X151880000Y-57730000D01*
X144790000Y-75080000D02*
X144790000Y-74990000D01*
X144790000Y-74990000D02*
X151880000Y-67900000D01*
X176120000Y-85870000D02*
X175650000Y-85870000D01*
X150230000Y-67060000D02*
X150230000Y-57380000D01*
X153800000Y-63980000D02*
X153760000Y-63980000D01*
X153680000Y-54840000D02*
X153680000Y-61280000D01*
X143460000Y-73780000D02*
X143510000Y-73780000D01*
X150230000Y-57380000D02*
X152770000Y-54840000D01*
X153800000Y-64020000D02*
X153800000Y-63980000D01*
X143510000Y-73780000D02*
X150230000Y-67060000D01*
X154320000Y-61920000D02*
X154420000Y-61920000D01*
X152770000Y-54840000D02*
X153680000Y-54840000D01*
X175650000Y-85870000D02*
X153800000Y-64020000D01*
X154420000Y-61920000D02*
X154420000Y-62020000D01*
X153760000Y-63980000D02*
X153800000Y-64020000D01*
X154420000Y-62020000D02*
X154420000Y-62020000D01*
X153680000Y-61280000D02*
X154320000Y-61920000D01*
X144480000Y-90950000D02*
X176120000Y-90950000D01*
X134350000Y-80820000D02*
X144480000Y-90950000D01*
X134150000Y-77860000D02*
X132830000Y-76540000D01*
X134150000Y-80820000D02*
X134150000Y-77860000D01*
X134150000Y-80820000D02*
X134350000Y-80820000D01*
X120560000Y-111970000D02*
X129950000Y-111970000D01*
X120230000Y-111640000D02*
X120560000Y-111970000D01*
X143270000Y-70900000D02*
X143270000Y-71790000D01*
X136780000Y-63660000D02*
X136780000Y-64410000D01*
X136780000Y-64410000D02*
X143270000Y-70900000D01*
G04 #@! TA.AperFunction,Conductor*
G36*
X181634725Y-48769369D02*
G01*
X181701662Y-48789390D01*
X181747151Y-48842424D01*
X181758085Y-48895262D01*
X181574150Y-60928864D01*
X181553443Y-60995595D01*
X181499946Y-61040537D01*
X181438011Y-61050372D01*
X181380001Y-61044659D01*
X181380000Y-61044659D01*
X181183870Y-61063975D01*
X180995266Y-61121188D01*
X180821467Y-61214086D01*
X180821460Y-61214090D01*
X180669116Y-61339116D01*
X180544090Y-61491460D01*
X180544086Y-61491467D01*
X180451188Y-61665266D01*
X180393975Y-61853870D01*
X180374659Y-62050000D01*
X180393975Y-62246129D01*
X180451187Y-62434730D01*
X180457072Y-62445739D01*
X180482987Y-62494223D01*
X180484858Y-62497722D01*
X180499500Y-62556176D01*
X180499500Y-62732911D01*
X180499295Y-62737945D01*
X180494798Y-62793163D01*
X180505729Y-62873392D01*
X180514486Y-62953913D01*
X180514710Y-62954930D01*
X180519525Y-62975473D01*
X180519773Y-62976470D01*
X180545030Y-63045219D01*
X180547700Y-63052486D01*
X180554574Y-63072888D01*
X180573557Y-63129223D01*
X180574001Y-63130185D01*
X180583146Y-63149266D01*
X180583564Y-63150109D01*
X180583567Y-63150114D01*
X180583568Y-63150116D01*
X180603966Y-63182028D01*
X180627184Y-63218353D01*
X180668930Y-63287736D01*
X180669538Y-63288536D01*
X180682578Y-63305216D01*
X180683197Y-63305986D01*
X180683200Y-63305989D01*
X180740457Y-63363246D01*
X180755523Y-63379151D01*
X180787335Y-63441355D01*
X180789500Y-63464425D01*
X180789500Y-66257697D01*
X180774858Y-66316150D01*
X180711188Y-66435267D01*
X180653975Y-66623870D01*
X180634659Y-66820000D01*
X180653975Y-67016129D01*
X180655347Y-67020651D01*
X180704946Y-67184158D01*
X180711188Y-67204733D01*
X180804086Y-67378532D01*
X180804090Y-67378539D01*
X180929116Y-67530883D01*
X181000599Y-67589547D01*
X181081462Y-67655910D01*
X181139112Y-67686724D01*
X181188956Y-67735685D01*
X181201565Y-67784183D01*
X181204062Y-67783938D01*
X181223975Y-67986129D01*
X181223976Y-67986132D01*
X181269848Y-68137352D01*
X181281188Y-68174732D01*
X181374858Y-68349976D01*
X181389500Y-68408429D01*
X181389500Y-69917697D01*
X181374858Y-69976150D01*
X181311188Y-70095267D01*
X181253975Y-70283870D01*
X181234659Y-70479999D01*
X181252717Y-70663346D01*
X181239698Y-70731992D01*
X181191633Y-70782702D01*
X181129314Y-70799500D01*
X180857087Y-70799500D01*
X180852052Y-70799295D01*
X180796835Y-70794798D01*
X180796828Y-70794799D01*
X180716607Y-70805729D01*
X180636092Y-70814485D01*
X180635131Y-70814697D01*
X180614471Y-70819538D01*
X180613534Y-70819771D01*
X180537513Y-70847700D01*
X180460784Y-70873553D01*
X180459920Y-70873953D01*
X180440721Y-70883152D01*
X180439881Y-70883569D01*
X180371659Y-70927176D01*
X180302268Y-70968927D01*
X180301489Y-70969519D01*
X180284764Y-70982595D01*
X180284013Y-70983198D01*
X180226768Y-71040442D01*
X180167956Y-71096153D01*
X180167346Y-71096871D01*
X180153091Y-71114119D01*
X179346213Y-71920997D01*
X179294528Y-71951976D01*
X179165271Y-71991186D01*
X178991467Y-72084086D01*
X178991460Y-72084090D01*
X178839116Y-72209116D01*
X178714090Y-72361460D01*
X178714086Y-72361467D01*
X178621188Y-72535266D01*
X178563975Y-72723870D01*
X178544659Y-72920000D01*
X178563975Y-73116129D01*
X178572960Y-73145749D01*
X178603912Y-73247784D01*
X178621188Y-73304733D01*
X178714086Y-73478532D01*
X178714090Y-73478539D01*
X178839116Y-73630883D01*
X178991460Y-73755909D01*
X178991467Y-73755913D01*
X179165266Y-73848811D01*
X179165269Y-73848811D01*
X179165273Y-73848814D01*
X179353868Y-73906024D01*
X179550000Y-73925341D01*
X179746132Y-73906024D01*
X179934727Y-73848814D01*
X180108538Y-73755910D01*
X180260883Y-73630883D01*
X180385910Y-73478538D01*
X180478814Y-73304727D01*
X180518024Y-73175467D01*
X180549000Y-73123787D01*
X181135970Y-72536819D01*
X181197293Y-72503334D01*
X181223651Y-72500500D01*
X181294038Y-72500500D01*
X181361077Y-72520185D01*
X181406832Y-72572989D01*
X181418034Y-72625405D01*
X181412284Y-73411722D01*
X181378107Y-78085065D01*
X181357932Y-78151959D01*
X181304795Y-78197326D01*
X181235566Y-78206764D01*
X181172224Y-78177275D01*
X181166429Y-78171839D01*
X172828263Y-69833673D01*
X163581819Y-60587228D01*
X163548334Y-60525905D01*
X163545500Y-60499547D01*
X163545500Y-57380000D01*
X166924540Y-57380000D01*
X166944326Y-57568256D01*
X166944327Y-57568259D01*
X167002818Y-57748277D01*
X167002821Y-57748283D01*
X167002821Y-57748284D01*
X167097467Y-57912216D01*
X167224129Y-58052888D01*
X167377265Y-58164148D01*
X167377270Y-58164151D01*
X167550192Y-58241142D01*
X167550197Y-58241144D01*
X167735354Y-58280500D01*
X167735355Y-58280500D01*
X167924644Y-58280500D01*
X167924646Y-58280500D01*
X168109803Y-58241144D01*
X168282730Y-58164151D01*
X168435871Y-58052888D01*
X168562533Y-57912216D01*
X168657179Y-57748284D01*
X168689067Y-57650138D01*
X168710057Y-57611137D01*
X168712092Y-57608586D01*
X168730216Y-57570949D01*
X168733570Y-57564881D01*
X168755789Y-57529522D01*
X168769581Y-57490107D01*
X168772244Y-57483679D01*
X168775986Y-57475909D01*
X168790360Y-57446061D01*
X168799658Y-57405321D01*
X168801571Y-57398680D01*
X168815368Y-57359255D01*
X168820043Y-57317760D01*
X168821208Y-57310905D01*
X168823697Y-57300000D01*
X168830500Y-57270194D01*
X168830500Y-57089805D01*
X168830500Y-56640000D01*
X179024659Y-56640000D01*
X179043975Y-56836129D01*
X179043976Y-56836132D01*
X179085591Y-56973319D01*
X179101188Y-57024733D01*
X179194086Y-57198532D01*
X179194090Y-57198539D01*
X179319116Y-57350883D01*
X179471460Y-57475909D01*
X179471467Y-57475913D01*
X179645266Y-57568811D01*
X179645269Y-57568811D01*
X179645273Y-57568814D01*
X179833868Y-57626024D01*
X180030000Y-57645341D01*
X180226132Y-57626024D01*
X180414727Y-57568814D01*
X180415766Y-57568259D01*
X180561977Y-57490107D01*
X180588538Y-57475910D01*
X180740883Y-57350883D01*
X180865910Y-57198538D01*
X180940458Y-57059068D01*
X180958812Y-57024731D01*
X180958812Y-57024730D01*
X180958814Y-57024727D01*
X181009810Y-56856612D01*
X181018740Y-56837233D01*
X181017848Y-56836791D01*
X181020767Y-56830903D01*
X181032426Y-56812105D01*
X181033050Y-56811069D01*
X181033054Y-56811064D01*
X181067055Y-56737570D01*
X181103037Y-56665021D01*
X181103037Y-56665017D01*
X181103440Y-56663923D01*
X181110329Y-56644361D01*
X181110727Y-56643177D01*
X181110732Y-56643167D01*
X181128139Y-56564083D01*
X181147684Y-56485494D01*
X181147684Y-56485492D01*
X181147833Y-56484400D01*
X181150371Y-56463677D01*
X181150500Y-56462497D01*
X181150500Y-56381530D01*
X181152693Y-56300563D01*
X181152608Y-56299520D01*
X181150500Y-56277352D01*
X181150500Y-52842301D01*
X181165141Y-52783850D01*
X181228814Y-52664727D01*
X181286024Y-52476132D01*
X181305341Y-52280000D01*
X181286024Y-52083868D01*
X181228814Y-51895273D01*
X181228811Y-51895269D01*
X181228811Y-51895266D01*
X181135913Y-51721467D01*
X181135909Y-51721460D01*
X181010883Y-51569116D01*
X180858539Y-51444090D01*
X180858532Y-51444086D01*
X180684733Y-51351188D01*
X180684727Y-51351186D01*
X180496132Y-51293976D01*
X180496129Y-51293975D01*
X180300000Y-51274659D01*
X180103870Y-51293975D01*
X179915266Y-51351188D01*
X179741467Y-51444086D01*
X179741460Y-51444090D01*
X179589116Y-51569116D01*
X179464090Y-51721460D01*
X179464086Y-51721467D01*
X179371188Y-51895266D01*
X179313975Y-52083870D01*
X179294659Y-52280000D01*
X179313975Y-52476129D01*
X179328574Y-52524255D01*
X179362035Y-52634562D01*
X179371187Y-52664730D01*
X179388610Y-52697325D01*
X179434858Y-52783850D01*
X179449500Y-52842301D01*
X179449500Y-55763466D01*
X179429815Y-55830505D01*
X179404168Y-55859315D01*
X179319117Y-55929117D01*
X179319114Y-55929119D01*
X179319112Y-55929122D01*
X179194090Y-56081460D01*
X179194086Y-56081467D01*
X179101188Y-56255266D01*
X179043975Y-56443870D01*
X179024659Y-56640000D01*
X168830500Y-56640000D01*
X168830500Y-54772359D01*
X168847113Y-54710359D01*
X168877179Y-54658284D01*
X168935674Y-54478256D01*
X168955460Y-54290000D01*
X168935674Y-54101744D01*
X168877179Y-53921716D01*
X168782533Y-53757784D01*
X168655871Y-53617112D01*
X168640453Y-53605910D01*
X168502734Y-53505851D01*
X168502729Y-53505848D01*
X168329807Y-53428857D01*
X168329802Y-53428855D01*
X168184001Y-53397865D01*
X168144646Y-53389500D01*
X167955354Y-53389500D01*
X167922897Y-53396398D01*
X167770197Y-53428855D01*
X167770192Y-53428857D01*
X167597270Y-53505848D01*
X167597265Y-53505851D01*
X167444129Y-53617111D01*
X167317466Y-53757785D01*
X167222821Y-53921715D01*
X167222818Y-53921722D01*
X167164327Y-54101740D01*
X167164326Y-54101744D01*
X167144540Y-54290000D01*
X167164326Y-54478256D01*
X167164327Y-54478259D01*
X167223431Y-54660162D01*
X167229500Y-54698480D01*
X167229500Y-56653547D01*
X167209815Y-56720586D01*
X167197650Y-56736519D01*
X167097466Y-56847785D01*
X167002821Y-57011715D01*
X167002818Y-57011722D01*
X166944327Y-57191740D01*
X166944326Y-57191744D01*
X166924540Y-57380000D01*
X163545500Y-57380000D01*
X163545500Y-54452737D01*
X163547224Y-54437123D01*
X163546938Y-54437096D01*
X163547672Y-54429333D01*
X163545500Y-54360203D01*
X163545500Y-54330651D01*
X163545500Y-54330650D01*
X163544629Y-54323759D01*
X163544172Y-54317945D01*
X163543294Y-54290000D01*
X163542709Y-54271373D01*
X163537121Y-54252139D01*
X163533174Y-54233081D01*
X163530664Y-54213208D01*
X163513507Y-54169875D01*
X163511614Y-54164346D01*
X163498618Y-54119614D01*
X163498617Y-54119610D01*
X163488420Y-54102368D01*
X163479863Y-54084902D01*
X163472486Y-54066268D01*
X163445083Y-54028550D01*
X163441900Y-54023705D01*
X163418170Y-53983579D01*
X163418165Y-53983573D01*
X163404005Y-53969413D01*
X163391370Y-53954620D01*
X163379593Y-53938412D01*
X163343693Y-53908713D01*
X163339381Y-53904790D01*
X162290803Y-52856212D01*
X162280980Y-52843950D01*
X162280759Y-52844134D01*
X162275786Y-52838123D01*
X162225364Y-52790773D01*
X162214919Y-52780328D01*
X162204475Y-52769883D01*
X162198986Y-52765625D01*
X162194561Y-52761847D01*
X162160582Y-52729938D01*
X162160580Y-52729936D01*
X162160577Y-52729935D01*
X162143029Y-52720288D01*
X162126763Y-52709604D01*
X162110933Y-52697325D01*
X162068168Y-52678818D01*
X162062922Y-52676248D01*
X162022093Y-52653803D01*
X162022092Y-52653802D01*
X162002693Y-52648822D01*
X161984281Y-52642518D01*
X161965898Y-52634562D01*
X161965892Y-52634560D01*
X161919874Y-52627272D01*
X161914152Y-52626087D01*
X161869021Y-52614500D01*
X161869019Y-52614500D01*
X161848984Y-52614500D01*
X161829586Y-52612973D01*
X161822162Y-52611797D01*
X161809805Y-52609840D01*
X161809804Y-52609840D01*
X161763416Y-52614225D01*
X161757578Y-52614500D01*
X144132743Y-52614500D01*
X144117122Y-52612775D01*
X144117095Y-52613061D01*
X144109333Y-52612326D01*
X144040172Y-52614500D01*
X144010649Y-52614500D01*
X144003778Y-52615367D01*
X143997959Y-52615825D01*
X143951374Y-52617289D01*
X143951368Y-52617290D01*
X143932126Y-52622880D01*
X143913087Y-52626823D01*
X143893217Y-52629334D01*
X143893203Y-52629337D01*
X143849883Y-52646488D01*
X143844358Y-52648380D01*
X143799613Y-52661380D01*
X143799610Y-52661381D01*
X143782366Y-52671579D01*
X143764905Y-52680133D01*
X143746274Y-52687510D01*
X143746262Y-52687517D01*
X143708570Y-52714902D01*
X143703687Y-52718109D01*
X143663580Y-52741829D01*
X143649414Y-52755995D01*
X143634624Y-52768627D01*
X143618414Y-52780404D01*
X143618411Y-52780407D01*
X143588710Y-52816309D01*
X143584777Y-52820631D01*
X141057228Y-55348181D01*
X140995905Y-55381666D01*
X140969547Y-55384500D01*
X137683748Y-55384500D01*
X137616709Y-55364815D01*
X137591600Y-55343474D01*
X137585873Y-55337114D01*
X137585869Y-55337110D01*
X137432734Y-55225851D01*
X137432729Y-55225848D01*
X137259807Y-55148857D01*
X137259802Y-55148855D01*
X137106379Y-55116245D01*
X137074646Y-55109500D01*
X136885354Y-55109500D01*
X136853621Y-55116245D01*
X136700197Y-55148855D01*
X136700192Y-55148857D01*
X136527270Y-55225848D01*
X136527265Y-55225851D01*
X136374129Y-55337111D01*
X136247466Y-55477785D01*
X136152821Y-55641715D01*
X136152818Y-55641722D01*
X136094327Y-55821740D01*
X136094326Y-55821744D01*
X136074540Y-56010000D01*
X136094326Y-56198256D01*
X136094327Y-56198259D01*
X136152818Y-56378277D01*
X136152821Y-56378284D01*
X136247467Y-56542216D01*
X136267156Y-56564083D01*
X136284310Y-56583135D01*
X136314539Y-56646127D01*
X136305913Y-56715462D01*
X136284311Y-56749076D01*
X136267466Y-56767785D01*
X136172821Y-56931715D01*
X136172818Y-56931722D01*
X136116675Y-57104514D01*
X136114326Y-57111744D01*
X136094540Y-57300000D01*
X136114326Y-57488256D01*
X136114327Y-57488259D01*
X136172818Y-57668277D01*
X136172821Y-57668284D01*
X136267467Y-57832216D01*
X136394128Y-57972887D01*
X136394129Y-57972888D01*
X136547265Y-58084148D01*
X136547270Y-58084151D01*
X136720192Y-58161142D01*
X136720197Y-58161144D01*
X136905354Y-58200500D01*
X136905355Y-58200500D01*
X137094644Y-58200500D01*
X137094646Y-58200500D01*
X137279803Y-58161144D01*
X137452730Y-58084151D01*
X137605871Y-57972888D01*
X137620603Y-57956527D01*
X137680090Y-57919879D01*
X137712752Y-57915500D01*
X140887257Y-57915500D01*
X140902877Y-57917224D01*
X140902904Y-57916939D01*
X140910660Y-57917671D01*
X140910667Y-57917673D01*
X140979814Y-57915500D01*
X141009350Y-57915500D01*
X141016228Y-57914630D01*
X141022041Y-57914172D01*
X141068627Y-57912709D01*
X141087869Y-57907117D01*
X141106912Y-57903174D01*
X141126792Y-57900664D01*
X141170122Y-57883507D01*
X141175646Y-57881617D01*
X141179396Y-57880527D01*
X141220390Y-57868618D01*
X141237629Y-57858422D01*
X141255103Y-57849862D01*
X141273727Y-57842488D01*
X141273727Y-57842487D01*
X141273732Y-57842486D01*
X141311449Y-57815082D01*
X141316305Y-57811892D01*
X141356420Y-57788170D01*
X141370589Y-57773999D01*
X141385379Y-57761368D01*
X141401587Y-57749594D01*
X141431299Y-57713676D01*
X141435212Y-57709376D01*
X144582772Y-54561819D01*
X144644095Y-54528334D01*
X144670453Y-54525500D01*
X145893952Y-54525500D01*
X145960991Y-54545185D01*
X146006746Y-54597989D01*
X146016690Y-54667147D01*
X145987665Y-54730703D01*
X145934907Y-54766542D01*
X145862976Y-54791711D01*
X145710237Y-54887684D01*
X145582684Y-55015237D01*
X145486710Y-55167978D01*
X145427130Y-55338250D01*
X145422366Y-55380532D01*
X145395298Y-55444945D01*
X145337702Y-55484499D01*
X145313032Y-55489866D01*
X145270750Y-55494630D01*
X145100478Y-55554210D01*
X144947737Y-55650184D01*
X144820184Y-55777737D01*
X144724211Y-55930476D01*
X144664631Y-56100745D01*
X144664630Y-56100750D01*
X144644435Y-56279996D01*
X144644435Y-56280003D01*
X144664630Y-56459249D01*
X144664631Y-56459254D01*
X144724211Y-56629523D01*
X144820184Y-56782262D01*
X144947739Y-56909817D01*
X144991807Y-56937507D01*
X145038097Y-56989842D01*
X145048745Y-57058895D01*
X145020370Y-57122743D01*
X144991807Y-57147493D01*
X144947739Y-57175182D01*
X144820184Y-57302737D01*
X144724211Y-57455476D01*
X144664631Y-57625745D01*
X144664630Y-57625750D01*
X144644435Y-57804996D01*
X144644435Y-57805003D01*
X144664630Y-57984249D01*
X144664631Y-57984254D01*
X144724211Y-58154523D01*
X144764906Y-58219288D01*
X144820184Y-58307262D01*
X144947738Y-58434816D01*
X145100478Y-58530789D01*
X145270745Y-58590368D01*
X145313030Y-58595132D01*
X145377442Y-58622197D01*
X145416998Y-58679791D01*
X145422366Y-58704467D01*
X145427130Y-58746749D01*
X145427131Y-58746754D01*
X145427132Y-58746755D01*
X145434111Y-58766701D01*
X145486712Y-58917027D01*
X145489731Y-58923295D01*
X145487314Y-58924458D01*
X145502996Y-58979917D01*
X145482639Y-59046756D01*
X145429379Y-59091979D01*
X145366849Y-59102076D01*
X145190001Y-59084659D01*
X145190000Y-59084659D01*
X144993870Y-59103975D01*
X144805266Y-59161188D01*
X144631467Y-59254086D01*
X144631460Y-59254090D01*
X144479116Y-59379116D01*
X144354090Y-59531460D01*
X144354086Y-59531467D01*
X144261188Y-59705266D01*
X144203975Y-59893870D01*
X144184659Y-60090000D01*
X144203975Y-60286129D01*
X144203976Y-60286132D01*
X144258120Y-60464621D01*
X144261188Y-60474733D01*
X144354086Y-60648532D01*
X144354090Y-60648539D01*
X144479116Y-60800883D01*
X144631460Y-60925909D01*
X144631467Y-60925913D01*
X144805273Y-61018814D01*
X144833026Y-61027233D01*
X144884714Y-61058213D01*
X145393181Y-61566680D01*
X145426666Y-61628003D01*
X145429500Y-61654361D01*
X145429500Y-62241240D01*
X145414859Y-62299693D01*
X145401187Y-62325271D01*
X145343975Y-62513870D01*
X145324659Y-62710000D01*
X145343975Y-62906129D01*
X145401188Y-63094733D01*
X145494086Y-63268532D01*
X145494090Y-63268539D01*
X145619116Y-63420883D01*
X145771460Y-63545909D01*
X145771467Y-63545913D01*
X145945266Y-63638811D01*
X145945269Y-63638811D01*
X145945273Y-63638814D01*
X146133868Y-63696024D01*
X146330000Y-63715341D01*
X146526132Y-63696024D01*
X146714727Y-63638814D01*
X146757692Y-63615849D01*
X146888532Y-63545913D01*
X146888538Y-63545910D01*
X147040883Y-63420883D01*
X147165910Y-63268538D01*
X147239861Y-63130185D01*
X147258811Y-63094733D01*
X147258811Y-63094732D01*
X147258814Y-63094727D01*
X147316024Y-62906132D01*
X147335341Y-62710000D01*
X147316024Y-62513868D01*
X147258814Y-62325273D01*
X147245140Y-62299692D01*
X147230500Y-62241240D01*
X147230500Y-61310626D01*
X147232027Y-61291225D01*
X147234219Y-61277388D01*
X147230585Y-61208047D01*
X147230500Y-61204802D01*
X147230500Y-61182813D01*
X147230500Y-61182808D01*
X147228199Y-61160921D01*
X147227946Y-61157711D01*
X147224312Y-61088354D01*
X147224311Y-61088348D01*
X147220687Y-61074825D01*
X147217139Y-61055684D01*
X147215674Y-61041748D01*
X147215674Y-61041747D01*
X147215674Y-61041744D01*
X147194214Y-60975699D01*
X147193291Y-60972585D01*
X147182347Y-60931740D01*
X147175320Y-60905512D01*
X147168954Y-60893019D01*
X147161508Y-60875042D01*
X147159395Y-60868539D01*
X147157179Y-60861716D01*
X147157178Y-60861714D01*
X147157175Y-60861707D01*
X147123062Y-60802625D01*
X147122443Y-60801552D01*
X147120920Y-60798747D01*
X147089383Y-60736851D01*
X147089382Y-60736849D01*
X147080560Y-60725955D01*
X147069538Y-60709918D01*
X147062532Y-60697783D01*
X147062531Y-60697781D01*
X147016060Y-60646170D01*
X147013952Y-60643702D01*
X147000118Y-60626619D01*
X146984577Y-60611078D01*
X146982341Y-60608722D01*
X146935872Y-60557113D01*
X146927333Y-60550909D01*
X146924525Y-60548869D01*
X146909734Y-60536235D01*
X146158213Y-59784714D01*
X146127233Y-59733026D01*
X146118814Y-59705273D01*
X146035090Y-59548635D01*
X146020848Y-59480232D01*
X146045848Y-59414989D01*
X146102153Y-59373618D01*
X146158332Y-59366962D01*
X146212497Y-59373065D01*
X146212500Y-59373065D01*
X146212504Y-59373065D01*
X146391749Y-59352869D01*
X146391752Y-59352868D01*
X146391755Y-59352868D01*
X146562022Y-59293289D01*
X146714762Y-59197316D01*
X146842316Y-59069762D01*
X146870006Y-59025692D01*
X146922341Y-58979402D01*
X146991394Y-58968754D01*
X147055243Y-58997129D01*
X147079992Y-59025691D01*
X147107684Y-59069762D01*
X147235238Y-59197316D01*
X147387978Y-59293289D01*
X147466466Y-59320753D01*
X147558245Y-59352868D01*
X147558250Y-59352869D01*
X147737496Y-59373065D01*
X147744464Y-59373065D01*
X147744464Y-59375277D01*
X147802872Y-59385504D01*
X147854254Y-59432849D01*
X147871883Y-59500458D01*
X147857300Y-59555125D01*
X147841188Y-59585268D01*
X147783975Y-59773870D01*
X147764659Y-59970000D01*
X147783975Y-60166129D01*
X147783976Y-60166132D01*
X147841186Y-60354727D01*
X147841187Y-60354730D01*
X147841188Y-60354731D01*
X147844856Y-60361593D01*
X147859500Y-60420050D01*
X147859500Y-61961240D01*
X147844859Y-62019693D01*
X147831187Y-62045271D01*
X147773975Y-62233870D01*
X147754659Y-62430000D01*
X147773975Y-62626129D01*
X147773976Y-62626132D01*
X147827286Y-62801872D01*
X147831188Y-62814733D01*
X147924086Y-62988532D01*
X147924090Y-62988539D01*
X148049116Y-63140883D01*
X148201460Y-63265909D01*
X148201467Y-63265913D01*
X148375266Y-63358811D01*
X148375269Y-63358811D01*
X148375273Y-63358814D01*
X148563868Y-63416024D01*
X148760000Y-63435341D01*
X148956132Y-63416024D01*
X149144727Y-63358814D01*
X149318538Y-63265910D01*
X149359654Y-63232167D01*
X149401835Y-63197550D01*
X149466145Y-63170237D01*
X149535012Y-63182028D01*
X149586573Y-63229180D01*
X149604500Y-63293403D01*
X149604500Y-66749546D01*
X149584815Y-66816585D01*
X149568181Y-66837227D01*
X147687290Y-68718117D01*
X147625967Y-68751602D01*
X147556275Y-68746618D01*
X147508683Y-68710990D01*
X147506881Y-68712613D01*
X147477810Y-68680327D01*
X147375871Y-68567112D01*
X147375867Y-68567109D01*
X147326151Y-68530987D01*
X147298721Y-68503558D01*
X147298434Y-68503163D01*
X147295085Y-68498554D01*
X147291891Y-68493690D01*
X147268170Y-68453579D01*
X147268167Y-68453576D01*
X147268165Y-68453573D01*
X147254005Y-68439413D01*
X147241370Y-68424620D01*
X147231982Y-68411700D01*
X147229594Y-68408413D01*
X147193693Y-68378713D01*
X147189381Y-68374790D01*
X141268960Y-62454369D01*
X141235475Y-62393046D01*
X141233323Y-62379668D01*
X141215674Y-62211744D01*
X141157179Y-62031716D01*
X141062533Y-61867784D01*
X140935871Y-61727112D01*
X140935870Y-61727111D01*
X140782734Y-61615851D01*
X140782729Y-61615848D01*
X140609807Y-61538857D01*
X140609802Y-61538855D01*
X140464001Y-61507865D01*
X140424646Y-61499500D01*
X140235354Y-61499500D01*
X140202897Y-61506398D01*
X140050197Y-61538855D01*
X140050192Y-61538857D01*
X139877270Y-61615848D01*
X139877265Y-61615851D01*
X139724129Y-61727111D01*
X139597466Y-61867785D01*
X139502821Y-62031715D01*
X139502818Y-62031722D01*
X139444327Y-62211740D01*
X139444326Y-62211744D01*
X139424540Y-62400000D01*
X139444326Y-62588256D01*
X139444326Y-62588258D01*
X139444327Y-62588260D01*
X139468327Y-62662126D01*
X139470322Y-62731967D01*
X139434241Y-62791799D01*
X139371540Y-62822627D01*
X139302126Y-62814662D01*
X139262715Y-62788124D01*
X138140659Y-61666068D01*
X138107174Y-61604745D01*
X138112158Y-61535053D01*
X138120947Y-61516397D01*
X138137179Y-61488284D01*
X138195674Y-61308256D01*
X138215460Y-61120000D01*
X138195674Y-60931744D01*
X138137179Y-60751716D01*
X138042533Y-60587784D01*
X137915871Y-60447112D01*
X137915870Y-60447111D01*
X137762734Y-60335851D01*
X137762729Y-60335848D01*
X137589807Y-60258857D01*
X137589802Y-60258855D01*
X137444001Y-60227865D01*
X137404646Y-60219500D01*
X137215354Y-60219500D01*
X137182897Y-60226398D01*
X137030197Y-60258855D01*
X137030192Y-60258857D01*
X136857270Y-60335848D01*
X136857265Y-60335851D01*
X136704131Y-60447110D01*
X136688364Y-60464621D01*
X136628876Y-60501268D01*
X136559019Y-60499937D01*
X136500972Y-60461049D01*
X136473163Y-60396952D01*
X136478283Y-60343330D01*
X136515674Y-60228256D01*
X136535460Y-60040000D01*
X136515674Y-59851744D01*
X136457179Y-59671716D01*
X136362533Y-59507784D01*
X136235871Y-59367112D01*
X136235665Y-59366962D01*
X136082734Y-59255851D01*
X136082729Y-59255848D01*
X135909807Y-59178857D01*
X135909802Y-59178855D01*
X135764001Y-59147865D01*
X135724646Y-59139500D01*
X135535354Y-59139500D01*
X135502897Y-59146398D01*
X135350197Y-59178855D01*
X135350192Y-59178857D01*
X135177270Y-59255848D01*
X135177265Y-59255851D01*
X135024129Y-59367111D01*
X134897466Y-59507785D01*
X134802821Y-59671715D01*
X134802818Y-59671722D01*
X134752703Y-59825961D01*
X134744326Y-59851744D01*
X134724540Y-60040000D01*
X134744326Y-60228256D01*
X134744327Y-60228259D01*
X134802818Y-60408277D01*
X134802821Y-60408284D01*
X134897467Y-60572216D01*
X134931422Y-60609926D01*
X134972650Y-60655715D01*
X135002880Y-60718706D01*
X135004500Y-60738687D01*
X135004500Y-61207255D01*
X135002775Y-61222872D01*
X135003061Y-61222899D01*
X135002326Y-61230665D01*
X135004500Y-61299814D01*
X135004500Y-61329343D01*
X135004501Y-61329360D01*
X135005368Y-61336231D01*
X135005826Y-61342050D01*
X135007290Y-61388624D01*
X135007291Y-61388627D01*
X135012880Y-61407867D01*
X135016824Y-61426911D01*
X135019336Y-61446792D01*
X135036490Y-61490119D01*
X135038382Y-61495647D01*
X135050936Y-61538857D01*
X135051382Y-61540390D01*
X135058083Y-61551722D01*
X135061580Y-61557634D01*
X135070138Y-61575103D01*
X135077514Y-61593732D01*
X135104898Y-61631423D01*
X135108106Y-61636307D01*
X135131827Y-61676416D01*
X135131833Y-61676424D01*
X135145990Y-61690580D01*
X135158628Y-61705376D01*
X135170405Y-61721586D01*
X135170406Y-61721587D01*
X135206309Y-61751288D01*
X135210620Y-61755210D01*
X135727711Y-62272301D01*
X136226918Y-62771508D01*
X136260403Y-62832831D01*
X136255419Y-62902523D01*
X136213547Y-62958456D01*
X136212124Y-62959506D01*
X136174128Y-62987112D01*
X136047466Y-63127785D01*
X135952821Y-63291715D01*
X135952818Y-63291722D01*
X135900824Y-63451744D01*
X135894326Y-63471744D01*
X135874540Y-63660000D01*
X135894326Y-63848256D01*
X135894327Y-63848259D01*
X135952818Y-64028277D01*
X135952821Y-64028284D01*
X136047467Y-64192216D01*
X136078608Y-64226801D01*
X136120595Y-64273433D01*
X136150825Y-64336425D01*
X136152384Y-64352508D01*
X136154500Y-64419813D01*
X136154500Y-64449343D01*
X136154501Y-64449360D01*
X136155368Y-64456231D01*
X136155826Y-64462050D01*
X136157290Y-64508624D01*
X136157291Y-64508627D01*
X136162880Y-64527867D01*
X136166824Y-64546911D01*
X136169336Y-64566791D01*
X136186490Y-64610119D01*
X136188382Y-64615647D01*
X136195939Y-64641658D01*
X136201382Y-64660390D01*
X136201588Y-64660739D01*
X136211580Y-64677634D01*
X136220136Y-64695100D01*
X136227514Y-64713732D01*
X136229179Y-64716024D01*
X136229928Y-64718122D01*
X136231272Y-64720567D01*
X136230877Y-64720783D01*
X136252657Y-64781829D01*
X136236830Y-64849883D01*
X136186724Y-64898577D01*
X136118245Y-64912451D01*
X136053137Y-64887100D01*
X136041178Y-64876587D01*
X134858960Y-63694369D01*
X134825475Y-63633046D01*
X134823323Y-63619668D01*
X134805674Y-63451744D01*
X134747179Y-63271716D01*
X134652533Y-63107784D01*
X134525871Y-62967112D01*
X134525870Y-62967111D01*
X134372734Y-62855851D01*
X134372729Y-62855848D01*
X134199807Y-62778857D01*
X134199802Y-62778855D01*
X134042535Y-62745428D01*
X134014646Y-62739500D01*
X133825354Y-62739500D01*
X133797465Y-62745428D01*
X133640197Y-62778855D01*
X133640192Y-62778857D01*
X133467270Y-62855848D01*
X133467265Y-62855851D01*
X133314129Y-62967111D01*
X133187466Y-63107785D01*
X133092821Y-63271715D01*
X133092818Y-63271722D01*
X133035612Y-63447785D01*
X133034326Y-63451744D01*
X133014540Y-63640000D01*
X133034326Y-63828256D01*
X133034327Y-63828259D01*
X133092818Y-64008277D01*
X133092821Y-64008284D01*
X133187467Y-64172216D01*
X133312507Y-64311087D01*
X133314129Y-64312888D01*
X133467265Y-64424148D01*
X133467270Y-64424151D01*
X133640192Y-64501142D01*
X133640197Y-64501144D01*
X133825354Y-64540500D01*
X133884548Y-64540500D01*
X133951587Y-64560185D01*
X133972229Y-64576819D01*
X136678181Y-67282771D01*
X136711666Y-67344094D01*
X136714500Y-67370452D01*
X136714500Y-68757666D01*
X136694815Y-68824705D01*
X136642011Y-68870460D01*
X136572853Y-68880404D01*
X136509297Y-68851379D01*
X136498350Y-68840638D01*
X136375870Y-68704611D01*
X136222734Y-68593351D01*
X136222729Y-68593348D01*
X136049807Y-68516357D01*
X136049802Y-68516355D01*
X135904001Y-68485365D01*
X135864646Y-68477000D01*
X135675354Y-68477000D01*
X135642897Y-68483898D01*
X135490197Y-68516355D01*
X135490192Y-68516357D01*
X135317270Y-68593348D01*
X135317265Y-68593351D01*
X135164129Y-68704611D01*
X135037466Y-68845285D01*
X134942821Y-69009215D01*
X134942818Y-69009222D01*
X134884327Y-69189240D01*
X134884326Y-69189244D01*
X134864540Y-69377500D01*
X134884326Y-69565756D01*
X134884327Y-69565759D01*
X134942818Y-69745777D01*
X134942821Y-69745784D01*
X135037467Y-69909716D01*
X135111748Y-69992213D01*
X135164129Y-70050388D01*
X135317265Y-70161648D01*
X135317270Y-70161651D01*
X135490192Y-70238642D01*
X135490197Y-70238644D01*
X135675354Y-70278000D01*
X135692048Y-70278000D01*
X135759087Y-70297685D01*
X135779729Y-70314319D01*
X138358229Y-72892819D01*
X138391714Y-72954142D01*
X138386730Y-73023834D01*
X138344858Y-73079767D01*
X138279394Y-73104184D01*
X138270548Y-73104500D01*
X122395991Y-73104500D01*
X122328952Y-73084815D01*
X122283197Y-73032011D01*
X122272671Y-72993465D01*
X122255674Y-72831744D01*
X122197179Y-72651716D01*
X122102533Y-72487784D01*
X121975871Y-72347112D01*
X121975870Y-72347111D01*
X121822734Y-72235851D01*
X121822729Y-72235848D01*
X121649807Y-72158857D01*
X121649802Y-72158855D01*
X121504001Y-72127865D01*
X121464646Y-72119500D01*
X121275354Y-72119500D01*
X121242897Y-72126398D01*
X121090197Y-72158855D01*
X121090192Y-72158857D01*
X120917270Y-72235848D01*
X120917265Y-72235851D01*
X120764129Y-72347111D01*
X120637466Y-72487785D01*
X120542821Y-72651715D01*
X120542818Y-72651722D01*
X120501140Y-72779996D01*
X120484326Y-72831744D01*
X120464540Y-73020000D01*
X120484326Y-73208256D01*
X120484327Y-73208259D01*
X120542818Y-73388277D01*
X120542821Y-73388284D01*
X120637467Y-73552216D01*
X120764129Y-73692888D01*
X120917265Y-73804148D01*
X120917270Y-73804151D01*
X121090192Y-73881142D01*
X121090197Y-73881144D01*
X121275354Y-73920500D01*
X121284547Y-73920500D01*
X121351586Y-73940185D01*
X121372228Y-73956819D01*
X121529197Y-74113788D01*
X121539022Y-74126051D01*
X121539243Y-74125869D01*
X121544214Y-74131878D01*
X121561685Y-74148284D01*
X121594635Y-74179226D01*
X121615529Y-74200120D01*
X121621011Y-74204373D01*
X121625443Y-74208157D01*
X121659418Y-74240062D01*
X121676976Y-74249714D01*
X121693235Y-74260395D01*
X121709064Y-74272673D01*
X121751838Y-74291182D01*
X121757056Y-74293738D01*
X121797908Y-74316197D01*
X121817316Y-74321180D01*
X121835717Y-74327480D01*
X121854104Y-74335437D01*
X121897488Y-74342308D01*
X121900119Y-74342725D01*
X121905839Y-74343909D01*
X121950981Y-74355500D01*
X121971016Y-74355500D01*
X121990415Y-74357027D01*
X122010196Y-74360160D01*
X122050434Y-74356356D01*
X122056582Y-74355775D01*
X122062420Y-74355500D01*
X138979548Y-74355500D01*
X139046587Y-74375185D01*
X139067229Y-74391819D01*
X147319194Y-82643784D01*
X147329019Y-82656048D01*
X147329240Y-82655866D01*
X147334210Y-82661873D01*
X147334213Y-82661876D01*
X147334214Y-82661877D01*
X147384651Y-82709241D01*
X147405530Y-82730120D01*
X147411004Y-82734366D01*
X147415442Y-82738156D01*
X147449418Y-82770062D01*
X147449422Y-82770064D01*
X147466973Y-82779713D01*
X147483231Y-82790392D01*
X147499064Y-82802674D01*
X147521015Y-82812172D01*
X147541837Y-82821183D01*
X147547081Y-82823752D01*
X147587908Y-82846197D01*
X147607312Y-82851179D01*
X147625710Y-82857478D01*
X147644105Y-82865438D01*
X147690129Y-82872726D01*
X147695832Y-82873907D01*
X147740981Y-82885500D01*
X147761016Y-82885500D01*
X147780413Y-82887026D01*
X147800196Y-82890160D01*
X147846584Y-82885775D01*
X147852422Y-82885500D01*
X148601926Y-82885500D01*
X148668965Y-82905185D01*
X148714720Y-82957989D01*
X148725325Y-83021695D01*
X148725123Y-83023739D01*
X148698941Y-83088518D01*
X148689405Y-83099225D01*
X148224358Y-83564272D01*
X148210729Y-83576051D01*
X148191468Y-83590390D01*
X148157898Y-83630397D01*
X148154253Y-83634376D01*
X148148409Y-83640222D01*
X148128059Y-83665959D01*
X148078695Y-83724789D01*
X148074729Y-83730819D01*
X148074682Y-83730788D01*
X148070630Y-83737147D01*
X148070679Y-83737177D01*
X148066889Y-83743321D01*
X148034424Y-83812941D01*
X147999960Y-83881566D01*
X147997488Y-83888357D01*
X147997432Y-83888336D01*
X147994960Y-83895450D01*
X147995015Y-83895469D01*
X147992742Y-83902327D01*
X147987814Y-83926195D01*
X147977207Y-83977565D01*
X147964143Y-84032689D01*
X147959498Y-84052286D01*
X147958661Y-84059454D01*
X147958601Y-84059447D01*
X147957835Y-84066945D01*
X147957895Y-84066951D01*
X147957265Y-84074140D01*
X147959500Y-84150916D01*
X147959500Y-87421332D01*
X147954161Y-87457327D01*
X147933975Y-87523869D01*
X147914659Y-87720000D01*
X147933975Y-87916129D01*
X147943138Y-87946335D01*
X147974944Y-88051186D01*
X147991188Y-88104733D01*
X148084086Y-88278532D01*
X148084090Y-88278539D01*
X148209116Y-88430883D01*
X148361460Y-88555909D01*
X148361467Y-88555913D01*
X148535266Y-88648811D01*
X148535269Y-88648811D01*
X148535273Y-88648814D01*
X148723868Y-88706024D01*
X148920000Y-88725341D01*
X149116132Y-88706024D01*
X149228787Y-88671849D01*
X149298652Y-88671225D01*
X149357766Y-88708473D01*
X149387357Y-88771767D01*
X149388185Y-88802664D01*
X149374659Y-88939999D01*
X149393975Y-89136129D01*
X149393976Y-89136132D01*
X149438043Y-89281402D01*
X149451188Y-89324733D01*
X149544086Y-89498532D01*
X149544090Y-89498539D01*
X149669116Y-89650883D01*
X149821460Y-89775909D01*
X149821467Y-89775913D01*
X149995266Y-89868811D01*
X149995269Y-89868811D01*
X149995273Y-89868814D01*
X150183868Y-89926024D01*
X150380000Y-89945341D01*
X150576132Y-89926024D01*
X150764727Y-89868814D01*
X150938538Y-89775910D01*
X151090883Y-89650883D01*
X151215910Y-89498538D01*
X151308814Y-89324727D01*
X151366024Y-89136132D01*
X151385341Y-88940000D01*
X151366024Y-88743868D01*
X151308814Y-88555273D01*
X151308811Y-88555269D01*
X151308811Y-88555266D01*
X151215913Y-88381467D01*
X151215911Y-88381465D01*
X151215910Y-88381462D01*
X151185724Y-88344680D01*
X151158647Y-88311686D01*
X151131334Y-88247376D01*
X151130500Y-88233021D01*
X151130500Y-86164321D01*
X151147113Y-86102321D01*
X151207179Y-85998284D01*
X151265674Y-85818256D01*
X151285460Y-85630000D01*
X151265674Y-85441744D01*
X151207179Y-85261716D01*
X151112533Y-85097784D01*
X150985871Y-84957112D01*
X150985870Y-84957111D01*
X150832734Y-84845851D01*
X150832729Y-84845848D01*
X150659807Y-84768857D01*
X150659802Y-84768855D01*
X150502728Y-84735469D01*
X150474646Y-84729500D01*
X150285354Y-84729500D01*
X150257361Y-84735450D01*
X150100197Y-84768855D01*
X150100192Y-84768857D01*
X149927270Y-84845848D01*
X149927265Y-84845851D01*
X149774129Y-84957111D01*
X149676650Y-85065373D01*
X149617163Y-85102022D01*
X149547306Y-85100691D01*
X149489258Y-85061805D01*
X149461448Y-84997708D01*
X149460500Y-84982401D01*
X149460500Y-84502229D01*
X149480185Y-84435190D01*
X149496819Y-84414548D01*
X149605587Y-84305780D01*
X149750775Y-84160591D01*
X149812096Y-84127108D01*
X149826295Y-84124871D01*
X149916132Y-84116024D01*
X150104727Y-84058814D01*
X150117300Y-84052094D01*
X150242477Y-83985185D01*
X150278538Y-83965910D01*
X150430883Y-83840883D01*
X150555910Y-83688538D01*
X150621722Y-83565413D01*
X150648811Y-83514733D01*
X150648811Y-83514732D01*
X150648814Y-83514727D01*
X150706024Y-83326132D01*
X150725341Y-83130000D01*
X150714670Y-83021653D01*
X150727689Y-82953008D01*
X150775754Y-82902298D01*
X150838073Y-82885500D01*
X155449548Y-82885500D01*
X155516587Y-82905185D01*
X155537229Y-82921819D01*
X157229194Y-84613784D01*
X157239019Y-84626048D01*
X157239240Y-84625866D01*
X157244210Y-84631873D01*
X157244213Y-84631876D01*
X157244214Y-84631877D01*
X157294651Y-84679241D01*
X157315530Y-84700120D01*
X157321004Y-84704366D01*
X157325442Y-84708156D01*
X157359418Y-84740062D01*
X157359422Y-84740064D01*
X157376973Y-84749713D01*
X157393231Y-84760392D01*
X157409064Y-84772674D01*
X157431015Y-84782172D01*
X157451837Y-84791183D01*
X157457081Y-84793752D01*
X157497908Y-84816197D01*
X157517312Y-84821179D01*
X157535710Y-84827478D01*
X157554105Y-84835438D01*
X157600129Y-84842726D01*
X157605832Y-84843907D01*
X157650981Y-84855500D01*
X157671016Y-84855500D01*
X157690413Y-84857026D01*
X157710196Y-84860160D01*
X157756584Y-84855775D01*
X157762422Y-84855500D01*
X160957257Y-84855500D01*
X160972877Y-84857224D01*
X160972904Y-84856939D01*
X160980660Y-84857671D01*
X160980667Y-84857673D01*
X161049814Y-84855500D01*
X161079350Y-84855500D01*
X161086228Y-84854630D01*
X161092041Y-84854172D01*
X161138627Y-84852709D01*
X161157869Y-84847117D01*
X161176912Y-84843174D01*
X161196792Y-84840664D01*
X161240122Y-84823507D01*
X161245646Y-84821617D01*
X161259593Y-84817565D01*
X161290390Y-84808618D01*
X161307629Y-84798422D01*
X161325103Y-84789862D01*
X161343727Y-84782488D01*
X161343727Y-84782487D01*
X161343732Y-84782486D01*
X161381449Y-84755082D01*
X161386305Y-84751892D01*
X161426420Y-84728170D01*
X161440589Y-84713999D01*
X161455379Y-84701368D01*
X161471587Y-84689594D01*
X161501299Y-84653676D01*
X161505212Y-84649376D01*
X161833786Y-84320802D01*
X161846048Y-84310980D01*
X161845865Y-84310759D01*
X161851867Y-84305792D01*
X161851877Y-84305786D01*
X161899241Y-84255348D01*
X161920120Y-84234470D01*
X161924373Y-84228986D01*
X161928150Y-84224563D01*
X161960062Y-84190582D01*
X161969714Y-84173023D01*
X161980389Y-84156772D01*
X161992674Y-84140936D01*
X162011186Y-84098152D01*
X162013742Y-84092935D01*
X162031383Y-84060848D01*
X162036194Y-84052098D01*
X162036194Y-84052097D01*
X162036197Y-84052092D01*
X162041180Y-84032680D01*
X162047477Y-84014291D01*
X162055438Y-83995895D01*
X162062729Y-83949853D01*
X162063908Y-83944162D01*
X162075500Y-83899019D01*
X162075500Y-83878983D01*
X162077027Y-83859582D01*
X162080160Y-83839804D01*
X162076207Y-83797990D01*
X162075775Y-83793415D01*
X162075500Y-83787577D01*
X162075500Y-75622742D01*
X162077224Y-75607122D01*
X162076939Y-75607095D01*
X162077673Y-75599333D01*
X162075500Y-75530172D01*
X162075500Y-75500656D01*
X162075500Y-75500650D01*
X162074631Y-75493779D01*
X162074173Y-75487952D01*
X162072710Y-75441373D01*
X162067119Y-75422130D01*
X162063173Y-75403078D01*
X162060664Y-75383208D01*
X162043504Y-75339867D01*
X162041624Y-75334379D01*
X162028618Y-75289610D01*
X162018422Y-75272370D01*
X162009861Y-75254894D01*
X162002487Y-75236270D01*
X162002486Y-75236268D01*
X161975079Y-75198545D01*
X161971888Y-75193686D01*
X161970615Y-75191534D01*
X161948170Y-75153580D01*
X161948168Y-75153578D01*
X161948165Y-75153574D01*
X161934006Y-75139415D01*
X161921368Y-75124619D01*
X161909594Y-75108413D01*
X161894324Y-75095781D01*
X161873688Y-75078709D01*
X161869376Y-75074786D01*
X157328960Y-70534369D01*
X157295475Y-70473046D01*
X157293323Y-70459668D01*
X157275674Y-70291744D01*
X157217179Y-70111716D01*
X157122533Y-69947784D01*
X156995871Y-69807112D01*
X156995870Y-69807111D01*
X156842734Y-69695851D01*
X156842729Y-69695848D01*
X156669807Y-69618857D01*
X156669802Y-69618855D01*
X156524001Y-69587865D01*
X156484646Y-69579500D01*
X156295354Y-69579500D01*
X156262897Y-69586398D01*
X156110197Y-69618855D01*
X156110192Y-69618857D01*
X155937270Y-69695848D01*
X155937265Y-69695851D01*
X155784129Y-69807111D01*
X155657463Y-69947787D01*
X155656184Y-69949549D01*
X155655182Y-69950321D01*
X155653119Y-69952613D01*
X155652699Y-69952235D01*
X155600853Y-69992213D01*
X155531239Y-69998189D01*
X155482984Y-69976978D01*
X155444141Y-69948757D01*
X155440137Y-69945848D01*
X155267215Y-69868857D01*
X155267210Y-69868855D01*
X155121409Y-69837865D01*
X155082054Y-69829500D01*
X154892762Y-69829500D01*
X154842783Y-69840123D01*
X154707607Y-69868855D01*
X154608116Y-69913152D01*
X154538866Y-69922436D01*
X154475589Y-69892808D01*
X154438376Y-69833673D01*
X154436062Y-69824058D01*
X154436025Y-69823875D01*
X154436024Y-69823873D01*
X154436024Y-69823868D01*
X154378814Y-69635273D01*
X154378811Y-69635269D01*
X154378811Y-69635266D01*
X154285913Y-69461467D01*
X154285909Y-69461460D01*
X154160883Y-69309116D01*
X154008539Y-69184090D01*
X154008532Y-69184086D01*
X153834728Y-69091186D01*
X153754089Y-69066724D01*
X153695651Y-69028427D01*
X153667194Y-68964614D01*
X153677755Y-68895547D01*
X153702401Y-68860386D01*
X153705192Y-68857595D01*
X153708859Y-68854215D01*
X153751100Y-68818337D01*
X153800097Y-68753881D01*
X153850841Y-68690754D01*
X153850842Y-68690751D01*
X153851480Y-68689753D01*
X153862466Y-68672041D01*
X153863054Y-68671064D01*
X153897062Y-68597555D01*
X153933036Y-68525022D01*
X153933037Y-68525014D01*
X153933439Y-68523922D01*
X153940370Y-68504240D01*
X153940733Y-68503163D01*
X153958140Y-68424076D01*
X153977685Y-68345491D01*
X153977830Y-68344426D01*
X153980371Y-68323677D01*
X153980500Y-68322497D01*
X153980500Y-68241531D01*
X153982693Y-68160564D01*
X153982608Y-68159520D01*
X153980500Y-68137352D01*
X153980500Y-65982301D01*
X153995141Y-65923850D01*
X154058814Y-65804727D01*
X154116024Y-65616132D01*
X154125788Y-65516988D01*
X154151948Y-65452202D01*
X154208982Y-65411843D01*
X154278783Y-65408726D01*
X154336871Y-65441461D01*
X164534909Y-75639500D01*
X174732325Y-85836916D01*
X174765810Y-85898239D01*
X174768172Y-85913789D01*
X174784936Y-86105403D01*
X174784938Y-86105413D01*
X174846094Y-86333655D01*
X174846096Y-86333659D01*
X174846097Y-86333663D01*
X174902778Y-86455215D01*
X174945965Y-86547830D01*
X174945967Y-86547834D01*
X175017505Y-86650000D01*
X175066978Y-86720655D01*
X175081501Y-86741395D01*
X175081506Y-86741402D01*
X175248597Y-86908493D01*
X175248603Y-86908498D01*
X175434158Y-87038425D01*
X175477783Y-87093002D01*
X175484977Y-87162500D01*
X175453454Y-87224855D01*
X175434158Y-87241575D01*
X175248597Y-87371505D01*
X175081505Y-87538597D01*
X174945965Y-87732169D01*
X174945964Y-87732171D01*
X174846098Y-87946335D01*
X174846094Y-87946344D01*
X174784938Y-88174586D01*
X174784936Y-88174596D01*
X174764341Y-88409999D01*
X174764341Y-88410000D01*
X174784936Y-88645403D01*
X174784938Y-88645413D01*
X174846094Y-88873655D01*
X174846096Y-88873659D01*
X174846097Y-88873663D01*
X174925098Y-89043081D01*
X174945965Y-89087830D01*
X174945967Y-89087834D01*
X175081501Y-89281395D01*
X175081506Y-89281402D01*
X175248597Y-89448493D01*
X175248603Y-89448498D01*
X175434158Y-89578425D01*
X175477783Y-89633002D01*
X175484977Y-89702500D01*
X175453454Y-89764855D01*
X175434158Y-89781575D01*
X175248597Y-89911505D01*
X175081505Y-90078597D01*
X174946348Y-90271623D01*
X174891771Y-90315248D01*
X174844773Y-90324500D01*
X144790453Y-90324500D01*
X144723414Y-90304815D01*
X144702772Y-90288181D01*
X135051592Y-80637001D01*
X135021343Y-80587640D01*
X134977179Y-80451716D01*
X134882533Y-80287784D01*
X134852774Y-80254733D01*
X134807350Y-80204284D01*
X134777120Y-80141292D01*
X134775500Y-80121312D01*
X134775500Y-77942742D01*
X134777224Y-77927122D01*
X134776939Y-77927096D01*
X134777671Y-77919340D01*
X134777673Y-77919333D01*
X134775500Y-77850185D01*
X134775500Y-77820650D01*
X134774631Y-77813772D01*
X134774172Y-77807943D01*
X134772709Y-77761372D01*
X134767122Y-77742144D01*
X134763174Y-77723084D01*
X134760663Y-77703204D01*
X134743512Y-77659887D01*
X134741619Y-77654358D01*
X134728618Y-77609609D01*
X134728616Y-77609606D01*
X134718423Y-77592371D01*
X134709861Y-77574894D01*
X134702487Y-77556270D01*
X134702486Y-77556268D01*
X134675079Y-77518545D01*
X134671888Y-77513686D01*
X134648172Y-77473583D01*
X134648165Y-77473574D01*
X134634006Y-77459415D01*
X134621368Y-77444619D01*
X134609594Y-77428413D01*
X134573688Y-77398709D01*
X134569376Y-77394786D01*
X133768960Y-76594369D01*
X133735475Y-76533046D01*
X133733323Y-76519668D01*
X133715674Y-76351744D01*
X133657179Y-76171716D01*
X133562533Y-76007784D01*
X133435871Y-75867112D01*
X133431796Y-75864151D01*
X133282734Y-75755851D01*
X133282729Y-75755848D01*
X133109807Y-75678857D01*
X133109802Y-75678855D01*
X132964001Y-75647865D01*
X132924646Y-75639500D01*
X132735354Y-75639500D01*
X132702897Y-75646398D01*
X132550197Y-75678855D01*
X132550192Y-75678857D01*
X132377270Y-75755848D01*
X132377265Y-75755851D01*
X132224129Y-75867111D01*
X132097466Y-76007785D01*
X132002821Y-76171715D01*
X132002818Y-76171722D01*
X131944327Y-76351740D01*
X131944326Y-76351744D01*
X131924540Y-76540000D01*
X131944326Y-76728256D01*
X131944327Y-76728259D01*
X132002818Y-76908277D01*
X132002821Y-76908284D01*
X132097467Y-77072216D01*
X132193530Y-77178904D01*
X132224129Y-77212888D01*
X132377265Y-77324148D01*
X132377270Y-77324151D01*
X132550192Y-77401142D01*
X132550197Y-77401144D01*
X132735354Y-77440500D01*
X132794548Y-77440500D01*
X132861587Y-77460185D01*
X132882229Y-77476819D01*
X133488181Y-78082771D01*
X133521666Y-78144094D01*
X133524500Y-78170452D01*
X133524500Y-80121312D01*
X133504815Y-80188351D01*
X133492650Y-80204284D01*
X133417466Y-80287784D01*
X133322821Y-80451715D01*
X133322818Y-80451722D01*
X133268304Y-80619500D01*
X133264326Y-80631744D01*
X133244540Y-80820000D01*
X133264326Y-81008256D01*
X133264327Y-81008259D01*
X133322818Y-81188277D01*
X133322821Y-81188284D01*
X133417467Y-81352216D01*
X133539958Y-81488256D01*
X133544129Y-81492888D01*
X133697265Y-81604148D01*
X133697270Y-81604151D01*
X133870192Y-81681142D01*
X133870197Y-81681144D01*
X134055354Y-81720500D01*
X134055355Y-81720500D01*
X134244642Y-81720500D01*
X134244646Y-81720500D01*
X134278799Y-81713240D01*
X134348460Y-81718555D01*
X134392258Y-81746849D01*
X134856076Y-82210667D01*
X135148229Y-82502819D01*
X135181714Y-82564142D01*
X135176730Y-82633833D01*
X135134858Y-82689767D01*
X135069394Y-82714184D01*
X135060548Y-82714500D01*
X128260453Y-82714500D01*
X128193414Y-82694815D01*
X128172772Y-82678181D01*
X127560363Y-82065772D01*
X127526878Y-82004449D01*
X127531862Y-81934757D01*
X127555895Y-81895118D01*
X127612533Y-81832216D01*
X127707179Y-81668284D01*
X127765674Y-81488256D01*
X127785460Y-81300000D01*
X127765674Y-81111744D01*
X127707179Y-80931716D01*
X127612533Y-80767784D01*
X127485871Y-80627112D01*
X127474224Y-80618650D01*
X127332734Y-80515851D01*
X127332729Y-80515848D01*
X127159807Y-80438857D01*
X127159802Y-80438855D01*
X127006224Y-80406212D01*
X126974646Y-80399500D01*
X126785354Y-80399500D01*
X126753776Y-80406212D01*
X126600197Y-80438855D01*
X126600192Y-80438857D01*
X126427270Y-80515848D01*
X126427265Y-80515851D01*
X126274129Y-80627111D01*
X126147466Y-80767785D01*
X126052821Y-80931715D01*
X126052818Y-80931722D01*
X125994327Y-81111740D01*
X125994326Y-81111744D01*
X125974540Y-81300000D01*
X125994326Y-81488256D01*
X125994327Y-81488259D01*
X126052818Y-81668277D01*
X126052821Y-81668284D01*
X126147467Y-81832216D01*
X126178364Y-81866530D01*
X126222650Y-81915715D01*
X126252880Y-81978706D01*
X126254500Y-81998687D01*
X126254500Y-82187255D01*
X126252775Y-82202872D01*
X126253061Y-82202899D01*
X126252326Y-82210665D01*
X126254500Y-82279814D01*
X126254500Y-82309343D01*
X126254501Y-82309360D01*
X126255368Y-82316231D01*
X126255826Y-82322050D01*
X126257290Y-82368628D01*
X126257291Y-82368629D01*
X126262331Y-82385977D01*
X126262132Y-82455846D01*
X126224190Y-82514516D01*
X126160552Y-82543360D01*
X126155409Y-82543975D01*
X126053870Y-82553975D01*
X125865266Y-82611188D01*
X125691467Y-82704086D01*
X125691460Y-82704090D01*
X125539116Y-82829116D01*
X125414090Y-82981460D01*
X125414086Y-82981467D01*
X125321188Y-83155266D01*
X125263975Y-83343870D01*
X125255127Y-83433700D01*
X125228965Y-83498487D01*
X125219405Y-83509225D01*
X124324358Y-84404272D01*
X124310729Y-84416051D01*
X124291468Y-84430390D01*
X124257898Y-84470397D01*
X124254253Y-84474376D01*
X124248409Y-84480222D01*
X124228059Y-84505959D01*
X124178695Y-84564789D01*
X124174729Y-84570819D01*
X124174682Y-84570788D01*
X124170630Y-84577147D01*
X124170679Y-84577177D01*
X124166889Y-84583321D01*
X124134424Y-84652941D01*
X124099960Y-84721566D01*
X124097488Y-84728357D01*
X124097432Y-84728336D01*
X124094960Y-84735450D01*
X124095015Y-84735469D01*
X124092742Y-84742327D01*
X124084975Y-84779946D01*
X124077207Y-84817565D01*
X124067112Y-84860160D01*
X124059498Y-84892286D01*
X124058661Y-84899454D01*
X124058601Y-84899447D01*
X124057835Y-84906945D01*
X124057895Y-84906951D01*
X124057265Y-84914140D01*
X124059500Y-84990916D01*
X124059500Y-85943021D01*
X124039815Y-86010060D01*
X124031353Y-86021686D01*
X123974091Y-86091460D01*
X123974086Y-86091467D01*
X123881188Y-86265266D01*
X123823975Y-86453870D01*
X123804659Y-86650000D01*
X123823975Y-86846129D01*
X123881188Y-87034733D01*
X123974086Y-87208532D01*
X123974090Y-87208539D01*
X124099116Y-87360883D01*
X124251460Y-87485909D01*
X124251467Y-87485913D01*
X124425266Y-87578811D01*
X124425269Y-87578811D01*
X124425273Y-87578814D01*
X124613868Y-87636024D01*
X124810000Y-87655341D01*
X125006132Y-87636024D01*
X125194727Y-87578814D01*
X125368538Y-87485910D01*
X125520883Y-87360883D01*
X125645910Y-87208538D01*
X125707665Y-87093002D01*
X125738811Y-87034733D01*
X125738811Y-87034732D01*
X125738814Y-87034727D01*
X125796024Y-86846132D01*
X125815341Y-86650000D01*
X125796024Y-86453868D01*
X125738814Y-86265273D01*
X125738811Y-86265269D01*
X125738811Y-86265266D01*
X125645913Y-86091467D01*
X125645911Y-86091465D01*
X125645910Y-86091462D01*
X125629536Y-86071511D01*
X125588647Y-86021686D01*
X125561334Y-85957376D01*
X125560500Y-85943021D01*
X125560500Y-85342229D01*
X125580185Y-85275190D01*
X125596819Y-85254548D01*
X125937227Y-84914140D01*
X126280775Y-84570591D01*
X126342096Y-84537108D01*
X126356295Y-84534871D01*
X126446132Y-84526024D01*
X126634727Y-84468814D01*
X126668304Y-84450867D01*
X126732794Y-84416396D01*
X126808538Y-84375910D01*
X126960883Y-84250883D01*
X127085910Y-84098538D01*
X127141652Y-83994251D01*
X127178812Y-83924731D01*
X127178812Y-83924730D01*
X127178814Y-83924727D01*
X127228458Y-83761073D01*
X127266755Y-83702636D01*
X127330567Y-83674180D01*
X127399634Y-83684740D01*
X127434799Y-83709389D01*
X127449194Y-83723784D01*
X127459019Y-83736048D01*
X127459240Y-83735866D01*
X127464210Y-83741873D01*
X127464213Y-83741876D01*
X127464214Y-83741877D01*
X127514651Y-83789241D01*
X127535530Y-83810120D01*
X127541004Y-83814366D01*
X127545442Y-83818156D01*
X127579418Y-83850062D01*
X127579422Y-83850064D01*
X127596973Y-83859713D01*
X127613231Y-83870392D01*
X127629064Y-83882674D01*
X127651015Y-83892172D01*
X127671837Y-83901183D01*
X127677081Y-83903752D01*
X127717908Y-83926197D01*
X127737312Y-83931179D01*
X127755710Y-83937478D01*
X127774105Y-83945438D01*
X127820129Y-83952726D01*
X127825832Y-83953907D01*
X127870981Y-83965500D01*
X127891016Y-83965500D01*
X127910413Y-83967026D01*
X127930196Y-83970160D01*
X127976584Y-83965775D01*
X127982422Y-83965500D01*
X134929548Y-83965500D01*
X134996587Y-83985185D01*
X135017228Y-84001818D01*
X139307230Y-88291821D01*
X143589197Y-92573788D01*
X143599022Y-92586051D01*
X143599243Y-92585869D01*
X143604214Y-92591878D01*
X143630217Y-92616295D01*
X143654635Y-92639226D01*
X143675529Y-92660120D01*
X143681011Y-92664373D01*
X143685443Y-92668157D01*
X143719418Y-92700062D01*
X143736976Y-92709714D01*
X143753233Y-92720393D01*
X143769064Y-92732673D01*
X143788737Y-92741186D01*
X143811833Y-92751182D01*
X143817077Y-92753750D01*
X143857908Y-92776197D01*
X143870523Y-92779435D01*
X143877305Y-92781177D01*
X143895719Y-92787481D01*
X143914104Y-92795438D01*
X143960157Y-92802732D01*
X143965826Y-92803906D01*
X144010981Y-92815500D01*
X144031016Y-92815500D01*
X144050413Y-92817026D01*
X144070196Y-92820160D01*
X144116584Y-92815775D01*
X144122422Y-92815500D01*
X151780395Y-92815500D01*
X151847434Y-92835185D01*
X151893189Y-92887989D01*
X151903133Y-92957147D01*
X151892602Y-92989261D01*
X151893518Y-92989641D01*
X151891190Y-92995260D01*
X151833975Y-93183870D01*
X151814659Y-93380000D01*
X151833975Y-93576129D01*
X151891188Y-93764733D01*
X151984086Y-93938532D01*
X151984090Y-93938539D01*
X152109116Y-94090883D01*
X152261460Y-94215909D01*
X152261467Y-94215913D01*
X152435266Y-94308811D01*
X152435269Y-94308811D01*
X152435273Y-94308814D01*
X152623868Y-94366024D01*
X152820000Y-94385341D01*
X153016132Y-94366024D01*
X153204727Y-94308814D01*
X153378538Y-94215910D01*
X153411758Y-94188647D01*
X153476067Y-94161334D01*
X153490423Y-94160500D01*
X155393022Y-94160500D01*
X155460061Y-94180185D01*
X155471686Y-94188646D01*
X155480335Y-94195744D01*
X155519670Y-94253490D01*
X155521541Y-94323335D01*
X155489352Y-94379279D01*
X154157030Y-95711601D01*
X154095707Y-95745086D01*
X154026015Y-95740102D01*
X154010897Y-95733279D01*
X153894731Y-95671188D01*
X153894730Y-95671187D01*
X153894727Y-95671186D01*
X153706132Y-95613976D01*
X153706129Y-95613975D01*
X153510000Y-95594659D01*
X153313870Y-95613975D01*
X153125266Y-95671188D01*
X152951467Y-95764086D01*
X152951460Y-95764090D01*
X152799116Y-95889116D01*
X152674090Y-96041460D01*
X152674086Y-96041467D01*
X152581188Y-96215266D01*
X152523975Y-96403870D01*
X152504659Y-96600000D01*
X152523975Y-96796129D01*
X152581188Y-96984733D01*
X152674086Y-97158532D01*
X152674090Y-97158539D01*
X152799116Y-97310883D01*
X152951460Y-97435909D01*
X152951467Y-97435913D01*
X153125266Y-97528811D01*
X153125269Y-97528811D01*
X153125273Y-97528814D01*
X153313868Y-97586024D01*
X153510000Y-97605341D01*
X153544270Y-97601965D01*
X153612914Y-97614983D01*
X153663625Y-97663047D01*
X153680301Y-97730898D01*
X153679827Y-97737521D01*
X153674659Y-97789998D01*
X153674659Y-97789999D01*
X153693975Y-97986129D01*
X153693976Y-97986132D01*
X153743618Y-98149780D01*
X153751188Y-98174733D01*
X153844086Y-98348532D01*
X153844090Y-98348539D01*
X153969116Y-98500883D01*
X154121460Y-98625909D01*
X154121467Y-98625913D01*
X154295266Y-98718811D01*
X154295269Y-98718811D01*
X154295273Y-98718814D01*
X154483868Y-98776024D01*
X154680000Y-98795341D01*
X154876132Y-98776024D01*
X155064727Y-98718814D01*
X155238538Y-98625910D01*
X155260490Y-98607893D01*
X155324798Y-98580581D01*
X155393665Y-98592371D01*
X155445227Y-98639522D01*
X155463111Y-98707064D01*
X155450156Y-98759017D01*
X155419423Y-98820738D01*
X155419417Y-98820752D01*
X155363602Y-99016917D01*
X155344785Y-99219999D01*
X155344785Y-99220000D01*
X155363602Y-99423082D01*
X155419417Y-99619247D01*
X155419422Y-99619260D01*
X155510327Y-99801821D01*
X155633237Y-99964581D01*
X155783958Y-100101980D01*
X155783960Y-100101982D01*
X155876604Y-100159344D01*
X155957363Y-100209348D01*
X156147544Y-100283024D01*
X156348024Y-100320500D01*
X156348026Y-100320500D01*
X156551974Y-100320500D01*
X156551976Y-100320500D01*
X156752456Y-100283024D01*
X156942637Y-100209348D01*
X157116041Y-100101981D01*
X157266764Y-99964579D01*
X157389673Y-99801821D01*
X157480582Y-99619250D01*
X157536397Y-99423083D01*
X157536961Y-99416990D01*
X157562742Y-99352055D01*
X157572743Y-99340754D01*
X159702177Y-97211321D01*
X159763498Y-97177838D01*
X159767025Y-97177124D01*
X159842456Y-97163024D01*
X160032637Y-97089348D01*
X160206041Y-96981981D01*
X160356764Y-96844579D01*
X160479673Y-96681821D01*
X160570582Y-96499250D01*
X160626397Y-96303083D01*
X160645215Y-96100000D01*
X160640306Y-96047027D01*
X160626397Y-95896917D01*
X160614762Y-95856024D01*
X160570582Y-95700750D01*
X160534625Y-95628539D01*
X160495796Y-95550559D01*
X160479673Y-95518179D01*
X160364440Y-95365586D01*
X160356762Y-95355418D01*
X160206041Y-95218019D01*
X160206039Y-95218017D01*
X160032642Y-95110655D01*
X160032635Y-95110651D01*
X159917709Y-95066129D01*
X159842456Y-95036976D01*
X159641976Y-94999500D01*
X159438024Y-94999500D01*
X159237544Y-95036976D01*
X159237541Y-95036976D01*
X159237541Y-95036977D01*
X159047364Y-95110651D01*
X159047357Y-95110655D01*
X158873960Y-95218017D01*
X158873958Y-95218019D01*
X158845142Y-95244288D01*
X158782337Y-95274905D01*
X158712950Y-95266706D01*
X158659011Y-95222295D01*
X158638202Y-95164803D01*
X158636785Y-95150418D01*
X158630521Y-95086811D01*
X158573311Y-94898216D01*
X158573308Y-94898212D01*
X158573308Y-94898209D01*
X158480410Y-94724410D01*
X158480406Y-94724403D01*
X158355378Y-94572057D01*
X158351073Y-94567752D01*
X158352878Y-94565946D01*
X158319820Y-94517404D01*
X158317955Y-94447559D01*
X158347590Y-94396061D01*
X158347019Y-94395592D01*
X158349836Y-94392158D01*
X158350149Y-94391616D01*
X158350871Y-94390892D01*
X158350883Y-94390883D01*
X158475910Y-94238538D01*
X158568814Y-94064727D01*
X158626024Y-93876132D01*
X158645341Y-93680000D01*
X158626024Y-93483868D01*
X158568814Y-93295273D01*
X158568811Y-93295269D01*
X158568811Y-93295266D01*
X158475913Y-93121467D01*
X158475909Y-93121460D01*
X158391136Y-93018165D01*
X158363823Y-92953855D01*
X158375614Y-92884988D01*
X158422766Y-92833427D01*
X158486989Y-92815500D01*
X160909548Y-92815500D01*
X160976587Y-92835185D01*
X160997228Y-92851818D01*
X162504525Y-94359116D01*
X163949197Y-95803788D01*
X163959022Y-95816051D01*
X163959243Y-95815869D01*
X163964214Y-95821878D01*
X163985043Y-95841437D01*
X164014635Y-95869226D01*
X164035529Y-95890120D01*
X164041011Y-95894373D01*
X164045443Y-95898157D01*
X164079418Y-95930062D01*
X164096976Y-95939714D01*
X164113233Y-95950393D01*
X164129064Y-95962673D01*
X164148737Y-95971186D01*
X164171833Y-95981182D01*
X164177077Y-95983750D01*
X164217908Y-96006197D01*
X164230523Y-96009435D01*
X164237305Y-96011177D01*
X164255719Y-96017481D01*
X164274104Y-96025438D01*
X164320157Y-96032732D01*
X164325826Y-96033906D01*
X164370981Y-96045500D01*
X164391016Y-96045500D01*
X164410413Y-96047026D01*
X164430196Y-96050160D01*
X164476584Y-96045775D01*
X164482422Y-96045500D01*
X177317257Y-96045500D01*
X177332877Y-96047224D01*
X177332904Y-96046939D01*
X177340660Y-96047671D01*
X177340667Y-96047673D01*
X177409814Y-96045500D01*
X177439350Y-96045500D01*
X177446228Y-96044630D01*
X177452041Y-96044172D01*
X177498627Y-96042709D01*
X177517869Y-96037117D01*
X177536912Y-96033174D01*
X177556792Y-96030664D01*
X177600122Y-96013507D01*
X177605646Y-96011617D01*
X177609396Y-96010527D01*
X177650390Y-95998618D01*
X177667629Y-95988422D01*
X177685103Y-95979862D01*
X177703727Y-95972488D01*
X177703727Y-95972487D01*
X177703732Y-95972486D01*
X177741449Y-95945082D01*
X177746305Y-95941892D01*
X177786420Y-95918170D01*
X177800589Y-95903999D01*
X177815379Y-95891368D01*
X177831587Y-95879594D01*
X177861299Y-95843676D01*
X177865212Y-95839376D01*
X178733787Y-94970802D01*
X178746042Y-94960986D01*
X178745859Y-94960764D01*
X178751866Y-94955792D01*
X178751877Y-94955786D01*
X178782775Y-94922882D01*
X178799227Y-94905364D01*
X178809671Y-94894918D01*
X178820120Y-94884471D01*
X178824379Y-94878978D01*
X178828152Y-94874561D01*
X178860062Y-94840582D01*
X178869715Y-94823020D01*
X178880389Y-94806770D01*
X178892673Y-94790936D01*
X178911180Y-94748167D01*
X178913749Y-94742924D01*
X178936196Y-94702093D01*
X178936197Y-94702092D01*
X178941177Y-94682691D01*
X178947478Y-94664288D01*
X178955438Y-94645896D01*
X178962730Y-94599849D01*
X178963911Y-94594152D01*
X178965158Y-94589297D01*
X178975500Y-94549019D01*
X178975500Y-94528983D01*
X178977027Y-94509582D01*
X178980160Y-94489804D01*
X178975775Y-94443415D01*
X178975500Y-94437577D01*
X178975500Y-82112742D01*
X178977224Y-82097122D01*
X178976939Y-82097096D01*
X178977671Y-82089340D01*
X178977673Y-82089333D01*
X178975500Y-82020185D01*
X178975500Y-81990650D01*
X178974631Y-81983772D01*
X178974172Y-81977943D01*
X178972709Y-81931372D01*
X178967122Y-81912144D01*
X178963174Y-81893084D01*
X178961843Y-81882547D01*
X178960664Y-81873208D01*
X178960663Y-81873206D01*
X178960663Y-81873204D01*
X178943512Y-81829887D01*
X178941619Y-81824358D01*
X178928618Y-81779609D01*
X178928616Y-81779606D01*
X178918423Y-81762371D01*
X178909861Y-81744894D01*
X178902487Y-81726270D01*
X178898295Y-81720500D01*
X178875079Y-81688545D01*
X178871888Y-81683686D01*
X178866043Y-81673803D01*
X178854664Y-81654560D01*
X178848172Y-81643583D01*
X178848165Y-81643574D01*
X178834006Y-81629415D01*
X178821368Y-81614619D01*
X178809594Y-81598413D01*
X178773688Y-81568709D01*
X178769376Y-81564786D01*
X177610803Y-80406212D01*
X177600980Y-80393950D01*
X177600759Y-80394134D01*
X177595786Y-80388123D01*
X177545364Y-80340773D01*
X177534918Y-80330327D01*
X177524474Y-80319882D01*
X177518981Y-80315621D01*
X177514550Y-80311835D01*
X177509607Y-80307194D01*
X177474218Y-80246950D01*
X177470499Y-80216810D01*
X177470499Y-79892129D01*
X177470498Y-79892123D01*
X177470497Y-79892116D01*
X177464091Y-79832517D01*
X177413796Y-79697669D01*
X177413795Y-79697668D01*
X177413793Y-79697664D01*
X177327547Y-79582455D01*
X177327544Y-79582452D01*
X177212335Y-79496206D01*
X177212328Y-79496202D01*
X177077482Y-79445908D01*
X177077483Y-79445908D01*
X177017883Y-79439501D01*
X177017881Y-79439500D01*
X177017873Y-79439500D01*
X177017864Y-79439500D01*
X175222129Y-79439500D01*
X175222123Y-79439501D01*
X175162516Y-79445908D01*
X175027671Y-79496202D01*
X175027664Y-79496206D01*
X174912455Y-79582452D01*
X174912452Y-79582455D01*
X174826206Y-79697664D01*
X174826202Y-79697671D01*
X174775908Y-79832517D01*
X174771879Y-79870000D01*
X174769501Y-79892123D01*
X174769500Y-79892135D01*
X174769500Y-81687870D01*
X174769501Y-81687876D01*
X174775908Y-81747483D01*
X174826202Y-81882328D01*
X174826206Y-81882335D01*
X174912452Y-81997544D01*
X174912455Y-81997547D01*
X175027664Y-82083793D01*
X175027671Y-82083797D01*
X175159081Y-82132810D01*
X175215015Y-82174681D01*
X175239432Y-82240145D01*
X175224580Y-82308418D01*
X175203430Y-82336673D01*
X175081503Y-82458600D01*
X174946348Y-82651623D01*
X174891771Y-82695248D01*
X174844773Y-82704500D01*
X174790453Y-82704500D01*
X174723414Y-82684815D01*
X174702772Y-82668181D01*
X171494290Y-79459699D01*
X171460805Y-79398376D01*
X171465789Y-79328684D01*
X171507661Y-79272751D01*
X171569818Y-79248615D01*
X171596132Y-79246024D01*
X171784727Y-79188814D01*
X171958538Y-79095910D01*
X172110883Y-78970883D01*
X172218634Y-78839588D01*
X172276378Y-78800255D01*
X172346223Y-78798384D01*
X172393151Y-78822401D01*
X172531460Y-78935909D01*
X172531467Y-78935913D01*
X172705266Y-79028811D01*
X172705269Y-79028811D01*
X172705273Y-79028814D01*
X172893868Y-79086024D01*
X173090000Y-79105341D01*
X173286132Y-79086024D01*
X173474727Y-79028814D01*
X173548971Y-78989130D01*
X173622525Y-78949814D01*
X173648538Y-78935910D01*
X173800883Y-78810883D01*
X173925910Y-78658538D01*
X174018814Y-78484727D01*
X174076024Y-78296132D01*
X174095341Y-78100000D01*
X174076024Y-77903868D01*
X174063360Y-77862124D01*
X174062736Y-77792258D01*
X174094338Y-77738449D01*
X175170414Y-76662372D01*
X175231735Y-76628889D01*
X175270245Y-76626652D01*
X175460000Y-76645341D01*
X175656132Y-76626024D01*
X175844727Y-76568814D01*
X175908975Y-76534473D01*
X176018532Y-76475913D01*
X176018538Y-76475910D01*
X176170883Y-76350883D01*
X176244293Y-76261432D01*
X176302038Y-76222099D01*
X176371883Y-76220228D01*
X176427827Y-76252417D01*
X180148181Y-79972771D01*
X180181666Y-80034094D01*
X180184500Y-80060452D01*
X180184500Y-87517255D01*
X180182775Y-87532872D01*
X180183061Y-87532899D01*
X180182326Y-87540665D01*
X180184500Y-87609814D01*
X180184500Y-87639343D01*
X180184501Y-87639360D01*
X180185368Y-87646231D01*
X180185826Y-87652050D01*
X180187290Y-87698624D01*
X180187291Y-87698627D01*
X180192880Y-87717867D01*
X180196824Y-87736911D01*
X180199336Y-87756791D01*
X180216490Y-87800119D01*
X180218382Y-87805647D01*
X180231382Y-87850390D01*
X180231536Y-87850651D01*
X180241580Y-87867634D01*
X180250138Y-87885103D01*
X180257514Y-87903732D01*
X180284898Y-87941423D01*
X180288106Y-87946307D01*
X180311827Y-87986416D01*
X180311833Y-87986424D01*
X180325990Y-88000580D01*
X180338627Y-88015375D01*
X180350406Y-88031587D01*
X180374097Y-88051186D01*
X180386309Y-88061288D01*
X180390620Y-88065210D01*
X180617231Y-88291821D01*
X181261788Y-88936379D01*
X181295273Y-88997702D01*
X181298104Y-89024967D01*
X181160899Y-107787004D01*
X181140724Y-107853897D01*
X181087587Y-107899265D01*
X181037000Y-107910097D01*
X177154098Y-107913161D01*
X177087043Y-107893529D01*
X177041246Y-107840761D01*
X177030000Y-107789161D01*
X177030000Y-107620000D01*
X176045686Y-107620000D01*
X176057641Y-107608045D01*
X176115165Y-107495148D01*
X176134986Y-107370000D01*
X176115165Y-107244852D01*
X176057641Y-107131955D01*
X176045686Y-107120000D01*
X177030000Y-107120000D01*
X177030000Y-106522172D01*
X177029999Y-106522155D01*
X177023598Y-106462627D01*
X177023596Y-106462620D01*
X176973354Y-106327913D01*
X176973350Y-106327906D01*
X176887190Y-106212812D01*
X176887187Y-106212809D01*
X176772093Y-106126649D01*
X176772086Y-106126645D01*
X176637379Y-106076403D01*
X176637372Y-106076401D01*
X176577844Y-106070000D01*
X175980000Y-106070000D01*
X175980000Y-107054314D01*
X175968045Y-107042359D01*
X175855148Y-106984835D01*
X175761481Y-106970000D01*
X175698519Y-106970000D01*
X175604852Y-106984835D01*
X175491955Y-107042359D01*
X175480000Y-107054314D01*
X175480000Y-106070000D01*
X174882155Y-106070000D01*
X174822627Y-106076401D01*
X174822620Y-106076403D01*
X174687913Y-106126645D01*
X174687906Y-106126649D01*
X174572812Y-106212809D01*
X174572809Y-106212812D01*
X174486649Y-106327906D01*
X174486645Y-106327913D01*
X174436403Y-106462620D01*
X174436401Y-106462627D01*
X174430000Y-106522155D01*
X174430000Y-107120000D01*
X175414314Y-107120000D01*
X175402359Y-107131955D01*
X175344835Y-107244852D01*
X175325014Y-107370000D01*
X175344835Y-107495148D01*
X175402359Y-107608045D01*
X175414314Y-107620000D01*
X174430000Y-107620000D01*
X174430000Y-107791407D01*
X174410315Y-107858446D01*
X174357511Y-107904201D01*
X174306098Y-107915407D01*
X148554598Y-107935729D01*
X148487543Y-107916097D01*
X148441746Y-107863329D01*
X148430500Y-107811729D01*
X148430500Y-104118827D01*
X148443501Y-104063554D01*
X148460575Y-104029264D01*
X148460574Y-104029264D01*
X148460582Y-104029250D01*
X148516397Y-103833083D01*
X148535215Y-103630000D01*
X148531129Y-103585909D01*
X148516397Y-103426917D01*
X148482713Y-103308532D01*
X148460582Y-103230750D01*
X148369673Y-103048179D01*
X148246764Y-102885421D01*
X148246762Y-102885418D01*
X148096041Y-102748019D01*
X148096039Y-102748017D01*
X147922642Y-102640655D01*
X147922635Y-102640651D01*
X147779859Y-102585340D01*
X147732456Y-102566976D01*
X147531976Y-102529500D01*
X147328024Y-102529500D01*
X147127544Y-102566976D01*
X147127541Y-102566976D01*
X147127541Y-102566977D01*
X146937364Y-102640651D01*
X146937357Y-102640655D01*
X146763960Y-102748017D01*
X146763958Y-102748019D01*
X146613237Y-102885418D01*
X146490327Y-103048178D01*
X146399422Y-103230739D01*
X146399417Y-103230752D01*
X146343602Y-103426917D01*
X146324785Y-103629999D01*
X146324785Y-103630000D01*
X146343602Y-103833082D01*
X146399417Y-104029247D01*
X146399424Y-104029264D01*
X146416499Y-104063554D01*
X146429500Y-104118827D01*
X146429500Y-107813503D01*
X146409815Y-107880542D01*
X146357011Y-107926297D01*
X146305598Y-107937503D01*
X117924367Y-107959901D01*
X117857312Y-107940269D01*
X117811515Y-107887501D01*
X117800269Y-107835636D01*
X117842012Y-88606396D01*
X117861841Y-88539403D01*
X117914745Y-88493763D01*
X117983924Y-88483970D01*
X118047417Y-88513133D01*
X118049549Y-88515032D01*
X118133958Y-88591980D01*
X118133960Y-88591982D01*
X118157240Y-88606396D01*
X118307363Y-88699348D01*
X118497544Y-88773024D01*
X118698024Y-88810500D01*
X118759010Y-88810500D01*
X118826049Y-88830185D01*
X118871804Y-88882989D01*
X118882481Y-88923059D01*
X118893602Y-89043081D01*
X118949417Y-89239247D01*
X118949422Y-89239260D01*
X119040327Y-89421821D01*
X119163237Y-89584581D01*
X119313958Y-89721980D01*
X119313960Y-89721982D01*
X119383203Y-89764855D01*
X119487363Y-89829348D01*
X119677544Y-89903024D01*
X119878024Y-89940500D01*
X119897060Y-89940500D01*
X119964099Y-89960185D01*
X119984741Y-89976819D01*
X122937841Y-92929918D01*
X122937851Y-92929929D01*
X122940183Y-92932261D01*
X122940184Y-92932262D01*
X123067738Y-93059816D01*
X123103103Y-93082037D01*
X123108768Y-93086057D01*
X123141414Y-93112092D01*
X123179038Y-93130210D01*
X123185123Y-93133574D01*
X123220478Y-93155789D01*
X123259899Y-93169583D01*
X123266307Y-93172238D01*
X123303939Y-93190360D01*
X123344641Y-93199650D01*
X123351328Y-93201576D01*
X123390742Y-93215367D01*
X123390745Y-93215368D01*
X123432241Y-93220043D01*
X123439093Y-93221207D01*
X123479806Y-93230500D01*
X123525046Y-93230500D01*
X128227060Y-93230500D01*
X128294099Y-93250185D01*
X128314741Y-93266819D01*
X128845812Y-93797890D01*
X128879297Y-93859213D01*
X128874313Y-93928905D01*
X128832441Y-93984838D01*
X128794128Y-94004231D01*
X128705270Y-94031186D01*
X128531467Y-94124086D01*
X128531460Y-94124090D01*
X128379116Y-94249116D01*
X128254090Y-94401460D01*
X128254086Y-94401467D01*
X128161188Y-94575266D01*
X128103975Y-94763870D01*
X128084659Y-94960000D01*
X128093580Y-95050584D01*
X128080561Y-95119230D01*
X128032495Y-95169940D01*
X127964644Y-95186614D01*
X127898550Y-95163957D01*
X127882496Y-95150418D01*
X127692868Y-94960790D01*
X127659383Y-94899467D01*
X127657146Y-94885261D01*
X127657068Y-94884471D01*
X127656024Y-94873868D01*
X127598814Y-94685273D01*
X127598811Y-94685269D01*
X127598811Y-94685266D01*
X127505913Y-94511467D01*
X127505909Y-94511460D01*
X127380883Y-94359116D01*
X127228539Y-94234090D01*
X127228532Y-94234086D01*
X127054733Y-94141188D01*
X127054727Y-94141186D01*
X126866132Y-94083976D01*
X126866129Y-94083975D01*
X126670000Y-94064659D01*
X126473870Y-94083975D01*
X126285266Y-94141188D01*
X126111467Y-94234086D01*
X126111460Y-94234090D01*
X125959116Y-94359116D01*
X125834090Y-94511460D01*
X125834086Y-94511467D01*
X125741188Y-94685266D01*
X125683975Y-94873870D01*
X125664659Y-95070000D01*
X125683975Y-95266129D01*
X125741188Y-95454733D01*
X125834086Y-95628532D01*
X125834090Y-95628539D01*
X125959116Y-95780883D01*
X126111460Y-95905909D01*
X126111467Y-95905913D01*
X126285266Y-95998811D01*
X126285269Y-95998811D01*
X126285273Y-95998814D01*
X126473868Y-96056024D01*
X126485261Y-96057146D01*
X126550048Y-96083305D01*
X126560790Y-96092868D01*
X130973181Y-100505258D01*
X131006666Y-100566581D01*
X131009500Y-100592939D01*
X131009500Y-102103946D01*
X130989815Y-102170985D01*
X130981355Y-102182609D01*
X130974090Y-102191461D01*
X130974086Y-102191467D01*
X130881188Y-102365266D01*
X130823975Y-102553870D01*
X130804659Y-102750000D01*
X130823975Y-102946129D01*
X130823976Y-102946132D01*
X130854931Y-103048178D01*
X130881188Y-103134733D01*
X130974086Y-103308532D01*
X130974090Y-103308539D01*
X131099116Y-103460883D01*
X131251460Y-103585909D01*
X131251467Y-103585913D01*
X131425266Y-103678811D01*
X131425269Y-103678811D01*
X131425273Y-103678814D01*
X131613868Y-103736024D01*
X131810000Y-103755341D01*
X132006132Y-103736024D01*
X132194727Y-103678814D01*
X132368538Y-103585910D01*
X132520883Y-103460883D01*
X132645910Y-103308538D01*
X132738814Y-103134727D01*
X132796024Y-102946132D01*
X132815341Y-102750000D01*
X132796024Y-102553868D01*
X132738814Y-102365273D01*
X132738811Y-102365269D01*
X132738811Y-102365266D01*
X132645913Y-102191467D01*
X132645909Y-102191461D01*
X132638645Y-102182609D01*
X132611333Y-102118299D01*
X132610500Y-102103946D01*
X132610500Y-100531940D01*
X132630185Y-100464901D01*
X132682989Y-100419146D01*
X132752147Y-100409202D01*
X132815703Y-100438227D01*
X132822181Y-100444259D01*
X134067131Y-101689209D01*
X134100616Y-101750532D01*
X134102853Y-101764733D01*
X134103975Y-101776129D01*
X134161188Y-101964733D01*
X134254086Y-102138532D01*
X134254090Y-102138539D01*
X134379116Y-102290883D01*
X134531460Y-102415909D01*
X134531467Y-102415913D01*
X134705266Y-102508811D01*
X134705269Y-102508811D01*
X134705273Y-102508814D01*
X134893868Y-102566024D01*
X135090000Y-102585341D01*
X135286132Y-102566024D01*
X135474727Y-102508814D01*
X135648538Y-102415910D01*
X135800883Y-102290883D01*
X135925910Y-102138538D01*
X136018814Y-101964727D01*
X136076024Y-101776132D01*
X136095341Y-101580000D01*
X136076024Y-101383868D01*
X136018814Y-101195273D01*
X136018811Y-101195269D01*
X136018811Y-101195266D01*
X135925913Y-101021467D01*
X135925909Y-101021460D01*
X135800883Y-100869116D01*
X135648539Y-100744090D01*
X135648532Y-100744086D01*
X135474733Y-100651188D01*
X135474727Y-100651186D01*
X135286132Y-100593976D01*
X135286129Y-100593975D01*
X135286130Y-100593975D01*
X135274733Y-100592853D01*
X135209947Y-100566691D01*
X135199209Y-100557131D01*
X135118604Y-100476526D01*
X135085119Y-100415203D01*
X135090103Y-100345511D01*
X135131975Y-100289578D01*
X135197439Y-100265161D01*
X135229069Y-100266956D01*
X135248024Y-100270500D01*
X135248025Y-100270500D01*
X135451974Y-100270500D01*
X135451976Y-100270500D01*
X135652456Y-100233024D01*
X135842637Y-100159348D01*
X136016041Y-100051981D01*
X136166764Y-99914579D01*
X136289673Y-99751821D01*
X136380582Y-99569250D01*
X136436397Y-99373083D01*
X136455215Y-99170000D01*
X136436397Y-98966917D01*
X136380582Y-98770750D01*
X136289673Y-98588179D01*
X136206284Y-98477754D01*
X136166762Y-98425418D01*
X136016041Y-98288019D01*
X136016039Y-98288017D01*
X135842642Y-98180655D01*
X135842635Y-98180651D01*
X135744738Y-98142726D01*
X135652456Y-98106976D01*
X135451976Y-98069500D01*
X135451974Y-98069500D01*
X135432940Y-98069500D01*
X135365901Y-98049815D01*
X135345259Y-98033181D01*
X129112262Y-91800184D01*
X129112259Y-91800182D01*
X129076904Y-91777966D01*
X129071229Y-91773940D01*
X129038589Y-91747910D01*
X129000959Y-91729787D01*
X128994872Y-91726422D01*
X128959525Y-91704212D01*
X128920114Y-91690421D01*
X128913688Y-91687759D01*
X128876061Y-91669639D01*
X128835345Y-91660345D01*
X128828662Y-91658420D01*
X128789259Y-91644632D01*
X128747763Y-91639955D01*
X128740908Y-91638791D01*
X128700200Y-91629501D01*
X128700196Y-91629500D01*
X128700194Y-91629500D01*
X128700191Y-91629500D01*
X123952939Y-91629500D01*
X123885900Y-91609815D01*
X123865258Y-91593181D01*
X122612077Y-90340000D01*
X132374659Y-90340000D01*
X132393975Y-90536129D01*
X132451188Y-90724733D01*
X132544086Y-90898532D01*
X132544090Y-90898539D01*
X132669116Y-91050883D01*
X132821460Y-91175909D01*
X132821467Y-91175913D01*
X132995266Y-91268811D01*
X132995269Y-91268811D01*
X132995273Y-91268814D01*
X133183868Y-91326024D01*
X133380000Y-91345341D01*
X133388968Y-91344457D01*
X133457613Y-91357471D01*
X133488810Y-91380178D01*
X137781476Y-95672844D01*
X137814961Y-95734167D01*
X137817198Y-95772678D01*
X137804659Y-95899999D01*
X137823975Y-96096129D01*
X137881188Y-96284733D01*
X137974086Y-96458532D01*
X137974090Y-96458539D01*
X138099116Y-96610883D01*
X138251460Y-96735909D01*
X138251467Y-96735913D01*
X138425266Y-96828811D01*
X138425269Y-96828811D01*
X138425273Y-96828814D01*
X138613868Y-96886024D01*
X138810000Y-96905341D01*
X139006132Y-96886024D01*
X139194727Y-96828814D01*
X139368538Y-96735910D01*
X139520883Y-96610883D01*
X139645910Y-96458538D01*
X139738814Y-96284727D01*
X139761482Y-96210000D01*
X145784473Y-96210000D01*
X145804563Y-96542136D01*
X145804563Y-96542141D01*
X145804564Y-96542142D01*
X145864544Y-96869441D01*
X145864545Y-96869445D01*
X145864546Y-96869449D01*
X145963530Y-97187104D01*
X145963534Y-97187116D01*
X145963537Y-97187123D01*
X146100102Y-97490557D01*
X146204376Y-97663047D01*
X146272251Y-97775326D01*
X146477460Y-98037255D01*
X146712744Y-98272539D01*
X146974673Y-98477748D01*
X146974678Y-98477751D01*
X146974682Y-98477754D01*
X147259443Y-98649898D01*
X147562877Y-98786463D01*
X147562890Y-98786467D01*
X147562895Y-98786469D01*
X147774665Y-98852458D01*
X147880559Y-98885456D01*
X148207858Y-98945436D01*
X148540000Y-98965527D01*
X148872142Y-98945436D01*
X149199441Y-98885456D01*
X149488632Y-98795341D01*
X149517104Y-98786469D01*
X149517104Y-98786468D01*
X149517123Y-98786463D01*
X149820557Y-98649898D01*
X150105318Y-98477754D01*
X150367252Y-98272542D01*
X150602542Y-98037252D01*
X150772142Y-97820773D01*
X150807748Y-97775326D01*
X150807748Y-97775324D01*
X150807754Y-97775318D01*
X150979898Y-97490557D01*
X151116463Y-97187123D01*
X151123973Y-97163024D01*
X151179530Y-96984733D01*
X151215456Y-96869441D01*
X151275436Y-96542142D01*
X151295527Y-96210000D01*
X151275436Y-95877858D01*
X151215456Y-95550559D01*
X151175346Y-95421840D01*
X151116469Y-95232895D01*
X151116467Y-95232890D01*
X151116463Y-95232877D01*
X150979898Y-94929443D01*
X150807754Y-94644682D01*
X150807751Y-94644678D01*
X150807748Y-94644673D01*
X150602539Y-94382744D01*
X150367255Y-94147460D01*
X150105326Y-93942251D01*
X150083249Y-93928905D01*
X149820557Y-93770102D01*
X149517123Y-93633537D01*
X149517116Y-93633534D01*
X149517104Y-93633530D01*
X149199449Y-93534546D01*
X149199445Y-93534545D01*
X149199441Y-93534544D01*
X148872142Y-93474564D01*
X148872141Y-93474563D01*
X148872136Y-93474563D01*
X148540000Y-93454473D01*
X148207863Y-93474563D01*
X148207858Y-93474564D01*
X147880559Y-93534544D01*
X147880556Y-93534544D01*
X147880550Y-93534546D01*
X147562895Y-93633530D01*
X147562879Y-93633536D01*
X147562877Y-93633537D01*
X147459641Y-93680000D01*
X147259447Y-93770100D01*
X147259445Y-93770101D01*
X146974673Y-93942251D01*
X146712744Y-94147460D01*
X146477460Y-94382744D01*
X146272251Y-94644673D01*
X146193578Y-94774815D01*
X146118980Y-94898216D01*
X146100101Y-94929445D01*
X146100100Y-94929447D01*
X146085845Y-94961121D01*
X145976450Y-95204187D01*
X145963536Y-95232880D01*
X145963530Y-95232895D01*
X145864546Y-95550550D01*
X145864544Y-95550556D01*
X145864544Y-95550559D01*
X145825414Y-95764086D01*
X145804563Y-95877863D01*
X145784473Y-96210000D01*
X139761482Y-96210000D01*
X139796024Y-96096132D01*
X139813397Y-95919735D01*
X139839558Y-95854949D01*
X139896592Y-95814590D01*
X139966392Y-95811473D01*
X139972795Y-95813229D01*
X140113868Y-95856024D01*
X140310000Y-95875341D01*
X140506132Y-95856024D01*
X140694727Y-95798814D01*
X140759699Y-95764086D01*
X140868532Y-95705913D01*
X140868538Y-95705910D01*
X141020883Y-95580883D01*
X141145910Y-95428538D01*
X141232718Y-95266132D01*
X141238811Y-95254733D01*
X141238811Y-95254732D01*
X141238814Y-95254727D01*
X141296024Y-95066132D01*
X141306886Y-94955844D01*
X141333047Y-94891058D01*
X141390081Y-94850699D01*
X141442447Y-94844597D01*
X141448159Y-94845159D01*
X141449999Y-94845341D01*
X141450000Y-94845341D01*
X141646132Y-94826024D01*
X141834727Y-94768814D01*
X141843981Y-94763868D01*
X142008532Y-94675913D01*
X142008538Y-94675910D01*
X142160883Y-94550883D01*
X142285910Y-94398538D01*
X142366787Y-94247228D01*
X142378811Y-94224733D01*
X142378811Y-94224732D01*
X142378814Y-94224727D01*
X142436024Y-94036132D01*
X142455341Y-93840000D01*
X142436024Y-93643868D01*
X142378814Y-93455273D01*
X142378811Y-93455269D01*
X142378811Y-93455266D01*
X142285913Y-93281467D01*
X142285909Y-93281460D01*
X142160883Y-93129116D01*
X142008539Y-93004090D01*
X142008532Y-93004086D01*
X141834733Y-92911188D01*
X141834727Y-92911186D01*
X141646132Y-92853976D01*
X141646130Y-92853975D01*
X141646128Y-92853975D01*
X141556298Y-92845127D01*
X141491511Y-92818965D01*
X141480772Y-92809405D01*
X137165729Y-88494361D01*
X137153949Y-88480730D01*
X137146482Y-88470701D01*
X137139612Y-88461472D01*
X137139610Y-88461470D01*
X137099587Y-88427886D01*
X137095612Y-88424244D01*
X137092690Y-88421322D01*
X137089780Y-88418411D01*
X137064040Y-88398059D01*
X137044266Y-88381467D01*
X137005214Y-88348698D01*
X137005213Y-88348697D01*
X137005209Y-88348694D01*
X136999180Y-88344729D01*
X136999212Y-88344680D01*
X136992853Y-88340628D01*
X136992822Y-88340679D01*
X136986680Y-88336891D01*
X136986678Y-88336890D01*
X136986677Y-88336889D01*
X136947474Y-88318608D01*
X136917058Y-88304424D01*
X136863227Y-88277390D01*
X136848433Y-88269960D01*
X136848431Y-88269959D01*
X136848430Y-88269959D01*
X136841645Y-88267489D01*
X136841665Y-88267433D01*
X136834549Y-88264959D01*
X136834531Y-88265015D01*
X136827671Y-88262742D01*
X136799841Y-88256996D01*
X136752434Y-88247207D01*
X136692578Y-88233021D01*
X136677719Y-88229499D01*
X136670547Y-88228661D01*
X136670553Y-88228601D01*
X136663055Y-88227835D01*
X136663050Y-88227895D01*
X136655860Y-88227265D01*
X136590252Y-88229175D01*
X136522668Y-88211448D01*
X136507980Y-88201080D01*
X136438539Y-88144090D01*
X136438532Y-88144086D01*
X136264733Y-88051188D01*
X136264727Y-88051186D01*
X136120662Y-88007484D01*
X136076129Y-87993975D01*
X135880000Y-87974659D01*
X135683870Y-87993975D01*
X135495266Y-88051188D01*
X135321467Y-88144086D01*
X135321460Y-88144090D01*
X135169116Y-88269116D01*
X135044090Y-88421460D01*
X135044086Y-88421467D01*
X134951188Y-88595266D01*
X134893975Y-88783870D01*
X134891584Y-88808151D01*
X134865422Y-88872938D01*
X134808387Y-88913296D01*
X134780338Y-88919398D01*
X134733870Y-88923975D01*
X134545266Y-88981188D01*
X134371467Y-89074086D01*
X134371460Y-89074090D01*
X134219116Y-89199116D01*
X134094090Y-89351460D01*
X134094086Y-89351467D01*
X134054524Y-89425483D01*
X134005562Y-89475327D01*
X133937424Y-89490788D01*
X133886713Y-89476388D01*
X133764733Y-89411188D01*
X133764727Y-89411186D01*
X133576132Y-89353976D01*
X133576129Y-89353975D01*
X133380000Y-89334659D01*
X133183870Y-89353975D01*
X132995266Y-89411188D01*
X132821467Y-89504086D01*
X132821460Y-89504090D01*
X132669116Y-89629116D01*
X132544090Y-89781460D01*
X132544086Y-89781467D01*
X132451188Y-89955266D01*
X132393975Y-90143870D01*
X132374659Y-90340000D01*
X122612077Y-90340000D01*
X121114130Y-88842052D01*
X121080645Y-88780729D01*
X121078340Y-88765812D01*
X121072800Y-88706023D01*
X121066397Y-88636917D01*
X121010582Y-88440750D01*
X121000980Y-88421467D01*
X120964744Y-88348694D01*
X120919673Y-88258179D01*
X120796764Y-88095421D01*
X120796762Y-88095418D01*
X120646041Y-87958019D01*
X120646039Y-87958017D01*
X120472642Y-87850655D01*
X120472635Y-87850651D01*
X120342195Y-87800119D01*
X120282456Y-87776976D01*
X120102495Y-87743335D01*
X120040215Y-87711668D01*
X120004942Y-87651355D01*
X120007876Y-87581547D01*
X120037598Y-87533768D01*
X120955638Y-86615727D01*
X120969267Y-86603950D01*
X120988530Y-86589610D01*
X120988532Y-86589606D01*
X120988534Y-86589606D01*
X121006663Y-86567999D01*
X121022113Y-86549585D01*
X121025767Y-86545599D01*
X121031591Y-86539776D01*
X121051930Y-86514052D01*
X121101302Y-86455214D01*
X121101306Y-86455205D01*
X121105274Y-86449175D01*
X121105325Y-86449208D01*
X121109369Y-86442860D01*
X121109317Y-86442828D01*
X121113104Y-86436685D01*
X121113111Y-86436677D01*
X121145572Y-86367063D01*
X121180040Y-86298433D01*
X121180041Y-86298427D01*
X121182508Y-86291650D01*
X121182566Y-86291671D01*
X121185043Y-86284544D01*
X121184986Y-86284526D01*
X121187255Y-86277679D01*
X121187256Y-86277674D01*
X121187257Y-86277672D01*
X121202790Y-86202441D01*
X121220500Y-86127721D01*
X121220500Y-86127719D01*
X121221339Y-86120548D01*
X121221398Y-86120554D01*
X121222164Y-86113054D01*
X121222105Y-86113049D01*
X121222734Y-86105859D01*
X121220500Y-86029082D01*
X121220500Y-84416396D01*
X121240185Y-84349357D01*
X121279221Y-84310970D01*
X121326041Y-84281981D01*
X121454937Y-84164477D01*
X121476762Y-84144581D01*
X121479515Y-84140936D01*
X121599673Y-83981821D01*
X121690582Y-83799250D01*
X121746397Y-83603083D01*
X121765215Y-83400000D01*
X121746397Y-83196917D01*
X121690582Y-83000750D01*
X121680980Y-82981467D01*
X121635515Y-82890160D01*
X121599673Y-82818179D01*
X121486400Y-82668181D01*
X121476762Y-82655418D01*
X121326041Y-82518019D01*
X121326039Y-82518017D01*
X121152642Y-82410655D01*
X121152635Y-82410651D01*
X121044157Y-82368627D01*
X120962456Y-82336976D01*
X120761976Y-82299500D01*
X120558024Y-82299500D01*
X120357544Y-82336976D01*
X120357541Y-82336976D01*
X120357541Y-82336977D01*
X120167364Y-82410651D01*
X120167357Y-82410655D01*
X119993960Y-82518017D01*
X119993958Y-82518019D01*
X119843237Y-82655418D01*
X119720327Y-82818178D01*
X119629422Y-83000739D01*
X119629417Y-83000752D01*
X119573602Y-83196917D01*
X119554785Y-83399999D01*
X119554785Y-83400000D01*
X119573602Y-83603082D01*
X119629417Y-83799247D01*
X119629422Y-83799260D01*
X119664844Y-83870396D01*
X119706500Y-83954053D01*
X119719500Y-84009323D01*
X119719500Y-85677770D01*
X119699815Y-85744809D01*
X119683181Y-85765451D01*
X118875451Y-86573181D01*
X118814128Y-86606666D01*
X118787770Y-86609500D01*
X118698024Y-86609500D01*
X118497544Y-86646976D01*
X118497541Y-86646976D01*
X118497541Y-86646977D01*
X118307364Y-86720651D01*
X118307357Y-86720655D01*
X118133962Y-86828016D01*
X118053449Y-86901413D01*
X117990644Y-86932029D01*
X117921257Y-86923831D01*
X117867317Y-86879421D01*
X117845950Y-86812899D01*
X117845912Y-86809637D01*
X117894558Y-64400000D01*
X120734540Y-64400000D01*
X120754326Y-64588256D01*
X120754327Y-64588259D01*
X120812818Y-64768277D01*
X120812821Y-64768284D01*
X120907467Y-64932216D01*
X121007566Y-65043387D01*
X121034129Y-65072888D01*
X121187265Y-65184148D01*
X121187270Y-65184151D01*
X121360192Y-65261142D01*
X121360197Y-65261144D01*
X121545354Y-65300500D01*
X121545355Y-65300500D01*
X121734644Y-65300500D01*
X121734646Y-65300500D01*
X121919803Y-65261144D01*
X122092730Y-65184151D01*
X122245871Y-65072888D01*
X122248788Y-65069647D01*
X122251600Y-65066526D01*
X122311087Y-65029879D01*
X122343748Y-65025500D01*
X124897257Y-65025500D01*
X124912877Y-65027224D01*
X124912904Y-65026939D01*
X124920660Y-65027671D01*
X124920667Y-65027673D01*
X124989814Y-65025500D01*
X125019350Y-65025500D01*
X125026228Y-65024630D01*
X125032041Y-65024172D01*
X125078627Y-65022709D01*
X125097869Y-65017117D01*
X125116912Y-65013174D01*
X125136792Y-65010664D01*
X125180122Y-64993507D01*
X125185646Y-64991617D01*
X125189396Y-64990527D01*
X125230390Y-64978618D01*
X125247629Y-64968422D01*
X125265103Y-64959862D01*
X125283727Y-64952488D01*
X125283727Y-64952487D01*
X125283732Y-64952486D01*
X125321449Y-64925082D01*
X125326305Y-64921892D01*
X125366420Y-64898170D01*
X125380589Y-64883999D01*
X125395379Y-64871368D01*
X125411587Y-64859594D01*
X125441299Y-64823676D01*
X125445212Y-64819376D01*
X136620767Y-53643822D01*
X136682088Y-53610339D01*
X136751780Y-53615323D01*
X136758882Y-53618226D01*
X136900192Y-53681142D01*
X136900197Y-53681144D01*
X137085354Y-53720500D01*
X137085355Y-53720500D01*
X137274644Y-53720500D01*
X137274646Y-53720500D01*
X137459803Y-53681144D01*
X137632730Y-53604151D01*
X137785871Y-53492888D01*
X137912533Y-53352216D01*
X138007179Y-53188284D01*
X138065674Y-53008256D01*
X138085460Y-52820000D01*
X138065674Y-52631744D01*
X138007179Y-52451716D01*
X137912533Y-52287784D01*
X137785871Y-52147112D01*
X137785870Y-52147111D01*
X137632734Y-52035851D01*
X137632729Y-52035848D01*
X137459807Y-51958857D01*
X137459802Y-51958855D01*
X137314001Y-51927865D01*
X137274646Y-51919500D01*
X137085354Y-51919500D01*
X137052897Y-51926398D01*
X136900197Y-51958855D01*
X136900192Y-51958857D01*
X136727270Y-52035848D01*
X136727265Y-52035851D01*
X136574130Y-52147110D01*
X136574124Y-52147116D01*
X136566302Y-52155803D01*
X136506814Y-52192449D01*
X136478055Y-52196766D01*
X136461373Y-52197290D01*
X136461372Y-52197290D01*
X136442129Y-52202881D01*
X136423079Y-52206825D01*
X136403211Y-52209334D01*
X136359884Y-52226488D01*
X136354358Y-52228379D01*
X136309614Y-52241379D01*
X136309610Y-52241381D01*
X136292366Y-52251579D01*
X136274905Y-52260133D01*
X136256274Y-52267510D01*
X136256262Y-52267517D01*
X136218570Y-52294902D01*
X136213687Y-52298109D01*
X136173580Y-52321829D01*
X136159414Y-52335995D01*
X136144624Y-52348627D01*
X136128414Y-52360404D01*
X136128411Y-52360407D01*
X136098710Y-52396309D01*
X136094777Y-52400631D01*
X124757228Y-63738181D01*
X124695905Y-63771666D01*
X124669547Y-63774500D01*
X122343748Y-63774500D01*
X122276709Y-63754815D01*
X122251600Y-63733474D01*
X122245873Y-63727114D01*
X122245869Y-63727110D01*
X122092734Y-63615851D01*
X122092729Y-63615848D01*
X121919807Y-63538857D01*
X121919802Y-63538855D01*
X121774001Y-63507865D01*
X121734646Y-63499500D01*
X121545354Y-63499500D01*
X121512897Y-63506398D01*
X121360197Y-63538855D01*
X121360192Y-63538857D01*
X121187270Y-63615848D01*
X121187265Y-63615851D01*
X121034129Y-63727111D01*
X120907466Y-63867785D01*
X120812821Y-64031715D01*
X120812818Y-64031722D01*
X120760671Y-64192216D01*
X120754326Y-64211744D01*
X120734540Y-64400000D01*
X117894558Y-64400000D01*
X117920000Y-52680000D01*
X117812963Y-50130000D01*
X162684659Y-50130000D01*
X162703975Y-50326129D01*
X162761187Y-50514730D01*
X162761189Y-50514733D01*
X162854090Y-50688538D01*
X162854092Y-50688540D01*
X162881353Y-50721758D01*
X162908666Y-50786068D01*
X162909500Y-50800423D01*
X162909500Y-52286294D01*
X162908191Y-52304263D01*
X162904710Y-52328025D01*
X162909264Y-52380064D01*
X162909500Y-52385470D01*
X162909500Y-52393709D01*
X162913306Y-52426274D01*
X162920000Y-52502791D01*
X162921461Y-52509867D01*
X162921403Y-52509878D01*
X162923034Y-52517237D01*
X162923092Y-52517224D01*
X162924757Y-52524250D01*
X162951025Y-52596424D01*
X162975185Y-52669331D01*
X162978236Y-52675874D01*
X162978182Y-52675898D01*
X162981470Y-52682688D01*
X162981521Y-52682663D01*
X162984761Y-52689113D01*
X162984762Y-52689114D01*
X162984763Y-52689117D01*
X163011609Y-52729935D01*
X163026965Y-52753283D01*
X163067287Y-52818655D01*
X163071766Y-52824319D01*
X163071719Y-52824355D01*
X163076483Y-52830202D01*
X163076529Y-52830164D01*
X163081166Y-52835690D01*
X163081170Y-52835696D01*
X163102488Y-52855808D01*
X163137742Y-52916132D01*
X163140796Y-52933847D01*
X163143975Y-52966129D01*
X163201188Y-53154733D01*
X163294086Y-53328532D01*
X163294090Y-53328539D01*
X163419116Y-53480883D01*
X163571460Y-53605909D01*
X163571467Y-53605913D01*
X163745266Y-53698811D01*
X163745269Y-53698811D01*
X163745273Y-53698814D01*
X163933868Y-53756024D01*
X164130000Y-53775341D01*
X164326132Y-53756024D01*
X164514727Y-53698814D01*
X164688538Y-53605910D01*
X164840883Y-53480883D01*
X164965910Y-53328538D01*
X165012362Y-53241632D01*
X165058811Y-53154733D01*
X165058811Y-53154732D01*
X165058814Y-53154727D01*
X165116024Y-52966132D01*
X165135341Y-52770000D01*
X165116024Y-52573868D01*
X165058814Y-52385273D01*
X165058811Y-52385269D01*
X165058811Y-52385266D01*
X164965913Y-52211467D01*
X164965909Y-52211460D01*
X164840883Y-52059116D01*
X164688539Y-51934090D01*
X164688532Y-51934086D01*
X164514730Y-51841187D01*
X164514726Y-51841185D01*
X164498503Y-51836264D01*
X164440065Y-51797966D01*
X164411609Y-51734153D01*
X164410500Y-51717604D01*
X164410500Y-50873532D01*
X164430185Y-50806493D01*
X164438639Y-50794876D01*
X164525910Y-50688538D01*
X164618814Y-50514727D01*
X164676024Y-50326132D01*
X164695341Y-50130000D01*
X164676024Y-49933868D01*
X164618814Y-49745273D01*
X164618811Y-49745269D01*
X164618811Y-49745266D01*
X164525913Y-49571467D01*
X164525909Y-49571460D01*
X164400883Y-49419116D01*
X164248539Y-49294090D01*
X164248532Y-49294086D01*
X164074733Y-49201188D01*
X164074727Y-49201186D01*
X163886132Y-49143976D01*
X163886129Y-49143975D01*
X163690000Y-49124659D01*
X163493870Y-49143975D01*
X163305266Y-49201188D01*
X163131467Y-49294086D01*
X163131460Y-49294090D01*
X162979116Y-49419116D01*
X162854090Y-49571460D01*
X162854086Y-49571467D01*
X162761188Y-49745266D01*
X162703975Y-49933870D01*
X162684659Y-50130000D01*
X117812963Y-50130000D01*
X117755406Y-48758792D01*
X117772262Y-48690987D01*
X117823100Y-48643058D01*
X117878903Y-48629594D01*
X140020000Y-48560000D01*
X181634725Y-48769369D01*
G37*
G04 #@! TD.AperFunction*
G04 #@! TA.AperFunction,Conductor*
G36*
X161086587Y-54545185D02*
G01*
X161107229Y-54561819D01*
X161588181Y-55042771D01*
X161621666Y-55104094D01*
X161624500Y-55130452D01*
X161624500Y-56838921D01*
X161604815Y-56905960D01*
X161552011Y-56951715D01*
X161482853Y-56961659D01*
X161419297Y-56932634D01*
X161391142Y-56897375D01*
X161355911Y-56831463D01*
X161355909Y-56831460D01*
X161230883Y-56679116D01*
X161078539Y-56554090D01*
X161078532Y-56554086D01*
X160904733Y-56461188D01*
X160904727Y-56461186D01*
X160716132Y-56403976D01*
X160716129Y-56403975D01*
X160520000Y-56384659D01*
X160323870Y-56403975D01*
X160135266Y-56461188D01*
X159961467Y-56554086D01*
X159961460Y-56554090D01*
X159809116Y-56679116D01*
X159684090Y-56831460D01*
X159684086Y-56831467D01*
X159591188Y-57005266D01*
X159533975Y-57193870D01*
X159514659Y-57390000D01*
X159533975Y-57586129D01*
X159545994Y-57625750D01*
X159583165Y-57748287D01*
X159591187Y-57774730D01*
X159598371Y-57788170D01*
X159654858Y-57893850D01*
X159669500Y-57952301D01*
X159669500Y-59747697D01*
X159654858Y-59806150D01*
X159591188Y-59925267D01*
X159533975Y-60113870D01*
X159514659Y-60310000D01*
X159533975Y-60506129D01*
X159533976Y-60506132D01*
X159583887Y-60670667D01*
X159591188Y-60694733D01*
X159684086Y-60868532D01*
X159684090Y-60868539D01*
X159809116Y-61020883D01*
X159961460Y-61145909D01*
X159961467Y-61145913D01*
X160135266Y-61238811D01*
X160135269Y-61238811D01*
X160135273Y-61238814D01*
X160323868Y-61296024D01*
X160520000Y-61315341D01*
X160716132Y-61296024D01*
X160904727Y-61238814D01*
X160909560Y-61236231D01*
X161078532Y-61145913D01*
X161078538Y-61145910D01*
X161230883Y-61020883D01*
X161355910Y-60868538D01*
X161369408Y-60843285D01*
X161391142Y-60802625D01*
X161440104Y-60752781D01*
X161508242Y-60737320D01*
X161573921Y-60761152D01*
X161616290Y-60816709D01*
X161624500Y-60861078D01*
X161624500Y-61107255D01*
X161622775Y-61122872D01*
X161623061Y-61122899D01*
X161622326Y-61130665D01*
X161624500Y-61199814D01*
X161624500Y-61229343D01*
X161624501Y-61229360D01*
X161625368Y-61236231D01*
X161625826Y-61242050D01*
X161627290Y-61288624D01*
X161627291Y-61288627D01*
X161632880Y-61307867D01*
X161636824Y-61326911D01*
X161639336Y-61346792D01*
X161655566Y-61387785D01*
X161656490Y-61390119D01*
X161658382Y-61395647D01*
X161667467Y-61426918D01*
X161671382Y-61440390D01*
X161675167Y-61446791D01*
X161681580Y-61457634D01*
X161690138Y-61475103D01*
X161697514Y-61493732D01*
X161724898Y-61531423D01*
X161728106Y-61536307D01*
X161751827Y-61576416D01*
X161751833Y-61576424D01*
X161765990Y-61590580D01*
X161778628Y-61605376D01*
X161790405Y-61621586D01*
X161790406Y-61621587D01*
X161826309Y-61651288D01*
X161830620Y-61655210D01*
X162500681Y-62325271D01*
X163167582Y-62992172D01*
X163201067Y-63053495D01*
X163196083Y-63123187D01*
X163158567Y-63175706D01*
X163069114Y-63249119D01*
X162944090Y-63401460D01*
X162944086Y-63401467D01*
X162851188Y-63575266D01*
X162793975Y-63763870D01*
X162774659Y-63960000D01*
X162793975Y-64156129D01*
X162851187Y-64344730D01*
X162875899Y-64390963D01*
X162914858Y-64463850D01*
X162929500Y-64522301D01*
X162929500Y-64976348D01*
X162909815Y-65043387D01*
X162893181Y-65064029D01*
X162636212Y-65320997D01*
X162584527Y-65351976D01*
X162455271Y-65391186D01*
X162281467Y-65484086D01*
X162281460Y-65484090D01*
X162129116Y-65609116D01*
X162004090Y-65761460D01*
X162004086Y-65761467D01*
X161911188Y-65935266D01*
X161853975Y-66123870D01*
X161834659Y-66320000D01*
X161853975Y-66516129D01*
X161911188Y-66704733D01*
X162004086Y-66878532D01*
X162004090Y-66878539D01*
X162129116Y-67030883D01*
X162281460Y-67155909D01*
X162281467Y-67155913D01*
X162455266Y-67248811D01*
X162455269Y-67248811D01*
X162455273Y-67248814D01*
X162643868Y-67306024D01*
X162840000Y-67325341D01*
X163036132Y-67306024D01*
X163224727Y-67248814D01*
X163257191Y-67231462D01*
X163398532Y-67155913D01*
X163398538Y-67155910D01*
X163550883Y-67030883D01*
X163675910Y-66878538D01*
X163768814Y-66704727D01*
X163808024Y-66575466D01*
X163839000Y-66523786D01*
X164355185Y-66007601D01*
X164358854Y-66004219D01*
X164401100Y-65968337D01*
X164450104Y-65903872D01*
X164500842Y-65840753D01*
X164500842Y-65840751D01*
X164500844Y-65840750D01*
X164501432Y-65839829D01*
X164512426Y-65822105D01*
X164513050Y-65821069D01*
X164513054Y-65821064D01*
X164547055Y-65747570D01*
X164583037Y-65675021D01*
X164583037Y-65675017D01*
X164583440Y-65673923D01*
X164590329Y-65654361D01*
X164590727Y-65653177D01*
X164590732Y-65653167D01*
X164608139Y-65574083D01*
X164627684Y-65495494D01*
X164627684Y-65495492D01*
X164627833Y-65494400D01*
X164630371Y-65473677D01*
X164630500Y-65472497D01*
X164630500Y-65391530D01*
X164631816Y-65342960D01*
X164632693Y-65310568D01*
X164632692Y-65310567D01*
X164632693Y-65310563D01*
X164632608Y-65309520D01*
X164630500Y-65287352D01*
X164630500Y-64754452D01*
X164650185Y-64687413D01*
X164702989Y-64641658D01*
X164772147Y-64631714D01*
X164835703Y-64660739D01*
X164842181Y-64666771D01*
X174793827Y-74618417D01*
X174827312Y-74679740D01*
X174822328Y-74749432D01*
X174780456Y-74805365D01*
X174748908Y-74822491D01*
X174707514Y-74837699D01*
X174630784Y-74863553D01*
X174629920Y-74863953D01*
X174610704Y-74873160D01*
X174609885Y-74873566D01*
X174541646Y-74917184D01*
X174472259Y-74958933D01*
X174471494Y-74959515D01*
X174454791Y-74972572D01*
X174454012Y-74973199D01*
X174396750Y-75030459D01*
X174337956Y-75086153D01*
X174337322Y-75086899D01*
X174323093Y-75104116D01*
X172514830Y-76912380D01*
X172511127Y-76915794D01*
X172469865Y-76950844D01*
X172468898Y-76951665D01*
X172419909Y-77016108D01*
X172369155Y-77079249D01*
X172368649Y-77080041D01*
X172357469Y-77098066D01*
X172356944Y-77098938D01*
X172340718Y-77134011D01*
X172322939Y-77172439D01*
X172321179Y-77175986D01*
X172319732Y-77178904D01*
X172272303Y-77230209D01*
X172204665Y-77247727D01*
X172138293Y-77225896D01*
X172102402Y-77187719D01*
X172093215Y-77172449D01*
X172081070Y-77152264D01*
X172081069Y-77152263D01*
X172081068Y-77152261D01*
X172080409Y-77151395D01*
X172067541Y-77134934D01*
X172066802Y-77134014D01*
X172066801Y-77134013D01*
X172066800Y-77134011D01*
X172009539Y-77076750D01*
X171953849Y-77017959D01*
X171953088Y-77017312D01*
X171935881Y-77003092D01*
X170369002Y-75436213D01*
X170338023Y-75384529D01*
X170298814Y-75255273D01*
X170298812Y-75255270D01*
X170298812Y-75255268D01*
X170205913Y-75081467D01*
X170205909Y-75081460D01*
X170080883Y-74929116D01*
X169928539Y-74804090D01*
X169928532Y-74804086D01*
X169754733Y-74711188D01*
X169754727Y-74711186D01*
X169566132Y-74653976D01*
X169566129Y-74653975D01*
X169370000Y-74634659D01*
X169173870Y-74653975D01*
X168985266Y-74711188D01*
X168811467Y-74804086D01*
X168811460Y-74804090D01*
X168659116Y-74929116D01*
X168534090Y-75081460D01*
X168534086Y-75081467D01*
X168441188Y-75255266D01*
X168383975Y-75443870D01*
X168364659Y-75640000D01*
X168383975Y-75836129D01*
X168393373Y-75867111D01*
X168436046Y-76007784D01*
X168441188Y-76024733D01*
X168485617Y-76107853D01*
X168499859Y-76176256D01*
X168474859Y-76241500D01*
X168418554Y-76282870D01*
X168348820Y-76287232D01*
X168288578Y-76253987D01*
X154897786Y-62863195D01*
X154864301Y-62801872D01*
X154869285Y-62732180D01*
X154911157Y-62676247D01*
X154912415Y-62675317D01*
X155025871Y-62592888D01*
X155152533Y-62452216D01*
X155247179Y-62288284D01*
X155305674Y-62108256D01*
X155325460Y-61920000D01*
X155305674Y-61731744D01*
X155247179Y-61551716D01*
X155152533Y-61387784D01*
X155025871Y-61247112D01*
X155010895Y-61236231D01*
X154872734Y-61135851D01*
X154872729Y-61135848D01*
X154699807Y-61058857D01*
X154699802Y-61058855D01*
X154532180Y-61023227D01*
X154514646Y-61019500D01*
X154429500Y-61019500D01*
X154362461Y-60999815D01*
X154316706Y-60947011D01*
X154305500Y-60895500D01*
X154305500Y-55538687D01*
X154325185Y-55471648D01*
X154337350Y-55455715D01*
X154355891Y-55435122D01*
X154412533Y-55372216D01*
X154507179Y-55208284D01*
X154565674Y-55028256D01*
X154585460Y-54840000D01*
X154566800Y-54662459D01*
X154579370Y-54593731D01*
X154627102Y-54542708D01*
X154690121Y-54525500D01*
X161019548Y-54525500D01*
X161086587Y-54545185D01*
G37*
G04 #@! TD.AperFunction*
M02*
