G04 #@! TF.GenerationSoftware,KiCad,Pcbnew,7.0.8*
G04 #@! TF.CreationDate,2023-12-01T18:56:09+08:00*
G04 #@! TF.ProjectId,ESPCARproject,45535043-4152-4707-926f-6a6563742e6b,rev?*
G04 #@! TF.SameCoordinates,Original*
G04 #@! TF.FileFunction,Copper,L2,Bot*
G04 #@! TF.FilePolarity,Positive*
%FSLAX46Y46*%
G04 Gerber Fmt 4.6, Leading zero omitted, Abs format (unit mm)*
G04 Created by KiCad (PCBNEW 7.0.8) date 2023-12-01 18:56:09*
%MOMM*%
%LPD*%
G01*
G04 APERTURE LIST*
G04 #@! TA.AperFunction,ComponentPad*
%ADD10R,1.700000X1.700000*%
G04 #@! TD*
G04 #@! TA.AperFunction,ComponentPad*
%ADD11O,1.700000X1.700000*%
G04 #@! TD*
G04 #@! TA.AperFunction,HeatsinkPad*
%ADD12C,0.600000*%
G04 #@! TD*
G04 #@! TA.AperFunction,ComponentPad*
%ADD13C,3.000000*%
G04 #@! TD*
G04 #@! TA.AperFunction,ComponentPad*
%ADD14R,1.600000X1.600000*%
G04 #@! TD*
G04 #@! TA.AperFunction,ComponentPad*
%ADD15C,1.600000*%
G04 #@! TD*
G04 #@! TA.AperFunction,ComponentPad*
%ADD16R,1.500000X1.500000*%
G04 #@! TD*
G04 #@! TA.AperFunction,ComponentPad*
%ADD17O,1.500000X1.500000*%
G04 #@! TD*
G04 #@! TA.AperFunction,ViaPad*
%ADD18C,1.000000*%
G04 #@! TD*
G04 #@! TA.AperFunction,ViaPad*
%ADD19C,0.800000*%
G04 #@! TD*
G04 #@! TA.AperFunction,ViaPad*
%ADD20C,1.300000*%
G04 #@! TD*
G04 #@! TA.AperFunction,ViaPad*
%ADD21C,4.500000*%
G04 #@! TD*
G04 #@! TA.AperFunction,ViaPad*
%ADD22C,1.200000*%
G04 #@! TD*
G04 #@! TA.AperFunction,Conductor*
%ADD23C,0.250000*%
G04 #@! TD*
G04 #@! TA.AperFunction,Conductor*
%ADD24C,0.700000*%
G04 #@! TD*
G04 #@! TA.AperFunction,Conductor*
%ADD25C,0.600000*%
G04 #@! TD*
G04 #@! TA.AperFunction,Conductor*
%ADD26C,0.500000*%
G04 #@! TD*
G04 #@! TA.AperFunction,Conductor*
%ADD27C,1.200000*%
G04 #@! TD*
G04 #@! TA.AperFunction,Conductor*
%ADD28C,0.800000*%
G04 #@! TD*
G04 APERTURE END LIST*
D10*
X183582500Y-59507500D03*
X183582500Y-56967500D03*
D11*
X183582500Y-54427500D03*
X183582500Y-51887500D03*
D10*
X183582500Y-70770000D03*
D11*
X183582500Y-73310000D03*
X183582500Y-75850000D03*
X183582500Y-78390000D03*
X183582500Y-80930000D03*
D10*
X183582500Y-68230000D03*
X183582500Y-87565000D03*
X183582500Y-90105000D03*
D11*
X183582500Y-92645000D03*
X183582500Y-95185000D03*
X183582500Y-111660000D03*
X183582500Y-109120000D03*
X183582500Y-106580000D03*
D10*
X183582500Y-104040000D03*
X183582500Y-101500000D03*
X172960000Y-80740000D03*
D11*
X172960000Y-83280000D03*
X172960000Y-85820000D03*
X172960000Y-88360000D03*
X172960000Y-90900000D03*
X172960000Y-93440000D03*
X121770000Y-128310000D03*
X119230000Y-128310000D03*
X116690000Y-128310000D03*
D10*
X114150000Y-128310000D03*
D12*
X145450000Y-56280000D03*
X145450000Y-57805000D03*
X146212500Y-55517500D03*
X146212500Y-57042500D03*
X146212500Y-58567500D03*
X146975000Y-56280000D03*
X146975000Y-57805000D03*
X147737500Y-55517500D03*
X147737500Y-57042500D03*
X147737500Y-58567500D03*
X148500000Y-56280000D03*
X148500000Y-57805000D03*
D13*
X163420000Y-129180000D03*
X158340000Y-129180000D03*
D14*
X174672375Y-109170000D03*
D15*
X177172375Y-109170000D03*
D13*
X149280000Y-129180000D03*
X144200000Y-129180000D03*
D14*
X159350000Y-112550000D03*
D15*
X159350000Y-115050000D03*
X177150000Y-116590000D03*
D14*
X174650000Y-116590000D03*
D16*
X172290000Y-137070000D03*
D17*
X172290000Y-134570000D03*
X172290000Y-132070000D03*
D13*
X134690000Y-129180000D03*
X129610000Y-129180000D03*
D14*
X151910000Y-112550000D03*
D15*
X151910000Y-115050000D03*
D18*
X152030000Y-49760000D03*
X149260000Y-49750000D03*
X151510000Y-52360000D03*
X149340000Y-52370000D03*
X160830000Y-60920000D03*
X154250000Y-59760000D03*
X154250000Y-57460000D03*
D19*
X157080000Y-89350000D03*
X155430000Y-88260000D03*
X119000000Y-85210000D03*
X118990000Y-83260000D03*
X121430000Y-95660000D03*
X127450000Y-97740000D03*
X125670000Y-97830000D03*
X125970000Y-100730000D03*
X127620000Y-100660000D03*
X132840000Y-110740000D03*
X131870000Y-107850000D03*
X117590000Y-111050000D03*
X121140000Y-111510000D03*
X117930000Y-113180000D03*
X121330000Y-113540000D03*
X177040000Y-82680000D03*
X178550000Y-79620000D03*
X179650000Y-80430000D03*
X178240000Y-84020000D03*
X158160000Y-66410000D03*
X160340000Y-68760000D03*
X164160000Y-69320000D03*
X162770000Y-71230000D03*
X158020000Y-70520000D03*
X160440000Y-72850000D03*
X174190000Y-54280000D03*
X179840000Y-52370000D03*
D20*
X135460000Y-95230000D03*
X139880000Y-95220000D03*
X137750000Y-95180000D03*
X132760000Y-95260000D03*
D19*
X161545000Y-70455000D03*
X161490000Y-67180000D03*
X128560000Y-84460000D03*
X118850000Y-91870000D03*
X117590000Y-91890000D03*
D21*
X181460000Y-135300000D03*
X148540000Y-96210000D03*
X113580000Y-53410000D03*
D19*
X167830000Y-57380000D03*
D18*
X157644497Y-95282943D03*
X163690000Y-50130000D03*
X146330000Y-62710000D03*
X153510000Y-96600000D03*
X152820000Y-93380000D03*
X164130000Y-52770000D03*
X163780000Y-63960000D03*
X151100000Y-71600000D03*
X153450000Y-70020000D03*
X150380000Y-88940000D03*
X152170000Y-72880000D03*
X160520000Y-57390000D03*
X153130000Y-65420000D03*
D19*
X150380000Y-85630000D03*
D18*
X152140000Y-69220000D03*
D19*
X168050000Y-54290000D03*
D18*
X145190000Y-60090000D03*
X148770000Y-59970000D03*
X156100000Y-93410000D03*
X157640000Y-93680000D03*
X154680000Y-97790000D03*
X162840000Y-66320000D03*
X161280000Y-59910000D03*
X148760000Y-62430000D03*
D22*
X159540000Y-96100000D03*
X156450000Y-99220000D03*
D18*
X168300000Y-74120000D03*
D19*
X155140000Y-83430000D03*
D18*
X123520000Y-66430000D03*
X168060000Y-68950000D03*
X121280000Y-62650000D03*
X123590000Y-63350000D03*
X176500000Y-51800000D03*
X136390000Y-50980000D03*
X123560000Y-69632500D03*
D22*
X168617500Y-103862500D03*
X170410000Y-102400000D03*
D18*
X171180000Y-52630000D03*
X123510000Y-60990000D03*
D22*
X178190000Y-97620000D03*
D18*
X176630000Y-62730000D03*
X176540000Y-68030000D03*
X121250000Y-70770000D03*
D22*
X178100000Y-101290000D03*
D18*
X171160000Y-58000000D03*
X176630000Y-57050000D03*
X176480000Y-72470000D03*
X171240000Y-63520000D03*
X149850000Y-79870000D03*
X148920000Y-87720000D03*
X149720000Y-83130000D03*
D19*
X121640000Y-64400000D03*
X137180000Y-52820000D03*
X121370000Y-73020000D03*
X156390000Y-70480000D03*
X137335000Y-70985000D03*
X150490000Y-81520000D03*
X140330000Y-62400000D03*
X146770000Y-69240000D03*
X154987408Y-70730000D03*
X158150000Y-82600000D03*
X133920000Y-63640000D03*
X135630000Y-60040000D03*
X144090000Y-71050000D03*
X137310000Y-61120000D03*
X145470000Y-69880000D03*
X136980000Y-56010000D03*
X137000000Y-57300000D03*
X125760000Y-83340000D03*
X144790000Y-75080000D03*
X151880000Y-57730000D03*
X154420000Y-61920000D03*
X152790000Y-63880000D03*
X143460000Y-73780000D03*
X153680000Y-54840000D03*
X132830000Y-76540000D03*
X136780000Y-63660000D03*
X143270000Y-71790000D03*
D23*
X147870000Y-81520000D02*
X150490000Y-81520000D01*
X137335000Y-70985000D02*
X147870000Y-81520000D01*
X144690000Y-76880000D02*
X145550000Y-76880000D01*
X154970000Y-70747408D02*
X154970000Y-76880000D01*
X154970000Y-76880000D02*
X144690000Y-76880000D01*
D24*
X151510000Y-50280000D02*
X152030000Y-49760000D01*
X151510000Y-52360000D02*
X151510000Y-50280000D01*
X149340000Y-49830000D02*
X149260000Y-49750000D01*
X149340000Y-52370000D02*
X149340000Y-49830000D01*
X154250000Y-59760000D02*
X159670000Y-59760000D01*
X159670000Y-59760000D02*
X160830000Y-60920000D01*
X161280000Y-59910000D02*
X160520000Y-59150000D01*
X160520000Y-59150000D02*
X160520000Y-57390000D01*
X154320000Y-57390000D02*
X154250000Y-57460000D01*
X160520000Y-57390000D02*
X154320000Y-57390000D01*
D23*
X154320000Y-61920000D02*
X154420000Y-61920000D01*
X152950000Y-60550000D02*
X154320000Y-61920000D01*
X152950000Y-55570000D02*
X152950000Y-60550000D01*
X153680000Y-54840000D02*
X152950000Y-55570000D01*
D24*
X127450000Y-100490000D02*
X127620000Y-100660000D01*
X127450000Y-97740000D02*
X127450000Y-100490000D01*
X125670000Y-100430000D02*
X125970000Y-100730000D01*
X125670000Y-97830000D02*
X125670000Y-100430000D01*
X132840000Y-108820000D02*
X131870000Y-107850000D01*
X132840000Y-110740000D02*
X132840000Y-108820000D01*
X118050000Y-111510000D02*
X117590000Y-111050000D01*
X121140000Y-111510000D02*
X118050000Y-111510000D01*
X117930000Y-113180000D02*
X120970000Y-113180000D01*
X120970000Y-113180000D02*
X121330000Y-113540000D01*
D23*
X181220000Y-79250000D02*
X181220000Y-104217500D01*
X162920000Y-60950000D02*
X181220000Y-79250000D01*
X161790000Y-53240000D02*
X162920000Y-54370000D01*
X181220000Y-104217500D02*
X183582500Y-106580000D01*
X141280000Y-56010000D02*
X144050000Y-53240000D01*
X144050000Y-53240000D02*
X161790000Y-53240000D01*
X136980000Y-56010000D02*
X141280000Y-56010000D01*
X162920000Y-54370000D02*
X162920000Y-60950000D01*
X180690000Y-106227500D02*
X183582500Y-109120000D01*
X180690000Y-79630000D02*
X180690000Y-106227500D01*
X162250000Y-54820000D02*
X162250000Y-61190000D01*
X161330000Y-53900000D02*
X162250000Y-54820000D01*
X140970000Y-57290000D02*
X144360000Y-53900000D01*
X137010000Y-57290000D02*
X140970000Y-57290000D01*
X144360000Y-53900000D02*
X161330000Y-53900000D01*
X137000000Y-57300000D02*
X137010000Y-57290000D01*
X162250000Y-61190000D02*
X180690000Y-79630000D01*
D24*
X179650000Y-82610000D02*
X178240000Y-84020000D01*
X179650000Y-80430000D02*
X179650000Y-82610000D01*
X177040000Y-82680000D02*
X178550000Y-81170000D01*
X178550000Y-81170000D02*
X178550000Y-79620000D01*
D23*
X173010000Y-80790000D02*
X172960000Y-80740000D01*
X176150000Y-94420000D02*
X176150000Y-82220000D01*
X176150000Y-82220000D02*
X174720000Y-80790000D01*
X161220000Y-92190000D02*
X164450000Y-95420000D01*
X144090000Y-92190000D02*
X161220000Y-92190000D01*
X135240000Y-83340000D02*
X144090000Y-92190000D01*
X174720000Y-80790000D02*
X173010000Y-80790000D01*
X125760000Y-83340000D02*
X135240000Y-83340000D01*
X164450000Y-95420000D02*
X175150000Y-95420000D01*
X175150000Y-95420000D02*
X176150000Y-94420000D01*
D24*
X159300000Y-66410000D02*
X158160000Y-66410000D01*
X160400000Y-65310000D02*
X159300000Y-66410000D01*
X161940000Y-65310000D02*
X160400000Y-65310000D01*
X162840000Y-66210000D02*
X161940000Y-65310000D01*
X162840000Y-66320000D02*
X162840000Y-66210000D01*
D23*
X161490000Y-70400000D02*
X161490000Y-67180000D01*
X161545000Y-70455000D02*
X161490000Y-70400000D01*
D24*
X160340000Y-68590000D02*
X160340000Y-68760000D01*
X158160000Y-66410000D02*
X160340000Y-68590000D01*
X164160000Y-69840000D02*
X164160000Y-69320000D01*
X162770000Y-71230000D02*
X164160000Y-69840000D01*
X160260000Y-72850000D02*
X160440000Y-72850000D01*
X158110000Y-70520000D02*
X158110000Y-70700000D01*
X158110000Y-70700000D02*
X160260000Y-72850000D01*
D23*
X158020000Y-70520000D02*
X158110000Y-70520000D01*
D25*
X177890000Y-54320000D02*
X179840000Y-52370000D01*
X174295000Y-54320000D02*
X177890000Y-54320000D01*
D23*
X170440000Y-85820000D02*
X172960000Y-85820000D01*
X169270000Y-84650000D02*
X170440000Y-85820000D01*
X172810000Y-83130000D02*
X172960000Y-83280000D01*
X170060000Y-82240000D02*
X170950000Y-83130000D01*
X170950000Y-83130000D02*
X172810000Y-83130000D01*
X170060000Y-80100000D02*
X170060000Y-82240000D01*
X151880000Y-57730000D02*
X151880000Y-61920000D01*
X151880000Y-61920000D02*
X170060000Y-80100000D01*
X152970000Y-63880000D02*
X152790000Y-63880000D01*
X169270000Y-80180000D02*
X152970000Y-63880000D01*
X169270000Y-84650000D02*
X169270000Y-80180000D01*
X172910000Y-90950000D02*
X172960000Y-90900000D01*
X134150000Y-80890000D02*
X144210000Y-90950000D01*
X132830000Y-76540000D02*
X134150000Y-77860000D01*
X134150000Y-77860000D02*
X134150000Y-80890000D01*
X144210000Y-90950000D02*
X172910000Y-90950000D01*
D26*
X163420000Y-129100000D02*
X163420000Y-129180000D01*
X139880000Y-105560000D02*
X163420000Y-129100000D01*
X139880000Y-95220000D02*
X139880000Y-105560000D01*
X158340000Y-128850000D02*
X158340000Y-129180000D01*
X137750000Y-108260000D02*
X158340000Y-128850000D01*
X137750000Y-95180000D02*
X137750000Y-108260000D01*
X134690000Y-96000000D02*
X134690000Y-129180000D01*
X135460000Y-95230000D02*
X134690000Y-96000000D01*
X129610000Y-98410000D02*
X129610000Y-129180000D01*
X132760000Y-95260000D02*
X129610000Y-98410000D01*
X135460000Y-129950000D02*
X134690000Y-129180000D01*
D27*
X172300000Y-134560000D02*
X172290000Y-134570000D01*
X174970000Y-134560000D02*
X172300000Y-134560000D01*
X176170000Y-133360000D02*
X174970000Y-134560000D01*
X176170000Y-128500000D02*
X176170000Y-133360000D01*
X160220000Y-112550000D02*
X176170000Y-128500000D01*
X159350000Y-112550000D02*
X160220000Y-112550000D01*
D23*
X152930000Y-64020000D02*
X152790000Y-63880000D01*
X121330000Y-91870000D02*
X118850000Y-91870000D01*
X128560000Y-84460000D02*
X128560000Y-84640000D01*
X128560000Y-84640000D02*
X121330000Y-91870000D01*
X117590000Y-91360000D02*
X117590000Y-91890000D01*
X125610000Y-83340000D02*
X117590000Y-91360000D01*
X125760000Y-83340000D02*
X125610000Y-83340000D01*
D26*
X157640000Y-93680000D02*
X157250000Y-93680000D01*
D25*
X168030000Y-57180000D02*
X168030000Y-54310000D01*
D26*
X163660000Y-52350000D02*
X164100000Y-52790000D01*
X154680000Y-97790000D02*
X157187057Y-95282943D01*
D24*
X148760000Y-60180000D02*
X148660000Y-60080000D01*
D26*
X152850000Y-93410000D02*
X156100000Y-93410000D01*
D25*
X167830000Y-57380000D02*
X168030000Y-57180000D01*
D24*
X152140000Y-70560000D02*
X152140000Y-69220000D01*
D28*
X148760000Y-62430000D02*
X148760000Y-60180000D01*
D24*
X153450000Y-71610000D02*
X153450000Y-70020000D01*
D26*
X150380000Y-85630000D02*
X150380000Y-88940000D01*
D25*
X168030000Y-54310000D02*
X168050000Y-54290000D01*
D28*
X146330000Y-61230000D02*
X145190000Y-60090000D01*
D26*
X157250000Y-93680000D02*
X154330000Y-96600000D01*
D24*
X152170000Y-72880000D02*
X152180000Y-72880000D01*
X153130000Y-65420000D02*
X153130000Y-68230000D01*
D26*
X152820000Y-93380000D02*
X152850000Y-93410000D01*
D24*
X162840000Y-66320000D02*
X163780000Y-65380000D01*
X163780000Y-65380000D02*
X163780000Y-63960000D01*
D26*
X163660000Y-50110000D02*
X163660000Y-52350000D01*
D24*
X153130000Y-68230000D02*
X152140000Y-69220000D01*
D28*
X146330000Y-62710000D02*
X146330000Y-61230000D01*
D24*
X151100000Y-71600000D02*
X152140000Y-70560000D01*
D23*
X148660000Y-60080000D02*
X148770000Y-59970000D01*
D24*
X152180000Y-72880000D02*
X153450000Y-71610000D01*
D26*
X154330000Y-96600000D02*
X153510000Y-96600000D01*
X157187057Y-95282943D02*
X157644497Y-95282943D01*
D28*
X156450000Y-99190000D02*
X159540000Y-96100000D01*
X156450000Y-99220000D02*
X156450000Y-99190000D01*
D26*
X148710000Y-87510000D02*
X148920000Y-87720000D01*
X148710000Y-84140000D02*
X148710000Y-87510000D01*
X149720000Y-83130000D02*
X148710000Y-84140000D01*
D23*
X137180000Y-52820000D02*
X136560000Y-52820000D01*
X124980000Y-64400000D02*
X121640000Y-64400000D01*
X136560000Y-52820000D02*
X124980000Y-64400000D01*
X122030000Y-73730000D02*
X121330000Y-73030000D01*
X161040000Y-84230000D02*
X157730000Y-84230000D01*
X139290000Y-73730000D02*
X122030000Y-73730000D01*
X157730000Y-84230000D02*
X155760000Y-82260000D01*
X161450000Y-75540000D02*
X161450000Y-83820000D01*
X156390000Y-70480000D02*
X161450000Y-75540000D01*
X161450000Y-83820000D02*
X161040000Y-84230000D01*
X147820000Y-82260000D02*
X139290000Y-73730000D01*
X155760000Y-82260000D02*
X147820000Y-82260000D01*
X146770000Y-68840000D02*
X146770000Y-69240000D01*
X140330000Y-62400000D02*
X146770000Y-68840000D01*
X158150000Y-82600000D02*
X158150000Y-82120000D01*
X154970000Y-78940000D02*
X154970000Y-70747408D01*
X137340000Y-69770000D02*
X137340000Y-67060000D01*
X144450000Y-76880000D02*
X137340000Y-69770000D01*
X158150000Y-82120000D02*
X154970000Y-78940000D01*
X154970000Y-70747408D02*
X154987408Y-70730000D01*
X137340000Y-67060000D02*
X133920000Y-63640000D01*
X144690000Y-76880000D02*
X144450000Y-76880000D01*
X135630000Y-60040000D02*
X135630000Y-61290000D01*
X144090000Y-69750000D02*
X144090000Y-71050000D01*
X135630000Y-61290000D02*
X144090000Y-69750000D01*
X145470000Y-69880000D02*
X137310000Y-61720000D01*
X137310000Y-61720000D02*
X137310000Y-61120000D01*
X151880000Y-67900000D02*
X151880000Y-57730000D01*
X144790000Y-75080000D02*
X144790000Y-74990000D01*
X144790000Y-74990000D02*
X151880000Y-67900000D01*
X150230000Y-67060000D02*
X150230000Y-57380000D01*
X143460000Y-73780000D02*
X143510000Y-73780000D01*
X150230000Y-57380000D02*
X152770000Y-54840000D01*
X143510000Y-73780000D02*
X150230000Y-67060000D01*
X152770000Y-54840000D02*
X153680000Y-54840000D01*
X154420000Y-61920000D02*
X154420000Y-62020000D01*
X154420000Y-62020000D02*
X154420000Y-62020000D01*
X143270000Y-70900000D02*
X143270000Y-71790000D01*
X136780000Y-63660000D02*
X136780000Y-64410000D01*
X136780000Y-64410000D02*
X143270000Y-70900000D01*
G04 #@! TA.AperFunction,Conductor*
G36*
X148511779Y-48785390D02*
G01*
X148578807Y-48805100D01*
X148624541Y-48857921D01*
X148634458Y-48927084D01*
X148605408Y-48990628D01*
X148590393Y-49005241D01*
X148549117Y-49039115D01*
X148424090Y-49191460D01*
X148424086Y-49191467D01*
X148331188Y-49365266D01*
X148273975Y-49553870D01*
X148254659Y-49750000D01*
X148273975Y-49946129D01*
X148277009Y-49956132D01*
X148324160Y-50111567D01*
X148331187Y-50134730D01*
X148359394Y-50187501D01*
X148424090Y-50308538D01*
X148458484Y-50350447D01*
X148461353Y-50353942D01*
X148488666Y-50418252D01*
X148489500Y-50432607D01*
X148489500Y-51807697D01*
X148474858Y-51866150D01*
X148411188Y-51985267D01*
X148353975Y-52173870D01*
X148334659Y-52369999D01*
X148345330Y-52478346D01*
X148332311Y-52546992D01*
X148284246Y-52597702D01*
X148221927Y-52614500D01*
X144132743Y-52614500D01*
X144117122Y-52612775D01*
X144117095Y-52613061D01*
X144109333Y-52612326D01*
X144040172Y-52614500D01*
X144010649Y-52614500D01*
X144003778Y-52615367D01*
X143997959Y-52615825D01*
X143951374Y-52617289D01*
X143951368Y-52617290D01*
X143932126Y-52622880D01*
X143913087Y-52626823D01*
X143893217Y-52629334D01*
X143893203Y-52629337D01*
X143849883Y-52646488D01*
X143844358Y-52648380D01*
X143799613Y-52661380D01*
X143799610Y-52661381D01*
X143782366Y-52671579D01*
X143764905Y-52680133D01*
X143746274Y-52687510D01*
X143746262Y-52687517D01*
X143708570Y-52714902D01*
X143703687Y-52718109D01*
X143663580Y-52741829D01*
X143649414Y-52755995D01*
X143634624Y-52768627D01*
X143618414Y-52780404D01*
X143618411Y-52780407D01*
X143588710Y-52816309D01*
X143584777Y-52820631D01*
X141057228Y-55348181D01*
X140995905Y-55381666D01*
X140969547Y-55384500D01*
X137683748Y-55384500D01*
X137616709Y-55364815D01*
X137591600Y-55343474D01*
X137585873Y-55337114D01*
X137585869Y-55337110D01*
X137432734Y-55225851D01*
X137432729Y-55225848D01*
X137259807Y-55148857D01*
X137259802Y-55148855D01*
X137106379Y-55116245D01*
X137074646Y-55109500D01*
X136885354Y-55109500D01*
X136853621Y-55116245D01*
X136700197Y-55148855D01*
X136700192Y-55148857D01*
X136527270Y-55225848D01*
X136527265Y-55225851D01*
X136374129Y-55337111D01*
X136247466Y-55477785D01*
X136152821Y-55641715D01*
X136152818Y-55641722D01*
X136103740Y-55792771D01*
X136094326Y-55821744D01*
X136074540Y-56010000D01*
X136094326Y-56198256D01*
X136094327Y-56198259D01*
X136152818Y-56378277D01*
X136152821Y-56378284D01*
X136247467Y-56542216D01*
X136268316Y-56565372D01*
X136284310Y-56583135D01*
X136314539Y-56646127D01*
X136305913Y-56715462D01*
X136284311Y-56749076D01*
X136267466Y-56767785D01*
X136172821Y-56931715D01*
X136172818Y-56931722D01*
X136116675Y-57104514D01*
X136114326Y-57111744D01*
X136094540Y-57300000D01*
X136114326Y-57488256D01*
X136114327Y-57488259D01*
X136172818Y-57668277D01*
X136172821Y-57668284D01*
X136267467Y-57832216D01*
X136394128Y-57972887D01*
X136394129Y-57972888D01*
X136547265Y-58084148D01*
X136547270Y-58084151D01*
X136720192Y-58161142D01*
X136720197Y-58161144D01*
X136905354Y-58200500D01*
X136905355Y-58200500D01*
X137094644Y-58200500D01*
X137094646Y-58200500D01*
X137279803Y-58161144D01*
X137452730Y-58084151D01*
X137605871Y-57972888D01*
X137620603Y-57956527D01*
X137680090Y-57919879D01*
X137712752Y-57915500D01*
X140887257Y-57915500D01*
X140902877Y-57917224D01*
X140902904Y-57916939D01*
X140910660Y-57917671D01*
X140910667Y-57917673D01*
X140979814Y-57915500D01*
X141009350Y-57915500D01*
X141016228Y-57914630D01*
X141022041Y-57914172D01*
X141068627Y-57912709D01*
X141087869Y-57907117D01*
X141106912Y-57903174D01*
X141126792Y-57900664D01*
X141170122Y-57883507D01*
X141175646Y-57881617D01*
X141179396Y-57880527D01*
X141220390Y-57868618D01*
X141237629Y-57858422D01*
X141255103Y-57849862D01*
X141273727Y-57842488D01*
X141273727Y-57842487D01*
X141273732Y-57842486D01*
X141311449Y-57815082D01*
X141316305Y-57811892D01*
X141356420Y-57788170D01*
X141370589Y-57773999D01*
X141385379Y-57761368D01*
X141401587Y-57749594D01*
X141431299Y-57713676D01*
X141435212Y-57709376D01*
X144582772Y-54561819D01*
X144644095Y-54528334D01*
X144670453Y-54525500D01*
X145893952Y-54525500D01*
X145960991Y-54545185D01*
X146006746Y-54597989D01*
X146016690Y-54667147D01*
X145987665Y-54730703D01*
X145934907Y-54766542D01*
X145862976Y-54791711D01*
X145710237Y-54887684D01*
X145582684Y-55015237D01*
X145486710Y-55167978D01*
X145427130Y-55338250D01*
X145422366Y-55380532D01*
X145395298Y-55444945D01*
X145337702Y-55484499D01*
X145313032Y-55489866D01*
X145270750Y-55494630D01*
X145100478Y-55554210D01*
X144947737Y-55650184D01*
X144820184Y-55777737D01*
X144724211Y-55930476D01*
X144664631Y-56100745D01*
X144664630Y-56100750D01*
X144644435Y-56279996D01*
X144644435Y-56280003D01*
X144664630Y-56459249D01*
X144664631Y-56459254D01*
X144724211Y-56629523D01*
X144820184Y-56782262D01*
X144947739Y-56909817D01*
X144991807Y-56937507D01*
X145038097Y-56989842D01*
X145048745Y-57058895D01*
X145020370Y-57122743D01*
X144991807Y-57147493D01*
X144947739Y-57175182D01*
X144820184Y-57302737D01*
X144724211Y-57455476D01*
X144664631Y-57625745D01*
X144664630Y-57625750D01*
X144644435Y-57804996D01*
X144644435Y-57805003D01*
X144664630Y-57984249D01*
X144664631Y-57984254D01*
X144724211Y-58154523D01*
X144803368Y-58280500D01*
X144820184Y-58307262D01*
X144947738Y-58434816D01*
X145100478Y-58530789D01*
X145270745Y-58590368D01*
X145313030Y-58595132D01*
X145377442Y-58622197D01*
X145416998Y-58679791D01*
X145422366Y-58704467D01*
X145427130Y-58746749D01*
X145427131Y-58746754D01*
X145427132Y-58746755D01*
X145429089Y-58752348D01*
X145486712Y-58917027D01*
X145489731Y-58923295D01*
X145487314Y-58924458D01*
X145502996Y-58979917D01*
X145482639Y-59046756D01*
X145429379Y-59091979D01*
X145366849Y-59102076D01*
X145190001Y-59084659D01*
X145190000Y-59084659D01*
X144993870Y-59103975D01*
X144805266Y-59161188D01*
X144631467Y-59254086D01*
X144631460Y-59254090D01*
X144479116Y-59379116D01*
X144354090Y-59531460D01*
X144354086Y-59531467D01*
X144261188Y-59705266D01*
X144203975Y-59893870D01*
X144184659Y-60090000D01*
X144203975Y-60286129D01*
X144203976Y-60286132D01*
X144258120Y-60464621D01*
X144261188Y-60474733D01*
X144354086Y-60648532D01*
X144354090Y-60648539D01*
X144479116Y-60800883D01*
X144631460Y-60925909D01*
X144631467Y-60925913D01*
X144805273Y-61018814D01*
X144833026Y-61027233D01*
X144884714Y-61058213D01*
X145393181Y-61566680D01*
X145426666Y-61628003D01*
X145429500Y-61654361D01*
X145429500Y-62241240D01*
X145414859Y-62299693D01*
X145401187Y-62325271D01*
X145343975Y-62513870D01*
X145324659Y-62710000D01*
X145343975Y-62906129D01*
X145401188Y-63094733D01*
X145494086Y-63268532D01*
X145494090Y-63268539D01*
X145619116Y-63420883D01*
X145771460Y-63545909D01*
X145771467Y-63545913D01*
X145945266Y-63638811D01*
X145945269Y-63638811D01*
X145945273Y-63638814D01*
X146133868Y-63696024D01*
X146330000Y-63715341D01*
X146526132Y-63696024D01*
X146714727Y-63638814D01*
X146757692Y-63615849D01*
X146888532Y-63545913D01*
X146888538Y-63545910D01*
X147040883Y-63420883D01*
X147165910Y-63268538D01*
X147243602Y-63123187D01*
X147258811Y-63094733D01*
X147258811Y-63094732D01*
X147258814Y-63094727D01*
X147316024Y-62906132D01*
X147335341Y-62710000D01*
X147316024Y-62513868D01*
X147258814Y-62325273D01*
X147245140Y-62299692D01*
X147230500Y-62241240D01*
X147230500Y-61310626D01*
X147232027Y-61291225D01*
X147232308Y-61289452D01*
X147234219Y-61277388D01*
X147230585Y-61208047D01*
X147230500Y-61204802D01*
X147230500Y-61182813D01*
X147230500Y-61182808D01*
X147228199Y-61160921D01*
X147227946Y-61157711D01*
X147224312Y-61088354D01*
X147224311Y-61088348D01*
X147220687Y-61074825D01*
X147217139Y-61055684D01*
X147215674Y-61041748D01*
X147215674Y-61041747D01*
X147215674Y-61041744D01*
X147194214Y-60975699D01*
X147193291Y-60972585D01*
X147175810Y-60907342D01*
X147175320Y-60905512D01*
X147168954Y-60893019D01*
X147161508Y-60875042D01*
X147157178Y-60861714D01*
X147157175Y-60861707D01*
X147133670Y-60820998D01*
X147122443Y-60801552D01*
X147120920Y-60798747D01*
X147089383Y-60736851D01*
X147089382Y-60736849D01*
X147080560Y-60725955D01*
X147069538Y-60709918D01*
X147062532Y-60697783D01*
X147062531Y-60697781D01*
X147016060Y-60646170D01*
X147013952Y-60643702D01*
X147010587Y-60639547D01*
X147000119Y-60626620D01*
X146984577Y-60611078D01*
X146982341Y-60608722D01*
X146935872Y-60557113D01*
X146935871Y-60557112D01*
X146924525Y-60548869D01*
X146909734Y-60536235D01*
X146158213Y-59784714D01*
X146127233Y-59733026D01*
X146118814Y-59705273D01*
X146035090Y-59548635D01*
X146020848Y-59480232D01*
X146045848Y-59414989D01*
X146102153Y-59373618D01*
X146158332Y-59366962D01*
X146212497Y-59373065D01*
X146212500Y-59373065D01*
X146212504Y-59373065D01*
X146391749Y-59352869D01*
X146391752Y-59352868D01*
X146391755Y-59352868D01*
X146562022Y-59293289D01*
X146714762Y-59197316D01*
X146842316Y-59069762D01*
X146870006Y-59025692D01*
X146922341Y-58979402D01*
X146991394Y-58968754D01*
X147055243Y-58997129D01*
X147079992Y-59025691D01*
X147107684Y-59069762D01*
X147235238Y-59197316D01*
X147387978Y-59293289D01*
X147466466Y-59320753D01*
X147558245Y-59352868D01*
X147558250Y-59352869D01*
X147737496Y-59373065D01*
X147744464Y-59373065D01*
X147744464Y-59375277D01*
X147802872Y-59385504D01*
X147854254Y-59432849D01*
X147871883Y-59500458D01*
X147857300Y-59555125D01*
X147841188Y-59585268D01*
X147783975Y-59773870D01*
X147764659Y-59970000D01*
X147783975Y-60166129D01*
X147783976Y-60166132D01*
X147841186Y-60354727D01*
X147841187Y-60354730D01*
X147841188Y-60354731D01*
X147844856Y-60361593D01*
X147859500Y-60420050D01*
X147859500Y-61961240D01*
X147844859Y-62019693D01*
X147831187Y-62045271D01*
X147773975Y-62233870D01*
X147754659Y-62430000D01*
X147773975Y-62626129D01*
X147831188Y-62814733D01*
X147924086Y-62988532D01*
X147924090Y-62988539D01*
X148049116Y-63140883D01*
X148201460Y-63265909D01*
X148201467Y-63265913D01*
X148375266Y-63358811D01*
X148375269Y-63358811D01*
X148375273Y-63358814D01*
X148563868Y-63416024D01*
X148760000Y-63435341D01*
X148956132Y-63416024D01*
X149144727Y-63358814D01*
X149318538Y-63265910D01*
X149341964Y-63246684D01*
X149401835Y-63197550D01*
X149466145Y-63170237D01*
X149535012Y-63182028D01*
X149586573Y-63229180D01*
X149604500Y-63293403D01*
X149604500Y-66749546D01*
X149584815Y-66816585D01*
X149568181Y-66837227D01*
X147687290Y-68718117D01*
X147625967Y-68751602D01*
X147556275Y-68746618D01*
X147508683Y-68710990D01*
X147506881Y-68712613D01*
X147477810Y-68680327D01*
X147375871Y-68567112D01*
X147332845Y-68535851D01*
X147326151Y-68530987D01*
X147298721Y-68503558D01*
X147298434Y-68503163D01*
X147295085Y-68498554D01*
X147291891Y-68493690D01*
X147268170Y-68453579D01*
X147268167Y-68453576D01*
X147268165Y-68453573D01*
X147254005Y-68439413D01*
X147241370Y-68424620D01*
X147229593Y-68408412D01*
X147193693Y-68378713D01*
X147189381Y-68374790D01*
X141268960Y-62454369D01*
X141235475Y-62393046D01*
X141233323Y-62379668D01*
X141215674Y-62211744D01*
X141157179Y-62031716D01*
X141062533Y-61867784D01*
X140935871Y-61727112D01*
X140935870Y-61727111D01*
X140782734Y-61615851D01*
X140782729Y-61615848D01*
X140609807Y-61538857D01*
X140609802Y-61538855D01*
X140464001Y-61507865D01*
X140424646Y-61499500D01*
X140235354Y-61499500D01*
X140202897Y-61506398D01*
X140050197Y-61538855D01*
X140050192Y-61538857D01*
X139877270Y-61615848D01*
X139877265Y-61615851D01*
X139724129Y-61727111D01*
X139597466Y-61867785D01*
X139502821Y-62031715D01*
X139502818Y-62031722D01*
X139444327Y-62211740D01*
X139444326Y-62211744D01*
X139424540Y-62400000D01*
X139444326Y-62588256D01*
X139444326Y-62588258D01*
X139444327Y-62588260D01*
X139468327Y-62662126D01*
X139470322Y-62731967D01*
X139434241Y-62791799D01*
X139371540Y-62822627D01*
X139302126Y-62814662D01*
X139262715Y-62788124D01*
X138140659Y-61666068D01*
X138107174Y-61604745D01*
X138112158Y-61535053D01*
X138120947Y-61516397D01*
X138137179Y-61488284D01*
X138195674Y-61308256D01*
X138215460Y-61120000D01*
X138195674Y-60931744D01*
X138137179Y-60751716D01*
X138042533Y-60587784D01*
X137915871Y-60447112D01*
X137915870Y-60447111D01*
X137762734Y-60335851D01*
X137762729Y-60335848D01*
X137589807Y-60258857D01*
X137589802Y-60258855D01*
X137444001Y-60227865D01*
X137404646Y-60219500D01*
X137215354Y-60219500D01*
X137182897Y-60226398D01*
X137030197Y-60258855D01*
X137030192Y-60258857D01*
X136857270Y-60335848D01*
X136857265Y-60335851D01*
X136704131Y-60447110D01*
X136688364Y-60464621D01*
X136628876Y-60501268D01*
X136559019Y-60499937D01*
X136500972Y-60461049D01*
X136473163Y-60396952D01*
X136478283Y-60343330D01*
X136515674Y-60228256D01*
X136535460Y-60040000D01*
X136515674Y-59851744D01*
X136457179Y-59671716D01*
X136362533Y-59507784D01*
X136235871Y-59367112D01*
X136235665Y-59366962D01*
X136082734Y-59255851D01*
X136082729Y-59255848D01*
X135909807Y-59178857D01*
X135909802Y-59178855D01*
X135764001Y-59147865D01*
X135724646Y-59139500D01*
X135535354Y-59139500D01*
X135502897Y-59146398D01*
X135350197Y-59178855D01*
X135350192Y-59178857D01*
X135177270Y-59255848D01*
X135177265Y-59255851D01*
X135024129Y-59367111D01*
X134897466Y-59507785D01*
X134802821Y-59671715D01*
X134802818Y-59671722D01*
X134744327Y-59851740D01*
X134744326Y-59851744D01*
X134724540Y-60040000D01*
X134744326Y-60228256D01*
X134744327Y-60228259D01*
X134802818Y-60408277D01*
X134802821Y-60408284D01*
X134897467Y-60572216D01*
X134932459Y-60611078D01*
X134972650Y-60655715D01*
X135002880Y-60718706D01*
X135004500Y-60738687D01*
X135004500Y-61207255D01*
X135002775Y-61222872D01*
X135003061Y-61222899D01*
X135002326Y-61230665D01*
X135004500Y-61299814D01*
X135004500Y-61329343D01*
X135004501Y-61329360D01*
X135005368Y-61336231D01*
X135005826Y-61342050D01*
X135007290Y-61388624D01*
X135007291Y-61388627D01*
X135012880Y-61407867D01*
X135016824Y-61426911D01*
X135019336Y-61446792D01*
X135036490Y-61490119D01*
X135038382Y-61495647D01*
X135050936Y-61538857D01*
X135051382Y-61540390D01*
X135058083Y-61551722D01*
X135061580Y-61557634D01*
X135070138Y-61575103D01*
X135077514Y-61593732D01*
X135104898Y-61631423D01*
X135108106Y-61636307D01*
X135131827Y-61676416D01*
X135131833Y-61676424D01*
X135145990Y-61690580D01*
X135158628Y-61705376D01*
X135170405Y-61721586D01*
X135170406Y-61721587D01*
X135206309Y-61751288D01*
X135210620Y-61755210D01*
X135727711Y-62272301D01*
X136226918Y-62771508D01*
X136260403Y-62832831D01*
X136255419Y-62902523D01*
X136213547Y-62958456D01*
X136212124Y-62959506D01*
X136174128Y-62987112D01*
X136047466Y-63127785D01*
X135952821Y-63291715D01*
X135952818Y-63291722D01*
X135900824Y-63451744D01*
X135894326Y-63471744D01*
X135874540Y-63660000D01*
X135894326Y-63848256D01*
X135894327Y-63848259D01*
X135952818Y-64028277D01*
X135952821Y-64028284D01*
X136047467Y-64192216D01*
X136078608Y-64226801D01*
X136120595Y-64273433D01*
X136150825Y-64336425D01*
X136152384Y-64352508D01*
X136154500Y-64419813D01*
X136154500Y-64449343D01*
X136154501Y-64449360D01*
X136155368Y-64456231D01*
X136155826Y-64462050D01*
X136157290Y-64508624D01*
X136157291Y-64508627D01*
X136162880Y-64527867D01*
X136166824Y-64546911D01*
X136169336Y-64566792D01*
X136178191Y-64589158D01*
X136186490Y-64610119D01*
X136188382Y-64615647D01*
X136196387Y-64643200D01*
X136201382Y-64660390D01*
X136201588Y-64660739D01*
X136211580Y-64677634D01*
X136220136Y-64695100D01*
X136227514Y-64713732D01*
X136229179Y-64716024D01*
X136229928Y-64718122D01*
X136231272Y-64720567D01*
X136230877Y-64720783D01*
X136252657Y-64781829D01*
X136236830Y-64849883D01*
X136186724Y-64898577D01*
X136118245Y-64912451D01*
X136053137Y-64887100D01*
X136041178Y-64876587D01*
X134858960Y-63694369D01*
X134825475Y-63633046D01*
X134823323Y-63619668D01*
X134805674Y-63451744D01*
X134747179Y-63271716D01*
X134652533Y-63107784D01*
X134525871Y-62967112D01*
X134525870Y-62967111D01*
X134372734Y-62855851D01*
X134372729Y-62855848D01*
X134199807Y-62778857D01*
X134199802Y-62778855D01*
X134054001Y-62747865D01*
X134014646Y-62739500D01*
X133825354Y-62739500D01*
X133792897Y-62746398D01*
X133640197Y-62778855D01*
X133640192Y-62778857D01*
X133467270Y-62855848D01*
X133467265Y-62855851D01*
X133314129Y-62967111D01*
X133187466Y-63107785D01*
X133092821Y-63271715D01*
X133092818Y-63271722D01*
X133034327Y-63451740D01*
X133034326Y-63451744D01*
X133014540Y-63640000D01*
X133034326Y-63828256D01*
X133034327Y-63828259D01*
X133092818Y-64008277D01*
X133092821Y-64008284D01*
X133187467Y-64172216D01*
X133312507Y-64311087D01*
X133314129Y-64312888D01*
X133467265Y-64424148D01*
X133467270Y-64424151D01*
X133640192Y-64501142D01*
X133640197Y-64501144D01*
X133825354Y-64540500D01*
X133884548Y-64540500D01*
X133951587Y-64560185D01*
X133972229Y-64576819D01*
X136678181Y-67282771D01*
X136711666Y-67344094D01*
X136714500Y-67370452D01*
X136714500Y-69687255D01*
X136712775Y-69702872D01*
X136713061Y-69702899D01*
X136712326Y-69710665D01*
X136714500Y-69779814D01*
X136714500Y-69809343D01*
X136714501Y-69809360D01*
X136715368Y-69816231D01*
X136715826Y-69822050D01*
X136717290Y-69868624D01*
X136717358Y-69868857D01*
X136722880Y-69887867D01*
X136726824Y-69906911D01*
X136729336Y-69926792D01*
X136740699Y-69955493D01*
X136746490Y-69970119D01*
X136748382Y-69975647D01*
X136761381Y-70020388D01*
X136771580Y-70037634D01*
X136780138Y-70055103D01*
X136787514Y-70073732D01*
X136807814Y-70101673D01*
X136831293Y-70167480D01*
X136815467Y-70235534D01*
X136780381Y-70274874D01*
X136729131Y-70312109D01*
X136729129Y-70312111D01*
X136602466Y-70452785D01*
X136507821Y-70616715D01*
X136507818Y-70616722D01*
X136455818Y-70776763D01*
X136449326Y-70796744D01*
X136429540Y-70985000D01*
X136449326Y-71173256D01*
X136449327Y-71173259D01*
X136507818Y-71353277D01*
X136507821Y-71353284D01*
X136602467Y-71517216D01*
X136678573Y-71601740D01*
X136729129Y-71657888D01*
X136882265Y-71769148D01*
X136882270Y-71769151D01*
X137055192Y-71846142D01*
X137055197Y-71846144D01*
X137240354Y-71885500D01*
X137299548Y-71885500D01*
X137366587Y-71905185D01*
X137387229Y-71921819D01*
X138358229Y-72892819D01*
X138391714Y-72954142D01*
X138386730Y-73023834D01*
X138344858Y-73079767D01*
X138279394Y-73104184D01*
X138270548Y-73104500D01*
X122395991Y-73104500D01*
X122328952Y-73084815D01*
X122283197Y-73032011D01*
X122272671Y-72993465D01*
X122255674Y-72831744D01*
X122197179Y-72651716D01*
X122102533Y-72487784D01*
X121975871Y-72347112D01*
X121975870Y-72347111D01*
X121822734Y-72235851D01*
X121822729Y-72235848D01*
X121649807Y-72158857D01*
X121649802Y-72158855D01*
X121504001Y-72127865D01*
X121464646Y-72119500D01*
X121275354Y-72119500D01*
X121242897Y-72126398D01*
X121090197Y-72158855D01*
X121090192Y-72158857D01*
X120917270Y-72235848D01*
X120917265Y-72235851D01*
X120764129Y-72347111D01*
X120637466Y-72487785D01*
X120542821Y-72651715D01*
X120542818Y-72651722D01*
X120501140Y-72779996D01*
X120484326Y-72831744D01*
X120464540Y-73020000D01*
X120484326Y-73208256D01*
X120484327Y-73208259D01*
X120542818Y-73388277D01*
X120542821Y-73388284D01*
X120637467Y-73552216D01*
X120711242Y-73634151D01*
X120764129Y-73692888D01*
X120917265Y-73804148D01*
X120917270Y-73804151D01*
X121090192Y-73881142D01*
X121090197Y-73881144D01*
X121275354Y-73920500D01*
X121284547Y-73920500D01*
X121351586Y-73940185D01*
X121372228Y-73956819D01*
X121529197Y-74113788D01*
X121539022Y-74126051D01*
X121539243Y-74125869D01*
X121544214Y-74131878D01*
X121561685Y-74148284D01*
X121594635Y-74179226D01*
X121615529Y-74200120D01*
X121621011Y-74204373D01*
X121625443Y-74208157D01*
X121659418Y-74240062D01*
X121676976Y-74249714D01*
X121693235Y-74260395D01*
X121709064Y-74272673D01*
X121751838Y-74291182D01*
X121757056Y-74293738D01*
X121797908Y-74316197D01*
X121817316Y-74321180D01*
X121835717Y-74327480D01*
X121854104Y-74335437D01*
X121897488Y-74342308D01*
X121900119Y-74342725D01*
X121905839Y-74343909D01*
X121950981Y-74355500D01*
X121971016Y-74355500D01*
X121990415Y-74357027D01*
X122010196Y-74360160D01*
X122050434Y-74356356D01*
X122056582Y-74355775D01*
X122062420Y-74355500D01*
X138979548Y-74355500D01*
X139046587Y-74375185D01*
X139067229Y-74391819D01*
X147319194Y-82643784D01*
X147329019Y-82656048D01*
X147329240Y-82655866D01*
X147334210Y-82661873D01*
X147334213Y-82661876D01*
X147334214Y-82661877D01*
X147384651Y-82709241D01*
X147405530Y-82730120D01*
X147411004Y-82734366D01*
X147415442Y-82738156D01*
X147449418Y-82770062D01*
X147449422Y-82770064D01*
X147466973Y-82779713D01*
X147483231Y-82790392D01*
X147499064Y-82802674D01*
X147510876Y-82807785D01*
X147541837Y-82821183D01*
X147547081Y-82823752D01*
X147587908Y-82846197D01*
X147607312Y-82851179D01*
X147625710Y-82857478D01*
X147644105Y-82865438D01*
X147690129Y-82872726D01*
X147695832Y-82873907D01*
X147740981Y-82885500D01*
X147761016Y-82885500D01*
X147780413Y-82887026D01*
X147800196Y-82890160D01*
X147846584Y-82885775D01*
X147852422Y-82885500D01*
X148601926Y-82885500D01*
X148668965Y-82905185D01*
X148714720Y-82957989D01*
X148725325Y-83021695D01*
X148725123Y-83023739D01*
X148698941Y-83088518D01*
X148689405Y-83099225D01*
X148224358Y-83564272D01*
X148210729Y-83576051D01*
X148191468Y-83590390D01*
X148157898Y-83630397D01*
X148154253Y-83634376D01*
X148148409Y-83640222D01*
X148128059Y-83665959D01*
X148078695Y-83724789D01*
X148074729Y-83730819D01*
X148074682Y-83730788D01*
X148070630Y-83737147D01*
X148070679Y-83737177D01*
X148066889Y-83743321D01*
X148034424Y-83812941D01*
X147999960Y-83881566D01*
X147997488Y-83888357D01*
X147997432Y-83888336D01*
X147994960Y-83895450D01*
X147995015Y-83895469D01*
X147992742Y-83902327D01*
X147984975Y-83939946D01*
X147977207Y-83977565D01*
X147964143Y-84032689D01*
X147959498Y-84052286D01*
X147958661Y-84059454D01*
X147958601Y-84059447D01*
X147957835Y-84066945D01*
X147957895Y-84066951D01*
X147957265Y-84074140D01*
X147959500Y-84150916D01*
X147959500Y-87421332D01*
X147954161Y-87457327D01*
X147933975Y-87523869D01*
X147914659Y-87720000D01*
X147933975Y-87916129D01*
X147991188Y-88104733D01*
X148084086Y-88278532D01*
X148084090Y-88278539D01*
X148209116Y-88430883D01*
X148361460Y-88555909D01*
X148361467Y-88555913D01*
X148535266Y-88648811D01*
X148535269Y-88648811D01*
X148535273Y-88648814D01*
X148723868Y-88706024D01*
X148920000Y-88725341D01*
X149116132Y-88706024D01*
X149228787Y-88671849D01*
X149298652Y-88671225D01*
X149357766Y-88708473D01*
X149387357Y-88771767D01*
X149388185Y-88802664D01*
X149374659Y-88939999D01*
X149393975Y-89136129D01*
X149451188Y-89324733D01*
X149544086Y-89498532D01*
X149544090Y-89498539D01*
X149669116Y-89650883D01*
X149821460Y-89775909D01*
X149821467Y-89775913D01*
X149995266Y-89868811D01*
X149995269Y-89868811D01*
X149995273Y-89868814D01*
X150183868Y-89926024D01*
X150380000Y-89945341D01*
X150576132Y-89926024D01*
X150764727Y-89868814D01*
X150778400Y-89861506D01*
X150938532Y-89775913D01*
X150938538Y-89775910D01*
X151090883Y-89650883D01*
X151215910Y-89498538D01*
X151308814Y-89324727D01*
X151366024Y-89136132D01*
X151385341Y-88940000D01*
X151366024Y-88743868D01*
X151308814Y-88555273D01*
X151308811Y-88555269D01*
X151308811Y-88555266D01*
X151215913Y-88381467D01*
X151215911Y-88381465D01*
X151215910Y-88381462D01*
X151198296Y-88359999D01*
X151158647Y-88311686D01*
X151131334Y-88247376D01*
X151130500Y-88233021D01*
X151130500Y-86164321D01*
X151147113Y-86102321D01*
X151207179Y-85998284D01*
X151265674Y-85818256D01*
X151285460Y-85630000D01*
X151265674Y-85441744D01*
X151207179Y-85261716D01*
X151112533Y-85097784D01*
X150985871Y-84957112D01*
X150974154Y-84948599D01*
X150832734Y-84845851D01*
X150832729Y-84845848D01*
X150659807Y-84768857D01*
X150659802Y-84768855D01*
X150514001Y-84737865D01*
X150474646Y-84729500D01*
X150285354Y-84729500D01*
X150252897Y-84736398D01*
X150100197Y-84768855D01*
X150100192Y-84768857D01*
X149927270Y-84845848D01*
X149927265Y-84845851D01*
X149774129Y-84957111D01*
X149676650Y-85065373D01*
X149617163Y-85102022D01*
X149547306Y-85100691D01*
X149489258Y-85061805D01*
X149461448Y-84997708D01*
X149460500Y-84982401D01*
X149460500Y-84502229D01*
X149480185Y-84435190D01*
X149496819Y-84414548D01*
X149605587Y-84305780D01*
X149750775Y-84160591D01*
X149812096Y-84127108D01*
X149826295Y-84124871D01*
X149916132Y-84116024D01*
X150104727Y-84058814D01*
X150117300Y-84052094D01*
X150256733Y-83977565D01*
X150278538Y-83965910D01*
X150430883Y-83840883D01*
X150555910Y-83688538D01*
X150642761Y-83526051D01*
X150648811Y-83514733D01*
X150648811Y-83514732D01*
X150648814Y-83514727D01*
X150706024Y-83326132D01*
X150725341Y-83130000D01*
X150714670Y-83021653D01*
X150727689Y-82953008D01*
X150775754Y-82902298D01*
X150838073Y-82885500D01*
X155449548Y-82885500D01*
X155516587Y-82905185D01*
X155537229Y-82921819D01*
X157229194Y-84613784D01*
X157239019Y-84626048D01*
X157239240Y-84625866D01*
X157244210Y-84631873D01*
X157244213Y-84631876D01*
X157244214Y-84631877D01*
X157294651Y-84679241D01*
X157315530Y-84700120D01*
X157321004Y-84704366D01*
X157325442Y-84708156D01*
X157359418Y-84740062D01*
X157376973Y-84749713D01*
X157393231Y-84760392D01*
X157409064Y-84772674D01*
X157429475Y-84781506D01*
X157451837Y-84791183D01*
X157457081Y-84793752D01*
X157497908Y-84816197D01*
X157517312Y-84821179D01*
X157535710Y-84827478D01*
X157554105Y-84835438D01*
X157600129Y-84842726D01*
X157605832Y-84843907D01*
X157650981Y-84855500D01*
X157671016Y-84855500D01*
X157690413Y-84857026D01*
X157710196Y-84860160D01*
X157756584Y-84855775D01*
X157762422Y-84855500D01*
X160957257Y-84855500D01*
X160972877Y-84857224D01*
X160972904Y-84856939D01*
X160980660Y-84857671D01*
X160980667Y-84857673D01*
X161049814Y-84855500D01*
X161079350Y-84855500D01*
X161086228Y-84854630D01*
X161092041Y-84854172D01*
X161138627Y-84852709D01*
X161157869Y-84847117D01*
X161176912Y-84843174D01*
X161196792Y-84840664D01*
X161240122Y-84823507D01*
X161245646Y-84821617D01*
X161249396Y-84820527D01*
X161290390Y-84808618D01*
X161307629Y-84798422D01*
X161325103Y-84789862D01*
X161343727Y-84782488D01*
X161343727Y-84782487D01*
X161343732Y-84782486D01*
X161381449Y-84755082D01*
X161386305Y-84751892D01*
X161426420Y-84728170D01*
X161440589Y-84713999D01*
X161455379Y-84701368D01*
X161471587Y-84689594D01*
X161501299Y-84653676D01*
X161505212Y-84649376D01*
X161833786Y-84320802D01*
X161846048Y-84310980D01*
X161845865Y-84310759D01*
X161851867Y-84305792D01*
X161851877Y-84305786D01*
X161899241Y-84255348D01*
X161920120Y-84234470D01*
X161924373Y-84228986D01*
X161928150Y-84224563D01*
X161960062Y-84190582D01*
X161969714Y-84173023D01*
X161980389Y-84156772D01*
X161992674Y-84140936D01*
X162011186Y-84098152D01*
X162013742Y-84092935D01*
X162031383Y-84060848D01*
X162036194Y-84052098D01*
X162036194Y-84052097D01*
X162036197Y-84052092D01*
X162041180Y-84032680D01*
X162047477Y-84014291D01*
X162055438Y-83995895D01*
X162062729Y-83949853D01*
X162063908Y-83944162D01*
X162075500Y-83899019D01*
X162075500Y-83878983D01*
X162077027Y-83859582D01*
X162080160Y-83839804D01*
X162075775Y-83793415D01*
X162075500Y-83787577D01*
X162075500Y-75622742D01*
X162077224Y-75607122D01*
X162076939Y-75607095D01*
X162077673Y-75599333D01*
X162075500Y-75530172D01*
X162075500Y-75500656D01*
X162075500Y-75500650D01*
X162074631Y-75493779D01*
X162074173Y-75487952D01*
X162072710Y-75441373D01*
X162067119Y-75422130D01*
X162063173Y-75403078D01*
X162060664Y-75383208D01*
X162043504Y-75339867D01*
X162041624Y-75334379D01*
X162028618Y-75289610D01*
X162018422Y-75272370D01*
X162009861Y-75254894D01*
X162002487Y-75236270D01*
X162002486Y-75236268D01*
X161975079Y-75198545D01*
X161971888Y-75193686D01*
X161970615Y-75191534D01*
X161948170Y-75153580D01*
X161948168Y-75153578D01*
X161948165Y-75153574D01*
X161934006Y-75139415D01*
X161921368Y-75124619D01*
X161909594Y-75108413D01*
X161875248Y-75080000D01*
X161873688Y-75078709D01*
X161869376Y-75074786D01*
X160699258Y-73904668D01*
X160665773Y-73843345D01*
X160670757Y-73773653D01*
X160712629Y-73717720D01*
X160736491Y-73703713D01*
X160892730Y-73634151D01*
X161045871Y-73522888D01*
X161172533Y-73382216D01*
X161214227Y-73310000D01*
X161243668Y-73259007D01*
X161294235Y-73210791D01*
X161362842Y-73197568D01*
X161427707Y-73223536D01*
X161438736Y-73233326D01*
X168608181Y-80402771D01*
X168641666Y-80464094D01*
X168644500Y-80490452D01*
X168644500Y-84567255D01*
X168642775Y-84582872D01*
X168643061Y-84582899D01*
X168642327Y-84590665D01*
X168644500Y-84659804D01*
X168644500Y-84689343D01*
X168644501Y-84689360D01*
X168645368Y-84696231D01*
X168645826Y-84702050D01*
X168647290Y-84748624D01*
X168648105Y-84751431D01*
X168652880Y-84767867D01*
X168656824Y-84786911D01*
X168659336Y-84806792D01*
X168674799Y-84845848D01*
X168676490Y-84850119D01*
X168678382Y-84855647D01*
X168691381Y-84900388D01*
X168701580Y-84917634D01*
X168710138Y-84935103D01*
X168717514Y-84953732D01*
X168744898Y-84991423D01*
X168748106Y-84996307D01*
X168771827Y-85036416D01*
X168771833Y-85036424D01*
X168785990Y-85050580D01*
X168798628Y-85065376D01*
X168810405Y-85081586D01*
X168810406Y-85081587D01*
X168846309Y-85111288D01*
X168850620Y-85115210D01*
X169733686Y-85998277D01*
X169939197Y-86203788D01*
X169949022Y-86216051D01*
X169949243Y-86215869D01*
X169954214Y-86221878D01*
X169980217Y-86246295D01*
X170004635Y-86269226D01*
X170025529Y-86290120D01*
X170031011Y-86294373D01*
X170035443Y-86298157D01*
X170069418Y-86330062D01*
X170086976Y-86339714D01*
X170103233Y-86350393D01*
X170119064Y-86362673D01*
X170138737Y-86371186D01*
X170161833Y-86381182D01*
X170167077Y-86383750D01*
X170207908Y-86406197D01*
X170220523Y-86409435D01*
X170227305Y-86411177D01*
X170245719Y-86417481D01*
X170264104Y-86425438D01*
X170310157Y-86432732D01*
X170315826Y-86433906D01*
X170360981Y-86445500D01*
X170381016Y-86445500D01*
X170400413Y-86447026D01*
X170420196Y-86450160D01*
X170466584Y-86445775D01*
X170472422Y-86445500D01*
X171684773Y-86445500D01*
X171751812Y-86465185D01*
X171786348Y-86498377D01*
X171921501Y-86691396D01*
X171921506Y-86691402D01*
X172088597Y-86858493D01*
X172088603Y-86858498D01*
X172274158Y-86988425D01*
X172317783Y-87043002D01*
X172324977Y-87112500D01*
X172293454Y-87174855D01*
X172274158Y-87191575D01*
X172088597Y-87321505D01*
X171921505Y-87488597D01*
X171785965Y-87682169D01*
X171785964Y-87682171D01*
X171686098Y-87896335D01*
X171686094Y-87896344D01*
X171624938Y-88124586D01*
X171624936Y-88124596D01*
X171604341Y-88359999D01*
X171604341Y-88360000D01*
X171624936Y-88595403D01*
X171624938Y-88595413D01*
X171686094Y-88823655D01*
X171686096Y-88823659D01*
X171686097Y-88823663D01*
X171720507Y-88897455D01*
X171785965Y-89037830D01*
X171785967Y-89037834D01*
X171854797Y-89136132D01*
X171904500Y-89207116D01*
X171921501Y-89231395D01*
X171921506Y-89231402D01*
X172088597Y-89398493D01*
X172088603Y-89398498D01*
X172274158Y-89528425D01*
X172317783Y-89583002D01*
X172324977Y-89652500D01*
X172293454Y-89714855D01*
X172274158Y-89731575D01*
X172088597Y-89861505D01*
X171921505Y-90028597D01*
X171785967Y-90222166D01*
X171785963Y-90222174D01*
X171771634Y-90252904D01*
X171725462Y-90305344D01*
X171659252Y-90324500D01*
X144520453Y-90324500D01*
X144453414Y-90304815D01*
X144432772Y-90288181D01*
X134811819Y-80667228D01*
X134778334Y-80605905D01*
X134775500Y-80579547D01*
X134775500Y-77942742D01*
X134777224Y-77927122D01*
X134776939Y-77927096D01*
X134777671Y-77919340D01*
X134777673Y-77919333D01*
X134775500Y-77850185D01*
X134775500Y-77820650D01*
X134774631Y-77813772D01*
X134774172Y-77807943D01*
X134772709Y-77761372D01*
X134767122Y-77742144D01*
X134763174Y-77723084D01*
X134760664Y-77703208D01*
X134760663Y-77703206D01*
X134760663Y-77703204D01*
X134743512Y-77659887D01*
X134741619Y-77654358D01*
X134728618Y-77609609D01*
X134728616Y-77609606D01*
X134718423Y-77592371D01*
X134709861Y-77574894D01*
X134702487Y-77556270D01*
X134702486Y-77556268D01*
X134675079Y-77518545D01*
X134671888Y-77513686D01*
X134648172Y-77473583D01*
X134648165Y-77473574D01*
X134634006Y-77459415D01*
X134621368Y-77444619D01*
X134609594Y-77428413D01*
X134573688Y-77398709D01*
X134569376Y-77394786D01*
X133768960Y-76594369D01*
X133735475Y-76533046D01*
X133733323Y-76519668D01*
X133715674Y-76351744D01*
X133657179Y-76171716D01*
X133562533Y-76007784D01*
X133435871Y-75867112D01*
X133431796Y-75864151D01*
X133282734Y-75755851D01*
X133282729Y-75755848D01*
X133109807Y-75678857D01*
X133109802Y-75678855D01*
X132964001Y-75647865D01*
X132924646Y-75639500D01*
X132735354Y-75639500D01*
X132702897Y-75646398D01*
X132550197Y-75678855D01*
X132550192Y-75678857D01*
X132377270Y-75755848D01*
X132377265Y-75755851D01*
X132224129Y-75867111D01*
X132097466Y-76007785D01*
X132002821Y-76171715D01*
X132002818Y-76171722D01*
X131956699Y-76313663D01*
X131944326Y-76351744D01*
X131924540Y-76540000D01*
X131944326Y-76728256D01*
X131944327Y-76728259D01*
X132002818Y-76908277D01*
X132002821Y-76908284D01*
X132097467Y-77072216D01*
X132216896Y-77204855D01*
X132224129Y-77212888D01*
X132377265Y-77324148D01*
X132377270Y-77324151D01*
X132550192Y-77401142D01*
X132550197Y-77401144D01*
X132735354Y-77440500D01*
X132794548Y-77440500D01*
X132861587Y-77460185D01*
X132882229Y-77476819D01*
X133488181Y-78082771D01*
X133521666Y-78144094D01*
X133524500Y-78170452D01*
X133524500Y-80807255D01*
X133522775Y-80822872D01*
X133523061Y-80822899D01*
X133522326Y-80830665D01*
X133524500Y-80899814D01*
X133524500Y-80929343D01*
X133524501Y-80929360D01*
X133525368Y-80936231D01*
X133525826Y-80942050D01*
X133527290Y-80988624D01*
X133527291Y-80988627D01*
X133532880Y-81007867D01*
X133536824Y-81026911D01*
X133539336Y-81046791D01*
X133556490Y-81090119D01*
X133558382Y-81095647D01*
X133571382Y-81140390D01*
X133578083Y-81151722D01*
X133581580Y-81157634D01*
X133590138Y-81175103D01*
X133597514Y-81193732D01*
X133624898Y-81231423D01*
X133628106Y-81236307D01*
X133651827Y-81276416D01*
X133651833Y-81276424D01*
X133665990Y-81290580D01*
X133678628Y-81305376D01*
X133690405Y-81321586D01*
X133690406Y-81321587D01*
X133726309Y-81351288D01*
X133730620Y-81355210D01*
X134304957Y-81929547D01*
X134878229Y-82502819D01*
X134911714Y-82564142D01*
X134906730Y-82633834D01*
X134864858Y-82689767D01*
X134799394Y-82714184D01*
X134790548Y-82714500D01*
X126463748Y-82714500D01*
X126396709Y-82694815D01*
X126371600Y-82673474D01*
X126365873Y-82667114D01*
X126365869Y-82667110D01*
X126212734Y-82555851D01*
X126212729Y-82555848D01*
X126039807Y-82478857D01*
X126039802Y-82478855D01*
X125894001Y-82447865D01*
X125854646Y-82439500D01*
X125665354Y-82439500D01*
X125632897Y-82446398D01*
X125480197Y-82478855D01*
X125480192Y-82478857D01*
X125307270Y-82555848D01*
X125307265Y-82555851D01*
X125154129Y-82667111D01*
X125027466Y-82807785D01*
X124932821Y-82971715D01*
X124932818Y-82971722D01*
X124874325Y-83151745D01*
X124874293Y-83152054D01*
X124874224Y-83152220D01*
X124872975Y-83158099D01*
X124871898Y-83157870D01*
X124847698Y-83216664D01*
X124838655Y-83226753D01*
X117206208Y-90859199D01*
X117193951Y-90869020D01*
X117194134Y-90869241D01*
X117188123Y-90874213D01*
X117140772Y-90924636D01*
X117119889Y-90945519D01*
X117119877Y-90945532D01*
X117115621Y-90951017D01*
X117111837Y-90955447D01*
X117079937Y-90989418D01*
X117079936Y-90989420D01*
X117070284Y-91006976D01*
X117059610Y-91023226D01*
X117047329Y-91039061D01*
X117047324Y-91039068D01*
X117028815Y-91081838D01*
X117026245Y-91087084D01*
X117003803Y-91127906D01*
X116998822Y-91147307D01*
X116992521Y-91165710D01*
X116984560Y-91184106D01*
X116984559Y-91184111D01*
X116984053Y-91187306D01*
X116982963Y-91189603D01*
X116982384Y-91191598D01*
X116982062Y-91191504D01*
X116954118Y-91250438D01*
X116953733Y-91250867D01*
X116857468Y-91357782D01*
X116857464Y-91357787D01*
X116762821Y-91521715D01*
X116762818Y-91521722D01*
X116711411Y-91679938D01*
X116704326Y-91701744D01*
X116684540Y-91890000D01*
X116704326Y-92078256D01*
X116704327Y-92078259D01*
X116762818Y-92258277D01*
X116762821Y-92258284D01*
X116857467Y-92422216D01*
X116966118Y-92542885D01*
X116984129Y-92562888D01*
X117137265Y-92674148D01*
X117137270Y-92674151D01*
X117310192Y-92751142D01*
X117310197Y-92751144D01*
X117495354Y-92790500D01*
X117495355Y-92790500D01*
X117684644Y-92790500D01*
X117684646Y-92790500D01*
X117869803Y-92751144D01*
X118042730Y-92674151D01*
X118160881Y-92588309D01*
X118226683Y-92564831D01*
X118294737Y-92580656D01*
X118306648Y-92588311D01*
X118397265Y-92654148D01*
X118397270Y-92654151D01*
X118570192Y-92731142D01*
X118570197Y-92731144D01*
X118755354Y-92770500D01*
X118755355Y-92770500D01*
X118944644Y-92770500D01*
X118944646Y-92770500D01*
X119129803Y-92731144D01*
X119302730Y-92654151D01*
X119455871Y-92542888D01*
X119458788Y-92539647D01*
X119461600Y-92536526D01*
X119521087Y-92499879D01*
X119553748Y-92495500D01*
X121247257Y-92495500D01*
X121262877Y-92497224D01*
X121262904Y-92496939D01*
X121270660Y-92497671D01*
X121270667Y-92497673D01*
X121339814Y-92495500D01*
X121369350Y-92495500D01*
X121376228Y-92494630D01*
X121382041Y-92494172D01*
X121428627Y-92492709D01*
X121447869Y-92487117D01*
X121466912Y-92483174D01*
X121486792Y-92480664D01*
X121530122Y-92463507D01*
X121535646Y-92461617D01*
X121539396Y-92460527D01*
X121580390Y-92448618D01*
X121597629Y-92438422D01*
X121615103Y-92429862D01*
X121633727Y-92422488D01*
X121633727Y-92422487D01*
X121633732Y-92422486D01*
X121671449Y-92395082D01*
X121676305Y-92391892D01*
X121716420Y-92368170D01*
X121730589Y-92353999D01*
X121745379Y-92341368D01*
X121761587Y-92329594D01*
X121791299Y-92293676D01*
X121795212Y-92289376D01*
X128716864Y-85367725D01*
X128778185Y-85334242D01*
X128778536Y-85334165D01*
X128839803Y-85321144D01*
X129012730Y-85244151D01*
X129165871Y-85132888D01*
X129292533Y-84992216D01*
X129387179Y-84828284D01*
X129445674Y-84648256D01*
X129465460Y-84460000D01*
X129445674Y-84271744D01*
X129419303Y-84190582D01*
X129398910Y-84127818D01*
X129396915Y-84057977D01*
X129432996Y-83998144D01*
X129495697Y-83967316D01*
X129516841Y-83965500D01*
X134929548Y-83965500D01*
X134996587Y-83985185D01*
X135017228Y-84001818D01*
X139327095Y-88311686D01*
X143589197Y-92573788D01*
X143599022Y-92586051D01*
X143599243Y-92585869D01*
X143604214Y-92591878D01*
X143630217Y-92616295D01*
X143654635Y-92639226D01*
X143675529Y-92660120D01*
X143681011Y-92664373D01*
X143685443Y-92668157D01*
X143719418Y-92700062D01*
X143736976Y-92709714D01*
X143753233Y-92720393D01*
X143769064Y-92732673D01*
X143788737Y-92741186D01*
X143811833Y-92751182D01*
X143817077Y-92753750D01*
X143857908Y-92776197D01*
X143870523Y-92779435D01*
X143877305Y-92781177D01*
X143895719Y-92787481D01*
X143914104Y-92795438D01*
X143960157Y-92802732D01*
X143965826Y-92803906D01*
X144010981Y-92815500D01*
X144031016Y-92815500D01*
X144050413Y-92817026D01*
X144070196Y-92820160D01*
X144116584Y-92815775D01*
X144122422Y-92815500D01*
X151780395Y-92815500D01*
X151847434Y-92835185D01*
X151893189Y-92887989D01*
X151903133Y-92957147D01*
X151892602Y-92989261D01*
X151893518Y-92989641D01*
X151891190Y-92995260D01*
X151833975Y-93183870D01*
X151814659Y-93380000D01*
X151833975Y-93576129D01*
X151891188Y-93764733D01*
X151984086Y-93938532D01*
X151984090Y-93938539D01*
X152109116Y-94090883D01*
X152261460Y-94215909D01*
X152261467Y-94215913D01*
X152435266Y-94308811D01*
X152435269Y-94308811D01*
X152435273Y-94308814D01*
X152623868Y-94366024D01*
X152820000Y-94385341D01*
X153016132Y-94366024D01*
X153204727Y-94308814D01*
X153206348Y-94307948D01*
X153291632Y-94262362D01*
X153378538Y-94215910D01*
X153411758Y-94188647D01*
X153476067Y-94161334D01*
X153490423Y-94160500D01*
X155393022Y-94160500D01*
X155460061Y-94180185D01*
X155471684Y-94188645D01*
X155480282Y-94195701D01*
X155480335Y-94195744D01*
X155519670Y-94253490D01*
X155521541Y-94323335D01*
X155489352Y-94379279D01*
X154157030Y-95711601D01*
X154095707Y-95745086D01*
X154026015Y-95740102D01*
X154010897Y-95733279D01*
X153894731Y-95671188D01*
X153894730Y-95671187D01*
X153894727Y-95671186D01*
X153706132Y-95613976D01*
X153706129Y-95613975D01*
X153510000Y-95594659D01*
X153313870Y-95613975D01*
X153125266Y-95671188D01*
X152951467Y-95764086D01*
X152951460Y-95764090D01*
X152799116Y-95889116D01*
X152674090Y-96041460D01*
X152674086Y-96041467D01*
X152581188Y-96215266D01*
X152523975Y-96403870D01*
X152504659Y-96600000D01*
X152523975Y-96796129D01*
X152581188Y-96984733D01*
X152674086Y-97158532D01*
X152674090Y-97158539D01*
X152799116Y-97310883D01*
X152951460Y-97435909D01*
X152951467Y-97435913D01*
X153125266Y-97528811D01*
X153125269Y-97528811D01*
X153125273Y-97528814D01*
X153313868Y-97586024D01*
X153510000Y-97605341D01*
X153544270Y-97601965D01*
X153612914Y-97614983D01*
X153663625Y-97663047D01*
X153680301Y-97730898D01*
X153679827Y-97737521D01*
X153674659Y-97789998D01*
X153674659Y-97789999D01*
X153693975Y-97986129D01*
X153693976Y-97986132D01*
X153744160Y-98151567D01*
X153751188Y-98174733D01*
X153844086Y-98348532D01*
X153844090Y-98348539D01*
X153969116Y-98500883D01*
X154121460Y-98625909D01*
X154121467Y-98625913D01*
X154295266Y-98718811D01*
X154295269Y-98718811D01*
X154295273Y-98718814D01*
X154483868Y-98776024D01*
X154680000Y-98795341D01*
X154876132Y-98776024D01*
X155064727Y-98718814D01*
X155238538Y-98625910D01*
X155260490Y-98607893D01*
X155324798Y-98580581D01*
X155393665Y-98592371D01*
X155445227Y-98639522D01*
X155463111Y-98707064D01*
X155450156Y-98759017D01*
X155419423Y-98820738D01*
X155419417Y-98820752D01*
X155363602Y-99016917D01*
X155344785Y-99219999D01*
X155344785Y-99220000D01*
X155363602Y-99423082D01*
X155419417Y-99619247D01*
X155419422Y-99619260D01*
X155510327Y-99801821D01*
X155633237Y-99964581D01*
X155783958Y-100101980D01*
X155783960Y-100101982D01*
X155825629Y-100127782D01*
X155957363Y-100209348D01*
X156147544Y-100283024D01*
X156348024Y-100320500D01*
X156348026Y-100320500D01*
X156551974Y-100320500D01*
X156551976Y-100320500D01*
X156752456Y-100283024D01*
X156942637Y-100209348D01*
X157116041Y-100101981D01*
X157266764Y-99964579D01*
X157389673Y-99801821D01*
X157480582Y-99619250D01*
X157536397Y-99423083D01*
X157536961Y-99416990D01*
X157562742Y-99352055D01*
X157572743Y-99340754D01*
X159702177Y-97211321D01*
X159763498Y-97177838D01*
X159767025Y-97177124D01*
X159842456Y-97163024D01*
X160032637Y-97089348D01*
X160206041Y-96981981D01*
X160356764Y-96844579D01*
X160479673Y-96681821D01*
X160570582Y-96499250D01*
X160626397Y-96303083D01*
X160645215Y-96100000D01*
X160641174Y-96056395D01*
X160626397Y-95896917D01*
X160610022Y-95839365D01*
X160570582Y-95700750D01*
X160556735Y-95672942D01*
X160512839Y-95584786D01*
X160479673Y-95518179D01*
X160384621Y-95392310D01*
X160356762Y-95355418D01*
X160206041Y-95218019D01*
X160206039Y-95218017D01*
X160032642Y-95110655D01*
X160032635Y-95110651D01*
X159870112Y-95047690D01*
X159842456Y-95036976D01*
X159641976Y-94999500D01*
X159438024Y-94999500D01*
X159237544Y-95036976D01*
X159237541Y-95036976D01*
X159237541Y-95036977D01*
X159047364Y-95110651D01*
X159047357Y-95110655D01*
X158873960Y-95218017D01*
X158873958Y-95218019D01*
X158845142Y-95244288D01*
X158782337Y-95274905D01*
X158712950Y-95266706D01*
X158659011Y-95222295D01*
X158638202Y-95164803D01*
X158630521Y-95086814D01*
X158630521Y-95086811D01*
X158573311Y-94898216D01*
X158573308Y-94898212D01*
X158573308Y-94898209D01*
X158480410Y-94724410D01*
X158480406Y-94724403D01*
X158355378Y-94572057D01*
X158351073Y-94567752D01*
X158352878Y-94565946D01*
X158319820Y-94517404D01*
X158317955Y-94447559D01*
X158347590Y-94396061D01*
X158347019Y-94395592D01*
X158349836Y-94392158D01*
X158350149Y-94391616D01*
X158350871Y-94390892D01*
X158350883Y-94390883D01*
X158475910Y-94238538D01*
X158525532Y-94145701D01*
X158568811Y-94064733D01*
X158568811Y-94064732D01*
X158568814Y-94064727D01*
X158626024Y-93876132D01*
X158645341Y-93680000D01*
X158626024Y-93483868D01*
X158568814Y-93295273D01*
X158568811Y-93295269D01*
X158568811Y-93295266D01*
X158475913Y-93121467D01*
X158475909Y-93121460D01*
X158391136Y-93018165D01*
X158363823Y-92953855D01*
X158375614Y-92884988D01*
X158422766Y-92833427D01*
X158486989Y-92815500D01*
X160909548Y-92815500D01*
X160976587Y-92835185D01*
X160997228Y-92851818D01*
X162483356Y-94337947D01*
X163949197Y-95803788D01*
X163959022Y-95816051D01*
X163959243Y-95815869D01*
X163964214Y-95821878D01*
X163985043Y-95841437D01*
X164014635Y-95869226D01*
X164035529Y-95890120D01*
X164041011Y-95894373D01*
X164045443Y-95898157D01*
X164079418Y-95930062D01*
X164096976Y-95939714D01*
X164113233Y-95950393D01*
X164129064Y-95962673D01*
X164148737Y-95971186D01*
X164171833Y-95981182D01*
X164177077Y-95983750D01*
X164217908Y-96006197D01*
X164230523Y-96009435D01*
X164237305Y-96011177D01*
X164255719Y-96017481D01*
X164274104Y-96025438D01*
X164320157Y-96032732D01*
X164325826Y-96033906D01*
X164370981Y-96045500D01*
X164391016Y-96045500D01*
X164410413Y-96047026D01*
X164430196Y-96050160D01*
X164476584Y-96045775D01*
X164482422Y-96045500D01*
X175067257Y-96045500D01*
X175082877Y-96047224D01*
X175082904Y-96046939D01*
X175090660Y-96047671D01*
X175090667Y-96047673D01*
X175159814Y-96045500D01*
X175189350Y-96045500D01*
X175196228Y-96044630D01*
X175202041Y-96044172D01*
X175248627Y-96042709D01*
X175267869Y-96037117D01*
X175286912Y-96033174D01*
X175306792Y-96030664D01*
X175350122Y-96013507D01*
X175355646Y-96011617D01*
X175366698Y-96008406D01*
X175400390Y-95998618D01*
X175417629Y-95988422D01*
X175435103Y-95979862D01*
X175453727Y-95972488D01*
X175453727Y-95972487D01*
X175453732Y-95972486D01*
X175491449Y-95945082D01*
X175496305Y-95941892D01*
X175536420Y-95918170D01*
X175550589Y-95903999D01*
X175565379Y-95891368D01*
X175581587Y-95879594D01*
X175611299Y-95843676D01*
X175615212Y-95839376D01*
X176533786Y-94920802D01*
X176546048Y-94910980D01*
X176545865Y-94910759D01*
X176551867Y-94905792D01*
X176551877Y-94905786D01*
X176599241Y-94855348D01*
X176620120Y-94834470D01*
X176624373Y-94828986D01*
X176628150Y-94824563D01*
X176660062Y-94790582D01*
X176669714Y-94773023D01*
X176680389Y-94756772D01*
X176692674Y-94740936D01*
X176711186Y-94698152D01*
X176713742Y-94692935D01*
X176736197Y-94652092D01*
X176741180Y-94632680D01*
X176747477Y-94614291D01*
X176755438Y-94595895D01*
X176762729Y-94549853D01*
X176763908Y-94544162D01*
X176775500Y-94499019D01*
X176775500Y-94478983D01*
X176777027Y-94459582D01*
X176780160Y-94439804D01*
X176775775Y-94393415D01*
X176775500Y-94387577D01*
X176775500Y-83697523D01*
X176795185Y-83630484D01*
X176847989Y-83584729D01*
X176917147Y-83574785D01*
X176925261Y-83576229D01*
X176945354Y-83580500D01*
X176945356Y-83580500D01*
X177134644Y-83580500D01*
X177134646Y-83580500D01*
X177248234Y-83556356D01*
X177317900Y-83561672D01*
X177373634Y-83603809D01*
X177397739Y-83669389D01*
X177391945Y-83715964D01*
X177354327Y-83831740D01*
X177354326Y-83831744D01*
X177334540Y-84020000D01*
X177354326Y-84208256D01*
X177354327Y-84208259D01*
X177412818Y-84388277D01*
X177412821Y-84388284D01*
X177507467Y-84552216D01*
X177591879Y-84645965D01*
X177634129Y-84692888D01*
X177787265Y-84804148D01*
X177787270Y-84804151D01*
X177960192Y-84881142D01*
X177960197Y-84881144D01*
X178145354Y-84920500D01*
X178145355Y-84920500D01*
X178334644Y-84920500D01*
X178334646Y-84920500D01*
X178519803Y-84881144D01*
X178692730Y-84804151D01*
X178845871Y-84692888D01*
X178972533Y-84552216D01*
X179049013Y-84419747D01*
X179068710Y-84394077D01*
X179852820Y-83609968D01*
X179914142Y-83576484D01*
X179983834Y-83581468D01*
X180039767Y-83623340D01*
X180064184Y-83688804D01*
X180064500Y-83697650D01*
X180064500Y-106144755D01*
X180062775Y-106160372D01*
X180063061Y-106160399D01*
X180062326Y-106168165D01*
X180064500Y-106237314D01*
X180064500Y-106266843D01*
X180064501Y-106266860D01*
X180065368Y-106273731D01*
X180065826Y-106279550D01*
X180067290Y-106326124D01*
X180067291Y-106326127D01*
X180072880Y-106345367D01*
X180076824Y-106364411D01*
X180079336Y-106384291D01*
X180096490Y-106427619D01*
X180098382Y-106433147D01*
X180111381Y-106477888D01*
X180121580Y-106495134D01*
X180130138Y-106512603D01*
X180137514Y-106531232D01*
X180164898Y-106568923D01*
X180168106Y-106573807D01*
X180191827Y-106613916D01*
X180191833Y-106613924D01*
X180205990Y-106628080D01*
X180218628Y-106642876D01*
X180230405Y-106659086D01*
X180230406Y-106659087D01*
X180266309Y-106688788D01*
X180270620Y-106692710D01*
X181326335Y-107748425D01*
X182242262Y-108664352D01*
X182275747Y-108725675D01*
X182274356Y-108784126D01*
X182247438Y-108884586D01*
X182247436Y-108884596D01*
X182226841Y-109119999D01*
X182226841Y-109120000D01*
X182247436Y-109355403D01*
X182247438Y-109355413D01*
X182308594Y-109583655D01*
X182308596Y-109583659D01*
X182308597Y-109583663D01*
X182323908Y-109616497D01*
X182408465Y-109797830D01*
X182408467Y-109797834D01*
X182544001Y-109991395D01*
X182544006Y-109991402D01*
X182711097Y-110158493D01*
X182711103Y-110158498D01*
X182896658Y-110288425D01*
X182940283Y-110343002D01*
X182947477Y-110412500D01*
X182915954Y-110474855D01*
X182896658Y-110491575D01*
X182711097Y-110621505D01*
X182544005Y-110788597D01*
X182408465Y-110982169D01*
X182408464Y-110982171D01*
X182308598Y-111196335D01*
X182308594Y-111196344D01*
X182247438Y-111424586D01*
X182247436Y-111424596D01*
X182226841Y-111659999D01*
X182226841Y-111660000D01*
X182247436Y-111895403D01*
X182247438Y-111895413D01*
X182308594Y-112123655D01*
X182308596Y-112123659D01*
X182308597Y-112123663D01*
X182358575Y-112230841D01*
X182408465Y-112337830D01*
X182408467Y-112337834D01*
X182493420Y-112459158D01*
X182544005Y-112531401D01*
X182711099Y-112698495D01*
X182793009Y-112755849D01*
X182904665Y-112834032D01*
X182904667Y-112834033D01*
X182904670Y-112834035D01*
X183118837Y-112933903D01*
X183347092Y-112995063D01*
X183535418Y-113011539D01*
X183582499Y-113015659D01*
X183582500Y-113015659D01*
X183582501Y-113015659D01*
X183621734Y-113012226D01*
X183817908Y-112995063D01*
X184046163Y-112933903D01*
X184260330Y-112834035D01*
X184453901Y-112698495D01*
X184620995Y-112531401D01*
X184756535Y-112337830D01*
X184856403Y-112123663D01*
X184917563Y-111895408D01*
X184938159Y-111660000D01*
X184917563Y-111424592D01*
X184856403Y-111196337D01*
X184756535Y-110982171D01*
X184753464Y-110977784D01*
X184620994Y-110788597D01*
X184453902Y-110621506D01*
X184453896Y-110621501D01*
X184268342Y-110491575D01*
X184224717Y-110436998D01*
X184217523Y-110367500D01*
X184249046Y-110305145D01*
X184268342Y-110288425D01*
X184300585Y-110265848D01*
X184453901Y-110158495D01*
X184620995Y-109991401D01*
X184756535Y-109797830D01*
X184856403Y-109583663D01*
X184917563Y-109355408D01*
X184938159Y-109120000D01*
X184917563Y-108884592D01*
X184856403Y-108656337D01*
X184756535Y-108442171D01*
X184750993Y-108434255D01*
X184620994Y-108248597D01*
X184453902Y-108081506D01*
X184453896Y-108081501D01*
X184268342Y-107951575D01*
X184224717Y-107896998D01*
X184217523Y-107827500D01*
X184249046Y-107765145D01*
X184268342Y-107748425D01*
X184392135Y-107661744D01*
X184453901Y-107618495D01*
X184620995Y-107451401D01*
X184756535Y-107257830D01*
X184856403Y-107043663D01*
X184917563Y-106815408D01*
X184938159Y-106580000D01*
X184937397Y-106571296D01*
X184921036Y-106384291D01*
X184917563Y-106344592D01*
X184867686Y-106158445D01*
X184856405Y-106116344D01*
X184856404Y-106116343D01*
X184856403Y-106116337D01*
X184756535Y-105902171D01*
X184749877Y-105892663D01*
X184620996Y-105708600D01*
X184620995Y-105708599D01*
X184499067Y-105586671D01*
X184465584Y-105525351D01*
X184470568Y-105455659D01*
X184512439Y-105399725D01*
X184543415Y-105382810D01*
X184674831Y-105333796D01*
X184790046Y-105247546D01*
X184876296Y-105132331D01*
X184926591Y-104997483D01*
X184933000Y-104937873D01*
X184932999Y-103142128D01*
X184926591Y-103082517D01*
X184876296Y-102947669D01*
X184876295Y-102947668D01*
X184876293Y-102947664D01*
X184790047Y-102832455D01*
X184790044Y-102832452D01*
X184674835Y-102746206D01*
X184674828Y-102746202D01*
X184539982Y-102695908D01*
X184539983Y-102695908D01*
X184480383Y-102689501D01*
X184480381Y-102689500D01*
X184480373Y-102689500D01*
X184480364Y-102689500D01*
X182684629Y-102689500D01*
X182684623Y-102689501D01*
X182625016Y-102695908D01*
X182490171Y-102746202D01*
X182490164Y-102746206D01*
X182374955Y-102832452D01*
X182374952Y-102832455D01*
X182288706Y-102947664D01*
X182288702Y-102947671D01*
X182238408Y-103082517D01*
X182232001Y-103142116D01*
X182232001Y-103142123D01*
X182232000Y-103142135D01*
X182232000Y-104045547D01*
X182212315Y-104112586D01*
X182159511Y-104158341D01*
X182090353Y-104168285D01*
X182026797Y-104139260D01*
X182020319Y-104133228D01*
X181881819Y-103994728D01*
X181848334Y-103933405D01*
X181845500Y-103907047D01*
X181845500Y-95185000D01*
X182226841Y-95185000D01*
X182247436Y-95420403D01*
X182247438Y-95420413D01*
X182308594Y-95648655D01*
X182308596Y-95648659D01*
X182308597Y-95648663D01*
X182397006Y-95838257D01*
X182408465Y-95862830D01*
X182408467Y-95862834D01*
X182510399Y-96008407D01*
X182544005Y-96056401D01*
X182711099Y-96223495D01*
X182769372Y-96264298D01*
X182904665Y-96359032D01*
X182904667Y-96359033D01*
X182904670Y-96359035D01*
X183118837Y-96458903D01*
X183347092Y-96520063D01*
X183535418Y-96536539D01*
X183582499Y-96540659D01*
X183582500Y-96540659D01*
X183582501Y-96540659D01*
X183621734Y-96537226D01*
X183817908Y-96520063D01*
X184046163Y-96458903D01*
X184260330Y-96359035D01*
X184453901Y-96223495D01*
X184620995Y-96056401D01*
X184756535Y-95862830D01*
X184856403Y-95648663D01*
X184917563Y-95420408D01*
X184938159Y-95185000D01*
X184917563Y-94949592D01*
X184863326Y-94747173D01*
X184856405Y-94721344D01*
X184856404Y-94721343D01*
X184856403Y-94721337D01*
X184756535Y-94507171D01*
X184750829Y-94499021D01*
X184620994Y-94313597D01*
X184453902Y-94146506D01*
X184453896Y-94146501D01*
X184268342Y-94016575D01*
X184224717Y-93961998D01*
X184217523Y-93892500D01*
X184249046Y-93830145D01*
X184268342Y-93813425D01*
X184290526Y-93797891D01*
X184453901Y-93683495D01*
X184620995Y-93516401D01*
X184756535Y-93322830D01*
X184856403Y-93108663D01*
X184917563Y-92880408D01*
X184938159Y-92645000D01*
X184917563Y-92409592D01*
X184856403Y-92181337D01*
X184756535Y-91967171D01*
X184637051Y-91796530D01*
X184620996Y-91773600D01*
X184561232Y-91713836D01*
X184499067Y-91651671D01*
X184465584Y-91590351D01*
X184470568Y-91520659D01*
X184512439Y-91464725D01*
X184543415Y-91447810D01*
X184674831Y-91398796D01*
X184790046Y-91312546D01*
X184876296Y-91197331D01*
X184926591Y-91062483D01*
X184933000Y-91002873D01*
X184932999Y-89207128D01*
X184926591Y-89147517D01*
X184885680Y-89037830D01*
X184876297Y-89012671D01*
X184876293Y-89012664D01*
X184790047Y-88897455D01*
X184790044Y-88897452D01*
X184674835Y-88811206D01*
X184674828Y-88811202D01*
X184539982Y-88760908D01*
X184539983Y-88760908D01*
X184480383Y-88754501D01*
X184480381Y-88754500D01*
X184480373Y-88754500D01*
X184480364Y-88754500D01*
X182684629Y-88754500D01*
X182684623Y-88754501D01*
X182625016Y-88760908D01*
X182490171Y-88811202D01*
X182490164Y-88811206D01*
X182374955Y-88897452D01*
X182374952Y-88897455D01*
X182288706Y-89012664D01*
X182288702Y-89012671D01*
X182238408Y-89147517D01*
X182232001Y-89207116D01*
X182232001Y-89207123D01*
X182232000Y-89207135D01*
X182232000Y-91002870D01*
X182232001Y-91002876D01*
X182238408Y-91062483D01*
X182288702Y-91197328D01*
X182288706Y-91197335D01*
X182374952Y-91312544D01*
X182374955Y-91312547D01*
X182490164Y-91398793D01*
X182490171Y-91398797D01*
X182621581Y-91447810D01*
X182677515Y-91489681D01*
X182701932Y-91555145D01*
X182687080Y-91623418D01*
X182665930Y-91651673D01*
X182544003Y-91773600D01*
X182408465Y-91967169D01*
X182408464Y-91967171D01*
X182308598Y-92181335D01*
X182308594Y-92181344D01*
X182247438Y-92409586D01*
X182247436Y-92409596D01*
X182226841Y-92644999D01*
X182226841Y-92645000D01*
X182247436Y-92880403D01*
X182247438Y-92880413D01*
X182308594Y-93108655D01*
X182308596Y-93108659D01*
X182308597Y-93108663D01*
X182395612Y-93295266D01*
X182408465Y-93322830D01*
X182408467Y-93322834D01*
X182544001Y-93516395D01*
X182544006Y-93516402D01*
X182711097Y-93683493D01*
X182711103Y-93683498D01*
X182896658Y-93813425D01*
X182940283Y-93868002D01*
X182947477Y-93937500D01*
X182915954Y-93999855D01*
X182896658Y-94016575D01*
X182711097Y-94146505D01*
X182544005Y-94313597D01*
X182408465Y-94507169D01*
X182408464Y-94507171D01*
X182308598Y-94721335D01*
X182308594Y-94721344D01*
X182247438Y-94949586D01*
X182247436Y-94949596D01*
X182226841Y-95184999D01*
X182226841Y-95185000D01*
X181845500Y-95185000D01*
X181845500Y-80930000D01*
X182226841Y-80930000D01*
X182247436Y-81165403D01*
X182247438Y-81165413D01*
X182308594Y-81393655D01*
X182308596Y-81393659D01*
X182308597Y-81393663D01*
X182408465Y-81607830D01*
X182408467Y-81607834D01*
X182497920Y-81735585D01*
X182544005Y-81801401D01*
X182711099Y-81968495D01*
X182780697Y-82017228D01*
X182904665Y-82104032D01*
X182904667Y-82104033D01*
X182904670Y-82104035D01*
X183118837Y-82203903D01*
X183347092Y-82265063D01*
X183535418Y-82281539D01*
X183582499Y-82285659D01*
X183582500Y-82285659D01*
X183582501Y-82285659D01*
X183621734Y-82282226D01*
X183817908Y-82265063D01*
X184046163Y-82203903D01*
X184260330Y-82104035D01*
X184453901Y-81968495D01*
X184620995Y-81801401D01*
X184756535Y-81607830D01*
X184856403Y-81393663D01*
X184917563Y-81165408D01*
X184938159Y-80930000D01*
X184917563Y-80694592D01*
X184856403Y-80466337D01*
X184756535Y-80252171D01*
X184753144Y-80247327D01*
X184620994Y-80058597D01*
X184453902Y-79891506D01*
X184453896Y-79891501D01*
X184268342Y-79761575D01*
X184224717Y-79706998D01*
X184217523Y-79637500D01*
X184249046Y-79575145D01*
X184268342Y-79558425D01*
X184309651Y-79529500D01*
X184453901Y-79428495D01*
X184620995Y-79261401D01*
X184756535Y-79067830D01*
X184856403Y-78853663D01*
X184917563Y-78625408D01*
X184938159Y-78390000D01*
X184917563Y-78154592D01*
X184856403Y-77926337D01*
X184756535Y-77712171D01*
X184750257Y-77703204D01*
X184620994Y-77518597D01*
X184453902Y-77351506D01*
X184453896Y-77351501D01*
X184268342Y-77221575D01*
X184224717Y-77166998D01*
X184217523Y-77097500D01*
X184249046Y-77035145D01*
X184268342Y-77018425D01*
X184381594Y-76939125D01*
X184453901Y-76888495D01*
X184620995Y-76721401D01*
X184756535Y-76527830D01*
X184856403Y-76313663D01*
X184917563Y-76085408D01*
X184938159Y-75850000D01*
X184935892Y-75824094D01*
X184929922Y-75755849D01*
X184917563Y-75614592D01*
X184856403Y-75386337D01*
X184756535Y-75172171D01*
X184743518Y-75153580D01*
X184620994Y-74978597D01*
X184453902Y-74811506D01*
X184453896Y-74811501D01*
X184268342Y-74681575D01*
X184224717Y-74626998D01*
X184217523Y-74557500D01*
X184249046Y-74495145D01*
X184268342Y-74478425D01*
X184392028Y-74391819D01*
X184453901Y-74348495D01*
X184620995Y-74181401D01*
X184756535Y-73987830D01*
X184856403Y-73773663D01*
X184917563Y-73545408D01*
X184938159Y-73310000D01*
X184917563Y-73074592D01*
X184856403Y-72846337D01*
X184756535Y-72632171D01*
X184730085Y-72594397D01*
X184620996Y-72438600D01*
X184618305Y-72435909D01*
X184499067Y-72316671D01*
X184465584Y-72255351D01*
X184470568Y-72185659D01*
X184512439Y-72129725D01*
X184543415Y-72112810D01*
X184674831Y-72063796D01*
X184790046Y-71977546D01*
X184876296Y-71862331D01*
X184926591Y-71727483D01*
X184933000Y-71667873D01*
X184932999Y-69872128D01*
X184926591Y-69812517D01*
X184925407Y-69809343D01*
X184876297Y-69677671D01*
X184876293Y-69677664D01*
X184790047Y-69562455D01*
X184790044Y-69562452D01*
X184674835Y-69476206D01*
X184674828Y-69476202D01*
X184539982Y-69425908D01*
X184539983Y-69425908D01*
X184480383Y-69419501D01*
X184480381Y-69419500D01*
X184480373Y-69419500D01*
X184480364Y-69419500D01*
X182684629Y-69419500D01*
X182684623Y-69419501D01*
X182625016Y-69425908D01*
X182490171Y-69476202D01*
X182490164Y-69476206D01*
X182374955Y-69562452D01*
X182374952Y-69562455D01*
X182288706Y-69677664D01*
X182288702Y-69677671D01*
X182238408Y-69812517D01*
X182232001Y-69872116D01*
X182232001Y-69872123D01*
X182232000Y-69872135D01*
X182232000Y-71667870D01*
X182232001Y-71667876D01*
X182238408Y-71727483D01*
X182288702Y-71862328D01*
X182288706Y-71862335D01*
X182374952Y-71977544D01*
X182374955Y-71977547D01*
X182490164Y-72063793D01*
X182490171Y-72063797D01*
X182621581Y-72112810D01*
X182677515Y-72154681D01*
X182701932Y-72220145D01*
X182687080Y-72288418D01*
X182665930Y-72316673D01*
X182544003Y-72438600D01*
X182408465Y-72632169D01*
X182408464Y-72632171D01*
X182308598Y-72846335D01*
X182308594Y-72846344D01*
X182247438Y-73074586D01*
X182247436Y-73074596D01*
X182226841Y-73309999D01*
X182226841Y-73310000D01*
X182247436Y-73545403D01*
X182247438Y-73545413D01*
X182291845Y-73711144D01*
X182308597Y-73773663D01*
X182408465Y-73987830D01*
X182408467Y-73987834D01*
X182544001Y-74181395D01*
X182544006Y-74181402D01*
X182711097Y-74348493D01*
X182711103Y-74348498D01*
X182896658Y-74478425D01*
X182940283Y-74533002D01*
X182947477Y-74602500D01*
X182915954Y-74664855D01*
X182896658Y-74681575D01*
X182711097Y-74811505D01*
X182544005Y-74978597D01*
X182408465Y-75172169D01*
X182408464Y-75172171D01*
X182308598Y-75386335D01*
X182308594Y-75386344D01*
X182247438Y-75614586D01*
X182247436Y-75614596D01*
X182226841Y-75849999D01*
X182226841Y-75850000D01*
X182247436Y-76085403D01*
X182247438Y-76085413D01*
X182308594Y-76313655D01*
X182308596Y-76313659D01*
X182308597Y-76313663D01*
X182326353Y-76351740D01*
X182408465Y-76527830D01*
X182408467Y-76527834D01*
X182544001Y-76721395D01*
X182544006Y-76721402D01*
X182711097Y-76888493D01*
X182711103Y-76888498D01*
X182896658Y-77018425D01*
X182940283Y-77073002D01*
X182947477Y-77142500D01*
X182915954Y-77204855D01*
X182896658Y-77221575D01*
X182711097Y-77351505D01*
X182544005Y-77518597D01*
X182408465Y-77712169D01*
X182408464Y-77712171D01*
X182308598Y-77926335D01*
X182308594Y-77926344D01*
X182247438Y-78154586D01*
X182247436Y-78154596D01*
X182226841Y-78389999D01*
X182226841Y-78390000D01*
X182247436Y-78625403D01*
X182247438Y-78625413D01*
X182308594Y-78853655D01*
X182308596Y-78853659D01*
X182308597Y-78853663D01*
X182392730Y-79034086D01*
X182408465Y-79067830D01*
X182408467Y-79067834D01*
X182501618Y-79200866D01*
X182537223Y-79251716D01*
X182544001Y-79261395D01*
X182544006Y-79261402D01*
X182711097Y-79428493D01*
X182711103Y-79428498D01*
X182896658Y-79558425D01*
X182940283Y-79613002D01*
X182947477Y-79682500D01*
X182915954Y-79744855D01*
X182896658Y-79761575D01*
X182711097Y-79891505D01*
X182544005Y-80058597D01*
X182408465Y-80252169D01*
X182408464Y-80252171D01*
X182308598Y-80466335D01*
X182308594Y-80466344D01*
X182247438Y-80694586D01*
X182247436Y-80694596D01*
X182226841Y-80929999D01*
X182226841Y-80930000D01*
X181845500Y-80930000D01*
X181845500Y-79332737D01*
X181847224Y-79317123D01*
X181846938Y-79317096D01*
X181847672Y-79309333D01*
X181845500Y-79240203D01*
X181845500Y-79210651D01*
X181845500Y-79210650D01*
X181844629Y-79203759D01*
X181844172Y-79197945D01*
X181842709Y-79151372D01*
X181837122Y-79132144D01*
X181833174Y-79113084D01*
X181830664Y-79093208D01*
X181813507Y-79049875D01*
X181811619Y-79044359D01*
X181798619Y-78999612D01*
X181788418Y-78982363D01*
X181779860Y-78964894D01*
X181772486Y-78946268D01*
X181772483Y-78946264D01*
X181772483Y-78946263D01*
X181745098Y-78908571D01*
X181741890Y-78903687D01*
X181718172Y-78863582D01*
X181718163Y-78863571D01*
X181704005Y-78849413D01*
X181691370Y-78834620D01*
X181679593Y-78818412D01*
X181643693Y-78788713D01*
X181639381Y-78784790D01*
X163581819Y-60727228D01*
X163548334Y-60665905D01*
X163545500Y-60639547D01*
X163545500Y-57380000D01*
X166924540Y-57380000D01*
X166944326Y-57568256D01*
X166944327Y-57568259D01*
X167002818Y-57748277D01*
X167002821Y-57748283D01*
X167002821Y-57748284D01*
X167097467Y-57912216D01*
X167224129Y-58052888D01*
X167377265Y-58164148D01*
X167377270Y-58164151D01*
X167550192Y-58241142D01*
X167550197Y-58241144D01*
X167735354Y-58280500D01*
X167735355Y-58280500D01*
X167924644Y-58280500D01*
X167924646Y-58280500D01*
X168109803Y-58241144D01*
X168282730Y-58164151D01*
X168435871Y-58052888D01*
X168562533Y-57912216D01*
X168657179Y-57748284D01*
X168689067Y-57650138D01*
X168710057Y-57611137D01*
X168712092Y-57608586D01*
X168730216Y-57570949D01*
X168733570Y-57564881D01*
X168755789Y-57529522D01*
X168769581Y-57490107D01*
X168772244Y-57483679D01*
X168773872Y-57480299D01*
X168790360Y-57446061D01*
X168799658Y-57405321D01*
X168801571Y-57398680D01*
X168815368Y-57359255D01*
X168820043Y-57317760D01*
X168821208Y-57310905D01*
X168823697Y-57300000D01*
X168830500Y-57270194D01*
X168830500Y-57089805D01*
X168830500Y-54772359D01*
X168847113Y-54710359D01*
X168877179Y-54658284D01*
X168935674Y-54478256D01*
X168955460Y-54290000D01*
X168954409Y-54280000D01*
X173284540Y-54280000D01*
X173304326Y-54468256D01*
X173304327Y-54468259D01*
X173362818Y-54648277D01*
X173362821Y-54648284D01*
X173457467Y-54812216D01*
X173581363Y-54949816D01*
X173584129Y-54952888D01*
X173737265Y-55064148D01*
X173737270Y-55064151D01*
X173910192Y-55141142D01*
X173910195Y-55141143D01*
X173910197Y-55141144D01*
X174095354Y-55180500D01*
X174095355Y-55180500D01*
X174284644Y-55180500D01*
X174284646Y-55180500D01*
X174469803Y-55141144D01*
X174492093Y-55131220D01*
X174542528Y-55120500D01*
X177980194Y-55120500D01*
X178020905Y-55111208D01*
X178027760Y-55110043D01*
X178069255Y-55105368D01*
X178108680Y-55091571D01*
X178115321Y-55089658D01*
X178156061Y-55080360D01*
X178193693Y-55062236D01*
X178200105Y-55059580D01*
X178239522Y-55045789D01*
X178274889Y-55023565D01*
X178280961Y-55020209D01*
X178318587Y-55002091D01*
X178351236Y-54976052D01*
X178356895Y-54972037D01*
X178392262Y-54949816D01*
X178519816Y-54822262D01*
X178914577Y-54427500D01*
X182226841Y-54427500D01*
X182247436Y-54662903D01*
X182247438Y-54662913D01*
X182308594Y-54891155D01*
X182308596Y-54891159D01*
X182308597Y-54891163D01*
X182389263Y-55064151D01*
X182408465Y-55105330D01*
X182408467Y-55105334D01*
X182480549Y-55208277D01*
X182544001Y-55298896D01*
X182544006Y-55298902D01*
X182665930Y-55420826D01*
X182699415Y-55482149D01*
X182694431Y-55551841D01*
X182652559Y-55607774D01*
X182621583Y-55624689D01*
X182490169Y-55673703D01*
X182490164Y-55673706D01*
X182374955Y-55759952D01*
X182374952Y-55759955D01*
X182288706Y-55875164D01*
X182288702Y-55875171D01*
X182238408Y-56010017D01*
X182232001Y-56069616D01*
X182232001Y-56069623D01*
X182232000Y-56069635D01*
X182232000Y-57865370D01*
X182232001Y-57865376D01*
X182238408Y-57924983D01*
X182288702Y-58059828D01*
X182288706Y-58059835D01*
X182374952Y-58175044D01*
X182374955Y-58175047D01*
X182490164Y-58261293D01*
X182490171Y-58261297D01*
X182625017Y-58311591D01*
X182625016Y-58311591D01*
X182631944Y-58312335D01*
X182684627Y-58318000D01*
X184480372Y-58317999D01*
X184539983Y-58311591D01*
X184674831Y-58261296D01*
X184790046Y-58175046D01*
X184876296Y-58059831D01*
X184926591Y-57924983D01*
X184933000Y-57865373D01*
X184932999Y-56069628D01*
X184926591Y-56010017D01*
X184917808Y-55986469D01*
X184876297Y-55875171D01*
X184876293Y-55875164D01*
X184790047Y-55759955D01*
X184790044Y-55759952D01*
X184674835Y-55673706D01*
X184674828Y-55673702D01*
X184543417Y-55624689D01*
X184487483Y-55582818D01*
X184463066Y-55517353D01*
X184477918Y-55449080D01*
X184499063Y-55420832D01*
X184620995Y-55298901D01*
X184756535Y-55105330D01*
X184856403Y-54891163D01*
X184917563Y-54662908D01*
X184938159Y-54427500D01*
X184917563Y-54192092D01*
X184856403Y-53963837D01*
X184756535Y-53749671D01*
X184755215Y-53747785D01*
X184620994Y-53556097D01*
X184453902Y-53389006D01*
X184453896Y-53389001D01*
X184268342Y-53259075D01*
X184224717Y-53204498D01*
X184217523Y-53135000D01*
X184249046Y-53072645D01*
X184268342Y-53055925D01*
X184396579Y-52966132D01*
X184453901Y-52925995D01*
X184620995Y-52758901D01*
X184756535Y-52565330D01*
X184856403Y-52351163D01*
X184917563Y-52122908D01*
X184938159Y-51887500D01*
X184917563Y-51652092D01*
X184856403Y-51423837D01*
X184756535Y-51209671D01*
X184709328Y-51142251D01*
X184620994Y-51016097D01*
X184453902Y-50849006D01*
X184453895Y-50849001D01*
X184260334Y-50713467D01*
X184260330Y-50713465D01*
X184194487Y-50682762D01*
X184046163Y-50613597D01*
X184046159Y-50613596D01*
X184046155Y-50613594D01*
X183817913Y-50552438D01*
X183817903Y-50552436D01*
X183582501Y-50531841D01*
X183582499Y-50531841D01*
X183347096Y-50552436D01*
X183347086Y-50552438D01*
X183118844Y-50613594D01*
X183118835Y-50613598D01*
X182904671Y-50713464D01*
X182904669Y-50713465D01*
X182711097Y-50849005D01*
X182544005Y-51016097D01*
X182408465Y-51209669D01*
X182408464Y-51209671D01*
X182308598Y-51423835D01*
X182308594Y-51423844D01*
X182247438Y-51652086D01*
X182247436Y-51652096D01*
X182226841Y-51887499D01*
X182226841Y-51887500D01*
X182247436Y-52122903D01*
X182247438Y-52122913D01*
X182308594Y-52351155D01*
X182308596Y-52351159D01*
X182308597Y-52351163D01*
X182386033Y-52517224D01*
X182408465Y-52565330D01*
X182408467Y-52565334D01*
X182490640Y-52682688D01*
X182523723Y-52729936D01*
X182544001Y-52758895D01*
X182544006Y-52758902D01*
X182711097Y-52925993D01*
X182711103Y-52925998D01*
X182896658Y-53055925D01*
X182940283Y-53110502D01*
X182947477Y-53180000D01*
X182915954Y-53242355D01*
X182896658Y-53259075D01*
X182711097Y-53389005D01*
X182544005Y-53556097D01*
X182408465Y-53749669D01*
X182408464Y-53749671D01*
X182308598Y-53963835D01*
X182308594Y-53963844D01*
X182247438Y-54192086D01*
X182247436Y-54192096D01*
X182226841Y-54427499D01*
X182226841Y-54427500D01*
X178914577Y-54427500D01*
X180087566Y-53254510D01*
X180124801Y-53228918D01*
X180292730Y-53154151D01*
X180445871Y-53042888D01*
X180572533Y-52902216D01*
X180667179Y-52738284D01*
X180725674Y-52558256D01*
X180745460Y-52370000D01*
X180725674Y-52181744D01*
X180667179Y-52001716D01*
X180572533Y-51837784D01*
X180445871Y-51697112D01*
X180383912Y-51652096D01*
X180292734Y-51585851D01*
X180292729Y-51585848D01*
X180119807Y-51508857D01*
X180119802Y-51508855D01*
X179974001Y-51477865D01*
X179934646Y-51469500D01*
X179745354Y-51469500D01*
X179712897Y-51476398D01*
X179560197Y-51508855D01*
X179560192Y-51508857D01*
X179387270Y-51585848D01*
X179387265Y-51585851D01*
X179234129Y-51697111D01*
X179107466Y-51837785D01*
X179012821Y-52001715D01*
X179012816Y-52001725D01*
X178991510Y-52067298D01*
X178961261Y-52116659D01*
X177594741Y-53483181D01*
X177533418Y-53516666D01*
X177507060Y-53519500D01*
X174715573Y-53519500D01*
X174648534Y-53499815D01*
X174642755Y-53495863D01*
X174642729Y-53495848D01*
X174469807Y-53418857D01*
X174469802Y-53418855D01*
X174324001Y-53387865D01*
X174284646Y-53379500D01*
X174095354Y-53379500D01*
X174062897Y-53386398D01*
X173910197Y-53418855D01*
X173910192Y-53418857D01*
X173737270Y-53495848D01*
X173737265Y-53495851D01*
X173584129Y-53607111D01*
X173457466Y-53747785D01*
X173362821Y-53911715D01*
X173362818Y-53911722D01*
X173311570Y-54069449D01*
X173304326Y-54091744D01*
X173284540Y-54280000D01*
X168954409Y-54280000D01*
X168935674Y-54101744D01*
X168877179Y-53921716D01*
X168782533Y-53757784D01*
X168655871Y-53617112D01*
X168646549Y-53610339D01*
X168502734Y-53505851D01*
X168502729Y-53505848D01*
X168329807Y-53428857D01*
X168329802Y-53428855D01*
X168184001Y-53397865D01*
X168144646Y-53389500D01*
X167955354Y-53389500D01*
X167922897Y-53396398D01*
X167770197Y-53428855D01*
X167770192Y-53428857D01*
X167597270Y-53505848D01*
X167597265Y-53505851D01*
X167444129Y-53617111D01*
X167317466Y-53757785D01*
X167222821Y-53921715D01*
X167222818Y-53921722D01*
X167164327Y-54101740D01*
X167164326Y-54101744D01*
X167144540Y-54290000D01*
X167164326Y-54478256D01*
X167164327Y-54478259D01*
X167223431Y-54660162D01*
X167229500Y-54698480D01*
X167229500Y-56653547D01*
X167209815Y-56720586D01*
X167197650Y-56736519D01*
X167097466Y-56847785D01*
X167002821Y-57011715D01*
X167002818Y-57011722D01*
X166944327Y-57191740D01*
X166944326Y-57191744D01*
X166924540Y-57380000D01*
X163545500Y-57380000D01*
X163545500Y-54452737D01*
X163547224Y-54437123D01*
X163546938Y-54437096D01*
X163547672Y-54429333D01*
X163545500Y-54360203D01*
X163545500Y-54330651D01*
X163545500Y-54330650D01*
X163544629Y-54323759D01*
X163544172Y-54317945D01*
X163543294Y-54290000D01*
X163542709Y-54271373D01*
X163537121Y-54252139D01*
X163533174Y-54233081D01*
X163530664Y-54213208D01*
X163513507Y-54169875D01*
X163511614Y-54164346D01*
X163498618Y-54119614D01*
X163498617Y-54119610D01*
X163488420Y-54102368D01*
X163479863Y-54084902D01*
X163472486Y-54066268D01*
X163445083Y-54028550D01*
X163441900Y-54023705D01*
X163418170Y-53983579D01*
X163418165Y-53983573D01*
X163404005Y-53969413D01*
X163391370Y-53954620D01*
X163379593Y-53938412D01*
X163343693Y-53908713D01*
X163339381Y-53904790D01*
X162290803Y-52856212D01*
X162280980Y-52843950D01*
X162280759Y-52844134D01*
X162275786Y-52838123D01*
X162225364Y-52790773D01*
X162214919Y-52780328D01*
X162204475Y-52769883D01*
X162198986Y-52765625D01*
X162194561Y-52761847D01*
X162160582Y-52729938D01*
X162160580Y-52729936D01*
X162160577Y-52729935D01*
X162143029Y-52720288D01*
X162126763Y-52709604D01*
X162110933Y-52697325D01*
X162068168Y-52678818D01*
X162062922Y-52676248D01*
X162022093Y-52653803D01*
X162022092Y-52653802D01*
X162002693Y-52648822D01*
X161984281Y-52642518D01*
X161965898Y-52634562D01*
X161965892Y-52634560D01*
X161919874Y-52627272D01*
X161914152Y-52626087D01*
X161869021Y-52614500D01*
X161869019Y-52614500D01*
X161848984Y-52614500D01*
X161829586Y-52612973D01*
X161822162Y-52611797D01*
X161809805Y-52609840D01*
X161809804Y-52609840D01*
X161763416Y-52614225D01*
X161757578Y-52614500D01*
X152627088Y-52614500D01*
X152560049Y-52594815D01*
X152514294Y-52542011D01*
X152503685Y-52478346D01*
X152506308Y-52451715D01*
X152515341Y-52360000D01*
X152496024Y-52163868D01*
X152438814Y-51975273D01*
X152430039Y-51958856D01*
X152375142Y-51856150D01*
X152360500Y-51797697D01*
X152360500Y-50792121D01*
X152380185Y-50725082D01*
X152426043Y-50682765D01*
X152588538Y-50595910D01*
X152740883Y-50470883D01*
X152865910Y-50318538D01*
X152942023Y-50176141D01*
X152958811Y-50144733D01*
X152958811Y-50144732D01*
X152958814Y-50144727D01*
X152963281Y-50130000D01*
X162684659Y-50130000D01*
X162703975Y-50326129D01*
X162761187Y-50514730D01*
X162781342Y-50552436D01*
X162854090Y-50688538D01*
X162854092Y-50688540D01*
X162881353Y-50721758D01*
X162908666Y-50786068D01*
X162909500Y-50800423D01*
X162909500Y-52286294D01*
X162908191Y-52304263D01*
X162904710Y-52328025D01*
X162909264Y-52380064D01*
X162909500Y-52385470D01*
X162909500Y-52393709D01*
X162913306Y-52426274D01*
X162920000Y-52502791D01*
X162921461Y-52509867D01*
X162921403Y-52509878D01*
X162923034Y-52517237D01*
X162923092Y-52517224D01*
X162924757Y-52524250D01*
X162951025Y-52596424D01*
X162975185Y-52669331D01*
X162978236Y-52675874D01*
X162978182Y-52675898D01*
X162981470Y-52682688D01*
X162981521Y-52682663D01*
X162984761Y-52689113D01*
X162984762Y-52689114D01*
X162984763Y-52689117D01*
X163011609Y-52729935D01*
X163026965Y-52753283D01*
X163067287Y-52818655D01*
X163071766Y-52824319D01*
X163071719Y-52824355D01*
X163076483Y-52830202D01*
X163076529Y-52830164D01*
X163081166Y-52835690D01*
X163081170Y-52835696D01*
X163102488Y-52855808D01*
X163137742Y-52916132D01*
X163140796Y-52933847D01*
X163143975Y-52966129D01*
X163143976Y-52966132D01*
X163187770Y-53110502D01*
X163201188Y-53154733D01*
X163294086Y-53328532D01*
X163294090Y-53328539D01*
X163419116Y-53480883D01*
X163571460Y-53605909D01*
X163571467Y-53605913D01*
X163745266Y-53698811D01*
X163745269Y-53698811D01*
X163745273Y-53698814D01*
X163933868Y-53756024D01*
X164130000Y-53775341D01*
X164326132Y-53756024D01*
X164514727Y-53698814D01*
X164688538Y-53605910D01*
X164840883Y-53480883D01*
X164965910Y-53328538D01*
X165032211Y-53204498D01*
X165058811Y-53154733D01*
X165058811Y-53154732D01*
X165058814Y-53154727D01*
X165116024Y-52966132D01*
X165135341Y-52770000D01*
X165116024Y-52573868D01*
X165058814Y-52385273D01*
X165058811Y-52385269D01*
X165058811Y-52385266D01*
X164965913Y-52211467D01*
X164965909Y-52211460D01*
X164840883Y-52059116D01*
X164688539Y-51934090D01*
X164688532Y-51934086D01*
X164514730Y-51841187D01*
X164514726Y-51841185D01*
X164498503Y-51836264D01*
X164440065Y-51797966D01*
X164411609Y-51734153D01*
X164410500Y-51717604D01*
X164410500Y-50873532D01*
X164430185Y-50806493D01*
X164438639Y-50794876D01*
X164525910Y-50688538D01*
X164598658Y-50552436D01*
X164618811Y-50514733D01*
X164618812Y-50514730D01*
X164618814Y-50514727D01*
X164676024Y-50326132D01*
X164695341Y-50130000D01*
X164676024Y-49933868D01*
X164618814Y-49745273D01*
X164618811Y-49745269D01*
X164618811Y-49745266D01*
X164525913Y-49571467D01*
X164525909Y-49571460D01*
X164400883Y-49419116D01*
X164248539Y-49294090D01*
X164248532Y-49294086D01*
X164074733Y-49201188D01*
X164074727Y-49201186D01*
X163886132Y-49143976D01*
X163886129Y-49143975D01*
X163690000Y-49124659D01*
X163493870Y-49143975D01*
X163305266Y-49201188D01*
X163131467Y-49294086D01*
X163131460Y-49294090D01*
X162979116Y-49419116D01*
X162854090Y-49571460D01*
X162854086Y-49571467D01*
X162761188Y-49745266D01*
X162703975Y-49933870D01*
X162684659Y-50130000D01*
X152963281Y-50130000D01*
X153016024Y-49956132D01*
X153035341Y-49760000D01*
X153016024Y-49563868D01*
X152958814Y-49375273D01*
X152958811Y-49375269D01*
X152958811Y-49375266D01*
X152865913Y-49201467D01*
X152865909Y-49201460D01*
X152740883Y-49049116D01*
X152689444Y-49006901D01*
X152650110Y-48949155D01*
X152648239Y-48879310D01*
X152684427Y-48819542D01*
X152747183Y-48788826D01*
X152768143Y-48787049D01*
X185876063Y-48799951D01*
X185943093Y-48819662D01*
X185988827Y-48872484D01*
X186000013Y-48923937D01*
X186009986Y-139776130D01*
X185990309Y-139843172D01*
X185937510Y-139888933D01*
X185886131Y-139900144D01*
X109104199Y-139989854D01*
X109037136Y-139970248D01*
X108991320Y-139917497D01*
X108980054Y-139865800D01*
X108980064Y-139843172D01*
X108984728Y-129207870D01*
X112799500Y-129207870D01*
X112799501Y-129207876D01*
X112805908Y-129267483D01*
X112856202Y-129402328D01*
X112856206Y-129402335D01*
X112942452Y-129517544D01*
X112942455Y-129517547D01*
X113057664Y-129603793D01*
X113057671Y-129603797D01*
X113192517Y-129654091D01*
X113192516Y-129654091D01*
X113199444Y-129654835D01*
X113252127Y-129660500D01*
X115047872Y-129660499D01*
X115107483Y-129654091D01*
X115242331Y-129603796D01*
X115357546Y-129517546D01*
X115443796Y-129402331D01*
X115492810Y-129270916D01*
X115534681Y-129214984D01*
X115600145Y-129190566D01*
X115668418Y-129205417D01*
X115696673Y-129226569D01*
X115818599Y-129348495D01*
X115915384Y-129416265D01*
X116012165Y-129484032D01*
X116012167Y-129484033D01*
X116012170Y-129484035D01*
X116226337Y-129583903D01*
X116454592Y-129645063D01*
X116631034Y-129660500D01*
X116689999Y-129665659D01*
X116690000Y-129665659D01*
X116690001Y-129665659D01*
X116748966Y-129660500D01*
X116925408Y-129645063D01*
X117153663Y-129583903D01*
X117367830Y-129484035D01*
X117561401Y-129348495D01*
X117728495Y-129181401D01*
X117858425Y-128995842D01*
X117913002Y-128952217D01*
X117982500Y-128945023D01*
X118044855Y-128976546D01*
X118061575Y-128995842D01*
X118191500Y-129181395D01*
X118191505Y-129181401D01*
X118358599Y-129348495D01*
X118455384Y-129416265D01*
X118552165Y-129484032D01*
X118552167Y-129484033D01*
X118552170Y-129484035D01*
X118766337Y-129583903D01*
X118994592Y-129645063D01*
X119171034Y-129660500D01*
X119229999Y-129665659D01*
X119230000Y-129665659D01*
X119230001Y-129665659D01*
X119288966Y-129660500D01*
X119465408Y-129645063D01*
X119693663Y-129583903D01*
X119907830Y-129484035D01*
X120101401Y-129348495D01*
X120268495Y-129181401D01*
X120398425Y-128995842D01*
X120453002Y-128952217D01*
X120522500Y-128945023D01*
X120584855Y-128976546D01*
X120601575Y-128995842D01*
X120731500Y-129181395D01*
X120731505Y-129181401D01*
X120898599Y-129348495D01*
X120995384Y-129416265D01*
X121092165Y-129484032D01*
X121092167Y-129484033D01*
X121092170Y-129484035D01*
X121306337Y-129583903D01*
X121534592Y-129645063D01*
X121711034Y-129660500D01*
X121769999Y-129665659D01*
X121770000Y-129665659D01*
X121770001Y-129665659D01*
X121828966Y-129660500D01*
X122005408Y-129645063D01*
X122233663Y-129583903D01*
X122447830Y-129484035D01*
X122641401Y-129348495D01*
X122808495Y-129181401D01*
X122809475Y-129180001D01*
X127604390Y-129180001D01*
X127624804Y-129465433D01*
X127685628Y-129745037D01*
X127785635Y-130013166D01*
X127922770Y-130264309D01*
X127922775Y-130264317D01*
X128094254Y-130493387D01*
X128094270Y-130493405D01*
X128296594Y-130695729D01*
X128296612Y-130695745D01*
X128525682Y-130867224D01*
X128525690Y-130867229D01*
X128776833Y-131004364D01*
X128776832Y-131004364D01*
X128776836Y-131004365D01*
X128776839Y-131004367D01*
X129044954Y-131104369D01*
X129044960Y-131104370D01*
X129044962Y-131104371D01*
X129324566Y-131165195D01*
X129324568Y-131165195D01*
X129324572Y-131165196D01*
X129578220Y-131183337D01*
X129609999Y-131185610D01*
X129610000Y-131185610D01*
X129610001Y-131185610D01*
X129638595Y-131183564D01*
X129895428Y-131165196D01*
X130175046Y-131104369D01*
X130443161Y-131004367D01*
X130694315Y-130867226D01*
X130923395Y-130695739D01*
X131125739Y-130493395D01*
X131297226Y-130264315D01*
X131434367Y-130013161D01*
X131534369Y-129745046D01*
X131583858Y-129517547D01*
X131595195Y-129465433D01*
X131595195Y-129465432D01*
X131595196Y-129465428D01*
X131615610Y-129180000D01*
X131595196Y-128894572D01*
X131570714Y-128782032D01*
X131534371Y-128614962D01*
X131534370Y-128614960D01*
X131534369Y-128614954D01*
X131434367Y-128346839D01*
X131425245Y-128330134D01*
X131297229Y-128095690D01*
X131297224Y-128095682D01*
X131125745Y-127866612D01*
X131125729Y-127866594D01*
X130923405Y-127664270D01*
X130923387Y-127664254D01*
X130694317Y-127492775D01*
X130694309Y-127492770D01*
X130512381Y-127393430D01*
X130443161Y-127355633D01*
X130443158Y-127355632D01*
X130443151Y-127355628D01*
X130441149Y-127354881D01*
X130440575Y-127354451D01*
X130439123Y-127353788D01*
X130439267Y-127353471D01*
X130385222Y-127313002D01*
X130360815Y-127247534D01*
X130360500Y-127238706D01*
X130360500Y-98772230D01*
X130380185Y-98705191D01*
X130396819Y-98684549D01*
X132634549Y-96446819D01*
X132695872Y-96413334D01*
X132722230Y-96410500D01*
X132866608Y-96410500D01*
X132866610Y-96410500D01*
X133076198Y-96371321D01*
X133275019Y-96294298D01*
X133456302Y-96182052D01*
X133613872Y-96038407D01*
X133715550Y-95903763D01*
X133771658Y-95862129D01*
X133841370Y-95857438D01*
X133902552Y-95891180D01*
X133935779Y-95952643D01*
X133938450Y-95974882D01*
X133939500Y-96010914D01*
X133939500Y-108761262D01*
X133927051Y-108803658D01*
X133936920Y-108822163D01*
X133939500Y-108847326D01*
X133939500Y-110426928D01*
X133919815Y-110493967D01*
X133867011Y-110539722D01*
X133797853Y-110549666D01*
X133734297Y-110520641D01*
X133697568Y-110465243D01*
X133696568Y-110462165D01*
X133690500Y-110423850D01*
X133690500Y-108857087D01*
X133690705Y-108852053D01*
X133691909Y-108837262D01*
X133703510Y-108807069D01*
X133696523Y-108796197D01*
X133692635Y-108778002D01*
X133684270Y-108716607D01*
X133678278Y-108661511D01*
X133675514Y-108636090D01*
X133675513Y-108636088D01*
X133675513Y-108636084D01*
X133675280Y-108635026D01*
X133670497Y-108614621D01*
X133670227Y-108613532D01*
X133642299Y-108537513D01*
X133635477Y-108517266D01*
X133616444Y-108460779D01*
X133616441Y-108460775D01*
X133616441Y-108460773D01*
X133616006Y-108459831D01*
X133606895Y-108440818D01*
X133606432Y-108439884D01*
X133598340Y-108427224D01*
X133562822Y-108371658D01*
X133521070Y-108302264D01*
X133521068Y-108302262D01*
X133521067Y-108302260D01*
X133520455Y-108301455D01*
X133507503Y-108284889D01*
X133506803Y-108284018D01*
X133506799Y-108284011D01*
X133449556Y-108226768D01*
X133429247Y-108205328D01*
X133393848Y-108167957D01*
X133393108Y-108167328D01*
X133375875Y-108153087D01*
X132698714Y-107475926D01*
X132679010Y-107450248D01*
X132602533Y-107317784D01*
X132475871Y-107177112D01*
X132475870Y-107177111D01*
X132322734Y-107065851D01*
X132322729Y-107065848D01*
X132149807Y-106988857D01*
X132149802Y-106988855D01*
X132004001Y-106957865D01*
X131964646Y-106949500D01*
X131775354Y-106949500D01*
X131742897Y-106956398D01*
X131590197Y-106988855D01*
X131590192Y-106988857D01*
X131417270Y-107065848D01*
X131417265Y-107065851D01*
X131264129Y-107177111D01*
X131137466Y-107317785D01*
X131042821Y-107481715D01*
X131042818Y-107481722D01*
X130984327Y-107661740D01*
X130984326Y-107661744D01*
X130964540Y-107850000D01*
X130984326Y-108038256D01*
X130984327Y-108038259D01*
X131042818Y-108218277D01*
X131042821Y-108218284D01*
X131137467Y-108382216D01*
X131208206Y-108460779D01*
X131264129Y-108522888D01*
X131417268Y-108634150D01*
X131417269Y-108634151D01*
X131457728Y-108652164D01*
X131494974Y-108677763D01*
X131953181Y-109135970D01*
X131986666Y-109197293D01*
X131989500Y-109223651D01*
X131989500Y-110423850D01*
X131983430Y-110462168D01*
X131954326Y-110551744D01*
X131934540Y-110740000D01*
X131954326Y-110928256D01*
X131954327Y-110928259D01*
X132012818Y-111108277D01*
X132012821Y-111108284D01*
X132107467Y-111272216D01*
X132215728Y-111392452D01*
X132234129Y-111412888D01*
X132387265Y-111524148D01*
X132387270Y-111524151D01*
X132560192Y-111601142D01*
X132560197Y-111601144D01*
X132745354Y-111640500D01*
X132745355Y-111640500D01*
X132934644Y-111640500D01*
X132934646Y-111640500D01*
X133119803Y-111601144D01*
X133292730Y-111524151D01*
X133445871Y-111412888D01*
X133572533Y-111272216D01*
X133667179Y-111108284D01*
X133697569Y-111014754D01*
X133737006Y-110957078D01*
X133801365Y-110929880D01*
X133870211Y-110941795D01*
X133921687Y-110989039D01*
X133939500Y-111053072D01*
X133939500Y-127238706D01*
X133919815Y-127305745D01*
X133867011Y-127351500D01*
X133858851Y-127354881D01*
X133856848Y-127355628D01*
X133605690Y-127492770D01*
X133605682Y-127492775D01*
X133376612Y-127664254D01*
X133376594Y-127664270D01*
X133174270Y-127866594D01*
X133174254Y-127866612D01*
X133002775Y-128095682D01*
X133002770Y-128095690D01*
X132865635Y-128346833D01*
X132765628Y-128614962D01*
X132704804Y-128894566D01*
X132684390Y-129179998D01*
X132684390Y-129180001D01*
X132704804Y-129465433D01*
X132765628Y-129745037D01*
X132865635Y-130013166D01*
X133002770Y-130264309D01*
X133002775Y-130264317D01*
X133174254Y-130493387D01*
X133174270Y-130493405D01*
X133376594Y-130695729D01*
X133376612Y-130695745D01*
X133605682Y-130867224D01*
X133605690Y-130867229D01*
X133856833Y-131004364D01*
X133856832Y-131004364D01*
X133856836Y-131004365D01*
X133856839Y-131004367D01*
X134124954Y-131104369D01*
X134124960Y-131104370D01*
X134124962Y-131104371D01*
X134404566Y-131165195D01*
X134404568Y-131165195D01*
X134404572Y-131165196D01*
X134658220Y-131183337D01*
X134689999Y-131185610D01*
X134690000Y-131185610D01*
X134690001Y-131185610D01*
X134718595Y-131183564D01*
X134975428Y-131165196D01*
X135255046Y-131104369D01*
X135523161Y-131004367D01*
X135774315Y-130867226D01*
X136003395Y-130695739D01*
X136205739Y-130493395D01*
X136377226Y-130264315D01*
X136514367Y-130013161D01*
X136614369Y-129745046D01*
X136663858Y-129517547D01*
X136675195Y-129465433D01*
X136675195Y-129465432D01*
X136675196Y-129465428D01*
X136695610Y-129180001D01*
X142194390Y-129180001D01*
X142214804Y-129465433D01*
X142275628Y-129745037D01*
X142375635Y-130013166D01*
X142512770Y-130264309D01*
X142512775Y-130264317D01*
X142684254Y-130493387D01*
X142684270Y-130493405D01*
X142886594Y-130695729D01*
X142886612Y-130695745D01*
X143115682Y-130867224D01*
X143115690Y-130867229D01*
X143366833Y-131004364D01*
X143366832Y-131004364D01*
X143366836Y-131004365D01*
X143366839Y-131004367D01*
X143634954Y-131104369D01*
X143634960Y-131104370D01*
X143634962Y-131104371D01*
X143914566Y-131165195D01*
X143914568Y-131165195D01*
X143914572Y-131165196D01*
X144168220Y-131183337D01*
X144199999Y-131185610D01*
X144200000Y-131185610D01*
X144200001Y-131185610D01*
X144228595Y-131183564D01*
X144485428Y-131165196D01*
X144765046Y-131104369D01*
X145033161Y-131004367D01*
X145284315Y-130867226D01*
X145513395Y-130695739D01*
X145715739Y-130493395D01*
X145887226Y-130264315D01*
X146024367Y-130013161D01*
X146124369Y-129745046D01*
X146173858Y-129517547D01*
X146185195Y-129465433D01*
X146185195Y-129465432D01*
X146185196Y-129465428D01*
X146205610Y-129180001D01*
X147274390Y-129180001D01*
X147294804Y-129465433D01*
X147355628Y-129745037D01*
X147455635Y-130013166D01*
X147592770Y-130264309D01*
X147592775Y-130264317D01*
X147764254Y-130493387D01*
X147764270Y-130493405D01*
X147966594Y-130695729D01*
X147966612Y-130695745D01*
X148195682Y-130867224D01*
X148195690Y-130867229D01*
X148446833Y-131004364D01*
X148446832Y-131004364D01*
X148446836Y-131004365D01*
X148446839Y-131004367D01*
X148714954Y-131104369D01*
X148714960Y-131104370D01*
X148714962Y-131104371D01*
X148994566Y-131165195D01*
X148994568Y-131165195D01*
X148994572Y-131165196D01*
X149248220Y-131183337D01*
X149279999Y-131185610D01*
X149280000Y-131185610D01*
X149280001Y-131185610D01*
X149308595Y-131183564D01*
X149565428Y-131165196D01*
X149845046Y-131104369D01*
X150113161Y-131004367D01*
X150364315Y-130867226D01*
X150593395Y-130695739D01*
X150795739Y-130493395D01*
X150967226Y-130264315D01*
X151104367Y-130013161D01*
X151204369Y-129745046D01*
X151253858Y-129517547D01*
X151265195Y-129465433D01*
X151265195Y-129465432D01*
X151265196Y-129465428D01*
X151285610Y-129180000D01*
X151265196Y-128894572D01*
X151240714Y-128782032D01*
X151204371Y-128614962D01*
X151204370Y-128614960D01*
X151204369Y-128614954D01*
X151104367Y-128346839D01*
X151095245Y-128330134D01*
X150967229Y-128095690D01*
X150967224Y-128095682D01*
X150795745Y-127866612D01*
X150795729Y-127866594D01*
X150593405Y-127664270D01*
X150593387Y-127664254D01*
X150364317Y-127492775D01*
X150364309Y-127492770D01*
X150113166Y-127355635D01*
X150113167Y-127355635D01*
X149979406Y-127305745D01*
X149845046Y-127255631D01*
X149845043Y-127255630D01*
X149845037Y-127255628D01*
X149565433Y-127194804D01*
X149280001Y-127174390D01*
X149279999Y-127174390D01*
X148994566Y-127194804D01*
X148714962Y-127255628D01*
X148446833Y-127355635D01*
X148195690Y-127492770D01*
X148195682Y-127492775D01*
X147966612Y-127664254D01*
X147966594Y-127664270D01*
X147764270Y-127866594D01*
X147764254Y-127866612D01*
X147592775Y-128095682D01*
X147592770Y-128095690D01*
X147455635Y-128346833D01*
X147355628Y-128614962D01*
X147294804Y-128894566D01*
X147274390Y-129179998D01*
X147274390Y-129180001D01*
X146205610Y-129180001D01*
X146205610Y-129180000D01*
X146185196Y-128894572D01*
X146160714Y-128782032D01*
X146124371Y-128614962D01*
X146124370Y-128614960D01*
X146124369Y-128614954D01*
X146024367Y-128346839D01*
X146015245Y-128330134D01*
X145887229Y-128095690D01*
X145887224Y-128095682D01*
X145715745Y-127866612D01*
X145715729Y-127866594D01*
X145513405Y-127664270D01*
X145513387Y-127664254D01*
X145284317Y-127492775D01*
X145284309Y-127492770D01*
X145033166Y-127355635D01*
X145033167Y-127355635D01*
X144899406Y-127305745D01*
X144765046Y-127255631D01*
X144765043Y-127255630D01*
X144765037Y-127255628D01*
X144485433Y-127194804D01*
X144200001Y-127174390D01*
X144199999Y-127174390D01*
X143914566Y-127194804D01*
X143634962Y-127255628D01*
X143366833Y-127355635D01*
X143115690Y-127492770D01*
X143115682Y-127492775D01*
X142886612Y-127664254D01*
X142886594Y-127664270D01*
X142684270Y-127866594D01*
X142684254Y-127866612D01*
X142512775Y-128095682D01*
X142512770Y-128095690D01*
X142375635Y-128346833D01*
X142275628Y-128614962D01*
X142214804Y-128894566D01*
X142194390Y-129179998D01*
X142194390Y-129180001D01*
X136695610Y-129180001D01*
X136695610Y-129180000D01*
X136675196Y-128894572D01*
X136650714Y-128782032D01*
X136614371Y-128614962D01*
X136614370Y-128614960D01*
X136614369Y-128614954D01*
X136514367Y-128346839D01*
X136505245Y-128330134D01*
X136377229Y-128095690D01*
X136377224Y-128095682D01*
X136205745Y-127866612D01*
X136205729Y-127866594D01*
X136003405Y-127664270D01*
X136003387Y-127664254D01*
X135774317Y-127492775D01*
X135774309Y-127492770D01*
X135592381Y-127393430D01*
X135523161Y-127355633D01*
X135523158Y-127355632D01*
X135523151Y-127355628D01*
X135521149Y-127354881D01*
X135520575Y-127354451D01*
X135519123Y-127353788D01*
X135519267Y-127353471D01*
X135465222Y-127313002D01*
X135440815Y-127247534D01*
X135440500Y-127238706D01*
X135440500Y-96504500D01*
X135460185Y-96437461D01*
X135512989Y-96391706D01*
X135560924Y-96381277D01*
X135560901Y-96381029D01*
X135562934Y-96380840D01*
X135564500Y-96380500D01*
X135566608Y-96380500D01*
X135566610Y-96380500D01*
X135776198Y-96341321D01*
X135975019Y-96264298D01*
X136156302Y-96152052D01*
X136313872Y-96008407D01*
X136442366Y-95838255D01*
X136506449Y-95709555D01*
X136553950Y-95658322D01*
X136621613Y-95640900D01*
X136687953Y-95662825D01*
X136728448Y-95709559D01*
X136767632Y-95788253D01*
X136849123Y-95896163D01*
X136886077Y-95945098D01*
X136896129Y-95958408D01*
X136959038Y-96015757D01*
X136995319Y-96075468D01*
X136999500Y-96107394D01*
X136999500Y-108196294D01*
X136998191Y-108214263D01*
X136994710Y-108238025D01*
X136999264Y-108290064D01*
X136999500Y-108295470D01*
X136999500Y-108303709D01*
X137003306Y-108336274D01*
X137010000Y-108412791D01*
X137011461Y-108419867D01*
X137011403Y-108419878D01*
X137013034Y-108427237D01*
X137013092Y-108427224D01*
X137014757Y-108434250D01*
X137041025Y-108506424D01*
X137065185Y-108579331D01*
X137068236Y-108585874D01*
X137068182Y-108585898D01*
X137071470Y-108592688D01*
X137071521Y-108592663D01*
X137074761Y-108599113D01*
X137074762Y-108599114D01*
X137074763Y-108599117D01*
X137099076Y-108636084D01*
X137116965Y-108663283D01*
X137157287Y-108728655D01*
X137161766Y-108734319D01*
X137161719Y-108734356D01*
X137166482Y-108740202D01*
X137166528Y-108740164D01*
X137171173Y-108745700D01*
X137227017Y-108798385D01*
X156541767Y-128113134D01*
X156575252Y-128174457D01*
X156570268Y-128244149D01*
X156562918Y-128260242D01*
X156515635Y-128346832D01*
X156415628Y-128614962D01*
X156354804Y-128894566D01*
X156334390Y-129179998D01*
X156334390Y-129180001D01*
X156354804Y-129465433D01*
X156415628Y-129745037D01*
X156515635Y-130013166D01*
X156652770Y-130264309D01*
X156652775Y-130264317D01*
X156824254Y-130493387D01*
X156824270Y-130493405D01*
X157026594Y-130695729D01*
X157026612Y-130695745D01*
X157255682Y-130867224D01*
X157255690Y-130867229D01*
X157506833Y-131004364D01*
X157506832Y-131004364D01*
X157506836Y-131004365D01*
X157506839Y-131004367D01*
X157774954Y-131104369D01*
X157774960Y-131104370D01*
X157774962Y-131104371D01*
X158054566Y-131165195D01*
X158054568Y-131165195D01*
X158054572Y-131165196D01*
X158308220Y-131183337D01*
X158339999Y-131185610D01*
X158340000Y-131185610D01*
X158340001Y-131185610D01*
X158368595Y-131183564D01*
X158625428Y-131165196D01*
X158905046Y-131104369D01*
X159173161Y-131004367D01*
X159424315Y-130867226D01*
X159653395Y-130695739D01*
X159855739Y-130493395D01*
X160027226Y-130264315D01*
X160164367Y-130013161D01*
X160264369Y-129745046D01*
X160313858Y-129517547D01*
X160325195Y-129465433D01*
X160325195Y-129465432D01*
X160325196Y-129465428D01*
X160345610Y-129180000D01*
X160325196Y-128894572D01*
X160300714Y-128782032D01*
X160264371Y-128614962D01*
X160264370Y-128614960D01*
X160264369Y-128614954D01*
X160164367Y-128346839D01*
X160155245Y-128330134D01*
X160027229Y-128095690D01*
X160027224Y-128095682D01*
X159855745Y-127866612D01*
X159855729Y-127866594D01*
X159653405Y-127664270D01*
X159653387Y-127664254D01*
X159424317Y-127492775D01*
X159424309Y-127492770D01*
X159173166Y-127355635D01*
X159173167Y-127355635D01*
X159039406Y-127305745D01*
X158905046Y-127255631D01*
X158905043Y-127255630D01*
X158905037Y-127255628D01*
X158625433Y-127194804D01*
X158340001Y-127174390D01*
X158339999Y-127174390D01*
X158054571Y-127194804D01*
X158054564Y-127194805D01*
X157867434Y-127235512D01*
X157797742Y-127230528D01*
X157753395Y-127202027D01*
X138536819Y-107985451D01*
X138503334Y-107924128D01*
X138500500Y-107897770D01*
X138500500Y-96107394D01*
X138520185Y-96040355D01*
X138540962Y-96015757D01*
X138546272Y-96010916D01*
X138603872Y-95958407D01*
X138700943Y-95829865D01*
X138757051Y-95788230D01*
X138826763Y-95783539D01*
X138887945Y-95817281D01*
X138898850Y-95829866D01*
X138974516Y-95930062D01*
X139013995Y-95982341D01*
X139026129Y-95998408D01*
X139089038Y-96055757D01*
X139125319Y-96115468D01*
X139129500Y-96147394D01*
X139129500Y-105496294D01*
X139128191Y-105514263D01*
X139124710Y-105538025D01*
X139129264Y-105590064D01*
X139129500Y-105595470D01*
X139129500Y-105603709D01*
X139133306Y-105636274D01*
X139140000Y-105712791D01*
X139141461Y-105719867D01*
X139141403Y-105719878D01*
X139143034Y-105727237D01*
X139143092Y-105727224D01*
X139144757Y-105734250D01*
X139171025Y-105806424D01*
X139195185Y-105879331D01*
X139198236Y-105885874D01*
X139198182Y-105885898D01*
X139201470Y-105892688D01*
X139201521Y-105892663D01*
X139204761Y-105899113D01*
X139204762Y-105899114D01*
X139204763Y-105899117D01*
X139206772Y-105902171D01*
X139246965Y-105963283D01*
X139287287Y-106028655D01*
X139291766Y-106034319D01*
X139291719Y-106034356D01*
X139296482Y-106040202D01*
X139296528Y-106040164D01*
X139301173Y-106045700D01*
X139357017Y-106098385D01*
X161541956Y-128283324D01*
X161575441Y-128344647D01*
X161570457Y-128414338D01*
X161558060Y-128447575D01*
X161508046Y-128581670D01*
X161495629Y-128614960D01*
X161434804Y-128894566D01*
X161414390Y-129179998D01*
X161414390Y-129180001D01*
X161434804Y-129465433D01*
X161495628Y-129745037D01*
X161595635Y-130013166D01*
X161732770Y-130264309D01*
X161732775Y-130264317D01*
X161904254Y-130493387D01*
X161904270Y-130493405D01*
X162106594Y-130695729D01*
X162106612Y-130695745D01*
X162335682Y-130867224D01*
X162335690Y-130867229D01*
X162586833Y-131004364D01*
X162586832Y-131004364D01*
X162586836Y-131004365D01*
X162586839Y-131004367D01*
X162854954Y-131104369D01*
X162854960Y-131104370D01*
X162854962Y-131104371D01*
X163134566Y-131165195D01*
X163134568Y-131165195D01*
X163134572Y-131165196D01*
X163388220Y-131183337D01*
X163419999Y-131185610D01*
X163420000Y-131185610D01*
X163420001Y-131185610D01*
X163448595Y-131183564D01*
X163705428Y-131165196D01*
X163985046Y-131104369D01*
X164253161Y-131004367D01*
X164504315Y-130867226D01*
X164733395Y-130695739D01*
X164935739Y-130493395D01*
X165107226Y-130264315D01*
X165244367Y-130013161D01*
X165344369Y-129745046D01*
X165393858Y-129517547D01*
X165405195Y-129465433D01*
X165405195Y-129465432D01*
X165405196Y-129465428D01*
X165425610Y-129180000D01*
X165405196Y-128894572D01*
X165380714Y-128782032D01*
X165344371Y-128614962D01*
X165344370Y-128614960D01*
X165344369Y-128614954D01*
X165244367Y-128346839D01*
X165235245Y-128330134D01*
X165107229Y-128095690D01*
X165107224Y-128095682D01*
X164935745Y-127866612D01*
X164935729Y-127866594D01*
X164733405Y-127664270D01*
X164733387Y-127664254D01*
X164504317Y-127492775D01*
X164504309Y-127492770D01*
X164253166Y-127355635D01*
X164253167Y-127355635D01*
X164119406Y-127305745D01*
X163985046Y-127255631D01*
X163985043Y-127255630D01*
X163985037Y-127255628D01*
X163705433Y-127194804D01*
X163420001Y-127174390D01*
X163419999Y-127174390D01*
X163134566Y-127194804D01*
X162854956Y-127255630D01*
X162854955Y-127255630D01*
X162770871Y-127286991D01*
X162701179Y-127291975D01*
X162639858Y-127258490D01*
X151938799Y-116557431D01*
X151905314Y-116496108D01*
X151910298Y-116426416D01*
X151952170Y-116370483D01*
X152015670Y-116346223D01*
X152136692Y-116335635D01*
X152356496Y-116276739D01*
X152562734Y-116180568D01*
X152749139Y-116050047D01*
X152910047Y-115889139D01*
X153040568Y-115702734D01*
X153136739Y-115496496D01*
X153195635Y-115276692D01*
X153215468Y-115050001D01*
X158044532Y-115050001D01*
X158064364Y-115276686D01*
X158064366Y-115276697D01*
X158123258Y-115496488D01*
X158123261Y-115496497D01*
X158219431Y-115702732D01*
X158219432Y-115702734D01*
X158349954Y-115889141D01*
X158510858Y-116050045D01*
X158510861Y-116050047D01*
X158697266Y-116180568D01*
X158903504Y-116276739D01*
X159123308Y-116335635D01*
X159285230Y-116349801D01*
X159349998Y-116355468D01*
X159350000Y-116355468D01*
X159350002Y-116355468D01*
X159406673Y-116350509D01*
X159576692Y-116335635D01*
X159796496Y-116276739D01*
X160002734Y-116180568D01*
X160189139Y-116050047D01*
X160350047Y-115889139D01*
X160480568Y-115702734D01*
X160576739Y-115496496D01*
X160635635Y-115276692D01*
X160655468Y-115050000D01*
X160636437Y-114832475D01*
X160650204Y-114763976D01*
X160698819Y-114713793D01*
X160766847Y-114697860D01*
X160832691Y-114721235D01*
X160847646Y-114733988D01*
X175033181Y-128919523D01*
X175066666Y-128980846D01*
X175069500Y-129007204D01*
X175069500Y-132852796D01*
X175049815Y-132919835D01*
X175033181Y-132940477D01*
X174550477Y-133423181D01*
X174489154Y-133456666D01*
X174462796Y-133459500D01*
X172894952Y-133459500D01*
X172842548Y-133447882D01*
X172809304Y-133432380D01*
X172756866Y-133386208D01*
X172737715Y-133319014D01*
X172757931Y-133252133D01*
X172809301Y-133207620D01*
X172917639Y-133157102D01*
X173096877Y-133031598D01*
X173251598Y-132876877D01*
X173377102Y-132697639D01*
X173469575Y-132499330D01*
X173526207Y-132287977D01*
X173545277Y-132070000D01*
X173526207Y-131852023D01*
X173469575Y-131640670D01*
X173377102Y-131442362D01*
X173377100Y-131442359D01*
X173377099Y-131442357D01*
X173251599Y-131263124D01*
X173251596Y-131263121D01*
X173096877Y-131108402D01*
X172917639Y-130982898D01*
X172917640Y-130982898D01*
X172917638Y-130982897D01*
X172818484Y-130936661D01*
X172719330Y-130890425D01*
X172719326Y-130890424D01*
X172719322Y-130890422D01*
X172507977Y-130833793D01*
X172290002Y-130814723D01*
X172289998Y-130814723D01*
X172144682Y-130827436D01*
X172072023Y-130833793D01*
X172072020Y-130833793D01*
X171860677Y-130890422D01*
X171860668Y-130890426D01*
X171662361Y-130982898D01*
X171662357Y-130982900D01*
X171483121Y-131108402D01*
X171328402Y-131263121D01*
X171202900Y-131442357D01*
X171202898Y-131442361D01*
X171110426Y-131640668D01*
X171110422Y-131640677D01*
X171053793Y-131852020D01*
X171053793Y-131852024D01*
X171034723Y-132069997D01*
X171034723Y-132070002D01*
X171053793Y-132287975D01*
X171053793Y-132287979D01*
X171110422Y-132499322D01*
X171110424Y-132499326D01*
X171110425Y-132499330D01*
X171131476Y-132544473D01*
X171202897Y-132697638D01*
X171202898Y-132697639D01*
X171328402Y-132876877D01*
X171483123Y-133031598D01*
X171662358Y-133157100D01*
X171662361Y-133157102D01*
X171770693Y-133207618D01*
X171823132Y-133253790D01*
X171842284Y-133320984D01*
X171822068Y-133387865D01*
X171770693Y-133432382D01*
X171662362Y-133482898D01*
X171662357Y-133482900D01*
X171483121Y-133608402D01*
X171328402Y-133763121D01*
X171202900Y-133942357D01*
X171202898Y-133942361D01*
X171110426Y-134140668D01*
X171110422Y-134140677D01*
X171053793Y-134352020D01*
X171053793Y-134352024D01*
X171034723Y-134569997D01*
X171034723Y-134570002D01*
X171053793Y-134787975D01*
X171053793Y-134787979D01*
X171110422Y-134999322D01*
X171110424Y-134999326D01*
X171110425Y-134999330D01*
X171156661Y-135098484D01*
X171202897Y-135197638D01*
X171202898Y-135197639D01*
X171328402Y-135376877D01*
X171483123Y-135531598D01*
X171572137Y-135593926D01*
X171615761Y-135648502D01*
X171622954Y-135718000D01*
X171591432Y-135780355D01*
X171531202Y-135815769D01*
X171501023Y-135819500D01*
X171492134Y-135819500D01*
X171492123Y-135819501D01*
X171432516Y-135825908D01*
X171297671Y-135876202D01*
X171297664Y-135876206D01*
X171182455Y-135962452D01*
X171182452Y-135962455D01*
X171096206Y-136077664D01*
X171096202Y-136077671D01*
X171045908Y-136212517D01*
X171039501Y-136272116D01*
X171039501Y-136272123D01*
X171039500Y-136272135D01*
X171039500Y-137867870D01*
X171039501Y-137867876D01*
X171045908Y-137927483D01*
X171096202Y-138062328D01*
X171096206Y-138062335D01*
X171182452Y-138177544D01*
X171182455Y-138177547D01*
X171297664Y-138263793D01*
X171297671Y-138263797D01*
X171432517Y-138314091D01*
X171432516Y-138314091D01*
X171439444Y-138314835D01*
X171492127Y-138320500D01*
X173087872Y-138320499D01*
X173147483Y-138314091D01*
X173282331Y-138263796D01*
X173397546Y-138177546D01*
X173483796Y-138062331D01*
X173534091Y-137927483D01*
X173540500Y-137867873D01*
X173540499Y-136272128D01*
X173534091Y-136212517D01*
X173483796Y-136077669D01*
X173483795Y-136077668D01*
X173483793Y-136077664D01*
X173397547Y-135962455D01*
X173292433Y-135883766D01*
X173250563Y-135827832D01*
X173245579Y-135758141D01*
X173279065Y-135696818D01*
X173340388Y-135663334D01*
X173366745Y-135660500D01*
X174867763Y-135660500D01*
X174888326Y-135662216D01*
X174891134Y-135662689D01*
X174981086Y-135660547D01*
X174983085Y-135660500D01*
X175022417Y-135660500D01*
X175022425Y-135660500D01*
X175022434Y-135660499D01*
X175022436Y-135660499D01*
X175023305Y-135660415D01*
X175033291Y-135659462D01*
X175037692Y-135659199D01*
X175101245Y-135657687D01*
X175136260Y-135650069D01*
X175143536Y-135648934D01*
X175179218Y-135645528D01*
X175240232Y-135627611D01*
X175244488Y-135626525D01*
X175306612Y-135613013D01*
X175339557Y-135598904D01*
X175346488Y-135596412D01*
X175380875Y-135586316D01*
X175437385Y-135557182D01*
X175441375Y-135555303D01*
X175455795Y-135549127D01*
X175499812Y-135530279D01*
X175529495Y-135510187D01*
X175535815Y-135506438D01*
X175567682Y-135490011D01*
X175617663Y-135450702D01*
X175621221Y-135448105D01*
X175673865Y-135412477D01*
X175699211Y-135387129D01*
X175704720Y-135382240D01*
X175732886Y-135360092D01*
X175732888Y-135360088D01*
X175732890Y-135360088D01*
X175753217Y-135336627D01*
X175774524Y-135312038D01*
X175777506Y-135308834D01*
X175786340Y-135300000D01*
X178704473Y-135300000D01*
X178724563Y-135632136D01*
X178724563Y-135632141D01*
X178724564Y-135632142D01*
X178784544Y-135959441D01*
X178784545Y-135959445D01*
X178784546Y-135959449D01*
X178883530Y-136277104D01*
X178883534Y-136277116D01*
X178883537Y-136277123D01*
X179020102Y-136580557D01*
X179192246Y-136865318D01*
X179192251Y-136865326D01*
X179397460Y-137127255D01*
X179632744Y-137362539D01*
X179894673Y-137567748D01*
X179894678Y-137567751D01*
X179894682Y-137567754D01*
X180179443Y-137739898D01*
X180482877Y-137876463D01*
X180482890Y-137876467D01*
X180482895Y-137876469D01*
X180646604Y-137927482D01*
X180800559Y-137975456D01*
X181127858Y-138035436D01*
X181460000Y-138055527D01*
X181792142Y-138035436D01*
X182119441Y-137975456D01*
X182437123Y-137876463D01*
X182740557Y-137739898D01*
X183025318Y-137567754D01*
X183287252Y-137362542D01*
X183522542Y-137127252D01*
X183727754Y-136865318D01*
X183899898Y-136580557D01*
X184036463Y-136277123D01*
X184038020Y-136272128D01*
X184098616Y-136077664D01*
X184135456Y-135959441D01*
X184195436Y-135632142D01*
X184215527Y-135300000D01*
X184195436Y-134967858D01*
X184135456Y-134640559D01*
X184045546Y-134352024D01*
X184036469Y-134322895D01*
X184036467Y-134322890D01*
X184036463Y-134322877D01*
X183899898Y-134019443D01*
X183727754Y-133734682D01*
X183727751Y-133734678D01*
X183727748Y-133734673D01*
X183522539Y-133472744D01*
X183287255Y-133237460D01*
X183025326Y-133032251D01*
X183024238Y-133031593D01*
X182740557Y-132860102D01*
X182437123Y-132723537D01*
X182437116Y-132723534D01*
X182437104Y-132723530D01*
X182119449Y-132624546D01*
X182119445Y-132624545D01*
X182119441Y-132624544D01*
X181792142Y-132564564D01*
X181792141Y-132564563D01*
X181792136Y-132564563D01*
X181460000Y-132544473D01*
X181127863Y-132564563D01*
X181127858Y-132564564D01*
X180800559Y-132624544D01*
X180800556Y-132624544D01*
X180800550Y-132624546D01*
X180482895Y-132723530D01*
X180482879Y-132723536D01*
X180482877Y-132723537D01*
X180179443Y-132860102D01*
X180087823Y-132915487D01*
X179894673Y-133032251D01*
X179632744Y-133237460D01*
X179397460Y-133472744D01*
X179192251Y-133734673D01*
X179155673Y-133795181D01*
X179025735Y-134010126D01*
X179020101Y-134019445D01*
X179020100Y-134019447D01*
X178883536Y-134322880D01*
X178883530Y-134322895D01*
X178784546Y-134640550D01*
X178724563Y-134967863D01*
X178704473Y-135300000D01*
X175786340Y-135300000D01*
X176875879Y-134210461D01*
X176891631Y-134197138D01*
X176893952Y-134195486D01*
X176957427Y-134128914D01*
X176985241Y-134101101D01*
X176992203Y-134092667D01*
X176995107Y-134089395D01*
X177038986Y-134043378D01*
X177058364Y-134013223D01*
X177062700Y-134007285D01*
X177085523Y-133979645D01*
X177115988Y-133923851D01*
X177118243Y-133920051D01*
X177152613Y-133866572D01*
X177157531Y-133854285D01*
X177165933Y-133833300D01*
X177169074Y-133826630D01*
X177186247Y-133795183D01*
X177205610Y-133734605D01*
X177207081Y-133730513D01*
X177230725Y-133671457D01*
X177237507Y-133636264D01*
X177239328Y-133629129D01*
X177250242Y-133594992D01*
X177257792Y-133531833D01*
X177258464Y-133527528D01*
X177270500Y-133465085D01*
X177270500Y-133429248D01*
X177270939Y-133421882D01*
X177271602Y-133416334D01*
X177275192Y-133386309D01*
X177270658Y-133322913D01*
X177270500Y-133318489D01*
X177270500Y-128602237D01*
X177272218Y-128581670D01*
X177272687Y-128578876D01*
X177272689Y-128578866D01*
X177270500Y-128486916D01*
X177270500Y-128447575D01*
X177269462Y-128436708D01*
X177269199Y-128432298D01*
X177267687Y-128368755D01*
X177260070Y-128333746D01*
X177258933Y-128326452D01*
X177255528Y-128290782D01*
X177237613Y-128229772D01*
X177236524Y-128225503D01*
X177226359Y-128178771D01*
X177223013Y-128163388D01*
X177208901Y-128130434D01*
X177206411Y-128123507D01*
X177196316Y-128089125D01*
X177196313Y-128089120D01*
X177196312Y-128089115D01*
X177167186Y-128032620D01*
X177165305Y-128028627D01*
X177140279Y-127970187D01*
X177140278Y-127970185D01*
X177140277Y-127970183D01*
X177140276Y-127970182D01*
X177120195Y-127940511D01*
X177116429Y-127934164D01*
X177100016Y-127902328D01*
X177100011Y-127902318D01*
X177060706Y-127852339D01*
X177058099Y-127848767D01*
X177050789Y-127837967D01*
X177022477Y-127796135D01*
X176997130Y-127770788D01*
X176992245Y-127765283D01*
X176970092Y-127737114D01*
X176922048Y-127695483D01*
X176918808Y-127692466D01*
X165816343Y-116590001D01*
X175844532Y-116590001D01*
X175864364Y-116816686D01*
X175864366Y-116816697D01*
X175923258Y-117036488D01*
X175923261Y-117036497D01*
X176019431Y-117242732D01*
X176019432Y-117242734D01*
X176149954Y-117429141D01*
X176310858Y-117590045D01*
X176310861Y-117590047D01*
X176497266Y-117720568D01*
X176703504Y-117816739D01*
X176923308Y-117875635D01*
X177085230Y-117889801D01*
X177149998Y-117895468D01*
X177150000Y-117895468D01*
X177150002Y-117895468D01*
X177206673Y-117890509D01*
X177376692Y-117875635D01*
X177596496Y-117816739D01*
X177802734Y-117720568D01*
X177989139Y-117590047D01*
X178150047Y-117429139D01*
X178280568Y-117242734D01*
X178376739Y-117036496D01*
X178435635Y-116816692D01*
X178455468Y-116590000D01*
X178435635Y-116363308D01*
X178376739Y-116143504D01*
X178280568Y-115937266D01*
X178150047Y-115750861D01*
X178150045Y-115750858D01*
X177989141Y-115589954D01*
X177802734Y-115459432D01*
X177802732Y-115459431D01*
X177596497Y-115363261D01*
X177596488Y-115363258D01*
X177376697Y-115304366D01*
X177376693Y-115304365D01*
X177376692Y-115304365D01*
X177376691Y-115304364D01*
X177376686Y-115304364D01*
X177150002Y-115284532D01*
X177149998Y-115284532D01*
X176923313Y-115304364D01*
X176923302Y-115304366D01*
X176703511Y-115363258D01*
X176703502Y-115363261D01*
X176497267Y-115459431D01*
X176497265Y-115459432D01*
X176310858Y-115589954D01*
X176149954Y-115750858D01*
X176019432Y-115937265D01*
X176019431Y-115937267D01*
X175923261Y-116143502D01*
X175923258Y-116143511D01*
X175864366Y-116363302D01*
X175864364Y-116363313D01*
X175844532Y-116589998D01*
X175844532Y-116590001D01*
X165816343Y-116590001D01*
X161070466Y-111844124D01*
X161057137Y-111828366D01*
X161055488Y-111826050D01*
X161055485Y-111826047D01*
X160988915Y-111762572D01*
X160975003Y-111748661D01*
X160961101Y-111734759D01*
X160961095Y-111734754D01*
X160961092Y-111734751D01*
X160952679Y-111727804D01*
X160949369Y-111724866D01*
X160903379Y-111681015D01*
X160903371Y-111681009D01*
X160873244Y-111661647D01*
X160867286Y-111657297D01*
X160839647Y-111634478D01*
X160839645Y-111634476D01*
X160783837Y-111604002D01*
X160780050Y-111601755D01*
X160759645Y-111588642D01*
X160726575Y-111567388D01*
X160726576Y-111567388D01*
X160693305Y-111554068D01*
X160686630Y-111550923D01*
X160655187Y-111533754D01*
X160655186Y-111533753D01*
X160655183Y-111533752D01*
X160637905Y-111528228D01*
X160580045Y-111489066D01*
X160576408Y-111484442D01*
X160507546Y-111392454D01*
X160484709Y-111375358D01*
X160392335Y-111306206D01*
X160392328Y-111306202D01*
X160257482Y-111255908D01*
X160257483Y-111255908D01*
X160197883Y-111249501D01*
X160197881Y-111249500D01*
X160197873Y-111249500D01*
X160197864Y-111249500D01*
X158502129Y-111249500D01*
X158502123Y-111249501D01*
X158442516Y-111255908D01*
X158307671Y-111306202D01*
X158307664Y-111306206D01*
X158192455Y-111392452D01*
X158192452Y-111392455D01*
X158106206Y-111507664D01*
X158106202Y-111507671D01*
X158055908Y-111642517D01*
X158049916Y-111698256D01*
X158049501Y-111702123D01*
X158049500Y-111702135D01*
X158049500Y-113397870D01*
X158049501Y-113397876D01*
X158055908Y-113457483D01*
X158106202Y-113592328D01*
X158106206Y-113592335D01*
X158192452Y-113707544D01*
X158192455Y-113707547D01*
X158307664Y-113793793D01*
X158307671Y-113793797D01*
X158360927Y-113813660D01*
X158442517Y-113844091D01*
X158442527Y-113844092D01*
X158447913Y-113845365D01*
X158508631Y-113879935D01*
X158541021Y-113941843D01*
X158534799Y-114011435D01*
X158507088Y-114053725D01*
X158349951Y-114210862D01*
X158219432Y-114397265D01*
X158219431Y-114397267D01*
X158123261Y-114603502D01*
X158123258Y-114603511D01*
X158064366Y-114823302D01*
X158064364Y-114823313D01*
X158044532Y-115049998D01*
X158044532Y-115050001D01*
X153215468Y-115050001D01*
X153215468Y-115050000D01*
X153195635Y-114823308D01*
X153136739Y-114603504D01*
X153040568Y-114397266D01*
X152910047Y-114210861D01*
X152910045Y-114210858D01*
X152752913Y-114053726D01*
X152719428Y-113992403D01*
X152724412Y-113922711D01*
X152766284Y-113866778D01*
X152812078Y-113845368D01*
X152817480Y-113844091D01*
X152817483Y-113844091D01*
X152952331Y-113793796D01*
X153067546Y-113707546D01*
X153153796Y-113592331D01*
X153204091Y-113457483D01*
X153210500Y-113397873D01*
X153210499Y-111702128D01*
X153204091Y-111642517D01*
X153189728Y-111604009D01*
X153153797Y-111507671D01*
X153153793Y-111507664D01*
X153067547Y-111392455D01*
X153067544Y-111392452D01*
X152952335Y-111306206D01*
X152952328Y-111306202D01*
X152817482Y-111255908D01*
X152817483Y-111255908D01*
X152757883Y-111249501D01*
X152757881Y-111249500D01*
X152757873Y-111249500D01*
X152757864Y-111249500D01*
X151062129Y-111249500D01*
X151062123Y-111249501D01*
X151002516Y-111255908D01*
X150867671Y-111306202D01*
X150867664Y-111306206D01*
X150752455Y-111392452D01*
X150752452Y-111392455D01*
X150666206Y-111507664D01*
X150666202Y-111507671D01*
X150615908Y-111642517D01*
X150609916Y-111698256D01*
X150609501Y-111702123D01*
X150609500Y-111702135D01*
X150609500Y-113397870D01*
X150609501Y-113397876D01*
X150615908Y-113457483D01*
X150666202Y-113592328D01*
X150666206Y-113592335D01*
X150752452Y-113707544D01*
X150752455Y-113707547D01*
X150867664Y-113793793D01*
X150867671Y-113793797D01*
X150920927Y-113813660D01*
X151002517Y-113844091D01*
X151002527Y-113844092D01*
X151007913Y-113845365D01*
X151068631Y-113879935D01*
X151101021Y-113941843D01*
X151094799Y-114011435D01*
X151067088Y-114053725D01*
X150909951Y-114210862D01*
X150779432Y-114397265D01*
X150779431Y-114397267D01*
X150683261Y-114603502D01*
X150683258Y-114603511D01*
X150624366Y-114823302D01*
X150624364Y-114823312D01*
X150613777Y-114944327D01*
X150588324Y-115009395D01*
X150531733Y-115050374D01*
X150461971Y-115054252D01*
X150402568Y-115021200D01*
X144551369Y-109170001D01*
X175866907Y-109170001D01*
X175886739Y-109396686D01*
X175886741Y-109396697D01*
X175945633Y-109616488D01*
X175945636Y-109616497D01*
X176041806Y-109822732D01*
X176041807Y-109822734D01*
X176172329Y-110009141D01*
X176333233Y-110170045D01*
X176333236Y-110170047D01*
X176519641Y-110300568D01*
X176725879Y-110396739D01*
X176945683Y-110455635D01*
X177107605Y-110469801D01*
X177172373Y-110475468D01*
X177172375Y-110475468D01*
X177172377Y-110475468D01*
X177229048Y-110470509D01*
X177399067Y-110455635D01*
X177618871Y-110396739D01*
X177825109Y-110300568D01*
X178011514Y-110170047D01*
X178172422Y-110009139D01*
X178302943Y-109822734D01*
X178399114Y-109616496D01*
X178458010Y-109396692D01*
X178477843Y-109170000D01*
X178473468Y-109119999D01*
X178458010Y-108943313D01*
X178458010Y-108943308D01*
X178402012Y-108734319D01*
X178399116Y-108723511D01*
X178399113Y-108723502D01*
X178370206Y-108661511D01*
X178302943Y-108517266D01*
X178172422Y-108330861D01*
X178172420Y-108330858D01*
X178011516Y-108169954D01*
X177825109Y-108039432D01*
X177825107Y-108039431D01*
X177618872Y-107943261D01*
X177618863Y-107943258D01*
X177399072Y-107884366D01*
X177399068Y-107884365D01*
X177399067Y-107884365D01*
X177399066Y-107884364D01*
X177399061Y-107884364D01*
X177172377Y-107864532D01*
X177172373Y-107864532D01*
X176945688Y-107884364D01*
X176945677Y-107884366D01*
X176725886Y-107943258D01*
X176725877Y-107943261D01*
X176519642Y-108039431D01*
X176519640Y-108039432D01*
X176333233Y-108169954D01*
X176172329Y-108330858D01*
X176041807Y-108517265D01*
X176041806Y-108517267D01*
X175945636Y-108723502D01*
X175945633Y-108723511D01*
X175886741Y-108943302D01*
X175886739Y-108943313D01*
X175866907Y-109169998D01*
X175866907Y-109170001D01*
X144551369Y-109170001D01*
X140666819Y-105285451D01*
X140633334Y-105224128D01*
X140630500Y-105197770D01*
X140630500Y-96210000D01*
X145784473Y-96210000D01*
X145804563Y-96542136D01*
X145804563Y-96542141D01*
X145804564Y-96542142D01*
X145864544Y-96869441D01*
X145864545Y-96869445D01*
X145864546Y-96869449D01*
X145963530Y-97187104D01*
X145963534Y-97187116D01*
X145963537Y-97187123D01*
X146100102Y-97490557D01*
X146191498Y-97641744D01*
X146272251Y-97775326D01*
X146477460Y-98037255D01*
X146712744Y-98272539D01*
X146974673Y-98477748D01*
X146974678Y-98477751D01*
X146974682Y-98477754D01*
X147259443Y-98649898D01*
X147562877Y-98786463D01*
X147562890Y-98786467D01*
X147562895Y-98786469D01*
X147774665Y-98852458D01*
X147880559Y-98885456D01*
X148207858Y-98945436D01*
X148540000Y-98965527D01*
X148872142Y-98945436D01*
X149199441Y-98885456D01*
X149488632Y-98795341D01*
X149517104Y-98786469D01*
X149517104Y-98786468D01*
X149517123Y-98786463D01*
X149820557Y-98649898D01*
X150105318Y-98477754D01*
X150367252Y-98272542D01*
X150602542Y-98037252D01*
X150763728Y-97831513D01*
X150807748Y-97775326D01*
X150807748Y-97775324D01*
X150807754Y-97775318D01*
X150979898Y-97490557D01*
X151116463Y-97187123D01*
X151123973Y-97163024D01*
X151179530Y-96984733D01*
X151215456Y-96869441D01*
X151275436Y-96542142D01*
X151295527Y-96210000D01*
X151275436Y-95877858D01*
X151215456Y-95550559D01*
X151151740Y-95346085D01*
X151116469Y-95232895D01*
X151116467Y-95232890D01*
X151116463Y-95232877D01*
X150979898Y-94929443D01*
X150807754Y-94644682D01*
X150807751Y-94644678D01*
X150807748Y-94644673D01*
X150602539Y-94382744D01*
X150367255Y-94147460D01*
X150105326Y-93942251D01*
X150097467Y-93937500D01*
X149820557Y-93770102D01*
X149517123Y-93633537D01*
X149517116Y-93633534D01*
X149517104Y-93633530D01*
X149199449Y-93534546D01*
X149199445Y-93534545D01*
X149199441Y-93534544D01*
X148872142Y-93474564D01*
X148872141Y-93474563D01*
X148872136Y-93474563D01*
X148540000Y-93454473D01*
X148207863Y-93474563D01*
X148207858Y-93474564D01*
X147880559Y-93534544D01*
X147880556Y-93534544D01*
X147880550Y-93534546D01*
X147562895Y-93633530D01*
X147562879Y-93633536D01*
X147562877Y-93633537D01*
X147451869Y-93683498D01*
X147259447Y-93770100D01*
X147259445Y-93770101D01*
X146974673Y-93942251D01*
X146712744Y-94147460D01*
X146477460Y-94382744D01*
X146272251Y-94644673D01*
X146205342Y-94755355D01*
X146118980Y-94898216D01*
X146100101Y-94929445D01*
X146100100Y-94929447D01*
X146091032Y-94949596D01*
X145964833Y-95229999D01*
X145963536Y-95232880D01*
X145963530Y-95232895D01*
X145864546Y-95550550D01*
X145864544Y-95550556D01*
X145864544Y-95550559D01*
X145825736Y-95762327D01*
X145804563Y-95877863D01*
X145784473Y-96210000D01*
X140630500Y-96210000D01*
X140630500Y-96147394D01*
X140650185Y-96080355D01*
X140670962Y-96055757D01*
X140682213Y-96045500D01*
X140733872Y-95998407D01*
X140862366Y-95828255D01*
X140868533Y-95815869D01*
X140957403Y-95637394D01*
X140957403Y-95637393D01*
X140957405Y-95637389D01*
X141015756Y-95432310D01*
X141035429Y-95220000D01*
X141035245Y-95218019D01*
X141030314Y-95164803D01*
X141015756Y-95007690D01*
X140957405Y-94802611D01*
X140957403Y-94802606D01*
X140957403Y-94802605D01*
X140862367Y-94611746D01*
X140733872Y-94441593D01*
X140683926Y-94396061D01*
X140576302Y-94297948D01*
X140395019Y-94185702D01*
X140395017Y-94185701D01*
X140291764Y-94145701D01*
X140196198Y-94108679D01*
X139986610Y-94069500D01*
X139773390Y-94069500D01*
X139563802Y-94108679D01*
X139563799Y-94108679D01*
X139563799Y-94108680D01*
X139364982Y-94185701D01*
X139364980Y-94185702D01*
X139183699Y-94297947D01*
X139026126Y-94441594D01*
X138929056Y-94570134D01*
X138872947Y-94611769D01*
X138803235Y-94616460D01*
X138742053Y-94582717D01*
X138731149Y-94570133D01*
X138603872Y-94401593D01*
X138588497Y-94387577D01*
X138446302Y-94257948D01*
X138265019Y-94145702D01*
X138265017Y-94145701D01*
X138165608Y-94107190D01*
X138066198Y-94068679D01*
X137856610Y-94029500D01*
X137643390Y-94029500D01*
X137433802Y-94068679D01*
X137433799Y-94068679D01*
X137433799Y-94068680D01*
X137234982Y-94145701D01*
X137234980Y-94145702D01*
X137053699Y-94257947D01*
X136896127Y-94401593D01*
X136767634Y-94571744D01*
X136703551Y-94700441D01*
X136656048Y-94751678D01*
X136588385Y-94769099D01*
X136522045Y-94747173D01*
X136481552Y-94700442D01*
X136442366Y-94621745D01*
X136434832Y-94611769D01*
X136313872Y-94451593D01*
X136259025Y-94401593D01*
X136156302Y-94307948D01*
X135975019Y-94195702D01*
X135975017Y-94195701D01*
X135853640Y-94148680D01*
X135776198Y-94118679D01*
X135566610Y-94079500D01*
X135353390Y-94079500D01*
X135143802Y-94118679D01*
X135143799Y-94118679D01*
X135143799Y-94118680D01*
X134944982Y-94195701D01*
X134944980Y-94195702D01*
X134763699Y-94307947D01*
X134606127Y-94451593D01*
X134477632Y-94621746D01*
X134382596Y-94812605D01*
X134382596Y-94812607D01*
X134324244Y-95017689D01*
X134304571Y-95229999D01*
X134304571Y-95230004D01*
X134307176Y-95258125D01*
X134293760Y-95326694D01*
X134271386Y-95357244D01*
X134204358Y-95424272D01*
X134190729Y-95436051D01*
X134171468Y-95450390D01*
X134137898Y-95490397D01*
X134134253Y-95494376D01*
X134128412Y-95500219D01*
X134121255Y-95509271D01*
X134064233Y-95549647D01*
X133994433Y-95552785D01*
X133934018Y-95517689D01*
X133902168Y-95455501D01*
X133900518Y-95420918D01*
X133915429Y-95260000D01*
X133915429Y-95259999D01*
X133912916Y-95232877D01*
X133895756Y-95047690D01*
X133837405Y-94842611D01*
X133837403Y-94842606D01*
X133837403Y-94842605D01*
X133742367Y-94651746D01*
X133613872Y-94481593D01*
X133568032Y-94439804D01*
X133456302Y-94337948D01*
X133275019Y-94225702D01*
X133275017Y-94225701D01*
X133148235Y-94176586D01*
X133076198Y-94148679D01*
X132866610Y-94109500D01*
X132653390Y-94109500D01*
X132443802Y-94148679D01*
X132443799Y-94148679D01*
X132443799Y-94148680D01*
X132244982Y-94225701D01*
X132244980Y-94225702D01*
X132063699Y-94337947D01*
X131906127Y-94481593D01*
X131777632Y-94651746D01*
X131682596Y-94842605D01*
X131682596Y-94842607D01*
X131624244Y-95047689D01*
X131604571Y-95259999D01*
X131604571Y-95260004D01*
X131607176Y-95288126D01*
X131593759Y-95356696D01*
X131571386Y-95387245D01*
X129124358Y-97834272D01*
X129110729Y-97846051D01*
X129091468Y-97860390D01*
X129057898Y-97900397D01*
X129054253Y-97904376D01*
X129048409Y-97910222D01*
X129028059Y-97935959D01*
X128978695Y-97994789D01*
X128974729Y-98000819D01*
X128974682Y-98000788D01*
X128970630Y-98007147D01*
X128970679Y-98007177D01*
X128966889Y-98013321D01*
X128934424Y-98082941D01*
X128899960Y-98151566D01*
X128897488Y-98158357D01*
X128897432Y-98158336D01*
X128894960Y-98165450D01*
X128895015Y-98165469D01*
X128892742Y-98172327D01*
X128884975Y-98209946D01*
X128877207Y-98247565D01*
X128864001Y-98303284D01*
X128859498Y-98322286D01*
X128858661Y-98329454D01*
X128858601Y-98329447D01*
X128857835Y-98336945D01*
X128857895Y-98336951D01*
X128857265Y-98344140D01*
X128859500Y-98420916D01*
X128859500Y-127238706D01*
X128839815Y-127305745D01*
X128787011Y-127351500D01*
X128778851Y-127354881D01*
X128776848Y-127355628D01*
X128525690Y-127492770D01*
X128525682Y-127492775D01*
X128296612Y-127664254D01*
X128296594Y-127664270D01*
X128094270Y-127866594D01*
X128094254Y-127866612D01*
X127922775Y-128095682D01*
X127922770Y-128095690D01*
X127785635Y-128346833D01*
X127685628Y-128614962D01*
X127624804Y-128894566D01*
X127604390Y-129179998D01*
X127604390Y-129180001D01*
X122809475Y-129180001D01*
X122944035Y-128987830D01*
X123043903Y-128773663D01*
X123105063Y-128545408D01*
X123125659Y-128310000D01*
X123105063Y-128074592D01*
X123045513Y-127852344D01*
X123043905Y-127846344D01*
X123043904Y-127846343D01*
X123043903Y-127846337D01*
X122944035Y-127632171D01*
X122938425Y-127624158D01*
X122808494Y-127438597D01*
X122641402Y-127271506D01*
X122641395Y-127271501D01*
X122618730Y-127255631D01*
X122564518Y-127217671D01*
X122447834Y-127135967D01*
X122447830Y-127135965D01*
X122447828Y-127135964D01*
X122233663Y-127036097D01*
X122233659Y-127036096D01*
X122233655Y-127036094D01*
X122005413Y-126974938D01*
X122005403Y-126974936D01*
X121770001Y-126954341D01*
X121769999Y-126954341D01*
X121534596Y-126974936D01*
X121534586Y-126974938D01*
X121306344Y-127036094D01*
X121306335Y-127036098D01*
X121092171Y-127135964D01*
X121092169Y-127135965D01*
X120898597Y-127271505D01*
X120731505Y-127438597D01*
X120601575Y-127624158D01*
X120546998Y-127667783D01*
X120477500Y-127674977D01*
X120415145Y-127643454D01*
X120398425Y-127624158D01*
X120268494Y-127438597D01*
X120101402Y-127271506D01*
X120101395Y-127271501D01*
X120078730Y-127255631D01*
X120024518Y-127217671D01*
X119907834Y-127135967D01*
X119907830Y-127135965D01*
X119907828Y-127135964D01*
X119693663Y-127036097D01*
X119693659Y-127036096D01*
X119693655Y-127036094D01*
X119465413Y-126974938D01*
X119465403Y-126974936D01*
X119230001Y-126954341D01*
X119229999Y-126954341D01*
X118994596Y-126974936D01*
X118994586Y-126974938D01*
X118766344Y-127036094D01*
X118766335Y-127036098D01*
X118552171Y-127135964D01*
X118552169Y-127135965D01*
X118358597Y-127271505D01*
X118191505Y-127438597D01*
X118061575Y-127624158D01*
X118006998Y-127667783D01*
X117937500Y-127674977D01*
X117875145Y-127643454D01*
X117858425Y-127624158D01*
X117728494Y-127438597D01*
X117561402Y-127271506D01*
X117561395Y-127271501D01*
X117538730Y-127255631D01*
X117484518Y-127217671D01*
X117367834Y-127135967D01*
X117367830Y-127135965D01*
X117367828Y-127135964D01*
X117153663Y-127036097D01*
X117153659Y-127036096D01*
X117153655Y-127036094D01*
X116925413Y-126974938D01*
X116925403Y-126974936D01*
X116690001Y-126954341D01*
X116689999Y-126954341D01*
X116454596Y-126974936D01*
X116454586Y-126974938D01*
X116226344Y-127036094D01*
X116226335Y-127036098D01*
X116012171Y-127135964D01*
X116012169Y-127135965D01*
X115818600Y-127271503D01*
X115696673Y-127393430D01*
X115635350Y-127426914D01*
X115565658Y-127421930D01*
X115509725Y-127380058D01*
X115492810Y-127349081D01*
X115443797Y-127217671D01*
X115443793Y-127217664D01*
X115357547Y-127102455D01*
X115357544Y-127102452D01*
X115242335Y-127016206D01*
X115242328Y-127016202D01*
X115107482Y-126965908D01*
X115107483Y-126965908D01*
X115047883Y-126959501D01*
X115047881Y-126959500D01*
X115047873Y-126959500D01*
X115047864Y-126959500D01*
X113252129Y-126959500D01*
X113252123Y-126959501D01*
X113192516Y-126965908D01*
X113057671Y-127016202D01*
X113057664Y-127016206D01*
X112942455Y-127102452D01*
X112942452Y-127102455D01*
X112856206Y-127217664D01*
X112856202Y-127217671D01*
X112805908Y-127352517D01*
X112799501Y-127412116D01*
X112799500Y-127412135D01*
X112799500Y-129207870D01*
X108984728Y-129207870D01*
X108992690Y-111050000D01*
X116684540Y-111050000D01*
X116704326Y-111238256D01*
X116704327Y-111238259D01*
X116762818Y-111418277D01*
X116762821Y-111418284D01*
X116857467Y-111582216D01*
X116965443Y-111702135D01*
X116984129Y-111722888D01*
X117137268Y-111834150D01*
X117137269Y-111834151D01*
X117177728Y-111852164D01*
X117214974Y-111877763D01*
X117422391Y-112085180D01*
X117425784Y-112088860D01*
X117442104Y-112108074D01*
X117461662Y-112131100D01*
X117520280Y-112175659D01*
X117561737Y-112231900D01*
X117566207Y-112301626D01*
X117532271Y-112362701D01*
X117495677Y-112387653D01*
X117477272Y-112395847D01*
X117477265Y-112395851D01*
X117324129Y-112507111D01*
X117197466Y-112647785D01*
X117102821Y-112811715D01*
X117102818Y-112811722D01*
X117063119Y-112933905D01*
X117044326Y-112991744D01*
X117024540Y-113180000D01*
X117044326Y-113368256D01*
X117044327Y-113368259D01*
X117102818Y-113548277D01*
X117102821Y-113548284D01*
X117197467Y-113712216D01*
X117270923Y-113793797D01*
X117324129Y-113852888D01*
X117477265Y-113964148D01*
X117477270Y-113964151D01*
X117650192Y-114041142D01*
X117650197Y-114041144D01*
X117835354Y-114080500D01*
X117835355Y-114080500D01*
X118024644Y-114080500D01*
X118024646Y-114080500D01*
X118209803Y-114041144D01*
X118209808Y-114041141D01*
X118215986Y-114039135D01*
X118216209Y-114039821D01*
X118260067Y-114030500D01*
X120504698Y-114030500D01*
X120571737Y-114050185D01*
X120596848Y-114071528D01*
X120724129Y-114212888D01*
X120877265Y-114324148D01*
X120877270Y-114324151D01*
X121050192Y-114401142D01*
X121050197Y-114401144D01*
X121235354Y-114440500D01*
X121235355Y-114440500D01*
X121424644Y-114440500D01*
X121424646Y-114440500D01*
X121609803Y-114401144D01*
X121782730Y-114324151D01*
X121935871Y-114212888D01*
X122062533Y-114072216D01*
X122157179Y-113908284D01*
X122215674Y-113728256D01*
X122235460Y-113540000D01*
X122215674Y-113351744D01*
X122157179Y-113171716D01*
X122062533Y-113007784D01*
X121935871Y-112867112D01*
X121935870Y-112867111D01*
X121782734Y-112755851D01*
X121782732Y-112755850D01*
X121742270Y-112737835D01*
X121705026Y-112712237D01*
X121691282Y-112698493D01*
X121597607Y-112604818D01*
X121594204Y-112601126D01*
X121558336Y-112558898D01*
X121518187Y-112528378D01*
X121476730Y-112472137D01*
X121472261Y-112402410D01*
X121506198Y-112341336D01*
X121542788Y-112316386D01*
X121592730Y-112294151D01*
X121745871Y-112182888D01*
X121872533Y-112042216D01*
X121967179Y-111878284D01*
X122025674Y-111698256D01*
X122045460Y-111510000D01*
X122025674Y-111321744D01*
X121967179Y-111141716D01*
X121872533Y-110977784D01*
X121745871Y-110837112D01*
X121745870Y-110837111D01*
X121592734Y-110725851D01*
X121592729Y-110725848D01*
X121419807Y-110648857D01*
X121419802Y-110648855D01*
X121274001Y-110617865D01*
X121234646Y-110609500D01*
X121045354Y-110609500D01*
X121005999Y-110617865D01*
X120860198Y-110648855D01*
X120854014Y-110650865D01*
X120853790Y-110650178D01*
X120809933Y-110659500D01*
X118475944Y-110659500D01*
X118408905Y-110639815D01*
X118368557Y-110597500D01*
X118322533Y-110517784D01*
X118195871Y-110377112D01*
X118195870Y-110377111D01*
X118042734Y-110265851D01*
X118042729Y-110265848D01*
X117869807Y-110188857D01*
X117869802Y-110188855D01*
X117724001Y-110157865D01*
X117684646Y-110149500D01*
X117495354Y-110149500D01*
X117462897Y-110156398D01*
X117310197Y-110188855D01*
X117310192Y-110188857D01*
X117137270Y-110265848D01*
X117137265Y-110265851D01*
X116984129Y-110377111D01*
X116857466Y-110517785D01*
X116762821Y-110681715D01*
X116762818Y-110681722D01*
X116712329Y-110837112D01*
X116704326Y-110861744D01*
X116684540Y-111050000D01*
X108992690Y-111050000D01*
X108998487Y-97830000D01*
X124764540Y-97830000D01*
X124784326Y-98018256D01*
X124784327Y-98018259D01*
X124813431Y-98107831D01*
X124819500Y-98146149D01*
X124819500Y-100392911D01*
X124819295Y-100397945D01*
X124814798Y-100453163D01*
X124825729Y-100533392D01*
X124834486Y-100613913D01*
X124834710Y-100614930D01*
X124839525Y-100635473D01*
X124839773Y-100636470D01*
X124867700Y-100712486D01*
X124893557Y-100789223D01*
X124894001Y-100790185D01*
X124903146Y-100809266D01*
X124903564Y-100810109D01*
X124903567Y-100810114D01*
X124903568Y-100810116D01*
X124947184Y-100878353D01*
X124988930Y-100947736D01*
X124989538Y-100948536D01*
X125002578Y-100965216D01*
X125003201Y-100965991D01*
X125060459Y-101023249D01*
X125116152Y-101082042D01*
X125116983Y-101082747D01*
X125134119Y-101096908D01*
X125141283Y-101104072D01*
X125160989Y-101129753D01*
X125237465Y-101262214D01*
X125364129Y-101402888D01*
X125517265Y-101514148D01*
X125517270Y-101514151D01*
X125690192Y-101591142D01*
X125690197Y-101591144D01*
X125875354Y-101630500D01*
X125875355Y-101630500D01*
X126064644Y-101630500D01*
X126064646Y-101630500D01*
X126249803Y-101591144D01*
X126422730Y-101514151D01*
X126575871Y-101402888D01*
X126702533Y-101262216D01*
X126714074Y-101242225D01*
X126764640Y-101194010D01*
X126833246Y-101180785D01*
X126898112Y-101206752D01*
X126913606Y-101221247D01*
X127014129Y-101332888D01*
X127167265Y-101444148D01*
X127167270Y-101444151D01*
X127340192Y-101521142D01*
X127340197Y-101521144D01*
X127525354Y-101560500D01*
X127525355Y-101560500D01*
X127714644Y-101560500D01*
X127714646Y-101560500D01*
X127899803Y-101521144D01*
X128072730Y-101444151D01*
X128225871Y-101332888D01*
X128352533Y-101192216D01*
X128447179Y-101028284D01*
X128505674Y-100848256D01*
X128525460Y-100660000D01*
X128505674Y-100471744D01*
X128447179Y-100291716D01*
X128352533Y-100127784D01*
X128332349Y-100105367D01*
X128302120Y-100042376D01*
X128300500Y-100022396D01*
X128300500Y-98056149D01*
X128306569Y-98017831D01*
X128310849Y-98004658D01*
X128335674Y-97928256D01*
X128355460Y-97740000D01*
X128335674Y-97551744D01*
X128277179Y-97371716D01*
X128182533Y-97207784D01*
X128055871Y-97067112D01*
X128026605Y-97045849D01*
X127902734Y-96955851D01*
X127902729Y-96955848D01*
X127729807Y-96878857D01*
X127729802Y-96878855D01*
X127568541Y-96844579D01*
X127544646Y-96839500D01*
X127355354Y-96839500D01*
X127331459Y-96844579D01*
X127170197Y-96878855D01*
X127170192Y-96878857D01*
X126997270Y-96955848D01*
X126997265Y-96955851D01*
X126844129Y-97067111D01*
X126717465Y-97207785D01*
X126641406Y-97339525D01*
X126590839Y-97387741D01*
X126522232Y-97400964D01*
X126457367Y-97374996D01*
X126426632Y-97339525D01*
X126402533Y-97297784D01*
X126275871Y-97157112D01*
X126275870Y-97157111D01*
X126122734Y-97045851D01*
X126122729Y-97045848D01*
X125949807Y-96968857D01*
X125949802Y-96968855D01*
X125804001Y-96937865D01*
X125764646Y-96929500D01*
X125575354Y-96929500D01*
X125542897Y-96936398D01*
X125390197Y-96968855D01*
X125390192Y-96968857D01*
X125217270Y-97045848D01*
X125217265Y-97045851D01*
X125064129Y-97157111D01*
X124937466Y-97297785D01*
X124842821Y-97461715D01*
X124842818Y-97461722D01*
X124797251Y-97601965D01*
X124784326Y-97641744D01*
X124764540Y-97830000D01*
X108998487Y-97830000D01*
X109013146Y-64400000D01*
X120734540Y-64400000D01*
X120754326Y-64588256D01*
X120754327Y-64588259D01*
X120812818Y-64768277D01*
X120812821Y-64768284D01*
X120907467Y-64932216D01*
X121024515Y-65062211D01*
X121034129Y-65072888D01*
X121187265Y-65184148D01*
X121187270Y-65184151D01*
X121360192Y-65261142D01*
X121360197Y-65261144D01*
X121545354Y-65300500D01*
X121545355Y-65300500D01*
X121734644Y-65300500D01*
X121734646Y-65300500D01*
X121919803Y-65261144D01*
X122092730Y-65184151D01*
X122245871Y-65072888D01*
X122248788Y-65069647D01*
X122251600Y-65066526D01*
X122311087Y-65029879D01*
X122343748Y-65025500D01*
X124897257Y-65025500D01*
X124912877Y-65027224D01*
X124912904Y-65026939D01*
X124920660Y-65027671D01*
X124920667Y-65027673D01*
X124989814Y-65025500D01*
X125019350Y-65025500D01*
X125026228Y-65024630D01*
X125032041Y-65024172D01*
X125078627Y-65022709D01*
X125097869Y-65017117D01*
X125116912Y-65013174D01*
X125136792Y-65010664D01*
X125180122Y-64993507D01*
X125185646Y-64991617D01*
X125189396Y-64990527D01*
X125230390Y-64978618D01*
X125247629Y-64968422D01*
X125265103Y-64959862D01*
X125283727Y-64952488D01*
X125283727Y-64952487D01*
X125283732Y-64952486D01*
X125321449Y-64925082D01*
X125326305Y-64921892D01*
X125366420Y-64898170D01*
X125380589Y-64883999D01*
X125395379Y-64871368D01*
X125411587Y-64859594D01*
X125441299Y-64823676D01*
X125445212Y-64819376D01*
X136620767Y-53643822D01*
X136682088Y-53610339D01*
X136751780Y-53615323D01*
X136758882Y-53618226D01*
X136900192Y-53681142D01*
X136900197Y-53681144D01*
X137085354Y-53720500D01*
X137085355Y-53720500D01*
X137274644Y-53720500D01*
X137274646Y-53720500D01*
X137459803Y-53681144D01*
X137632730Y-53604151D01*
X137785871Y-53492888D01*
X137912533Y-53352216D01*
X138007179Y-53188284D01*
X138065674Y-53008256D01*
X138085460Y-52820000D01*
X138065674Y-52631744D01*
X138007179Y-52451716D01*
X137912533Y-52287784D01*
X137785871Y-52147112D01*
X137785870Y-52147111D01*
X137632734Y-52035851D01*
X137632729Y-52035848D01*
X137459807Y-51958857D01*
X137459802Y-51958855D01*
X137314001Y-51927865D01*
X137274646Y-51919500D01*
X137085354Y-51919500D01*
X137052897Y-51926398D01*
X136900197Y-51958855D01*
X136900192Y-51958857D01*
X136727270Y-52035848D01*
X136727265Y-52035851D01*
X136574130Y-52147110D01*
X136574124Y-52147116D01*
X136566302Y-52155803D01*
X136506814Y-52192449D01*
X136478055Y-52196766D01*
X136461373Y-52197290D01*
X136461372Y-52197290D01*
X136442129Y-52202881D01*
X136423079Y-52206825D01*
X136403211Y-52209334D01*
X136359884Y-52226488D01*
X136354358Y-52228379D01*
X136309614Y-52241379D01*
X136309610Y-52241381D01*
X136292366Y-52251579D01*
X136274905Y-52260133D01*
X136256274Y-52267510D01*
X136256262Y-52267517D01*
X136218570Y-52294902D01*
X136213687Y-52298109D01*
X136173580Y-52321829D01*
X136159414Y-52335995D01*
X136144624Y-52348627D01*
X136128414Y-52360404D01*
X136128411Y-52360407D01*
X136098710Y-52396309D01*
X136094777Y-52400631D01*
X124757228Y-63738181D01*
X124695905Y-63771666D01*
X124669547Y-63774500D01*
X122343748Y-63774500D01*
X122276709Y-63754815D01*
X122251600Y-63733474D01*
X122245873Y-63727114D01*
X122245869Y-63727110D01*
X122092734Y-63615851D01*
X122092729Y-63615848D01*
X121919807Y-63538857D01*
X121919802Y-63538855D01*
X121774001Y-63507865D01*
X121734646Y-63499500D01*
X121545354Y-63499500D01*
X121512897Y-63506398D01*
X121360197Y-63538855D01*
X121360192Y-63538857D01*
X121187270Y-63615848D01*
X121187265Y-63615851D01*
X121034129Y-63727111D01*
X120907466Y-63867785D01*
X120812821Y-64031715D01*
X120812818Y-64031722D01*
X120760671Y-64192216D01*
X120754326Y-64211744D01*
X120734540Y-64400000D01*
X109013146Y-64400000D01*
X109017965Y-53410000D01*
X110824473Y-53410000D01*
X110844563Y-53742136D01*
X110844563Y-53742141D01*
X110844564Y-53742142D01*
X110904544Y-54069441D01*
X110904545Y-54069445D01*
X110904546Y-54069449D01*
X111003530Y-54387104D01*
X111003534Y-54387116D01*
X111003537Y-54387123D01*
X111140102Y-54690557D01*
X111311380Y-54973885D01*
X111312251Y-54975326D01*
X111517460Y-55237255D01*
X111752744Y-55472539D01*
X112014673Y-55677748D01*
X112014678Y-55677751D01*
X112014682Y-55677754D01*
X112299443Y-55849898D01*
X112602877Y-55986463D01*
X112602890Y-55986467D01*
X112602895Y-55986469D01*
X112814665Y-56052458D01*
X112920559Y-56085456D01*
X113247858Y-56145436D01*
X113580000Y-56165527D01*
X113912142Y-56145436D01*
X114239441Y-56085456D01*
X114557123Y-55986463D01*
X114860557Y-55849898D01*
X115145318Y-55677754D01*
X115150488Y-55673704D01*
X115306034Y-55551841D01*
X115407252Y-55472542D01*
X115642542Y-55237252D01*
X115816479Y-55015238D01*
X115847748Y-54975326D01*
X115847748Y-54975324D01*
X115847754Y-54975318D01*
X116019898Y-54690557D01*
X116156463Y-54387123D01*
X116255456Y-54069441D01*
X116315436Y-53742142D01*
X116335527Y-53410000D01*
X116315436Y-53077858D01*
X116255456Y-52750559D01*
X116217681Y-52629334D01*
X116156469Y-52432895D01*
X116156467Y-52432890D01*
X116156463Y-52432877D01*
X116019898Y-52129443D01*
X115847754Y-51844682D01*
X115847751Y-51844678D01*
X115847748Y-51844673D01*
X115642539Y-51582744D01*
X115407255Y-51347460D01*
X115145326Y-51142251D01*
X115145318Y-51142246D01*
X114860557Y-50970102D01*
X114557123Y-50833537D01*
X114557116Y-50833534D01*
X114557104Y-50833530D01*
X114239449Y-50734546D01*
X114239445Y-50734545D01*
X114239441Y-50734544D01*
X113912142Y-50674564D01*
X113912141Y-50674563D01*
X113912136Y-50674563D01*
X113580000Y-50654473D01*
X113247863Y-50674563D01*
X113247858Y-50674564D01*
X112920559Y-50734544D01*
X112920556Y-50734544D01*
X112920550Y-50734546D01*
X112602895Y-50833530D01*
X112602879Y-50833536D01*
X112602877Y-50833537D01*
X112514012Y-50873532D01*
X112299447Y-50970100D01*
X112299445Y-50970101D01*
X112014673Y-51142251D01*
X111752744Y-51347460D01*
X111517460Y-51582744D01*
X111312251Y-51844673D01*
X111140101Y-52129445D01*
X111140100Y-52129447D01*
X111105275Y-52206825D01*
X111006509Y-52426275D01*
X111003536Y-52432880D01*
X111003530Y-52432895D01*
X110904546Y-52750550D01*
X110904544Y-52750556D01*
X110904544Y-52750559D01*
X110870955Y-52933847D01*
X110844563Y-53077863D01*
X110824473Y-53410000D01*
X109017965Y-53410000D01*
X109019945Y-48893991D01*
X109039659Y-48826963D01*
X109092483Y-48781231D01*
X109143991Y-48770048D01*
X148511779Y-48785390D01*
G37*
G04 #@! TD.AperFunction*
G04 #@! TA.AperFunction,Conductor*
G36*
X164835703Y-64660739D02*
G01*
X164842181Y-64666771D01*
X178683228Y-78507819D01*
X178716713Y-78569142D01*
X178711729Y-78638834D01*
X178669857Y-78694767D01*
X178604393Y-78719184D01*
X178595547Y-78719500D01*
X178455354Y-78719500D01*
X178422897Y-78726398D01*
X178270197Y-78758855D01*
X178270192Y-78758857D01*
X178097270Y-78835848D01*
X178097265Y-78835851D01*
X177944129Y-78947111D01*
X177817466Y-79087785D01*
X177722821Y-79251715D01*
X177722818Y-79251722D01*
X177664327Y-79431740D01*
X177664326Y-79431744D01*
X177644540Y-79620000D01*
X177664326Y-79808256D01*
X177664327Y-79808259D01*
X177693431Y-79897831D01*
X177699500Y-79936149D01*
X177699500Y-80766348D01*
X177679815Y-80833387D01*
X177663181Y-80854029D01*
X176754613Y-81762596D01*
X176693290Y-81796081D01*
X176623598Y-81791097D01*
X176587893Y-81770460D01*
X176573694Y-81758714D01*
X176569371Y-81754780D01*
X175220803Y-80406212D01*
X175210980Y-80393950D01*
X175210759Y-80394134D01*
X175205786Y-80388123D01*
X175155364Y-80340773D01*
X175144919Y-80330328D01*
X175134475Y-80319883D01*
X175128986Y-80315625D01*
X175124561Y-80311847D01*
X175090582Y-80279938D01*
X175090580Y-80279936D01*
X175090577Y-80279935D01*
X175073029Y-80270288D01*
X175056763Y-80259604D01*
X175040936Y-80247327D01*
X175040935Y-80247326D01*
X175040933Y-80247325D01*
X174998168Y-80228818D01*
X174992922Y-80226248D01*
X174952093Y-80203803D01*
X174952092Y-80203802D01*
X174932693Y-80198822D01*
X174914281Y-80192518D01*
X174895898Y-80184562D01*
X174895892Y-80184560D01*
X174849874Y-80177272D01*
X174844152Y-80176087D01*
X174799021Y-80164500D01*
X174799019Y-80164500D01*
X174778984Y-80164500D01*
X174759586Y-80162973D01*
X174752162Y-80161797D01*
X174739805Y-80159840D01*
X174739804Y-80159840D01*
X174693416Y-80164225D01*
X174687578Y-80164500D01*
X174434499Y-80164500D01*
X174367460Y-80144815D01*
X174321705Y-80092011D01*
X174310499Y-80040500D01*
X174310499Y-79842129D01*
X174310498Y-79842117D01*
X174304091Y-79782516D01*
X174253797Y-79647671D01*
X174253793Y-79647664D01*
X174167547Y-79532455D01*
X174167544Y-79532452D01*
X174052335Y-79446206D01*
X174052328Y-79446202D01*
X173917482Y-79395908D01*
X173917483Y-79395908D01*
X173857883Y-79389501D01*
X173857881Y-79389500D01*
X173857873Y-79389500D01*
X173857864Y-79389500D01*
X172062129Y-79389500D01*
X172062123Y-79389501D01*
X172002516Y-79395908D01*
X171867671Y-79446202D01*
X171867664Y-79446206D01*
X171752455Y-79532452D01*
X171752452Y-79532455D01*
X171666206Y-79647664D01*
X171666202Y-79647671D01*
X171615908Y-79782517D01*
X171609501Y-79842116D01*
X171609500Y-79842135D01*
X171609500Y-81637870D01*
X171609501Y-81637876D01*
X171615908Y-81697483D01*
X171666202Y-81832328D01*
X171666206Y-81832335D01*
X171752452Y-81947544D01*
X171752455Y-81947547D01*
X171867664Y-82033793D01*
X171867671Y-82033797D01*
X171999081Y-82082810D01*
X172055015Y-82124681D01*
X172079432Y-82190145D01*
X172064580Y-82258418D01*
X172043430Y-82286673D01*
X171921503Y-82408600D01*
X171891379Y-82451623D01*
X171836802Y-82495248D01*
X171789804Y-82504500D01*
X171260452Y-82504500D01*
X171193413Y-82484815D01*
X171172771Y-82468181D01*
X170721819Y-82017228D01*
X170688334Y-81955905D01*
X170685500Y-81929547D01*
X170685500Y-80182742D01*
X170687224Y-80167122D01*
X170686939Y-80167095D01*
X170687673Y-80159333D01*
X170685500Y-80090172D01*
X170685500Y-80060656D01*
X170685500Y-80060650D01*
X170684631Y-80053779D01*
X170684173Y-80047952D01*
X170683939Y-80040500D01*
X170682710Y-80001373D01*
X170677119Y-79982130D01*
X170673173Y-79963078D01*
X170670664Y-79943208D01*
X170653504Y-79899867D01*
X170651624Y-79894379D01*
X170638618Y-79849610D01*
X170634197Y-79842135D01*
X170628423Y-79832371D01*
X170619861Y-79814894D01*
X170612487Y-79796270D01*
X170612486Y-79796268D01*
X170585079Y-79758545D01*
X170581888Y-79753686D01*
X170558172Y-79713583D01*
X170558165Y-79713574D01*
X170544006Y-79699415D01*
X170531368Y-79684619D01*
X170519594Y-79668413D01*
X170509424Y-79660000D01*
X170483688Y-79638709D01*
X170479376Y-79634786D01*
X163098452Y-72253861D01*
X163064967Y-72192538D01*
X163069951Y-72122846D01*
X163111823Y-72066913D01*
X163135697Y-72052901D01*
X163139823Y-72051064D01*
X163222730Y-72014151D01*
X163375871Y-71902888D01*
X163502533Y-71762216D01*
X163579013Y-71629747D01*
X163598710Y-71604077D01*
X164735185Y-70467601D01*
X164738854Y-70464219D01*
X164781100Y-70428337D01*
X164830098Y-70363880D01*
X164880842Y-70300754D01*
X164880850Y-70300737D01*
X164881462Y-70299782D01*
X164892400Y-70282148D01*
X164893044Y-70281076D01*
X164893054Y-70281064D01*
X164927052Y-70207577D01*
X164963037Y-70135021D01*
X164963039Y-70135012D01*
X164963453Y-70133883D01*
X164970354Y-70114286D01*
X164970727Y-70113177D01*
X164970732Y-70113167D01*
X164988139Y-70034083D01*
X165007684Y-69955494D01*
X165007684Y-69955492D01*
X165007833Y-69954400D01*
X165010371Y-69933677D01*
X165010500Y-69932497D01*
X165010500Y-69851530D01*
X165011249Y-69823868D01*
X165012693Y-69770568D01*
X165012692Y-69770567D01*
X165012693Y-69770563D01*
X165012608Y-69769520D01*
X165010500Y-69747352D01*
X165010500Y-69636149D01*
X165016569Y-69597831D01*
X165028063Y-69562455D01*
X165045674Y-69508256D01*
X165065460Y-69320000D01*
X165045674Y-69131744D01*
X164987179Y-68951716D01*
X164892533Y-68787784D01*
X164765871Y-68647112D01*
X164765870Y-68647111D01*
X164612734Y-68535851D01*
X164612729Y-68535848D01*
X164439807Y-68458857D01*
X164439802Y-68458855D01*
X164278734Y-68424620D01*
X164254646Y-68419500D01*
X164065354Y-68419500D01*
X164041266Y-68424620D01*
X163880197Y-68458855D01*
X163880192Y-68458857D01*
X163707270Y-68535848D01*
X163707265Y-68535851D01*
X163554129Y-68647111D01*
X163427466Y-68787785D01*
X163332821Y-68951715D01*
X163332818Y-68951722D01*
X163295452Y-69066724D01*
X163274326Y-69131744D01*
X163255684Y-69309116D01*
X163254540Y-69320000D01*
X163269535Y-69462672D01*
X163256965Y-69531402D01*
X163233895Y-69563314D01*
X162598229Y-70198980D01*
X162536906Y-70232465D01*
X162467214Y-70227481D01*
X162411281Y-70185609D01*
X162392617Y-70149617D01*
X162372181Y-70086721D01*
X162372178Y-70086715D01*
X162277533Y-69922784D01*
X162193245Y-69829174D01*
X162147350Y-69778201D01*
X162117120Y-69715210D01*
X162115500Y-69695229D01*
X162115500Y-67878687D01*
X162135185Y-67811648D01*
X162147350Y-67795715D01*
X162165891Y-67775122D01*
X162222533Y-67712216D01*
X162317179Y-67548284D01*
X162375674Y-67368256D01*
X162375674Y-67368249D01*
X162376270Y-67365448D01*
X162377064Y-67363975D01*
X162377682Y-67362076D01*
X162378029Y-67362188D01*
X162409459Y-67303964D01*
X162470620Y-67270184D01*
X162533555Y-67272560D01*
X162643868Y-67306024D01*
X162840000Y-67325341D01*
X163036132Y-67306024D01*
X163224727Y-67248814D01*
X163398538Y-67155910D01*
X163550883Y-67030883D01*
X163675910Y-66878538D01*
X163768814Y-66704727D01*
X163808024Y-66575466D01*
X163839000Y-66523786D01*
X164355185Y-66007601D01*
X164358854Y-66004219D01*
X164401100Y-65968337D01*
X164450104Y-65903872D01*
X164500842Y-65840753D01*
X164500842Y-65840751D01*
X164500844Y-65840750D01*
X164501432Y-65839829D01*
X164512426Y-65822105D01*
X164513050Y-65821069D01*
X164513054Y-65821064D01*
X164547055Y-65747570D01*
X164583037Y-65675021D01*
X164583037Y-65675017D01*
X164583440Y-65673923D01*
X164590329Y-65654361D01*
X164590727Y-65653177D01*
X164590732Y-65653167D01*
X164608139Y-65574083D01*
X164627684Y-65495494D01*
X164627684Y-65495492D01*
X164627833Y-65494400D01*
X164630371Y-65473677D01*
X164630500Y-65472497D01*
X164630500Y-65391530D01*
X164632693Y-65310563D01*
X164632608Y-65309520D01*
X164630500Y-65287352D01*
X164630500Y-64754452D01*
X164650185Y-64687413D01*
X164702989Y-64641658D01*
X164772147Y-64631714D01*
X164835703Y-64660739D01*
G37*
G04 #@! TD.AperFunction*
M02*
