G04 #@! TF.GenerationSoftware,KiCad,Pcbnew,7.0.8*
G04 #@! TF.CreationDate,2023-11-10T10:01:46+08:00*
G04 #@! TF.ProjectId,ESPCARproject,45535043-4152-4707-926f-6a6563742e6b,rev?*
G04 #@! TF.SameCoordinates,Original*
G04 #@! TF.FileFunction,Paste,Top*
G04 #@! TF.FilePolarity,Positive*
%FSLAX46Y46*%
G04 Gerber Fmt 4.6, Leading zero omitted, Abs format (unit mm)*
G04 Created by KiCad (PCBNEW 7.0.8) date 2023-11-10 10:01:46*
%MOMM*%
%LPD*%
G01*
G04 APERTURE LIST*
G04 Aperture macros list*
%AMRoundRect*
0 Rectangle with rounded corners*
0 $1 Rounding radius*
0 $2 $3 $4 $5 $6 $7 $8 $9 X,Y pos of 4 corners*
0 Add a 4 corners polygon primitive as box body*
4,1,4,$2,$3,$4,$5,$6,$7,$8,$9,$2,$3,0*
0 Add four circle primitives for the rounded corners*
1,1,$1+$1,$2,$3*
1,1,$1+$1,$4,$5*
1,1,$1+$1,$6,$7*
1,1,$1+$1,$8,$9*
0 Add four rect primitives between the rounded corners*
20,1,$1+$1,$2,$3,$4,$5,0*
20,1,$1+$1,$4,$5,$6,$7,0*
20,1,$1+$1,$6,$7,$8,$9,0*
20,1,$1+$1,$8,$9,$2,$3,0*%
G04 Aperture macros list end*
%ADD10C,0.010000*%
%ADD11R,1.000000X1.400000*%
%ADD12RoundRect,0.237500X0.237500X-0.250000X0.237500X0.250000X-0.237500X0.250000X-0.237500X-0.250000X0*%
%ADD13R,1.140000X0.300000*%
%ADD14RoundRect,0.237500X-0.237500X0.250000X-0.237500X-0.250000X0.237500X-0.250000X0.237500X0.250000X0*%
%ADD15RoundRect,0.237500X-0.250000X-0.237500X0.250000X-0.237500X0.250000X0.237500X-0.250000X0.237500X0*%
%ADD16RoundRect,0.237500X0.237500X-0.300000X0.237500X0.300000X-0.237500X0.300000X-0.237500X-0.300000X0*%
%ADD17RoundRect,0.237500X-0.237500X0.300000X-0.237500X-0.300000X0.237500X-0.300000X0.237500X0.300000X0*%
%ADD18RoundRect,0.200000X-0.200000X-0.800000X0.200000X-0.800000X0.200000X0.800000X-0.200000X0.800000X0*%
%ADD19RoundRect,0.237500X0.300000X0.237500X-0.300000X0.237500X-0.300000X-0.237500X0.300000X-0.237500X0*%
%ADD20RoundRect,0.042000X-0.943000X-0.258000X0.943000X-0.258000X0.943000X0.258000X-0.943000X0.258000X0*%
%ADD21RoundRect,0.237500X0.237500X-0.287500X0.237500X0.287500X-0.237500X0.287500X-0.237500X-0.287500X0*%
%ADD22RoundRect,0.150000X-0.200000X0.150000X-0.200000X-0.150000X0.200000X-0.150000X0.200000X0.150000X0*%
%ADD23RoundRect,0.237500X0.250000X0.237500X-0.250000X0.237500X-0.250000X-0.237500X0.250000X-0.237500X0*%
%ADD24RoundRect,0.237500X-0.300000X-0.237500X0.300000X-0.237500X0.300000X0.237500X-0.300000X0.237500X0*%
%ADD25R,1.500000X0.900000*%
%ADD26R,0.900000X1.500000*%
%ADD27R,1.050000X1.050000*%
%ADD28RoundRect,0.150000X0.150000X-0.587500X0.150000X0.587500X-0.150000X0.587500X-0.150000X-0.587500X0*%
%ADD29RoundRect,0.250000X-0.650000X0.412500X-0.650000X-0.412500X0.650000X-0.412500X0.650000X0.412500X0*%
%ADD30RoundRect,0.150000X0.200000X-0.150000X0.200000X0.150000X-0.200000X0.150000X-0.200000X-0.150000X0*%
%ADD31R,0.400000X1.100000*%
%ADD32RoundRect,0.237500X0.287500X0.237500X-0.287500X0.237500X-0.287500X-0.237500X0.287500X-0.237500X0*%
%ADD33RoundRect,0.150000X0.512500X0.150000X-0.512500X0.150000X-0.512500X-0.150000X0.512500X-0.150000X0*%
%ADD34RoundRect,0.250000X-0.350000X0.850000X-0.350000X-0.850000X0.350000X-0.850000X0.350000X0.850000X0*%
%ADD35RoundRect,0.250000X-1.125000X1.275000X-1.125000X-1.275000X1.125000X-1.275000X1.125000X1.275000X0*%
%ADD36RoundRect,0.250000X0.412500X0.650000X-0.412500X0.650000X-0.412500X-0.650000X0.412500X-0.650000X0*%
%ADD37R,1.750000X0.450000*%
%ADD38RoundRect,0.225000X-0.225000X-0.225000X0.225000X-0.225000X0.225000X0.225000X-0.225000X0.225000X0*%
%ADD39RoundRect,0.062500X-0.337500X-0.062500X0.337500X-0.062500X0.337500X0.062500X-0.337500X0.062500X0*%
%ADD40RoundRect,0.062500X-0.062500X-0.337500X0.062500X-0.337500X0.062500X0.337500X-0.062500X0.337500X0*%
%ADD41C,9.000000*%
%ADD42RoundRect,0.250000X-0.412500X-0.650000X0.412500X-0.650000X0.412500X0.650000X-0.412500X0.650000X0*%
%ADD43RoundRect,0.373135X0.876865X1.126865X-0.876865X1.126865X-0.876865X-1.126865X0.876865X-1.126865X0*%
G04 APERTURE END LIST*
D10*
X132500000Y-106300000D02*
X131210000Y-106300000D01*
X131210000Y-104660000D01*
X132500000Y-104660000D01*
X132500000Y-106300000D01*
G36*
X132500000Y-106300000D02*
G01*
X131210000Y-106300000D01*
X131210000Y-104660000D01*
X132500000Y-104660000D01*
X132500000Y-106300000D01*
G37*
D11*
X122200000Y-76519250D03*
X121250000Y-78719250D03*
X120300000Y-76519250D03*
D12*
X126270000Y-104832500D03*
X126270000Y-103007500D03*
D13*
X116250000Y-81645000D03*
X116250000Y-82445000D03*
X116250000Y-83745000D03*
X116250000Y-84745000D03*
X116250000Y-85245000D03*
X116250000Y-86245000D03*
X116250000Y-87545000D03*
X116250000Y-88345000D03*
X116250000Y-88045000D03*
X116250000Y-87245000D03*
X116250000Y-86745000D03*
X116250000Y-85745000D03*
X116250000Y-84245000D03*
X116250000Y-83245000D03*
X116250000Y-82745000D03*
X116250000Y-81945000D03*
D14*
X119610000Y-63365000D03*
X119610000Y-65190000D03*
D12*
X180430000Y-69207500D03*
X180430000Y-67382500D03*
D15*
X135717500Y-76209250D03*
X137542500Y-76209250D03*
D12*
X143510000Y-103642500D03*
X143510000Y-101817500D03*
D16*
X125820000Y-114812500D03*
X125820000Y-113087500D03*
D17*
X116800000Y-63375000D03*
X116800000Y-65100000D03*
D15*
X129992500Y-90190000D03*
X131817500Y-90190000D03*
D17*
X169810000Y-67045000D03*
X169810000Y-68770000D03*
D18*
X109710000Y-72047500D03*
X113910000Y-72047500D03*
D19*
X123295000Y-90190000D03*
X121570000Y-90190000D03*
D20*
X129380000Y-103575000D03*
X129380000Y-104845000D03*
X129380000Y-106115000D03*
X129380000Y-107385000D03*
X134330000Y-107385000D03*
X134330000Y-106115000D03*
X134330000Y-104845000D03*
X134330000Y-103575000D03*
D15*
X157365000Y-81175000D03*
X159190000Y-81175000D03*
D14*
X133442500Y-111930000D03*
X133442500Y-113755000D03*
D21*
X138870000Y-103652500D03*
X138870000Y-101902500D03*
D15*
X160277500Y-50060000D03*
X162102500Y-50060000D03*
D22*
X126440000Y-86830000D03*
X126440000Y-85430000D03*
D15*
X135735000Y-78729250D03*
X137560000Y-78729250D03*
D23*
X126702500Y-78819250D03*
X124877500Y-78819250D03*
D24*
X157417500Y-89880000D03*
X159142500Y-89880000D03*
D25*
X138905000Y-49702500D03*
X138905000Y-50972500D03*
X138905000Y-52242500D03*
X138905000Y-53512500D03*
X138905000Y-54782500D03*
X138905000Y-56052500D03*
X138905000Y-57322500D03*
X138905000Y-58592500D03*
X138905000Y-59862500D03*
X138905000Y-61132500D03*
X138905000Y-62402500D03*
X138905000Y-63672500D03*
X138905000Y-64942500D03*
X138905000Y-66212500D03*
D26*
X141945000Y-67462500D03*
X143215000Y-67462500D03*
X144485000Y-67462500D03*
X145755000Y-67462500D03*
X147025000Y-67462500D03*
X148295000Y-67462500D03*
X149565000Y-67462500D03*
X150835000Y-67462500D03*
X152105000Y-67462500D03*
X153375000Y-67462500D03*
D25*
X156405000Y-66212500D03*
X156405000Y-64942500D03*
X156405000Y-63672500D03*
X156405000Y-62402500D03*
X156405000Y-61132500D03*
X156405000Y-59862500D03*
X156405000Y-58592500D03*
X156405000Y-57322500D03*
X156405000Y-56052500D03*
X156405000Y-54782500D03*
X156405000Y-53512500D03*
X156405000Y-52242500D03*
X156405000Y-50972500D03*
X156405000Y-49702500D03*
D27*
X145450000Y-55517500D03*
X145450000Y-57042500D03*
X145450000Y-58567500D03*
X146975000Y-55517500D03*
X146975000Y-57042500D03*
X146975000Y-58567500D03*
X148500000Y-55517500D03*
X148500000Y-57042500D03*
X148500000Y-58567500D03*
D18*
X109520000Y-64187500D03*
X113720000Y-64187500D03*
D12*
X145790000Y-103592500D03*
X145790000Y-101767500D03*
D28*
X139062500Y-109395000D03*
X140962500Y-109395000D03*
X140012500Y-107520000D03*
D18*
X173620000Y-51797500D03*
X177820000Y-51797500D03*
X173620000Y-73180000D03*
X177820000Y-73180000D03*
D29*
X154390000Y-105647500D03*
X154390000Y-108772500D03*
D30*
X120660000Y-80830000D03*
X120660000Y-82230000D03*
D31*
X123012500Y-110482500D03*
X122362500Y-110482500D03*
X121712500Y-110482500D03*
X121062500Y-110482500D03*
X121062500Y-114782500D03*
X121712500Y-114782500D03*
X122362500Y-114782500D03*
X123012500Y-114782500D03*
D14*
X166190000Y-50805000D03*
X166190000Y-52630000D03*
D32*
X132065000Y-63647500D03*
X130315000Y-63647500D03*
D12*
X180540000Y-76860000D03*
X180540000Y-75035000D03*
D18*
X173620000Y-57110000D03*
X177820000Y-57110000D03*
D32*
X132065000Y-69377500D03*
X130315000Y-69377500D03*
D15*
X125000000Y-60997500D03*
X126825000Y-60997500D03*
D17*
X169810000Y-56167500D03*
X169810000Y-57892500D03*
D29*
X168617500Y-99120000D03*
X168617500Y-102245000D03*
D14*
X166190000Y-61657500D03*
X166190000Y-63482500D03*
D15*
X157380000Y-76795000D03*
X159205000Y-76795000D03*
D14*
X166190000Y-72187500D03*
X166190000Y-74012500D03*
D29*
X157500000Y-105647500D03*
X157500000Y-108772500D03*
X152220000Y-74982500D03*
X152220000Y-78107500D03*
D23*
X127345000Y-92450000D03*
X125520000Y-92450000D03*
D15*
X157342500Y-87795000D03*
X159167500Y-87795000D03*
D21*
X141170000Y-103630000D03*
X141170000Y-101880000D03*
D19*
X123295000Y-92460000D03*
X121570000Y-92460000D03*
D14*
X166190000Y-66995000D03*
X166190000Y-68820000D03*
D33*
X130510000Y-114890000D03*
X130510000Y-113940000D03*
X130510000Y-112990000D03*
X128235000Y-112990000D03*
X128235000Y-113940000D03*
X128235000Y-114890000D03*
D32*
X132065000Y-66517500D03*
X130315000Y-66517500D03*
D34*
X169967500Y-105995000D03*
X167687500Y-105995000D03*
D35*
X169212500Y-110620000D03*
X166162500Y-110620000D03*
X169212500Y-113970000D03*
X166162500Y-113970000D03*
D34*
X165407500Y-105995000D03*
D32*
X132065000Y-60937500D03*
X130315000Y-60937500D03*
D17*
X118800000Y-80657500D03*
X118800000Y-82382500D03*
D15*
X125520000Y-90180000D03*
X127345000Y-90180000D03*
D16*
X149680000Y-78110000D03*
X149680000Y-76385000D03*
D15*
X157357500Y-83345000D03*
X159182500Y-83345000D03*
X157350000Y-85535000D03*
X159175000Y-85535000D03*
D18*
X173620000Y-62650000D03*
X177820000Y-62650000D03*
D30*
X124860000Y-83142500D03*
X124860000Y-84542500D03*
D17*
X116990000Y-71235000D03*
X116990000Y-72960000D03*
D36*
X146825000Y-107655000D03*
X143700000Y-107655000D03*
D15*
X120877500Y-86750000D03*
X122702500Y-86750000D03*
X125857500Y-110930000D03*
X127682500Y-110930000D03*
D12*
X122400000Y-82882500D03*
X122400000Y-81057500D03*
D15*
X124877500Y-76139250D03*
X126702500Y-76139250D03*
D17*
X169810000Y-61707500D03*
X169810000Y-63432500D03*
D19*
X125092500Y-107390000D03*
X123367500Y-107390000D03*
D23*
X131817500Y-92460000D03*
X129992500Y-92460000D03*
D14*
X166190000Y-56117500D03*
X166190000Y-57942500D03*
X119800000Y-71225000D03*
X119800000Y-73050000D03*
D15*
X125000000Y-69257500D03*
X126825000Y-69257500D03*
D37*
X144990000Y-81385000D03*
X144990000Y-82035000D03*
X144990000Y-82685000D03*
X144990000Y-83335000D03*
X144990000Y-83985000D03*
X144990000Y-84635000D03*
X144990000Y-85285000D03*
X144990000Y-85935000D03*
X144990000Y-86585000D03*
X144990000Y-87235000D03*
X144990000Y-87885000D03*
X144990000Y-88535000D03*
X152190000Y-88535000D03*
X152190000Y-87885000D03*
X152190000Y-87235000D03*
X152190000Y-86585000D03*
X152190000Y-85935000D03*
X152190000Y-85285000D03*
X152190000Y-84635000D03*
X152190000Y-83985000D03*
X152190000Y-83335000D03*
X152190000Y-82685000D03*
X152190000Y-82035000D03*
X152190000Y-81385000D03*
D38*
X130700000Y-83650000D03*
X130700000Y-84770000D03*
X130700000Y-85890000D03*
X131820000Y-83650000D03*
X131820000Y-84770000D03*
X131820000Y-85890000D03*
X132940000Y-83650000D03*
X132940000Y-84770000D03*
X132940000Y-85890000D03*
D39*
X129370000Y-83270000D03*
X129370000Y-83770000D03*
X129370000Y-84270000D03*
X129370000Y-84770000D03*
X129370000Y-85270000D03*
X129370000Y-85770000D03*
X129370000Y-86270000D03*
D40*
X130320000Y-87220000D03*
X130820000Y-87220000D03*
X131320000Y-87220000D03*
X131820000Y-87220000D03*
X132320000Y-87220000D03*
X132820000Y-87220000D03*
X133320000Y-87220000D03*
D39*
X134270000Y-86270000D03*
X134270000Y-85770000D03*
X134270000Y-85270000D03*
X134270000Y-84770000D03*
X134270000Y-84270000D03*
X134270000Y-83770000D03*
X134270000Y-83270000D03*
D40*
X133320000Y-82320000D03*
X132820000Y-82320000D03*
X132320000Y-82320000D03*
X131820000Y-82320000D03*
X131320000Y-82320000D03*
X130820000Y-82320000D03*
X130320000Y-82320000D03*
D15*
X157372500Y-78985000D03*
X159197500Y-78985000D03*
D32*
X132065000Y-72047500D03*
X130315000Y-72047500D03*
D17*
X169810000Y-72237500D03*
X169810000Y-73962500D03*
D15*
X125000000Y-63497500D03*
X126825000Y-63497500D03*
D17*
X169810000Y-50855000D03*
X169810000Y-52580000D03*
D15*
X125000000Y-72057500D03*
X126825000Y-72057500D03*
D29*
X165277500Y-99042500D03*
X165277500Y-102167500D03*
D41*
X123440000Y-54620000D03*
D42*
X174987500Y-102910000D03*
X178112500Y-102910000D03*
D43*
X144475000Y-113720000D03*
X139715000Y-113720000D03*
D15*
X125000000Y-66487500D03*
X126825000Y-66487500D03*
D42*
X175009875Y-99560000D03*
X178134875Y-99560000D03*
D11*
X131480000Y-76559250D03*
X130530000Y-78759250D03*
X129580000Y-76559250D03*
D18*
X173620000Y-67987500D03*
X177820000Y-67987500D03*
D12*
X136152500Y-113765000D03*
X136152500Y-111940000D03*
M02*
