%TF.GenerationSoftware,KiCad,Pcbnew,7.0.8*%
%TF.CreationDate,2023-11-28T11:05:42+08:00*%
%TF.ProjectId,ESPCARproject,45535043-4152-4707-926f-6a6563742e6b,rev?*%
%TF.SameCoordinates,Original*%
%TF.FileFunction,Component,L1,Top*%
%TF.FilePolarity,Positive*%
%FSLAX46Y46*%
G04 Gerber Fmt 4.6, Leading zero omitted, Abs format (unit mm)*
G04 Created by KiCad (PCBNEW 7.0.8) date 2023-11-28 11:05:42*
%MOMM*%
%LPD*%
G01*
G04 APERTURE LIST*
%TA.AperFunction,ComponentMain*%
%ADD10C,0.300000*%
%TD*%
%TA.AperFunction,ComponentOutline,Footprint*%
%ADD11C,0.100000*%
%TD*%
%TA.AperFunction,ComponentPin*%
%ADD12C,0.100000*%
%TD*%
%TA.AperFunction,ComponentOutline,Courtyard*%
%ADD13C,0.100000*%
%TD*%
%TA.AperFunction,ComponentPin*%
%ADD14P,0.360000X4X0.000000*%
%TD*%
G04 APERTURE END LIST*
D10*
%TO.C,"Q2"*%
%TO.CFtp,"SOT-23_BEC"*%
%TO.CVal,"SS8050"*%
%TO.CLbN,"SS8050"*%
%TO.CMnt,SMD*%
%TO.CRot,180*%
X121250000Y-77619250D03*
D11*
X122700000Y-79419250D02*
X122700000Y-75819250D01*
X119800000Y-75819250D01*
X119800000Y-79419250D01*
X122700000Y-79419250D01*
D12*
%TO.P,"Q2","B"*%
X122200000Y-76519250D03*
%TO.P,"Q2","C"*%
X121250000Y-78719250D03*
%TO.P,"Q2","E"*%
X120300000Y-76519250D03*
%TD*%
D10*
%TO.C,"R33"*%
%TO.CFtp,"R_0603_1608Metric_Pad0.98x0.95mm_HandSolder"*%
%TO.CVal,"1k2"*%
%TO.CLbN,"Resistor_SMD"*%
%TO.CMnt,SMD*%
%TO.CRot,90*%
X126270000Y-103920000D03*
D13*
X126999999Y-102270001D02*
X126999999Y-105569999D01*
X125540001Y-105569999D01*
X125540001Y-102270001D01*
X126999999Y-102270001D01*
D14*
%TO.P,"R33","1"*%
X126270000Y-104832500D03*
D12*
%TO.P,"R33","2"*%
X126270000Y-103007500D03*
%TD*%
D10*
%TO.C,"J2"*%
%TO.CFtp,"VALCON_CSP-USC16-TR"*%
%TO.CVal,"CSP-USC16-TR"*%
%TO.CLbN,"CSP-USC16-TR"*%
%TO.CMnt,SMD*%
%TO.CRot,-90*%
X116250000Y-84995000D03*
D13*
X117069999Y-79920001D02*
X117069999Y-90069999D01*
X108650001Y-90069999D01*
X108650001Y-79920001D01*
X117069999Y-79920001D01*
D14*
%TO.P,"J2","A1","GND_A"*%
X116250000Y-81645000D03*
D12*
%TO.P,"J2",*%
X115180000Y-82105000D03*
X115180000Y-87885000D03*
%TO.P,"J2","A4","VBUS_A"*%
X116250000Y-82445000D03*
%TO.P,"J2","A5","CC1"*%
X116250000Y-83745000D03*
%TO.P,"J2","A6","DP1"*%
X116250000Y-84745000D03*
%TO.P,"J2","A7","DN1"*%
X116250000Y-85245000D03*
%TO.P,"J2","A8","SBU1"*%
X116250000Y-86245000D03*
%TO.P,"J2","A9","VBUS_A"*%
X116250000Y-87545000D03*
%TO.P,"J2","A12","GND_A"*%
X116250000Y-88345000D03*
%TO.P,"J2","B1","GND_B"*%
X116250000Y-88045000D03*
%TO.P,"J2","B4","VBUS_B"*%
X116250000Y-87245000D03*
%TO.P,"J2","B5","CC2"*%
X116250000Y-86745000D03*
%TO.P,"J2","B6","DP2"*%
X116250000Y-85745000D03*
%TO.P,"J2","B7","DN2"*%
X116250000Y-84245000D03*
%TO.P,"J2","B8","SBU2"*%
X116250000Y-83245000D03*
%TO.P,"J2","B9","VBUS_B"*%
X116250000Y-82745000D03*
%TO.P,"J2","B12","GND_B"*%
X116250000Y-81945000D03*
%TO.P,"J2","S1","SHELL_GND"*%
X115660000Y-80670000D03*
%TO.P,"J2","S2","SHELL_GND"*%
X115660000Y-89320000D03*
%TO.P,"J2","S3","SHELL_GND"*%
X111480000Y-80670000D03*
%TO.P,"J2","S4","SHELL_GND"*%
X111480000Y-89320000D03*
%TD*%
D10*
%TO.C,"R30"*%
%TO.CFtp,"R_0603_1608Metric_Pad0.98x0.95mm_HandSolder"*%
%TO.CVal,"10k"*%
%TO.CLbN,"Resistor_SMD"*%
%TO.CMnt,SMD*%
%TO.CRot,-90*%
X119610000Y-64277500D03*
D13*
X120339999Y-62627501D02*
X120339999Y-65927499D01*
X118880001Y-65927499D01*
X118880001Y-62627501D01*
X120339999Y-62627501D01*
D14*
%TO.P,"R30","1"*%
X119610000Y-63365000D03*
D12*
%TO.P,"R30","2"*%
X119610000Y-65190000D03*
%TD*%
D10*
%TO.C,"R23"*%
%TO.CFtp,"R_0603_1608Metric_Pad0.98x0.95mm_HandSolder"*%
%TO.CVal,"10k"*%
%TO.CLbN,"Resistor_SMD"*%
%TO.CMnt,SMD*%
%TO.CRot,90*%
X180430000Y-68295000D03*
D13*
X181159999Y-66645001D02*
X181159999Y-69944999D01*
X179700001Y-69944999D01*
X179700001Y-66645001D01*
X181159999Y-66645001D01*
D14*
%TO.P,"R23","1"*%
X180430000Y-69207500D03*
D12*
%TO.P,"R23","2"*%
X180430000Y-67382500D03*
%TD*%
D10*
%TO.C,"R10"*%
%TO.CFtp,"R_0603_1608Metric_Pad0.98x0.95mm_HandSolder"*%
%TO.CVal,"0"*%
%TO.CLbN,"Resistor_SMD"*%
%TO.CMnt,SMD*%
%TO.CRot,0*%
X136630000Y-76209250D03*
D13*
X138279999Y-75479251D02*
X138279999Y-76939249D01*
X134980001Y-76939249D01*
X134980001Y-75479251D01*
X138279999Y-75479251D01*
D14*
%TO.P,"R10","1"*%
X135717500Y-76209250D03*
D12*
%TO.P,"R10","2"*%
X137542500Y-76209250D03*
%TD*%
D10*
%TO.C,"R34"*%
%TO.CFtp,"R_0603_1608Metric_Pad0.98x0.95mm_HandSolder"*%
%TO.CVal,"1k"*%
%TO.CLbN,"Resistor_SMD"*%
%TO.CMnt,SMD*%
%TO.CRot,90*%
X143510000Y-102730000D03*
D13*
X144239999Y-101080001D02*
X144239999Y-104379999D01*
X142780001Y-104379999D01*
X142780001Y-101080001D01*
X144239999Y-101080001D01*
D14*
%TO.P,"R34","1"*%
X143510000Y-103642500D03*
D12*
%TO.P,"R34","2"*%
X143510000Y-101817500D03*
%TD*%
D10*
%TO.C,"J8"*%
%TO.CFtp,"PinHeader_1x06_P2.54mm_Vertical"*%
%TO.CVal,"JTAG"*%
%TO.CLbN,"Connector_PinHeader_2.54mm"*%
%TO.CMnt,TH*%
%TO.CRot,0*%
X176120000Y-80790000D03*
D13*
X177919999Y-78990001D02*
X177919999Y-95289999D01*
X174320001Y-95289999D01*
X174320001Y-78990001D01*
X177919999Y-78990001D01*
D14*
%TO.P,"J8","1","Pin_1"*%
X176120000Y-80790000D03*
D12*
%TO.P,"J8","2","Pin_2"*%
X176120000Y-83330000D03*
%TO.P,"J8","3","Pin_3"*%
X176120000Y-85870000D03*
%TO.P,"J8","4","Pin_4"*%
X176120000Y-88410000D03*
%TO.P,"J8","5","Pin_5"*%
X176120000Y-90950000D03*
%TO.P,"J8","6","Pin_6"*%
X176120000Y-93490000D03*
%TD*%
D10*
%TO.C,"C15"*%
%TO.CFtp,"C_0603_1608Metric_Pad1.08x0.95mm_HandSolder"*%
%TO.CVal,"100n"*%
%TO.CLbN,"Capacitor_SMD"*%
%TO.CMnt,SMD*%
%TO.CRot,90*%
X125820000Y-113950000D03*
D13*
X126549999Y-112300001D02*
X126549999Y-115599999D01*
X125090001Y-115599999D01*
X125090001Y-112300001D01*
X126549999Y-112300001D01*
D14*
%TO.P,"C15","1"*%
X125820000Y-114812500D03*
D12*
%TO.P,"C15","2"*%
X125820000Y-113087500D03*
%TD*%
D10*
%TO.C,"C12"*%
%TO.CFtp,"C_0603_1608Metric_Pad1.08x0.95mm_HandSolder"*%
%TO.CVal,"100n"*%
%TO.CLbN,"Capacitor_SMD"*%
%TO.CMnt,SMD*%
%TO.CRot,-90*%
X116800000Y-64237500D03*
D13*
X117529999Y-62587501D02*
X117529999Y-65887499D01*
X116070001Y-65887499D01*
X116070001Y-62587501D01*
X117529999Y-62587501D01*
D14*
%TO.P,"C12","1"*%
X116800000Y-63375000D03*
D12*
%TO.P,"C12","2"*%
X116800000Y-65100000D03*
%TD*%
D10*
%TO.C,"R15"*%
%TO.CFtp,"R_0603_1608Metric_Pad0.98x0.95mm_HandSolder"*%
%TO.CVal,"10k"*%
%TO.CLbN,"Resistor_SMD"*%
%TO.CMnt,SMD*%
%TO.CRot,0*%
X130905000Y-90190000D03*
D13*
X132554999Y-89460001D02*
X132554999Y-90919999D01*
X129255001Y-90919999D01*
X129255001Y-89460001D01*
X132554999Y-89460001D01*
D14*
%TO.P,"R15","1"*%
X129992500Y-90190000D03*
D12*
%TO.P,"R15","2"*%
X131817500Y-90190000D03*
%TD*%
D10*
%TO.C,"C3"*%
%TO.CFtp,"C_0603_1608Metric_Pad1.08x0.95mm_HandSolder"*%
%TO.CVal,"100n"*%
%TO.CLbN,"Capacitor_SMD"*%
%TO.CMnt,SMD*%
%TO.CRot,-90*%
X169810000Y-67907500D03*
D13*
X170539999Y-66257501D02*
X170539999Y-69557499D01*
X169080001Y-69557499D01*
X169080001Y-66257501D01*
X170539999Y-66257501D01*
D14*
%TO.P,"C3","1"*%
X169810000Y-67045000D03*
D12*
%TO.P,"C3","2"*%
X169810000Y-68770000D03*
%TD*%
D10*
%TO.C,"BOOT1"*%
%TO.CFtp,"SW_Push_SPST_NO_Alps_SKRK"*%
%TO.CVal,"SW_Push"*%
%TO.CLbN,"Button_Switch_SMD"*%
%TO.CMnt,SMD*%
%TO.CRot,0*%
X111810000Y-72047500D03*
D13*
X114559999Y-70347501D02*
X114559999Y-73747499D01*
X109060001Y-73747499D01*
X109060001Y-70347501D01*
X114559999Y-70347501D01*
D14*
%TO.P,"BOOT1","1","1"*%
X109710000Y-72047500D03*
D12*
%TO.P,"BOOT1","2","2"*%
X113910000Y-72047500D03*
%TD*%
D10*
%TO.C,"C8"*%
%TO.CFtp,"C_0603_1608Metric_Pad1.08x0.95mm_HandSolder"*%
%TO.CVal,"100n"*%
%TO.CLbN,"Capacitor_SMD"*%
%TO.CMnt,SMD*%
%TO.CRot,180*%
X122432500Y-90190000D03*
D13*
X124082499Y-89460001D02*
X124082499Y-90919999D01*
X120782501Y-90919999D01*
X120782501Y-89460001D01*
X124082499Y-89460001D01*
D14*
%TO.P,"C8","1"*%
X123295000Y-90190000D03*
D12*
%TO.P,"C8","2"*%
X121570000Y-90190000D03*
%TD*%
D10*
%TO.C,"U4"*%
%TO.CFtp,"SOP127P600X175-9N"*%
%TO.CVal,"TP4056"*%
%TO.CLbN,"TP4056"*%
%TO.CMnt,SMD*%
%TO.CRot,0*%
X131855000Y-105480000D03*
D13*
X135564999Y-102680001D02*
X135564999Y-108279999D01*
X128145001Y-108279999D01*
X128145001Y-102680001D01*
X135564999Y-102680001D01*
D14*
%TO.P,"U4","1","TEMP"*%
X129380000Y-103575000D03*
D12*
%TO.P,"U4","2","PROG"*%
X129380000Y-104845000D03*
%TO.P,"U4","3","GND"*%
X129380000Y-106115000D03*
%TO.P,"U4","4","VCC"*%
X129380000Y-107385000D03*
%TO.P,"U4","5","BAT"*%
X134330000Y-107385000D03*
%TO.P,"U4","6","~{STDBY}"*%
X134330000Y-106115000D03*
%TO.P,"U4","7","~{CHRG}"*%
X134330000Y-104845000D03*
%TO.P,"U4","8","CE"*%
X134330000Y-103575000D03*
%TO.P,"U4","9","EP"*%
X131855000Y-105480000D03*
%TD*%
D10*
%TO.C,"R16"*%
%TO.CFtp,"R_0603_1608Metric_Pad0.98x0.95mm_HandSolder"*%
%TO.CVal,"10k"*%
%TO.CLbN,"Resistor_SMD"*%
%TO.CMnt,SMD*%
%TO.CRot,0*%
X158277500Y-81175000D03*
D13*
X159927499Y-80445001D02*
X159927499Y-81904999D01*
X156627501Y-81904999D01*
X156627501Y-80445001D01*
X159927499Y-80445001D01*
D14*
%TO.P,"R16","1"*%
X157365000Y-81175000D03*
D12*
%TO.P,"R16","2"*%
X159190000Y-81175000D03*
%TD*%
D10*
%TO.C,"R35"*%
%TO.CFtp,"R_0603_1608Metric_Pad0.98x0.95mm_HandSolder"*%
%TO.CVal,"1k"*%
%TO.CLbN,"Resistor_SMD"*%
%TO.CMnt,SMD*%
%TO.CRot,-90*%
X133442500Y-112842500D03*
D13*
X134172499Y-111192501D02*
X134172499Y-114492499D01*
X132712501Y-114492499D01*
X132712501Y-111192501D01*
X134172499Y-111192501D01*
D14*
%TO.P,"R35","1"*%
X133442500Y-111930000D03*
D12*
%TO.P,"R35","2"*%
X133442500Y-113755000D03*
%TD*%
D10*
%TO.C,"J1"*%
%TO.CFtp,"PinHeader_1x05_P2.54mm_Vertical"*%
%TO.CVal,"SPI"*%
%TO.CLbN,"Connector_PinHeader_2.54mm"*%
%TO.CMnt,TH*%
%TO.CRot,0*%
X184190000Y-61595000D03*
D13*
X185989999Y-59795001D02*
X185989999Y-73544999D01*
X182390001Y-73544999D01*
X182390001Y-59795001D01*
X185989999Y-59795001D01*
D14*
%TO.P,"J1","1","Pin_1"*%
X184190000Y-61595000D03*
D12*
%TO.P,"J1","2","Pin_2"*%
X184190000Y-64135000D03*
%TO.P,"J1","3","Pin_3"*%
X184190000Y-66675000D03*
%TO.P,"J1","4","Pin_4"*%
X184190000Y-69215000D03*
%TO.P,"J1","5","Pin_5"*%
X184190000Y-71755000D03*
%TD*%
D10*
%TO.C,"D9"*%
%TO.CFtp,"LED_0603_1608Metric_Pad1.05x0.95mm_HandSolder"*%
%TO.CVal,"RED"*%
%TO.CLbN,"LED_SMD"*%
%TO.CMnt,SMD*%
%TO.CRot,90*%
X138870000Y-102777500D03*
D13*
X139599999Y-101127501D02*
X139599999Y-104427499D01*
X138140001Y-104427499D01*
X138140001Y-101127501D01*
X139599999Y-101127501D01*
D14*
%TO.P,"D9","1","K"*%
X138870000Y-103652500D03*
D12*
%TO.P,"D9","2","A"*%
X138870000Y-101902500D03*
%TD*%
D10*
%TO.C,"R22"*%
%TO.CFtp,"R_0603_1608Metric_Pad0.98x0.95mm_HandSolder"*%
%TO.CVal,"10k"*%
%TO.CLbN,"Resistor_SMD"*%
%TO.CMnt,SMD*%
%TO.CRot,0*%
X161190000Y-50060000D03*
D13*
X162839999Y-49330001D02*
X162839999Y-50789999D01*
X159540001Y-50789999D01*
X159540001Y-49330001D01*
X162839999Y-49330001D01*
D14*
%TO.P,"R22","1"*%
X160277500Y-50060000D03*
D12*
%TO.P,"R22","2"*%
X162102500Y-50060000D03*
%TD*%
D10*
%TO.C,"D2"*%
%TO.CFtp,"D_SOD-523"*%
%TO.CVal,"LESD5D5.0CT1G"*%
%TO.CLbN,"Diode_SMD"*%
%TO.CMnt,SMD*%
%TO.CRot,90*%
X126440000Y-86130000D03*
D13*
X127139999Y-84880001D02*
X127139999Y-87379999D01*
X125740001Y-87379999D01*
X125740001Y-84880001D01*
X127139999Y-84880001D01*
D14*
%TO.P,"D2","1","A1"*%
X126440000Y-86830000D03*
D12*
%TO.P,"D2","2","A2"*%
X126440000Y-85430000D03*
%TD*%
D10*
%TO.C,"R11"*%
%TO.CFtp,"R_0603_1608Metric_Pad0.98x0.95mm_HandSolder"*%
%TO.CVal,"0"*%
%TO.CLbN,"Resistor_SMD"*%
%TO.CMnt,SMD*%
%TO.CRot,0*%
X136647500Y-78729250D03*
D13*
X138297499Y-77999251D02*
X138297499Y-79459249D01*
X134997501Y-79459249D01*
X134997501Y-77999251D01*
X138297499Y-77999251D01*
D14*
%TO.P,"R11","1"*%
X135735000Y-78729250D03*
D12*
%TO.P,"R11","2"*%
X137560000Y-78729250D03*
%TD*%
D10*
%TO.C,"R13"*%
%TO.CFtp,"R_0603_1608Metric_Pad0.98x0.95mm_HandSolder"*%
%TO.CVal,"10k"*%
%TO.CLbN,"Resistor_SMD"*%
%TO.CMnt,SMD*%
%TO.CRot,180*%
X125790000Y-78819250D03*
D13*
X127439999Y-78089251D02*
X127439999Y-79549249D01*
X124140001Y-79549249D01*
X124140001Y-78089251D01*
X127439999Y-78089251D01*
D14*
%TO.P,"R13","1"*%
X126702500Y-78819250D03*
D12*
%TO.P,"R13","2"*%
X124877500Y-78819250D03*
%TD*%
D10*
%TO.C,"C9"*%
%TO.CFtp,"C_0603_1608Metric_Pad1.08x0.95mm_HandSolder"*%
%TO.CVal,"100n"*%
%TO.CLbN,"Capacitor_SMD"*%
%TO.CMnt,SMD*%
%TO.CRot,0*%
X158280000Y-89880000D03*
D13*
X159929999Y-89150001D02*
X159929999Y-90609999D01*
X156630001Y-90609999D01*
X156630001Y-89150001D01*
X159929999Y-89150001D01*
D14*
%TO.P,"C9","1"*%
X157417500Y-89880000D03*
D12*
%TO.P,"C9","2"*%
X159142500Y-89880000D03*
%TD*%
D10*
%TO.C,"U3"*%
%TO.CFtp,"ESP32-WROOM-32"*%
%TO.CVal,"ESP32-WROOM-32"*%
%TO.CLbN,"RF_Module"*%
%TO.CMnt,SMD*%
%TO.CRot,0*%
X147655000Y-57952500D03*
D13*
X171654999Y-27212501D02*
X171654999Y-48152499D01*
X157405000Y-48152499D01*
X157404999Y-48152500D01*
X157404999Y-68462499D01*
X137905001Y-68462499D01*
X137905001Y-48152500D01*
X137905000Y-48152499D01*
X123655001Y-48152499D01*
X123655001Y-27212501D01*
X171654999Y-27212501D01*
D14*
%TO.P,"U3","1","GND"*%
X138905000Y-49702500D03*
D12*
%TO.P,"U3","2","VDD"*%
X138905000Y-50972500D03*
%TO.P,"U3","3","EN"*%
X138905000Y-52242500D03*
%TO.P,"U3","4","SENSOR_VP"*%
X138905000Y-53512500D03*
%TO.P,"U3","5","SENSOR_VN"*%
X138905000Y-54782500D03*
%TO.P,"U3","6","IO34"*%
X138905000Y-56052500D03*
%TO.P,"U3","7","IO35"*%
X138905000Y-57322500D03*
%TO.P,"U3","8","IO32"*%
X138905000Y-58592500D03*
%TO.P,"U3","9","IO33"*%
X138905000Y-59862500D03*
%TO.P,"U3","10","IO25"*%
X138905000Y-61132500D03*
%TO.P,"U3","11","IO26"*%
X138905000Y-62402500D03*
%TO.P,"U3","12","IO27"*%
X138905000Y-63672500D03*
%TO.P,"U3","13","IO14"*%
X138905000Y-64942500D03*
%TO.P,"U3","14","IO12"*%
X138905000Y-66212500D03*
%TO.P,"U3","15","GND"*%
X141945000Y-67462500D03*
%TO.P,"U3","16","IO13"*%
X143215000Y-67462500D03*
%TO.P,"U3","17","SHD/SD2"*%
X144485000Y-67462500D03*
%TO.P,"U3","18","SWP/SD3"*%
X145755000Y-67462500D03*
%TO.P,"U3","19","SCS/CMD"*%
X147025000Y-67462500D03*
%TO.P,"U3","20","SCK/CLK"*%
X148295000Y-67462500D03*
%TO.P,"U3","21","SDO/SD0"*%
X149565000Y-67462500D03*
%TO.P,"U3","22","SDI/SD1"*%
X150835000Y-67462500D03*
%TO.P,"U3","23","IO15"*%
X152105000Y-67462500D03*
%TO.P,"U3","24","IO2"*%
X153375000Y-67462500D03*
%TO.P,"U3","25","IO0"*%
X156405000Y-66212500D03*
%TO.P,"U3","26","IO4"*%
X156405000Y-64942500D03*
%TO.P,"U3","27","IO16"*%
X156405000Y-63672500D03*
%TO.P,"U3","28","IO17"*%
X156405000Y-62402500D03*
%TO.P,"U3","29","IO5"*%
X156405000Y-61132500D03*
%TO.P,"U3","30","IO18"*%
X156405000Y-59862500D03*
%TO.P,"U3","31","IO19"*%
X156405000Y-58592500D03*
%TO.P,"U3","32","NC"*%
X156405000Y-57322500D03*
%TO.P,"U3","33","IO21"*%
X156405000Y-56052500D03*
%TO.P,"U3","34","RXD0/IO3"*%
X156405000Y-54782500D03*
%TO.P,"U3","35","TXD0/IO1"*%
X156405000Y-53512500D03*
%TO.P,"U3","36","IO22"*%
X156405000Y-52242500D03*
%TO.P,"U3","37","IO23"*%
X156405000Y-50972500D03*
%TO.P,"U3","38","GND"*%
X156405000Y-49702500D03*
%TO.P,"U3","39","GND"*%
X145450000Y-55517500D03*
X145450000Y-56280000D03*
X145450000Y-57042500D03*
X145450000Y-57805000D03*
X145450000Y-58567500D03*
X146212500Y-55517500D03*
X146212500Y-57042500D03*
X146212500Y-58567500D03*
X146975000Y-55517500D03*
X146975000Y-56280000D03*
X146975000Y-57042500D03*
X146975000Y-57042500D03*
X146975000Y-57805000D03*
X146975000Y-58567500D03*
X147737500Y-55517500D03*
X147737500Y-57042500D03*
X147737500Y-58567500D03*
X148500000Y-55517500D03*
X148500000Y-56280000D03*
X148500000Y-57042500D03*
X148500000Y-57805000D03*
X148500000Y-58567500D03*
%TD*%
D10*
%TO.C,"RESET1"*%
%TO.CFtp,"SW_Push_SPST_NO_Alps_SKRK"*%
%TO.CVal,"SW_Push"*%
%TO.CLbN,"Button_Switch_SMD"*%
%TO.CMnt,SMD*%
%TO.CRot,0*%
X111620000Y-64187500D03*
D13*
X114369999Y-62487501D02*
X114369999Y-65887499D01*
X108870001Y-65887499D01*
X108870001Y-62487501D01*
X114369999Y-62487501D01*
D14*
%TO.P,"RESET1","1","1"*%
X109520000Y-64187500D03*
D12*
%TO.P,"RESET1","2","2"*%
X113720000Y-64187500D03*
%TD*%
D10*
%TO.C,"R32"*%
%TO.CFtp,"R_0603_1608Metric_Pad0.98x0.95mm_HandSolder"*%
%TO.CVal,"1k"*%
%TO.CLbN,"Resistor_SMD"*%
%TO.CMnt,SMD*%
%TO.CRot,90*%
X145790000Y-102680000D03*
D13*
X146519999Y-101030001D02*
X146519999Y-104329999D01*
X145060001Y-104329999D01*
X145060001Y-101030001D01*
X146519999Y-101030001D01*
D14*
%TO.P,"R32","1"*%
X145790000Y-103592500D03*
D12*
%TO.P,"R32","2"*%
X145790000Y-101767500D03*
%TD*%
D10*
%TO.C,"Q4"*%
%TO.CFtp,"SOT-23"*%
%TO.CVal,"AO3401A"*%
%TO.CLbN,"Package_TO_SOT_SMD"*%
%TO.CMnt,SMD*%
%TO.CRot,90*%
X140012500Y-108457500D03*
D13*
X141712499Y-106537501D02*
X141712499Y-110377499D01*
X138312501Y-110377499D01*
X138312501Y-106537501D01*
X141712499Y-106537501D01*
D14*
%TO.P,"Q4","1","G"*%
X139062500Y-109395000D03*
D12*
%TO.P,"Q4","2","S"*%
X140962500Y-109395000D03*
%TO.P,"Q4","3","D"*%
X140012500Y-107520000D03*
%TD*%
D10*
%TO.C,"SW5"*%
%TO.CFtp,"SW_Push_SPST_NO_Alps_SKRK"*%
%TO.CVal,"SW_Push"*%
%TO.CLbN,"Button_Switch_SMD"*%
%TO.CMnt,SMD*%
%TO.CRot,0*%
X175720000Y-51797500D03*
D13*
X178469999Y-50097501D02*
X178469999Y-53497499D01*
X172970001Y-53497499D01*
X172970001Y-50097501D01*
X178469999Y-50097501D01*
D14*
%TO.P,"SW5","1","1"*%
X173620000Y-51797500D03*
D12*
%TO.P,"SW5","2","2"*%
X177820000Y-51797500D03*
%TD*%
D10*
%TO.C,"SW1"*%
%TO.CFtp,"SW_Push_SPST_NO_Alps_SKRK"*%
%TO.CVal,"SW_Push"*%
%TO.CLbN,"Button_Switch_SMD"*%
%TO.CMnt,SMD*%
%TO.CRot,0*%
X175720000Y-73180000D03*
D13*
X178469999Y-71480001D02*
X178469999Y-74879999D01*
X172970001Y-74879999D01*
X172970001Y-71480001D01*
X178469999Y-71480001D01*
D14*
%TO.P,"SW1","1","1"*%
X173620000Y-73180000D03*
D12*
%TO.P,"SW1","2","2"*%
X177820000Y-73180000D03*
%TD*%
D10*
%TO.C,"J6"*%
%TO.CFtp,"connector_2pin_5.08"*%
%TO.CVal,"Motor B"*%
%TO.CLbN,"TP4056"*%
%TO.CMnt,SMD*%
%TO.CRot,90*%
X113007500Y-114295000D03*
D11*
X111507500Y-115795000D02*
X114507500Y-115795000D01*
X114507500Y-107715000D01*
X111507500Y-107715000D01*
X111507500Y-115795000D01*
D14*
%TO.P,"J6","1","Pin_1"*%
X113007500Y-114295000D03*
D12*
%TO.P,"J6","2","Pin_2"*%
X113007500Y-109215000D03*
%TD*%
D10*
%TO.C,"C18"*%
%TO.CFtp,"C_1206_3216Metric_Pad1.33x1.80mm_HandSolder"*%
%TO.CVal,"22u"*%
%TO.CLbN,"Capacitor_SMD"*%
%TO.CMnt,SMD*%
%TO.CRot,-90*%
X154390000Y-107210000D03*
D13*
X155539999Y-104730001D02*
X155539999Y-109689999D01*
X153240001Y-109689999D01*
X153240001Y-104730001D01*
X155539999Y-104730001D01*
D14*
%TO.P,"C18","1"*%
X154390000Y-105647500D03*
D12*
%TO.P,"C18","2"*%
X154390000Y-108772500D03*
%TD*%
D10*
%TO.C,"D3"*%
%TO.CFtp,"D_SOD-523"*%
%TO.CVal,"LESD5D5.0CT1G"*%
%TO.CLbN,"Diode_SMD"*%
%TO.CMnt,SMD*%
%TO.CRot,-90*%
X120660000Y-81530000D03*
D13*
X121359999Y-80280001D02*
X121359999Y-82779999D01*
X119960001Y-82779999D01*
X119960001Y-80280001D01*
X121359999Y-80280001D01*
D14*
%TO.P,"D3","1","A1"*%
X120660000Y-80830000D03*
D12*
%TO.P,"D3","2","A2"*%
X120660000Y-82230000D03*
%TD*%
D10*
%TO.C,"Q3"*%
%TO.CFtp,"TSSOP-8_3x3mm_P0.65mm"*%
%TO.CVal,"FS8205A"*%
%TO.CLbN,"Package_SO"*%
%TO.CMnt,SMD*%
%TO.CRot,-90*%
X122037500Y-112632500D03*
D13*
X123837499Y-109682501D02*
X123837499Y-115582499D01*
X120237501Y-115582499D01*
X120237501Y-109682501D01*
X123837499Y-109682501D01*
D14*
%TO.P,"Q3","1"*%
X123012500Y-110482500D03*
D12*
%TO.P,"Q3","2"*%
X122362500Y-110482500D03*
%TO.P,"Q3","3"*%
X121712500Y-110482500D03*
%TO.P,"Q3","4"*%
X121062500Y-110482500D03*
%TO.P,"Q3","5"*%
X121062500Y-114782500D03*
%TO.P,"Q3","6"*%
X121712500Y-114782500D03*
%TO.P,"Q3","7"*%
X122362500Y-114782500D03*
%TO.P,"Q3","8"*%
X123012500Y-114782500D03*
%TD*%
D10*
%TO.C,"R29"*%
%TO.CFtp,"R_0603_1608Metric_Pad0.98x0.95mm_HandSolder"*%
%TO.CVal,"10k"*%
%TO.CLbN,"Resistor_SMD"*%
%TO.CMnt,SMD*%
%TO.CRot,-90*%
X166190000Y-51717500D03*
D13*
X166919999Y-50067501D02*
X166919999Y-53367499D01*
X165460001Y-53367499D01*
X165460001Y-50067501D01*
X166919999Y-50067501D01*
D14*
%TO.P,"R29","1"*%
X166190000Y-50805000D03*
D12*
%TO.P,"R29","2"*%
X166190000Y-52630000D03*
%TD*%
D10*
%TO.C,"D7"*%
%TO.CFtp,"LED_0603_1608Metric_Pad1.05x0.95mm_HandSolder"*%
%TO.CVal,"WHITE"*%
%TO.CLbN,"LED_SMD"*%
%TO.CMnt,SMD*%
%TO.CRot,180*%
X131190000Y-63647500D03*
D13*
X132839999Y-62917501D02*
X132839999Y-64377499D01*
X129540001Y-64377499D01*
X129540001Y-62917501D01*
X132839999Y-62917501D01*
D14*
%TO.P,"D7","1","K"*%
X132065000Y-63647500D03*
D12*
%TO.P,"D7","2","A"*%
X130315000Y-63647500D03*
%TD*%
D10*
%TO.C,"R24"*%
%TO.CFtp,"R_0603_1608Metric_Pad0.98x0.95mm_HandSolder"*%
%TO.CVal,"10k"*%
%TO.CLbN,"Resistor_SMD"*%
%TO.CMnt,SMD*%
%TO.CRot,90*%
X180540000Y-75947500D03*
D13*
X181269999Y-74297501D02*
X181269999Y-77597499D01*
X179810001Y-77597499D01*
X179810001Y-74297501D01*
X181269999Y-74297501D01*
D14*
%TO.P,"R24","1"*%
X180540000Y-76860000D03*
D12*
%TO.P,"R24","2"*%
X180540000Y-75035000D03*
%TD*%
D10*
%TO.C,"C26"*%
%TO.CFtp,"CP_Radial_Tantal_D6.0mm_P2.50mm"*%
%TO.CVal,"220u"*%
%TO.CLbN,"Capacitor_THT"*%
%TO.CMnt,TH*%
%TO.CRot,-90*%
X175730000Y-107370000D03*
D13*
X175364964Y-105380218D02*
X176095036Y-105380218D01*
X176806803Y-105542675D01*
X177464574Y-105859440D01*
X177464574Y-105859441D01*
X178035367Y-106314633D01*
X178490559Y-106885426D01*
X178807325Y-107543197D01*
X178969782Y-108254964D01*
X178979999Y-108620000D01*
X178969782Y-108985036D01*
X178807325Y-109696803D01*
X178490559Y-110354574D01*
X178035367Y-110925367D01*
X177464574Y-111380559D01*
X176806803Y-111697325D01*
X176095036Y-111859782D01*
X175364964Y-111859782D01*
X174653197Y-111697325D01*
X173995425Y-111380559D01*
X173995426Y-111380559D01*
X173424633Y-110925367D01*
X172969441Y-110354574D01*
X172652675Y-109696803D01*
X172490218Y-108985036D01*
X172490218Y-108254964D01*
X172652675Y-107543197D01*
X172969441Y-106885426D01*
X173424633Y-106314633D01*
X173995426Y-105859441D01*
X173995425Y-105859440D01*
X174653197Y-105542675D01*
X175364964Y-105380218D01*
D14*
%TO.P,"C26","1"*%
X175730000Y-107370000D03*
D12*
%TO.P,"C26","2"*%
X175730000Y-109870000D03*
%TD*%
D10*
%TO.C,"SW4"*%
%TO.CFtp,"SW_Push_SPST_NO_Alps_SKRK"*%
%TO.CVal,"SW_Push"*%
%TO.CLbN,"Button_Switch_SMD"*%
%TO.CMnt,SMD*%
%TO.CRot,0*%
X175720000Y-57110000D03*
D13*
X178469999Y-55410001D02*
X178469999Y-58809999D01*
X172970001Y-58809999D01*
X172970001Y-55410001D01*
X178469999Y-55410001D01*
D14*
%TO.P,"SW4","1","1"*%
X173620000Y-57110000D03*
D12*
%TO.P,"SW4","2","2"*%
X177820000Y-57110000D03*
%TD*%
D10*
%TO.C,"D4"*%
%TO.CFtp,"LED_0603_1608Metric_Pad1.05x0.95mm_HandSolder"*%
%TO.CVal,"GREEN"*%
%TO.CLbN,"LED_SMD"*%
%TO.CMnt,SMD*%
%TO.CRot,180*%
X131190000Y-69377500D03*
D13*
X132839999Y-68647501D02*
X132839999Y-70107499D01*
X129540001Y-70107499D01*
X129540001Y-68647501D01*
X132839999Y-68647501D01*
D14*
%TO.P,"D4","1","K"*%
X132065000Y-69377500D03*
D12*
%TO.P,"D4","2","A"*%
X130315000Y-69377500D03*
%TD*%
D10*
%TO.C,"R7"*%
%TO.CFtp,"R_0603_1608Metric_Pad0.98x0.95mm_HandSolder"*%
%TO.CVal,"330"*%
%TO.CLbN,"Resistor_SMD"*%
%TO.CMnt,SMD*%
%TO.CRot,0*%
X125912500Y-60997500D03*
D13*
X127562499Y-60267501D02*
X127562499Y-61727499D01*
X124262501Y-61727499D01*
X124262501Y-60267501D01*
X127562499Y-60267501D01*
D14*
%TO.P,"R7","1"*%
X125000000Y-60997500D03*
D12*
%TO.P,"R7","2"*%
X126825000Y-60997500D03*
%TD*%
D10*
%TO.C,"C5"*%
%TO.CFtp,"C_0603_1608Metric_Pad1.08x0.95mm_HandSolder"*%
%TO.CVal,"100n"*%
%TO.CLbN,"Capacitor_SMD"*%
%TO.CMnt,SMD*%
%TO.CRot,-90*%
X169810000Y-57030000D03*
D13*
X170539999Y-55380001D02*
X170539999Y-58679999D01*
X169080001Y-58679999D01*
X169080001Y-55380001D01*
X170539999Y-55380001D01*
D14*
%TO.P,"C5","1"*%
X169810000Y-56167500D03*
D12*
%TO.P,"C5","2"*%
X169810000Y-57892500D03*
%TD*%
D10*
%TO.C,"C23"*%
%TO.CFtp,"C_1206_3216Metric_Pad1.33x1.80mm_HandSolder"*%
%TO.CVal,"10u"*%
%TO.CLbN,"Capacitor_SMD"*%
%TO.CMnt,SMD*%
%TO.CRot,-90*%
X168617500Y-100682500D03*
D13*
X169767499Y-98202501D02*
X169767499Y-103162499D01*
X167467501Y-103162499D01*
X167467501Y-98202501D01*
X169767499Y-98202501D01*
D14*
%TO.P,"C23","1"*%
X168617500Y-99120000D03*
D12*
%TO.P,"C23","2"*%
X168617500Y-102245000D03*
%TD*%
D10*
%TO.C,"J7"*%
%TO.CFtp,"PinHeader_1x04_P2.54mm_Vertical"*%
%TO.CVal,"DAC & ADC"*%
%TO.CLbN,"Connector_PinHeader_2.54mm"*%
%TO.CMnt,TH*%
%TO.CRot,0*%
X183980000Y-85980000D03*
D13*
X185779999Y-84180001D02*
X185779999Y-95379999D01*
X182180001Y-95379999D01*
X182180001Y-84180001D01*
X185779999Y-84180001D01*
D14*
%TO.P,"J7","1","Pin_1"*%
X183980000Y-85980000D03*
D12*
%TO.P,"J7","2","Pin_2"*%
X183980000Y-88520000D03*
%TO.P,"J7","3","Pin_3"*%
X183980000Y-91060000D03*
%TO.P,"J7","4","Pin_4"*%
X183980000Y-93600000D03*
%TD*%
D10*
%TO.C,"R27"*%
%TO.CFtp,"R_0603_1608Metric_Pad0.98x0.95mm_HandSolder"*%
%TO.CVal,"10k"*%
%TO.CLbN,"Resistor_SMD"*%
%TO.CMnt,SMD*%
%TO.CRot,-90*%
X166190000Y-62570000D03*
D13*
X166919999Y-60920001D02*
X166919999Y-64219999D01*
X165460001Y-64219999D01*
X165460001Y-60920001D01*
X166919999Y-60920001D01*
D14*
%TO.P,"R27","1"*%
X166190000Y-61657500D03*
D12*
%TO.P,"R27","2"*%
X166190000Y-63482500D03*
%TD*%
D10*
%TO.C,"R19"*%
%TO.CFtp,"R_0603_1608Metric_Pad0.98x0.95mm_HandSolder"*%
%TO.CVal,"10k"*%
%TO.CLbN,"Resistor_SMD"*%
%TO.CMnt,SMD*%
%TO.CRot,0*%
X158292500Y-76795000D03*
D13*
X159942499Y-76065001D02*
X159942499Y-77524999D01*
X156642501Y-77524999D01*
X156642501Y-76065001D01*
X159942499Y-76065001D01*
D14*
%TO.P,"R19","1"*%
X157380000Y-76795000D03*
D12*
%TO.P,"R19","2"*%
X159205000Y-76795000D03*
%TD*%
D10*
%TO.C,"R25"*%
%TO.CFtp,"R_0603_1608Metric_Pad0.98x0.95mm_HandSolder"*%
%TO.CVal,"10k"*%
%TO.CLbN,"Resistor_SMD"*%
%TO.CMnt,SMD*%
%TO.CRot,-90*%
X166190000Y-73100000D03*
D13*
X166919999Y-71450001D02*
X166919999Y-74749999D01*
X165460001Y-74749999D01*
X165460001Y-71450001D01*
X166919999Y-71450001D01*
D14*
%TO.P,"R25","1"*%
X166190000Y-72187500D03*
D12*
%TO.P,"R25","2"*%
X166190000Y-74012500D03*
%TD*%
D10*
%TO.C,"C17"*%
%TO.CFtp,"C_1206_3216Metric_Pad1.33x1.80mm_HandSolder"*%
%TO.CVal,"10n"*%
%TO.CLbN,"Capacitor_SMD"*%
%TO.CMnt,SMD*%
%TO.CRot,-90*%
X157500000Y-107210000D03*
D13*
X158649999Y-104730001D02*
X158649999Y-109689999D01*
X156350001Y-109689999D01*
X156350001Y-104730001D01*
X158649999Y-104730001D01*
D14*
%TO.P,"C17","1"*%
X157500000Y-105647500D03*
D12*
%TO.P,"C17","2"*%
X157500000Y-108772500D03*
%TD*%
D10*
%TO.C,"C11"*%
%TO.CFtp,"C_1206_3216Metric_Pad1.33x1.80mm_HandSolder"*%
%TO.CVal,"10u"*%
%TO.CLbN,"Capacitor_SMD"*%
%TO.CMnt,SMD*%
%TO.CRot,-90*%
X152220000Y-76545000D03*
D13*
X153369999Y-74065001D02*
X153369999Y-79024999D01*
X151070001Y-79024999D01*
X151070001Y-74065001D01*
X153369999Y-74065001D01*
D14*
%TO.P,"C11","1"*%
X152220000Y-74982500D03*
D12*
%TO.P,"C11","2"*%
X152220000Y-78107500D03*
%TD*%
D10*
%TO.C,"R9"*%
%TO.CFtp,"R_0603_1608Metric_Pad0.98x0.95mm_HandSolder"*%
%TO.CVal,"47k5"*%
%TO.CLbN,"Resistor_SMD"*%
%TO.CMnt,SMD*%
%TO.CRot,180*%
X126432500Y-92450000D03*
D13*
X128082499Y-91720001D02*
X128082499Y-93179999D01*
X124782501Y-93179999D01*
X124782501Y-91720001D01*
X128082499Y-91720001D01*
D14*
%TO.P,"R9","1"*%
X127345000Y-92450000D03*
D12*
%TO.P,"R9","2"*%
X125520000Y-92450000D03*
%TD*%
D10*
%TO.C,"R21"*%
%TO.CFtp,"R_0603_1608Metric_Pad0.98x0.95mm_HandSolder"*%
%TO.CVal,"10k"*%
%TO.CLbN,"Resistor_SMD"*%
%TO.CMnt,SMD*%
%TO.CRot,0*%
X158255000Y-87795000D03*
D13*
X159904999Y-87065001D02*
X159904999Y-88524999D01*
X156605001Y-88524999D01*
X156605001Y-87065001D01*
X159904999Y-87065001D01*
D14*
%TO.P,"R21","1"*%
X157342500Y-87795000D03*
D12*
%TO.P,"R21","2"*%
X159167500Y-87795000D03*
%TD*%
D10*
%TO.C,"D10"*%
%TO.CFtp,"LED_0603_1608Metric_Pad1.05x0.95mm_HandSolder"*%
%TO.CVal,"GREEN"*%
%TO.CLbN,"LED_SMD"*%
%TO.CMnt,SMD*%
%TO.CRot,90*%
X141170000Y-102755000D03*
D13*
X141899999Y-101105001D02*
X141899999Y-104404999D01*
X140440001Y-104404999D01*
X140440001Y-101105001D01*
X141899999Y-101105001D01*
D14*
%TO.P,"D10","1","K"*%
X141170000Y-103630000D03*
D12*
%TO.P,"D10","2","A"*%
X141170000Y-101880000D03*
%TD*%
D10*
%TO.C,"C7"*%
%TO.CFtp,"C_0603_1608Metric_Pad1.08x0.95mm_HandSolder"*%
%TO.CVal,"4.7u"*%
%TO.CLbN,"Capacitor_SMD"*%
%TO.CMnt,SMD*%
%TO.CRot,180*%
X122432500Y-92460000D03*
D13*
X124082499Y-91730001D02*
X124082499Y-93189999D01*
X120782501Y-93189999D01*
X120782501Y-91730001D01*
X124082499Y-91730001D01*
D14*
%TO.P,"C7","1"*%
X123295000Y-92460000D03*
D12*
%TO.P,"C7","2"*%
X121570000Y-92460000D03*
%TD*%
D10*
%TO.C,"R26"*%
%TO.CFtp,"R_0603_1608Metric_Pad0.98x0.95mm_HandSolder"*%
%TO.CVal,"10k"*%
%TO.CLbN,"Resistor_SMD"*%
%TO.CMnt,SMD*%
%TO.CRot,-90*%
X166190000Y-67907500D03*
D13*
X166919999Y-66257501D02*
X166919999Y-69557499D01*
X165460001Y-69557499D01*
X165460001Y-66257501D01*
X166919999Y-66257501D01*
D14*
%TO.P,"R26","1"*%
X166190000Y-66995000D03*
D12*
%TO.P,"R26","2"*%
X166190000Y-68820000D03*
%TD*%
D10*
%TO.C,"U5"*%
%TO.CFtp,"SOT-23-6"*%
%TO.CVal,"DW01A"*%
%TO.CLbN,"Package_TO_SOT_SMD"*%
%TO.CMnt,SMD*%
%TO.CRot,180*%
X129372500Y-113940000D03*
D13*
X131422499Y-112240001D02*
X131422499Y-115639999D01*
X127322501Y-115639999D01*
X127322501Y-112240001D01*
X131422499Y-112240001D01*
D14*
%TO.P,"U5","1","OD"*%
X130510000Y-114890000D03*
D12*
%TO.P,"U5","2","VM"*%
X130510000Y-113940000D03*
%TO.P,"U5","3","OC"*%
X130510000Y-112990000D03*
%TO.P,"U5","4","TD"*%
X128235000Y-112990000D03*
%TO.P,"U5","5","VCC"*%
X128235000Y-113940000D03*
%TO.P,"U5","6","GND"*%
X128235000Y-114890000D03*
%TD*%
D10*
%TO.C,"D6"*%
%TO.CFtp,"LED_0603_1608Metric_Pad1.05x0.95mm_HandSolder"*%
%TO.CVal,"BLUE"*%
%TO.CLbN,"LED_SMD"*%
%TO.CMnt,SMD*%
%TO.CRot,180*%
X131190000Y-66517500D03*
D13*
X132839999Y-65787501D02*
X132839999Y-67247499D01*
X129540001Y-67247499D01*
X129540001Y-65787501D01*
X132839999Y-65787501D01*
D14*
%TO.P,"D6","1","K"*%
X132065000Y-66517500D03*
D12*
%TO.P,"D6","2","A"*%
X130315000Y-66517500D03*
%TD*%
D10*
%TO.C,"U6"*%
%TO.CFtp,"TO-252-3_TabPin2"*%
%TO.CVal,"AMS1117CD-3.3"*%
%TO.CLbN,"Package_TO_SOT_SMD"*%
%TO.CMnt,SMD*%
%TO.CRot,-90*%
X167687500Y-111035000D03*
D13*
X171187499Y-104645001D02*
X171187499Y-115744999D01*
X164187501Y-115744999D01*
X164187501Y-104645001D01*
X171187499Y-104645001D01*
D14*
%TO.P,"U6","1","GND"*%
X169967500Y-105995000D03*
D12*
%TO.P,"U6","2","VO"*%
X167687500Y-105995000D03*
X169212500Y-110620000D03*
X166162500Y-110620000D03*
X167687500Y-112295000D03*
X169212500Y-113970000D03*
X166162500Y-113970000D03*
%TO.P,"U6","3","VI"*%
X165407500Y-105995000D03*
%TD*%
D10*
%TO.C,"C21"*%
%TO.CFtp,"CP_Radial_Tantal_D6.0mm_P2.50mm"*%
%TO.CVal,"220u"*%
%TO.CLbN,"Capacitor_THT"*%
%TO.CMnt,TH*%
%TO.CRot,-90*%
X159350000Y-112550000D03*
D13*
X158984964Y-110560218D02*
X159715036Y-110560218D01*
X160426803Y-110722675D01*
X161084574Y-111039440D01*
X161084574Y-111039441D01*
X161655367Y-111494633D01*
X162110559Y-112065426D01*
X162427325Y-112723197D01*
X162589782Y-113434964D01*
X162599999Y-113800000D01*
X162589782Y-114165036D01*
X162427325Y-114876803D01*
X162110559Y-115534574D01*
X161655367Y-116105367D01*
X161084574Y-116560559D01*
X160426803Y-116877325D01*
X159715036Y-117039782D01*
X158984964Y-117039782D01*
X158273197Y-116877325D01*
X157615425Y-116560559D01*
X157615426Y-116560559D01*
X157044633Y-116105367D01*
X156589441Y-115534574D01*
X156272675Y-114876803D01*
X156110218Y-114165036D01*
X156110218Y-113434964D01*
X156272675Y-112723197D01*
X156589441Y-112065426D01*
X157044633Y-111494633D01*
X157615426Y-111039441D01*
X157615425Y-111039440D01*
X158273197Y-110722675D01*
X158984964Y-110560218D01*
D14*
%TO.P,"C21","1"*%
X159350000Y-112550000D03*
D12*
%TO.P,"C21","2"*%
X159350000Y-115050000D03*
%TD*%
D10*
%TO.C,"D8"*%
%TO.CFtp,"LED_0603_1608Metric_Pad1.05x0.95mm_HandSolder"*%
%TO.CVal,"YELLOW"*%
%TO.CLbN,"LED_SMD"*%
%TO.CMnt,SMD*%
%TO.CRot,180*%
X131190000Y-60937500D03*
D13*
X132839999Y-60207501D02*
X132839999Y-61667499D01*
X129540001Y-61667499D01*
X129540001Y-60207501D01*
X132839999Y-60207501D01*
D14*
%TO.P,"D8","1","K"*%
X132065000Y-60937500D03*
D12*
%TO.P,"D8","2","A"*%
X130315000Y-60937500D03*
%TD*%
D10*
%TO.C,"C1"*%
%TO.CFtp,"C_0603_1608Metric_Pad1.08x0.95mm_HandSolder"*%
%TO.CVal,"100n"*%
%TO.CLbN,"Capacitor_SMD"*%
%TO.CMnt,SMD*%
%TO.CRot,-90*%
X118800000Y-81520000D03*
D13*
X119529999Y-79870001D02*
X119529999Y-83169999D01*
X118070001Y-83169999D01*
X118070001Y-79870001D01*
X119529999Y-79870001D01*
D14*
%TO.P,"C1","1"*%
X118800000Y-80657500D03*
D12*
%TO.P,"C1","2"*%
X118800000Y-82382500D03*
%TD*%
D10*
%TO.C,"R8"*%
%TO.CFtp,"R_0603_1608Metric_Pad0.98x0.95mm_HandSolder"*%
%TO.CVal,"22k1"*%
%TO.CLbN,"Resistor_SMD"*%
%TO.CMnt,SMD*%
%TO.CRot,0*%
X126432500Y-90180000D03*
D13*
X128082499Y-89450001D02*
X128082499Y-90909999D01*
X124782501Y-90909999D01*
X124782501Y-89450001D01*
X128082499Y-89450001D01*
D14*
%TO.P,"R8","1"*%
X125520000Y-90180000D03*
D12*
%TO.P,"R8","2"*%
X127345000Y-90180000D03*
%TD*%
D10*
%TO.C,"C10"*%
%TO.CFtp,"C_0603_1608Metric_Pad1.08x0.95mm_HandSolder"*%
%TO.CVal,"100n"*%
%TO.CLbN,"Capacitor_SMD"*%
%TO.CMnt,SMD*%
%TO.CRot,90*%
X149680000Y-77247500D03*
D13*
X150409999Y-75597501D02*
X150409999Y-78897499D01*
X148950001Y-78897499D01*
X148950001Y-75597501D01*
X150409999Y-75597501D01*
D14*
%TO.P,"C10","1"*%
X149680000Y-78110000D03*
D12*
%TO.P,"C10","2"*%
X149680000Y-76385000D03*
%TD*%
D10*
%TO.C,"C25"*%
%TO.CFtp,"CP_Radial_Tantal_D6.0mm_P2.50mm"*%
%TO.CVal,"100u"*%
%TO.CLbN,"Capacitor_THT"*%
%TO.CMnt,TH*%
%TO.CRot,-90*%
X183000000Y-103460000D03*
D13*
X182634964Y-101470218D02*
X183365036Y-101470218D01*
X184076803Y-101632675D01*
X184734574Y-101949440D01*
X184734574Y-101949441D01*
X185305367Y-102404633D01*
X185760559Y-102975426D01*
X186077325Y-103633197D01*
X186239782Y-104344964D01*
X186249999Y-104710000D01*
X186239782Y-105075036D01*
X186077325Y-105786803D01*
X185760559Y-106444574D01*
X185305367Y-107015367D01*
X184734574Y-107470559D01*
X184076803Y-107787325D01*
X183365036Y-107949782D01*
X182634964Y-107949782D01*
X181923197Y-107787325D01*
X181265425Y-107470559D01*
X181265426Y-107470559D01*
X180694633Y-107015367D01*
X180239441Y-106444574D01*
X179922675Y-105786803D01*
X179760218Y-105075036D01*
X179760218Y-104344964D01*
X179922675Y-103633197D01*
X180239441Y-102975426D01*
X180694633Y-102404633D01*
X181265426Y-101949441D01*
X181265425Y-101949440D01*
X181923197Y-101632675D01*
X182634964Y-101470218D01*
D14*
%TO.P,"C25","1"*%
X183000000Y-103460000D03*
D12*
%TO.P,"C25","2"*%
X183000000Y-105960000D03*
%TD*%
D10*
%TO.C,"J3"*%
%TO.CFtp,"PinHeader_1x03_P2.54mm_Vertical"*%
%TO.CVal,"I2c"*%
%TO.CLbN,"Connector_PinHeader_2.54mm"*%
%TO.CMnt,TH*%
%TO.CRot,180*%
X184120000Y-56957500D03*
D13*
X185919999Y-50107501D02*
X185919999Y-58757499D01*
X182320001Y-58757499D01*
X182320001Y-50107501D01*
X185919999Y-50107501D01*
D14*
%TO.P,"J3","1","Pin_1"*%
X184120000Y-56957500D03*
D12*
%TO.P,"J3","2","Pin_2"*%
X184120000Y-54417500D03*
%TO.P,"J3","3","Pin_3"*%
X184120000Y-51877500D03*
%TD*%
D10*
%TO.C,"R18"*%
%TO.CFtp,"R_0603_1608Metric_Pad0.98x0.95mm_HandSolder"*%
%TO.CVal,"10k"*%
%TO.CLbN,"Resistor_SMD"*%
%TO.CMnt,SMD*%
%TO.CRot,0*%
X158270000Y-83345000D03*
D13*
X159919999Y-82615001D02*
X159919999Y-84074999D01*
X156620001Y-84074999D01*
X156620001Y-82615001D01*
X159919999Y-82615001D01*
D14*
%TO.P,"R18","1"*%
X157357500Y-83345000D03*
D12*
%TO.P,"R18","2"*%
X159182500Y-83345000D03*
%TD*%
D10*
%TO.C,"R17"*%
%TO.CFtp,"R_0603_1608Metric_Pad0.98x0.95mm_HandSolder"*%
%TO.CVal,"10k"*%
%TO.CLbN,"Resistor_SMD"*%
%TO.CMnt,SMD*%
%TO.CRot,0*%
X158262500Y-85535000D03*
D13*
X159912499Y-84805001D02*
X159912499Y-86264999D01*
X156612501Y-86264999D01*
X156612501Y-84805001D01*
X159912499Y-84805001D01*
D14*
%TO.P,"R17","1"*%
X157350000Y-85535000D03*
D12*
%TO.P,"R17","2"*%
X159175000Y-85535000D03*
%TD*%
D10*
%TO.C,"SW3"*%
%TO.CFtp,"SW_Push_SPST_NO_Alps_SKRK"*%
%TO.CVal,"SW_Push"*%
%TO.CLbN,"Button_Switch_SMD"*%
%TO.CMnt,SMD*%
%TO.CRot,0*%
X175720000Y-62650000D03*
D13*
X178469999Y-60950001D02*
X178469999Y-64349999D01*
X172970001Y-64349999D01*
X172970001Y-60950001D01*
X178469999Y-60950001D01*
D14*
%TO.P,"SW3","1","1"*%
X173620000Y-62650000D03*
D12*
%TO.P,"SW3","2","2"*%
X177820000Y-62650000D03*
%TD*%
D10*
%TO.C,"D1"*%
%TO.CFtp,"D_SOD-523"*%
%TO.CVal,"LESD5D5.0CT1G"*%
%TO.CLbN,"Diode_SMD"*%
%TO.CMnt,SMD*%
%TO.CRot,-90*%
X124860000Y-83842500D03*
D13*
X125559999Y-82592501D02*
X125559999Y-85092499D01*
X124160001Y-85092499D01*
X124160001Y-82592501D01*
X125559999Y-82592501D01*
D14*
%TO.P,"D1","1","A1"*%
X124860000Y-83142500D03*
D12*
%TO.P,"D1","2","A2"*%
X124860000Y-84542500D03*
%TD*%
D10*
%TO.C,"C13"*%
%TO.CFtp,"C_0603_1608Metric_Pad1.08x0.95mm_HandSolder"*%
%TO.CVal,"100n"*%
%TO.CLbN,"Capacitor_SMD"*%
%TO.CMnt,SMD*%
%TO.CRot,-90*%
X116990000Y-72097500D03*
D13*
X117719999Y-70447501D02*
X117719999Y-73747499D01*
X116260001Y-73747499D01*
X116260001Y-70447501D01*
X117719999Y-70447501D01*
D14*
%TO.P,"C13","1"*%
X116990000Y-71235000D03*
D12*
%TO.P,"C13","2"*%
X116990000Y-72960000D03*
%TD*%
D10*
%TO.C,"J10"*%
%TO.CFtp,"PinHeader_1x02_P2.54mm_Vertical"*%
%TO.CVal,"GNDS"*%
%TO.CLbN,"Connector_PinHeader_2.54mm"*%
%TO.CMnt,TH*%
%TO.CRot,90*%
X181110000Y-113820000D03*
D13*
X185459999Y-112020001D02*
X185459999Y-115619999D01*
X179310001Y-115619999D01*
X179310001Y-112020001D01*
X185459999Y-112020001D01*
D14*
%TO.P,"J10","1","Pin_1"*%
X181110000Y-113820000D03*
D12*
%TO.P,"J10","2","Pin_2"*%
X183650000Y-113820000D03*
%TD*%
D10*
%TO.C,"C16"*%
%TO.CFtp,"C_1206_3216Metric_Pad1.33x1.80mm_HandSolder"*%
%TO.CVal,"10u"*%
%TO.CLbN,"Capacitor_SMD"*%
%TO.CMnt,SMD*%
%TO.CRot,180*%
X145262500Y-107655000D03*
D13*
X147742499Y-106505001D02*
X147742499Y-108804999D01*
X142782501Y-108804999D01*
X142782501Y-106505001D01*
X147742499Y-106505001D01*
D14*
%TO.P,"C16","1"*%
X146825000Y-107655000D03*
D12*
%TO.P,"C16","2"*%
X143700000Y-107655000D03*
%TD*%
D10*
%TO.C,"R2"*%
%TO.CFtp,"R_0603_1608Metric_Pad0.98x0.95mm_HandSolder"*%
%TO.CVal,"5k1"*%
%TO.CLbN,"Resistor_SMD"*%
%TO.CMnt,SMD*%
%TO.CRot,0*%
X121790000Y-86750000D03*
D13*
X123439999Y-86020001D02*
X123439999Y-87479999D01*
X120140001Y-87479999D01*
X120140001Y-86020001D01*
X123439999Y-86020001D01*
D14*
%TO.P,"R2","1"*%
X120877500Y-86750000D03*
D12*
%TO.P,"R2","2"*%
X122702500Y-86750000D03*
%TD*%
D10*
%TO.C,"R37"*%
%TO.CFtp,"R_0603_1608Metric_Pad0.98x0.95mm_HandSolder"*%
%TO.CVal,"100"*%
%TO.CLbN,"Resistor_SMD"*%
%TO.CMnt,SMD*%
%TO.CRot,0*%
X126770000Y-110930000D03*
D13*
X128419999Y-110200001D02*
X128419999Y-111659999D01*
X125120001Y-111659999D01*
X125120001Y-110200001D01*
X128419999Y-110200001D01*
D14*
%TO.P,"R37","1"*%
X125857500Y-110930000D03*
D12*
%TO.P,"R37","2"*%
X127682500Y-110930000D03*
%TD*%
D10*
%TO.C,"R1"*%
%TO.CFtp,"R_0603_1608Metric_Pad0.98x0.95mm_HandSolder"*%
%TO.CVal,"5k1"*%
%TO.CLbN,"Resistor_SMD"*%
%TO.CMnt,SMD*%
%TO.CRot,90*%
X122400000Y-81970000D03*
D13*
X123129999Y-80320001D02*
X123129999Y-83619999D01*
X121670001Y-83619999D01*
X121670001Y-80320001D01*
X123129999Y-80320001D01*
D14*
%TO.P,"R1","1"*%
X122400000Y-82882500D03*
D12*
%TO.P,"R1","2"*%
X122400000Y-81057500D03*
%TD*%
D10*
%TO.C,"R12"*%
%TO.CFtp,"R_0603_1608Metric_Pad0.98x0.95mm_HandSolder"*%
%TO.CVal,"10k"*%
%TO.CLbN,"Resistor_SMD"*%
%TO.CMnt,SMD*%
%TO.CRot,0*%
X125790000Y-76139250D03*
D13*
X127439999Y-75409251D02*
X127439999Y-76869249D01*
X124140001Y-76869249D01*
X124140001Y-75409251D01*
X127439999Y-75409251D01*
D14*
%TO.P,"R12","1"*%
X124877500Y-76139250D03*
D12*
%TO.P,"R12","2"*%
X126702500Y-76139250D03*
%TD*%
D10*
%TO.C,"C4"*%
%TO.CFtp,"C_0603_1608Metric_Pad1.08x0.95mm_HandSolder"*%
%TO.CVal,"100n"*%
%TO.CLbN,"Capacitor_SMD"*%
%TO.CMnt,SMD*%
%TO.CRot,-90*%
X169810000Y-62570000D03*
D13*
X170539999Y-60920001D02*
X170539999Y-64219999D01*
X169080001Y-64219999D01*
X169080001Y-60920001D01*
X170539999Y-60920001D01*
D14*
%TO.P,"C4","1"*%
X169810000Y-61707500D03*
D12*
%TO.P,"C4","2"*%
X169810000Y-63432500D03*
%TD*%
D10*
%TO.C,"C14"*%
%TO.CFtp,"C_0603_1608Metric_Pad1.08x0.95mm_HandSolder"*%
%TO.CVal,"100n"*%
%TO.CLbN,"Capacitor_SMD"*%
%TO.CMnt,SMD*%
%TO.CRot,180*%
X124230000Y-107390000D03*
D13*
X125879999Y-106660001D02*
X125879999Y-108119999D01*
X122580001Y-108119999D01*
X122580001Y-106660001D01*
X125879999Y-106660001D01*
D14*
%TO.P,"C14","1"*%
X125092500Y-107390000D03*
D12*
%TO.P,"C14","2"*%
X123367500Y-107390000D03*
%TD*%
D10*
%TO.C,"R14"*%
%TO.CFtp,"R_0603_1608Metric_Pad0.98x0.95mm_HandSolder"*%
%TO.CVal,"1k"*%
%TO.CLbN,"Resistor_SMD"*%
%TO.CMnt,SMD*%
%TO.CRot,180*%
X130905000Y-92460000D03*
D13*
X132554999Y-91730001D02*
X132554999Y-93189999D01*
X129255001Y-93189999D01*
X129255001Y-91730001D01*
X132554999Y-91730001D01*
D14*
%TO.P,"R14","1"*%
X131817500Y-92460000D03*
D12*
%TO.P,"R14","2"*%
X129992500Y-92460000D03*
%TD*%
D10*
%TO.C,"R28"*%
%TO.CFtp,"R_0603_1608Metric_Pad0.98x0.95mm_HandSolder"*%
%TO.CVal,"10k"*%
%TO.CLbN,"Resistor_SMD"*%
%TO.CMnt,SMD*%
%TO.CRot,-90*%
X166190000Y-57030000D03*
D13*
X166919999Y-55380001D02*
X166919999Y-58679999D01*
X165460001Y-58679999D01*
X165460001Y-55380001D01*
X166919999Y-55380001D01*
D14*
%TO.P,"R28","1"*%
X166190000Y-56117500D03*
D12*
%TO.P,"R28","2"*%
X166190000Y-57942500D03*
%TD*%
D10*
%TO.C,"R31"*%
%TO.CFtp,"R_0603_1608Metric_Pad0.98x0.95mm_HandSolder"*%
%TO.CVal,"10k"*%
%TO.CLbN,"Resistor_SMD"*%
%TO.CMnt,SMD*%
%TO.CRot,-90*%
X119800000Y-72137500D03*
D13*
X120529999Y-70487501D02*
X120529999Y-73787499D01*
X119070001Y-73787499D01*
X119070001Y-70487501D01*
X120529999Y-70487501D01*
D14*
%TO.P,"R31","1"*%
X119800000Y-71225000D03*
D12*
%TO.P,"R31","2"*%
X119800000Y-73050000D03*
%TD*%
D10*
%TO.C,"R3"*%
%TO.CFtp,"R_0603_1608Metric_Pad0.98x0.95mm_HandSolder"*%
%TO.CVal,"330"*%
%TO.CLbN,"Resistor_SMD"*%
%TO.CMnt,SMD*%
%TO.CRot,0*%
X125912500Y-69257500D03*
D13*
X127562499Y-68527501D02*
X127562499Y-69987499D01*
X124262501Y-69987499D01*
X124262501Y-68527501D01*
X127562499Y-68527501D01*
D14*
%TO.P,"R3","1"*%
X125000000Y-69257500D03*
D12*
%TO.P,"R3","2"*%
X126825000Y-69257500D03*
%TD*%
D10*
%TO.C,"BT1"*%
%TO.CFtp,"BAT_BK-18650-PC2"*%
%TO.CVal,"BK-18650-PC2"*%
%TO.CLbN,"BK-18650-PC2"*%
%TO.CMnt,TH*%
%TO.CRot,0*%
X147700000Y-129630000D03*
D13*
X186429999Y-118890001D02*
X186429999Y-140369999D01*
X108970001Y-140369999D01*
X108970001Y-118890001D01*
X186429999Y-118890001D01*
D12*
%TO.P,"BT1",*%
X119895000Y-129630000D03*
X175510000Y-129630000D03*
%TO.P,"BT1","+"*%
X111400000Y-129630000D03*
%TO.P,"BT1","-"*%
X184300000Y-129630000D03*
%TD*%
D10*
%TO.C,"U2"*%
%TO.CFtp,"SSOP-24_5.3x8.2mm_P0.65mm"*%
%TO.CVal,"TB6612FNG"*%
%TO.CLbN,"Package_SO"*%
%TO.CMnt,SMD*%
%TO.CRot,0*%
X148590000Y-84960000D03*
D13*
X153339999Y-80460001D02*
X153339999Y-89459999D01*
X143840001Y-89459999D01*
X143840001Y-80460001D01*
X153339999Y-80460001D01*
D14*
%TO.P,"U2","1","AO1"*%
X144990000Y-81385000D03*
D12*
%TO.P,"U2","2","AO1"*%
X144990000Y-82035000D03*
%TO.P,"U2","3","PGND1"*%
X144990000Y-82685000D03*
%TO.P,"U2","4","PGND1"*%
X144990000Y-83335000D03*
%TO.P,"U2","5","AO2"*%
X144990000Y-83985000D03*
%TO.P,"U2","6","AO2"*%
X144990000Y-84635000D03*
%TO.P,"U2","7","BO2"*%
X144990000Y-85285000D03*
%TO.P,"U2","8","BO2"*%
X144990000Y-85935000D03*
%TO.P,"U2","9","PGND2"*%
X144990000Y-86585000D03*
%TO.P,"U2","10","PGND2"*%
X144990000Y-87235000D03*
%TO.P,"U2","11","BO1"*%
X144990000Y-87885000D03*
%TO.P,"U2","12","BO1"*%
X144990000Y-88535000D03*
%TO.P,"U2","13","VM2"*%
X152190000Y-88535000D03*
%TO.P,"U2","14","VM3"*%
X152190000Y-87885000D03*
%TO.P,"U2","15","PWMB"*%
X152190000Y-87235000D03*
%TO.P,"U2","16","BIN2"*%
X152190000Y-86585000D03*
%TO.P,"U2","17","BIN1"*%
X152190000Y-85935000D03*
%TO.P,"U2","18","GND"*%
X152190000Y-85285000D03*
%TO.P,"U2","19","STBY"*%
X152190000Y-84635000D03*
%TO.P,"U2","20","VCC"*%
X152190000Y-83985000D03*
%TO.P,"U2","21","AIN1"*%
X152190000Y-83335000D03*
%TO.P,"U2","22","AIN2"*%
X152190000Y-82685000D03*
%TO.P,"U2","23","PWMA"*%
X152190000Y-82035000D03*
%TO.P,"U2","24","VM1"*%
X152190000Y-81385000D03*
%TD*%
D10*
%TO.C,"U1"*%
%TO.CFtp,"QFN-28-1EP_5x5mm_P0.5mm_EP3.35x3.35mm"*%
%TO.CVal,"CP2102N-Axx-xQFN28"*%
%TO.CLbN,"Package_DFN_QFN"*%
%TO.CMnt,SMD*%
%TO.CRot,0*%
X131820000Y-84770000D03*
D13*
X134919999Y-81670001D02*
X134919999Y-87869999D01*
X128720001Y-87869999D01*
X128720001Y-81670001D01*
X134919999Y-81670001D01*
D14*
%TO.P,"U1","1","~{DCD}"*%
X129370000Y-83270000D03*
D12*
%TO.P,"U1","2","~{RI}/CLK"*%
X129370000Y-83770000D03*
%TO.P,"U1","3","GND"*%
X129370000Y-84270000D03*
%TO.P,"U1","4","D+"*%
X129370000Y-84770000D03*
%TO.P,"U1","5","D-"*%
X129370000Y-85270000D03*
%TO.P,"U1","6","VDD"*%
X129370000Y-85770000D03*
%TO.P,"U1","7","VREGIN"*%
X129370000Y-86270000D03*
%TO.P,"U1","8","VBUS"*%
X130320000Y-87220000D03*
%TO.P,"U1","9","~{RST}"*%
X130820000Y-87220000D03*
%TO.P,"U1","10","NC"*%
X131320000Y-87220000D03*
%TO.P,"U1","11","~{SUSPEND}"*%
X131820000Y-87220000D03*
%TO.P,"U1","12","SUSPEND"*%
X132320000Y-87220000D03*
%TO.P,"U1","13","CHREN"*%
X132820000Y-87220000D03*
%TO.P,"U1","14","CHR1"*%
X133320000Y-87220000D03*
%TO.P,"U1","15","CHR0"*%
X134270000Y-86270000D03*
%TO.P,"U1","16","~{WAKEUP}/GPIO.3"*%
X134270000Y-85770000D03*
%TO.P,"U1","17","RS485/GPIO.2"*%
X134270000Y-85270000D03*
%TO.P,"U1","18","~{RXT}/GPIO.1"*%
X134270000Y-84770000D03*
%TO.P,"U1","19","~{TXT}/GPIO.0"*%
X134270000Y-84270000D03*
%TO.P,"U1","20","GPIO.6"*%
X134270000Y-83770000D03*
%TO.P,"U1","21","GPIO.5"*%
X134270000Y-83270000D03*
%TO.P,"U1","22","GPIO.4"*%
X133320000Y-82320000D03*
%TO.P,"U1","23","~{CTS}"*%
X132820000Y-82320000D03*
%TO.P,"U1","24","~{RTS}"*%
X132320000Y-82320000D03*
%TO.P,"U1","25","RXD"*%
X131820000Y-82320000D03*
%TO.P,"U1","26","TXD"*%
X131320000Y-82320000D03*
%TO.P,"U1","27","~{DSR}"*%
X130820000Y-82320000D03*
%TO.P,"U1","28","~{DTR}"*%
X130320000Y-82320000D03*
%TO.P,"U1","29","GND"*%
X131820000Y-84770000D03*
%TD*%
D10*
%TO.C,"R20"*%
%TO.CFtp,"R_0603_1608Metric_Pad0.98x0.95mm_HandSolder"*%
%TO.CVal,"10k"*%
%TO.CLbN,"Resistor_SMD"*%
%TO.CMnt,SMD*%
%TO.CRot,0*%
X158285000Y-78985000D03*
D13*
X159934999Y-78255001D02*
X159934999Y-79714999D01*
X156635001Y-79714999D01*
X156635001Y-78255001D01*
X159934999Y-78255001D01*
D14*
%TO.P,"R20","1"*%
X157372500Y-78985000D03*
D12*
%TO.P,"R20","2"*%
X159197500Y-78985000D03*
%TD*%
D10*
%TO.C,"D5"*%
%TO.CFtp,"LED_0603_1608Metric_Pad1.05x0.95mm_HandSolder"*%
%TO.CVal,"RED"*%
%TO.CLbN,"LED_SMD"*%
%TO.CMnt,SMD*%
%TO.CRot,180*%
X131190000Y-72047500D03*
D13*
X132839999Y-71317501D02*
X132839999Y-72777499D01*
X129540001Y-72777499D01*
X129540001Y-71317501D01*
X132839999Y-71317501D01*
D14*
%TO.P,"D5","1","K"*%
X132065000Y-72047500D03*
D12*
%TO.P,"D5","2","A"*%
X130315000Y-72047500D03*
%TD*%
D10*
%TO.C,"C2"*%
%TO.CFtp,"C_0603_1608Metric_Pad1.08x0.95mm_HandSolder"*%
%TO.CVal,"100n"*%
%TO.CLbN,"Capacitor_SMD"*%
%TO.CMnt,SMD*%
%TO.CRot,-90*%
X169810000Y-73100000D03*
D13*
X170539999Y-71450001D02*
X170539999Y-74749999D01*
X169080001Y-74749999D01*
X169080001Y-71450001D01*
X170539999Y-71450001D01*
D14*
%TO.P,"C2","1"*%
X169810000Y-72237500D03*
D12*
%TO.P,"C2","2"*%
X169810000Y-73962500D03*
%TD*%
D10*
%TO.C,"R6"*%
%TO.CFtp,"R_0603_1608Metric_Pad0.98x0.95mm_HandSolder"*%
%TO.CVal,"330"*%
%TO.CLbN,"Resistor_SMD"*%
%TO.CMnt,SMD*%
%TO.CRot,0*%
X125912500Y-63497500D03*
D13*
X127562499Y-62767501D02*
X127562499Y-64227499D01*
X124262501Y-64227499D01*
X124262501Y-62767501D01*
X127562499Y-62767501D01*
D14*
%TO.P,"R6","1"*%
X125000000Y-63497500D03*
D12*
%TO.P,"R6","2"*%
X126825000Y-63497500D03*
%TD*%
D10*
%TO.C,"C6"*%
%TO.CFtp,"C_0603_1608Metric_Pad1.08x0.95mm_HandSolder"*%
%TO.CVal,"100n"*%
%TO.CLbN,"Capacitor_SMD"*%
%TO.CMnt,SMD*%
%TO.CRot,-90*%
X169810000Y-51717500D03*
D13*
X170539999Y-50067501D02*
X170539999Y-53367499D01*
X169080001Y-53367499D01*
X169080001Y-50067501D01*
X170539999Y-50067501D01*
D14*
%TO.P,"C6","1"*%
X169810000Y-50855000D03*
D12*
%TO.P,"C6","2"*%
X169810000Y-52580000D03*
%TD*%
D10*
%TO.C,"R4"*%
%TO.CFtp,"R_0603_1608Metric_Pad0.98x0.95mm_HandSolder"*%
%TO.CVal,"330"*%
%TO.CLbN,"Resistor_SMD"*%
%TO.CMnt,SMD*%
%TO.CRot,0*%
X125912500Y-72057500D03*
D13*
X127562499Y-71327501D02*
X127562499Y-72787499D01*
X124262501Y-72787499D01*
X124262501Y-71327501D01*
X127562499Y-71327501D01*
D14*
%TO.P,"R4","1"*%
X125000000Y-72057500D03*
D12*
%TO.P,"R4","2"*%
X126825000Y-72057500D03*
%TD*%
D10*
%TO.C,"C19"*%
%TO.CFtp,"C_1206_3216Metric_Pad1.33x1.80mm_HandSolder"*%
%TO.CVal,"10u"*%
%TO.CLbN,"Capacitor_SMD"*%
%TO.CMnt,SMD*%
%TO.CRot,-90*%
X165277500Y-100605000D03*
D13*
X166427499Y-98125001D02*
X166427499Y-103084999D01*
X164127501Y-103084999D01*
X164127501Y-98125001D01*
X166427499Y-98125001D01*
D14*
%TO.P,"C19","1"*%
X165277500Y-99042500D03*
D12*
%TO.P,"C19","2"*%
X165277500Y-102167500D03*
%TD*%
D10*
%TO.C,"J9"*%
%TO.CFtp,"ESP_touch_pad"*%
%TO.CVal,"Conn_01x01"*%
%TO.CLbN,"TP4056"*%
%TO.CMnt,SMD*%
%TO.CRot,180*%
X123440000Y-54620000D03*
D11*
X127940000Y-59120000D02*
X127940000Y-50120000D01*
X118940000Y-50120000D01*
X118940000Y-59120000D01*
X127940000Y-59120000D01*
D14*
%TO.P,"J9","1","Pin_1"*%
X123440000Y-54620000D03*
%TD*%
D10*
%TO.C,"C24"*%
%TO.CFtp,"C_1206_3216Metric_Pad1.33x1.80mm_HandSolder"*%
%TO.CVal,"22u"*%
%TO.CLbN,"Capacitor_SMD"*%
%TO.CMnt,SMD*%
%TO.CRot,0*%
X176550000Y-102910000D03*
D13*
X179029999Y-101760001D02*
X179029999Y-104059999D01*
X174070001Y-104059999D01*
X174070001Y-101760001D01*
X179029999Y-101760001D01*
D14*
%TO.P,"C24","1"*%
X174987500Y-102910000D03*
D12*
%TO.P,"C24","2"*%
X178112500Y-102910000D03*
%TD*%
D10*
%TO.C,"J4"*%
%TO.CFtp,"PinHeader_1x03_P2.54mm_Vertical"*%
%TO.CVal,"UART2"*%
%TO.CLbN,"Connector_PinHeader_2.54mm"*%
%TO.CMnt,TH*%
%TO.CRot,0*%
X184100000Y-76260000D03*
D13*
X185899999Y-74460001D02*
X185899999Y-83109999D01*
X182300001Y-83109999D01*
X182300001Y-74460001D01*
X185899999Y-74460001D01*
D14*
%TO.P,"J4","1","Pin_1"*%
X184100000Y-76260000D03*
D12*
%TO.P,"J4","2","Pin_2"*%
X184100000Y-78800000D03*
%TO.P,"J4","3","Pin_3"*%
X184100000Y-81340000D03*
%TD*%
D10*
%TO.C,"D11"*%
%TO.CFtp,"403_SMB_A"*%
%TO.CVal,"MBRS130LT3"*%
%TO.CLbN,"TP4056"*%
%TO.CMnt,SMD*%
%TO.CRot,180*%
X144475000Y-113720000D03*
D13*
X145674999Y-111550001D02*
X145674999Y-115789999D01*
X139115001Y-115789999D01*
X139115001Y-111550001D01*
X145674999Y-111550001D01*
D14*
%TO.P,"D11","1","K"*%
X144475000Y-113720000D03*
D12*
%TO.P,"D11","2","A"*%
X139715000Y-113720000D03*
%TD*%
D10*
%TO.C,"R5"*%
%TO.CFtp,"R_0603_1608Metric_Pad0.98x0.95mm_HandSolder"*%
%TO.CVal,"330"*%
%TO.CLbN,"Resistor_SMD"*%
%TO.CMnt,SMD*%
%TO.CRot,0*%
X125912500Y-66487500D03*
D13*
X127562499Y-65757501D02*
X127562499Y-67217499D01*
X124262501Y-67217499D01*
X124262501Y-65757501D01*
X127562499Y-65757501D01*
D14*
%TO.P,"R5","1"*%
X125000000Y-66487500D03*
D12*
%TO.P,"R5","2"*%
X126825000Y-66487500D03*
%TD*%
D10*
%TO.C,"C22"*%
%TO.CFtp,"C_1206_3216Metric_Pad1.33x1.80mm_HandSolder"*%
%TO.CVal,"10n"*%
%TO.CLbN,"Capacitor_SMD"*%
%TO.CMnt,SMD*%
%TO.CRot,0*%
X176572375Y-99560000D03*
D13*
X179052374Y-98410001D02*
X179052374Y-100709999D01*
X174092376Y-100709999D01*
X174092376Y-98410001D01*
X179052374Y-98410001D01*
D14*
%TO.P,"C22","1"*%
X175009875Y-99560000D03*
D12*
%TO.P,"C22","2"*%
X178134875Y-99560000D03*
%TD*%
D10*
%TO.C,"Q1"*%
%TO.CFtp,"SOT-23_BEC"*%
%TO.CVal,"SS8050"*%
%TO.CLbN,"SS8050"*%
%TO.CMnt,SMD*%
%TO.CRot,180*%
X130530000Y-77659250D03*
D11*
X131980000Y-79459250D02*
X131980000Y-75859250D01*
X129080000Y-75859250D01*
X129080000Y-79459250D01*
X131980000Y-79459250D01*
D12*
%TO.P,"Q1","B"*%
X131480000Y-76559250D03*
%TO.P,"Q1","C"*%
X130530000Y-78759250D03*
%TO.P,"Q1","E"*%
X129580000Y-76559250D03*
%TD*%
D10*
%TO.C,"J5"*%
%TO.CFtp,"connector_2pin_5.08"*%
%TO.CVal,"Motor A"*%
%TO.CLbN,"TP4056"*%
%TO.CMnt,SMD*%
%TO.CRot,90*%
X112907500Y-101705000D03*
D11*
X111407500Y-103205000D02*
X114407500Y-103205000D01*
X114407500Y-95125000D01*
X111407500Y-95125000D01*
X111407500Y-103205000D01*
D14*
%TO.P,"J5","1","Pin_1"*%
X112907500Y-101705000D03*
D12*
%TO.P,"J5","2","Pin_2"*%
X112907500Y-96625000D03*
%TD*%
D10*
%TO.C,"SW2"*%
%TO.CFtp,"SW_Push_SPST_NO_Alps_SKRK"*%
%TO.CVal,"SW_Push"*%
%TO.CLbN,"Button_Switch_SMD"*%
%TO.CMnt,SMD*%
%TO.CRot,0*%
X175720000Y-67987500D03*
D13*
X178469999Y-66287501D02*
X178469999Y-69687499D01*
X172970001Y-69687499D01*
X172970001Y-66287501D01*
X178469999Y-66287501D01*
D14*
%TO.P,"SW2","1","1"*%
X173620000Y-67987500D03*
D12*
%TO.P,"SW2","2","2"*%
X177820000Y-67987500D03*
%TD*%
D10*
%TO.C,"R36"*%
%TO.CFtp,"R_0603_1608Metric_Pad0.98x0.95mm_HandSolder"*%
%TO.CVal,"10k"*%
%TO.CLbN,"Resistor_SMD"*%
%TO.CMnt,SMD*%
%TO.CRot,90*%
X136152500Y-112852500D03*
D13*
X136882499Y-111202501D02*
X136882499Y-114502499D01*
X135422501Y-114502499D01*
X135422501Y-111202501D01*
X136882499Y-111202501D01*
D14*
%TO.P,"R36","1"*%
X136152500Y-113765000D03*
D12*
%TO.P,"R36","2"*%
X136152500Y-111940000D03*
%TD*%
D10*
%TO.C,"C20"*%
%TO.CFtp,"CP_Radial_Tantal_D6.0mm_P2.50mm"*%
%TO.CVal,"100u"*%
%TO.CLbN,"Capacitor_THT"*%
%TO.CMnt,TH*%
%TO.CRot,-90*%
X151910000Y-112550000D03*
D13*
X151544964Y-110560218D02*
X152275036Y-110560218D01*
X152986803Y-110722675D01*
X153644574Y-111039440D01*
X153644574Y-111039441D01*
X154215367Y-111494633D01*
X154670559Y-112065426D01*
X154987325Y-112723197D01*
X155149782Y-113434964D01*
X155159999Y-113800000D01*
X155149782Y-114165036D01*
X154987325Y-114876803D01*
X154670559Y-115534574D01*
X154215367Y-116105367D01*
X153644574Y-116560559D01*
X152986803Y-116877325D01*
X152275036Y-117039782D01*
X151544964Y-117039782D01*
X150833197Y-116877325D01*
X150175425Y-116560559D01*
X150175426Y-116560559D01*
X149604633Y-116105367D01*
X149149441Y-115534574D01*
X148832675Y-114876803D01*
X148670218Y-114165036D01*
X148670218Y-113434964D01*
X148832675Y-112723197D01*
X149149441Y-112065426D01*
X149604633Y-111494633D01*
X150175426Y-111039441D01*
X150175425Y-111039440D01*
X150833197Y-110722675D01*
X151544964Y-110560218D01*
D14*
%TO.P,"C20","1"*%
X151910000Y-112550000D03*
D12*
%TO.P,"C20","2"*%
X151910000Y-115050000D03*
%TD*%
M02*
