G04 #@! TF.GenerationSoftware,KiCad,Pcbnew,7.0.8*
G04 #@! TF.CreationDate,2023-11-10T10:01:46+08:00*
G04 #@! TF.ProjectId,ESPCARproject,45535043-4152-4707-926f-6a6563742e6b,rev?*
G04 #@! TF.SameCoordinates,Original*
G04 #@! TF.FileFunction,Soldermask,Top*
G04 #@! TF.FilePolarity,Negative*
%FSLAX46Y46*%
G04 Gerber Fmt 4.6, Leading zero omitted, Abs format (unit mm)*
G04 Created by KiCad (PCBNEW 7.0.8) date 2023-11-10 10:01:46*
%MOMM*%
%LPD*%
G01*
G04 APERTURE LIST*
G04 Aperture macros list*
%AMRoundRect*
0 Rectangle with rounded corners*
0 $1 Rounding radius*
0 $2 $3 $4 $5 $6 $7 $8 $9 X,Y pos of 4 corners*
0 Add a 4 corners polygon primitive as box body*
4,1,4,$2,$3,$4,$5,$6,$7,$8,$9,$2,$3,0*
0 Add four circle primitives for the rounded corners*
1,1,$1+$1,$2,$3*
1,1,$1+$1,$4,$5*
1,1,$1+$1,$6,$7*
1,1,$1+$1,$8,$9*
0 Add four rect primitives between the rounded corners*
20,1,$1+$1,$2,$3,$4,$5,0*
20,1,$1+$1,$4,$5,$6,$7,0*
20,1,$1+$1,$6,$7,$8,$9,0*
20,1,$1+$1,$8,$9,$2,$3,0*%
G04 Aperture macros list end*
%ADD10RoundRect,0.102000X0.500000X0.700000X-0.500000X0.700000X-0.500000X-0.700000X0.500000X-0.700000X0*%
%ADD11RoundRect,0.237500X0.237500X-0.250000X0.237500X0.250000X-0.237500X0.250000X-0.237500X-0.250000X0*%
%ADD12C,0.650000*%
%ADD13RoundRect,0.102000X-0.570000X0.150000X-0.570000X-0.150000X0.570000X-0.150000X0.570000X0.150000X0*%
%ADD14O,2.204000X1.204000*%
%ADD15O,2.004000X1.104000*%
%ADD16RoundRect,0.237500X-0.237500X0.250000X-0.237500X-0.250000X0.237500X-0.250000X0.237500X0.250000X0*%
%ADD17RoundRect,0.237500X-0.250000X-0.237500X0.250000X-0.237500X0.250000X0.237500X-0.250000X0.237500X0*%
%ADD18R,1.700000X1.700000*%
%ADD19O,1.700000X1.700000*%
%ADD20RoundRect,0.237500X0.237500X-0.300000X0.237500X0.300000X-0.237500X0.300000X-0.237500X-0.300000X0*%
%ADD21RoundRect,0.237500X-0.237500X0.300000X-0.237500X-0.300000X0.237500X-0.300000X0.237500X0.300000X0*%
%ADD22RoundRect,0.200000X-0.200000X-0.800000X0.200000X-0.800000X0.200000X0.800000X-0.200000X0.800000X0*%
%ADD23RoundRect,0.237500X0.300000X0.237500X-0.300000X0.237500X-0.300000X-0.237500X0.300000X-0.237500X0*%
%ADD24RoundRect,0.144000X-0.943000X-0.258000X0.943000X-0.258000X0.943000X0.258000X-0.943000X0.258000X0*%
%ADD25RoundRect,0.102000X-1.206500X-1.651000X1.206500X-1.651000X1.206500X1.651000X-1.206500X1.651000X0*%
%ADD26RoundRect,0.237500X0.237500X-0.287500X0.237500X0.287500X-0.237500X0.287500X-0.237500X-0.287500X0*%
%ADD27RoundRect,0.150000X-0.200000X0.150000X-0.200000X-0.150000X0.200000X-0.150000X0.200000X0.150000X0*%
%ADD28RoundRect,0.237500X0.250000X0.237500X-0.250000X0.237500X-0.250000X-0.237500X0.250000X-0.237500X0*%
%ADD29RoundRect,0.237500X-0.300000X-0.237500X0.300000X-0.237500X0.300000X0.237500X-0.300000X0.237500X0*%
%ADD30R,1.500000X0.900000*%
%ADD31R,0.900000X1.500000*%
%ADD32C,0.600000*%
%ADD33R,4.200000X4.200000*%
%ADD34RoundRect,0.150000X0.150000X-0.587500X0.150000X0.587500X-0.150000X0.587500X-0.150000X-0.587500X0*%
%ADD35C,3.000000*%
%ADD36RoundRect,0.250000X-0.650000X0.412500X-0.650000X-0.412500X0.650000X-0.412500X0.650000X0.412500X0*%
%ADD37RoundRect,0.150000X0.200000X-0.150000X0.200000X0.150000X-0.200000X0.150000X-0.200000X-0.150000X0*%
%ADD38R,0.400000X1.100000*%
%ADD39RoundRect,0.237500X0.287500X0.237500X-0.287500X0.237500X-0.287500X-0.237500X0.287500X-0.237500X0*%
%ADD40R,1.600000X1.600000*%
%ADD41C,1.600000*%
%ADD42RoundRect,0.150000X0.512500X0.150000X-0.512500X0.150000X-0.512500X-0.150000X0.512500X-0.150000X0*%
%ADD43RoundRect,0.250000X-0.350000X0.850000X-0.350000X-0.850000X0.350000X-0.850000X0.350000X0.850000X0*%
%ADD44RoundRect,0.249997X-2.650003X2.950003X-2.650003X-2.950003X2.650003X-2.950003X2.650003X2.950003X0*%
%ADD45RoundRect,0.250000X0.412500X0.650000X-0.412500X0.650000X-0.412500X-0.650000X0.412500X-0.650000X0*%
%ADD46C,3.200000*%
%ADD47O,2.274000X4.344000*%
%ADD48R,1.750000X0.450000*%
%ADD49RoundRect,0.062500X-0.337500X-0.062500X0.337500X-0.062500X0.337500X0.062500X-0.337500X0.062500X0*%
%ADD50RoundRect,0.062500X-0.062500X-0.337500X0.062500X-0.337500X0.062500X0.337500X-0.062500X0.337500X0*%
%ADD51R,3.350000X3.350000*%
%ADD52C,9.000000*%
%ADD53RoundRect,0.250000X-0.412500X-0.650000X0.412500X-0.650000X0.412500X0.650000X-0.412500X0.650000X0*%
%ADD54RoundRect,0.373135X0.876865X1.126865X-0.876865X1.126865X-0.876865X-1.126865X0.876865X-1.126865X0*%
G04 APERTURE END LIST*
D10*
X122200000Y-76519250D03*
X121250000Y-78719250D03*
X120300000Y-76519250D03*
D11*
X126270000Y-104832500D03*
X126270000Y-103007500D03*
D12*
X115180000Y-82105000D03*
X115180000Y-87885000D03*
D13*
X116250000Y-81645000D03*
X116250000Y-82445000D03*
X116250000Y-83745000D03*
X116250000Y-84745000D03*
X116250000Y-85245000D03*
X116250000Y-86245000D03*
X116250000Y-87545000D03*
X116250000Y-88345000D03*
X116250000Y-88045000D03*
X116250000Y-87245000D03*
X116250000Y-86745000D03*
X116250000Y-85745000D03*
X116250000Y-84245000D03*
X116250000Y-83245000D03*
X116250000Y-82745000D03*
X116250000Y-81945000D03*
D14*
X115660000Y-80670000D03*
D15*
X115660000Y-89320000D03*
X111480000Y-80670000D03*
X111480000Y-89320000D03*
D16*
X119610000Y-63365000D03*
X119610000Y-65190000D03*
D11*
X180430000Y-69207500D03*
X180430000Y-67382500D03*
D17*
X135717500Y-76209250D03*
X137542500Y-76209250D03*
D11*
X143510000Y-103642500D03*
X143510000Y-101817500D03*
D18*
X176120000Y-80790000D03*
D19*
X176120000Y-83330000D03*
X176120000Y-85870000D03*
X176120000Y-88410000D03*
X176120000Y-90950000D03*
X176120000Y-93490000D03*
D20*
X125820000Y-114812500D03*
X125820000Y-113087500D03*
D21*
X116800000Y-63375000D03*
X116800000Y-65100000D03*
D17*
X129992500Y-90190000D03*
X131817500Y-90190000D03*
D21*
X169810000Y-67045000D03*
X169810000Y-68770000D03*
D22*
X109710000Y-72047500D03*
X113910000Y-72047500D03*
D23*
X123295000Y-90190000D03*
X121570000Y-90190000D03*
D24*
X129380000Y-103575000D03*
X129380000Y-104845000D03*
X129380000Y-106115000D03*
X129380000Y-107385000D03*
X134330000Y-107385000D03*
X134330000Y-106115000D03*
X134330000Y-104845000D03*
X134330000Y-103575000D03*
D25*
X131855000Y-105480000D03*
D17*
X157365000Y-81175000D03*
X159190000Y-81175000D03*
D16*
X133442500Y-111930000D03*
X133442500Y-113755000D03*
D19*
X184190000Y-71755000D03*
X184190000Y-69215000D03*
X184190000Y-66675000D03*
X184190000Y-64135000D03*
D18*
X184190000Y-61595000D03*
D26*
X138870000Y-103652500D03*
X138870000Y-101902500D03*
D17*
X160277500Y-50060000D03*
X162102500Y-50060000D03*
D27*
X126440000Y-86830000D03*
X126440000Y-85430000D03*
D17*
X135735000Y-78729250D03*
X137560000Y-78729250D03*
D28*
X126702500Y-78819250D03*
X124877500Y-78819250D03*
D29*
X157417500Y-89880000D03*
X159142500Y-89880000D03*
D30*
X138905000Y-49702500D03*
X138905000Y-50972500D03*
X138905000Y-52242500D03*
X138905000Y-53512500D03*
X138905000Y-54782500D03*
X138905000Y-56052500D03*
X138905000Y-57322500D03*
X138905000Y-58592500D03*
X138905000Y-59862500D03*
X138905000Y-61132500D03*
X138905000Y-62402500D03*
X138905000Y-63672500D03*
X138905000Y-64942500D03*
X138905000Y-66212500D03*
D31*
X141945000Y-67462500D03*
X143215000Y-67462500D03*
X144485000Y-67462500D03*
X145755000Y-67462500D03*
X147025000Y-67462500D03*
X148295000Y-67462500D03*
X149565000Y-67462500D03*
X150835000Y-67462500D03*
X152105000Y-67462500D03*
X153375000Y-67462500D03*
D30*
X156405000Y-66212500D03*
X156405000Y-64942500D03*
X156405000Y-63672500D03*
X156405000Y-62402500D03*
X156405000Y-61132500D03*
X156405000Y-59862500D03*
X156405000Y-58592500D03*
X156405000Y-57322500D03*
X156405000Y-56052500D03*
X156405000Y-54782500D03*
X156405000Y-53512500D03*
X156405000Y-52242500D03*
X156405000Y-50972500D03*
X156405000Y-49702500D03*
D32*
X145450000Y-56280000D03*
X145450000Y-57805000D03*
X146212500Y-55517500D03*
X146212500Y-57042500D03*
X146212500Y-58567500D03*
X146975000Y-56280000D03*
D33*
X146975000Y-57042500D03*
D32*
X146975000Y-57805000D03*
X147737500Y-55517500D03*
X147737500Y-57042500D03*
X147737500Y-58567500D03*
X148500000Y-56280000D03*
X148500000Y-57805000D03*
D22*
X109520000Y-64187500D03*
X113720000Y-64187500D03*
D11*
X145790000Y-103592500D03*
X145790000Y-101767500D03*
D34*
X139062500Y-109395000D03*
X140962500Y-109395000D03*
X140012500Y-107520000D03*
D22*
X173620000Y-51797500D03*
X177820000Y-51797500D03*
X173620000Y-73180000D03*
X177820000Y-73180000D03*
D35*
X113007500Y-114295000D03*
X113007500Y-109215000D03*
D36*
X154390000Y-105647500D03*
X154390000Y-108772500D03*
D37*
X120660000Y-80830000D03*
X120660000Y-82230000D03*
D38*
X123012500Y-110482500D03*
X122362500Y-110482500D03*
X121712500Y-110482500D03*
X121062500Y-110482500D03*
X121062500Y-114782500D03*
X121712500Y-114782500D03*
X122362500Y-114782500D03*
X123012500Y-114782500D03*
D16*
X166190000Y-50805000D03*
X166190000Y-52630000D03*
D39*
X132065000Y-63647500D03*
X130315000Y-63647500D03*
D11*
X180540000Y-76860000D03*
X180540000Y-75035000D03*
D40*
X175730000Y-107370000D03*
D41*
X175730000Y-109870000D03*
D22*
X173620000Y-57110000D03*
X177820000Y-57110000D03*
D39*
X132065000Y-69377500D03*
X130315000Y-69377500D03*
D17*
X125000000Y-60997500D03*
X126825000Y-60997500D03*
D21*
X169810000Y-56167500D03*
X169810000Y-57892500D03*
D36*
X168617500Y-99120000D03*
X168617500Y-102245000D03*
D18*
X183980000Y-85980000D03*
D19*
X183980000Y-88520000D03*
X183980000Y-91060000D03*
X183980000Y-93600000D03*
D16*
X166190000Y-61657500D03*
X166190000Y-63482500D03*
D17*
X157380000Y-76795000D03*
X159205000Y-76795000D03*
D16*
X166190000Y-72187500D03*
X166190000Y-74012500D03*
D36*
X157500000Y-105647500D03*
X157500000Y-108772500D03*
X152220000Y-74982500D03*
X152220000Y-78107500D03*
D28*
X127345000Y-92450000D03*
X125520000Y-92450000D03*
D17*
X157342500Y-87795000D03*
X159167500Y-87795000D03*
D26*
X141170000Y-103630000D03*
X141170000Y-101880000D03*
D23*
X123295000Y-92460000D03*
X121570000Y-92460000D03*
D16*
X166190000Y-66995000D03*
X166190000Y-68820000D03*
D42*
X130510000Y-114890000D03*
X130510000Y-113940000D03*
X130510000Y-112990000D03*
X128235000Y-112990000D03*
X128235000Y-113940000D03*
X128235000Y-114890000D03*
D39*
X132065000Y-66517500D03*
X130315000Y-66517500D03*
D43*
X169967500Y-105995000D03*
X167687500Y-105995000D03*
D44*
X167687500Y-112295000D03*
D43*
X165407500Y-105995000D03*
D40*
X159350000Y-112550000D03*
D41*
X159350000Y-115050000D03*
D39*
X132065000Y-60937500D03*
X130315000Y-60937500D03*
D21*
X118800000Y-80657500D03*
X118800000Y-82382500D03*
D17*
X125520000Y-90180000D03*
X127345000Y-90180000D03*
D20*
X149680000Y-78110000D03*
X149680000Y-76385000D03*
D40*
X183000000Y-103460000D03*
D41*
X183000000Y-105960000D03*
D18*
X184120000Y-56957500D03*
D19*
X184120000Y-54417500D03*
X184120000Y-51877500D03*
D17*
X157357500Y-83345000D03*
X159182500Y-83345000D03*
X157350000Y-85535000D03*
X159175000Y-85535000D03*
D22*
X173620000Y-62650000D03*
X177820000Y-62650000D03*
D37*
X124860000Y-83142500D03*
X124860000Y-84542500D03*
D21*
X116990000Y-71235000D03*
X116990000Y-72960000D03*
D18*
X181110000Y-113820000D03*
D19*
X183650000Y-113820000D03*
D45*
X146825000Y-107655000D03*
X143700000Y-107655000D03*
D17*
X120877500Y-86750000D03*
X122702500Y-86750000D03*
X125857500Y-110930000D03*
X127682500Y-110930000D03*
D11*
X122400000Y-82882500D03*
X122400000Y-81057500D03*
D17*
X124877500Y-76139250D03*
X126702500Y-76139250D03*
D21*
X169810000Y-61707500D03*
X169810000Y-63432500D03*
D23*
X125092500Y-107390000D03*
X123367500Y-107390000D03*
D28*
X131817500Y-92460000D03*
X129992500Y-92460000D03*
D16*
X166190000Y-56117500D03*
X166190000Y-57942500D03*
X119800000Y-71225000D03*
X119800000Y-73050000D03*
D17*
X125000000Y-69257500D03*
X126825000Y-69257500D03*
D46*
X119895000Y-129630000D03*
X175510000Y-129630000D03*
D47*
X111400000Y-129630000D03*
X184300000Y-129630000D03*
D48*
X144990000Y-81385000D03*
X144990000Y-82035000D03*
X144990000Y-82685000D03*
X144990000Y-83335000D03*
X144990000Y-83985000D03*
X144990000Y-84635000D03*
X144990000Y-85285000D03*
X144990000Y-85935000D03*
X144990000Y-86585000D03*
X144990000Y-87235000D03*
X144990000Y-87885000D03*
X144990000Y-88535000D03*
X152190000Y-88535000D03*
X152190000Y-87885000D03*
X152190000Y-87235000D03*
X152190000Y-86585000D03*
X152190000Y-85935000D03*
X152190000Y-85285000D03*
X152190000Y-84635000D03*
X152190000Y-83985000D03*
X152190000Y-83335000D03*
X152190000Y-82685000D03*
X152190000Y-82035000D03*
X152190000Y-81385000D03*
D49*
X129370000Y-83270000D03*
X129370000Y-83770000D03*
X129370000Y-84270000D03*
X129370000Y-84770000D03*
X129370000Y-85270000D03*
X129370000Y-85770000D03*
X129370000Y-86270000D03*
D50*
X130320000Y-87220000D03*
X130820000Y-87220000D03*
X131320000Y-87220000D03*
X131820000Y-87220000D03*
X132320000Y-87220000D03*
X132820000Y-87220000D03*
X133320000Y-87220000D03*
D49*
X134270000Y-86270000D03*
X134270000Y-85770000D03*
X134270000Y-85270000D03*
X134270000Y-84770000D03*
X134270000Y-84270000D03*
X134270000Y-83770000D03*
X134270000Y-83270000D03*
D50*
X133320000Y-82320000D03*
X132820000Y-82320000D03*
X132320000Y-82320000D03*
X131820000Y-82320000D03*
X131320000Y-82320000D03*
X130820000Y-82320000D03*
X130320000Y-82320000D03*
D51*
X131820000Y-84770000D03*
D17*
X157372500Y-78985000D03*
X159197500Y-78985000D03*
D39*
X132065000Y-72047500D03*
X130315000Y-72047500D03*
D21*
X169810000Y-72237500D03*
X169810000Y-73962500D03*
D17*
X125000000Y-63497500D03*
X126825000Y-63497500D03*
D21*
X169810000Y-50855000D03*
X169810000Y-52580000D03*
D17*
X125000000Y-72057500D03*
X126825000Y-72057500D03*
D36*
X165277500Y-99042500D03*
X165277500Y-102167500D03*
D52*
X123440000Y-54620000D03*
D53*
X174987500Y-102910000D03*
X178112500Y-102910000D03*
D18*
X184100000Y-76260000D03*
D19*
X184100000Y-78800000D03*
X184100000Y-81340000D03*
D54*
X144475000Y-113720000D03*
X139715000Y-113720000D03*
D17*
X125000000Y-66487500D03*
X126825000Y-66487500D03*
D53*
X175009875Y-99560000D03*
X178134875Y-99560000D03*
D10*
X131480000Y-76559250D03*
X130530000Y-78759250D03*
X129580000Y-76559250D03*
D35*
X112907500Y-101705000D03*
X112907500Y-96625000D03*
D22*
X173620000Y-67987500D03*
X177820000Y-67987500D03*
D11*
X136152500Y-113765000D03*
X136152500Y-111940000D03*
D40*
X151910000Y-112550000D03*
D41*
X151910000Y-115050000D03*
M02*
