G04 #@! TF.GenerationSoftware,KiCad,Pcbnew,7.0.8*
G04 #@! TF.CreationDate,2023-12-01T18:56:09+08:00*
G04 #@! TF.ProjectId,ESPCARproject,45535043-4152-4707-926f-6a6563742e6b,rev?*
G04 #@! TF.SameCoordinates,Original*
G04 #@! TF.FileFunction,Paste,Top*
G04 #@! TF.FilePolarity,Positive*
%FSLAX46Y46*%
G04 Gerber Fmt 4.6, Leading zero omitted, Abs format (unit mm)*
G04 Created by KiCad (PCBNEW 7.0.8) date 2023-12-01 18:56:09*
%MOMM*%
%LPD*%
G01*
G04 APERTURE LIST*
G04 Aperture macros list*
%AMRoundRect*
0 Rectangle with rounded corners*
0 $1 Rounding radius*
0 $2 $3 $4 $5 $6 $7 $8 $9 X,Y pos of 4 corners*
0 Add a 4 corners polygon primitive as box body*
4,1,4,$2,$3,$4,$5,$6,$7,$8,$9,$2,$3,0*
0 Add four circle primitives for the rounded corners*
1,1,$1+$1,$2,$3*
1,1,$1+$1,$4,$5*
1,1,$1+$1,$6,$7*
1,1,$1+$1,$8,$9*
0 Add four rect primitives between the rounded corners*
20,1,$1+$1,$2,$3,$4,$5,0*
20,1,$1+$1,$4,$5,$6,$7,0*
20,1,$1+$1,$6,$7,$8,$9,0*
20,1,$1+$1,$8,$9,$2,$3,0*%
G04 Aperture macros list end*
%ADD10C,0.010000*%
%ADD11RoundRect,0.042000X-0.943000X-0.258000X0.943000X-0.258000X0.943000X0.258000X-0.943000X0.258000X0*%
%ADD12RoundRect,0.100000X-0.100000X0.637500X-0.100000X-0.637500X0.100000X-0.637500X0.100000X0.637500X0*%
%ADD13RoundRect,0.150000X0.150000X0.200000X-0.150000X0.200000X-0.150000X-0.200000X0.150000X-0.200000X0*%
%ADD14RoundRect,0.150000X-0.150000X-0.200000X0.150000X-0.200000X0.150000X0.200000X-0.150000X0.200000X0*%
%ADD15R,1.000000X1.400000*%
%ADD16RoundRect,0.237500X-0.237500X0.250000X-0.237500X-0.250000X0.237500X-0.250000X0.237500X0.250000X0*%
%ADD17RoundRect,0.150000X-0.150000X0.825000X-0.150000X-0.825000X0.150000X-0.825000X0.150000X0.825000X0*%
%ADD18RoundRect,0.237500X-0.250000X-0.237500X0.250000X-0.237500X0.250000X0.237500X-0.250000X0.237500X0*%
%ADD19RoundRect,0.237500X0.237500X-0.300000X0.237500X0.300000X-0.237500X0.300000X-0.237500X-0.300000X0*%
%ADD20RoundRect,0.237500X-0.237500X0.300000X-0.237500X-0.300000X0.237500X-0.300000X0.237500X0.300000X0*%
%ADD21RoundRect,0.200000X-0.200000X-0.800000X0.200000X-0.800000X0.200000X0.800000X-0.200000X0.800000X0*%
%ADD22RoundRect,0.237500X0.300000X0.237500X-0.300000X0.237500X-0.300000X-0.237500X0.300000X-0.237500X0*%
%ADD23RoundRect,0.237500X0.237500X-0.287500X0.237500X0.287500X-0.237500X0.287500X-0.237500X-0.287500X0*%
%ADD24RoundRect,0.237500X0.250000X0.237500X-0.250000X0.237500X-0.250000X-0.237500X0.250000X-0.237500X0*%
%ADD25R,1.500000X0.900000*%
%ADD26R,0.900000X1.500000*%
%ADD27R,1.050000X1.050000*%
%ADD28RoundRect,0.237500X0.237500X-0.250000X0.237500X0.250000X-0.237500X0.250000X-0.237500X-0.250000X0*%
%ADD29RoundRect,0.150000X0.150000X-0.587500X0.150000X0.587500X-0.150000X0.587500X-0.150000X-0.587500X0*%
%ADD30RoundRect,0.250000X-0.650000X0.412500X-0.650000X-0.412500X0.650000X-0.412500X0.650000X0.412500X0*%
%ADD31RoundRect,0.150000X0.200000X-0.150000X0.200000X0.150000X-0.200000X0.150000X-0.200000X-0.150000X0*%
%ADD32RoundRect,0.237500X0.287500X0.237500X-0.287500X0.237500X-0.287500X-0.237500X0.287500X-0.237500X0*%
%ADD33RoundRect,0.150000X0.512500X0.150000X-0.512500X0.150000X-0.512500X-0.150000X0.512500X-0.150000X0*%
%ADD34R,3.800000X2.000000*%
%ADD35R,1.500000X2.000000*%
%ADD36RoundRect,0.250000X0.412500X0.650000X-0.412500X0.650000X-0.412500X-0.650000X0.412500X-0.650000X0*%
%ADD37R,1.750000X0.450000*%
%ADD38C,9.000000*%
%ADD39RoundRect,0.250000X-0.412500X-0.650000X0.412500X-0.650000X0.412500X0.650000X-0.412500X0.650000X0*%
%ADD40RoundRect,0.373135X0.876865X1.126865X-0.876865X1.126865X-0.876865X-1.126865X0.876865X-1.126865X0*%
G04 APERTURE END LIST*
D10*
X132500000Y-106300000D02*
X131210000Y-106300000D01*
X131210000Y-104660000D01*
X132500000Y-104660000D01*
X132500000Y-106300000D01*
G36*
X132500000Y-106300000D02*
G01*
X131210000Y-106300000D01*
X131210000Y-104660000D01*
X132500000Y-104660000D01*
X132500000Y-106300000D01*
G37*
D11*
X134330000Y-103575000D03*
X134330000Y-104845000D03*
X134330000Y-106115000D03*
X134330000Y-107385000D03*
X129380000Y-107385000D03*
X129380000Y-106115000D03*
X129380000Y-104845000D03*
X129380000Y-103575000D03*
D12*
X124620000Y-111510000D03*
X123970000Y-111510000D03*
X123320000Y-111510000D03*
X122670000Y-111510000D03*
X122670000Y-117235000D03*
X123320000Y-117235000D03*
X123970000Y-117235000D03*
X124620000Y-117235000D03*
D13*
X115350000Y-123130000D03*
X116750000Y-123130000D03*
D14*
X120560000Y-123130000D03*
X119160000Y-123130000D03*
D15*
X122200000Y-76519250D03*
X121250000Y-78719250D03*
X120300000Y-76519250D03*
D16*
X119610000Y-63365000D03*
X119610000Y-65190000D03*
D17*
X121365000Y-93565000D03*
X120095000Y-93565000D03*
X118825000Y-93565000D03*
X117555000Y-93565000D03*
X116285000Y-93565000D03*
X115015000Y-93565000D03*
X113745000Y-93565000D03*
X112475000Y-93565000D03*
X112475000Y-88615000D03*
X113745000Y-88615000D03*
X115015000Y-88615000D03*
X116285000Y-88615000D03*
X117555000Y-88615000D03*
X118825000Y-88615000D03*
X120095000Y-88615000D03*
X121365000Y-88615000D03*
D18*
X135717500Y-76209250D03*
X137542500Y-76209250D03*
D19*
X127855000Y-114995000D03*
X127855000Y-113270000D03*
D20*
X116800000Y-63375000D03*
X116800000Y-65100000D03*
X169810000Y-67045000D03*
X169810000Y-68770000D03*
D21*
X109710000Y-72047500D03*
X113910000Y-72047500D03*
D22*
X115597500Y-83200000D03*
X117322500Y-83200000D03*
D18*
X157365000Y-81175000D03*
X159190000Y-81175000D03*
D23*
X138870000Y-103652500D03*
X138870000Y-101902500D03*
D18*
X160277500Y-50060000D03*
X162102500Y-50060000D03*
X135735000Y-78729250D03*
X137560000Y-78729250D03*
D24*
X126702500Y-78819250D03*
X124877500Y-78819250D03*
D20*
X155860000Y-89567500D03*
X155860000Y-91292500D03*
D25*
X138905000Y-49702500D03*
X138905000Y-50972500D03*
X138905000Y-52242500D03*
X138905000Y-53512500D03*
X138905000Y-54782500D03*
X138905000Y-56052500D03*
X138905000Y-57322500D03*
X138905000Y-58592500D03*
X138905000Y-59862500D03*
X138905000Y-61132500D03*
X138905000Y-62402500D03*
X138905000Y-63672500D03*
X138905000Y-64942500D03*
X138905000Y-66212500D03*
D26*
X141945000Y-67462500D03*
X143215000Y-67462500D03*
X144485000Y-67462500D03*
X145755000Y-67462500D03*
X147025000Y-67462500D03*
X148295000Y-67462500D03*
X149565000Y-67462500D03*
X150835000Y-67462500D03*
X152105000Y-67462500D03*
X153375000Y-67462500D03*
D25*
X156405000Y-66212500D03*
X156405000Y-64942500D03*
X156405000Y-63672500D03*
X156405000Y-62402500D03*
X156405000Y-61132500D03*
X156405000Y-59862500D03*
X156405000Y-58592500D03*
X156405000Y-57322500D03*
X156405000Y-56052500D03*
X156405000Y-54782500D03*
X156405000Y-53512500D03*
X156405000Y-52242500D03*
X156405000Y-50972500D03*
X156405000Y-49702500D03*
D27*
X145450000Y-55517500D03*
X145450000Y-57042500D03*
X145450000Y-58567500D03*
X146975000Y-55517500D03*
X146975000Y-57042500D03*
X146975000Y-58567500D03*
X148500000Y-55517500D03*
X148500000Y-57042500D03*
X148500000Y-58567500D03*
D21*
X109520000Y-64187500D03*
X113720000Y-64187500D03*
D28*
X145790000Y-103592500D03*
X145790000Y-101767500D03*
D29*
X139062500Y-109395000D03*
X140962500Y-109395000D03*
X140012500Y-107520000D03*
D21*
X173620000Y-51797500D03*
X177820000Y-51797500D03*
D28*
X126200000Y-104872500D03*
X126200000Y-103047500D03*
D21*
X173620000Y-73180000D03*
X177820000Y-73180000D03*
D30*
X154390000Y-105647500D03*
X154390000Y-108772500D03*
D31*
X110950000Y-121980000D03*
X110950000Y-123380000D03*
D16*
X166190000Y-50805000D03*
X166190000Y-52630000D03*
D32*
X132065000Y-63647500D03*
X130315000Y-63647500D03*
D24*
X165972500Y-78920000D03*
X164147500Y-78920000D03*
D21*
X173620000Y-57110000D03*
X177820000Y-57110000D03*
D28*
X143560000Y-103642500D03*
X143560000Y-101817500D03*
D18*
X125000000Y-60997500D03*
X126825000Y-60997500D03*
D20*
X169810000Y-56167500D03*
X169810000Y-57892500D03*
D30*
X168617500Y-99120000D03*
X168617500Y-102245000D03*
D28*
X127110000Y-111062500D03*
X127110000Y-109237500D03*
D16*
X166190000Y-61657500D03*
X166190000Y-63482500D03*
X166190000Y-72187500D03*
X166190000Y-74012500D03*
D30*
X157500000Y-105647500D03*
X157500000Y-108772500D03*
X152220000Y-74982500D03*
X152220000Y-78107500D03*
D18*
X157342500Y-87795000D03*
X159167500Y-87795000D03*
D23*
X141170000Y-103630000D03*
X141170000Y-101880000D03*
D22*
X117327500Y-85240000D03*
X115602500Y-85240000D03*
D16*
X166190000Y-66995000D03*
X166190000Y-68820000D03*
D33*
X132545000Y-115072500D03*
X132545000Y-114122500D03*
X132545000Y-113172500D03*
X130270000Y-113172500D03*
X130270000Y-114122500D03*
X130270000Y-115072500D03*
D32*
X132065000Y-66517500D03*
X130315000Y-66517500D03*
D34*
X167687500Y-114185000D03*
D35*
X165387500Y-107885000D03*
X167687500Y-107885000D03*
X169987500Y-107885000D03*
D32*
X132065000Y-60937500D03*
X130315000Y-60937500D03*
D20*
X113060000Y-121397500D03*
X113060000Y-123122500D03*
D19*
X149680000Y-78110000D03*
X149680000Y-76385000D03*
D21*
X173620000Y-62650000D03*
X177820000Y-62650000D03*
D20*
X116990000Y-71235000D03*
X116990000Y-72960000D03*
D36*
X146825000Y-107655000D03*
X143700000Y-107655000D03*
D18*
X164985000Y-119490000D03*
X166810000Y-119490000D03*
X124877500Y-76139250D03*
X126702500Y-76139250D03*
D20*
X169810000Y-61707500D03*
X169810000Y-63432500D03*
D22*
X125092500Y-107390000D03*
X123367500Y-107390000D03*
D16*
X166190000Y-56117500D03*
X166190000Y-57942500D03*
X119800000Y-71225000D03*
X119800000Y-73050000D03*
D37*
X144990000Y-81385000D03*
X144990000Y-82035000D03*
X144990000Y-82685000D03*
X144990000Y-83335000D03*
X144990000Y-83985000D03*
X144990000Y-84635000D03*
X144990000Y-85285000D03*
X144990000Y-85935000D03*
X144990000Y-86585000D03*
X144990000Y-87235000D03*
X144990000Y-87885000D03*
X144990000Y-88535000D03*
X152190000Y-88535000D03*
X152190000Y-87885000D03*
X152190000Y-87235000D03*
X152190000Y-86585000D03*
X152190000Y-85935000D03*
X152190000Y-85285000D03*
X152190000Y-84635000D03*
X152190000Y-83985000D03*
X152190000Y-83335000D03*
X152190000Y-82685000D03*
X152190000Y-82035000D03*
X152190000Y-81385000D03*
D18*
X157372500Y-78985000D03*
X159197500Y-78985000D03*
D32*
X130295000Y-69620000D03*
X132045000Y-69620000D03*
D20*
X169810000Y-72237500D03*
X169810000Y-73962500D03*
D18*
X125000000Y-63497500D03*
X126825000Y-63497500D03*
D20*
X169810000Y-50855000D03*
X169810000Y-52580000D03*
D18*
X126805000Y-69630000D03*
X124980000Y-69630000D03*
D30*
X165277500Y-99042500D03*
X165277500Y-102167500D03*
D38*
X123440000Y-54620000D03*
D39*
X174987500Y-102910000D03*
X178112500Y-102910000D03*
D16*
X150260000Y-106645000D03*
X150260000Y-108470000D03*
D32*
X170750000Y-119510000D03*
X169000000Y-119510000D03*
D28*
X134990000Y-115952500D03*
X134990000Y-114127500D03*
D40*
X139715000Y-113720000D03*
X144475000Y-113720000D03*
D18*
X125000000Y-66487500D03*
X126825000Y-66487500D03*
D39*
X175009875Y-99560000D03*
X178134875Y-99560000D03*
D15*
X131480000Y-76559250D03*
X130530000Y-78759250D03*
X129580000Y-76559250D03*
D21*
X173620000Y-67987500D03*
X177820000Y-67987500D03*
M02*
