%TF.GenerationSoftware,KiCad,Pcbnew,7.0.8*%
%TF.CreationDate,2023-12-01T18:44:57+08:00*%
%TF.ProjectId,ESPCARproject,45535043-4152-4707-926f-6a6563742e6b,rev?*%
%TF.SameCoordinates,Original*%
%TF.FileFunction,Drillmap*%
%TF.FilePolarity,Positive*%
%FSLAX45Y45*%
G04 Gerber Fmt 4.5, Leading zero omitted, Abs format (unit mm)*
G04 Created by KiCad (PCBNEW 7.0.8) date 2023-12-01 18:44:57*
%MOMM*%
%LPD*%
G01*
G04 APERTURE LIST*
%ADD10C,0.100000*%
%ADD11C,0.200000*%
%ADD12C,0.020000*%
%ADD13C,0.040000*%
%ADD14C,0.050000*%
%ADD15C,0.070000*%
%ADD16C,0.080000*%
%ADD17C,0.110000*%
%ADD18C,0.400000*%
G04 APERTURE END LIST*
D10*
X10852000Y-4837750D02*
X18649000Y-4837750D01*
X18649000Y-14034750D01*
X10852000Y-14034750D01*
X10852000Y-4837750D01*
D11*
D12*
X14535000Y-5618000D02*
X14555000Y-5638000D01*
X14555000Y-5618000D02*
X14535000Y-5638000D01*
X14535000Y-5770500D02*
X14555000Y-5790500D01*
X14555000Y-5770500D02*
X14535000Y-5790500D01*
X14611250Y-5541750D02*
X14631250Y-5561750D01*
X14631250Y-5541750D02*
X14611250Y-5561750D01*
X14611250Y-5694250D02*
X14631250Y-5714250D01*
X14631250Y-5694250D02*
X14611250Y-5714250D01*
X14611250Y-5846750D02*
X14631250Y-5866750D01*
X14631250Y-5846750D02*
X14611250Y-5866750D01*
X14687500Y-5618000D02*
X14707500Y-5638000D01*
X14707500Y-5618000D02*
X14687500Y-5638000D01*
X14687500Y-5770500D02*
X14707500Y-5790500D01*
X14707500Y-5770500D02*
X14687500Y-5790500D01*
X14763750Y-5541750D02*
X14783750Y-5561750D01*
X14783750Y-5541750D02*
X14763750Y-5561750D01*
X14763750Y-5694250D02*
X14783750Y-5714250D01*
X14783750Y-5694250D02*
X14763750Y-5714250D01*
X14763750Y-5846750D02*
X14783750Y-5866750D01*
X14783750Y-5846750D02*
X14763750Y-5866750D01*
X14840000Y-5618000D02*
X14860000Y-5638000D01*
X14860000Y-5618000D02*
X14840000Y-5638000D01*
X14840000Y-5770500D02*
X14860000Y-5790500D01*
X14860000Y-5770500D02*
X14840000Y-5790500D01*
D13*
X11779000Y-9189000D02*
G75*
G03*
X11779000Y-9189000I-20000J0D01*
G01*
X11779000Y-11105000D02*
G75*
G03*
X11779000Y-11105000I-20000J0D01*
G01*
X11813000Y-11318000D02*
G75*
G03*
X11813000Y-11318000I-20000J0D01*
G01*
X11905000Y-9187000D02*
G75*
G03*
X11905000Y-9187000I-20000J0D01*
G01*
X11919000Y-8326000D02*
G75*
G03*
X11919000Y-8326000I-20000J0D01*
G01*
X11920000Y-8521000D02*
G75*
G03*
X11920000Y-8521000I-20000J0D01*
G01*
X12134000Y-11151000D02*
G75*
G03*
X12134000Y-11151000I-20000J0D01*
G01*
X12153000Y-11354000D02*
G75*
G03*
X12153000Y-11354000I-20000J0D01*
G01*
X12157000Y-7302000D02*
G75*
G03*
X12157000Y-7302000I-20000J0D01*
G01*
X12163000Y-9566000D02*
G75*
G03*
X12163000Y-9566000I-20000J0D01*
G01*
X12184000Y-6440000D02*
G75*
G03*
X12184000Y-6440000I-20000J0D01*
G01*
X12587000Y-9783000D02*
G75*
G03*
X12587000Y-9783000I-20000J0D01*
G01*
X12596000Y-8334000D02*
G75*
G03*
X12596000Y-8334000I-20000J0D01*
G01*
X12617000Y-10073000D02*
G75*
G03*
X12617000Y-10073000I-20000J0D01*
G01*
X12765000Y-9774000D02*
G75*
G03*
X12765000Y-9774000I-20000J0D01*
G01*
X12782000Y-10066000D02*
G75*
G03*
X12782000Y-10066000I-20000J0D01*
G01*
X12876000Y-8446000D02*
G75*
G03*
X12876000Y-8446000I-20000J0D01*
G01*
X13207000Y-10785000D02*
G75*
G03*
X13207000Y-10785000I-20000J0D01*
G01*
X13303000Y-7654000D02*
G75*
G03*
X13303000Y-7654000I-20000J0D01*
G01*
X13304000Y-11074000D02*
G75*
G03*
X13304000Y-11074000I-20000J0D01*
G01*
X13412000Y-6364000D02*
G75*
G03*
X13412000Y-6364000I-20000J0D01*
G01*
X13583000Y-6004000D02*
G75*
G03*
X13583000Y-6004000I-20000J0D01*
G01*
X13597000Y-6937750D02*
G75*
G03*
X13597000Y-6937750I-20000J0D01*
G01*
X13698000Y-6366000D02*
G75*
G03*
X13698000Y-6366000I-20000J0D01*
G01*
X13718000Y-5601000D02*
G75*
G03*
X13718000Y-5601000I-20000J0D01*
G01*
X13720000Y-5730000D02*
G75*
G03*
X13720000Y-5730000I-20000J0D01*
G01*
X13738000Y-5282000D02*
G75*
G03*
X13738000Y-5282000I-20000J0D01*
G01*
X13751000Y-6112000D02*
G75*
G03*
X13751000Y-6112000I-20000J0D01*
G01*
X14053000Y-6240000D02*
G75*
G03*
X14053000Y-6240000I-20000J0D01*
G01*
X14347000Y-7179000D02*
G75*
G03*
X14347000Y-7179000I-20000J0D01*
G01*
X14366000Y-7378000D02*
G75*
G03*
X14366000Y-7378000I-20000J0D01*
G01*
X14429000Y-7105000D02*
G75*
G03*
X14429000Y-7105000I-20000J0D01*
G01*
X14499000Y-7508000D02*
G75*
G03*
X14499000Y-7508000I-20000J0D01*
G01*
X14567000Y-6988000D02*
G75*
G03*
X14567000Y-6988000I-20000J0D01*
G01*
X14697000Y-6924000D02*
G75*
G03*
X14697000Y-6924000I-20000J0D01*
G01*
X15058000Y-8563000D02*
G75*
G03*
X15058000Y-8563000I-20000J0D01*
G01*
X15069000Y-8152000D02*
G75*
G03*
X15069000Y-8152000I-20000J0D01*
G01*
X15208000Y-5773000D02*
G75*
G03*
X15208000Y-5773000I-20000J0D01*
G01*
X15299000Y-6388000D02*
G75*
G03*
X15299000Y-6388000I-20000J0D01*
G01*
X15388000Y-5484000D02*
G75*
G03*
X15388000Y-5484000I-20000J0D01*
G01*
X15462000Y-6192000D02*
G75*
G03*
X15462000Y-6192000I-20000J0D01*
G01*
X15518741Y-7073000D02*
G75*
G03*
X15518741Y-7073000I-20000J0D01*
G01*
X15534000Y-8343000D02*
G75*
G03*
X15534000Y-8343000I-20000J0D01*
G01*
X15563000Y-8826000D02*
G75*
G03*
X15563000Y-8826000I-20000J0D01*
G01*
X15659000Y-7048000D02*
G75*
G03*
X15659000Y-7048000I-20000J0D01*
G01*
X15728000Y-8935000D02*
G75*
G03*
X15728000Y-8935000I-20000J0D01*
G01*
X15822000Y-7052000D02*
G75*
G03*
X15822000Y-7052000I-20000J0D01*
G01*
X15835000Y-8260000D02*
G75*
G03*
X15835000Y-8260000I-20000J0D01*
G01*
X15836000Y-6641000D02*
G75*
G03*
X15836000Y-6641000I-20000J0D01*
G01*
X16054000Y-6876000D02*
G75*
G03*
X16054000Y-6876000I-20000J0D01*
G01*
X16064000Y-7285000D02*
G75*
G03*
X16064000Y-7285000I-20000J0D01*
G01*
X16169000Y-6718000D02*
G75*
G03*
X16169000Y-6718000I-20000J0D01*
G01*
X16174500Y-7045500D02*
G75*
G03*
X16174500Y-7045500I-20000J0D01*
G01*
X16297000Y-7123000D02*
G75*
G03*
X16297000Y-7123000I-20000J0D01*
G01*
X16436000Y-6932000D02*
G75*
G03*
X16436000Y-6932000I-20000J0D01*
G01*
X16803000Y-5738000D02*
G75*
G03*
X16803000Y-5738000I-20000J0D01*
G01*
X16825000Y-5429000D02*
G75*
G03*
X16825000Y-5429000I-20000J0D01*
G01*
X17439000Y-5428000D02*
G75*
G03*
X17439000Y-5428000I-20000J0D01*
G01*
X17724000Y-8268000D02*
G75*
G03*
X17724000Y-8268000I-20000J0D01*
G01*
X17844000Y-8402000D02*
G75*
G03*
X17844000Y-8402000I-20000J0D01*
G01*
X17875000Y-7962000D02*
G75*
G03*
X17875000Y-7962000I-20000J0D01*
G01*
X17985000Y-8043000D02*
G75*
G03*
X17985000Y-8043000I-20000J0D01*
G01*
X18004000Y-5237000D02*
G75*
G03*
X18004000Y-5237000I-20000J0D01*
G01*
D14*
X12125000Y-7052000D02*
X12125000Y-7102000D01*
X12100000Y-7077000D02*
X12150000Y-7077000D01*
X12128000Y-6240000D02*
X12128000Y-6290000D01*
X12103000Y-6265000D02*
X12153000Y-6265000D01*
X12351000Y-6074000D02*
X12351000Y-6124000D01*
X12326000Y-6099000D02*
X12376000Y-6099000D01*
X12352000Y-6618000D02*
X12352000Y-6668000D01*
X12327000Y-6643000D02*
X12377000Y-6643000D01*
X12352000Y-6898000D02*
X12352000Y-6948000D01*
X12327000Y-6923000D02*
X12377000Y-6923000D01*
X12358000Y-7181000D02*
X12358000Y-7231000D01*
X12333000Y-7206000D02*
X12383000Y-7206000D01*
X12359000Y-6310000D02*
X12359000Y-6360000D01*
X12334000Y-6335000D02*
X12384000Y-6335000D01*
X13276000Y-9501000D02*
X13276000Y-9551000D01*
X13251000Y-9526000D02*
X13301000Y-9526000D01*
X13546000Y-9498000D02*
X13546000Y-9548000D01*
X13521000Y-9523000D02*
X13571000Y-9523000D01*
X13639000Y-5073000D02*
X13639000Y-5123000D01*
X13614000Y-5098000D02*
X13664000Y-5098000D01*
X13775000Y-9493000D02*
X13775000Y-9543000D01*
X13750000Y-9518000D02*
X13800000Y-9518000D01*
X13988000Y-9497000D02*
X13988000Y-9547000D01*
X13963000Y-9522000D02*
X14013000Y-9522000D01*
X14519000Y-5984000D02*
X14519000Y-6034000D01*
X14494000Y-6009000D02*
X14544000Y-6009000D01*
X14633000Y-6246000D02*
X14633000Y-6296000D01*
X14608000Y-6271000D02*
X14658000Y-6271000D01*
X14876000Y-6218000D02*
X14876000Y-6268000D01*
X14851000Y-6243000D02*
X14901000Y-6243000D01*
X14877000Y-5972000D02*
X14877000Y-6022000D01*
X14852000Y-5997000D02*
X14902000Y-5997000D01*
X14892000Y-8747000D02*
X14892000Y-8797000D01*
X14867000Y-8772000D02*
X14917000Y-8772000D01*
X14926000Y-4950000D02*
X14926000Y-5000000D01*
X14901000Y-4975000D02*
X14951000Y-4975000D01*
X14934000Y-5212000D02*
X14934000Y-5262000D01*
X14909000Y-5237000D02*
X14959000Y-5237000D01*
X14972000Y-8288000D02*
X14972000Y-8338000D01*
X14947000Y-8313000D02*
X14997000Y-8313000D01*
X14985000Y-7962000D02*
X14985000Y-8012000D01*
X14960000Y-7987000D02*
X15010000Y-7987000D01*
X15038000Y-8869000D02*
X15038000Y-8919000D01*
X15013000Y-8894000D02*
X15063000Y-8894000D01*
X15110000Y-7135000D02*
X15110000Y-7185000D01*
X15085000Y-7160000D02*
X15135000Y-7160000D01*
X15151000Y-5211000D02*
X15151000Y-5261000D01*
X15126000Y-5236000D02*
X15176000Y-5236000D01*
X15203000Y-4951000D02*
X15203000Y-5001000D01*
X15178000Y-4976000D02*
X15228000Y-4976000D01*
X15214000Y-6897000D02*
X15214000Y-6947000D01*
X15189000Y-6922000D02*
X15239000Y-6922000D01*
X15217000Y-7263000D02*
X15217000Y-7313000D01*
X15192000Y-7288000D02*
X15242000Y-7288000D01*
X15282000Y-9313000D02*
X15282000Y-9363000D01*
X15257000Y-9338000D02*
X15307000Y-9338000D01*
X15313000Y-6517000D02*
X15313000Y-6567000D01*
X15288000Y-6542000D02*
X15338000Y-6542000D01*
X15345000Y-6977000D02*
X15345000Y-7027000D01*
X15320000Y-7002000D02*
X15370000Y-7002000D01*
X15351000Y-9635000D02*
X15351000Y-9685000D01*
X15326000Y-9660000D02*
X15376000Y-9660000D01*
X15425000Y-5721000D02*
X15425000Y-5771000D01*
X15400000Y-5746000D02*
X15450000Y-5746000D01*
X15425000Y-5951000D02*
X15425000Y-6001000D01*
X15400000Y-5976000D02*
X15450000Y-5976000D01*
X15468000Y-9754000D02*
X15468000Y-9804000D01*
X15443000Y-9779000D02*
X15493000Y-9779000D01*
X15610000Y-9316000D02*
X15610000Y-9366000D01*
X15585000Y-9341000D02*
X15635000Y-9341000D01*
X15764000Y-9343000D02*
X15764000Y-9393000D01*
X15739000Y-9368000D02*
X15789000Y-9368000D01*
X15764450Y-9503294D02*
X15764450Y-9553294D01*
X15739450Y-9528294D02*
X15789450Y-9528294D01*
X16052000Y-5714000D02*
X16052000Y-5764000D01*
X16027000Y-5739000D02*
X16077000Y-5739000D01*
X16083000Y-6067000D02*
X16083000Y-6117000D01*
X16058000Y-6092000D02*
X16108000Y-6092000D01*
X16128000Y-5966000D02*
X16128000Y-6016000D01*
X16103000Y-5991000D02*
X16153000Y-5991000D01*
X16284000Y-6607000D02*
X16284000Y-6657000D01*
X16259000Y-6632000D02*
X16309000Y-6632000D01*
X16369000Y-4988000D02*
X16369000Y-5038000D01*
X16344000Y-5013000D02*
X16394000Y-5013000D01*
X16378000Y-6371000D02*
X16378000Y-6421000D01*
X16353000Y-6396000D02*
X16403000Y-6396000D01*
X16413000Y-5252000D02*
X16413000Y-5302000D01*
X16388000Y-5277000D02*
X16438000Y-5277000D01*
X16806000Y-6870000D02*
X16806000Y-6920000D01*
X16781000Y-6895000D02*
X16831000Y-6895000D01*
X16830000Y-7387000D02*
X16830000Y-7437000D01*
X16805000Y-7412000D02*
X16855000Y-7412000D01*
X17116000Y-5775000D02*
X17116000Y-5825000D01*
X17091000Y-5800000D02*
X17141000Y-5800000D01*
X17118000Y-5238000D02*
X17118000Y-5288000D01*
X17093000Y-5263000D02*
X17143000Y-5263000D01*
X17124000Y-6327000D02*
X17124000Y-6377000D01*
X17099000Y-6352000D02*
X17149000Y-6352000D01*
X17648000Y-7222000D02*
X17648000Y-7272000D01*
X17623000Y-7247000D02*
X17673000Y-7247000D01*
X17650000Y-5155000D02*
X17650000Y-5205000D01*
X17625000Y-5180000D02*
X17675000Y-5180000D01*
X17654000Y-6778000D02*
X17654000Y-6828000D01*
X17629000Y-6803000D02*
X17679000Y-6803000D01*
X17663000Y-5680000D02*
X17663000Y-5730000D01*
X17638000Y-5705000D02*
X17688000Y-5705000D01*
X17663000Y-6248000D02*
X17663000Y-6298000D01*
X17638000Y-6273000D02*
X17688000Y-6273000D01*
D15*
X15669749Y-9946749D02*
X15669749Y-9897251D01*
X15620251Y-9897251D01*
X15620251Y-9946749D01*
X15669749Y-9946749D01*
X15978749Y-9634749D02*
X15978749Y-9585251D01*
X15929251Y-9585251D01*
X15929251Y-9634749D01*
X15978749Y-9634749D01*
X16886499Y-10410999D02*
X16886499Y-10361501D01*
X16837001Y-10361501D01*
X16837001Y-10410999D01*
X16886499Y-10410999D01*
X17065749Y-10264749D02*
X17065749Y-10215251D01*
X17016251Y-10215251D01*
X17016251Y-10264749D01*
X17065749Y-10264749D01*
X17834749Y-10153749D02*
X17834749Y-10104251D01*
X17785251Y-10104251D01*
X17785251Y-10153749D01*
X17834749Y-10153749D01*
X17843749Y-9786749D02*
X17843749Y-9737251D01*
X17794251Y-9737251D01*
X17794251Y-9786749D01*
X17843749Y-9786749D01*
D16*
X15191000Y-11295000D02*
X15231000Y-11255000D01*
X15191000Y-11215000D01*
X15151000Y-11255000D01*
X15191000Y-11295000D01*
X15191000Y-11545000D02*
X15231000Y-11505000D01*
X15191000Y-11465000D01*
X15151000Y-11505000D01*
X15191000Y-11545000D01*
X15935000Y-11295000D02*
X15975000Y-11255000D01*
X15935000Y-11215000D01*
X15895000Y-11255000D01*
X15935000Y-11295000D01*
X15935000Y-11545000D02*
X15975000Y-11505000D01*
X15935000Y-11465000D01*
X15895000Y-11505000D01*
X15935000Y-11545000D01*
X17229000Y-13247000D02*
X17269000Y-13207000D01*
X17229000Y-13167000D01*
X17189000Y-13207000D01*
X17229000Y-13247000D01*
X17229000Y-13497000D02*
X17269000Y-13457000D01*
X17229000Y-13417000D01*
X17189000Y-13457000D01*
X17229000Y-13497000D01*
X17229000Y-13747000D02*
X17269000Y-13707000D01*
X17229000Y-13667000D01*
X17189000Y-13707000D01*
X17229000Y-13747000D01*
X17465000Y-11699000D02*
X17505000Y-11659000D01*
X17465000Y-11619000D01*
X17425000Y-11659000D01*
X17465000Y-11699000D01*
X17467238Y-10957000D02*
X17507238Y-10917000D01*
X17467238Y-10877000D01*
X17427238Y-10917000D01*
X17467238Y-10957000D01*
X17715000Y-11699000D02*
X17755000Y-11659000D01*
X17715000Y-11619000D01*
X17675000Y-11659000D01*
X17715000Y-11699000D01*
X17717238Y-10957000D02*
X17757238Y-10917000D01*
X17717238Y-10877000D01*
X17677238Y-10917000D01*
X17717238Y-10957000D01*
D10*
X11365000Y-12781000D02*
X11465000Y-12881000D01*
X11465000Y-12781000D02*
X11365000Y-12881000D01*
X11465000Y-12831000D02*
G75*
G03*
X11465000Y-12831000I-50000J0D01*
G01*
X11619000Y-12781000D02*
X11719000Y-12881000D01*
X11719000Y-12781000D02*
X11619000Y-12881000D01*
X11719000Y-12831000D02*
G75*
G03*
X11719000Y-12831000I-50000J0D01*
G01*
X11873000Y-12781000D02*
X11973000Y-12881000D01*
X11973000Y-12781000D02*
X11873000Y-12881000D01*
X11973000Y-12831000D02*
G75*
G03*
X11973000Y-12831000I-50000J0D01*
G01*
X12127000Y-12781000D02*
X12227000Y-12881000D01*
X12227000Y-12781000D02*
X12127000Y-12881000D01*
X12227000Y-12831000D02*
G75*
G03*
X12227000Y-12831000I-50000J0D01*
G01*
X17246000Y-8024000D02*
X17346000Y-8124000D01*
X17346000Y-8024000D02*
X17246000Y-8124000D01*
X17346000Y-8074000D02*
G75*
G03*
X17346000Y-8074000I-50000J0D01*
G01*
X17246000Y-8278000D02*
X17346000Y-8378000D01*
X17346000Y-8278000D02*
X17246000Y-8378000D01*
X17346000Y-8328000D02*
G75*
G03*
X17346000Y-8328000I-50000J0D01*
G01*
X17246000Y-8532000D02*
X17346000Y-8632000D01*
X17346000Y-8532000D02*
X17246000Y-8632000D01*
X17346000Y-8582000D02*
G75*
G03*
X17346000Y-8582000I-50000J0D01*
G01*
X17246000Y-8786000D02*
X17346000Y-8886000D01*
X17346000Y-8786000D02*
X17246000Y-8886000D01*
X17346000Y-8836000D02*
G75*
G03*
X17346000Y-8836000I-50000J0D01*
G01*
X17246000Y-9040000D02*
X17346000Y-9140000D01*
X17346000Y-9040000D02*
X17246000Y-9140000D01*
X17346000Y-9090000D02*
G75*
G03*
X17346000Y-9090000I-50000J0D01*
G01*
X17246000Y-9294000D02*
X17346000Y-9394000D01*
X17346000Y-9294000D02*
X17246000Y-9394000D01*
X17346000Y-9344000D02*
G75*
G03*
X17346000Y-9344000I-50000J0D01*
G01*
X18308250Y-5138750D02*
X18408250Y-5238750D01*
X18408250Y-5138750D02*
X18308250Y-5238750D01*
X18408250Y-5188750D02*
G75*
G03*
X18408250Y-5188750I-50000J0D01*
G01*
X18308250Y-5392750D02*
X18408250Y-5492750D01*
X18408250Y-5392750D02*
X18308250Y-5492750D01*
X18408250Y-5442750D02*
G75*
G03*
X18408250Y-5442750I-50000J0D01*
G01*
X18308250Y-5646750D02*
X18408250Y-5746750D01*
X18408250Y-5646750D02*
X18308250Y-5746750D01*
X18408250Y-5696750D02*
G75*
G03*
X18408250Y-5696750I-50000J0D01*
G01*
X18308250Y-5900750D02*
X18408250Y-6000750D01*
X18408250Y-5900750D02*
X18308250Y-6000750D01*
X18408250Y-5950750D02*
G75*
G03*
X18408250Y-5950750I-50000J0D01*
G01*
X18308250Y-6773000D02*
X18408250Y-6873000D01*
X18408250Y-6773000D02*
X18308250Y-6873000D01*
X18408250Y-6823000D02*
G75*
G03*
X18408250Y-6823000I-50000J0D01*
G01*
X18308250Y-7027000D02*
X18408250Y-7127000D01*
X18408250Y-7027000D02*
X18308250Y-7127000D01*
X18408250Y-7077000D02*
G75*
G03*
X18408250Y-7077000I-50000J0D01*
G01*
X18308250Y-7281000D02*
X18408250Y-7381000D01*
X18408250Y-7281000D02*
X18308250Y-7381000D01*
X18408250Y-7331000D02*
G75*
G03*
X18408250Y-7331000I-50000J0D01*
G01*
X18308250Y-7535000D02*
X18408250Y-7635000D01*
X18408250Y-7535000D02*
X18308250Y-7635000D01*
X18408250Y-7585000D02*
G75*
G03*
X18408250Y-7585000I-50000J0D01*
G01*
X18308250Y-7789000D02*
X18408250Y-7889000D01*
X18408250Y-7789000D02*
X18308250Y-7889000D01*
X18408250Y-7839000D02*
G75*
G03*
X18408250Y-7839000I-50000J0D01*
G01*
X18308250Y-8043000D02*
X18408250Y-8143000D01*
X18408250Y-8043000D02*
X18308250Y-8143000D01*
X18408250Y-8093000D02*
G75*
G03*
X18408250Y-8093000I-50000J0D01*
G01*
X18308250Y-8706500D02*
X18408250Y-8806500D01*
X18408250Y-8706500D02*
X18308250Y-8806500D01*
X18408250Y-8756500D02*
G75*
G03*
X18408250Y-8756500I-50000J0D01*
G01*
X18308250Y-8960500D02*
X18408250Y-9060500D01*
X18408250Y-8960500D02*
X18308250Y-9060500D01*
X18408250Y-9010500D02*
G75*
G03*
X18408250Y-9010500I-50000J0D01*
G01*
X18308250Y-9214500D02*
X18408250Y-9314500D01*
X18408250Y-9214500D02*
X18308250Y-9314500D01*
X18408250Y-9264500D02*
G75*
G03*
X18408250Y-9264500I-50000J0D01*
G01*
X18308250Y-9468500D02*
X18408250Y-9568500D01*
X18408250Y-9468500D02*
X18308250Y-9568500D01*
X18408250Y-9518500D02*
G75*
G03*
X18408250Y-9518500I-50000J0D01*
G01*
X18308250Y-10100000D02*
X18408250Y-10200000D01*
X18408250Y-10100000D02*
X18308250Y-10200000D01*
X18408250Y-10150000D02*
G75*
G03*
X18408250Y-10150000I-50000J0D01*
G01*
X18308250Y-10354000D02*
X18408250Y-10454000D01*
X18408250Y-10354000D02*
X18308250Y-10454000D01*
X18408250Y-10404000D02*
G75*
G03*
X18408250Y-10404000I-50000J0D01*
G01*
X18308250Y-10608000D02*
X18408250Y-10708000D01*
X18408250Y-10608000D02*
X18308250Y-10708000D01*
X18408250Y-10658000D02*
G75*
G03*
X18408250Y-10658000I-50000J0D01*
G01*
X18308250Y-10862000D02*
X18408250Y-10962000D01*
X18408250Y-10862000D02*
X18308250Y-10962000D01*
X18408250Y-10912000D02*
G75*
G03*
X18408250Y-10912000I-50000J0D01*
G01*
X18308250Y-11116000D02*
X18408250Y-11216000D01*
X18408250Y-11116000D02*
X18308250Y-11216000D01*
X18408250Y-11166000D02*
G75*
G03*
X18408250Y-11166000I-50000J0D01*
G01*
D17*
X12906000Y-12863000D02*
X13016000Y-12973000D01*
X13016000Y-12863000D02*
X12906000Y-12973000D01*
X12961000Y-12863000D02*
X12961000Y-12973000D01*
X12906000Y-12918000D02*
X13016000Y-12918000D01*
X13414000Y-12863000D02*
X13524000Y-12973000D01*
X13524000Y-12863000D02*
X13414000Y-12973000D01*
X13469000Y-12863000D02*
X13469000Y-12973000D01*
X13414000Y-12918000D02*
X13524000Y-12918000D01*
X14365000Y-12863000D02*
X14475000Y-12973000D01*
X14475000Y-12863000D02*
X14365000Y-12973000D01*
X14420000Y-12863000D02*
X14420000Y-12973000D01*
X14365000Y-12918000D02*
X14475000Y-12918000D01*
X14873000Y-12863000D02*
X14983000Y-12973000D01*
X14983000Y-12863000D02*
X14873000Y-12973000D01*
X14928000Y-12863000D02*
X14928000Y-12973000D01*
X14873000Y-12918000D02*
X14983000Y-12918000D01*
X15779000Y-12863000D02*
X15889000Y-12973000D01*
X15889000Y-12863000D02*
X15779000Y-12973000D01*
X15834000Y-12863000D02*
X15834000Y-12973000D01*
X15779000Y-12918000D02*
X15889000Y-12918000D01*
X16287000Y-12863000D02*
X16397000Y-12973000D01*
X16397000Y-12863000D02*
X16287000Y-12973000D01*
X16342000Y-12863000D02*
X16342000Y-12973000D01*
X16287000Y-12918000D02*
X16397000Y-12918000D01*
D18*
X11158000Y-5141000D02*
X11558000Y-5541000D01*
X11558000Y-5141000D02*
X11158000Y-5541000D01*
X11499423Y-5482423D02*
X11499423Y-5199577D01*
X11216577Y-5199577D01*
X11216577Y-5482423D01*
X11499423Y-5482423D01*
X14654000Y-9421000D02*
X15054000Y-9821000D01*
X15054000Y-9421000D02*
X14654000Y-9821000D01*
X14995423Y-9762423D02*
X14995423Y-9479577D01*
X14712577Y-9479577D01*
X14712577Y-9762423D01*
X14995423Y-9762423D01*
X17946000Y-13330000D02*
X18346000Y-13730000D01*
X18346000Y-13330000D02*
X17946000Y-13730000D01*
X18287423Y-13671423D02*
X18287423Y-13388577D01*
X18004577Y-13388577D01*
X18004577Y-13671423D01*
X18287423Y-13671423D01*
D11*
X11107777Y-14351234D02*
X11107777Y-14151234D01*
X11107777Y-14151234D02*
X11155396Y-14151234D01*
X11155396Y-14151234D02*
X11183967Y-14160758D01*
X11183967Y-14160758D02*
X11203015Y-14179805D01*
X11203015Y-14179805D02*
X11212539Y-14198853D01*
X11212539Y-14198853D02*
X11222062Y-14236948D01*
X11222062Y-14236948D02*
X11222062Y-14265519D01*
X11222062Y-14265519D02*
X11212539Y-14303615D01*
X11212539Y-14303615D02*
X11203015Y-14322662D01*
X11203015Y-14322662D02*
X11183967Y-14341710D01*
X11183967Y-14341710D02*
X11155396Y-14351234D01*
X11155396Y-14351234D02*
X11107777Y-14351234D01*
X11307777Y-14351234D02*
X11307777Y-14217900D01*
X11307777Y-14255996D02*
X11317301Y-14236948D01*
X11317301Y-14236948D02*
X11326824Y-14227424D01*
X11326824Y-14227424D02*
X11345872Y-14217900D01*
X11345872Y-14217900D02*
X11364920Y-14217900D01*
X11431586Y-14351234D02*
X11431586Y-14217900D01*
X11431586Y-14151234D02*
X11422062Y-14160758D01*
X11422062Y-14160758D02*
X11431586Y-14170281D01*
X11431586Y-14170281D02*
X11441110Y-14160758D01*
X11441110Y-14160758D02*
X11431586Y-14151234D01*
X11431586Y-14151234D02*
X11431586Y-14170281D01*
X11555396Y-14351234D02*
X11536348Y-14341710D01*
X11536348Y-14341710D02*
X11526824Y-14322662D01*
X11526824Y-14322662D02*
X11526824Y-14151234D01*
X11660158Y-14351234D02*
X11641110Y-14341710D01*
X11641110Y-14341710D02*
X11631586Y-14322662D01*
X11631586Y-14322662D02*
X11631586Y-14151234D01*
X11888729Y-14351234D02*
X11888729Y-14151234D01*
X11888729Y-14151234D02*
X11955396Y-14294091D01*
X11955396Y-14294091D02*
X12022062Y-14151234D01*
X12022062Y-14151234D02*
X12022062Y-14351234D01*
X12203015Y-14351234D02*
X12203015Y-14246472D01*
X12203015Y-14246472D02*
X12193491Y-14227424D01*
X12193491Y-14227424D02*
X12174443Y-14217900D01*
X12174443Y-14217900D02*
X12136348Y-14217900D01*
X12136348Y-14217900D02*
X12117301Y-14227424D01*
X12203015Y-14341710D02*
X12183967Y-14351234D01*
X12183967Y-14351234D02*
X12136348Y-14351234D01*
X12136348Y-14351234D02*
X12117301Y-14341710D01*
X12117301Y-14341710D02*
X12107777Y-14322662D01*
X12107777Y-14322662D02*
X12107777Y-14303615D01*
X12107777Y-14303615D02*
X12117301Y-14284567D01*
X12117301Y-14284567D02*
X12136348Y-14275043D01*
X12136348Y-14275043D02*
X12183967Y-14275043D01*
X12183967Y-14275043D02*
X12203015Y-14265519D01*
X12298253Y-14217900D02*
X12298253Y-14417900D01*
X12298253Y-14227424D02*
X12317301Y-14217900D01*
X12317301Y-14217900D02*
X12355396Y-14217900D01*
X12355396Y-14217900D02*
X12374443Y-14227424D01*
X12374443Y-14227424D02*
X12383967Y-14236948D01*
X12383967Y-14236948D02*
X12393491Y-14255996D01*
X12393491Y-14255996D02*
X12393491Y-14313138D01*
X12393491Y-14313138D02*
X12383967Y-14332186D01*
X12383967Y-14332186D02*
X12374443Y-14341710D01*
X12374443Y-14341710D02*
X12355396Y-14351234D01*
X12355396Y-14351234D02*
X12317301Y-14351234D01*
X12317301Y-14351234D02*
X12298253Y-14341710D01*
X12479205Y-14332186D02*
X12488729Y-14341710D01*
X12488729Y-14341710D02*
X12479205Y-14351234D01*
X12479205Y-14351234D02*
X12469682Y-14341710D01*
X12469682Y-14341710D02*
X12479205Y-14332186D01*
X12479205Y-14332186D02*
X12479205Y-14351234D01*
X12479205Y-14227424D02*
X12488729Y-14236948D01*
X12488729Y-14236948D02*
X12479205Y-14246472D01*
X12479205Y-14246472D02*
X12469682Y-14236948D01*
X12469682Y-14236948D02*
X12479205Y-14227424D01*
X12479205Y-14227424D02*
X12479205Y-14246472D01*
D12*
X10827000Y-14669750D02*
X10847000Y-14689750D01*
X10847000Y-14669750D02*
X10827000Y-14689750D01*
D11*
X11145872Y-14571234D02*
X11164920Y-14571234D01*
X11164920Y-14571234D02*
X11183967Y-14580758D01*
X11183967Y-14580758D02*
X11193491Y-14590281D01*
X11193491Y-14590281D02*
X11203015Y-14609329D01*
X11203015Y-14609329D02*
X11212539Y-14647424D01*
X11212539Y-14647424D02*
X11212539Y-14695043D01*
X11212539Y-14695043D02*
X11203015Y-14733138D01*
X11203015Y-14733138D02*
X11193491Y-14752186D01*
X11193491Y-14752186D02*
X11183967Y-14761710D01*
X11183967Y-14761710D02*
X11164920Y-14771234D01*
X11164920Y-14771234D02*
X11145872Y-14771234D01*
X11145872Y-14771234D02*
X11126824Y-14761710D01*
X11126824Y-14761710D02*
X11117301Y-14752186D01*
X11117301Y-14752186D02*
X11107777Y-14733138D01*
X11107777Y-14733138D02*
X11098253Y-14695043D01*
X11098253Y-14695043D02*
X11098253Y-14647424D01*
X11098253Y-14647424D02*
X11107777Y-14609329D01*
X11107777Y-14609329D02*
X11117301Y-14590281D01*
X11117301Y-14590281D02*
X11126824Y-14580758D01*
X11126824Y-14580758D02*
X11145872Y-14571234D01*
X11298253Y-14752186D02*
X11307777Y-14761710D01*
X11307777Y-14761710D02*
X11298253Y-14771234D01*
X11298253Y-14771234D02*
X11288729Y-14761710D01*
X11288729Y-14761710D02*
X11298253Y-14752186D01*
X11298253Y-14752186D02*
X11298253Y-14771234D01*
X11383967Y-14590281D02*
X11393491Y-14580758D01*
X11393491Y-14580758D02*
X11412539Y-14571234D01*
X11412539Y-14571234D02*
X11460158Y-14571234D01*
X11460158Y-14571234D02*
X11479205Y-14580758D01*
X11479205Y-14580758D02*
X11488729Y-14590281D01*
X11488729Y-14590281D02*
X11498253Y-14609329D01*
X11498253Y-14609329D02*
X11498253Y-14628377D01*
X11498253Y-14628377D02*
X11488729Y-14656948D01*
X11488729Y-14656948D02*
X11374443Y-14771234D01*
X11374443Y-14771234D02*
X11498253Y-14771234D01*
X11622062Y-14571234D02*
X11641110Y-14571234D01*
X11641110Y-14571234D02*
X11660158Y-14580758D01*
X11660158Y-14580758D02*
X11669682Y-14590281D01*
X11669682Y-14590281D02*
X11679205Y-14609329D01*
X11679205Y-14609329D02*
X11688729Y-14647424D01*
X11688729Y-14647424D02*
X11688729Y-14695043D01*
X11688729Y-14695043D02*
X11679205Y-14733138D01*
X11679205Y-14733138D02*
X11669682Y-14752186D01*
X11669682Y-14752186D02*
X11660158Y-14761710D01*
X11660158Y-14761710D02*
X11641110Y-14771234D01*
X11641110Y-14771234D02*
X11622062Y-14771234D01*
X11622062Y-14771234D02*
X11603015Y-14761710D01*
X11603015Y-14761710D02*
X11593491Y-14752186D01*
X11593491Y-14752186D02*
X11583967Y-14733138D01*
X11583967Y-14733138D02*
X11574443Y-14695043D01*
X11574443Y-14695043D02*
X11574443Y-14647424D01*
X11574443Y-14647424D02*
X11583967Y-14609329D01*
X11583967Y-14609329D02*
X11593491Y-14590281D01*
X11593491Y-14590281D02*
X11603015Y-14580758D01*
X11603015Y-14580758D02*
X11622062Y-14571234D01*
X11812539Y-14571234D02*
X11831586Y-14571234D01*
X11831586Y-14571234D02*
X11850634Y-14580758D01*
X11850634Y-14580758D02*
X11860158Y-14590281D01*
X11860158Y-14590281D02*
X11869682Y-14609329D01*
X11869682Y-14609329D02*
X11879205Y-14647424D01*
X11879205Y-14647424D02*
X11879205Y-14695043D01*
X11879205Y-14695043D02*
X11869682Y-14733138D01*
X11869682Y-14733138D02*
X11860158Y-14752186D01*
X11860158Y-14752186D02*
X11850634Y-14761710D01*
X11850634Y-14761710D02*
X11831586Y-14771234D01*
X11831586Y-14771234D02*
X11812539Y-14771234D01*
X11812539Y-14771234D02*
X11793491Y-14761710D01*
X11793491Y-14761710D02*
X11783967Y-14752186D01*
X11783967Y-14752186D02*
X11774443Y-14733138D01*
X11774443Y-14733138D02*
X11764920Y-14695043D01*
X11764920Y-14695043D02*
X11764920Y-14647424D01*
X11764920Y-14647424D02*
X11774443Y-14609329D01*
X11774443Y-14609329D02*
X11783967Y-14590281D01*
X11783967Y-14590281D02*
X11793491Y-14580758D01*
X11793491Y-14580758D02*
X11812539Y-14571234D01*
X11964920Y-14771234D02*
X11964920Y-14637900D01*
X11964920Y-14656948D02*
X11974443Y-14647424D01*
X11974443Y-14647424D02*
X11993491Y-14637900D01*
X11993491Y-14637900D02*
X12022063Y-14637900D01*
X12022063Y-14637900D02*
X12041110Y-14647424D01*
X12041110Y-14647424D02*
X12050634Y-14666472D01*
X12050634Y-14666472D02*
X12050634Y-14771234D01*
X12050634Y-14666472D02*
X12060158Y-14647424D01*
X12060158Y-14647424D02*
X12079205Y-14637900D01*
X12079205Y-14637900D02*
X12107777Y-14637900D01*
X12107777Y-14637900D02*
X12126824Y-14647424D01*
X12126824Y-14647424D02*
X12136348Y-14666472D01*
X12136348Y-14666472D02*
X12136348Y-14771234D01*
X12231586Y-14771234D02*
X12231586Y-14637900D01*
X12231586Y-14656948D02*
X12241110Y-14647424D01*
X12241110Y-14647424D02*
X12260158Y-14637900D01*
X12260158Y-14637900D02*
X12288729Y-14637900D01*
X12288729Y-14637900D02*
X12307777Y-14647424D01*
X12307777Y-14647424D02*
X12317301Y-14666472D01*
X12317301Y-14666472D02*
X12317301Y-14771234D01*
X12317301Y-14666472D02*
X12326824Y-14647424D01*
X12326824Y-14647424D02*
X12345872Y-14637900D01*
X12345872Y-14637900D02*
X12374443Y-14637900D01*
X12374443Y-14637900D02*
X12393491Y-14647424D01*
X12393491Y-14647424D02*
X12403015Y-14666472D01*
X12403015Y-14666472D02*
X12403015Y-14771234D01*
X12793491Y-14561710D02*
X12622063Y-14818853D01*
X13050634Y-14571234D02*
X13069682Y-14571234D01*
X13069682Y-14571234D02*
X13088729Y-14580758D01*
X13088729Y-14580758D02*
X13098253Y-14590281D01*
X13098253Y-14590281D02*
X13107777Y-14609329D01*
X13107777Y-14609329D02*
X13117301Y-14647424D01*
X13117301Y-14647424D02*
X13117301Y-14695043D01*
X13117301Y-14695043D02*
X13107777Y-14733138D01*
X13107777Y-14733138D02*
X13098253Y-14752186D01*
X13098253Y-14752186D02*
X13088729Y-14761710D01*
X13088729Y-14761710D02*
X13069682Y-14771234D01*
X13069682Y-14771234D02*
X13050634Y-14771234D01*
X13050634Y-14771234D02*
X13031586Y-14761710D01*
X13031586Y-14761710D02*
X13022063Y-14752186D01*
X13022063Y-14752186D02*
X13012539Y-14733138D01*
X13012539Y-14733138D02*
X13003015Y-14695043D01*
X13003015Y-14695043D02*
X13003015Y-14647424D01*
X13003015Y-14647424D02*
X13012539Y-14609329D01*
X13012539Y-14609329D02*
X13022063Y-14590281D01*
X13022063Y-14590281D02*
X13031586Y-14580758D01*
X13031586Y-14580758D02*
X13050634Y-14571234D01*
X13203015Y-14752186D02*
X13212539Y-14761710D01*
X13212539Y-14761710D02*
X13203015Y-14771234D01*
X13203015Y-14771234D02*
X13193491Y-14761710D01*
X13193491Y-14761710D02*
X13203015Y-14752186D01*
X13203015Y-14752186D02*
X13203015Y-14771234D01*
X13336348Y-14571234D02*
X13355396Y-14571234D01*
X13355396Y-14571234D02*
X13374444Y-14580758D01*
X13374444Y-14580758D02*
X13383967Y-14590281D01*
X13383967Y-14590281D02*
X13393491Y-14609329D01*
X13393491Y-14609329D02*
X13403015Y-14647424D01*
X13403015Y-14647424D02*
X13403015Y-14695043D01*
X13403015Y-14695043D02*
X13393491Y-14733138D01*
X13393491Y-14733138D02*
X13383967Y-14752186D01*
X13383967Y-14752186D02*
X13374444Y-14761710D01*
X13374444Y-14761710D02*
X13355396Y-14771234D01*
X13355396Y-14771234D02*
X13336348Y-14771234D01*
X13336348Y-14771234D02*
X13317301Y-14761710D01*
X13317301Y-14761710D02*
X13307777Y-14752186D01*
X13307777Y-14752186D02*
X13298253Y-14733138D01*
X13298253Y-14733138D02*
X13288729Y-14695043D01*
X13288729Y-14695043D02*
X13288729Y-14647424D01*
X13288729Y-14647424D02*
X13298253Y-14609329D01*
X13298253Y-14609329D02*
X13307777Y-14590281D01*
X13307777Y-14590281D02*
X13317301Y-14580758D01*
X13317301Y-14580758D02*
X13336348Y-14571234D01*
X13526825Y-14571234D02*
X13545872Y-14571234D01*
X13545872Y-14571234D02*
X13564920Y-14580758D01*
X13564920Y-14580758D02*
X13574444Y-14590281D01*
X13574444Y-14590281D02*
X13583967Y-14609329D01*
X13583967Y-14609329D02*
X13593491Y-14647424D01*
X13593491Y-14647424D02*
X13593491Y-14695043D01*
X13593491Y-14695043D02*
X13583967Y-14733138D01*
X13583967Y-14733138D02*
X13574444Y-14752186D01*
X13574444Y-14752186D02*
X13564920Y-14761710D01*
X13564920Y-14761710D02*
X13545872Y-14771234D01*
X13545872Y-14771234D02*
X13526825Y-14771234D01*
X13526825Y-14771234D02*
X13507777Y-14761710D01*
X13507777Y-14761710D02*
X13498253Y-14752186D01*
X13498253Y-14752186D02*
X13488729Y-14733138D01*
X13488729Y-14733138D02*
X13479206Y-14695043D01*
X13479206Y-14695043D02*
X13479206Y-14647424D01*
X13479206Y-14647424D02*
X13488729Y-14609329D01*
X13488729Y-14609329D02*
X13498253Y-14590281D01*
X13498253Y-14590281D02*
X13507777Y-14580758D01*
X13507777Y-14580758D02*
X13526825Y-14571234D01*
X13660158Y-14571234D02*
X13793491Y-14571234D01*
X13793491Y-14571234D02*
X13707777Y-14771234D01*
X13879206Y-14771234D02*
X13917301Y-14771234D01*
X13917301Y-14771234D02*
X13936348Y-14761710D01*
X13936348Y-14761710D02*
X13945872Y-14752186D01*
X13945872Y-14752186D02*
X13964920Y-14723615D01*
X13964920Y-14723615D02*
X13974444Y-14685519D01*
X13974444Y-14685519D02*
X13974444Y-14609329D01*
X13974444Y-14609329D02*
X13964920Y-14590281D01*
X13964920Y-14590281D02*
X13955396Y-14580758D01*
X13955396Y-14580758D02*
X13936348Y-14571234D01*
X13936348Y-14571234D02*
X13898253Y-14571234D01*
X13898253Y-14571234D02*
X13879206Y-14580758D01*
X13879206Y-14580758D02*
X13869682Y-14590281D01*
X13869682Y-14590281D02*
X13860158Y-14609329D01*
X13860158Y-14609329D02*
X13860158Y-14656948D01*
X13860158Y-14656948D02*
X13869682Y-14675996D01*
X13869682Y-14675996D02*
X13879206Y-14685519D01*
X13879206Y-14685519D02*
X13898253Y-14695043D01*
X13898253Y-14695043D02*
X13936348Y-14695043D01*
X13936348Y-14695043D02*
X13955396Y-14685519D01*
X13955396Y-14685519D02*
X13964920Y-14675996D01*
X13964920Y-14675996D02*
X13974444Y-14656948D01*
X14050634Y-14571234D02*
X14050634Y-14609329D01*
X14126825Y-14571234D02*
X14126825Y-14609329D01*
X14422063Y-14847424D02*
X14412539Y-14837900D01*
X14412539Y-14837900D02*
X14393491Y-14809329D01*
X14393491Y-14809329D02*
X14383968Y-14790281D01*
X14383968Y-14790281D02*
X14374444Y-14761710D01*
X14374444Y-14761710D02*
X14364920Y-14714091D01*
X14364920Y-14714091D02*
X14364920Y-14675996D01*
X14364920Y-14675996D02*
X14374444Y-14628377D01*
X14374444Y-14628377D02*
X14383968Y-14599805D01*
X14383968Y-14599805D02*
X14393491Y-14580758D01*
X14393491Y-14580758D02*
X14412539Y-14552186D01*
X14412539Y-14552186D02*
X14422063Y-14542662D01*
X14603015Y-14771234D02*
X14488729Y-14771234D01*
X14545872Y-14771234D02*
X14545872Y-14571234D01*
X14545872Y-14571234D02*
X14526825Y-14599805D01*
X14526825Y-14599805D02*
X14507777Y-14618853D01*
X14507777Y-14618853D02*
X14488729Y-14628377D01*
X14679206Y-14590281D02*
X14688729Y-14580758D01*
X14688729Y-14580758D02*
X14707777Y-14571234D01*
X14707777Y-14571234D02*
X14755396Y-14571234D01*
X14755396Y-14571234D02*
X14774444Y-14580758D01*
X14774444Y-14580758D02*
X14783968Y-14590281D01*
X14783968Y-14590281D02*
X14793491Y-14609329D01*
X14793491Y-14609329D02*
X14793491Y-14628377D01*
X14793491Y-14628377D02*
X14783968Y-14656948D01*
X14783968Y-14656948D02*
X14669682Y-14771234D01*
X14669682Y-14771234D02*
X14793491Y-14771234D01*
X15031587Y-14771234D02*
X15031587Y-14571234D01*
X15117301Y-14771234D02*
X15117301Y-14666472D01*
X15117301Y-14666472D02*
X15107777Y-14647424D01*
X15107777Y-14647424D02*
X15088730Y-14637900D01*
X15088730Y-14637900D02*
X15060158Y-14637900D01*
X15060158Y-14637900D02*
X15041110Y-14647424D01*
X15041110Y-14647424D02*
X15031587Y-14656948D01*
X15241110Y-14771234D02*
X15222063Y-14761710D01*
X15222063Y-14761710D02*
X15212539Y-14752186D01*
X15212539Y-14752186D02*
X15203015Y-14733138D01*
X15203015Y-14733138D02*
X15203015Y-14675996D01*
X15203015Y-14675996D02*
X15212539Y-14656948D01*
X15212539Y-14656948D02*
X15222063Y-14647424D01*
X15222063Y-14647424D02*
X15241110Y-14637900D01*
X15241110Y-14637900D02*
X15269682Y-14637900D01*
X15269682Y-14637900D02*
X15288730Y-14647424D01*
X15288730Y-14647424D02*
X15298253Y-14656948D01*
X15298253Y-14656948D02*
X15307777Y-14675996D01*
X15307777Y-14675996D02*
X15307777Y-14733138D01*
X15307777Y-14733138D02*
X15298253Y-14752186D01*
X15298253Y-14752186D02*
X15288730Y-14761710D01*
X15288730Y-14761710D02*
X15269682Y-14771234D01*
X15269682Y-14771234D02*
X15241110Y-14771234D01*
X15422063Y-14771234D02*
X15403015Y-14761710D01*
X15403015Y-14761710D02*
X15393491Y-14742662D01*
X15393491Y-14742662D02*
X15393491Y-14571234D01*
X15574444Y-14761710D02*
X15555396Y-14771234D01*
X15555396Y-14771234D02*
X15517301Y-14771234D01*
X15517301Y-14771234D02*
X15498253Y-14761710D01*
X15498253Y-14761710D02*
X15488730Y-14742662D01*
X15488730Y-14742662D02*
X15488730Y-14666472D01*
X15488730Y-14666472D02*
X15498253Y-14647424D01*
X15498253Y-14647424D02*
X15517301Y-14637900D01*
X15517301Y-14637900D02*
X15555396Y-14637900D01*
X15555396Y-14637900D02*
X15574444Y-14647424D01*
X15574444Y-14647424D02*
X15583968Y-14666472D01*
X15583968Y-14666472D02*
X15583968Y-14685519D01*
X15583968Y-14685519D02*
X15488730Y-14704567D01*
X15660158Y-14761710D02*
X15679206Y-14771234D01*
X15679206Y-14771234D02*
X15717301Y-14771234D01*
X15717301Y-14771234D02*
X15736349Y-14761710D01*
X15736349Y-14761710D02*
X15745872Y-14742662D01*
X15745872Y-14742662D02*
X15745872Y-14733138D01*
X15745872Y-14733138D02*
X15736349Y-14714091D01*
X15736349Y-14714091D02*
X15717301Y-14704567D01*
X15717301Y-14704567D02*
X15688730Y-14704567D01*
X15688730Y-14704567D02*
X15669682Y-14695043D01*
X15669682Y-14695043D02*
X15660158Y-14675996D01*
X15660158Y-14675996D02*
X15660158Y-14666472D01*
X15660158Y-14666472D02*
X15669682Y-14647424D01*
X15669682Y-14647424D02*
X15688730Y-14637900D01*
X15688730Y-14637900D02*
X15717301Y-14637900D01*
X15717301Y-14637900D02*
X15736349Y-14647424D01*
X15812539Y-14847424D02*
X15822063Y-14837900D01*
X15822063Y-14837900D02*
X15841111Y-14809329D01*
X15841111Y-14809329D02*
X15850634Y-14790281D01*
X15850634Y-14790281D02*
X15860158Y-14761710D01*
X15860158Y-14761710D02*
X15869682Y-14714091D01*
X15869682Y-14714091D02*
X15869682Y-14675996D01*
X15869682Y-14675996D02*
X15860158Y-14628377D01*
X15860158Y-14628377D02*
X15850634Y-14599805D01*
X15850634Y-14599805D02*
X15841111Y-14580758D01*
X15841111Y-14580758D02*
X15822063Y-14552186D01*
X15822063Y-14552186D02*
X15812539Y-14542662D01*
D13*
X10847000Y-14943750D02*
G75*
G03*
X10847000Y-14943750I-20000J0D01*
G01*
D11*
X11145872Y-14835234D02*
X11164920Y-14835234D01*
X11164920Y-14835234D02*
X11183967Y-14844758D01*
X11183967Y-14844758D02*
X11193491Y-14854281D01*
X11193491Y-14854281D02*
X11203015Y-14873329D01*
X11203015Y-14873329D02*
X11212539Y-14911424D01*
X11212539Y-14911424D02*
X11212539Y-14959043D01*
X11212539Y-14959043D02*
X11203015Y-14997138D01*
X11203015Y-14997138D02*
X11193491Y-15016186D01*
X11193491Y-15016186D02*
X11183967Y-15025710D01*
X11183967Y-15025710D02*
X11164920Y-15035234D01*
X11164920Y-15035234D02*
X11145872Y-15035234D01*
X11145872Y-15035234D02*
X11126824Y-15025710D01*
X11126824Y-15025710D02*
X11117301Y-15016186D01*
X11117301Y-15016186D02*
X11107777Y-14997138D01*
X11107777Y-14997138D02*
X11098253Y-14959043D01*
X11098253Y-14959043D02*
X11098253Y-14911424D01*
X11098253Y-14911424D02*
X11107777Y-14873329D01*
X11107777Y-14873329D02*
X11117301Y-14854281D01*
X11117301Y-14854281D02*
X11126824Y-14844758D01*
X11126824Y-14844758D02*
X11145872Y-14835234D01*
X11298253Y-15016186D02*
X11307777Y-15025710D01*
X11307777Y-15025710D02*
X11298253Y-15035234D01*
X11298253Y-15035234D02*
X11288729Y-15025710D01*
X11288729Y-15025710D02*
X11298253Y-15016186D01*
X11298253Y-15016186D02*
X11298253Y-15035234D01*
X11479205Y-14901900D02*
X11479205Y-15035234D01*
X11431586Y-14825710D02*
X11383967Y-14968567D01*
X11383967Y-14968567D02*
X11507777Y-14968567D01*
X11622062Y-14835234D02*
X11641110Y-14835234D01*
X11641110Y-14835234D02*
X11660158Y-14844758D01*
X11660158Y-14844758D02*
X11669682Y-14854281D01*
X11669682Y-14854281D02*
X11679205Y-14873329D01*
X11679205Y-14873329D02*
X11688729Y-14911424D01*
X11688729Y-14911424D02*
X11688729Y-14959043D01*
X11688729Y-14959043D02*
X11679205Y-14997138D01*
X11679205Y-14997138D02*
X11669682Y-15016186D01*
X11669682Y-15016186D02*
X11660158Y-15025710D01*
X11660158Y-15025710D02*
X11641110Y-15035234D01*
X11641110Y-15035234D02*
X11622062Y-15035234D01*
X11622062Y-15035234D02*
X11603015Y-15025710D01*
X11603015Y-15025710D02*
X11593491Y-15016186D01*
X11593491Y-15016186D02*
X11583967Y-14997138D01*
X11583967Y-14997138D02*
X11574443Y-14959043D01*
X11574443Y-14959043D02*
X11574443Y-14911424D01*
X11574443Y-14911424D02*
X11583967Y-14873329D01*
X11583967Y-14873329D02*
X11593491Y-14854281D01*
X11593491Y-14854281D02*
X11603015Y-14844758D01*
X11603015Y-14844758D02*
X11622062Y-14835234D01*
X11812539Y-14835234D02*
X11831586Y-14835234D01*
X11831586Y-14835234D02*
X11850634Y-14844758D01*
X11850634Y-14844758D02*
X11860158Y-14854281D01*
X11860158Y-14854281D02*
X11869682Y-14873329D01*
X11869682Y-14873329D02*
X11879205Y-14911424D01*
X11879205Y-14911424D02*
X11879205Y-14959043D01*
X11879205Y-14959043D02*
X11869682Y-14997138D01*
X11869682Y-14997138D02*
X11860158Y-15016186D01*
X11860158Y-15016186D02*
X11850634Y-15025710D01*
X11850634Y-15025710D02*
X11831586Y-15035234D01*
X11831586Y-15035234D02*
X11812539Y-15035234D01*
X11812539Y-15035234D02*
X11793491Y-15025710D01*
X11793491Y-15025710D02*
X11783967Y-15016186D01*
X11783967Y-15016186D02*
X11774443Y-14997138D01*
X11774443Y-14997138D02*
X11764920Y-14959043D01*
X11764920Y-14959043D02*
X11764920Y-14911424D01*
X11764920Y-14911424D02*
X11774443Y-14873329D01*
X11774443Y-14873329D02*
X11783967Y-14854281D01*
X11783967Y-14854281D02*
X11793491Y-14844758D01*
X11793491Y-14844758D02*
X11812539Y-14835234D01*
X11964920Y-15035234D02*
X11964920Y-14901900D01*
X11964920Y-14920948D02*
X11974443Y-14911424D01*
X11974443Y-14911424D02*
X11993491Y-14901900D01*
X11993491Y-14901900D02*
X12022063Y-14901900D01*
X12022063Y-14901900D02*
X12041110Y-14911424D01*
X12041110Y-14911424D02*
X12050634Y-14930472D01*
X12050634Y-14930472D02*
X12050634Y-15035234D01*
X12050634Y-14930472D02*
X12060158Y-14911424D01*
X12060158Y-14911424D02*
X12079205Y-14901900D01*
X12079205Y-14901900D02*
X12107777Y-14901900D01*
X12107777Y-14901900D02*
X12126824Y-14911424D01*
X12126824Y-14911424D02*
X12136348Y-14930472D01*
X12136348Y-14930472D02*
X12136348Y-15035234D01*
X12231586Y-15035234D02*
X12231586Y-14901900D01*
X12231586Y-14920948D02*
X12241110Y-14911424D01*
X12241110Y-14911424D02*
X12260158Y-14901900D01*
X12260158Y-14901900D02*
X12288729Y-14901900D01*
X12288729Y-14901900D02*
X12307777Y-14911424D01*
X12307777Y-14911424D02*
X12317301Y-14930472D01*
X12317301Y-14930472D02*
X12317301Y-15035234D01*
X12317301Y-14930472D02*
X12326824Y-14911424D01*
X12326824Y-14911424D02*
X12345872Y-14901900D01*
X12345872Y-14901900D02*
X12374443Y-14901900D01*
X12374443Y-14901900D02*
X12393491Y-14911424D01*
X12393491Y-14911424D02*
X12403015Y-14930472D01*
X12403015Y-14930472D02*
X12403015Y-15035234D01*
X12793491Y-14825710D02*
X12622063Y-15082853D01*
X13050634Y-14835234D02*
X13069682Y-14835234D01*
X13069682Y-14835234D02*
X13088729Y-14844758D01*
X13088729Y-14844758D02*
X13098253Y-14854281D01*
X13098253Y-14854281D02*
X13107777Y-14873329D01*
X13107777Y-14873329D02*
X13117301Y-14911424D01*
X13117301Y-14911424D02*
X13117301Y-14959043D01*
X13117301Y-14959043D02*
X13107777Y-14997138D01*
X13107777Y-14997138D02*
X13098253Y-15016186D01*
X13098253Y-15016186D02*
X13088729Y-15025710D01*
X13088729Y-15025710D02*
X13069682Y-15035234D01*
X13069682Y-15035234D02*
X13050634Y-15035234D01*
X13050634Y-15035234D02*
X13031586Y-15025710D01*
X13031586Y-15025710D02*
X13022063Y-15016186D01*
X13022063Y-15016186D02*
X13012539Y-14997138D01*
X13012539Y-14997138D02*
X13003015Y-14959043D01*
X13003015Y-14959043D02*
X13003015Y-14911424D01*
X13003015Y-14911424D02*
X13012539Y-14873329D01*
X13012539Y-14873329D02*
X13022063Y-14854281D01*
X13022063Y-14854281D02*
X13031586Y-14844758D01*
X13031586Y-14844758D02*
X13050634Y-14835234D01*
X13203015Y-15016186D02*
X13212539Y-15025710D01*
X13212539Y-15025710D02*
X13203015Y-15035234D01*
X13203015Y-15035234D02*
X13193491Y-15025710D01*
X13193491Y-15025710D02*
X13203015Y-15016186D01*
X13203015Y-15016186D02*
X13203015Y-15035234D01*
X13336348Y-14835234D02*
X13355396Y-14835234D01*
X13355396Y-14835234D02*
X13374444Y-14844758D01*
X13374444Y-14844758D02*
X13383967Y-14854281D01*
X13383967Y-14854281D02*
X13393491Y-14873329D01*
X13393491Y-14873329D02*
X13403015Y-14911424D01*
X13403015Y-14911424D02*
X13403015Y-14959043D01*
X13403015Y-14959043D02*
X13393491Y-14997138D01*
X13393491Y-14997138D02*
X13383967Y-15016186D01*
X13383967Y-15016186D02*
X13374444Y-15025710D01*
X13374444Y-15025710D02*
X13355396Y-15035234D01*
X13355396Y-15035234D02*
X13336348Y-15035234D01*
X13336348Y-15035234D02*
X13317301Y-15025710D01*
X13317301Y-15025710D02*
X13307777Y-15016186D01*
X13307777Y-15016186D02*
X13298253Y-14997138D01*
X13298253Y-14997138D02*
X13288729Y-14959043D01*
X13288729Y-14959043D02*
X13288729Y-14911424D01*
X13288729Y-14911424D02*
X13298253Y-14873329D01*
X13298253Y-14873329D02*
X13307777Y-14854281D01*
X13307777Y-14854281D02*
X13317301Y-14844758D01*
X13317301Y-14844758D02*
X13336348Y-14835234D01*
X13593491Y-15035234D02*
X13479206Y-15035234D01*
X13536348Y-15035234D02*
X13536348Y-14835234D01*
X13536348Y-14835234D02*
X13517301Y-14863805D01*
X13517301Y-14863805D02*
X13498253Y-14882853D01*
X13498253Y-14882853D02*
X13479206Y-14892377D01*
X13774444Y-14835234D02*
X13679206Y-14835234D01*
X13679206Y-14835234D02*
X13669682Y-14930472D01*
X13669682Y-14930472D02*
X13679206Y-14920948D01*
X13679206Y-14920948D02*
X13698253Y-14911424D01*
X13698253Y-14911424D02*
X13745872Y-14911424D01*
X13745872Y-14911424D02*
X13764920Y-14920948D01*
X13764920Y-14920948D02*
X13774444Y-14930472D01*
X13774444Y-14930472D02*
X13783967Y-14949519D01*
X13783967Y-14949519D02*
X13783967Y-14997138D01*
X13783967Y-14997138D02*
X13774444Y-15016186D01*
X13774444Y-15016186D02*
X13764920Y-15025710D01*
X13764920Y-15025710D02*
X13745872Y-15035234D01*
X13745872Y-15035234D02*
X13698253Y-15035234D01*
X13698253Y-15035234D02*
X13679206Y-15025710D01*
X13679206Y-15025710D02*
X13669682Y-15016186D01*
X13850634Y-14835234D02*
X13983967Y-14835234D01*
X13983967Y-14835234D02*
X13898253Y-15035234D01*
X14050634Y-14835234D02*
X14050634Y-14873329D01*
X14126825Y-14835234D02*
X14126825Y-14873329D01*
X14422063Y-15111424D02*
X14412539Y-15101900D01*
X14412539Y-15101900D02*
X14393491Y-15073329D01*
X14393491Y-15073329D02*
X14383968Y-15054281D01*
X14383968Y-15054281D02*
X14374444Y-15025710D01*
X14374444Y-15025710D02*
X14364920Y-14978091D01*
X14364920Y-14978091D02*
X14364920Y-14939996D01*
X14364920Y-14939996D02*
X14374444Y-14892377D01*
X14374444Y-14892377D02*
X14383968Y-14863805D01*
X14383968Y-14863805D02*
X14393491Y-14844758D01*
X14393491Y-14844758D02*
X14412539Y-14816186D01*
X14412539Y-14816186D02*
X14422063Y-14806662D01*
X14583968Y-14835234D02*
X14545872Y-14835234D01*
X14545872Y-14835234D02*
X14526825Y-14844758D01*
X14526825Y-14844758D02*
X14517301Y-14854281D01*
X14517301Y-14854281D02*
X14498253Y-14882853D01*
X14498253Y-14882853D02*
X14488729Y-14920948D01*
X14488729Y-14920948D02*
X14488729Y-14997138D01*
X14488729Y-14997138D02*
X14498253Y-15016186D01*
X14498253Y-15016186D02*
X14507777Y-15025710D01*
X14507777Y-15025710D02*
X14526825Y-15035234D01*
X14526825Y-15035234D02*
X14564920Y-15035234D01*
X14564920Y-15035234D02*
X14583968Y-15025710D01*
X14583968Y-15025710D02*
X14593491Y-15016186D01*
X14593491Y-15016186D02*
X14603015Y-14997138D01*
X14603015Y-14997138D02*
X14603015Y-14949519D01*
X14603015Y-14949519D02*
X14593491Y-14930472D01*
X14593491Y-14930472D02*
X14583968Y-14920948D01*
X14583968Y-14920948D02*
X14564920Y-14911424D01*
X14564920Y-14911424D02*
X14526825Y-14911424D01*
X14526825Y-14911424D02*
X14507777Y-14920948D01*
X14507777Y-14920948D02*
X14498253Y-14930472D01*
X14498253Y-14930472D02*
X14488729Y-14949519D01*
X14669682Y-14835234D02*
X14793491Y-14835234D01*
X14793491Y-14835234D02*
X14726825Y-14911424D01*
X14726825Y-14911424D02*
X14755396Y-14911424D01*
X14755396Y-14911424D02*
X14774444Y-14920948D01*
X14774444Y-14920948D02*
X14783968Y-14930472D01*
X14783968Y-14930472D02*
X14793491Y-14949519D01*
X14793491Y-14949519D02*
X14793491Y-14997138D01*
X14793491Y-14997138D02*
X14783968Y-15016186D01*
X14783968Y-15016186D02*
X14774444Y-15025710D01*
X14774444Y-15025710D02*
X14755396Y-15035234D01*
X14755396Y-15035234D02*
X14698253Y-15035234D01*
X14698253Y-15035234D02*
X14679206Y-15025710D01*
X14679206Y-15025710D02*
X14669682Y-15016186D01*
X15031587Y-15035234D02*
X15031587Y-14835234D01*
X15117301Y-15035234D02*
X15117301Y-14930472D01*
X15117301Y-14930472D02*
X15107777Y-14911424D01*
X15107777Y-14911424D02*
X15088730Y-14901900D01*
X15088730Y-14901900D02*
X15060158Y-14901900D01*
X15060158Y-14901900D02*
X15041110Y-14911424D01*
X15041110Y-14911424D02*
X15031587Y-14920948D01*
X15241110Y-15035234D02*
X15222063Y-15025710D01*
X15222063Y-15025710D02*
X15212539Y-15016186D01*
X15212539Y-15016186D02*
X15203015Y-14997138D01*
X15203015Y-14997138D02*
X15203015Y-14939996D01*
X15203015Y-14939996D02*
X15212539Y-14920948D01*
X15212539Y-14920948D02*
X15222063Y-14911424D01*
X15222063Y-14911424D02*
X15241110Y-14901900D01*
X15241110Y-14901900D02*
X15269682Y-14901900D01*
X15269682Y-14901900D02*
X15288730Y-14911424D01*
X15288730Y-14911424D02*
X15298253Y-14920948D01*
X15298253Y-14920948D02*
X15307777Y-14939996D01*
X15307777Y-14939996D02*
X15307777Y-14997138D01*
X15307777Y-14997138D02*
X15298253Y-15016186D01*
X15298253Y-15016186D02*
X15288730Y-15025710D01*
X15288730Y-15025710D02*
X15269682Y-15035234D01*
X15269682Y-15035234D02*
X15241110Y-15035234D01*
X15422063Y-15035234D02*
X15403015Y-15025710D01*
X15403015Y-15025710D02*
X15393491Y-15006662D01*
X15393491Y-15006662D02*
X15393491Y-14835234D01*
X15574444Y-15025710D02*
X15555396Y-15035234D01*
X15555396Y-15035234D02*
X15517301Y-15035234D01*
X15517301Y-15035234D02*
X15498253Y-15025710D01*
X15498253Y-15025710D02*
X15488730Y-15006662D01*
X15488730Y-15006662D02*
X15488730Y-14930472D01*
X15488730Y-14930472D02*
X15498253Y-14911424D01*
X15498253Y-14911424D02*
X15517301Y-14901900D01*
X15517301Y-14901900D02*
X15555396Y-14901900D01*
X15555396Y-14901900D02*
X15574444Y-14911424D01*
X15574444Y-14911424D02*
X15583968Y-14930472D01*
X15583968Y-14930472D02*
X15583968Y-14949519D01*
X15583968Y-14949519D02*
X15488730Y-14968567D01*
X15660158Y-15025710D02*
X15679206Y-15035234D01*
X15679206Y-15035234D02*
X15717301Y-15035234D01*
X15717301Y-15035234D02*
X15736349Y-15025710D01*
X15736349Y-15025710D02*
X15745872Y-15006662D01*
X15745872Y-15006662D02*
X15745872Y-14997138D01*
X15745872Y-14997138D02*
X15736349Y-14978091D01*
X15736349Y-14978091D02*
X15717301Y-14968567D01*
X15717301Y-14968567D02*
X15688730Y-14968567D01*
X15688730Y-14968567D02*
X15669682Y-14959043D01*
X15669682Y-14959043D02*
X15660158Y-14939996D01*
X15660158Y-14939996D02*
X15660158Y-14930472D01*
X15660158Y-14930472D02*
X15669682Y-14911424D01*
X15669682Y-14911424D02*
X15688730Y-14901900D01*
X15688730Y-14901900D02*
X15717301Y-14901900D01*
X15717301Y-14901900D02*
X15736349Y-14911424D01*
X15812539Y-15111424D02*
X15822063Y-15101900D01*
X15822063Y-15101900D02*
X15841111Y-15073329D01*
X15841111Y-15073329D02*
X15850634Y-15054281D01*
X15850634Y-15054281D02*
X15860158Y-15025710D01*
X15860158Y-15025710D02*
X15869682Y-14978091D01*
X15869682Y-14978091D02*
X15869682Y-14939996D01*
X15869682Y-14939996D02*
X15860158Y-14892377D01*
X15860158Y-14892377D02*
X15850634Y-14863805D01*
X15850634Y-14863805D02*
X15841111Y-14844758D01*
X15841111Y-14844758D02*
X15822063Y-14816186D01*
X15822063Y-14816186D02*
X15812539Y-14806662D01*
D14*
X10822000Y-15182750D02*
X10822000Y-15232750D01*
X10797000Y-15207750D02*
X10847000Y-15207750D01*
D11*
X11145872Y-15099234D02*
X11164920Y-15099234D01*
X11164920Y-15099234D02*
X11183967Y-15108758D01*
X11183967Y-15108758D02*
X11193491Y-15118281D01*
X11193491Y-15118281D02*
X11203015Y-15137329D01*
X11203015Y-15137329D02*
X11212539Y-15175424D01*
X11212539Y-15175424D02*
X11212539Y-15223043D01*
X11212539Y-15223043D02*
X11203015Y-15261138D01*
X11203015Y-15261138D02*
X11193491Y-15280186D01*
X11193491Y-15280186D02*
X11183967Y-15289710D01*
X11183967Y-15289710D02*
X11164920Y-15299234D01*
X11164920Y-15299234D02*
X11145872Y-15299234D01*
X11145872Y-15299234D02*
X11126824Y-15289710D01*
X11126824Y-15289710D02*
X11117301Y-15280186D01*
X11117301Y-15280186D02*
X11107777Y-15261138D01*
X11107777Y-15261138D02*
X11098253Y-15223043D01*
X11098253Y-15223043D02*
X11098253Y-15175424D01*
X11098253Y-15175424D02*
X11107777Y-15137329D01*
X11107777Y-15137329D02*
X11117301Y-15118281D01*
X11117301Y-15118281D02*
X11126824Y-15108758D01*
X11126824Y-15108758D02*
X11145872Y-15099234D01*
X11298253Y-15280186D02*
X11307777Y-15289710D01*
X11307777Y-15289710D02*
X11298253Y-15299234D01*
X11298253Y-15299234D02*
X11288729Y-15289710D01*
X11288729Y-15289710D02*
X11298253Y-15280186D01*
X11298253Y-15280186D02*
X11298253Y-15299234D01*
X11488729Y-15099234D02*
X11393491Y-15099234D01*
X11393491Y-15099234D02*
X11383967Y-15194472D01*
X11383967Y-15194472D02*
X11393491Y-15184948D01*
X11393491Y-15184948D02*
X11412539Y-15175424D01*
X11412539Y-15175424D02*
X11460158Y-15175424D01*
X11460158Y-15175424D02*
X11479205Y-15184948D01*
X11479205Y-15184948D02*
X11488729Y-15194472D01*
X11488729Y-15194472D02*
X11498253Y-15213519D01*
X11498253Y-15213519D02*
X11498253Y-15261138D01*
X11498253Y-15261138D02*
X11488729Y-15280186D01*
X11488729Y-15280186D02*
X11479205Y-15289710D01*
X11479205Y-15289710D02*
X11460158Y-15299234D01*
X11460158Y-15299234D02*
X11412539Y-15299234D01*
X11412539Y-15299234D02*
X11393491Y-15289710D01*
X11393491Y-15289710D02*
X11383967Y-15280186D01*
X11622062Y-15099234D02*
X11641110Y-15099234D01*
X11641110Y-15099234D02*
X11660158Y-15108758D01*
X11660158Y-15108758D02*
X11669682Y-15118281D01*
X11669682Y-15118281D02*
X11679205Y-15137329D01*
X11679205Y-15137329D02*
X11688729Y-15175424D01*
X11688729Y-15175424D02*
X11688729Y-15223043D01*
X11688729Y-15223043D02*
X11679205Y-15261138D01*
X11679205Y-15261138D02*
X11669682Y-15280186D01*
X11669682Y-15280186D02*
X11660158Y-15289710D01*
X11660158Y-15289710D02*
X11641110Y-15299234D01*
X11641110Y-15299234D02*
X11622062Y-15299234D01*
X11622062Y-15299234D02*
X11603015Y-15289710D01*
X11603015Y-15289710D02*
X11593491Y-15280186D01*
X11593491Y-15280186D02*
X11583967Y-15261138D01*
X11583967Y-15261138D02*
X11574443Y-15223043D01*
X11574443Y-15223043D02*
X11574443Y-15175424D01*
X11574443Y-15175424D02*
X11583967Y-15137329D01*
X11583967Y-15137329D02*
X11593491Y-15118281D01*
X11593491Y-15118281D02*
X11603015Y-15108758D01*
X11603015Y-15108758D02*
X11622062Y-15099234D01*
X11812539Y-15099234D02*
X11831586Y-15099234D01*
X11831586Y-15099234D02*
X11850634Y-15108758D01*
X11850634Y-15108758D02*
X11860158Y-15118281D01*
X11860158Y-15118281D02*
X11869682Y-15137329D01*
X11869682Y-15137329D02*
X11879205Y-15175424D01*
X11879205Y-15175424D02*
X11879205Y-15223043D01*
X11879205Y-15223043D02*
X11869682Y-15261138D01*
X11869682Y-15261138D02*
X11860158Y-15280186D01*
X11860158Y-15280186D02*
X11850634Y-15289710D01*
X11850634Y-15289710D02*
X11831586Y-15299234D01*
X11831586Y-15299234D02*
X11812539Y-15299234D01*
X11812539Y-15299234D02*
X11793491Y-15289710D01*
X11793491Y-15289710D02*
X11783967Y-15280186D01*
X11783967Y-15280186D02*
X11774443Y-15261138D01*
X11774443Y-15261138D02*
X11764920Y-15223043D01*
X11764920Y-15223043D02*
X11764920Y-15175424D01*
X11764920Y-15175424D02*
X11774443Y-15137329D01*
X11774443Y-15137329D02*
X11783967Y-15118281D01*
X11783967Y-15118281D02*
X11793491Y-15108758D01*
X11793491Y-15108758D02*
X11812539Y-15099234D01*
X11964920Y-15299234D02*
X11964920Y-15165900D01*
X11964920Y-15184948D02*
X11974443Y-15175424D01*
X11974443Y-15175424D02*
X11993491Y-15165900D01*
X11993491Y-15165900D02*
X12022063Y-15165900D01*
X12022063Y-15165900D02*
X12041110Y-15175424D01*
X12041110Y-15175424D02*
X12050634Y-15194472D01*
X12050634Y-15194472D02*
X12050634Y-15299234D01*
X12050634Y-15194472D02*
X12060158Y-15175424D01*
X12060158Y-15175424D02*
X12079205Y-15165900D01*
X12079205Y-15165900D02*
X12107777Y-15165900D01*
X12107777Y-15165900D02*
X12126824Y-15175424D01*
X12126824Y-15175424D02*
X12136348Y-15194472D01*
X12136348Y-15194472D02*
X12136348Y-15299234D01*
X12231586Y-15299234D02*
X12231586Y-15165900D01*
X12231586Y-15184948D02*
X12241110Y-15175424D01*
X12241110Y-15175424D02*
X12260158Y-15165900D01*
X12260158Y-15165900D02*
X12288729Y-15165900D01*
X12288729Y-15165900D02*
X12307777Y-15175424D01*
X12307777Y-15175424D02*
X12317301Y-15194472D01*
X12317301Y-15194472D02*
X12317301Y-15299234D01*
X12317301Y-15194472D02*
X12326824Y-15175424D01*
X12326824Y-15175424D02*
X12345872Y-15165900D01*
X12345872Y-15165900D02*
X12374443Y-15165900D01*
X12374443Y-15165900D02*
X12393491Y-15175424D01*
X12393491Y-15175424D02*
X12403015Y-15194472D01*
X12403015Y-15194472D02*
X12403015Y-15299234D01*
X12793491Y-15089710D02*
X12622063Y-15346853D01*
X13050634Y-15099234D02*
X13069682Y-15099234D01*
X13069682Y-15099234D02*
X13088729Y-15108758D01*
X13088729Y-15108758D02*
X13098253Y-15118281D01*
X13098253Y-15118281D02*
X13107777Y-15137329D01*
X13107777Y-15137329D02*
X13117301Y-15175424D01*
X13117301Y-15175424D02*
X13117301Y-15223043D01*
X13117301Y-15223043D02*
X13107777Y-15261138D01*
X13107777Y-15261138D02*
X13098253Y-15280186D01*
X13098253Y-15280186D02*
X13088729Y-15289710D01*
X13088729Y-15289710D02*
X13069682Y-15299234D01*
X13069682Y-15299234D02*
X13050634Y-15299234D01*
X13050634Y-15299234D02*
X13031586Y-15289710D01*
X13031586Y-15289710D02*
X13022063Y-15280186D01*
X13022063Y-15280186D02*
X13012539Y-15261138D01*
X13012539Y-15261138D02*
X13003015Y-15223043D01*
X13003015Y-15223043D02*
X13003015Y-15175424D01*
X13003015Y-15175424D02*
X13012539Y-15137329D01*
X13012539Y-15137329D02*
X13022063Y-15118281D01*
X13022063Y-15118281D02*
X13031586Y-15108758D01*
X13031586Y-15108758D02*
X13050634Y-15099234D01*
X13203015Y-15280186D02*
X13212539Y-15289710D01*
X13212539Y-15289710D02*
X13203015Y-15299234D01*
X13203015Y-15299234D02*
X13193491Y-15289710D01*
X13193491Y-15289710D02*
X13203015Y-15280186D01*
X13203015Y-15280186D02*
X13203015Y-15299234D01*
X13336348Y-15099234D02*
X13355396Y-15099234D01*
X13355396Y-15099234D02*
X13374444Y-15108758D01*
X13374444Y-15108758D02*
X13383967Y-15118281D01*
X13383967Y-15118281D02*
X13393491Y-15137329D01*
X13393491Y-15137329D02*
X13403015Y-15175424D01*
X13403015Y-15175424D02*
X13403015Y-15223043D01*
X13403015Y-15223043D02*
X13393491Y-15261138D01*
X13393491Y-15261138D02*
X13383967Y-15280186D01*
X13383967Y-15280186D02*
X13374444Y-15289710D01*
X13374444Y-15289710D02*
X13355396Y-15299234D01*
X13355396Y-15299234D02*
X13336348Y-15299234D01*
X13336348Y-15299234D02*
X13317301Y-15289710D01*
X13317301Y-15289710D02*
X13307777Y-15280186D01*
X13307777Y-15280186D02*
X13298253Y-15261138D01*
X13298253Y-15261138D02*
X13288729Y-15223043D01*
X13288729Y-15223043D02*
X13288729Y-15175424D01*
X13288729Y-15175424D02*
X13298253Y-15137329D01*
X13298253Y-15137329D02*
X13307777Y-15118281D01*
X13307777Y-15118281D02*
X13317301Y-15108758D01*
X13317301Y-15108758D02*
X13336348Y-15099234D01*
X13593491Y-15299234D02*
X13479206Y-15299234D01*
X13536348Y-15299234D02*
X13536348Y-15099234D01*
X13536348Y-15099234D02*
X13517301Y-15127805D01*
X13517301Y-15127805D02*
X13498253Y-15146853D01*
X13498253Y-15146853D02*
X13479206Y-15156377D01*
X13688729Y-15299234D02*
X13726825Y-15299234D01*
X13726825Y-15299234D02*
X13745872Y-15289710D01*
X13745872Y-15289710D02*
X13755396Y-15280186D01*
X13755396Y-15280186D02*
X13774444Y-15251615D01*
X13774444Y-15251615D02*
X13783967Y-15213519D01*
X13783967Y-15213519D02*
X13783967Y-15137329D01*
X13783967Y-15137329D02*
X13774444Y-15118281D01*
X13774444Y-15118281D02*
X13764920Y-15108758D01*
X13764920Y-15108758D02*
X13745872Y-15099234D01*
X13745872Y-15099234D02*
X13707777Y-15099234D01*
X13707777Y-15099234D02*
X13688729Y-15108758D01*
X13688729Y-15108758D02*
X13679206Y-15118281D01*
X13679206Y-15118281D02*
X13669682Y-15137329D01*
X13669682Y-15137329D02*
X13669682Y-15184948D01*
X13669682Y-15184948D02*
X13679206Y-15203996D01*
X13679206Y-15203996D02*
X13688729Y-15213519D01*
X13688729Y-15213519D02*
X13707777Y-15223043D01*
X13707777Y-15223043D02*
X13745872Y-15223043D01*
X13745872Y-15223043D02*
X13764920Y-15213519D01*
X13764920Y-15213519D02*
X13774444Y-15203996D01*
X13774444Y-15203996D02*
X13783967Y-15184948D01*
X13850634Y-15099234D02*
X13983967Y-15099234D01*
X13983967Y-15099234D02*
X13898253Y-15299234D01*
X14050634Y-15099234D02*
X14050634Y-15137329D01*
X14126825Y-15099234D02*
X14126825Y-15137329D01*
X14422063Y-15375424D02*
X14412539Y-15365900D01*
X14412539Y-15365900D02*
X14393491Y-15337329D01*
X14393491Y-15337329D02*
X14383968Y-15318281D01*
X14383968Y-15318281D02*
X14374444Y-15289710D01*
X14374444Y-15289710D02*
X14364920Y-15242091D01*
X14364920Y-15242091D02*
X14364920Y-15203996D01*
X14364920Y-15203996D02*
X14374444Y-15156377D01*
X14374444Y-15156377D02*
X14383968Y-15127805D01*
X14383968Y-15127805D02*
X14393491Y-15108758D01*
X14393491Y-15108758D02*
X14412539Y-15080186D01*
X14412539Y-15080186D02*
X14422063Y-15070662D01*
X14593491Y-15099234D02*
X14498253Y-15099234D01*
X14498253Y-15099234D02*
X14488729Y-15194472D01*
X14488729Y-15194472D02*
X14498253Y-15184948D01*
X14498253Y-15184948D02*
X14517301Y-15175424D01*
X14517301Y-15175424D02*
X14564920Y-15175424D01*
X14564920Y-15175424D02*
X14583968Y-15184948D01*
X14583968Y-15184948D02*
X14593491Y-15194472D01*
X14593491Y-15194472D02*
X14603015Y-15213519D01*
X14603015Y-15213519D02*
X14603015Y-15261138D01*
X14603015Y-15261138D02*
X14593491Y-15280186D01*
X14593491Y-15280186D02*
X14583968Y-15289710D01*
X14583968Y-15289710D02*
X14564920Y-15299234D01*
X14564920Y-15299234D02*
X14517301Y-15299234D01*
X14517301Y-15299234D02*
X14498253Y-15289710D01*
X14498253Y-15289710D02*
X14488729Y-15280186D01*
X14774444Y-15165900D02*
X14774444Y-15299234D01*
X14726825Y-15089710D02*
X14679206Y-15232567D01*
X14679206Y-15232567D02*
X14803015Y-15232567D01*
X15031587Y-15299234D02*
X15031587Y-15099234D01*
X15117301Y-15299234D02*
X15117301Y-15194472D01*
X15117301Y-15194472D02*
X15107777Y-15175424D01*
X15107777Y-15175424D02*
X15088730Y-15165900D01*
X15088730Y-15165900D02*
X15060158Y-15165900D01*
X15060158Y-15165900D02*
X15041110Y-15175424D01*
X15041110Y-15175424D02*
X15031587Y-15184948D01*
X15241110Y-15299234D02*
X15222063Y-15289710D01*
X15222063Y-15289710D02*
X15212539Y-15280186D01*
X15212539Y-15280186D02*
X15203015Y-15261138D01*
X15203015Y-15261138D02*
X15203015Y-15203996D01*
X15203015Y-15203996D02*
X15212539Y-15184948D01*
X15212539Y-15184948D02*
X15222063Y-15175424D01*
X15222063Y-15175424D02*
X15241110Y-15165900D01*
X15241110Y-15165900D02*
X15269682Y-15165900D01*
X15269682Y-15165900D02*
X15288730Y-15175424D01*
X15288730Y-15175424D02*
X15298253Y-15184948D01*
X15298253Y-15184948D02*
X15307777Y-15203996D01*
X15307777Y-15203996D02*
X15307777Y-15261138D01*
X15307777Y-15261138D02*
X15298253Y-15280186D01*
X15298253Y-15280186D02*
X15288730Y-15289710D01*
X15288730Y-15289710D02*
X15269682Y-15299234D01*
X15269682Y-15299234D02*
X15241110Y-15299234D01*
X15422063Y-15299234D02*
X15403015Y-15289710D01*
X15403015Y-15289710D02*
X15393491Y-15270662D01*
X15393491Y-15270662D02*
X15393491Y-15099234D01*
X15574444Y-15289710D02*
X15555396Y-15299234D01*
X15555396Y-15299234D02*
X15517301Y-15299234D01*
X15517301Y-15299234D02*
X15498253Y-15289710D01*
X15498253Y-15289710D02*
X15488730Y-15270662D01*
X15488730Y-15270662D02*
X15488730Y-15194472D01*
X15488730Y-15194472D02*
X15498253Y-15175424D01*
X15498253Y-15175424D02*
X15517301Y-15165900D01*
X15517301Y-15165900D02*
X15555396Y-15165900D01*
X15555396Y-15165900D02*
X15574444Y-15175424D01*
X15574444Y-15175424D02*
X15583968Y-15194472D01*
X15583968Y-15194472D02*
X15583968Y-15213519D01*
X15583968Y-15213519D02*
X15488730Y-15232567D01*
X15660158Y-15289710D02*
X15679206Y-15299234D01*
X15679206Y-15299234D02*
X15717301Y-15299234D01*
X15717301Y-15299234D02*
X15736349Y-15289710D01*
X15736349Y-15289710D02*
X15745872Y-15270662D01*
X15745872Y-15270662D02*
X15745872Y-15261138D01*
X15745872Y-15261138D02*
X15736349Y-15242091D01*
X15736349Y-15242091D02*
X15717301Y-15232567D01*
X15717301Y-15232567D02*
X15688730Y-15232567D01*
X15688730Y-15232567D02*
X15669682Y-15223043D01*
X15669682Y-15223043D02*
X15660158Y-15203996D01*
X15660158Y-15203996D02*
X15660158Y-15194472D01*
X15660158Y-15194472D02*
X15669682Y-15175424D01*
X15669682Y-15175424D02*
X15688730Y-15165900D01*
X15688730Y-15165900D02*
X15717301Y-15165900D01*
X15717301Y-15165900D02*
X15736349Y-15175424D01*
X15812539Y-15375424D02*
X15822063Y-15365900D01*
X15822063Y-15365900D02*
X15841111Y-15337329D01*
X15841111Y-15337329D02*
X15850634Y-15318281D01*
X15850634Y-15318281D02*
X15860158Y-15289710D01*
X15860158Y-15289710D02*
X15869682Y-15242091D01*
X15869682Y-15242091D02*
X15869682Y-15203996D01*
X15869682Y-15203996D02*
X15860158Y-15156377D01*
X15860158Y-15156377D02*
X15850634Y-15127805D01*
X15850634Y-15127805D02*
X15841111Y-15108758D01*
X15841111Y-15108758D02*
X15822063Y-15080186D01*
X15822063Y-15080186D02*
X15812539Y-15070662D01*
D15*
X10836749Y-15496499D02*
X10836749Y-15447001D01*
X10787251Y-15447001D01*
X10787251Y-15496499D01*
X10836749Y-15496499D01*
D11*
X11145872Y-15363234D02*
X11164920Y-15363234D01*
X11164920Y-15363234D02*
X11183967Y-15372758D01*
X11183967Y-15372758D02*
X11193491Y-15382281D01*
X11193491Y-15382281D02*
X11203015Y-15401329D01*
X11203015Y-15401329D02*
X11212539Y-15439424D01*
X11212539Y-15439424D02*
X11212539Y-15487043D01*
X11212539Y-15487043D02*
X11203015Y-15525138D01*
X11203015Y-15525138D02*
X11193491Y-15544186D01*
X11193491Y-15544186D02*
X11183967Y-15553710D01*
X11183967Y-15553710D02*
X11164920Y-15563234D01*
X11164920Y-15563234D02*
X11145872Y-15563234D01*
X11145872Y-15563234D02*
X11126824Y-15553710D01*
X11126824Y-15553710D02*
X11117301Y-15544186D01*
X11117301Y-15544186D02*
X11107777Y-15525138D01*
X11107777Y-15525138D02*
X11098253Y-15487043D01*
X11098253Y-15487043D02*
X11098253Y-15439424D01*
X11098253Y-15439424D02*
X11107777Y-15401329D01*
X11107777Y-15401329D02*
X11117301Y-15382281D01*
X11117301Y-15382281D02*
X11126824Y-15372758D01*
X11126824Y-15372758D02*
X11145872Y-15363234D01*
X11298253Y-15544186D02*
X11307777Y-15553710D01*
X11307777Y-15553710D02*
X11298253Y-15563234D01*
X11298253Y-15563234D02*
X11288729Y-15553710D01*
X11288729Y-15553710D02*
X11298253Y-15544186D01*
X11298253Y-15544186D02*
X11298253Y-15563234D01*
X11374443Y-15363234D02*
X11507777Y-15363234D01*
X11507777Y-15363234D02*
X11422062Y-15563234D01*
X11622062Y-15363234D02*
X11641110Y-15363234D01*
X11641110Y-15363234D02*
X11660158Y-15372758D01*
X11660158Y-15372758D02*
X11669682Y-15382281D01*
X11669682Y-15382281D02*
X11679205Y-15401329D01*
X11679205Y-15401329D02*
X11688729Y-15439424D01*
X11688729Y-15439424D02*
X11688729Y-15487043D01*
X11688729Y-15487043D02*
X11679205Y-15525138D01*
X11679205Y-15525138D02*
X11669682Y-15544186D01*
X11669682Y-15544186D02*
X11660158Y-15553710D01*
X11660158Y-15553710D02*
X11641110Y-15563234D01*
X11641110Y-15563234D02*
X11622062Y-15563234D01*
X11622062Y-15563234D02*
X11603015Y-15553710D01*
X11603015Y-15553710D02*
X11593491Y-15544186D01*
X11593491Y-15544186D02*
X11583967Y-15525138D01*
X11583967Y-15525138D02*
X11574443Y-15487043D01*
X11574443Y-15487043D02*
X11574443Y-15439424D01*
X11574443Y-15439424D02*
X11583967Y-15401329D01*
X11583967Y-15401329D02*
X11593491Y-15382281D01*
X11593491Y-15382281D02*
X11603015Y-15372758D01*
X11603015Y-15372758D02*
X11622062Y-15363234D01*
X11812539Y-15363234D02*
X11831586Y-15363234D01*
X11831586Y-15363234D02*
X11850634Y-15372758D01*
X11850634Y-15372758D02*
X11860158Y-15382281D01*
X11860158Y-15382281D02*
X11869682Y-15401329D01*
X11869682Y-15401329D02*
X11879205Y-15439424D01*
X11879205Y-15439424D02*
X11879205Y-15487043D01*
X11879205Y-15487043D02*
X11869682Y-15525138D01*
X11869682Y-15525138D02*
X11860158Y-15544186D01*
X11860158Y-15544186D02*
X11850634Y-15553710D01*
X11850634Y-15553710D02*
X11831586Y-15563234D01*
X11831586Y-15563234D02*
X11812539Y-15563234D01*
X11812539Y-15563234D02*
X11793491Y-15553710D01*
X11793491Y-15553710D02*
X11783967Y-15544186D01*
X11783967Y-15544186D02*
X11774443Y-15525138D01*
X11774443Y-15525138D02*
X11764920Y-15487043D01*
X11764920Y-15487043D02*
X11764920Y-15439424D01*
X11764920Y-15439424D02*
X11774443Y-15401329D01*
X11774443Y-15401329D02*
X11783967Y-15382281D01*
X11783967Y-15382281D02*
X11793491Y-15372758D01*
X11793491Y-15372758D02*
X11812539Y-15363234D01*
X11964920Y-15563234D02*
X11964920Y-15429900D01*
X11964920Y-15448948D02*
X11974443Y-15439424D01*
X11974443Y-15439424D02*
X11993491Y-15429900D01*
X11993491Y-15429900D02*
X12022063Y-15429900D01*
X12022063Y-15429900D02*
X12041110Y-15439424D01*
X12041110Y-15439424D02*
X12050634Y-15458472D01*
X12050634Y-15458472D02*
X12050634Y-15563234D01*
X12050634Y-15458472D02*
X12060158Y-15439424D01*
X12060158Y-15439424D02*
X12079205Y-15429900D01*
X12079205Y-15429900D02*
X12107777Y-15429900D01*
X12107777Y-15429900D02*
X12126824Y-15439424D01*
X12126824Y-15439424D02*
X12136348Y-15458472D01*
X12136348Y-15458472D02*
X12136348Y-15563234D01*
X12231586Y-15563234D02*
X12231586Y-15429900D01*
X12231586Y-15448948D02*
X12241110Y-15439424D01*
X12241110Y-15439424D02*
X12260158Y-15429900D01*
X12260158Y-15429900D02*
X12288729Y-15429900D01*
X12288729Y-15429900D02*
X12307777Y-15439424D01*
X12307777Y-15439424D02*
X12317301Y-15458472D01*
X12317301Y-15458472D02*
X12317301Y-15563234D01*
X12317301Y-15458472D02*
X12326824Y-15439424D01*
X12326824Y-15439424D02*
X12345872Y-15429900D01*
X12345872Y-15429900D02*
X12374443Y-15429900D01*
X12374443Y-15429900D02*
X12393491Y-15439424D01*
X12393491Y-15439424D02*
X12403015Y-15458472D01*
X12403015Y-15458472D02*
X12403015Y-15563234D01*
X12793491Y-15353710D02*
X12622063Y-15610853D01*
X13050634Y-15363234D02*
X13069682Y-15363234D01*
X13069682Y-15363234D02*
X13088729Y-15372758D01*
X13088729Y-15372758D02*
X13098253Y-15382281D01*
X13098253Y-15382281D02*
X13107777Y-15401329D01*
X13107777Y-15401329D02*
X13117301Y-15439424D01*
X13117301Y-15439424D02*
X13117301Y-15487043D01*
X13117301Y-15487043D02*
X13107777Y-15525138D01*
X13107777Y-15525138D02*
X13098253Y-15544186D01*
X13098253Y-15544186D02*
X13088729Y-15553710D01*
X13088729Y-15553710D02*
X13069682Y-15563234D01*
X13069682Y-15563234D02*
X13050634Y-15563234D01*
X13050634Y-15563234D02*
X13031586Y-15553710D01*
X13031586Y-15553710D02*
X13022063Y-15544186D01*
X13022063Y-15544186D02*
X13012539Y-15525138D01*
X13012539Y-15525138D02*
X13003015Y-15487043D01*
X13003015Y-15487043D02*
X13003015Y-15439424D01*
X13003015Y-15439424D02*
X13012539Y-15401329D01*
X13012539Y-15401329D02*
X13022063Y-15382281D01*
X13022063Y-15382281D02*
X13031586Y-15372758D01*
X13031586Y-15372758D02*
X13050634Y-15363234D01*
X13203015Y-15544186D02*
X13212539Y-15553710D01*
X13212539Y-15553710D02*
X13203015Y-15563234D01*
X13203015Y-15563234D02*
X13193491Y-15553710D01*
X13193491Y-15553710D02*
X13203015Y-15544186D01*
X13203015Y-15544186D02*
X13203015Y-15563234D01*
X13336348Y-15363234D02*
X13355396Y-15363234D01*
X13355396Y-15363234D02*
X13374444Y-15372758D01*
X13374444Y-15372758D02*
X13383967Y-15382281D01*
X13383967Y-15382281D02*
X13393491Y-15401329D01*
X13393491Y-15401329D02*
X13403015Y-15439424D01*
X13403015Y-15439424D02*
X13403015Y-15487043D01*
X13403015Y-15487043D02*
X13393491Y-15525138D01*
X13393491Y-15525138D02*
X13383967Y-15544186D01*
X13383967Y-15544186D02*
X13374444Y-15553710D01*
X13374444Y-15553710D02*
X13355396Y-15563234D01*
X13355396Y-15563234D02*
X13336348Y-15563234D01*
X13336348Y-15563234D02*
X13317301Y-15553710D01*
X13317301Y-15553710D02*
X13307777Y-15544186D01*
X13307777Y-15544186D02*
X13298253Y-15525138D01*
X13298253Y-15525138D02*
X13288729Y-15487043D01*
X13288729Y-15487043D02*
X13288729Y-15439424D01*
X13288729Y-15439424D02*
X13298253Y-15401329D01*
X13298253Y-15401329D02*
X13307777Y-15382281D01*
X13307777Y-15382281D02*
X13317301Y-15372758D01*
X13317301Y-15372758D02*
X13336348Y-15363234D01*
X13479206Y-15382281D02*
X13488729Y-15372758D01*
X13488729Y-15372758D02*
X13507777Y-15363234D01*
X13507777Y-15363234D02*
X13555396Y-15363234D01*
X13555396Y-15363234D02*
X13574444Y-15372758D01*
X13574444Y-15372758D02*
X13583967Y-15382281D01*
X13583967Y-15382281D02*
X13593491Y-15401329D01*
X13593491Y-15401329D02*
X13593491Y-15420377D01*
X13593491Y-15420377D02*
X13583967Y-15448948D01*
X13583967Y-15448948D02*
X13469682Y-15563234D01*
X13469682Y-15563234D02*
X13593491Y-15563234D01*
X13660158Y-15363234D02*
X13793491Y-15363234D01*
X13793491Y-15363234D02*
X13707777Y-15563234D01*
X13955396Y-15363234D02*
X13917301Y-15363234D01*
X13917301Y-15363234D02*
X13898253Y-15372758D01*
X13898253Y-15372758D02*
X13888729Y-15382281D01*
X13888729Y-15382281D02*
X13869682Y-15410853D01*
X13869682Y-15410853D02*
X13860158Y-15448948D01*
X13860158Y-15448948D02*
X13860158Y-15525138D01*
X13860158Y-15525138D02*
X13869682Y-15544186D01*
X13869682Y-15544186D02*
X13879206Y-15553710D01*
X13879206Y-15553710D02*
X13898253Y-15563234D01*
X13898253Y-15563234D02*
X13936348Y-15563234D01*
X13936348Y-15563234D02*
X13955396Y-15553710D01*
X13955396Y-15553710D02*
X13964920Y-15544186D01*
X13964920Y-15544186D02*
X13974444Y-15525138D01*
X13974444Y-15525138D02*
X13974444Y-15477519D01*
X13974444Y-15477519D02*
X13964920Y-15458472D01*
X13964920Y-15458472D02*
X13955396Y-15448948D01*
X13955396Y-15448948D02*
X13936348Y-15439424D01*
X13936348Y-15439424D02*
X13898253Y-15439424D01*
X13898253Y-15439424D02*
X13879206Y-15448948D01*
X13879206Y-15448948D02*
X13869682Y-15458472D01*
X13869682Y-15458472D02*
X13860158Y-15477519D01*
X14050634Y-15363234D02*
X14050634Y-15401329D01*
X14126825Y-15363234D02*
X14126825Y-15401329D01*
X14422063Y-15639424D02*
X14412539Y-15629900D01*
X14412539Y-15629900D02*
X14393491Y-15601329D01*
X14393491Y-15601329D02*
X14383968Y-15582281D01*
X14383968Y-15582281D02*
X14374444Y-15553710D01*
X14374444Y-15553710D02*
X14364920Y-15506091D01*
X14364920Y-15506091D02*
X14364920Y-15467996D01*
X14364920Y-15467996D02*
X14374444Y-15420377D01*
X14374444Y-15420377D02*
X14383968Y-15391805D01*
X14383968Y-15391805D02*
X14393491Y-15372758D01*
X14393491Y-15372758D02*
X14412539Y-15344186D01*
X14412539Y-15344186D02*
X14422063Y-15334662D01*
X14583968Y-15363234D02*
X14545872Y-15363234D01*
X14545872Y-15363234D02*
X14526825Y-15372758D01*
X14526825Y-15372758D02*
X14517301Y-15382281D01*
X14517301Y-15382281D02*
X14498253Y-15410853D01*
X14498253Y-15410853D02*
X14488729Y-15448948D01*
X14488729Y-15448948D02*
X14488729Y-15525138D01*
X14488729Y-15525138D02*
X14498253Y-15544186D01*
X14498253Y-15544186D02*
X14507777Y-15553710D01*
X14507777Y-15553710D02*
X14526825Y-15563234D01*
X14526825Y-15563234D02*
X14564920Y-15563234D01*
X14564920Y-15563234D02*
X14583968Y-15553710D01*
X14583968Y-15553710D02*
X14593491Y-15544186D01*
X14593491Y-15544186D02*
X14603015Y-15525138D01*
X14603015Y-15525138D02*
X14603015Y-15477519D01*
X14603015Y-15477519D02*
X14593491Y-15458472D01*
X14593491Y-15458472D02*
X14583968Y-15448948D01*
X14583968Y-15448948D02*
X14564920Y-15439424D01*
X14564920Y-15439424D02*
X14526825Y-15439424D01*
X14526825Y-15439424D02*
X14507777Y-15448948D01*
X14507777Y-15448948D02*
X14498253Y-15458472D01*
X14498253Y-15458472D02*
X14488729Y-15477519D01*
X14841110Y-15563234D02*
X14841110Y-15363234D01*
X14926825Y-15563234D02*
X14926825Y-15458472D01*
X14926825Y-15458472D02*
X14917301Y-15439424D01*
X14917301Y-15439424D02*
X14898253Y-15429900D01*
X14898253Y-15429900D02*
X14869682Y-15429900D01*
X14869682Y-15429900D02*
X14850634Y-15439424D01*
X14850634Y-15439424D02*
X14841110Y-15448948D01*
X15050634Y-15563234D02*
X15031587Y-15553710D01*
X15031587Y-15553710D02*
X15022063Y-15544186D01*
X15022063Y-15544186D02*
X15012539Y-15525138D01*
X15012539Y-15525138D02*
X15012539Y-15467996D01*
X15012539Y-15467996D02*
X15022063Y-15448948D01*
X15022063Y-15448948D02*
X15031587Y-15439424D01*
X15031587Y-15439424D02*
X15050634Y-15429900D01*
X15050634Y-15429900D02*
X15079206Y-15429900D01*
X15079206Y-15429900D02*
X15098253Y-15439424D01*
X15098253Y-15439424D02*
X15107777Y-15448948D01*
X15107777Y-15448948D02*
X15117301Y-15467996D01*
X15117301Y-15467996D02*
X15117301Y-15525138D01*
X15117301Y-15525138D02*
X15107777Y-15544186D01*
X15107777Y-15544186D02*
X15098253Y-15553710D01*
X15098253Y-15553710D02*
X15079206Y-15563234D01*
X15079206Y-15563234D02*
X15050634Y-15563234D01*
X15231587Y-15563234D02*
X15212539Y-15553710D01*
X15212539Y-15553710D02*
X15203015Y-15534662D01*
X15203015Y-15534662D02*
X15203015Y-15363234D01*
X15383968Y-15553710D02*
X15364920Y-15563234D01*
X15364920Y-15563234D02*
X15326825Y-15563234D01*
X15326825Y-15563234D02*
X15307777Y-15553710D01*
X15307777Y-15553710D02*
X15298253Y-15534662D01*
X15298253Y-15534662D02*
X15298253Y-15458472D01*
X15298253Y-15458472D02*
X15307777Y-15439424D01*
X15307777Y-15439424D02*
X15326825Y-15429900D01*
X15326825Y-15429900D02*
X15364920Y-15429900D01*
X15364920Y-15429900D02*
X15383968Y-15439424D01*
X15383968Y-15439424D02*
X15393491Y-15458472D01*
X15393491Y-15458472D02*
X15393491Y-15477519D01*
X15393491Y-15477519D02*
X15298253Y-15496567D01*
X15469682Y-15553710D02*
X15488730Y-15563234D01*
X15488730Y-15563234D02*
X15526825Y-15563234D01*
X15526825Y-15563234D02*
X15545872Y-15553710D01*
X15545872Y-15553710D02*
X15555396Y-15534662D01*
X15555396Y-15534662D02*
X15555396Y-15525138D01*
X15555396Y-15525138D02*
X15545872Y-15506091D01*
X15545872Y-15506091D02*
X15526825Y-15496567D01*
X15526825Y-15496567D02*
X15498253Y-15496567D01*
X15498253Y-15496567D02*
X15479206Y-15487043D01*
X15479206Y-15487043D02*
X15469682Y-15467996D01*
X15469682Y-15467996D02*
X15469682Y-15458472D01*
X15469682Y-15458472D02*
X15479206Y-15439424D01*
X15479206Y-15439424D02*
X15498253Y-15429900D01*
X15498253Y-15429900D02*
X15526825Y-15429900D01*
X15526825Y-15429900D02*
X15545872Y-15439424D01*
X15622063Y-15639424D02*
X15631587Y-15629900D01*
X15631587Y-15629900D02*
X15650634Y-15601329D01*
X15650634Y-15601329D02*
X15660158Y-15582281D01*
X15660158Y-15582281D02*
X15669682Y-15553710D01*
X15669682Y-15553710D02*
X15679206Y-15506091D01*
X15679206Y-15506091D02*
X15679206Y-15467996D01*
X15679206Y-15467996D02*
X15669682Y-15420377D01*
X15669682Y-15420377D02*
X15660158Y-15391805D01*
X15660158Y-15391805D02*
X15650634Y-15372758D01*
X15650634Y-15372758D02*
X15631587Y-15344186D01*
X15631587Y-15344186D02*
X15622063Y-15334662D01*
D16*
X10807000Y-15775750D02*
X10847000Y-15735750D01*
X10807000Y-15695750D01*
X10767000Y-15735750D01*
X10807000Y-15775750D01*
D11*
X11145872Y-15627234D02*
X11164920Y-15627234D01*
X11164920Y-15627234D02*
X11183967Y-15636758D01*
X11183967Y-15636758D02*
X11193491Y-15646281D01*
X11193491Y-15646281D02*
X11203015Y-15665329D01*
X11203015Y-15665329D02*
X11212539Y-15703424D01*
X11212539Y-15703424D02*
X11212539Y-15751043D01*
X11212539Y-15751043D02*
X11203015Y-15789138D01*
X11203015Y-15789138D02*
X11193491Y-15808186D01*
X11193491Y-15808186D02*
X11183967Y-15817710D01*
X11183967Y-15817710D02*
X11164920Y-15827234D01*
X11164920Y-15827234D02*
X11145872Y-15827234D01*
X11145872Y-15827234D02*
X11126824Y-15817710D01*
X11126824Y-15817710D02*
X11117301Y-15808186D01*
X11117301Y-15808186D02*
X11107777Y-15789138D01*
X11107777Y-15789138D02*
X11098253Y-15751043D01*
X11098253Y-15751043D02*
X11098253Y-15703424D01*
X11098253Y-15703424D02*
X11107777Y-15665329D01*
X11107777Y-15665329D02*
X11117301Y-15646281D01*
X11117301Y-15646281D02*
X11126824Y-15636758D01*
X11126824Y-15636758D02*
X11145872Y-15627234D01*
X11298253Y-15808186D02*
X11307777Y-15817710D01*
X11307777Y-15817710D02*
X11298253Y-15827234D01*
X11298253Y-15827234D02*
X11288729Y-15817710D01*
X11288729Y-15817710D02*
X11298253Y-15808186D01*
X11298253Y-15808186D02*
X11298253Y-15827234D01*
X11422062Y-15712948D02*
X11403015Y-15703424D01*
X11403015Y-15703424D02*
X11393491Y-15693900D01*
X11393491Y-15693900D02*
X11383967Y-15674853D01*
X11383967Y-15674853D02*
X11383967Y-15665329D01*
X11383967Y-15665329D02*
X11393491Y-15646281D01*
X11393491Y-15646281D02*
X11403015Y-15636758D01*
X11403015Y-15636758D02*
X11422062Y-15627234D01*
X11422062Y-15627234D02*
X11460158Y-15627234D01*
X11460158Y-15627234D02*
X11479205Y-15636758D01*
X11479205Y-15636758D02*
X11488729Y-15646281D01*
X11488729Y-15646281D02*
X11498253Y-15665329D01*
X11498253Y-15665329D02*
X11498253Y-15674853D01*
X11498253Y-15674853D02*
X11488729Y-15693900D01*
X11488729Y-15693900D02*
X11479205Y-15703424D01*
X11479205Y-15703424D02*
X11460158Y-15712948D01*
X11460158Y-15712948D02*
X11422062Y-15712948D01*
X11422062Y-15712948D02*
X11403015Y-15722472D01*
X11403015Y-15722472D02*
X11393491Y-15731996D01*
X11393491Y-15731996D02*
X11383967Y-15751043D01*
X11383967Y-15751043D02*
X11383967Y-15789138D01*
X11383967Y-15789138D02*
X11393491Y-15808186D01*
X11393491Y-15808186D02*
X11403015Y-15817710D01*
X11403015Y-15817710D02*
X11422062Y-15827234D01*
X11422062Y-15827234D02*
X11460158Y-15827234D01*
X11460158Y-15827234D02*
X11479205Y-15817710D01*
X11479205Y-15817710D02*
X11488729Y-15808186D01*
X11488729Y-15808186D02*
X11498253Y-15789138D01*
X11498253Y-15789138D02*
X11498253Y-15751043D01*
X11498253Y-15751043D02*
X11488729Y-15731996D01*
X11488729Y-15731996D02*
X11479205Y-15722472D01*
X11479205Y-15722472D02*
X11460158Y-15712948D01*
X11622062Y-15627234D02*
X11641110Y-15627234D01*
X11641110Y-15627234D02*
X11660158Y-15636758D01*
X11660158Y-15636758D02*
X11669682Y-15646281D01*
X11669682Y-15646281D02*
X11679205Y-15665329D01*
X11679205Y-15665329D02*
X11688729Y-15703424D01*
X11688729Y-15703424D02*
X11688729Y-15751043D01*
X11688729Y-15751043D02*
X11679205Y-15789138D01*
X11679205Y-15789138D02*
X11669682Y-15808186D01*
X11669682Y-15808186D02*
X11660158Y-15817710D01*
X11660158Y-15817710D02*
X11641110Y-15827234D01*
X11641110Y-15827234D02*
X11622062Y-15827234D01*
X11622062Y-15827234D02*
X11603015Y-15817710D01*
X11603015Y-15817710D02*
X11593491Y-15808186D01*
X11593491Y-15808186D02*
X11583967Y-15789138D01*
X11583967Y-15789138D02*
X11574443Y-15751043D01*
X11574443Y-15751043D02*
X11574443Y-15703424D01*
X11574443Y-15703424D02*
X11583967Y-15665329D01*
X11583967Y-15665329D02*
X11593491Y-15646281D01*
X11593491Y-15646281D02*
X11603015Y-15636758D01*
X11603015Y-15636758D02*
X11622062Y-15627234D01*
X11812539Y-15627234D02*
X11831586Y-15627234D01*
X11831586Y-15627234D02*
X11850634Y-15636758D01*
X11850634Y-15636758D02*
X11860158Y-15646281D01*
X11860158Y-15646281D02*
X11869682Y-15665329D01*
X11869682Y-15665329D02*
X11879205Y-15703424D01*
X11879205Y-15703424D02*
X11879205Y-15751043D01*
X11879205Y-15751043D02*
X11869682Y-15789138D01*
X11869682Y-15789138D02*
X11860158Y-15808186D01*
X11860158Y-15808186D02*
X11850634Y-15817710D01*
X11850634Y-15817710D02*
X11831586Y-15827234D01*
X11831586Y-15827234D02*
X11812539Y-15827234D01*
X11812539Y-15827234D02*
X11793491Y-15817710D01*
X11793491Y-15817710D02*
X11783967Y-15808186D01*
X11783967Y-15808186D02*
X11774443Y-15789138D01*
X11774443Y-15789138D02*
X11764920Y-15751043D01*
X11764920Y-15751043D02*
X11764920Y-15703424D01*
X11764920Y-15703424D02*
X11774443Y-15665329D01*
X11774443Y-15665329D02*
X11783967Y-15646281D01*
X11783967Y-15646281D02*
X11793491Y-15636758D01*
X11793491Y-15636758D02*
X11812539Y-15627234D01*
X11964920Y-15827234D02*
X11964920Y-15693900D01*
X11964920Y-15712948D02*
X11974443Y-15703424D01*
X11974443Y-15703424D02*
X11993491Y-15693900D01*
X11993491Y-15693900D02*
X12022063Y-15693900D01*
X12022063Y-15693900D02*
X12041110Y-15703424D01*
X12041110Y-15703424D02*
X12050634Y-15722472D01*
X12050634Y-15722472D02*
X12050634Y-15827234D01*
X12050634Y-15722472D02*
X12060158Y-15703424D01*
X12060158Y-15703424D02*
X12079205Y-15693900D01*
X12079205Y-15693900D02*
X12107777Y-15693900D01*
X12107777Y-15693900D02*
X12126824Y-15703424D01*
X12126824Y-15703424D02*
X12136348Y-15722472D01*
X12136348Y-15722472D02*
X12136348Y-15827234D01*
X12231586Y-15827234D02*
X12231586Y-15693900D01*
X12231586Y-15712948D02*
X12241110Y-15703424D01*
X12241110Y-15703424D02*
X12260158Y-15693900D01*
X12260158Y-15693900D02*
X12288729Y-15693900D01*
X12288729Y-15693900D02*
X12307777Y-15703424D01*
X12307777Y-15703424D02*
X12317301Y-15722472D01*
X12317301Y-15722472D02*
X12317301Y-15827234D01*
X12317301Y-15722472D02*
X12326824Y-15703424D01*
X12326824Y-15703424D02*
X12345872Y-15693900D01*
X12345872Y-15693900D02*
X12374443Y-15693900D01*
X12374443Y-15693900D02*
X12393491Y-15703424D01*
X12393491Y-15703424D02*
X12403015Y-15722472D01*
X12403015Y-15722472D02*
X12403015Y-15827234D01*
X12793491Y-15617710D02*
X12622063Y-15874853D01*
X13050634Y-15627234D02*
X13069682Y-15627234D01*
X13069682Y-15627234D02*
X13088729Y-15636758D01*
X13088729Y-15636758D02*
X13098253Y-15646281D01*
X13098253Y-15646281D02*
X13107777Y-15665329D01*
X13107777Y-15665329D02*
X13117301Y-15703424D01*
X13117301Y-15703424D02*
X13117301Y-15751043D01*
X13117301Y-15751043D02*
X13107777Y-15789138D01*
X13107777Y-15789138D02*
X13098253Y-15808186D01*
X13098253Y-15808186D02*
X13088729Y-15817710D01*
X13088729Y-15817710D02*
X13069682Y-15827234D01*
X13069682Y-15827234D02*
X13050634Y-15827234D01*
X13050634Y-15827234D02*
X13031586Y-15817710D01*
X13031586Y-15817710D02*
X13022063Y-15808186D01*
X13022063Y-15808186D02*
X13012539Y-15789138D01*
X13012539Y-15789138D02*
X13003015Y-15751043D01*
X13003015Y-15751043D02*
X13003015Y-15703424D01*
X13003015Y-15703424D02*
X13012539Y-15665329D01*
X13012539Y-15665329D02*
X13022063Y-15646281D01*
X13022063Y-15646281D02*
X13031586Y-15636758D01*
X13031586Y-15636758D02*
X13050634Y-15627234D01*
X13203015Y-15808186D02*
X13212539Y-15817710D01*
X13212539Y-15817710D02*
X13203015Y-15827234D01*
X13203015Y-15827234D02*
X13193491Y-15817710D01*
X13193491Y-15817710D02*
X13203015Y-15808186D01*
X13203015Y-15808186D02*
X13203015Y-15827234D01*
X13336348Y-15627234D02*
X13355396Y-15627234D01*
X13355396Y-15627234D02*
X13374444Y-15636758D01*
X13374444Y-15636758D02*
X13383967Y-15646281D01*
X13383967Y-15646281D02*
X13393491Y-15665329D01*
X13393491Y-15665329D02*
X13403015Y-15703424D01*
X13403015Y-15703424D02*
X13403015Y-15751043D01*
X13403015Y-15751043D02*
X13393491Y-15789138D01*
X13393491Y-15789138D02*
X13383967Y-15808186D01*
X13383967Y-15808186D02*
X13374444Y-15817710D01*
X13374444Y-15817710D02*
X13355396Y-15827234D01*
X13355396Y-15827234D02*
X13336348Y-15827234D01*
X13336348Y-15827234D02*
X13317301Y-15817710D01*
X13317301Y-15817710D02*
X13307777Y-15808186D01*
X13307777Y-15808186D02*
X13298253Y-15789138D01*
X13298253Y-15789138D02*
X13288729Y-15751043D01*
X13288729Y-15751043D02*
X13288729Y-15703424D01*
X13288729Y-15703424D02*
X13298253Y-15665329D01*
X13298253Y-15665329D02*
X13307777Y-15646281D01*
X13307777Y-15646281D02*
X13317301Y-15636758D01*
X13317301Y-15636758D02*
X13336348Y-15627234D01*
X13469682Y-15627234D02*
X13593491Y-15627234D01*
X13593491Y-15627234D02*
X13526825Y-15703424D01*
X13526825Y-15703424D02*
X13555396Y-15703424D01*
X13555396Y-15703424D02*
X13574444Y-15712948D01*
X13574444Y-15712948D02*
X13583967Y-15722472D01*
X13583967Y-15722472D02*
X13593491Y-15741519D01*
X13593491Y-15741519D02*
X13593491Y-15789138D01*
X13593491Y-15789138D02*
X13583967Y-15808186D01*
X13583967Y-15808186D02*
X13574444Y-15817710D01*
X13574444Y-15817710D02*
X13555396Y-15827234D01*
X13555396Y-15827234D02*
X13498253Y-15827234D01*
X13498253Y-15827234D02*
X13479206Y-15817710D01*
X13479206Y-15817710D02*
X13469682Y-15808186D01*
X13783967Y-15827234D02*
X13669682Y-15827234D01*
X13726825Y-15827234D02*
X13726825Y-15627234D01*
X13726825Y-15627234D02*
X13707777Y-15655805D01*
X13707777Y-15655805D02*
X13688729Y-15674853D01*
X13688729Y-15674853D02*
X13669682Y-15684377D01*
X13964920Y-15627234D02*
X13869682Y-15627234D01*
X13869682Y-15627234D02*
X13860158Y-15722472D01*
X13860158Y-15722472D02*
X13869682Y-15712948D01*
X13869682Y-15712948D02*
X13888729Y-15703424D01*
X13888729Y-15703424D02*
X13936348Y-15703424D01*
X13936348Y-15703424D02*
X13955396Y-15712948D01*
X13955396Y-15712948D02*
X13964920Y-15722472D01*
X13964920Y-15722472D02*
X13974444Y-15741519D01*
X13974444Y-15741519D02*
X13974444Y-15789138D01*
X13974444Y-15789138D02*
X13964920Y-15808186D01*
X13964920Y-15808186D02*
X13955396Y-15817710D01*
X13955396Y-15817710D02*
X13936348Y-15827234D01*
X13936348Y-15827234D02*
X13888729Y-15827234D01*
X13888729Y-15827234D02*
X13869682Y-15817710D01*
X13869682Y-15817710D02*
X13860158Y-15808186D01*
X14050634Y-15627234D02*
X14050634Y-15665329D01*
X14126825Y-15627234D02*
X14126825Y-15665329D01*
X14422063Y-15903424D02*
X14412539Y-15893900D01*
X14412539Y-15893900D02*
X14393491Y-15865329D01*
X14393491Y-15865329D02*
X14383968Y-15846281D01*
X14383968Y-15846281D02*
X14374444Y-15817710D01*
X14374444Y-15817710D02*
X14364920Y-15770091D01*
X14364920Y-15770091D02*
X14364920Y-15731996D01*
X14364920Y-15731996D02*
X14374444Y-15684377D01*
X14374444Y-15684377D02*
X14383968Y-15655805D01*
X14383968Y-15655805D02*
X14393491Y-15636758D01*
X14393491Y-15636758D02*
X14412539Y-15608186D01*
X14412539Y-15608186D02*
X14422063Y-15598662D01*
X14603015Y-15827234D02*
X14488729Y-15827234D01*
X14545872Y-15827234D02*
X14545872Y-15627234D01*
X14545872Y-15627234D02*
X14526825Y-15655805D01*
X14526825Y-15655805D02*
X14507777Y-15674853D01*
X14507777Y-15674853D02*
X14488729Y-15684377D01*
X14793491Y-15827234D02*
X14679206Y-15827234D01*
X14736348Y-15827234D02*
X14736348Y-15627234D01*
X14736348Y-15627234D02*
X14717301Y-15655805D01*
X14717301Y-15655805D02*
X14698253Y-15674853D01*
X14698253Y-15674853D02*
X14679206Y-15684377D01*
X15031587Y-15827234D02*
X15031587Y-15627234D01*
X15117301Y-15827234D02*
X15117301Y-15722472D01*
X15117301Y-15722472D02*
X15107777Y-15703424D01*
X15107777Y-15703424D02*
X15088730Y-15693900D01*
X15088730Y-15693900D02*
X15060158Y-15693900D01*
X15060158Y-15693900D02*
X15041110Y-15703424D01*
X15041110Y-15703424D02*
X15031587Y-15712948D01*
X15241110Y-15827234D02*
X15222063Y-15817710D01*
X15222063Y-15817710D02*
X15212539Y-15808186D01*
X15212539Y-15808186D02*
X15203015Y-15789138D01*
X15203015Y-15789138D02*
X15203015Y-15731996D01*
X15203015Y-15731996D02*
X15212539Y-15712948D01*
X15212539Y-15712948D02*
X15222063Y-15703424D01*
X15222063Y-15703424D02*
X15241110Y-15693900D01*
X15241110Y-15693900D02*
X15269682Y-15693900D01*
X15269682Y-15693900D02*
X15288730Y-15703424D01*
X15288730Y-15703424D02*
X15298253Y-15712948D01*
X15298253Y-15712948D02*
X15307777Y-15731996D01*
X15307777Y-15731996D02*
X15307777Y-15789138D01*
X15307777Y-15789138D02*
X15298253Y-15808186D01*
X15298253Y-15808186D02*
X15288730Y-15817710D01*
X15288730Y-15817710D02*
X15269682Y-15827234D01*
X15269682Y-15827234D02*
X15241110Y-15827234D01*
X15422063Y-15827234D02*
X15403015Y-15817710D01*
X15403015Y-15817710D02*
X15393491Y-15798662D01*
X15393491Y-15798662D02*
X15393491Y-15627234D01*
X15574444Y-15817710D02*
X15555396Y-15827234D01*
X15555396Y-15827234D02*
X15517301Y-15827234D01*
X15517301Y-15827234D02*
X15498253Y-15817710D01*
X15498253Y-15817710D02*
X15488730Y-15798662D01*
X15488730Y-15798662D02*
X15488730Y-15722472D01*
X15488730Y-15722472D02*
X15498253Y-15703424D01*
X15498253Y-15703424D02*
X15517301Y-15693900D01*
X15517301Y-15693900D02*
X15555396Y-15693900D01*
X15555396Y-15693900D02*
X15574444Y-15703424D01*
X15574444Y-15703424D02*
X15583968Y-15722472D01*
X15583968Y-15722472D02*
X15583968Y-15741519D01*
X15583968Y-15741519D02*
X15488730Y-15760567D01*
X15660158Y-15817710D02*
X15679206Y-15827234D01*
X15679206Y-15827234D02*
X15717301Y-15827234D01*
X15717301Y-15827234D02*
X15736349Y-15817710D01*
X15736349Y-15817710D02*
X15745872Y-15798662D01*
X15745872Y-15798662D02*
X15745872Y-15789138D01*
X15745872Y-15789138D02*
X15736349Y-15770091D01*
X15736349Y-15770091D02*
X15717301Y-15760567D01*
X15717301Y-15760567D02*
X15688730Y-15760567D01*
X15688730Y-15760567D02*
X15669682Y-15751043D01*
X15669682Y-15751043D02*
X15660158Y-15731996D01*
X15660158Y-15731996D02*
X15660158Y-15722472D01*
X15660158Y-15722472D02*
X15669682Y-15703424D01*
X15669682Y-15703424D02*
X15688730Y-15693900D01*
X15688730Y-15693900D02*
X15717301Y-15693900D01*
X15717301Y-15693900D02*
X15736349Y-15703424D01*
X15812539Y-15903424D02*
X15822063Y-15893900D01*
X15822063Y-15893900D02*
X15841111Y-15865329D01*
X15841111Y-15865329D02*
X15850634Y-15846281D01*
X15850634Y-15846281D02*
X15860158Y-15817710D01*
X15860158Y-15817710D02*
X15869682Y-15770091D01*
X15869682Y-15770091D02*
X15869682Y-15731996D01*
X15869682Y-15731996D02*
X15860158Y-15684377D01*
X15860158Y-15684377D02*
X15850634Y-15655805D01*
X15850634Y-15655805D02*
X15841111Y-15636758D01*
X15841111Y-15636758D02*
X15822063Y-15608186D01*
X15822063Y-15608186D02*
X15812539Y-15598662D01*
D10*
X10747000Y-15949750D02*
X10847000Y-16049750D01*
X10847000Y-15949750D02*
X10747000Y-16049750D01*
X10847000Y-15999750D02*
G75*
G03*
X10847000Y-15999750I-50000J0D01*
G01*
D11*
X11212539Y-16091234D02*
X11098253Y-16091234D01*
X11155396Y-16091234D02*
X11155396Y-15891234D01*
X11155396Y-15891234D02*
X11136348Y-15919805D01*
X11136348Y-15919805D02*
X11117301Y-15938853D01*
X11117301Y-15938853D02*
X11098253Y-15948377D01*
X11298253Y-16072186D02*
X11307777Y-16081710D01*
X11307777Y-16081710D02*
X11298253Y-16091234D01*
X11298253Y-16091234D02*
X11288729Y-16081710D01*
X11288729Y-16081710D02*
X11298253Y-16072186D01*
X11298253Y-16072186D02*
X11298253Y-16091234D01*
X11431586Y-15891234D02*
X11450634Y-15891234D01*
X11450634Y-15891234D02*
X11469682Y-15900758D01*
X11469682Y-15900758D02*
X11479205Y-15910281D01*
X11479205Y-15910281D02*
X11488729Y-15929329D01*
X11488729Y-15929329D02*
X11498253Y-15967424D01*
X11498253Y-15967424D02*
X11498253Y-16015043D01*
X11498253Y-16015043D02*
X11488729Y-16053138D01*
X11488729Y-16053138D02*
X11479205Y-16072186D01*
X11479205Y-16072186D02*
X11469682Y-16081710D01*
X11469682Y-16081710D02*
X11450634Y-16091234D01*
X11450634Y-16091234D02*
X11431586Y-16091234D01*
X11431586Y-16091234D02*
X11412539Y-16081710D01*
X11412539Y-16081710D02*
X11403015Y-16072186D01*
X11403015Y-16072186D02*
X11393491Y-16053138D01*
X11393491Y-16053138D02*
X11383967Y-16015043D01*
X11383967Y-16015043D02*
X11383967Y-15967424D01*
X11383967Y-15967424D02*
X11393491Y-15929329D01*
X11393491Y-15929329D02*
X11403015Y-15910281D01*
X11403015Y-15910281D02*
X11412539Y-15900758D01*
X11412539Y-15900758D02*
X11431586Y-15891234D01*
X11622062Y-15891234D02*
X11641110Y-15891234D01*
X11641110Y-15891234D02*
X11660158Y-15900758D01*
X11660158Y-15900758D02*
X11669682Y-15910281D01*
X11669682Y-15910281D02*
X11679205Y-15929329D01*
X11679205Y-15929329D02*
X11688729Y-15967424D01*
X11688729Y-15967424D02*
X11688729Y-16015043D01*
X11688729Y-16015043D02*
X11679205Y-16053138D01*
X11679205Y-16053138D02*
X11669682Y-16072186D01*
X11669682Y-16072186D02*
X11660158Y-16081710D01*
X11660158Y-16081710D02*
X11641110Y-16091234D01*
X11641110Y-16091234D02*
X11622062Y-16091234D01*
X11622062Y-16091234D02*
X11603015Y-16081710D01*
X11603015Y-16081710D02*
X11593491Y-16072186D01*
X11593491Y-16072186D02*
X11583967Y-16053138D01*
X11583967Y-16053138D02*
X11574443Y-16015043D01*
X11574443Y-16015043D02*
X11574443Y-15967424D01*
X11574443Y-15967424D02*
X11583967Y-15929329D01*
X11583967Y-15929329D02*
X11593491Y-15910281D01*
X11593491Y-15910281D02*
X11603015Y-15900758D01*
X11603015Y-15900758D02*
X11622062Y-15891234D01*
X11812539Y-15891234D02*
X11831586Y-15891234D01*
X11831586Y-15891234D02*
X11850634Y-15900758D01*
X11850634Y-15900758D02*
X11860158Y-15910281D01*
X11860158Y-15910281D02*
X11869682Y-15929329D01*
X11869682Y-15929329D02*
X11879205Y-15967424D01*
X11879205Y-15967424D02*
X11879205Y-16015043D01*
X11879205Y-16015043D02*
X11869682Y-16053138D01*
X11869682Y-16053138D02*
X11860158Y-16072186D01*
X11860158Y-16072186D02*
X11850634Y-16081710D01*
X11850634Y-16081710D02*
X11831586Y-16091234D01*
X11831586Y-16091234D02*
X11812539Y-16091234D01*
X11812539Y-16091234D02*
X11793491Y-16081710D01*
X11793491Y-16081710D02*
X11783967Y-16072186D01*
X11783967Y-16072186D02*
X11774443Y-16053138D01*
X11774443Y-16053138D02*
X11764920Y-16015043D01*
X11764920Y-16015043D02*
X11764920Y-15967424D01*
X11764920Y-15967424D02*
X11774443Y-15929329D01*
X11774443Y-15929329D02*
X11783967Y-15910281D01*
X11783967Y-15910281D02*
X11793491Y-15900758D01*
X11793491Y-15900758D02*
X11812539Y-15891234D01*
X11964920Y-16091234D02*
X11964920Y-15957900D01*
X11964920Y-15976948D02*
X11974443Y-15967424D01*
X11974443Y-15967424D02*
X11993491Y-15957900D01*
X11993491Y-15957900D02*
X12022063Y-15957900D01*
X12022063Y-15957900D02*
X12041110Y-15967424D01*
X12041110Y-15967424D02*
X12050634Y-15986472D01*
X12050634Y-15986472D02*
X12050634Y-16091234D01*
X12050634Y-15986472D02*
X12060158Y-15967424D01*
X12060158Y-15967424D02*
X12079205Y-15957900D01*
X12079205Y-15957900D02*
X12107777Y-15957900D01*
X12107777Y-15957900D02*
X12126824Y-15967424D01*
X12126824Y-15967424D02*
X12136348Y-15986472D01*
X12136348Y-15986472D02*
X12136348Y-16091234D01*
X12231586Y-16091234D02*
X12231586Y-15957900D01*
X12231586Y-15976948D02*
X12241110Y-15967424D01*
X12241110Y-15967424D02*
X12260158Y-15957900D01*
X12260158Y-15957900D02*
X12288729Y-15957900D01*
X12288729Y-15957900D02*
X12307777Y-15967424D01*
X12307777Y-15967424D02*
X12317301Y-15986472D01*
X12317301Y-15986472D02*
X12317301Y-16091234D01*
X12317301Y-15986472D02*
X12326824Y-15967424D01*
X12326824Y-15967424D02*
X12345872Y-15957900D01*
X12345872Y-15957900D02*
X12374443Y-15957900D01*
X12374443Y-15957900D02*
X12393491Y-15967424D01*
X12393491Y-15967424D02*
X12403015Y-15986472D01*
X12403015Y-15986472D02*
X12403015Y-16091234D01*
X12793491Y-15881710D02*
X12622063Y-16138853D01*
X13050634Y-15891234D02*
X13069682Y-15891234D01*
X13069682Y-15891234D02*
X13088729Y-15900758D01*
X13088729Y-15900758D02*
X13098253Y-15910281D01*
X13098253Y-15910281D02*
X13107777Y-15929329D01*
X13107777Y-15929329D02*
X13117301Y-15967424D01*
X13117301Y-15967424D02*
X13117301Y-16015043D01*
X13117301Y-16015043D02*
X13107777Y-16053138D01*
X13107777Y-16053138D02*
X13098253Y-16072186D01*
X13098253Y-16072186D02*
X13088729Y-16081710D01*
X13088729Y-16081710D02*
X13069682Y-16091234D01*
X13069682Y-16091234D02*
X13050634Y-16091234D01*
X13050634Y-16091234D02*
X13031586Y-16081710D01*
X13031586Y-16081710D02*
X13022063Y-16072186D01*
X13022063Y-16072186D02*
X13012539Y-16053138D01*
X13012539Y-16053138D02*
X13003015Y-16015043D01*
X13003015Y-16015043D02*
X13003015Y-15967424D01*
X13003015Y-15967424D02*
X13012539Y-15929329D01*
X13012539Y-15929329D02*
X13022063Y-15910281D01*
X13022063Y-15910281D02*
X13031586Y-15900758D01*
X13031586Y-15900758D02*
X13050634Y-15891234D01*
X13203015Y-16072186D02*
X13212539Y-16081710D01*
X13212539Y-16081710D02*
X13203015Y-16091234D01*
X13203015Y-16091234D02*
X13193491Y-16081710D01*
X13193491Y-16081710D02*
X13203015Y-16072186D01*
X13203015Y-16072186D02*
X13203015Y-16091234D01*
X13336348Y-15891234D02*
X13355396Y-15891234D01*
X13355396Y-15891234D02*
X13374444Y-15900758D01*
X13374444Y-15900758D02*
X13383967Y-15910281D01*
X13383967Y-15910281D02*
X13393491Y-15929329D01*
X13393491Y-15929329D02*
X13403015Y-15967424D01*
X13403015Y-15967424D02*
X13403015Y-16015043D01*
X13403015Y-16015043D02*
X13393491Y-16053138D01*
X13393491Y-16053138D02*
X13383967Y-16072186D01*
X13383967Y-16072186D02*
X13374444Y-16081710D01*
X13374444Y-16081710D02*
X13355396Y-16091234D01*
X13355396Y-16091234D02*
X13336348Y-16091234D01*
X13336348Y-16091234D02*
X13317301Y-16081710D01*
X13317301Y-16081710D02*
X13307777Y-16072186D01*
X13307777Y-16072186D02*
X13298253Y-16053138D01*
X13298253Y-16053138D02*
X13288729Y-16015043D01*
X13288729Y-16015043D02*
X13288729Y-15967424D01*
X13288729Y-15967424D02*
X13298253Y-15929329D01*
X13298253Y-15929329D02*
X13307777Y-15910281D01*
X13307777Y-15910281D02*
X13317301Y-15900758D01*
X13317301Y-15900758D02*
X13336348Y-15891234D01*
X13469682Y-15891234D02*
X13593491Y-15891234D01*
X13593491Y-15891234D02*
X13526825Y-15967424D01*
X13526825Y-15967424D02*
X13555396Y-15967424D01*
X13555396Y-15967424D02*
X13574444Y-15976948D01*
X13574444Y-15976948D02*
X13583967Y-15986472D01*
X13583967Y-15986472D02*
X13593491Y-16005519D01*
X13593491Y-16005519D02*
X13593491Y-16053138D01*
X13593491Y-16053138D02*
X13583967Y-16072186D01*
X13583967Y-16072186D02*
X13574444Y-16081710D01*
X13574444Y-16081710D02*
X13555396Y-16091234D01*
X13555396Y-16091234D02*
X13498253Y-16091234D01*
X13498253Y-16091234D02*
X13479206Y-16081710D01*
X13479206Y-16081710D02*
X13469682Y-16072186D01*
X13688729Y-16091234D02*
X13726825Y-16091234D01*
X13726825Y-16091234D02*
X13745872Y-16081710D01*
X13745872Y-16081710D02*
X13755396Y-16072186D01*
X13755396Y-16072186D02*
X13774444Y-16043615D01*
X13774444Y-16043615D02*
X13783967Y-16005519D01*
X13783967Y-16005519D02*
X13783967Y-15929329D01*
X13783967Y-15929329D02*
X13774444Y-15910281D01*
X13774444Y-15910281D02*
X13764920Y-15900758D01*
X13764920Y-15900758D02*
X13745872Y-15891234D01*
X13745872Y-15891234D02*
X13707777Y-15891234D01*
X13707777Y-15891234D02*
X13688729Y-15900758D01*
X13688729Y-15900758D02*
X13679206Y-15910281D01*
X13679206Y-15910281D02*
X13669682Y-15929329D01*
X13669682Y-15929329D02*
X13669682Y-15976948D01*
X13669682Y-15976948D02*
X13679206Y-15995996D01*
X13679206Y-15995996D02*
X13688729Y-16005519D01*
X13688729Y-16005519D02*
X13707777Y-16015043D01*
X13707777Y-16015043D02*
X13745872Y-16015043D01*
X13745872Y-16015043D02*
X13764920Y-16005519D01*
X13764920Y-16005519D02*
X13774444Y-15995996D01*
X13774444Y-15995996D02*
X13783967Y-15976948D01*
X13955396Y-15957900D02*
X13955396Y-16091234D01*
X13907777Y-15881710D02*
X13860158Y-16024567D01*
X13860158Y-16024567D02*
X13983967Y-16024567D01*
X14050634Y-15891234D02*
X14050634Y-15929329D01*
X14126825Y-15891234D02*
X14126825Y-15929329D01*
X14422063Y-16167424D02*
X14412539Y-16157900D01*
X14412539Y-16157900D02*
X14393491Y-16129329D01*
X14393491Y-16129329D02*
X14383968Y-16110281D01*
X14383968Y-16110281D02*
X14374444Y-16081710D01*
X14374444Y-16081710D02*
X14364920Y-16034091D01*
X14364920Y-16034091D02*
X14364920Y-15995996D01*
X14364920Y-15995996D02*
X14374444Y-15948377D01*
X14374444Y-15948377D02*
X14383968Y-15919805D01*
X14383968Y-15919805D02*
X14393491Y-15900758D01*
X14393491Y-15900758D02*
X14412539Y-15872186D01*
X14412539Y-15872186D02*
X14422063Y-15862662D01*
X14488729Y-15910281D02*
X14498253Y-15900758D01*
X14498253Y-15900758D02*
X14517301Y-15891234D01*
X14517301Y-15891234D02*
X14564920Y-15891234D01*
X14564920Y-15891234D02*
X14583968Y-15900758D01*
X14583968Y-15900758D02*
X14593491Y-15910281D01*
X14593491Y-15910281D02*
X14603015Y-15929329D01*
X14603015Y-15929329D02*
X14603015Y-15948377D01*
X14603015Y-15948377D02*
X14593491Y-15976948D01*
X14593491Y-15976948D02*
X14479206Y-16091234D01*
X14479206Y-16091234D02*
X14603015Y-16091234D01*
X14698253Y-16091234D02*
X14736348Y-16091234D01*
X14736348Y-16091234D02*
X14755396Y-16081710D01*
X14755396Y-16081710D02*
X14764920Y-16072186D01*
X14764920Y-16072186D02*
X14783968Y-16043615D01*
X14783968Y-16043615D02*
X14793491Y-16005519D01*
X14793491Y-16005519D02*
X14793491Y-15929329D01*
X14793491Y-15929329D02*
X14783968Y-15910281D01*
X14783968Y-15910281D02*
X14774444Y-15900758D01*
X14774444Y-15900758D02*
X14755396Y-15891234D01*
X14755396Y-15891234D02*
X14717301Y-15891234D01*
X14717301Y-15891234D02*
X14698253Y-15900758D01*
X14698253Y-15900758D02*
X14688729Y-15910281D01*
X14688729Y-15910281D02*
X14679206Y-15929329D01*
X14679206Y-15929329D02*
X14679206Y-15976948D01*
X14679206Y-15976948D02*
X14688729Y-15995996D01*
X14688729Y-15995996D02*
X14698253Y-16005519D01*
X14698253Y-16005519D02*
X14717301Y-16015043D01*
X14717301Y-16015043D02*
X14755396Y-16015043D01*
X14755396Y-16015043D02*
X14774444Y-16005519D01*
X14774444Y-16005519D02*
X14783968Y-15995996D01*
X14783968Y-15995996D02*
X14793491Y-15976948D01*
X15031587Y-16091234D02*
X15031587Y-15891234D01*
X15117301Y-16091234D02*
X15117301Y-15986472D01*
X15117301Y-15986472D02*
X15107777Y-15967424D01*
X15107777Y-15967424D02*
X15088730Y-15957900D01*
X15088730Y-15957900D02*
X15060158Y-15957900D01*
X15060158Y-15957900D02*
X15041110Y-15967424D01*
X15041110Y-15967424D02*
X15031587Y-15976948D01*
X15241110Y-16091234D02*
X15222063Y-16081710D01*
X15222063Y-16081710D02*
X15212539Y-16072186D01*
X15212539Y-16072186D02*
X15203015Y-16053138D01*
X15203015Y-16053138D02*
X15203015Y-15995996D01*
X15203015Y-15995996D02*
X15212539Y-15976948D01*
X15212539Y-15976948D02*
X15222063Y-15967424D01*
X15222063Y-15967424D02*
X15241110Y-15957900D01*
X15241110Y-15957900D02*
X15269682Y-15957900D01*
X15269682Y-15957900D02*
X15288730Y-15967424D01*
X15288730Y-15967424D02*
X15298253Y-15976948D01*
X15298253Y-15976948D02*
X15307777Y-15995996D01*
X15307777Y-15995996D02*
X15307777Y-16053138D01*
X15307777Y-16053138D02*
X15298253Y-16072186D01*
X15298253Y-16072186D02*
X15288730Y-16081710D01*
X15288730Y-16081710D02*
X15269682Y-16091234D01*
X15269682Y-16091234D02*
X15241110Y-16091234D01*
X15422063Y-16091234D02*
X15403015Y-16081710D01*
X15403015Y-16081710D02*
X15393491Y-16062662D01*
X15393491Y-16062662D02*
X15393491Y-15891234D01*
X15574444Y-16081710D02*
X15555396Y-16091234D01*
X15555396Y-16091234D02*
X15517301Y-16091234D01*
X15517301Y-16091234D02*
X15498253Y-16081710D01*
X15498253Y-16081710D02*
X15488730Y-16062662D01*
X15488730Y-16062662D02*
X15488730Y-15986472D01*
X15488730Y-15986472D02*
X15498253Y-15967424D01*
X15498253Y-15967424D02*
X15517301Y-15957900D01*
X15517301Y-15957900D02*
X15555396Y-15957900D01*
X15555396Y-15957900D02*
X15574444Y-15967424D01*
X15574444Y-15967424D02*
X15583968Y-15986472D01*
X15583968Y-15986472D02*
X15583968Y-16005519D01*
X15583968Y-16005519D02*
X15488730Y-16024567D01*
X15660158Y-16081710D02*
X15679206Y-16091234D01*
X15679206Y-16091234D02*
X15717301Y-16091234D01*
X15717301Y-16091234D02*
X15736349Y-16081710D01*
X15736349Y-16081710D02*
X15745872Y-16062662D01*
X15745872Y-16062662D02*
X15745872Y-16053138D01*
X15745872Y-16053138D02*
X15736349Y-16034091D01*
X15736349Y-16034091D02*
X15717301Y-16024567D01*
X15717301Y-16024567D02*
X15688730Y-16024567D01*
X15688730Y-16024567D02*
X15669682Y-16015043D01*
X15669682Y-16015043D02*
X15660158Y-15995996D01*
X15660158Y-15995996D02*
X15660158Y-15986472D01*
X15660158Y-15986472D02*
X15669682Y-15967424D01*
X15669682Y-15967424D02*
X15688730Y-15957900D01*
X15688730Y-15957900D02*
X15717301Y-15957900D01*
X15717301Y-15957900D02*
X15736349Y-15967424D01*
X15812539Y-16167424D02*
X15822063Y-16157900D01*
X15822063Y-16157900D02*
X15841111Y-16129329D01*
X15841111Y-16129329D02*
X15850634Y-16110281D01*
X15850634Y-16110281D02*
X15860158Y-16081710D01*
X15860158Y-16081710D02*
X15869682Y-16034091D01*
X15869682Y-16034091D02*
X15869682Y-15995996D01*
X15869682Y-15995996D02*
X15860158Y-15948377D01*
X15860158Y-15948377D02*
X15850634Y-15919805D01*
X15850634Y-15919805D02*
X15841111Y-15900758D01*
X15841111Y-15900758D02*
X15822063Y-15872186D01*
X15822063Y-15872186D02*
X15812539Y-15862662D01*
D17*
X10737000Y-16208750D02*
X10847000Y-16318750D01*
X10847000Y-16208750D02*
X10737000Y-16318750D01*
X10792000Y-16208750D02*
X10792000Y-16318750D01*
X10737000Y-16263750D02*
X10847000Y-16263750D01*
D11*
X11212539Y-16355234D02*
X11098253Y-16355234D01*
X11155396Y-16355234D02*
X11155396Y-16155234D01*
X11155396Y-16155234D02*
X11136348Y-16183805D01*
X11136348Y-16183805D02*
X11117301Y-16202853D01*
X11117301Y-16202853D02*
X11098253Y-16212377D01*
X11298253Y-16336186D02*
X11307777Y-16345710D01*
X11307777Y-16345710D02*
X11298253Y-16355234D01*
X11298253Y-16355234D02*
X11288729Y-16345710D01*
X11288729Y-16345710D02*
X11298253Y-16336186D01*
X11298253Y-16336186D02*
X11298253Y-16355234D01*
X11498253Y-16355234D02*
X11383967Y-16355234D01*
X11441110Y-16355234D02*
X11441110Y-16155234D01*
X11441110Y-16155234D02*
X11422062Y-16183805D01*
X11422062Y-16183805D02*
X11403015Y-16202853D01*
X11403015Y-16202853D02*
X11383967Y-16212377D01*
X11622062Y-16155234D02*
X11641110Y-16155234D01*
X11641110Y-16155234D02*
X11660158Y-16164758D01*
X11660158Y-16164758D02*
X11669682Y-16174281D01*
X11669682Y-16174281D02*
X11679205Y-16193329D01*
X11679205Y-16193329D02*
X11688729Y-16231424D01*
X11688729Y-16231424D02*
X11688729Y-16279043D01*
X11688729Y-16279043D02*
X11679205Y-16317138D01*
X11679205Y-16317138D02*
X11669682Y-16336186D01*
X11669682Y-16336186D02*
X11660158Y-16345710D01*
X11660158Y-16345710D02*
X11641110Y-16355234D01*
X11641110Y-16355234D02*
X11622062Y-16355234D01*
X11622062Y-16355234D02*
X11603015Y-16345710D01*
X11603015Y-16345710D02*
X11593491Y-16336186D01*
X11593491Y-16336186D02*
X11583967Y-16317138D01*
X11583967Y-16317138D02*
X11574443Y-16279043D01*
X11574443Y-16279043D02*
X11574443Y-16231424D01*
X11574443Y-16231424D02*
X11583967Y-16193329D01*
X11583967Y-16193329D02*
X11593491Y-16174281D01*
X11593491Y-16174281D02*
X11603015Y-16164758D01*
X11603015Y-16164758D02*
X11622062Y-16155234D01*
X11812539Y-16155234D02*
X11831586Y-16155234D01*
X11831586Y-16155234D02*
X11850634Y-16164758D01*
X11850634Y-16164758D02*
X11860158Y-16174281D01*
X11860158Y-16174281D02*
X11869682Y-16193329D01*
X11869682Y-16193329D02*
X11879205Y-16231424D01*
X11879205Y-16231424D02*
X11879205Y-16279043D01*
X11879205Y-16279043D02*
X11869682Y-16317138D01*
X11869682Y-16317138D02*
X11860158Y-16336186D01*
X11860158Y-16336186D02*
X11850634Y-16345710D01*
X11850634Y-16345710D02*
X11831586Y-16355234D01*
X11831586Y-16355234D02*
X11812539Y-16355234D01*
X11812539Y-16355234D02*
X11793491Y-16345710D01*
X11793491Y-16345710D02*
X11783967Y-16336186D01*
X11783967Y-16336186D02*
X11774443Y-16317138D01*
X11774443Y-16317138D02*
X11764920Y-16279043D01*
X11764920Y-16279043D02*
X11764920Y-16231424D01*
X11764920Y-16231424D02*
X11774443Y-16193329D01*
X11774443Y-16193329D02*
X11783967Y-16174281D01*
X11783967Y-16174281D02*
X11793491Y-16164758D01*
X11793491Y-16164758D02*
X11812539Y-16155234D01*
X11964920Y-16355234D02*
X11964920Y-16221900D01*
X11964920Y-16240948D02*
X11974443Y-16231424D01*
X11974443Y-16231424D02*
X11993491Y-16221900D01*
X11993491Y-16221900D02*
X12022063Y-16221900D01*
X12022063Y-16221900D02*
X12041110Y-16231424D01*
X12041110Y-16231424D02*
X12050634Y-16250472D01*
X12050634Y-16250472D02*
X12050634Y-16355234D01*
X12050634Y-16250472D02*
X12060158Y-16231424D01*
X12060158Y-16231424D02*
X12079205Y-16221900D01*
X12079205Y-16221900D02*
X12107777Y-16221900D01*
X12107777Y-16221900D02*
X12126824Y-16231424D01*
X12126824Y-16231424D02*
X12136348Y-16250472D01*
X12136348Y-16250472D02*
X12136348Y-16355234D01*
X12231586Y-16355234D02*
X12231586Y-16221900D01*
X12231586Y-16240948D02*
X12241110Y-16231424D01*
X12241110Y-16231424D02*
X12260158Y-16221900D01*
X12260158Y-16221900D02*
X12288729Y-16221900D01*
X12288729Y-16221900D02*
X12307777Y-16231424D01*
X12307777Y-16231424D02*
X12317301Y-16250472D01*
X12317301Y-16250472D02*
X12317301Y-16355234D01*
X12317301Y-16250472D02*
X12326824Y-16231424D01*
X12326824Y-16231424D02*
X12345872Y-16221900D01*
X12345872Y-16221900D02*
X12374443Y-16221900D01*
X12374443Y-16221900D02*
X12393491Y-16231424D01*
X12393491Y-16231424D02*
X12403015Y-16250472D01*
X12403015Y-16250472D02*
X12403015Y-16355234D01*
X12793491Y-16145710D02*
X12622063Y-16402853D01*
X13050634Y-16155234D02*
X13069682Y-16155234D01*
X13069682Y-16155234D02*
X13088729Y-16164758D01*
X13088729Y-16164758D02*
X13098253Y-16174281D01*
X13098253Y-16174281D02*
X13107777Y-16193329D01*
X13107777Y-16193329D02*
X13117301Y-16231424D01*
X13117301Y-16231424D02*
X13117301Y-16279043D01*
X13117301Y-16279043D02*
X13107777Y-16317138D01*
X13107777Y-16317138D02*
X13098253Y-16336186D01*
X13098253Y-16336186D02*
X13088729Y-16345710D01*
X13088729Y-16345710D02*
X13069682Y-16355234D01*
X13069682Y-16355234D02*
X13050634Y-16355234D01*
X13050634Y-16355234D02*
X13031586Y-16345710D01*
X13031586Y-16345710D02*
X13022063Y-16336186D01*
X13022063Y-16336186D02*
X13012539Y-16317138D01*
X13012539Y-16317138D02*
X13003015Y-16279043D01*
X13003015Y-16279043D02*
X13003015Y-16231424D01*
X13003015Y-16231424D02*
X13012539Y-16193329D01*
X13012539Y-16193329D02*
X13022063Y-16174281D01*
X13022063Y-16174281D02*
X13031586Y-16164758D01*
X13031586Y-16164758D02*
X13050634Y-16155234D01*
X13203015Y-16336186D02*
X13212539Y-16345710D01*
X13212539Y-16345710D02*
X13203015Y-16355234D01*
X13203015Y-16355234D02*
X13193491Y-16345710D01*
X13193491Y-16345710D02*
X13203015Y-16336186D01*
X13203015Y-16336186D02*
X13203015Y-16355234D01*
X13336348Y-16155234D02*
X13355396Y-16155234D01*
X13355396Y-16155234D02*
X13374444Y-16164758D01*
X13374444Y-16164758D02*
X13383967Y-16174281D01*
X13383967Y-16174281D02*
X13393491Y-16193329D01*
X13393491Y-16193329D02*
X13403015Y-16231424D01*
X13403015Y-16231424D02*
X13403015Y-16279043D01*
X13403015Y-16279043D02*
X13393491Y-16317138D01*
X13393491Y-16317138D02*
X13383967Y-16336186D01*
X13383967Y-16336186D02*
X13374444Y-16345710D01*
X13374444Y-16345710D02*
X13355396Y-16355234D01*
X13355396Y-16355234D02*
X13336348Y-16355234D01*
X13336348Y-16355234D02*
X13317301Y-16345710D01*
X13317301Y-16345710D02*
X13307777Y-16336186D01*
X13307777Y-16336186D02*
X13298253Y-16317138D01*
X13298253Y-16317138D02*
X13288729Y-16279043D01*
X13288729Y-16279043D02*
X13288729Y-16231424D01*
X13288729Y-16231424D02*
X13298253Y-16193329D01*
X13298253Y-16193329D02*
X13307777Y-16174281D01*
X13307777Y-16174281D02*
X13317301Y-16164758D01*
X13317301Y-16164758D02*
X13336348Y-16155234D01*
X13574444Y-16221900D02*
X13574444Y-16355234D01*
X13526825Y-16145710D02*
X13479206Y-16288567D01*
X13479206Y-16288567D02*
X13603015Y-16288567D01*
X13660158Y-16155234D02*
X13783967Y-16155234D01*
X13783967Y-16155234D02*
X13717301Y-16231424D01*
X13717301Y-16231424D02*
X13745872Y-16231424D01*
X13745872Y-16231424D02*
X13764920Y-16240948D01*
X13764920Y-16240948D02*
X13774444Y-16250472D01*
X13774444Y-16250472D02*
X13783967Y-16269519D01*
X13783967Y-16269519D02*
X13783967Y-16317138D01*
X13783967Y-16317138D02*
X13774444Y-16336186D01*
X13774444Y-16336186D02*
X13764920Y-16345710D01*
X13764920Y-16345710D02*
X13745872Y-16355234D01*
X13745872Y-16355234D02*
X13688729Y-16355234D01*
X13688729Y-16355234D02*
X13669682Y-16345710D01*
X13669682Y-16345710D02*
X13660158Y-16336186D01*
X13850634Y-16155234D02*
X13974444Y-16155234D01*
X13974444Y-16155234D02*
X13907777Y-16231424D01*
X13907777Y-16231424D02*
X13936348Y-16231424D01*
X13936348Y-16231424D02*
X13955396Y-16240948D01*
X13955396Y-16240948D02*
X13964920Y-16250472D01*
X13964920Y-16250472D02*
X13974444Y-16269519D01*
X13974444Y-16269519D02*
X13974444Y-16317138D01*
X13974444Y-16317138D02*
X13964920Y-16336186D01*
X13964920Y-16336186D02*
X13955396Y-16345710D01*
X13955396Y-16345710D02*
X13936348Y-16355234D01*
X13936348Y-16355234D02*
X13879206Y-16355234D01*
X13879206Y-16355234D02*
X13860158Y-16345710D01*
X13860158Y-16345710D02*
X13850634Y-16336186D01*
X14050634Y-16155234D02*
X14050634Y-16193329D01*
X14126825Y-16155234D02*
X14126825Y-16193329D01*
X14422063Y-16431424D02*
X14412539Y-16421900D01*
X14412539Y-16421900D02*
X14393491Y-16393329D01*
X14393491Y-16393329D02*
X14383968Y-16374281D01*
X14383968Y-16374281D02*
X14374444Y-16345710D01*
X14374444Y-16345710D02*
X14364920Y-16298091D01*
X14364920Y-16298091D02*
X14364920Y-16259996D01*
X14364920Y-16259996D02*
X14374444Y-16212377D01*
X14374444Y-16212377D02*
X14383968Y-16183805D01*
X14383968Y-16183805D02*
X14393491Y-16164758D01*
X14393491Y-16164758D02*
X14412539Y-16136186D01*
X14412539Y-16136186D02*
X14422063Y-16126662D01*
X14583968Y-16155234D02*
X14545872Y-16155234D01*
X14545872Y-16155234D02*
X14526825Y-16164758D01*
X14526825Y-16164758D02*
X14517301Y-16174281D01*
X14517301Y-16174281D02*
X14498253Y-16202853D01*
X14498253Y-16202853D02*
X14488729Y-16240948D01*
X14488729Y-16240948D02*
X14488729Y-16317138D01*
X14488729Y-16317138D02*
X14498253Y-16336186D01*
X14498253Y-16336186D02*
X14507777Y-16345710D01*
X14507777Y-16345710D02*
X14526825Y-16355234D01*
X14526825Y-16355234D02*
X14564920Y-16355234D01*
X14564920Y-16355234D02*
X14583968Y-16345710D01*
X14583968Y-16345710D02*
X14593491Y-16336186D01*
X14593491Y-16336186D02*
X14603015Y-16317138D01*
X14603015Y-16317138D02*
X14603015Y-16269519D01*
X14603015Y-16269519D02*
X14593491Y-16250472D01*
X14593491Y-16250472D02*
X14583968Y-16240948D01*
X14583968Y-16240948D02*
X14564920Y-16231424D01*
X14564920Y-16231424D02*
X14526825Y-16231424D01*
X14526825Y-16231424D02*
X14507777Y-16240948D01*
X14507777Y-16240948D02*
X14498253Y-16250472D01*
X14498253Y-16250472D02*
X14488729Y-16269519D01*
X14841110Y-16355234D02*
X14841110Y-16155234D01*
X14926825Y-16355234D02*
X14926825Y-16250472D01*
X14926825Y-16250472D02*
X14917301Y-16231424D01*
X14917301Y-16231424D02*
X14898253Y-16221900D01*
X14898253Y-16221900D02*
X14869682Y-16221900D01*
X14869682Y-16221900D02*
X14850634Y-16231424D01*
X14850634Y-16231424D02*
X14841110Y-16240948D01*
X15050634Y-16355234D02*
X15031587Y-16345710D01*
X15031587Y-16345710D02*
X15022063Y-16336186D01*
X15022063Y-16336186D02*
X15012539Y-16317138D01*
X15012539Y-16317138D02*
X15012539Y-16259996D01*
X15012539Y-16259996D02*
X15022063Y-16240948D01*
X15022063Y-16240948D02*
X15031587Y-16231424D01*
X15031587Y-16231424D02*
X15050634Y-16221900D01*
X15050634Y-16221900D02*
X15079206Y-16221900D01*
X15079206Y-16221900D02*
X15098253Y-16231424D01*
X15098253Y-16231424D02*
X15107777Y-16240948D01*
X15107777Y-16240948D02*
X15117301Y-16259996D01*
X15117301Y-16259996D02*
X15117301Y-16317138D01*
X15117301Y-16317138D02*
X15107777Y-16336186D01*
X15107777Y-16336186D02*
X15098253Y-16345710D01*
X15098253Y-16345710D02*
X15079206Y-16355234D01*
X15079206Y-16355234D02*
X15050634Y-16355234D01*
X15231587Y-16355234D02*
X15212539Y-16345710D01*
X15212539Y-16345710D02*
X15203015Y-16326662D01*
X15203015Y-16326662D02*
X15203015Y-16155234D01*
X15383968Y-16345710D02*
X15364920Y-16355234D01*
X15364920Y-16355234D02*
X15326825Y-16355234D01*
X15326825Y-16355234D02*
X15307777Y-16345710D01*
X15307777Y-16345710D02*
X15298253Y-16326662D01*
X15298253Y-16326662D02*
X15298253Y-16250472D01*
X15298253Y-16250472D02*
X15307777Y-16231424D01*
X15307777Y-16231424D02*
X15326825Y-16221900D01*
X15326825Y-16221900D02*
X15364920Y-16221900D01*
X15364920Y-16221900D02*
X15383968Y-16231424D01*
X15383968Y-16231424D02*
X15393491Y-16250472D01*
X15393491Y-16250472D02*
X15393491Y-16269519D01*
X15393491Y-16269519D02*
X15298253Y-16288567D01*
X15469682Y-16345710D02*
X15488730Y-16355234D01*
X15488730Y-16355234D02*
X15526825Y-16355234D01*
X15526825Y-16355234D02*
X15545872Y-16345710D01*
X15545872Y-16345710D02*
X15555396Y-16326662D01*
X15555396Y-16326662D02*
X15555396Y-16317138D01*
X15555396Y-16317138D02*
X15545872Y-16298091D01*
X15545872Y-16298091D02*
X15526825Y-16288567D01*
X15526825Y-16288567D02*
X15498253Y-16288567D01*
X15498253Y-16288567D02*
X15479206Y-16279043D01*
X15479206Y-16279043D02*
X15469682Y-16259996D01*
X15469682Y-16259996D02*
X15469682Y-16250472D01*
X15469682Y-16250472D02*
X15479206Y-16231424D01*
X15479206Y-16231424D02*
X15498253Y-16221900D01*
X15498253Y-16221900D02*
X15526825Y-16221900D01*
X15526825Y-16221900D02*
X15545872Y-16231424D01*
X15622063Y-16431424D02*
X15631587Y-16421900D01*
X15631587Y-16421900D02*
X15650634Y-16393329D01*
X15650634Y-16393329D02*
X15660158Y-16374281D01*
X15660158Y-16374281D02*
X15669682Y-16345710D01*
X15669682Y-16345710D02*
X15679206Y-16298091D01*
X15679206Y-16298091D02*
X15679206Y-16259996D01*
X15679206Y-16259996D02*
X15669682Y-16212377D01*
X15669682Y-16212377D02*
X15660158Y-16183805D01*
X15660158Y-16183805D02*
X15650634Y-16164758D01*
X15650634Y-16164758D02*
X15631587Y-16136186D01*
X15631587Y-16136186D02*
X15622063Y-16126662D01*
X10647000Y-16427750D02*
X10847000Y-16627750D01*
X10847000Y-16427750D02*
X10647000Y-16627750D01*
X10817711Y-16598461D02*
X10817711Y-16457039D01*
X10676289Y-16457039D01*
X10676289Y-16598461D01*
X10817711Y-16598461D01*
X11193491Y-16485900D02*
X11193491Y-16619234D01*
X11145872Y-16409710D02*
X11098253Y-16552567D01*
X11098253Y-16552567D02*
X11222062Y-16552567D01*
X11298253Y-16600186D02*
X11307777Y-16609710D01*
X11307777Y-16609710D02*
X11298253Y-16619234D01*
X11298253Y-16619234D02*
X11288729Y-16609710D01*
X11288729Y-16609710D02*
X11298253Y-16600186D01*
X11298253Y-16600186D02*
X11298253Y-16619234D01*
X11431586Y-16419234D02*
X11450634Y-16419234D01*
X11450634Y-16419234D02*
X11469682Y-16428758D01*
X11469682Y-16428758D02*
X11479205Y-16438281D01*
X11479205Y-16438281D02*
X11488729Y-16457329D01*
X11488729Y-16457329D02*
X11498253Y-16495424D01*
X11498253Y-16495424D02*
X11498253Y-16543043D01*
X11498253Y-16543043D02*
X11488729Y-16581138D01*
X11488729Y-16581138D02*
X11479205Y-16600186D01*
X11479205Y-16600186D02*
X11469682Y-16609710D01*
X11469682Y-16609710D02*
X11450634Y-16619234D01*
X11450634Y-16619234D02*
X11431586Y-16619234D01*
X11431586Y-16619234D02*
X11412539Y-16609710D01*
X11412539Y-16609710D02*
X11403015Y-16600186D01*
X11403015Y-16600186D02*
X11393491Y-16581138D01*
X11393491Y-16581138D02*
X11383967Y-16543043D01*
X11383967Y-16543043D02*
X11383967Y-16495424D01*
X11383967Y-16495424D02*
X11393491Y-16457329D01*
X11393491Y-16457329D02*
X11403015Y-16438281D01*
X11403015Y-16438281D02*
X11412539Y-16428758D01*
X11412539Y-16428758D02*
X11431586Y-16419234D01*
X11622062Y-16419234D02*
X11641110Y-16419234D01*
X11641110Y-16419234D02*
X11660158Y-16428758D01*
X11660158Y-16428758D02*
X11669682Y-16438281D01*
X11669682Y-16438281D02*
X11679205Y-16457329D01*
X11679205Y-16457329D02*
X11688729Y-16495424D01*
X11688729Y-16495424D02*
X11688729Y-16543043D01*
X11688729Y-16543043D02*
X11679205Y-16581138D01*
X11679205Y-16581138D02*
X11669682Y-16600186D01*
X11669682Y-16600186D02*
X11660158Y-16609710D01*
X11660158Y-16609710D02*
X11641110Y-16619234D01*
X11641110Y-16619234D02*
X11622062Y-16619234D01*
X11622062Y-16619234D02*
X11603015Y-16609710D01*
X11603015Y-16609710D02*
X11593491Y-16600186D01*
X11593491Y-16600186D02*
X11583967Y-16581138D01*
X11583967Y-16581138D02*
X11574443Y-16543043D01*
X11574443Y-16543043D02*
X11574443Y-16495424D01*
X11574443Y-16495424D02*
X11583967Y-16457329D01*
X11583967Y-16457329D02*
X11593491Y-16438281D01*
X11593491Y-16438281D02*
X11603015Y-16428758D01*
X11603015Y-16428758D02*
X11622062Y-16419234D01*
X11812539Y-16419234D02*
X11831586Y-16419234D01*
X11831586Y-16419234D02*
X11850634Y-16428758D01*
X11850634Y-16428758D02*
X11860158Y-16438281D01*
X11860158Y-16438281D02*
X11869682Y-16457329D01*
X11869682Y-16457329D02*
X11879205Y-16495424D01*
X11879205Y-16495424D02*
X11879205Y-16543043D01*
X11879205Y-16543043D02*
X11869682Y-16581138D01*
X11869682Y-16581138D02*
X11860158Y-16600186D01*
X11860158Y-16600186D02*
X11850634Y-16609710D01*
X11850634Y-16609710D02*
X11831586Y-16619234D01*
X11831586Y-16619234D02*
X11812539Y-16619234D01*
X11812539Y-16619234D02*
X11793491Y-16609710D01*
X11793491Y-16609710D02*
X11783967Y-16600186D01*
X11783967Y-16600186D02*
X11774443Y-16581138D01*
X11774443Y-16581138D02*
X11764920Y-16543043D01*
X11764920Y-16543043D02*
X11764920Y-16495424D01*
X11764920Y-16495424D02*
X11774443Y-16457329D01*
X11774443Y-16457329D02*
X11783967Y-16438281D01*
X11783967Y-16438281D02*
X11793491Y-16428758D01*
X11793491Y-16428758D02*
X11812539Y-16419234D01*
X11964920Y-16619234D02*
X11964920Y-16485900D01*
X11964920Y-16504948D02*
X11974443Y-16495424D01*
X11974443Y-16495424D02*
X11993491Y-16485900D01*
X11993491Y-16485900D02*
X12022063Y-16485900D01*
X12022063Y-16485900D02*
X12041110Y-16495424D01*
X12041110Y-16495424D02*
X12050634Y-16514472D01*
X12050634Y-16514472D02*
X12050634Y-16619234D01*
X12050634Y-16514472D02*
X12060158Y-16495424D01*
X12060158Y-16495424D02*
X12079205Y-16485900D01*
X12079205Y-16485900D02*
X12107777Y-16485900D01*
X12107777Y-16485900D02*
X12126824Y-16495424D01*
X12126824Y-16495424D02*
X12136348Y-16514472D01*
X12136348Y-16514472D02*
X12136348Y-16619234D01*
X12231586Y-16619234D02*
X12231586Y-16485900D01*
X12231586Y-16504948D02*
X12241110Y-16495424D01*
X12241110Y-16495424D02*
X12260158Y-16485900D01*
X12260158Y-16485900D02*
X12288729Y-16485900D01*
X12288729Y-16485900D02*
X12307777Y-16495424D01*
X12307777Y-16495424D02*
X12317301Y-16514472D01*
X12317301Y-16514472D02*
X12317301Y-16619234D01*
X12317301Y-16514472D02*
X12326824Y-16495424D01*
X12326824Y-16495424D02*
X12345872Y-16485900D01*
X12345872Y-16485900D02*
X12374443Y-16485900D01*
X12374443Y-16485900D02*
X12393491Y-16495424D01*
X12393491Y-16495424D02*
X12403015Y-16514472D01*
X12403015Y-16514472D02*
X12403015Y-16619234D01*
X12793491Y-16409710D02*
X12622063Y-16666853D01*
X13050634Y-16419234D02*
X13069682Y-16419234D01*
X13069682Y-16419234D02*
X13088729Y-16428758D01*
X13088729Y-16428758D02*
X13098253Y-16438281D01*
X13098253Y-16438281D02*
X13107777Y-16457329D01*
X13107777Y-16457329D02*
X13117301Y-16495424D01*
X13117301Y-16495424D02*
X13117301Y-16543043D01*
X13117301Y-16543043D02*
X13107777Y-16581138D01*
X13107777Y-16581138D02*
X13098253Y-16600186D01*
X13098253Y-16600186D02*
X13088729Y-16609710D01*
X13088729Y-16609710D02*
X13069682Y-16619234D01*
X13069682Y-16619234D02*
X13050634Y-16619234D01*
X13050634Y-16619234D02*
X13031586Y-16609710D01*
X13031586Y-16609710D02*
X13022063Y-16600186D01*
X13022063Y-16600186D02*
X13012539Y-16581138D01*
X13012539Y-16581138D02*
X13003015Y-16543043D01*
X13003015Y-16543043D02*
X13003015Y-16495424D01*
X13003015Y-16495424D02*
X13012539Y-16457329D01*
X13012539Y-16457329D02*
X13022063Y-16438281D01*
X13022063Y-16438281D02*
X13031586Y-16428758D01*
X13031586Y-16428758D02*
X13050634Y-16419234D01*
X13203015Y-16600186D02*
X13212539Y-16609710D01*
X13212539Y-16609710D02*
X13203015Y-16619234D01*
X13203015Y-16619234D02*
X13193491Y-16609710D01*
X13193491Y-16609710D02*
X13203015Y-16600186D01*
X13203015Y-16600186D02*
X13203015Y-16619234D01*
X13403015Y-16619234D02*
X13288729Y-16619234D01*
X13345872Y-16619234D02*
X13345872Y-16419234D01*
X13345872Y-16419234D02*
X13326825Y-16447805D01*
X13326825Y-16447805D02*
X13307777Y-16466853D01*
X13307777Y-16466853D02*
X13288729Y-16476377D01*
X13583967Y-16419234D02*
X13488729Y-16419234D01*
X13488729Y-16419234D02*
X13479206Y-16514472D01*
X13479206Y-16514472D02*
X13488729Y-16504948D01*
X13488729Y-16504948D02*
X13507777Y-16495424D01*
X13507777Y-16495424D02*
X13555396Y-16495424D01*
X13555396Y-16495424D02*
X13574444Y-16504948D01*
X13574444Y-16504948D02*
X13583967Y-16514472D01*
X13583967Y-16514472D02*
X13593491Y-16533519D01*
X13593491Y-16533519D02*
X13593491Y-16581138D01*
X13593491Y-16581138D02*
X13583967Y-16600186D01*
X13583967Y-16600186D02*
X13574444Y-16609710D01*
X13574444Y-16609710D02*
X13555396Y-16619234D01*
X13555396Y-16619234D02*
X13507777Y-16619234D01*
X13507777Y-16619234D02*
X13488729Y-16609710D01*
X13488729Y-16609710D02*
X13479206Y-16600186D01*
X13660158Y-16419234D02*
X13793491Y-16419234D01*
X13793491Y-16419234D02*
X13707777Y-16619234D01*
X13964920Y-16419234D02*
X13869682Y-16419234D01*
X13869682Y-16419234D02*
X13860158Y-16514472D01*
X13860158Y-16514472D02*
X13869682Y-16504948D01*
X13869682Y-16504948D02*
X13888729Y-16495424D01*
X13888729Y-16495424D02*
X13936348Y-16495424D01*
X13936348Y-16495424D02*
X13955396Y-16504948D01*
X13955396Y-16504948D02*
X13964920Y-16514472D01*
X13964920Y-16514472D02*
X13974444Y-16533519D01*
X13974444Y-16533519D02*
X13974444Y-16581138D01*
X13974444Y-16581138D02*
X13964920Y-16600186D01*
X13964920Y-16600186D02*
X13955396Y-16609710D01*
X13955396Y-16609710D02*
X13936348Y-16619234D01*
X13936348Y-16619234D02*
X13888729Y-16619234D01*
X13888729Y-16619234D02*
X13869682Y-16609710D01*
X13869682Y-16609710D02*
X13860158Y-16600186D01*
X14050634Y-16419234D02*
X14050634Y-16457329D01*
X14126825Y-16419234D02*
X14126825Y-16457329D01*
X14422063Y-16695424D02*
X14412539Y-16685900D01*
X14412539Y-16685900D02*
X14393491Y-16657329D01*
X14393491Y-16657329D02*
X14383968Y-16638281D01*
X14383968Y-16638281D02*
X14374444Y-16609710D01*
X14374444Y-16609710D02*
X14364920Y-16562091D01*
X14364920Y-16562091D02*
X14364920Y-16523996D01*
X14364920Y-16523996D02*
X14374444Y-16476377D01*
X14374444Y-16476377D02*
X14383968Y-16447805D01*
X14383968Y-16447805D02*
X14393491Y-16428758D01*
X14393491Y-16428758D02*
X14412539Y-16400186D01*
X14412539Y-16400186D02*
X14422063Y-16390662D01*
X14479206Y-16419234D02*
X14603015Y-16419234D01*
X14603015Y-16419234D02*
X14536348Y-16495424D01*
X14536348Y-16495424D02*
X14564920Y-16495424D01*
X14564920Y-16495424D02*
X14583968Y-16504948D01*
X14583968Y-16504948D02*
X14593491Y-16514472D01*
X14593491Y-16514472D02*
X14603015Y-16533519D01*
X14603015Y-16533519D02*
X14603015Y-16581138D01*
X14603015Y-16581138D02*
X14593491Y-16600186D01*
X14593491Y-16600186D02*
X14583968Y-16609710D01*
X14583968Y-16609710D02*
X14564920Y-16619234D01*
X14564920Y-16619234D02*
X14507777Y-16619234D01*
X14507777Y-16619234D02*
X14488729Y-16609710D01*
X14488729Y-16609710D02*
X14479206Y-16600186D01*
X14841110Y-16619234D02*
X14841110Y-16419234D01*
X14926825Y-16619234D02*
X14926825Y-16514472D01*
X14926825Y-16514472D02*
X14917301Y-16495424D01*
X14917301Y-16495424D02*
X14898253Y-16485900D01*
X14898253Y-16485900D02*
X14869682Y-16485900D01*
X14869682Y-16485900D02*
X14850634Y-16495424D01*
X14850634Y-16495424D02*
X14841110Y-16504948D01*
X15050634Y-16619234D02*
X15031587Y-16609710D01*
X15031587Y-16609710D02*
X15022063Y-16600186D01*
X15022063Y-16600186D02*
X15012539Y-16581138D01*
X15012539Y-16581138D02*
X15012539Y-16523996D01*
X15012539Y-16523996D02*
X15022063Y-16504948D01*
X15022063Y-16504948D02*
X15031587Y-16495424D01*
X15031587Y-16495424D02*
X15050634Y-16485900D01*
X15050634Y-16485900D02*
X15079206Y-16485900D01*
X15079206Y-16485900D02*
X15098253Y-16495424D01*
X15098253Y-16495424D02*
X15107777Y-16504948D01*
X15107777Y-16504948D02*
X15117301Y-16523996D01*
X15117301Y-16523996D02*
X15117301Y-16581138D01*
X15117301Y-16581138D02*
X15107777Y-16600186D01*
X15107777Y-16600186D02*
X15098253Y-16609710D01*
X15098253Y-16609710D02*
X15079206Y-16619234D01*
X15079206Y-16619234D02*
X15050634Y-16619234D01*
X15231587Y-16619234D02*
X15212539Y-16609710D01*
X15212539Y-16609710D02*
X15203015Y-16590662D01*
X15203015Y-16590662D02*
X15203015Y-16419234D01*
X15383968Y-16609710D02*
X15364920Y-16619234D01*
X15364920Y-16619234D02*
X15326825Y-16619234D01*
X15326825Y-16619234D02*
X15307777Y-16609710D01*
X15307777Y-16609710D02*
X15298253Y-16590662D01*
X15298253Y-16590662D02*
X15298253Y-16514472D01*
X15298253Y-16514472D02*
X15307777Y-16495424D01*
X15307777Y-16495424D02*
X15326825Y-16485900D01*
X15326825Y-16485900D02*
X15364920Y-16485900D01*
X15364920Y-16485900D02*
X15383968Y-16495424D01*
X15383968Y-16495424D02*
X15393491Y-16514472D01*
X15393491Y-16514472D02*
X15393491Y-16533519D01*
X15393491Y-16533519D02*
X15298253Y-16552567D01*
X15469682Y-16609710D02*
X15488730Y-16619234D01*
X15488730Y-16619234D02*
X15526825Y-16619234D01*
X15526825Y-16619234D02*
X15545872Y-16609710D01*
X15545872Y-16609710D02*
X15555396Y-16590662D01*
X15555396Y-16590662D02*
X15555396Y-16581138D01*
X15555396Y-16581138D02*
X15545872Y-16562091D01*
X15545872Y-16562091D02*
X15526825Y-16552567D01*
X15526825Y-16552567D02*
X15498253Y-16552567D01*
X15498253Y-16552567D02*
X15479206Y-16543043D01*
X15479206Y-16543043D02*
X15469682Y-16523996D01*
X15469682Y-16523996D02*
X15469682Y-16514472D01*
X15469682Y-16514472D02*
X15479206Y-16495424D01*
X15479206Y-16495424D02*
X15498253Y-16485900D01*
X15498253Y-16485900D02*
X15526825Y-16485900D01*
X15526825Y-16485900D02*
X15545872Y-16495424D01*
X15622063Y-16695424D02*
X15631587Y-16685900D01*
X15631587Y-16685900D02*
X15650634Y-16657329D01*
X15650634Y-16657329D02*
X15660158Y-16638281D01*
X15660158Y-16638281D02*
X15669682Y-16609710D01*
X15669682Y-16609710D02*
X15679206Y-16562091D01*
X15679206Y-16562091D02*
X15679206Y-16523996D01*
X15679206Y-16523996D02*
X15669682Y-16476377D01*
X15669682Y-16476377D02*
X15660158Y-16447805D01*
X15660158Y-16447805D02*
X15650634Y-16428758D01*
X15650634Y-16428758D02*
X15631587Y-16400186D01*
X15631587Y-16400186D02*
X15622063Y-16390662D01*
M02*
