G04 #@! TF.GenerationSoftware,KiCad,Pcbnew,7.0.8*
G04 #@! TF.CreationDate,2023-11-10T10:01:46+08:00*
G04 #@! TF.ProjectId,ESPCARproject,45535043-4152-4707-926f-6a6563742e6b,rev?*
G04 #@! TF.SameCoordinates,Original*
G04 #@! TF.FileFunction,Legend,Top*
G04 #@! TF.FilePolarity,Positive*
%FSLAX46Y46*%
G04 Gerber Fmt 4.6, Leading zero omitted, Abs format (unit mm)*
G04 Created by KiCad (PCBNEW 7.0.8) date 2023-11-10 10:01:46*
%MOMM*%
%LPD*%
G01*
G04 APERTURE LIST*
G04 Aperture macros list*
%AMRoundRect*
0 Rectangle with rounded corners*
0 $1 Rounding radius*
0 $2 $3 $4 $5 $6 $7 $8 $9 X,Y pos of 4 corners*
0 Add a 4 corners polygon primitive as box body*
4,1,4,$2,$3,$4,$5,$6,$7,$8,$9,$2,$3,0*
0 Add four circle primitives for the rounded corners*
1,1,$1+$1,$2,$3*
1,1,$1+$1,$4,$5*
1,1,$1+$1,$6,$7*
1,1,$1+$1,$8,$9*
0 Add four rect primitives between the rounded corners*
20,1,$1+$1,$2,$3,$4,$5,0*
20,1,$1+$1,$4,$5,$6,$7,0*
20,1,$1+$1,$6,$7,$8,$9,0*
20,1,$1+$1,$8,$9,$2,$3,0*%
G04 Aperture macros list end*
%ADD10C,0.150000*%
%ADD11C,0.100000*%
%ADD12C,0.127000*%
%ADD13C,0.120000*%
%ADD14C,0.200000*%
%ADD15RoundRect,0.102000X0.500000X0.700000X-0.500000X0.700000X-0.500000X-0.700000X0.500000X-0.700000X0*%
%ADD16RoundRect,0.237500X0.237500X-0.250000X0.237500X0.250000X-0.237500X0.250000X-0.237500X-0.250000X0*%
%ADD17C,0.650000*%
%ADD18RoundRect,0.102000X-0.570000X0.150000X-0.570000X-0.150000X0.570000X-0.150000X0.570000X0.150000X0*%
%ADD19O,2.204000X1.204000*%
%ADD20O,2.004000X1.104000*%
%ADD21RoundRect,0.237500X-0.237500X0.250000X-0.237500X-0.250000X0.237500X-0.250000X0.237500X0.250000X0*%
%ADD22RoundRect,0.237500X-0.250000X-0.237500X0.250000X-0.237500X0.250000X0.237500X-0.250000X0.237500X0*%
%ADD23R,1.700000X1.700000*%
%ADD24O,1.700000X1.700000*%
%ADD25RoundRect,0.237500X0.237500X-0.300000X0.237500X0.300000X-0.237500X0.300000X-0.237500X-0.300000X0*%
%ADD26RoundRect,0.237500X-0.237500X0.300000X-0.237500X-0.300000X0.237500X-0.300000X0.237500X0.300000X0*%
%ADD27RoundRect,0.200000X-0.200000X-0.800000X0.200000X-0.800000X0.200000X0.800000X-0.200000X0.800000X0*%
%ADD28RoundRect,0.237500X0.300000X0.237500X-0.300000X0.237500X-0.300000X-0.237500X0.300000X-0.237500X0*%
%ADD29RoundRect,0.144000X-0.943000X-0.258000X0.943000X-0.258000X0.943000X0.258000X-0.943000X0.258000X0*%
%ADD30RoundRect,0.102000X-1.206500X-1.651000X1.206500X-1.651000X1.206500X1.651000X-1.206500X1.651000X0*%
%ADD31RoundRect,0.237500X0.237500X-0.287500X0.237500X0.287500X-0.237500X0.287500X-0.237500X-0.287500X0*%
%ADD32RoundRect,0.150000X-0.200000X0.150000X-0.200000X-0.150000X0.200000X-0.150000X0.200000X0.150000X0*%
%ADD33RoundRect,0.237500X0.250000X0.237500X-0.250000X0.237500X-0.250000X-0.237500X0.250000X-0.237500X0*%
%ADD34RoundRect,0.237500X-0.300000X-0.237500X0.300000X-0.237500X0.300000X0.237500X-0.300000X0.237500X0*%
%ADD35R,1.500000X0.900000*%
%ADD36R,0.900000X1.500000*%
%ADD37C,0.600000*%
%ADD38R,4.200000X4.200000*%
%ADD39RoundRect,0.150000X0.150000X-0.587500X0.150000X0.587500X-0.150000X0.587500X-0.150000X-0.587500X0*%
%ADD40C,3.000000*%
%ADD41RoundRect,0.250000X-0.650000X0.412500X-0.650000X-0.412500X0.650000X-0.412500X0.650000X0.412500X0*%
%ADD42RoundRect,0.150000X0.200000X-0.150000X0.200000X0.150000X-0.200000X0.150000X-0.200000X-0.150000X0*%
%ADD43R,0.400000X1.100000*%
%ADD44RoundRect,0.237500X0.287500X0.237500X-0.287500X0.237500X-0.287500X-0.237500X0.287500X-0.237500X0*%
%ADD45R,1.600000X1.600000*%
%ADD46C,1.600000*%
%ADD47RoundRect,0.150000X0.512500X0.150000X-0.512500X0.150000X-0.512500X-0.150000X0.512500X-0.150000X0*%
%ADD48RoundRect,0.250000X-0.350000X0.850000X-0.350000X-0.850000X0.350000X-0.850000X0.350000X0.850000X0*%
%ADD49RoundRect,0.249997X-2.650003X2.950003X-2.650003X-2.950003X2.650003X-2.950003X2.650003X2.950003X0*%
%ADD50RoundRect,0.250000X0.412500X0.650000X-0.412500X0.650000X-0.412500X-0.650000X0.412500X-0.650000X0*%
%ADD51C,3.200000*%
%ADD52O,2.274000X4.344000*%
%ADD53R,1.750000X0.450000*%
%ADD54RoundRect,0.062500X-0.337500X-0.062500X0.337500X-0.062500X0.337500X0.062500X-0.337500X0.062500X0*%
%ADD55RoundRect,0.062500X-0.062500X-0.337500X0.062500X-0.337500X0.062500X0.337500X-0.062500X0.337500X0*%
%ADD56R,3.350000X3.350000*%
%ADD57C,9.000000*%
%ADD58RoundRect,0.250000X-0.412500X-0.650000X0.412500X-0.650000X0.412500X0.650000X-0.412500X0.650000X0*%
%ADD59RoundRect,0.373135X0.876865X1.126865X-0.876865X1.126865X-0.876865X-1.126865X0.876865X-1.126865X0*%
G04 APERTURE END LIST*
D10*
X161672857Y-85413057D02*
X161672857Y-84513057D01*
X161672857Y-84513057D02*
X162130000Y-85413057D01*
X162130000Y-85413057D02*
X162130000Y-84513057D01*
X162472856Y-85155914D02*
X162853809Y-85155914D01*
X162396666Y-85413057D02*
X162663333Y-84513057D01*
X162663333Y-84513057D02*
X162929999Y-85413057D01*
X163196666Y-85413057D02*
X163196666Y-84513057D01*
X163196666Y-84513057D02*
X163653809Y-85413057D01*
X163653809Y-85413057D02*
X163653809Y-84513057D01*
X164034761Y-85413057D02*
X164034761Y-84513057D01*
X164034761Y-84513057D02*
X164225237Y-84513057D01*
X164225237Y-84513057D02*
X164339523Y-84555914D01*
X164339523Y-84555914D02*
X164415713Y-84641628D01*
X164415713Y-84641628D02*
X164453808Y-84727342D01*
X164453808Y-84727342D02*
X164491904Y-84898771D01*
X164491904Y-84898771D02*
X164491904Y-85027342D01*
X164491904Y-85027342D02*
X164453808Y-85198771D01*
X164453808Y-85198771D02*
X164415713Y-85284485D01*
X164415713Y-85284485D02*
X164339523Y-85370200D01*
X164339523Y-85370200D02*
X164225237Y-85413057D01*
X164225237Y-85413057D02*
X164034761Y-85413057D01*
X165787142Y-85370200D02*
X165710951Y-85413057D01*
X165710951Y-85413057D02*
X165558570Y-85413057D01*
X165558570Y-85413057D02*
X165482380Y-85370200D01*
X165482380Y-85370200D02*
X165444285Y-85327342D01*
X165444285Y-85327342D02*
X165406189Y-85241628D01*
X165406189Y-85241628D02*
X165406189Y-84984485D01*
X165406189Y-84984485D02*
X165444285Y-84898771D01*
X165444285Y-84898771D02*
X165482380Y-84855914D01*
X165482380Y-84855914D02*
X165558570Y-84813057D01*
X165558570Y-84813057D02*
X165710951Y-84813057D01*
X165710951Y-84813057D02*
X165787142Y-84855914D01*
X166053808Y-84813057D02*
X166244284Y-85413057D01*
X166434761Y-84813057D02*
X166244284Y-85413057D01*
X166244284Y-85413057D02*
X166168094Y-85627342D01*
X166168094Y-85627342D02*
X166129999Y-85670200D01*
X166129999Y-85670200D02*
X166053808Y-85713057D01*
X166739523Y-84813057D02*
X166739523Y-85713057D01*
X166739523Y-84855914D02*
X166815713Y-84813057D01*
X166815713Y-84813057D02*
X166968094Y-84813057D01*
X166968094Y-84813057D02*
X167044285Y-84855914D01*
X167044285Y-84855914D02*
X167082380Y-84898771D01*
X167082380Y-84898771D02*
X167120475Y-84984485D01*
X167120475Y-84984485D02*
X167120475Y-85241628D01*
X167120475Y-85241628D02*
X167082380Y-85327342D01*
X167082380Y-85327342D02*
X167044285Y-85370200D01*
X167044285Y-85370200D02*
X166968094Y-85413057D01*
X166968094Y-85413057D02*
X166815713Y-85413057D01*
X166815713Y-85413057D02*
X166739523Y-85370200D01*
X167463333Y-85413057D02*
X167463333Y-84813057D01*
X167463333Y-84813057D02*
X167768095Y-84813057D01*
X168377619Y-85413057D02*
X168377619Y-84941628D01*
X168377619Y-84941628D02*
X168339524Y-84855914D01*
X168339524Y-84855914D02*
X168263333Y-84813057D01*
X168263333Y-84813057D02*
X168110952Y-84813057D01*
X168110952Y-84813057D02*
X168034762Y-84855914D01*
X168377619Y-85370200D02*
X168301428Y-85413057D01*
X168301428Y-85413057D02*
X168110952Y-85413057D01*
X168110952Y-85413057D02*
X168034762Y-85370200D01*
X168034762Y-85370200D02*
X167996666Y-85284485D01*
X167996666Y-85284485D02*
X167996666Y-85198771D01*
X167996666Y-85198771D02*
X168034762Y-85113057D01*
X168034762Y-85113057D02*
X168110952Y-85070200D01*
X168110952Y-85070200D02*
X168301428Y-85070200D01*
X168301428Y-85070200D02*
X168377619Y-85027342D01*
X169063334Y-85413057D02*
X169063334Y-84813057D01*
X169063334Y-84813057D02*
X168949048Y-84813057D01*
X168949048Y-84813057D02*
X168872857Y-84855914D01*
X168872857Y-84855914D02*
X168834762Y-84941628D01*
X168834762Y-84941628D02*
X168796667Y-85284485D01*
X168796667Y-85284485D02*
X168758572Y-85370200D01*
X168758572Y-85370200D02*
X168682381Y-85413057D01*
X169330000Y-84813057D02*
X169710952Y-84813057D01*
X169520476Y-84813057D02*
X169520476Y-85413057D01*
X170510952Y-84813057D02*
X170510952Y-85413057D01*
X169977619Y-84813057D02*
X169977619Y-85413057D01*
X169977619Y-85413057D02*
X170168095Y-85413057D01*
X170168095Y-85413057D02*
X170244285Y-85370200D01*
X170244285Y-85370200D02*
X170282381Y-85284485D01*
X170282381Y-85284485D02*
X170282381Y-85155914D01*
X170282381Y-85155914D02*
X170244285Y-85070200D01*
X170244285Y-85070200D02*
X170168095Y-85027342D01*
X170168095Y-85027342D02*
X169977619Y-85027342D01*
X170891905Y-85113057D02*
X171234762Y-85113057D01*
X170891905Y-84813057D02*
X170891905Y-85413057D01*
X171234762Y-84813057D02*
X171234762Y-85413057D01*
X172110953Y-84813057D02*
X172491905Y-84813057D01*
X172301429Y-84813057D02*
X172301429Y-85413057D01*
X172720476Y-85113057D02*
X173139524Y-85113057D01*
X172872857Y-85413057D02*
X172796667Y-85370200D01*
X172796667Y-85370200D02*
X172758572Y-85327342D01*
X172758572Y-85327342D02*
X172720476Y-85241628D01*
X172720476Y-85241628D02*
X172720476Y-84984485D01*
X172720476Y-84984485D02*
X172758572Y-84898771D01*
X172758572Y-84898771D02*
X172796667Y-84855914D01*
X172796667Y-84855914D02*
X172872857Y-84813057D01*
X172872857Y-84813057D02*
X172987143Y-84813057D01*
X172987143Y-84813057D02*
X173063334Y-84855914D01*
X173063334Y-84855914D02*
X173101429Y-84898771D01*
X173101429Y-84898771D02*
X173139524Y-84984485D01*
X173139524Y-84984485D02*
X173139524Y-85241628D01*
X173139524Y-85241628D02*
X173101429Y-85327342D01*
X173101429Y-85327342D02*
X173063334Y-85370200D01*
X173063334Y-85370200D02*
X172987143Y-85413057D01*
X172987143Y-85413057D02*
X172872857Y-85413057D01*
X173672858Y-85113057D02*
X173787144Y-85155914D01*
X173787144Y-85155914D02*
X173825239Y-85241628D01*
X173825239Y-85241628D02*
X173825239Y-85284485D01*
X173825239Y-85284485D02*
X173787144Y-85370200D01*
X173787144Y-85370200D02*
X173710953Y-85413057D01*
X173710953Y-85413057D02*
X173482382Y-85413057D01*
X173482382Y-85413057D02*
X173482382Y-84813057D01*
X173482382Y-84813057D02*
X173672858Y-84813057D01*
X173672858Y-84813057D02*
X173749048Y-84855914D01*
X173749048Y-84855914D02*
X173787144Y-84941628D01*
X173787144Y-84941628D02*
X173787144Y-84984485D01*
X173787144Y-84984485D02*
X173749048Y-85070200D01*
X173749048Y-85070200D02*
X173672858Y-85113057D01*
X173672858Y-85113057D02*
X173482382Y-85113057D01*
X162053808Y-86862057D02*
X162053808Y-86262057D01*
X162053808Y-86262057D02*
X162282379Y-86733485D01*
X162282379Y-86733485D02*
X162510951Y-86262057D01*
X162510951Y-86262057D02*
X162510951Y-86862057D01*
X163234760Y-86862057D02*
X163234760Y-86390628D01*
X163234760Y-86390628D02*
X163196665Y-86304914D01*
X163196665Y-86304914D02*
X163120474Y-86262057D01*
X163120474Y-86262057D02*
X162968093Y-86262057D01*
X162968093Y-86262057D02*
X162891903Y-86304914D01*
X163234760Y-86819200D02*
X163158569Y-86862057D01*
X163158569Y-86862057D02*
X162968093Y-86862057D01*
X162968093Y-86862057D02*
X162891903Y-86819200D01*
X162891903Y-86819200D02*
X162853807Y-86733485D01*
X162853807Y-86733485D02*
X162853807Y-86647771D01*
X162853807Y-86647771D02*
X162891903Y-86562057D01*
X162891903Y-86562057D02*
X162968093Y-86519200D01*
X162968093Y-86519200D02*
X163158569Y-86519200D01*
X163158569Y-86519200D02*
X163234760Y-86476342D01*
X163882379Y-86262057D02*
X163882379Y-86862057D01*
X163615713Y-86262057D02*
X163615713Y-86862057D01*
X163615713Y-86862057D02*
X164149046Y-86862057D01*
X164149046Y-86862057D02*
X164149046Y-86262057D01*
X164529999Y-86262057D02*
X164529999Y-86862057D01*
X164529999Y-86862057D02*
X164910951Y-86262057D01*
X164910951Y-86262057D02*
X164910951Y-86862057D01*
X165291904Y-86562057D02*
X165634761Y-86562057D01*
X165291904Y-86262057D02*
X165291904Y-86862057D01*
X165634761Y-86262057D02*
X165634761Y-86862057D01*
X166701428Y-86562057D02*
X166777619Y-86562057D01*
X166549047Y-86304914D02*
X166625238Y-86262057D01*
X166625238Y-86262057D02*
X166777619Y-86262057D01*
X166777619Y-86262057D02*
X166853809Y-86304914D01*
X166853809Y-86304914D02*
X166891904Y-86390628D01*
X166891904Y-86390628D02*
X166891904Y-86433485D01*
X166891904Y-86433485D02*
X166853809Y-86519200D01*
X166853809Y-86519200D02*
X166777619Y-86562057D01*
X166777619Y-86562057D02*
X166853809Y-86604914D01*
X166853809Y-86604914D02*
X166891904Y-86690628D01*
X166891904Y-86690628D02*
X166891904Y-86733485D01*
X166891904Y-86733485D02*
X166853809Y-86819200D01*
X166853809Y-86819200D02*
X166777619Y-86862057D01*
X166777619Y-86862057D02*
X166625238Y-86862057D01*
X166625238Y-86862057D02*
X166549047Y-86819200D01*
X167577619Y-86862057D02*
X167577619Y-86390628D01*
X167577619Y-86390628D02*
X167539524Y-86304914D01*
X167539524Y-86304914D02*
X167463333Y-86262057D01*
X167463333Y-86262057D02*
X167310952Y-86262057D01*
X167310952Y-86262057D02*
X167234762Y-86304914D01*
X167577619Y-86819200D02*
X167501428Y-86862057D01*
X167501428Y-86862057D02*
X167310952Y-86862057D01*
X167310952Y-86862057D02*
X167234762Y-86819200D01*
X167234762Y-86819200D02*
X167196666Y-86733485D01*
X167196666Y-86733485D02*
X167196666Y-86647771D01*
X167196666Y-86647771D02*
X167234762Y-86562057D01*
X167234762Y-86562057D02*
X167310952Y-86519200D01*
X167310952Y-86519200D02*
X167501428Y-86519200D01*
X167501428Y-86519200D02*
X167577619Y-86476342D01*
X167958572Y-86862057D02*
X167958572Y-86262057D01*
X167958572Y-86262057D02*
X168263334Y-86262057D01*
X168720477Y-86562057D02*
X168834763Y-86604914D01*
X168834763Y-86604914D02*
X168872858Y-86690628D01*
X168872858Y-86690628D02*
X168872858Y-86733485D01*
X168872858Y-86733485D02*
X168834763Y-86819200D01*
X168834763Y-86819200D02*
X168758572Y-86862057D01*
X168758572Y-86862057D02*
X168530001Y-86862057D01*
X168530001Y-86862057D02*
X168530001Y-86262057D01*
X168530001Y-86262057D02*
X168720477Y-86262057D01*
X168720477Y-86262057D02*
X168796667Y-86304914D01*
X168796667Y-86304914D02*
X168834763Y-86390628D01*
X168834763Y-86390628D02*
X168834763Y-86433485D01*
X168834763Y-86433485D02*
X168796667Y-86519200D01*
X168796667Y-86519200D02*
X168720477Y-86562057D01*
X168720477Y-86562057D02*
X168530001Y-86562057D01*
X169558572Y-86862057D02*
X169558572Y-86390628D01*
X169558572Y-86390628D02*
X169520477Y-86304914D01*
X169520477Y-86304914D02*
X169444286Y-86262057D01*
X169444286Y-86262057D02*
X169291905Y-86262057D01*
X169291905Y-86262057D02*
X169215715Y-86304914D01*
X169558572Y-86819200D02*
X169482381Y-86862057D01*
X169482381Y-86862057D02*
X169291905Y-86862057D01*
X169291905Y-86862057D02*
X169215715Y-86819200D01*
X169215715Y-86819200D02*
X169177619Y-86733485D01*
X169177619Y-86733485D02*
X169177619Y-86647771D01*
X169177619Y-86647771D02*
X169215715Y-86562057D01*
X169215715Y-86562057D02*
X169291905Y-86519200D01*
X169291905Y-86519200D02*
X169482381Y-86519200D01*
X169482381Y-86519200D02*
X169558572Y-86476342D01*
X169939525Y-86262057D02*
X169939525Y-87162057D01*
X169939525Y-86304914D02*
X170015715Y-86262057D01*
X170015715Y-86262057D02*
X170168096Y-86262057D01*
X170168096Y-86262057D02*
X170244287Y-86304914D01*
X170244287Y-86304914D02*
X170282382Y-86347771D01*
X170282382Y-86347771D02*
X170320477Y-86433485D01*
X170320477Y-86433485D02*
X170320477Y-86690628D01*
X170320477Y-86690628D02*
X170282382Y-86776342D01*
X170282382Y-86776342D02*
X170244287Y-86819200D01*
X170244287Y-86819200D02*
X170168096Y-86862057D01*
X170168096Y-86862057D02*
X170015715Y-86862057D01*
X170015715Y-86862057D02*
X169939525Y-86819200D01*
X171196668Y-86262057D02*
X171387144Y-86862057D01*
X171387144Y-86862057D02*
X171577621Y-86262057D01*
X172301430Y-86862057D02*
X171844287Y-86862057D01*
X172072859Y-86862057D02*
X172072859Y-85962057D01*
X172072859Y-85962057D02*
X171996668Y-86090628D01*
X171996668Y-86090628D02*
X171920478Y-86176342D01*
X171920478Y-86176342D02*
X171844287Y-86219200D01*
X172644288Y-86776342D02*
X172682383Y-86819200D01*
X172682383Y-86819200D02*
X172644288Y-86862057D01*
X172644288Y-86862057D02*
X172606192Y-86819200D01*
X172606192Y-86819200D02*
X172644288Y-86776342D01*
X172644288Y-86776342D02*
X172644288Y-86862057D01*
X173177621Y-85962057D02*
X173253811Y-85962057D01*
X173253811Y-85962057D02*
X173330002Y-86004914D01*
X173330002Y-86004914D02*
X173368097Y-86047771D01*
X173368097Y-86047771D02*
X173406192Y-86133485D01*
X173406192Y-86133485D02*
X173444287Y-86304914D01*
X173444287Y-86304914D02*
X173444287Y-86519200D01*
X173444287Y-86519200D02*
X173406192Y-86690628D01*
X173406192Y-86690628D02*
X173368097Y-86776342D01*
X173368097Y-86776342D02*
X173330002Y-86819200D01*
X173330002Y-86819200D02*
X173253811Y-86862057D01*
X173253811Y-86862057D02*
X173177621Y-86862057D01*
X173177621Y-86862057D02*
X173101430Y-86819200D01*
X173101430Y-86819200D02*
X173063335Y-86776342D01*
X173063335Y-86776342D02*
X173025240Y-86690628D01*
X173025240Y-86690628D02*
X172987144Y-86519200D01*
X172987144Y-86519200D02*
X172987144Y-86304914D01*
X172987144Y-86304914D02*
X173025240Y-86133485D01*
X173025240Y-86133485D02*
X173063335Y-86047771D01*
X173063335Y-86047771D02*
X173101430Y-86004914D01*
X173101430Y-86004914D02*
X173177621Y-85962057D01*
D11*
X122852857Y-79339514D02*
X122795714Y-79310942D01*
X122795714Y-79310942D02*
X122738571Y-79253800D01*
X122738571Y-79253800D02*
X122652857Y-79168085D01*
X122652857Y-79168085D02*
X122595714Y-79139514D01*
X122595714Y-79139514D02*
X122538571Y-79139514D01*
X122567142Y-79282371D02*
X122510000Y-79253800D01*
X122510000Y-79253800D02*
X122452857Y-79196657D01*
X122452857Y-79196657D02*
X122424285Y-79082371D01*
X122424285Y-79082371D02*
X122424285Y-78882371D01*
X122424285Y-78882371D02*
X122452857Y-78768085D01*
X122452857Y-78768085D02*
X122510000Y-78710942D01*
X122510000Y-78710942D02*
X122567142Y-78682371D01*
X122567142Y-78682371D02*
X122681428Y-78682371D01*
X122681428Y-78682371D02*
X122738571Y-78710942D01*
X122738571Y-78710942D02*
X122795714Y-78768085D01*
X122795714Y-78768085D02*
X122824285Y-78882371D01*
X122824285Y-78882371D02*
X122824285Y-79082371D01*
X122824285Y-79082371D02*
X122795714Y-79196657D01*
X122795714Y-79196657D02*
X122738571Y-79253800D01*
X122738571Y-79253800D02*
X122681428Y-79282371D01*
X122681428Y-79282371D02*
X122567142Y-79282371D01*
X123052856Y-78739514D02*
X123081428Y-78710942D01*
X123081428Y-78710942D02*
X123138571Y-78682371D01*
X123138571Y-78682371D02*
X123281428Y-78682371D01*
X123281428Y-78682371D02*
X123338571Y-78710942D01*
X123338571Y-78710942D02*
X123367142Y-78739514D01*
X123367142Y-78739514D02*
X123395713Y-78796657D01*
X123395713Y-78796657D02*
X123395713Y-78853800D01*
X123395713Y-78853800D02*
X123367142Y-78939514D01*
X123367142Y-78939514D02*
X123024285Y-79282371D01*
X123024285Y-79282371D02*
X123395713Y-79282371D01*
X125222371Y-104195714D02*
X124936657Y-104395714D01*
X125222371Y-104538571D02*
X124622371Y-104538571D01*
X124622371Y-104538571D02*
X124622371Y-104310000D01*
X124622371Y-104310000D02*
X124650942Y-104252857D01*
X124650942Y-104252857D02*
X124679514Y-104224286D01*
X124679514Y-104224286D02*
X124736657Y-104195714D01*
X124736657Y-104195714D02*
X124822371Y-104195714D01*
X124822371Y-104195714D02*
X124879514Y-104224286D01*
X124879514Y-104224286D02*
X124908085Y-104252857D01*
X124908085Y-104252857D02*
X124936657Y-104310000D01*
X124936657Y-104310000D02*
X124936657Y-104538571D01*
X124622371Y-103995714D02*
X124622371Y-103624286D01*
X124622371Y-103624286D02*
X124850942Y-103824286D01*
X124850942Y-103824286D02*
X124850942Y-103738571D01*
X124850942Y-103738571D02*
X124879514Y-103681429D01*
X124879514Y-103681429D02*
X124908085Y-103652857D01*
X124908085Y-103652857D02*
X124965228Y-103624286D01*
X124965228Y-103624286D02*
X125108085Y-103624286D01*
X125108085Y-103624286D02*
X125165228Y-103652857D01*
X125165228Y-103652857D02*
X125193800Y-103681429D01*
X125193800Y-103681429D02*
X125222371Y-103738571D01*
X125222371Y-103738571D02*
X125222371Y-103910000D01*
X125222371Y-103910000D02*
X125193800Y-103967143D01*
X125193800Y-103967143D02*
X125165228Y-103995714D01*
X124622371Y-103424285D02*
X124622371Y-103052857D01*
X124622371Y-103052857D02*
X124850942Y-103252857D01*
X124850942Y-103252857D02*
X124850942Y-103167142D01*
X124850942Y-103167142D02*
X124879514Y-103110000D01*
X124879514Y-103110000D02*
X124908085Y-103081428D01*
X124908085Y-103081428D02*
X124965228Y-103052857D01*
X124965228Y-103052857D02*
X125108085Y-103052857D01*
X125108085Y-103052857D02*
X125165228Y-103081428D01*
X125165228Y-103081428D02*
X125193800Y-103110000D01*
X125193800Y-103110000D02*
X125222371Y-103167142D01*
X125222371Y-103167142D02*
X125222371Y-103338571D01*
X125222371Y-103338571D02*
X125193800Y-103395714D01*
X125193800Y-103395714D02*
X125165228Y-103424285D01*
D10*
X118159819Y-83428333D02*
X118874104Y-83428333D01*
X118874104Y-83428333D02*
X119016961Y-83475952D01*
X119016961Y-83475952D02*
X119112200Y-83571190D01*
X119112200Y-83571190D02*
X119159819Y-83714047D01*
X119159819Y-83714047D02*
X119159819Y-83809285D01*
X118255057Y-82999761D02*
X118207438Y-82952142D01*
X118207438Y-82952142D02*
X118159819Y-82856904D01*
X118159819Y-82856904D02*
X118159819Y-82618809D01*
X118159819Y-82618809D02*
X118207438Y-82523571D01*
X118207438Y-82523571D02*
X118255057Y-82475952D01*
X118255057Y-82475952D02*
X118350295Y-82428333D01*
X118350295Y-82428333D02*
X118445533Y-82428333D01*
X118445533Y-82428333D02*
X118588390Y-82475952D01*
X118588390Y-82475952D02*
X119159819Y-83047380D01*
X119159819Y-83047380D02*
X119159819Y-82428333D01*
D11*
X119304285Y-62179871D02*
X119104285Y-61894157D01*
X118961428Y-62179871D02*
X118961428Y-61579871D01*
X118961428Y-61579871D02*
X119189999Y-61579871D01*
X119189999Y-61579871D02*
X119247142Y-61608442D01*
X119247142Y-61608442D02*
X119275713Y-61637014D01*
X119275713Y-61637014D02*
X119304285Y-61694157D01*
X119304285Y-61694157D02*
X119304285Y-61779871D01*
X119304285Y-61779871D02*
X119275713Y-61837014D01*
X119275713Y-61837014D02*
X119247142Y-61865585D01*
X119247142Y-61865585D02*
X119189999Y-61894157D01*
X119189999Y-61894157D02*
X118961428Y-61894157D01*
X119504285Y-61579871D02*
X119875713Y-61579871D01*
X119875713Y-61579871D02*
X119675713Y-61808442D01*
X119675713Y-61808442D02*
X119761428Y-61808442D01*
X119761428Y-61808442D02*
X119818571Y-61837014D01*
X119818571Y-61837014D02*
X119847142Y-61865585D01*
X119847142Y-61865585D02*
X119875713Y-61922728D01*
X119875713Y-61922728D02*
X119875713Y-62065585D01*
X119875713Y-62065585D02*
X119847142Y-62122728D01*
X119847142Y-62122728D02*
X119818571Y-62151300D01*
X119818571Y-62151300D02*
X119761428Y-62179871D01*
X119761428Y-62179871D02*
X119589999Y-62179871D01*
X119589999Y-62179871D02*
X119532856Y-62151300D01*
X119532856Y-62151300D02*
X119504285Y-62122728D01*
X120247142Y-61579871D02*
X120304285Y-61579871D01*
X120304285Y-61579871D02*
X120361428Y-61608442D01*
X120361428Y-61608442D02*
X120390000Y-61637014D01*
X120390000Y-61637014D02*
X120418571Y-61694157D01*
X120418571Y-61694157D02*
X120447142Y-61808442D01*
X120447142Y-61808442D02*
X120447142Y-61951300D01*
X120447142Y-61951300D02*
X120418571Y-62065585D01*
X120418571Y-62065585D02*
X120390000Y-62122728D01*
X120390000Y-62122728D02*
X120361428Y-62151300D01*
X120361428Y-62151300D02*
X120304285Y-62179871D01*
X120304285Y-62179871D02*
X120247142Y-62179871D01*
X120247142Y-62179871D02*
X120190000Y-62151300D01*
X120190000Y-62151300D02*
X120161428Y-62122728D01*
X120161428Y-62122728D02*
X120132857Y-62065585D01*
X120132857Y-62065585D02*
X120104285Y-61951300D01*
X120104285Y-61951300D02*
X120104285Y-61808442D01*
X120104285Y-61808442D02*
X120132857Y-61694157D01*
X120132857Y-61694157D02*
X120161428Y-61637014D01*
X120161428Y-61637014D02*
X120190000Y-61608442D01*
X120190000Y-61608442D02*
X120247142Y-61579871D01*
X180054285Y-66207371D02*
X179854285Y-65921657D01*
X179711428Y-66207371D02*
X179711428Y-65607371D01*
X179711428Y-65607371D02*
X179939999Y-65607371D01*
X179939999Y-65607371D02*
X179997142Y-65635942D01*
X179997142Y-65635942D02*
X180025713Y-65664514D01*
X180025713Y-65664514D02*
X180054285Y-65721657D01*
X180054285Y-65721657D02*
X180054285Y-65807371D01*
X180054285Y-65807371D02*
X180025713Y-65864514D01*
X180025713Y-65864514D02*
X179997142Y-65893085D01*
X179997142Y-65893085D02*
X179939999Y-65921657D01*
X179939999Y-65921657D02*
X179711428Y-65921657D01*
X180282856Y-65664514D02*
X180311428Y-65635942D01*
X180311428Y-65635942D02*
X180368571Y-65607371D01*
X180368571Y-65607371D02*
X180511428Y-65607371D01*
X180511428Y-65607371D02*
X180568571Y-65635942D01*
X180568571Y-65635942D02*
X180597142Y-65664514D01*
X180597142Y-65664514D02*
X180625713Y-65721657D01*
X180625713Y-65721657D02*
X180625713Y-65778800D01*
X180625713Y-65778800D02*
X180597142Y-65864514D01*
X180597142Y-65864514D02*
X180254285Y-66207371D01*
X180254285Y-66207371D02*
X180625713Y-66207371D01*
X180825714Y-65607371D02*
X181197142Y-65607371D01*
X181197142Y-65607371D02*
X180997142Y-65835942D01*
X180997142Y-65835942D02*
X181082857Y-65835942D01*
X181082857Y-65835942D02*
X181140000Y-65864514D01*
X181140000Y-65864514D02*
X181168571Y-65893085D01*
X181168571Y-65893085D02*
X181197142Y-65950228D01*
X181197142Y-65950228D02*
X181197142Y-66093085D01*
X181197142Y-66093085D02*
X181168571Y-66150228D01*
X181168571Y-66150228D02*
X181140000Y-66178800D01*
X181140000Y-66178800D02*
X181082857Y-66207371D01*
X181082857Y-66207371D02*
X180911428Y-66207371D01*
X180911428Y-66207371D02*
X180854285Y-66178800D01*
X180854285Y-66178800D02*
X180825714Y-66150228D01*
X136334285Y-77691621D02*
X136134285Y-77405907D01*
X135991428Y-77691621D02*
X135991428Y-77091621D01*
X135991428Y-77091621D02*
X136219999Y-77091621D01*
X136219999Y-77091621D02*
X136277142Y-77120192D01*
X136277142Y-77120192D02*
X136305713Y-77148764D01*
X136305713Y-77148764D02*
X136334285Y-77205907D01*
X136334285Y-77205907D02*
X136334285Y-77291621D01*
X136334285Y-77291621D02*
X136305713Y-77348764D01*
X136305713Y-77348764D02*
X136277142Y-77377335D01*
X136277142Y-77377335D02*
X136219999Y-77405907D01*
X136219999Y-77405907D02*
X135991428Y-77405907D01*
X136905713Y-77691621D02*
X136562856Y-77691621D01*
X136734285Y-77691621D02*
X136734285Y-77091621D01*
X136734285Y-77091621D02*
X136677142Y-77177335D01*
X136677142Y-77177335D02*
X136619999Y-77234478D01*
X136619999Y-77234478D02*
X136562856Y-77263050D01*
X137277142Y-77091621D02*
X137334285Y-77091621D01*
X137334285Y-77091621D02*
X137391428Y-77120192D01*
X137391428Y-77120192D02*
X137420000Y-77148764D01*
X137420000Y-77148764D02*
X137448571Y-77205907D01*
X137448571Y-77205907D02*
X137477142Y-77320192D01*
X137477142Y-77320192D02*
X137477142Y-77463050D01*
X137477142Y-77463050D02*
X137448571Y-77577335D01*
X137448571Y-77577335D02*
X137420000Y-77634478D01*
X137420000Y-77634478D02*
X137391428Y-77663050D01*
X137391428Y-77663050D02*
X137334285Y-77691621D01*
X137334285Y-77691621D02*
X137277142Y-77691621D01*
X137277142Y-77691621D02*
X137220000Y-77663050D01*
X137220000Y-77663050D02*
X137191428Y-77634478D01*
X137191428Y-77634478D02*
X137162857Y-77577335D01*
X137162857Y-77577335D02*
X137134285Y-77463050D01*
X137134285Y-77463050D02*
X137134285Y-77320192D01*
X137134285Y-77320192D02*
X137162857Y-77205907D01*
X137162857Y-77205907D02*
X137191428Y-77148764D01*
X137191428Y-77148764D02*
X137220000Y-77120192D01*
X137220000Y-77120192D02*
X137277142Y-77091621D01*
X143134285Y-100267371D02*
X142934285Y-99981657D01*
X142791428Y-100267371D02*
X142791428Y-99667371D01*
X142791428Y-99667371D02*
X143019999Y-99667371D01*
X143019999Y-99667371D02*
X143077142Y-99695942D01*
X143077142Y-99695942D02*
X143105713Y-99724514D01*
X143105713Y-99724514D02*
X143134285Y-99781657D01*
X143134285Y-99781657D02*
X143134285Y-99867371D01*
X143134285Y-99867371D02*
X143105713Y-99924514D01*
X143105713Y-99924514D02*
X143077142Y-99953085D01*
X143077142Y-99953085D02*
X143019999Y-99981657D01*
X143019999Y-99981657D02*
X142791428Y-99981657D01*
X143334285Y-99667371D02*
X143705713Y-99667371D01*
X143705713Y-99667371D02*
X143505713Y-99895942D01*
X143505713Y-99895942D02*
X143591428Y-99895942D01*
X143591428Y-99895942D02*
X143648571Y-99924514D01*
X143648571Y-99924514D02*
X143677142Y-99953085D01*
X143677142Y-99953085D02*
X143705713Y-100010228D01*
X143705713Y-100010228D02*
X143705713Y-100153085D01*
X143705713Y-100153085D02*
X143677142Y-100210228D01*
X143677142Y-100210228D02*
X143648571Y-100238800D01*
X143648571Y-100238800D02*
X143591428Y-100267371D01*
X143591428Y-100267371D02*
X143419999Y-100267371D01*
X143419999Y-100267371D02*
X143362856Y-100238800D01*
X143362856Y-100238800D02*
X143334285Y-100210228D01*
X144220000Y-99867371D02*
X144220000Y-100267371D01*
X144077142Y-99638800D02*
X143934285Y-100067371D01*
X143934285Y-100067371D02*
X144305714Y-100067371D01*
X175919999Y-78132371D02*
X175919999Y-78560942D01*
X175919999Y-78560942D02*
X175891428Y-78646657D01*
X175891428Y-78646657D02*
X175834285Y-78703800D01*
X175834285Y-78703800D02*
X175748571Y-78732371D01*
X175748571Y-78732371D02*
X175691428Y-78732371D01*
X176291428Y-78389514D02*
X176234285Y-78360942D01*
X176234285Y-78360942D02*
X176205714Y-78332371D01*
X176205714Y-78332371D02*
X176177142Y-78275228D01*
X176177142Y-78275228D02*
X176177142Y-78246657D01*
X176177142Y-78246657D02*
X176205714Y-78189514D01*
X176205714Y-78189514D02*
X176234285Y-78160942D01*
X176234285Y-78160942D02*
X176291428Y-78132371D01*
X176291428Y-78132371D02*
X176405714Y-78132371D01*
X176405714Y-78132371D02*
X176462857Y-78160942D01*
X176462857Y-78160942D02*
X176491428Y-78189514D01*
X176491428Y-78189514D02*
X176519999Y-78246657D01*
X176519999Y-78246657D02*
X176519999Y-78275228D01*
X176519999Y-78275228D02*
X176491428Y-78332371D01*
X176491428Y-78332371D02*
X176462857Y-78360942D01*
X176462857Y-78360942D02*
X176405714Y-78389514D01*
X176405714Y-78389514D02*
X176291428Y-78389514D01*
X176291428Y-78389514D02*
X176234285Y-78418085D01*
X176234285Y-78418085D02*
X176205714Y-78446657D01*
X176205714Y-78446657D02*
X176177142Y-78503800D01*
X176177142Y-78503800D02*
X176177142Y-78618085D01*
X176177142Y-78618085D02*
X176205714Y-78675228D01*
X176205714Y-78675228D02*
X176234285Y-78703800D01*
X176234285Y-78703800D02*
X176291428Y-78732371D01*
X176291428Y-78732371D02*
X176405714Y-78732371D01*
X176405714Y-78732371D02*
X176462857Y-78703800D01*
X176462857Y-78703800D02*
X176491428Y-78675228D01*
X176491428Y-78675228D02*
X176519999Y-78618085D01*
X176519999Y-78618085D02*
X176519999Y-78503800D01*
X176519999Y-78503800D02*
X176491428Y-78446657D01*
X176491428Y-78446657D02*
X176462857Y-78418085D01*
X176462857Y-78418085D02*
X176405714Y-78389514D01*
X124855228Y-113995714D02*
X124883800Y-114024286D01*
X124883800Y-114024286D02*
X124912371Y-114110000D01*
X124912371Y-114110000D02*
X124912371Y-114167143D01*
X124912371Y-114167143D02*
X124883800Y-114252857D01*
X124883800Y-114252857D02*
X124826657Y-114310000D01*
X124826657Y-114310000D02*
X124769514Y-114338571D01*
X124769514Y-114338571D02*
X124655228Y-114367143D01*
X124655228Y-114367143D02*
X124569514Y-114367143D01*
X124569514Y-114367143D02*
X124455228Y-114338571D01*
X124455228Y-114338571D02*
X124398085Y-114310000D01*
X124398085Y-114310000D02*
X124340942Y-114252857D01*
X124340942Y-114252857D02*
X124312371Y-114167143D01*
X124312371Y-114167143D02*
X124312371Y-114110000D01*
X124312371Y-114110000D02*
X124340942Y-114024286D01*
X124340942Y-114024286D02*
X124369514Y-113995714D01*
X124912371Y-113424286D02*
X124912371Y-113767143D01*
X124912371Y-113595714D02*
X124312371Y-113595714D01*
X124312371Y-113595714D02*
X124398085Y-113652857D01*
X124398085Y-113652857D02*
X124455228Y-113710000D01*
X124455228Y-113710000D02*
X124483800Y-113767143D01*
X124312371Y-112881428D02*
X124312371Y-113167142D01*
X124312371Y-113167142D02*
X124598085Y-113195714D01*
X124598085Y-113195714D02*
X124569514Y-113167142D01*
X124569514Y-113167142D02*
X124540942Y-113110000D01*
X124540942Y-113110000D02*
X124540942Y-112967142D01*
X124540942Y-112967142D02*
X124569514Y-112910000D01*
X124569514Y-112910000D02*
X124598085Y-112881428D01*
X124598085Y-112881428D02*
X124655228Y-112852857D01*
X124655228Y-112852857D02*
X124798085Y-112852857D01*
X124798085Y-112852857D02*
X124855228Y-112881428D01*
X124855228Y-112881428D02*
X124883800Y-112910000D01*
X124883800Y-112910000D02*
X124912371Y-112967142D01*
X124912371Y-112967142D02*
X124912371Y-113110000D01*
X124912371Y-113110000D02*
X124883800Y-113167142D01*
X124883800Y-113167142D02*
X124855228Y-113195714D01*
X116464285Y-62112728D02*
X116435713Y-62141300D01*
X116435713Y-62141300D02*
X116349999Y-62169871D01*
X116349999Y-62169871D02*
X116292856Y-62169871D01*
X116292856Y-62169871D02*
X116207142Y-62141300D01*
X116207142Y-62141300D02*
X116149999Y-62084157D01*
X116149999Y-62084157D02*
X116121428Y-62027014D01*
X116121428Y-62027014D02*
X116092856Y-61912728D01*
X116092856Y-61912728D02*
X116092856Y-61827014D01*
X116092856Y-61827014D02*
X116121428Y-61712728D01*
X116121428Y-61712728D02*
X116149999Y-61655585D01*
X116149999Y-61655585D02*
X116207142Y-61598442D01*
X116207142Y-61598442D02*
X116292856Y-61569871D01*
X116292856Y-61569871D02*
X116349999Y-61569871D01*
X116349999Y-61569871D02*
X116435713Y-61598442D01*
X116435713Y-61598442D02*
X116464285Y-61627014D01*
X117035713Y-62169871D02*
X116692856Y-62169871D01*
X116864285Y-62169871D02*
X116864285Y-61569871D01*
X116864285Y-61569871D02*
X116807142Y-61655585D01*
X116807142Y-61655585D02*
X116749999Y-61712728D01*
X116749999Y-61712728D02*
X116692856Y-61741300D01*
X117264285Y-61627014D02*
X117292857Y-61598442D01*
X117292857Y-61598442D02*
X117350000Y-61569871D01*
X117350000Y-61569871D02*
X117492857Y-61569871D01*
X117492857Y-61569871D02*
X117550000Y-61598442D01*
X117550000Y-61598442D02*
X117578571Y-61627014D01*
X117578571Y-61627014D02*
X117607142Y-61684157D01*
X117607142Y-61684157D02*
X117607142Y-61741300D01*
X117607142Y-61741300D02*
X117578571Y-61827014D01*
X117578571Y-61827014D02*
X117235714Y-62169871D01*
X117235714Y-62169871D02*
X117607142Y-62169871D01*
X130519285Y-89032371D02*
X130319285Y-88746657D01*
X130176428Y-89032371D02*
X130176428Y-88432371D01*
X130176428Y-88432371D02*
X130404999Y-88432371D01*
X130404999Y-88432371D02*
X130462142Y-88460942D01*
X130462142Y-88460942D02*
X130490713Y-88489514D01*
X130490713Y-88489514D02*
X130519285Y-88546657D01*
X130519285Y-88546657D02*
X130519285Y-88632371D01*
X130519285Y-88632371D02*
X130490713Y-88689514D01*
X130490713Y-88689514D02*
X130462142Y-88718085D01*
X130462142Y-88718085D02*
X130404999Y-88746657D01*
X130404999Y-88746657D02*
X130176428Y-88746657D01*
X131090713Y-89032371D02*
X130747856Y-89032371D01*
X130919285Y-89032371D02*
X130919285Y-88432371D01*
X130919285Y-88432371D02*
X130862142Y-88518085D01*
X130862142Y-88518085D02*
X130804999Y-88575228D01*
X130804999Y-88575228D02*
X130747856Y-88603800D01*
X131633571Y-88432371D02*
X131347857Y-88432371D01*
X131347857Y-88432371D02*
X131319285Y-88718085D01*
X131319285Y-88718085D02*
X131347857Y-88689514D01*
X131347857Y-88689514D02*
X131405000Y-88660942D01*
X131405000Y-88660942D02*
X131547857Y-88660942D01*
X131547857Y-88660942D02*
X131605000Y-88689514D01*
X131605000Y-88689514D02*
X131633571Y-88718085D01*
X131633571Y-88718085D02*
X131662142Y-88775228D01*
X131662142Y-88775228D02*
X131662142Y-88918085D01*
X131662142Y-88918085D02*
X131633571Y-88975228D01*
X131633571Y-88975228D02*
X131605000Y-89003800D01*
X131605000Y-89003800D02*
X131547857Y-89032371D01*
X131547857Y-89032371D02*
X131405000Y-89032371D01*
X131405000Y-89032371D02*
X131347857Y-89003800D01*
X131347857Y-89003800D02*
X131319285Y-88975228D01*
X169510000Y-65952728D02*
X169481428Y-65981300D01*
X169481428Y-65981300D02*
X169395714Y-66009871D01*
X169395714Y-66009871D02*
X169338571Y-66009871D01*
X169338571Y-66009871D02*
X169252857Y-65981300D01*
X169252857Y-65981300D02*
X169195714Y-65924157D01*
X169195714Y-65924157D02*
X169167143Y-65867014D01*
X169167143Y-65867014D02*
X169138571Y-65752728D01*
X169138571Y-65752728D02*
X169138571Y-65667014D01*
X169138571Y-65667014D02*
X169167143Y-65552728D01*
X169167143Y-65552728D02*
X169195714Y-65495585D01*
X169195714Y-65495585D02*
X169252857Y-65438442D01*
X169252857Y-65438442D02*
X169338571Y-65409871D01*
X169338571Y-65409871D02*
X169395714Y-65409871D01*
X169395714Y-65409871D02*
X169481428Y-65438442D01*
X169481428Y-65438442D02*
X169510000Y-65467014D01*
X169710000Y-65409871D02*
X170081428Y-65409871D01*
X170081428Y-65409871D02*
X169881428Y-65638442D01*
X169881428Y-65638442D02*
X169967143Y-65638442D01*
X169967143Y-65638442D02*
X170024286Y-65667014D01*
X170024286Y-65667014D02*
X170052857Y-65695585D01*
X170052857Y-65695585D02*
X170081428Y-65752728D01*
X170081428Y-65752728D02*
X170081428Y-65895585D01*
X170081428Y-65895585D02*
X170052857Y-65952728D01*
X170052857Y-65952728D02*
X170024286Y-65981300D01*
X170024286Y-65981300D02*
X169967143Y-66009871D01*
X169967143Y-66009871D02*
X169795714Y-66009871D01*
X169795714Y-66009871D02*
X169738571Y-65981300D01*
X169738571Y-65981300D02*
X169710000Y-65952728D01*
X110710000Y-69755585D02*
X110795714Y-69784157D01*
X110795714Y-69784157D02*
X110824285Y-69812728D01*
X110824285Y-69812728D02*
X110852857Y-69869871D01*
X110852857Y-69869871D02*
X110852857Y-69955585D01*
X110852857Y-69955585D02*
X110824285Y-70012728D01*
X110824285Y-70012728D02*
X110795714Y-70041300D01*
X110795714Y-70041300D02*
X110738571Y-70069871D01*
X110738571Y-70069871D02*
X110510000Y-70069871D01*
X110510000Y-70069871D02*
X110510000Y-69469871D01*
X110510000Y-69469871D02*
X110710000Y-69469871D01*
X110710000Y-69469871D02*
X110767143Y-69498442D01*
X110767143Y-69498442D02*
X110795714Y-69527014D01*
X110795714Y-69527014D02*
X110824285Y-69584157D01*
X110824285Y-69584157D02*
X110824285Y-69641300D01*
X110824285Y-69641300D02*
X110795714Y-69698442D01*
X110795714Y-69698442D02*
X110767143Y-69727014D01*
X110767143Y-69727014D02*
X110710000Y-69755585D01*
X110710000Y-69755585D02*
X110510000Y-69755585D01*
X111224285Y-69469871D02*
X111338571Y-69469871D01*
X111338571Y-69469871D02*
X111395714Y-69498442D01*
X111395714Y-69498442D02*
X111452857Y-69555585D01*
X111452857Y-69555585D02*
X111481428Y-69669871D01*
X111481428Y-69669871D02*
X111481428Y-69869871D01*
X111481428Y-69869871D02*
X111452857Y-69984157D01*
X111452857Y-69984157D02*
X111395714Y-70041300D01*
X111395714Y-70041300D02*
X111338571Y-70069871D01*
X111338571Y-70069871D02*
X111224285Y-70069871D01*
X111224285Y-70069871D02*
X111167143Y-70041300D01*
X111167143Y-70041300D02*
X111110000Y-69984157D01*
X111110000Y-69984157D02*
X111081428Y-69869871D01*
X111081428Y-69869871D02*
X111081428Y-69669871D01*
X111081428Y-69669871D02*
X111110000Y-69555585D01*
X111110000Y-69555585D02*
X111167143Y-69498442D01*
X111167143Y-69498442D02*
X111224285Y-69469871D01*
X111852856Y-69469871D02*
X111967142Y-69469871D01*
X111967142Y-69469871D02*
X112024285Y-69498442D01*
X112024285Y-69498442D02*
X112081428Y-69555585D01*
X112081428Y-69555585D02*
X112109999Y-69669871D01*
X112109999Y-69669871D02*
X112109999Y-69869871D01*
X112109999Y-69869871D02*
X112081428Y-69984157D01*
X112081428Y-69984157D02*
X112024285Y-70041300D01*
X112024285Y-70041300D02*
X111967142Y-70069871D01*
X111967142Y-70069871D02*
X111852856Y-70069871D01*
X111852856Y-70069871D02*
X111795714Y-70041300D01*
X111795714Y-70041300D02*
X111738571Y-69984157D01*
X111738571Y-69984157D02*
X111709999Y-69869871D01*
X111709999Y-69869871D02*
X111709999Y-69669871D01*
X111709999Y-69669871D02*
X111738571Y-69555585D01*
X111738571Y-69555585D02*
X111795714Y-69498442D01*
X111795714Y-69498442D02*
X111852856Y-69469871D01*
X112281427Y-69469871D02*
X112624285Y-69469871D01*
X112452856Y-70069871D02*
X112452856Y-69469871D01*
X113138570Y-70069871D02*
X112795713Y-70069871D01*
X112967142Y-70069871D02*
X112967142Y-69469871D01*
X112967142Y-69469871D02*
X112909999Y-69555585D01*
X112909999Y-69555585D02*
X112852856Y-69612728D01*
X112852856Y-69612728D02*
X112795713Y-69641300D01*
X122152500Y-89085228D02*
X122123928Y-89113800D01*
X122123928Y-89113800D02*
X122038214Y-89142371D01*
X122038214Y-89142371D02*
X121981071Y-89142371D01*
X121981071Y-89142371D02*
X121895357Y-89113800D01*
X121895357Y-89113800D02*
X121838214Y-89056657D01*
X121838214Y-89056657D02*
X121809643Y-88999514D01*
X121809643Y-88999514D02*
X121781071Y-88885228D01*
X121781071Y-88885228D02*
X121781071Y-88799514D01*
X121781071Y-88799514D02*
X121809643Y-88685228D01*
X121809643Y-88685228D02*
X121838214Y-88628085D01*
X121838214Y-88628085D02*
X121895357Y-88570942D01*
X121895357Y-88570942D02*
X121981071Y-88542371D01*
X121981071Y-88542371D02*
X122038214Y-88542371D01*
X122038214Y-88542371D02*
X122123928Y-88570942D01*
X122123928Y-88570942D02*
X122152500Y-88599514D01*
X122495357Y-88799514D02*
X122438214Y-88770942D01*
X122438214Y-88770942D02*
X122409643Y-88742371D01*
X122409643Y-88742371D02*
X122381071Y-88685228D01*
X122381071Y-88685228D02*
X122381071Y-88656657D01*
X122381071Y-88656657D02*
X122409643Y-88599514D01*
X122409643Y-88599514D02*
X122438214Y-88570942D01*
X122438214Y-88570942D02*
X122495357Y-88542371D01*
X122495357Y-88542371D02*
X122609643Y-88542371D01*
X122609643Y-88542371D02*
X122666786Y-88570942D01*
X122666786Y-88570942D02*
X122695357Y-88599514D01*
X122695357Y-88599514D02*
X122723928Y-88656657D01*
X122723928Y-88656657D02*
X122723928Y-88685228D01*
X122723928Y-88685228D02*
X122695357Y-88742371D01*
X122695357Y-88742371D02*
X122666786Y-88770942D01*
X122666786Y-88770942D02*
X122609643Y-88799514D01*
X122609643Y-88799514D02*
X122495357Y-88799514D01*
X122495357Y-88799514D02*
X122438214Y-88828085D01*
X122438214Y-88828085D02*
X122409643Y-88856657D01*
X122409643Y-88856657D02*
X122381071Y-88913800D01*
X122381071Y-88913800D02*
X122381071Y-89028085D01*
X122381071Y-89028085D02*
X122409643Y-89085228D01*
X122409643Y-89085228D02*
X122438214Y-89113800D01*
X122438214Y-89113800D02*
X122495357Y-89142371D01*
X122495357Y-89142371D02*
X122609643Y-89142371D01*
X122609643Y-89142371D02*
X122666786Y-89113800D01*
X122666786Y-89113800D02*
X122695357Y-89085228D01*
X122695357Y-89085228D02*
X122723928Y-89028085D01*
X122723928Y-89028085D02*
X122723928Y-88913800D01*
X122723928Y-88913800D02*
X122695357Y-88856657D01*
X122695357Y-88856657D02*
X122666786Y-88828085D01*
X122666786Y-88828085D02*
X122609643Y-88799514D01*
X130602857Y-101790371D02*
X130602857Y-102276085D01*
X130602857Y-102276085D02*
X130631428Y-102333228D01*
X130631428Y-102333228D02*
X130660000Y-102361800D01*
X130660000Y-102361800D02*
X130717142Y-102390371D01*
X130717142Y-102390371D02*
X130831428Y-102390371D01*
X130831428Y-102390371D02*
X130888571Y-102361800D01*
X130888571Y-102361800D02*
X130917142Y-102333228D01*
X130917142Y-102333228D02*
X130945714Y-102276085D01*
X130945714Y-102276085D02*
X130945714Y-101790371D01*
X131488571Y-101990371D02*
X131488571Y-102390371D01*
X131345713Y-101761800D02*
X131202856Y-102190371D01*
X131202856Y-102190371D02*
X131574285Y-102190371D01*
X160752371Y-81590714D02*
X160466657Y-81790714D01*
X160752371Y-81933571D02*
X160152371Y-81933571D01*
X160152371Y-81933571D02*
X160152371Y-81705000D01*
X160152371Y-81705000D02*
X160180942Y-81647857D01*
X160180942Y-81647857D02*
X160209514Y-81619286D01*
X160209514Y-81619286D02*
X160266657Y-81590714D01*
X160266657Y-81590714D02*
X160352371Y-81590714D01*
X160352371Y-81590714D02*
X160409514Y-81619286D01*
X160409514Y-81619286D02*
X160438085Y-81647857D01*
X160438085Y-81647857D02*
X160466657Y-81705000D01*
X160466657Y-81705000D02*
X160466657Y-81933571D01*
X160752371Y-81019286D02*
X160752371Y-81362143D01*
X160752371Y-81190714D02*
X160152371Y-81190714D01*
X160152371Y-81190714D02*
X160238085Y-81247857D01*
X160238085Y-81247857D02*
X160295228Y-81305000D01*
X160295228Y-81305000D02*
X160323800Y-81362143D01*
X160152371Y-80505000D02*
X160152371Y-80619285D01*
X160152371Y-80619285D02*
X160180942Y-80676428D01*
X160180942Y-80676428D02*
X160209514Y-80705000D01*
X160209514Y-80705000D02*
X160295228Y-80762142D01*
X160295228Y-80762142D02*
X160409514Y-80790714D01*
X160409514Y-80790714D02*
X160638085Y-80790714D01*
X160638085Y-80790714D02*
X160695228Y-80762142D01*
X160695228Y-80762142D02*
X160723800Y-80733571D01*
X160723800Y-80733571D02*
X160752371Y-80676428D01*
X160752371Y-80676428D02*
X160752371Y-80562142D01*
X160752371Y-80562142D02*
X160723800Y-80505000D01*
X160723800Y-80505000D02*
X160695228Y-80476428D01*
X160695228Y-80476428D02*
X160638085Y-80447857D01*
X160638085Y-80447857D02*
X160495228Y-80447857D01*
X160495228Y-80447857D02*
X160438085Y-80476428D01*
X160438085Y-80476428D02*
X160409514Y-80505000D01*
X160409514Y-80505000D02*
X160380942Y-80562142D01*
X160380942Y-80562142D02*
X160380942Y-80676428D01*
X160380942Y-80676428D02*
X160409514Y-80733571D01*
X160409514Y-80733571D02*
X160438085Y-80762142D01*
X160438085Y-80762142D02*
X160495228Y-80790714D01*
X133116785Y-110922371D02*
X132916785Y-110636657D01*
X132773928Y-110922371D02*
X132773928Y-110322371D01*
X132773928Y-110322371D02*
X133002499Y-110322371D01*
X133002499Y-110322371D02*
X133059642Y-110350942D01*
X133059642Y-110350942D02*
X133088213Y-110379514D01*
X133088213Y-110379514D02*
X133116785Y-110436657D01*
X133116785Y-110436657D02*
X133116785Y-110522371D01*
X133116785Y-110522371D02*
X133088213Y-110579514D01*
X133088213Y-110579514D02*
X133059642Y-110608085D01*
X133059642Y-110608085D02*
X133002499Y-110636657D01*
X133002499Y-110636657D02*
X132773928Y-110636657D01*
X133316785Y-110322371D02*
X133688213Y-110322371D01*
X133688213Y-110322371D02*
X133488213Y-110550942D01*
X133488213Y-110550942D02*
X133573928Y-110550942D01*
X133573928Y-110550942D02*
X133631071Y-110579514D01*
X133631071Y-110579514D02*
X133659642Y-110608085D01*
X133659642Y-110608085D02*
X133688213Y-110665228D01*
X133688213Y-110665228D02*
X133688213Y-110808085D01*
X133688213Y-110808085D02*
X133659642Y-110865228D01*
X133659642Y-110865228D02*
X133631071Y-110893800D01*
X133631071Y-110893800D02*
X133573928Y-110922371D01*
X133573928Y-110922371D02*
X133402499Y-110922371D01*
X133402499Y-110922371D02*
X133345356Y-110893800D01*
X133345356Y-110893800D02*
X133316785Y-110865228D01*
X134231071Y-110322371D02*
X133945357Y-110322371D01*
X133945357Y-110322371D02*
X133916785Y-110608085D01*
X133916785Y-110608085D02*
X133945357Y-110579514D01*
X133945357Y-110579514D02*
X134002500Y-110550942D01*
X134002500Y-110550942D02*
X134145357Y-110550942D01*
X134145357Y-110550942D02*
X134202500Y-110579514D01*
X134202500Y-110579514D02*
X134231071Y-110608085D01*
X134231071Y-110608085D02*
X134259642Y-110665228D01*
X134259642Y-110665228D02*
X134259642Y-110808085D01*
X134259642Y-110808085D02*
X134231071Y-110865228D01*
X134231071Y-110865228D02*
X134202500Y-110893800D01*
X134202500Y-110893800D02*
X134145357Y-110922371D01*
X134145357Y-110922371D02*
X134002500Y-110922371D01*
X134002500Y-110922371D02*
X133945357Y-110893800D01*
X133945357Y-110893800D02*
X133916785Y-110865228D01*
X183989999Y-58937371D02*
X183989999Y-59365942D01*
X183989999Y-59365942D02*
X183961428Y-59451657D01*
X183961428Y-59451657D02*
X183904285Y-59508800D01*
X183904285Y-59508800D02*
X183818571Y-59537371D01*
X183818571Y-59537371D02*
X183761428Y-59537371D01*
X184589999Y-59537371D02*
X184247142Y-59537371D01*
X184418571Y-59537371D02*
X184418571Y-58937371D01*
X184418571Y-58937371D02*
X184361428Y-59023085D01*
X184361428Y-59023085D02*
X184304285Y-59080228D01*
X184304285Y-59080228D02*
X184247142Y-59108800D01*
X138177143Y-100277371D02*
X138177143Y-99677371D01*
X138177143Y-99677371D02*
X138320000Y-99677371D01*
X138320000Y-99677371D02*
X138405714Y-99705942D01*
X138405714Y-99705942D02*
X138462857Y-99763085D01*
X138462857Y-99763085D02*
X138491428Y-99820228D01*
X138491428Y-99820228D02*
X138520000Y-99934514D01*
X138520000Y-99934514D02*
X138520000Y-100020228D01*
X138520000Y-100020228D02*
X138491428Y-100134514D01*
X138491428Y-100134514D02*
X138462857Y-100191657D01*
X138462857Y-100191657D02*
X138405714Y-100248800D01*
X138405714Y-100248800D02*
X138320000Y-100277371D01*
X138320000Y-100277371D02*
X138177143Y-100277371D01*
X138805714Y-100277371D02*
X138920000Y-100277371D01*
X138920000Y-100277371D02*
X138977143Y-100248800D01*
X138977143Y-100248800D02*
X139005714Y-100220228D01*
X139005714Y-100220228D02*
X139062857Y-100134514D01*
X139062857Y-100134514D02*
X139091428Y-100020228D01*
X139091428Y-100020228D02*
X139091428Y-99791657D01*
X139091428Y-99791657D02*
X139062857Y-99734514D01*
X139062857Y-99734514D02*
X139034286Y-99705942D01*
X139034286Y-99705942D02*
X138977143Y-99677371D01*
X138977143Y-99677371D02*
X138862857Y-99677371D01*
X138862857Y-99677371D02*
X138805714Y-99705942D01*
X138805714Y-99705942D02*
X138777143Y-99734514D01*
X138777143Y-99734514D02*
X138748571Y-99791657D01*
X138748571Y-99791657D02*
X138748571Y-99934514D01*
X138748571Y-99934514D02*
X138777143Y-99991657D01*
X138777143Y-99991657D02*
X138805714Y-100020228D01*
X138805714Y-100020228D02*
X138862857Y-100048800D01*
X138862857Y-100048800D02*
X138977143Y-100048800D01*
X138977143Y-100048800D02*
X139034286Y-100020228D01*
X139034286Y-100020228D02*
X139062857Y-99991657D01*
X139062857Y-99991657D02*
X139091428Y-99934514D01*
X163682371Y-50425714D02*
X163396657Y-50625714D01*
X163682371Y-50768571D02*
X163082371Y-50768571D01*
X163082371Y-50768571D02*
X163082371Y-50540000D01*
X163082371Y-50540000D02*
X163110942Y-50482857D01*
X163110942Y-50482857D02*
X163139514Y-50454286D01*
X163139514Y-50454286D02*
X163196657Y-50425714D01*
X163196657Y-50425714D02*
X163282371Y-50425714D01*
X163282371Y-50425714D02*
X163339514Y-50454286D01*
X163339514Y-50454286D02*
X163368085Y-50482857D01*
X163368085Y-50482857D02*
X163396657Y-50540000D01*
X163396657Y-50540000D02*
X163396657Y-50768571D01*
X163139514Y-50197143D02*
X163110942Y-50168571D01*
X163110942Y-50168571D02*
X163082371Y-50111429D01*
X163082371Y-50111429D02*
X163082371Y-49968571D01*
X163082371Y-49968571D02*
X163110942Y-49911429D01*
X163110942Y-49911429D02*
X163139514Y-49882857D01*
X163139514Y-49882857D02*
X163196657Y-49854286D01*
X163196657Y-49854286D02*
X163253800Y-49854286D01*
X163253800Y-49854286D02*
X163339514Y-49882857D01*
X163339514Y-49882857D02*
X163682371Y-50225714D01*
X163682371Y-50225714D02*
X163682371Y-49854286D01*
X163139514Y-49625714D02*
X163110942Y-49597142D01*
X163110942Y-49597142D02*
X163082371Y-49540000D01*
X163082371Y-49540000D02*
X163082371Y-49397142D01*
X163082371Y-49397142D02*
X163110942Y-49340000D01*
X163110942Y-49340000D02*
X163139514Y-49311428D01*
X163139514Y-49311428D02*
X163196657Y-49282857D01*
X163196657Y-49282857D02*
X163253800Y-49282857D01*
X163253800Y-49282857D02*
X163339514Y-49311428D01*
X163339514Y-49311428D02*
X163682371Y-49654285D01*
X163682371Y-49654285D02*
X163682371Y-49282857D01*
X125997143Y-88152371D02*
X125997143Y-87552371D01*
X125997143Y-87552371D02*
X126140000Y-87552371D01*
X126140000Y-87552371D02*
X126225714Y-87580942D01*
X126225714Y-87580942D02*
X126282857Y-87638085D01*
X126282857Y-87638085D02*
X126311428Y-87695228D01*
X126311428Y-87695228D02*
X126340000Y-87809514D01*
X126340000Y-87809514D02*
X126340000Y-87895228D01*
X126340000Y-87895228D02*
X126311428Y-88009514D01*
X126311428Y-88009514D02*
X126282857Y-88066657D01*
X126282857Y-88066657D02*
X126225714Y-88123800D01*
X126225714Y-88123800D02*
X126140000Y-88152371D01*
X126140000Y-88152371D02*
X125997143Y-88152371D01*
X126568571Y-87609514D02*
X126597143Y-87580942D01*
X126597143Y-87580942D02*
X126654286Y-87552371D01*
X126654286Y-87552371D02*
X126797143Y-87552371D01*
X126797143Y-87552371D02*
X126854286Y-87580942D01*
X126854286Y-87580942D02*
X126882857Y-87609514D01*
X126882857Y-87609514D02*
X126911428Y-87666657D01*
X126911428Y-87666657D02*
X126911428Y-87723800D01*
X126911428Y-87723800D02*
X126882857Y-87809514D01*
X126882857Y-87809514D02*
X126540000Y-88152371D01*
X126540000Y-88152371D02*
X126911428Y-88152371D01*
X136254285Y-80291621D02*
X136054285Y-80005907D01*
X135911428Y-80291621D02*
X135911428Y-79691621D01*
X135911428Y-79691621D02*
X136139999Y-79691621D01*
X136139999Y-79691621D02*
X136197142Y-79720192D01*
X136197142Y-79720192D02*
X136225713Y-79748764D01*
X136225713Y-79748764D02*
X136254285Y-79805907D01*
X136254285Y-79805907D02*
X136254285Y-79891621D01*
X136254285Y-79891621D02*
X136225713Y-79948764D01*
X136225713Y-79948764D02*
X136197142Y-79977335D01*
X136197142Y-79977335D02*
X136139999Y-80005907D01*
X136139999Y-80005907D02*
X135911428Y-80005907D01*
X136825713Y-80291621D02*
X136482856Y-80291621D01*
X136654285Y-80291621D02*
X136654285Y-79691621D01*
X136654285Y-79691621D02*
X136597142Y-79777335D01*
X136597142Y-79777335D02*
X136539999Y-79834478D01*
X136539999Y-79834478D02*
X136482856Y-79863050D01*
X137397142Y-80291621D02*
X137054285Y-80291621D01*
X137225714Y-80291621D02*
X137225714Y-79691621D01*
X137225714Y-79691621D02*
X137168571Y-79777335D01*
X137168571Y-79777335D02*
X137111428Y-79834478D01*
X137111428Y-79834478D02*
X137054285Y-79863050D01*
X125404285Y-77761621D02*
X125204285Y-77475907D01*
X125061428Y-77761621D02*
X125061428Y-77161621D01*
X125061428Y-77161621D02*
X125289999Y-77161621D01*
X125289999Y-77161621D02*
X125347142Y-77190192D01*
X125347142Y-77190192D02*
X125375713Y-77218764D01*
X125375713Y-77218764D02*
X125404285Y-77275907D01*
X125404285Y-77275907D02*
X125404285Y-77361621D01*
X125404285Y-77361621D02*
X125375713Y-77418764D01*
X125375713Y-77418764D02*
X125347142Y-77447335D01*
X125347142Y-77447335D02*
X125289999Y-77475907D01*
X125289999Y-77475907D02*
X125061428Y-77475907D01*
X125975713Y-77761621D02*
X125632856Y-77761621D01*
X125804285Y-77761621D02*
X125804285Y-77161621D01*
X125804285Y-77161621D02*
X125747142Y-77247335D01*
X125747142Y-77247335D02*
X125689999Y-77304478D01*
X125689999Y-77304478D02*
X125632856Y-77333050D01*
X126175714Y-77161621D02*
X126547142Y-77161621D01*
X126547142Y-77161621D02*
X126347142Y-77390192D01*
X126347142Y-77390192D02*
X126432857Y-77390192D01*
X126432857Y-77390192D02*
X126490000Y-77418764D01*
X126490000Y-77418764D02*
X126518571Y-77447335D01*
X126518571Y-77447335D02*
X126547142Y-77504478D01*
X126547142Y-77504478D02*
X126547142Y-77647335D01*
X126547142Y-77647335D02*
X126518571Y-77704478D01*
X126518571Y-77704478D02*
X126490000Y-77733050D01*
X126490000Y-77733050D02*
X126432857Y-77761621D01*
X126432857Y-77761621D02*
X126261428Y-77761621D01*
X126261428Y-77761621D02*
X126204285Y-77733050D01*
X126204285Y-77733050D02*
X126175714Y-77704478D01*
X160655228Y-90059999D02*
X160683800Y-90088571D01*
X160683800Y-90088571D02*
X160712371Y-90174285D01*
X160712371Y-90174285D02*
X160712371Y-90231428D01*
X160712371Y-90231428D02*
X160683800Y-90317142D01*
X160683800Y-90317142D02*
X160626657Y-90374285D01*
X160626657Y-90374285D02*
X160569514Y-90402856D01*
X160569514Y-90402856D02*
X160455228Y-90431428D01*
X160455228Y-90431428D02*
X160369514Y-90431428D01*
X160369514Y-90431428D02*
X160255228Y-90402856D01*
X160255228Y-90402856D02*
X160198085Y-90374285D01*
X160198085Y-90374285D02*
X160140942Y-90317142D01*
X160140942Y-90317142D02*
X160112371Y-90231428D01*
X160112371Y-90231428D02*
X160112371Y-90174285D01*
X160112371Y-90174285D02*
X160140942Y-90088571D01*
X160140942Y-90088571D02*
X160169514Y-90059999D01*
X160712371Y-89774285D02*
X160712371Y-89659999D01*
X160712371Y-89659999D02*
X160683800Y-89602856D01*
X160683800Y-89602856D02*
X160655228Y-89574285D01*
X160655228Y-89574285D02*
X160569514Y-89517142D01*
X160569514Y-89517142D02*
X160455228Y-89488571D01*
X160455228Y-89488571D02*
X160226657Y-89488571D01*
X160226657Y-89488571D02*
X160169514Y-89517142D01*
X160169514Y-89517142D02*
X160140942Y-89545714D01*
X160140942Y-89545714D02*
X160112371Y-89602856D01*
X160112371Y-89602856D02*
X160112371Y-89717142D01*
X160112371Y-89717142D02*
X160140942Y-89774285D01*
X160140942Y-89774285D02*
X160169514Y-89802856D01*
X160169514Y-89802856D02*
X160226657Y-89831428D01*
X160226657Y-89831428D02*
X160369514Y-89831428D01*
X160369514Y-89831428D02*
X160426657Y-89802856D01*
X160426657Y-89802856D02*
X160455228Y-89774285D01*
X160455228Y-89774285D02*
X160483800Y-89717142D01*
X160483800Y-89717142D02*
X160483800Y-89602856D01*
X160483800Y-89602856D02*
X160455228Y-89545714D01*
X160455228Y-89545714D02*
X160426657Y-89517142D01*
X160426657Y-89517142D02*
X160369514Y-89488571D01*
X136717371Y-66839642D02*
X137203085Y-66839642D01*
X137203085Y-66839642D02*
X137260228Y-66811071D01*
X137260228Y-66811071D02*
X137288800Y-66782500D01*
X137288800Y-66782500D02*
X137317371Y-66725357D01*
X137317371Y-66725357D02*
X137317371Y-66611071D01*
X137317371Y-66611071D02*
X137288800Y-66553928D01*
X137288800Y-66553928D02*
X137260228Y-66525357D01*
X137260228Y-66525357D02*
X137203085Y-66496785D01*
X137203085Y-66496785D02*
X136717371Y-66496785D01*
X136717371Y-66268214D02*
X136717371Y-65896786D01*
X136717371Y-65896786D02*
X136945942Y-66096786D01*
X136945942Y-66096786D02*
X136945942Y-66011071D01*
X136945942Y-66011071D02*
X136974514Y-65953929D01*
X136974514Y-65953929D02*
X137003085Y-65925357D01*
X137003085Y-65925357D02*
X137060228Y-65896786D01*
X137060228Y-65896786D02*
X137203085Y-65896786D01*
X137203085Y-65896786D02*
X137260228Y-65925357D01*
X137260228Y-65925357D02*
X137288800Y-65953929D01*
X137288800Y-65953929D02*
X137317371Y-66011071D01*
X137317371Y-66011071D02*
X137317371Y-66182500D01*
X137317371Y-66182500D02*
X137288800Y-66239643D01*
X137288800Y-66239643D02*
X137260228Y-66268214D01*
X110462857Y-62209871D02*
X110262857Y-61924157D01*
X110120000Y-62209871D02*
X110120000Y-61609871D01*
X110120000Y-61609871D02*
X110348571Y-61609871D01*
X110348571Y-61609871D02*
X110405714Y-61638442D01*
X110405714Y-61638442D02*
X110434285Y-61667014D01*
X110434285Y-61667014D02*
X110462857Y-61724157D01*
X110462857Y-61724157D02*
X110462857Y-61809871D01*
X110462857Y-61809871D02*
X110434285Y-61867014D01*
X110434285Y-61867014D02*
X110405714Y-61895585D01*
X110405714Y-61895585D02*
X110348571Y-61924157D01*
X110348571Y-61924157D02*
X110120000Y-61924157D01*
X110720000Y-61895585D02*
X110920000Y-61895585D01*
X111005714Y-62209871D02*
X110720000Y-62209871D01*
X110720000Y-62209871D02*
X110720000Y-61609871D01*
X110720000Y-61609871D02*
X111005714Y-61609871D01*
X111234285Y-62181300D02*
X111320000Y-62209871D01*
X111320000Y-62209871D02*
X111462857Y-62209871D01*
X111462857Y-62209871D02*
X111520000Y-62181300D01*
X111520000Y-62181300D02*
X111548571Y-62152728D01*
X111548571Y-62152728D02*
X111577142Y-62095585D01*
X111577142Y-62095585D02*
X111577142Y-62038442D01*
X111577142Y-62038442D02*
X111548571Y-61981300D01*
X111548571Y-61981300D02*
X111520000Y-61952728D01*
X111520000Y-61952728D02*
X111462857Y-61924157D01*
X111462857Y-61924157D02*
X111348571Y-61895585D01*
X111348571Y-61895585D02*
X111291428Y-61867014D01*
X111291428Y-61867014D02*
X111262857Y-61838442D01*
X111262857Y-61838442D02*
X111234285Y-61781300D01*
X111234285Y-61781300D02*
X111234285Y-61724157D01*
X111234285Y-61724157D02*
X111262857Y-61667014D01*
X111262857Y-61667014D02*
X111291428Y-61638442D01*
X111291428Y-61638442D02*
X111348571Y-61609871D01*
X111348571Y-61609871D02*
X111491428Y-61609871D01*
X111491428Y-61609871D02*
X111577142Y-61638442D01*
X111834286Y-61895585D02*
X112034286Y-61895585D01*
X112120000Y-62209871D02*
X111834286Y-62209871D01*
X111834286Y-62209871D02*
X111834286Y-61609871D01*
X111834286Y-61609871D02*
X112120000Y-61609871D01*
X112291428Y-61609871D02*
X112634286Y-61609871D01*
X112462857Y-62209871D02*
X112462857Y-61609871D01*
X113148571Y-62209871D02*
X112805714Y-62209871D01*
X112977143Y-62209871D02*
X112977143Y-61609871D01*
X112977143Y-61609871D02*
X112920000Y-61695585D01*
X112920000Y-61695585D02*
X112862857Y-61752728D01*
X112862857Y-61752728D02*
X112805714Y-61781300D01*
X145404285Y-100197371D02*
X145204285Y-99911657D01*
X145061428Y-100197371D02*
X145061428Y-99597371D01*
X145061428Y-99597371D02*
X145289999Y-99597371D01*
X145289999Y-99597371D02*
X145347142Y-99625942D01*
X145347142Y-99625942D02*
X145375713Y-99654514D01*
X145375713Y-99654514D02*
X145404285Y-99711657D01*
X145404285Y-99711657D02*
X145404285Y-99797371D01*
X145404285Y-99797371D02*
X145375713Y-99854514D01*
X145375713Y-99854514D02*
X145347142Y-99883085D01*
X145347142Y-99883085D02*
X145289999Y-99911657D01*
X145289999Y-99911657D02*
X145061428Y-99911657D01*
X145604285Y-99597371D02*
X145975713Y-99597371D01*
X145975713Y-99597371D02*
X145775713Y-99825942D01*
X145775713Y-99825942D02*
X145861428Y-99825942D01*
X145861428Y-99825942D02*
X145918571Y-99854514D01*
X145918571Y-99854514D02*
X145947142Y-99883085D01*
X145947142Y-99883085D02*
X145975713Y-99940228D01*
X145975713Y-99940228D02*
X145975713Y-100083085D01*
X145975713Y-100083085D02*
X145947142Y-100140228D01*
X145947142Y-100140228D02*
X145918571Y-100168800D01*
X145918571Y-100168800D02*
X145861428Y-100197371D01*
X145861428Y-100197371D02*
X145689999Y-100197371D01*
X145689999Y-100197371D02*
X145632856Y-100168800D01*
X145632856Y-100168800D02*
X145604285Y-100140228D01*
X146204285Y-99654514D02*
X146232857Y-99625942D01*
X146232857Y-99625942D02*
X146290000Y-99597371D01*
X146290000Y-99597371D02*
X146432857Y-99597371D01*
X146432857Y-99597371D02*
X146490000Y-99625942D01*
X146490000Y-99625942D02*
X146518571Y-99654514D01*
X146518571Y-99654514D02*
X146547142Y-99711657D01*
X146547142Y-99711657D02*
X146547142Y-99768800D01*
X146547142Y-99768800D02*
X146518571Y-99854514D01*
X146518571Y-99854514D02*
X146175714Y-100197371D01*
X146175714Y-100197371D02*
X146547142Y-100197371D01*
X137912014Y-108204642D02*
X137883442Y-108261785D01*
X137883442Y-108261785D02*
X137826300Y-108318928D01*
X137826300Y-108318928D02*
X137740585Y-108404642D01*
X137740585Y-108404642D02*
X137712014Y-108461785D01*
X137712014Y-108461785D02*
X137712014Y-108518928D01*
X137854871Y-108490357D02*
X137826300Y-108547500D01*
X137826300Y-108547500D02*
X137769157Y-108604642D01*
X137769157Y-108604642D02*
X137654871Y-108633214D01*
X137654871Y-108633214D02*
X137454871Y-108633214D01*
X137454871Y-108633214D02*
X137340585Y-108604642D01*
X137340585Y-108604642D02*
X137283442Y-108547500D01*
X137283442Y-108547500D02*
X137254871Y-108490357D01*
X137254871Y-108490357D02*
X137254871Y-108376071D01*
X137254871Y-108376071D02*
X137283442Y-108318928D01*
X137283442Y-108318928D02*
X137340585Y-108261785D01*
X137340585Y-108261785D02*
X137454871Y-108233214D01*
X137454871Y-108233214D02*
X137654871Y-108233214D01*
X137654871Y-108233214D02*
X137769157Y-108261785D01*
X137769157Y-108261785D02*
X137826300Y-108318928D01*
X137826300Y-108318928D02*
X137854871Y-108376071D01*
X137854871Y-108376071D02*
X137854871Y-108490357D01*
X137454871Y-107718929D02*
X137854871Y-107718929D01*
X137226300Y-107861786D02*
X137654871Y-108004643D01*
X137654871Y-108004643D02*
X137654871Y-107633214D01*
X174919999Y-49791300D02*
X175005714Y-49819871D01*
X175005714Y-49819871D02*
X175148571Y-49819871D01*
X175148571Y-49819871D02*
X175205714Y-49791300D01*
X175205714Y-49791300D02*
X175234285Y-49762728D01*
X175234285Y-49762728D02*
X175262856Y-49705585D01*
X175262856Y-49705585D02*
X175262856Y-49648442D01*
X175262856Y-49648442D02*
X175234285Y-49591300D01*
X175234285Y-49591300D02*
X175205714Y-49562728D01*
X175205714Y-49562728D02*
X175148571Y-49534157D01*
X175148571Y-49534157D02*
X175034285Y-49505585D01*
X175034285Y-49505585D02*
X174977142Y-49477014D01*
X174977142Y-49477014D02*
X174948571Y-49448442D01*
X174948571Y-49448442D02*
X174919999Y-49391300D01*
X174919999Y-49391300D02*
X174919999Y-49334157D01*
X174919999Y-49334157D02*
X174948571Y-49277014D01*
X174948571Y-49277014D02*
X174977142Y-49248442D01*
X174977142Y-49248442D02*
X175034285Y-49219871D01*
X175034285Y-49219871D02*
X175177142Y-49219871D01*
X175177142Y-49219871D02*
X175262856Y-49248442D01*
X175462857Y-49219871D02*
X175605714Y-49819871D01*
X175605714Y-49819871D02*
X175720000Y-49391300D01*
X175720000Y-49391300D02*
X175834285Y-49819871D01*
X175834285Y-49819871D02*
X175977143Y-49219871D01*
X176491428Y-49219871D02*
X176205714Y-49219871D01*
X176205714Y-49219871D02*
X176177142Y-49505585D01*
X176177142Y-49505585D02*
X176205714Y-49477014D01*
X176205714Y-49477014D02*
X176262857Y-49448442D01*
X176262857Y-49448442D02*
X176405714Y-49448442D01*
X176405714Y-49448442D02*
X176462857Y-49477014D01*
X176462857Y-49477014D02*
X176491428Y-49505585D01*
X176491428Y-49505585D02*
X176519999Y-49562728D01*
X176519999Y-49562728D02*
X176519999Y-49705585D01*
X176519999Y-49705585D02*
X176491428Y-49762728D01*
X176491428Y-49762728D02*
X176462857Y-49791300D01*
X176462857Y-49791300D02*
X176405714Y-49819871D01*
X176405714Y-49819871D02*
X176262857Y-49819871D01*
X176262857Y-49819871D02*
X176205714Y-49791300D01*
X176205714Y-49791300D02*
X176177142Y-49762728D01*
X174919999Y-71173800D02*
X175005714Y-71202371D01*
X175005714Y-71202371D02*
X175148571Y-71202371D01*
X175148571Y-71202371D02*
X175205714Y-71173800D01*
X175205714Y-71173800D02*
X175234285Y-71145228D01*
X175234285Y-71145228D02*
X175262856Y-71088085D01*
X175262856Y-71088085D02*
X175262856Y-71030942D01*
X175262856Y-71030942D02*
X175234285Y-70973800D01*
X175234285Y-70973800D02*
X175205714Y-70945228D01*
X175205714Y-70945228D02*
X175148571Y-70916657D01*
X175148571Y-70916657D02*
X175034285Y-70888085D01*
X175034285Y-70888085D02*
X174977142Y-70859514D01*
X174977142Y-70859514D02*
X174948571Y-70830942D01*
X174948571Y-70830942D02*
X174919999Y-70773800D01*
X174919999Y-70773800D02*
X174919999Y-70716657D01*
X174919999Y-70716657D02*
X174948571Y-70659514D01*
X174948571Y-70659514D02*
X174977142Y-70630942D01*
X174977142Y-70630942D02*
X175034285Y-70602371D01*
X175034285Y-70602371D02*
X175177142Y-70602371D01*
X175177142Y-70602371D02*
X175262856Y-70630942D01*
X175462857Y-70602371D02*
X175605714Y-71202371D01*
X175605714Y-71202371D02*
X175720000Y-70773800D01*
X175720000Y-70773800D02*
X175834285Y-71202371D01*
X175834285Y-71202371D02*
X175977143Y-70602371D01*
X176519999Y-71202371D02*
X176177142Y-71202371D01*
X176348571Y-71202371D02*
X176348571Y-70602371D01*
X176348571Y-70602371D02*
X176291428Y-70688085D01*
X176291428Y-70688085D02*
X176234285Y-70745228D01*
X176234285Y-70745228D02*
X176177142Y-70773800D01*
X112179871Y-114495000D02*
X112608442Y-114495000D01*
X112608442Y-114495000D02*
X112694157Y-114523571D01*
X112694157Y-114523571D02*
X112751300Y-114580714D01*
X112751300Y-114580714D02*
X112779871Y-114666428D01*
X112779871Y-114666428D02*
X112779871Y-114723571D01*
X112179871Y-113952143D02*
X112179871Y-114066428D01*
X112179871Y-114066428D02*
X112208442Y-114123571D01*
X112208442Y-114123571D02*
X112237014Y-114152143D01*
X112237014Y-114152143D02*
X112322728Y-114209285D01*
X112322728Y-114209285D02*
X112437014Y-114237857D01*
X112437014Y-114237857D02*
X112665585Y-114237857D01*
X112665585Y-114237857D02*
X112722728Y-114209285D01*
X112722728Y-114209285D02*
X112751300Y-114180714D01*
X112751300Y-114180714D02*
X112779871Y-114123571D01*
X112779871Y-114123571D02*
X112779871Y-114009285D01*
X112779871Y-114009285D02*
X112751300Y-113952143D01*
X112751300Y-113952143D02*
X112722728Y-113923571D01*
X112722728Y-113923571D02*
X112665585Y-113895000D01*
X112665585Y-113895000D02*
X112522728Y-113895000D01*
X112522728Y-113895000D02*
X112465585Y-113923571D01*
X112465585Y-113923571D02*
X112437014Y-113952143D01*
X112437014Y-113952143D02*
X112408442Y-114009285D01*
X112408442Y-114009285D02*
X112408442Y-114123571D01*
X112408442Y-114123571D02*
X112437014Y-114180714D01*
X112437014Y-114180714D02*
X112465585Y-114209285D01*
X112465585Y-114209285D02*
X112522728Y-114237857D01*
X153724285Y-104335228D02*
X153695713Y-104363800D01*
X153695713Y-104363800D02*
X153609999Y-104392371D01*
X153609999Y-104392371D02*
X153552856Y-104392371D01*
X153552856Y-104392371D02*
X153467142Y-104363800D01*
X153467142Y-104363800D02*
X153409999Y-104306657D01*
X153409999Y-104306657D02*
X153381428Y-104249514D01*
X153381428Y-104249514D02*
X153352856Y-104135228D01*
X153352856Y-104135228D02*
X153352856Y-104049514D01*
X153352856Y-104049514D02*
X153381428Y-103935228D01*
X153381428Y-103935228D02*
X153409999Y-103878085D01*
X153409999Y-103878085D02*
X153467142Y-103820942D01*
X153467142Y-103820942D02*
X153552856Y-103792371D01*
X153552856Y-103792371D02*
X153609999Y-103792371D01*
X153609999Y-103792371D02*
X153695713Y-103820942D01*
X153695713Y-103820942D02*
X153724285Y-103849514D01*
X154295713Y-104392371D02*
X153952856Y-104392371D01*
X154124285Y-104392371D02*
X154124285Y-103792371D01*
X154124285Y-103792371D02*
X154067142Y-103878085D01*
X154067142Y-103878085D02*
X154009999Y-103935228D01*
X154009999Y-103935228D02*
X153952856Y-103963800D01*
X154638571Y-104049514D02*
X154581428Y-104020942D01*
X154581428Y-104020942D02*
X154552857Y-103992371D01*
X154552857Y-103992371D02*
X154524285Y-103935228D01*
X154524285Y-103935228D02*
X154524285Y-103906657D01*
X154524285Y-103906657D02*
X154552857Y-103849514D01*
X154552857Y-103849514D02*
X154581428Y-103820942D01*
X154581428Y-103820942D02*
X154638571Y-103792371D01*
X154638571Y-103792371D02*
X154752857Y-103792371D01*
X154752857Y-103792371D02*
X154810000Y-103820942D01*
X154810000Y-103820942D02*
X154838571Y-103849514D01*
X154838571Y-103849514D02*
X154867142Y-103906657D01*
X154867142Y-103906657D02*
X154867142Y-103935228D01*
X154867142Y-103935228D02*
X154838571Y-103992371D01*
X154838571Y-103992371D02*
X154810000Y-104020942D01*
X154810000Y-104020942D02*
X154752857Y-104049514D01*
X154752857Y-104049514D02*
X154638571Y-104049514D01*
X154638571Y-104049514D02*
X154581428Y-104078085D01*
X154581428Y-104078085D02*
X154552857Y-104106657D01*
X154552857Y-104106657D02*
X154524285Y-104163800D01*
X154524285Y-104163800D02*
X154524285Y-104278085D01*
X154524285Y-104278085D02*
X154552857Y-104335228D01*
X154552857Y-104335228D02*
X154581428Y-104363800D01*
X154581428Y-104363800D02*
X154638571Y-104392371D01*
X154638571Y-104392371D02*
X154752857Y-104392371D01*
X154752857Y-104392371D02*
X154810000Y-104363800D01*
X154810000Y-104363800D02*
X154838571Y-104335228D01*
X154838571Y-104335228D02*
X154867142Y-104278085D01*
X154867142Y-104278085D02*
X154867142Y-104163800D01*
X154867142Y-104163800D02*
X154838571Y-104106657D01*
X154838571Y-104106657D02*
X154810000Y-104078085D01*
X154810000Y-104078085D02*
X154752857Y-104049514D01*
X120217143Y-80002371D02*
X120217143Y-79402371D01*
X120217143Y-79402371D02*
X120360000Y-79402371D01*
X120360000Y-79402371D02*
X120445714Y-79430942D01*
X120445714Y-79430942D02*
X120502857Y-79488085D01*
X120502857Y-79488085D02*
X120531428Y-79545228D01*
X120531428Y-79545228D02*
X120560000Y-79659514D01*
X120560000Y-79659514D02*
X120560000Y-79745228D01*
X120560000Y-79745228D02*
X120531428Y-79859514D01*
X120531428Y-79859514D02*
X120502857Y-79916657D01*
X120502857Y-79916657D02*
X120445714Y-79973800D01*
X120445714Y-79973800D02*
X120360000Y-80002371D01*
X120360000Y-80002371D02*
X120217143Y-80002371D01*
X120760000Y-79402371D02*
X121131428Y-79402371D01*
X121131428Y-79402371D02*
X120931428Y-79630942D01*
X120931428Y-79630942D02*
X121017143Y-79630942D01*
X121017143Y-79630942D02*
X121074286Y-79659514D01*
X121074286Y-79659514D02*
X121102857Y-79688085D01*
X121102857Y-79688085D02*
X121131428Y-79745228D01*
X121131428Y-79745228D02*
X121131428Y-79888085D01*
X121131428Y-79888085D02*
X121102857Y-79945228D01*
X121102857Y-79945228D02*
X121074286Y-79973800D01*
X121074286Y-79973800D02*
X121017143Y-80002371D01*
X121017143Y-80002371D02*
X120845714Y-80002371D01*
X120845714Y-80002371D02*
X120788571Y-79973800D01*
X120788571Y-79973800D02*
X120760000Y-79945228D01*
X119937014Y-112719642D02*
X119908442Y-112776785D01*
X119908442Y-112776785D02*
X119851300Y-112833928D01*
X119851300Y-112833928D02*
X119765585Y-112919642D01*
X119765585Y-112919642D02*
X119737014Y-112976785D01*
X119737014Y-112976785D02*
X119737014Y-113033928D01*
X119879871Y-113005357D02*
X119851300Y-113062500D01*
X119851300Y-113062500D02*
X119794157Y-113119642D01*
X119794157Y-113119642D02*
X119679871Y-113148214D01*
X119679871Y-113148214D02*
X119479871Y-113148214D01*
X119479871Y-113148214D02*
X119365585Y-113119642D01*
X119365585Y-113119642D02*
X119308442Y-113062500D01*
X119308442Y-113062500D02*
X119279871Y-113005357D01*
X119279871Y-113005357D02*
X119279871Y-112891071D01*
X119279871Y-112891071D02*
X119308442Y-112833928D01*
X119308442Y-112833928D02*
X119365585Y-112776785D01*
X119365585Y-112776785D02*
X119479871Y-112748214D01*
X119479871Y-112748214D02*
X119679871Y-112748214D01*
X119679871Y-112748214D02*
X119794157Y-112776785D01*
X119794157Y-112776785D02*
X119851300Y-112833928D01*
X119851300Y-112833928D02*
X119879871Y-112891071D01*
X119879871Y-112891071D02*
X119879871Y-113005357D01*
X119279871Y-112548214D02*
X119279871Y-112176786D01*
X119279871Y-112176786D02*
X119508442Y-112376786D01*
X119508442Y-112376786D02*
X119508442Y-112291071D01*
X119508442Y-112291071D02*
X119537014Y-112233929D01*
X119537014Y-112233929D02*
X119565585Y-112205357D01*
X119565585Y-112205357D02*
X119622728Y-112176786D01*
X119622728Y-112176786D02*
X119765585Y-112176786D01*
X119765585Y-112176786D02*
X119822728Y-112205357D01*
X119822728Y-112205357D02*
X119851300Y-112233929D01*
X119851300Y-112233929D02*
X119879871Y-112291071D01*
X119879871Y-112291071D02*
X119879871Y-112462500D01*
X119879871Y-112462500D02*
X119851300Y-112519643D01*
X119851300Y-112519643D02*
X119822728Y-112548214D01*
X165814285Y-49969871D02*
X165614285Y-49684157D01*
X165471428Y-49969871D02*
X165471428Y-49369871D01*
X165471428Y-49369871D02*
X165699999Y-49369871D01*
X165699999Y-49369871D02*
X165757142Y-49398442D01*
X165757142Y-49398442D02*
X165785713Y-49427014D01*
X165785713Y-49427014D02*
X165814285Y-49484157D01*
X165814285Y-49484157D02*
X165814285Y-49569871D01*
X165814285Y-49569871D02*
X165785713Y-49627014D01*
X165785713Y-49627014D02*
X165757142Y-49655585D01*
X165757142Y-49655585D02*
X165699999Y-49684157D01*
X165699999Y-49684157D02*
X165471428Y-49684157D01*
X166042856Y-49427014D02*
X166071428Y-49398442D01*
X166071428Y-49398442D02*
X166128571Y-49369871D01*
X166128571Y-49369871D02*
X166271428Y-49369871D01*
X166271428Y-49369871D02*
X166328571Y-49398442D01*
X166328571Y-49398442D02*
X166357142Y-49427014D01*
X166357142Y-49427014D02*
X166385713Y-49484157D01*
X166385713Y-49484157D02*
X166385713Y-49541300D01*
X166385713Y-49541300D02*
X166357142Y-49627014D01*
X166357142Y-49627014D02*
X166014285Y-49969871D01*
X166014285Y-49969871D02*
X166385713Y-49969871D01*
X166671428Y-49969871D02*
X166785714Y-49969871D01*
X166785714Y-49969871D02*
X166842857Y-49941300D01*
X166842857Y-49941300D02*
X166871428Y-49912728D01*
X166871428Y-49912728D02*
X166928571Y-49827014D01*
X166928571Y-49827014D02*
X166957142Y-49712728D01*
X166957142Y-49712728D02*
X166957142Y-49484157D01*
X166957142Y-49484157D02*
X166928571Y-49427014D01*
X166928571Y-49427014D02*
X166900000Y-49398442D01*
X166900000Y-49398442D02*
X166842857Y-49369871D01*
X166842857Y-49369871D02*
X166728571Y-49369871D01*
X166728571Y-49369871D02*
X166671428Y-49398442D01*
X166671428Y-49398442D02*
X166642857Y-49427014D01*
X166642857Y-49427014D02*
X166614285Y-49484157D01*
X166614285Y-49484157D02*
X166614285Y-49627014D01*
X166614285Y-49627014D02*
X166642857Y-49684157D01*
X166642857Y-49684157D02*
X166671428Y-49712728D01*
X166671428Y-49712728D02*
X166728571Y-49741300D01*
X166728571Y-49741300D02*
X166842857Y-49741300D01*
X166842857Y-49741300D02*
X166900000Y-49712728D01*
X166900000Y-49712728D02*
X166928571Y-49684157D01*
X166928571Y-49684157D02*
X166957142Y-49627014D01*
X130712143Y-62639871D02*
X130712143Y-62039871D01*
X130712143Y-62039871D02*
X130855000Y-62039871D01*
X130855000Y-62039871D02*
X130940714Y-62068442D01*
X130940714Y-62068442D02*
X130997857Y-62125585D01*
X130997857Y-62125585D02*
X131026428Y-62182728D01*
X131026428Y-62182728D02*
X131055000Y-62297014D01*
X131055000Y-62297014D02*
X131055000Y-62382728D01*
X131055000Y-62382728D02*
X131026428Y-62497014D01*
X131026428Y-62497014D02*
X130997857Y-62554157D01*
X130997857Y-62554157D02*
X130940714Y-62611300D01*
X130940714Y-62611300D02*
X130855000Y-62639871D01*
X130855000Y-62639871D02*
X130712143Y-62639871D01*
X131255000Y-62039871D02*
X131655000Y-62039871D01*
X131655000Y-62039871D02*
X131397857Y-62639871D01*
X180184285Y-73999871D02*
X179984285Y-73714157D01*
X179841428Y-73999871D02*
X179841428Y-73399871D01*
X179841428Y-73399871D02*
X180069999Y-73399871D01*
X180069999Y-73399871D02*
X180127142Y-73428442D01*
X180127142Y-73428442D02*
X180155713Y-73457014D01*
X180155713Y-73457014D02*
X180184285Y-73514157D01*
X180184285Y-73514157D02*
X180184285Y-73599871D01*
X180184285Y-73599871D02*
X180155713Y-73657014D01*
X180155713Y-73657014D02*
X180127142Y-73685585D01*
X180127142Y-73685585D02*
X180069999Y-73714157D01*
X180069999Y-73714157D02*
X179841428Y-73714157D01*
X180412856Y-73457014D02*
X180441428Y-73428442D01*
X180441428Y-73428442D02*
X180498571Y-73399871D01*
X180498571Y-73399871D02*
X180641428Y-73399871D01*
X180641428Y-73399871D02*
X180698571Y-73428442D01*
X180698571Y-73428442D02*
X180727142Y-73457014D01*
X180727142Y-73457014D02*
X180755713Y-73514157D01*
X180755713Y-73514157D02*
X180755713Y-73571300D01*
X180755713Y-73571300D02*
X180727142Y-73657014D01*
X180727142Y-73657014D02*
X180384285Y-73999871D01*
X180384285Y-73999871D02*
X180755713Y-73999871D01*
X181270000Y-73599871D02*
X181270000Y-73999871D01*
X181127142Y-73371300D02*
X180984285Y-73799871D01*
X180984285Y-73799871D02*
X181355714Y-73799871D01*
X175104285Y-112655228D02*
X175075713Y-112683800D01*
X175075713Y-112683800D02*
X174989999Y-112712371D01*
X174989999Y-112712371D02*
X174932856Y-112712371D01*
X174932856Y-112712371D02*
X174847142Y-112683800D01*
X174847142Y-112683800D02*
X174789999Y-112626657D01*
X174789999Y-112626657D02*
X174761428Y-112569514D01*
X174761428Y-112569514D02*
X174732856Y-112455228D01*
X174732856Y-112455228D02*
X174732856Y-112369514D01*
X174732856Y-112369514D02*
X174761428Y-112255228D01*
X174761428Y-112255228D02*
X174789999Y-112198085D01*
X174789999Y-112198085D02*
X174847142Y-112140942D01*
X174847142Y-112140942D02*
X174932856Y-112112371D01*
X174932856Y-112112371D02*
X174989999Y-112112371D01*
X174989999Y-112112371D02*
X175075713Y-112140942D01*
X175075713Y-112140942D02*
X175104285Y-112169514D01*
X175332856Y-112169514D02*
X175361428Y-112140942D01*
X175361428Y-112140942D02*
X175418571Y-112112371D01*
X175418571Y-112112371D02*
X175561428Y-112112371D01*
X175561428Y-112112371D02*
X175618571Y-112140942D01*
X175618571Y-112140942D02*
X175647142Y-112169514D01*
X175647142Y-112169514D02*
X175675713Y-112226657D01*
X175675713Y-112226657D02*
X175675713Y-112283800D01*
X175675713Y-112283800D02*
X175647142Y-112369514D01*
X175647142Y-112369514D02*
X175304285Y-112712371D01*
X175304285Y-112712371D02*
X175675713Y-112712371D01*
X176190000Y-112112371D02*
X176075714Y-112112371D01*
X176075714Y-112112371D02*
X176018571Y-112140942D01*
X176018571Y-112140942D02*
X175990000Y-112169514D01*
X175990000Y-112169514D02*
X175932857Y-112255228D01*
X175932857Y-112255228D02*
X175904285Y-112369514D01*
X175904285Y-112369514D02*
X175904285Y-112598085D01*
X175904285Y-112598085D02*
X175932857Y-112655228D01*
X175932857Y-112655228D02*
X175961428Y-112683800D01*
X175961428Y-112683800D02*
X176018571Y-112712371D01*
X176018571Y-112712371D02*
X176132857Y-112712371D01*
X176132857Y-112712371D02*
X176190000Y-112683800D01*
X176190000Y-112683800D02*
X176218571Y-112655228D01*
X176218571Y-112655228D02*
X176247142Y-112598085D01*
X176247142Y-112598085D02*
X176247142Y-112455228D01*
X176247142Y-112455228D02*
X176218571Y-112398085D01*
X176218571Y-112398085D02*
X176190000Y-112369514D01*
X176190000Y-112369514D02*
X176132857Y-112340942D01*
X176132857Y-112340942D02*
X176018571Y-112340942D01*
X176018571Y-112340942D02*
X175961428Y-112369514D01*
X175961428Y-112369514D02*
X175932857Y-112398085D01*
X175932857Y-112398085D02*
X175904285Y-112455228D01*
X174919999Y-55103800D02*
X175005714Y-55132371D01*
X175005714Y-55132371D02*
X175148571Y-55132371D01*
X175148571Y-55132371D02*
X175205714Y-55103800D01*
X175205714Y-55103800D02*
X175234285Y-55075228D01*
X175234285Y-55075228D02*
X175262856Y-55018085D01*
X175262856Y-55018085D02*
X175262856Y-54960942D01*
X175262856Y-54960942D02*
X175234285Y-54903800D01*
X175234285Y-54903800D02*
X175205714Y-54875228D01*
X175205714Y-54875228D02*
X175148571Y-54846657D01*
X175148571Y-54846657D02*
X175034285Y-54818085D01*
X175034285Y-54818085D02*
X174977142Y-54789514D01*
X174977142Y-54789514D02*
X174948571Y-54760942D01*
X174948571Y-54760942D02*
X174919999Y-54703800D01*
X174919999Y-54703800D02*
X174919999Y-54646657D01*
X174919999Y-54646657D02*
X174948571Y-54589514D01*
X174948571Y-54589514D02*
X174977142Y-54560942D01*
X174977142Y-54560942D02*
X175034285Y-54532371D01*
X175034285Y-54532371D02*
X175177142Y-54532371D01*
X175177142Y-54532371D02*
X175262856Y-54560942D01*
X175462857Y-54532371D02*
X175605714Y-55132371D01*
X175605714Y-55132371D02*
X175720000Y-54703800D01*
X175720000Y-54703800D02*
X175834285Y-55132371D01*
X175834285Y-55132371D02*
X175977143Y-54532371D01*
X176462857Y-54732371D02*
X176462857Y-55132371D01*
X176319999Y-54503800D02*
X176177142Y-54932371D01*
X176177142Y-54932371D02*
X176548571Y-54932371D01*
X130712143Y-68369871D02*
X130712143Y-67769871D01*
X130712143Y-67769871D02*
X130855000Y-67769871D01*
X130855000Y-67769871D02*
X130940714Y-67798442D01*
X130940714Y-67798442D02*
X130997857Y-67855585D01*
X130997857Y-67855585D02*
X131026428Y-67912728D01*
X131026428Y-67912728D02*
X131055000Y-68027014D01*
X131055000Y-68027014D02*
X131055000Y-68112728D01*
X131055000Y-68112728D02*
X131026428Y-68227014D01*
X131026428Y-68227014D02*
X130997857Y-68284157D01*
X130997857Y-68284157D02*
X130940714Y-68341300D01*
X130940714Y-68341300D02*
X130855000Y-68369871D01*
X130855000Y-68369871D02*
X130712143Y-68369871D01*
X131569286Y-67969871D02*
X131569286Y-68369871D01*
X131426428Y-67741300D02*
X131283571Y-68169871D01*
X131283571Y-68169871D02*
X131655000Y-68169871D01*
X126240000Y-60092371D02*
X126040000Y-59806657D01*
X125897143Y-60092371D02*
X125897143Y-59492371D01*
X125897143Y-59492371D02*
X126125714Y-59492371D01*
X126125714Y-59492371D02*
X126182857Y-59520942D01*
X126182857Y-59520942D02*
X126211428Y-59549514D01*
X126211428Y-59549514D02*
X126240000Y-59606657D01*
X126240000Y-59606657D02*
X126240000Y-59692371D01*
X126240000Y-59692371D02*
X126211428Y-59749514D01*
X126211428Y-59749514D02*
X126182857Y-59778085D01*
X126182857Y-59778085D02*
X126125714Y-59806657D01*
X126125714Y-59806657D02*
X125897143Y-59806657D01*
X126440000Y-59492371D02*
X126840000Y-59492371D01*
X126840000Y-59492371D02*
X126582857Y-60092371D01*
X169550000Y-55092728D02*
X169521428Y-55121300D01*
X169521428Y-55121300D02*
X169435714Y-55149871D01*
X169435714Y-55149871D02*
X169378571Y-55149871D01*
X169378571Y-55149871D02*
X169292857Y-55121300D01*
X169292857Y-55121300D02*
X169235714Y-55064157D01*
X169235714Y-55064157D02*
X169207143Y-55007014D01*
X169207143Y-55007014D02*
X169178571Y-54892728D01*
X169178571Y-54892728D02*
X169178571Y-54807014D01*
X169178571Y-54807014D02*
X169207143Y-54692728D01*
X169207143Y-54692728D02*
X169235714Y-54635585D01*
X169235714Y-54635585D02*
X169292857Y-54578442D01*
X169292857Y-54578442D02*
X169378571Y-54549871D01*
X169378571Y-54549871D02*
X169435714Y-54549871D01*
X169435714Y-54549871D02*
X169521428Y-54578442D01*
X169521428Y-54578442D02*
X169550000Y-54607014D01*
X170092857Y-54549871D02*
X169807143Y-54549871D01*
X169807143Y-54549871D02*
X169778571Y-54835585D01*
X169778571Y-54835585D02*
X169807143Y-54807014D01*
X169807143Y-54807014D02*
X169864286Y-54778442D01*
X169864286Y-54778442D02*
X170007143Y-54778442D01*
X170007143Y-54778442D02*
X170064286Y-54807014D01*
X170064286Y-54807014D02*
X170092857Y-54835585D01*
X170092857Y-54835585D02*
X170121428Y-54892728D01*
X170121428Y-54892728D02*
X170121428Y-55035585D01*
X170121428Y-55035585D02*
X170092857Y-55092728D01*
X170092857Y-55092728D02*
X170064286Y-55121300D01*
X170064286Y-55121300D02*
X170007143Y-55149871D01*
X170007143Y-55149871D02*
X169864286Y-55149871D01*
X169864286Y-55149871D02*
X169807143Y-55121300D01*
X169807143Y-55121300D02*
X169778571Y-55092728D01*
X168441785Y-97847728D02*
X168413213Y-97876300D01*
X168413213Y-97876300D02*
X168327499Y-97904871D01*
X168327499Y-97904871D02*
X168270356Y-97904871D01*
X168270356Y-97904871D02*
X168184642Y-97876300D01*
X168184642Y-97876300D02*
X168127499Y-97819157D01*
X168127499Y-97819157D02*
X168098928Y-97762014D01*
X168098928Y-97762014D02*
X168070356Y-97647728D01*
X168070356Y-97647728D02*
X168070356Y-97562014D01*
X168070356Y-97562014D02*
X168098928Y-97447728D01*
X168098928Y-97447728D02*
X168127499Y-97390585D01*
X168127499Y-97390585D02*
X168184642Y-97333442D01*
X168184642Y-97333442D02*
X168270356Y-97304871D01*
X168270356Y-97304871D02*
X168327499Y-97304871D01*
X168327499Y-97304871D02*
X168413213Y-97333442D01*
X168413213Y-97333442D02*
X168441785Y-97362014D01*
X168670356Y-97362014D02*
X168698928Y-97333442D01*
X168698928Y-97333442D02*
X168756071Y-97304871D01*
X168756071Y-97304871D02*
X168898928Y-97304871D01*
X168898928Y-97304871D02*
X168956071Y-97333442D01*
X168956071Y-97333442D02*
X168984642Y-97362014D01*
X168984642Y-97362014D02*
X169013213Y-97419157D01*
X169013213Y-97419157D02*
X169013213Y-97476300D01*
X169013213Y-97476300D02*
X168984642Y-97562014D01*
X168984642Y-97562014D02*
X168641785Y-97904871D01*
X168641785Y-97904871D02*
X169013213Y-97904871D01*
X169213214Y-97304871D02*
X169584642Y-97304871D01*
X169584642Y-97304871D02*
X169384642Y-97533442D01*
X169384642Y-97533442D02*
X169470357Y-97533442D01*
X169470357Y-97533442D02*
X169527500Y-97562014D01*
X169527500Y-97562014D02*
X169556071Y-97590585D01*
X169556071Y-97590585D02*
X169584642Y-97647728D01*
X169584642Y-97647728D02*
X169584642Y-97790585D01*
X169584642Y-97790585D02*
X169556071Y-97847728D01*
X169556071Y-97847728D02*
X169527500Y-97876300D01*
X169527500Y-97876300D02*
X169470357Y-97904871D01*
X169470357Y-97904871D02*
X169298928Y-97904871D01*
X169298928Y-97904871D02*
X169241785Y-97876300D01*
X169241785Y-97876300D02*
X169213214Y-97847728D01*
X183779999Y-83322371D02*
X183779999Y-83750942D01*
X183779999Y-83750942D02*
X183751428Y-83836657D01*
X183751428Y-83836657D02*
X183694285Y-83893800D01*
X183694285Y-83893800D02*
X183608571Y-83922371D01*
X183608571Y-83922371D02*
X183551428Y-83922371D01*
X184008571Y-83322371D02*
X184408571Y-83322371D01*
X184408571Y-83322371D02*
X184151428Y-83922371D01*
X165854285Y-60692371D02*
X165654285Y-60406657D01*
X165511428Y-60692371D02*
X165511428Y-60092371D01*
X165511428Y-60092371D02*
X165739999Y-60092371D01*
X165739999Y-60092371D02*
X165797142Y-60120942D01*
X165797142Y-60120942D02*
X165825713Y-60149514D01*
X165825713Y-60149514D02*
X165854285Y-60206657D01*
X165854285Y-60206657D02*
X165854285Y-60292371D01*
X165854285Y-60292371D02*
X165825713Y-60349514D01*
X165825713Y-60349514D02*
X165797142Y-60378085D01*
X165797142Y-60378085D02*
X165739999Y-60406657D01*
X165739999Y-60406657D02*
X165511428Y-60406657D01*
X166082856Y-60149514D02*
X166111428Y-60120942D01*
X166111428Y-60120942D02*
X166168571Y-60092371D01*
X166168571Y-60092371D02*
X166311428Y-60092371D01*
X166311428Y-60092371D02*
X166368571Y-60120942D01*
X166368571Y-60120942D02*
X166397142Y-60149514D01*
X166397142Y-60149514D02*
X166425713Y-60206657D01*
X166425713Y-60206657D02*
X166425713Y-60263800D01*
X166425713Y-60263800D02*
X166397142Y-60349514D01*
X166397142Y-60349514D02*
X166054285Y-60692371D01*
X166054285Y-60692371D02*
X166425713Y-60692371D01*
X166625714Y-60092371D02*
X167025714Y-60092371D01*
X167025714Y-60092371D02*
X166768571Y-60692371D01*
X160744871Y-77140714D02*
X160459157Y-77340714D01*
X160744871Y-77483571D02*
X160144871Y-77483571D01*
X160144871Y-77483571D02*
X160144871Y-77255000D01*
X160144871Y-77255000D02*
X160173442Y-77197857D01*
X160173442Y-77197857D02*
X160202014Y-77169286D01*
X160202014Y-77169286D02*
X160259157Y-77140714D01*
X160259157Y-77140714D02*
X160344871Y-77140714D01*
X160344871Y-77140714D02*
X160402014Y-77169286D01*
X160402014Y-77169286D02*
X160430585Y-77197857D01*
X160430585Y-77197857D02*
X160459157Y-77255000D01*
X160459157Y-77255000D02*
X160459157Y-77483571D01*
X160744871Y-76569286D02*
X160744871Y-76912143D01*
X160744871Y-76740714D02*
X160144871Y-76740714D01*
X160144871Y-76740714D02*
X160230585Y-76797857D01*
X160230585Y-76797857D02*
X160287728Y-76855000D01*
X160287728Y-76855000D02*
X160316300Y-76912143D01*
X160744871Y-76283571D02*
X160744871Y-76169285D01*
X160744871Y-76169285D02*
X160716300Y-76112142D01*
X160716300Y-76112142D02*
X160687728Y-76083571D01*
X160687728Y-76083571D02*
X160602014Y-76026428D01*
X160602014Y-76026428D02*
X160487728Y-75997857D01*
X160487728Y-75997857D02*
X160259157Y-75997857D01*
X160259157Y-75997857D02*
X160202014Y-76026428D01*
X160202014Y-76026428D02*
X160173442Y-76055000D01*
X160173442Y-76055000D02*
X160144871Y-76112142D01*
X160144871Y-76112142D02*
X160144871Y-76226428D01*
X160144871Y-76226428D02*
X160173442Y-76283571D01*
X160173442Y-76283571D02*
X160202014Y-76312142D01*
X160202014Y-76312142D02*
X160259157Y-76340714D01*
X160259157Y-76340714D02*
X160402014Y-76340714D01*
X160402014Y-76340714D02*
X160459157Y-76312142D01*
X160459157Y-76312142D02*
X160487728Y-76283571D01*
X160487728Y-76283571D02*
X160516300Y-76226428D01*
X160516300Y-76226428D02*
X160516300Y-76112142D01*
X160516300Y-76112142D02*
X160487728Y-76055000D01*
X160487728Y-76055000D02*
X160459157Y-76026428D01*
X160459157Y-76026428D02*
X160402014Y-75997857D01*
X165804285Y-71192371D02*
X165604285Y-70906657D01*
X165461428Y-71192371D02*
X165461428Y-70592371D01*
X165461428Y-70592371D02*
X165689999Y-70592371D01*
X165689999Y-70592371D02*
X165747142Y-70620942D01*
X165747142Y-70620942D02*
X165775713Y-70649514D01*
X165775713Y-70649514D02*
X165804285Y-70706657D01*
X165804285Y-70706657D02*
X165804285Y-70792371D01*
X165804285Y-70792371D02*
X165775713Y-70849514D01*
X165775713Y-70849514D02*
X165747142Y-70878085D01*
X165747142Y-70878085D02*
X165689999Y-70906657D01*
X165689999Y-70906657D02*
X165461428Y-70906657D01*
X166032856Y-70649514D02*
X166061428Y-70620942D01*
X166061428Y-70620942D02*
X166118571Y-70592371D01*
X166118571Y-70592371D02*
X166261428Y-70592371D01*
X166261428Y-70592371D02*
X166318571Y-70620942D01*
X166318571Y-70620942D02*
X166347142Y-70649514D01*
X166347142Y-70649514D02*
X166375713Y-70706657D01*
X166375713Y-70706657D02*
X166375713Y-70763800D01*
X166375713Y-70763800D02*
X166347142Y-70849514D01*
X166347142Y-70849514D02*
X166004285Y-71192371D01*
X166004285Y-71192371D02*
X166375713Y-71192371D01*
X166918571Y-70592371D02*
X166632857Y-70592371D01*
X166632857Y-70592371D02*
X166604285Y-70878085D01*
X166604285Y-70878085D02*
X166632857Y-70849514D01*
X166632857Y-70849514D02*
X166690000Y-70820942D01*
X166690000Y-70820942D02*
X166832857Y-70820942D01*
X166832857Y-70820942D02*
X166890000Y-70849514D01*
X166890000Y-70849514D02*
X166918571Y-70878085D01*
X166918571Y-70878085D02*
X166947142Y-70935228D01*
X166947142Y-70935228D02*
X166947142Y-71078085D01*
X166947142Y-71078085D02*
X166918571Y-71135228D01*
X166918571Y-71135228D02*
X166890000Y-71163800D01*
X166890000Y-71163800D02*
X166832857Y-71192371D01*
X166832857Y-71192371D02*
X166690000Y-71192371D01*
X166690000Y-71192371D02*
X166632857Y-71163800D01*
X166632857Y-71163800D02*
X166604285Y-71135228D01*
X156754285Y-104375228D02*
X156725713Y-104403800D01*
X156725713Y-104403800D02*
X156639999Y-104432371D01*
X156639999Y-104432371D02*
X156582856Y-104432371D01*
X156582856Y-104432371D02*
X156497142Y-104403800D01*
X156497142Y-104403800D02*
X156439999Y-104346657D01*
X156439999Y-104346657D02*
X156411428Y-104289514D01*
X156411428Y-104289514D02*
X156382856Y-104175228D01*
X156382856Y-104175228D02*
X156382856Y-104089514D01*
X156382856Y-104089514D02*
X156411428Y-103975228D01*
X156411428Y-103975228D02*
X156439999Y-103918085D01*
X156439999Y-103918085D02*
X156497142Y-103860942D01*
X156497142Y-103860942D02*
X156582856Y-103832371D01*
X156582856Y-103832371D02*
X156639999Y-103832371D01*
X156639999Y-103832371D02*
X156725713Y-103860942D01*
X156725713Y-103860942D02*
X156754285Y-103889514D01*
X157325713Y-104432371D02*
X156982856Y-104432371D01*
X157154285Y-104432371D02*
X157154285Y-103832371D01*
X157154285Y-103832371D02*
X157097142Y-103918085D01*
X157097142Y-103918085D02*
X157039999Y-103975228D01*
X157039999Y-103975228D02*
X156982856Y-104003800D01*
X157525714Y-103832371D02*
X157925714Y-103832371D01*
X157925714Y-103832371D02*
X157668571Y-104432371D01*
X152154285Y-73680228D02*
X152125713Y-73708800D01*
X152125713Y-73708800D02*
X152039999Y-73737371D01*
X152039999Y-73737371D02*
X151982856Y-73737371D01*
X151982856Y-73737371D02*
X151897142Y-73708800D01*
X151897142Y-73708800D02*
X151839999Y-73651657D01*
X151839999Y-73651657D02*
X151811428Y-73594514D01*
X151811428Y-73594514D02*
X151782856Y-73480228D01*
X151782856Y-73480228D02*
X151782856Y-73394514D01*
X151782856Y-73394514D02*
X151811428Y-73280228D01*
X151811428Y-73280228D02*
X151839999Y-73223085D01*
X151839999Y-73223085D02*
X151897142Y-73165942D01*
X151897142Y-73165942D02*
X151982856Y-73137371D01*
X151982856Y-73137371D02*
X152039999Y-73137371D01*
X152039999Y-73137371D02*
X152125713Y-73165942D01*
X152125713Y-73165942D02*
X152154285Y-73194514D01*
X152725713Y-73737371D02*
X152382856Y-73737371D01*
X152554285Y-73737371D02*
X152554285Y-73137371D01*
X152554285Y-73137371D02*
X152497142Y-73223085D01*
X152497142Y-73223085D02*
X152439999Y-73280228D01*
X152439999Y-73280228D02*
X152382856Y-73308800D01*
X153297142Y-73737371D02*
X152954285Y-73737371D01*
X153125714Y-73737371D02*
X153125714Y-73137371D01*
X153125714Y-73137371D02*
X153068571Y-73223085D01*
X153068571Y-73223085D02*
X153011428Y-73280228D01*
X153011428Y-73280228D02*
X152954285Y-73308800D01*
X126332500Y-94152371D02*
X126132500Y-93866657D01*
X125989643Y-94152371D02*
X125989643Y-93552371D01*
X125989643Y-93552371D02*
X126218214Y-93552371D01*
X126218214Y-93552371D02*
X126275357Y-93580942D01*
X126275357Y-93580942D02*
X126303928Y-93609514D01*
X126303928Y-93609514D02*
X126332500Y-93666657D01*
X126332500Y-93666657D02*
X126332500Y-93752371D01*
X126332500Y-93752371D02*
X126303928Y-93809514D01*
X126303928Y-93809514D02*
X126275357Y-93838085D01*
X126275357Y-93838085D02*
X126218214Y-93866657D01*
X126218214Y-93866657D02*
X125989643Y-93866657D01*
X126618214Y-94152371D02*
X126732500Y-94152371D01*
X126732500Y-94152371D02*
X126789643Y-94123800D01*
X126789643Y-94123800D02*
X126818214Y-94095228D01*
X126818214Y-94095228D02*
X126875357Y-94009514D01*
X126875357Y-94009514D02*
X126903928Y-93895228D01*
X126903928Y-93895228D02*
X126903928Y-93666657D01*
X126903928Y-93666657D02*
X126875357Y-93609514D01*
X126875357Y-93609514D02*
X126846786Y-93580942D01*
X126846786Y-93580942D02*
X126789643Y-93552371D01*
X126789643Y-93552371D02*
X126675357Y-93552371D01*
X126675357Y-93552371D02*
X126618214Y-93580942D01*
X126618214Y-93580942D02*
X126589643Y-93609514D01*
X126589643Y-93609514D02*
X126561071Y-93666657D01*
X126561071Y-93666657D02*
X126561071Y-93809514D01*
X126561071Y-93809514D02*
X126589643Y-93866657D01*
X126589643Y-93866657D02*
X126618214Y-93895228D01*
X126618214Y-93895228D02*
X126675357Y-93923800D01*
X126675357Y-93923800D02*
X126789643Y-93923800D01*
X126789643Y-93923800D02*
X126846786Y-93895228D01*
X126846786Y-93895228D02*
X126875357Y-93866657D01*
X126875357Y-93866657D02*
X126903928Y-93809514D01*
X160787371Y-88110714D02*
X160501657Y-88310714D01*
X160787371Y-88453571D02*
X160187371Y-88453571D01*
X160187371Y-88453571D02*
X160187371Y-88225000D01*
X160187371Y-88225000D02*
X160215942Y-88167857D01*
X160215942Y-88167857D02*
X160244514Y-88139286D01*
X160244514Y-88139286D02*
X160301657Y-88110714D01*
X160301657Y-88110714D02*
X160387371Y-88110714D01*
X160387371Y-88110714D02*
X160444514Y-88139286D01*
X160444514Y-88139286D02*
X160473085Y-88167857D01*
X160473085Y-88167857D02*
X160501657Y-88225000D01*
X160501657Y-88225000D02*
X160501657Y-88453571D01*
X160244514Y-87882143D02*
X160215942Y-87853571D01*
X160215942Y-87853571D02*
X160187371Y-87796429D01*
X160187371Y-87796429D02*
X160187371Y-87653571D01*
X160187371Y-87653571D02*
X160215942Y-87596429D01*
X160215942Y-87596429D02*
X160244514Y-87567857D01*
X160244514Y-87567857D02*
X160301657Y-87539286D01*
X160301657Y-87539286D02*
X160358800Y-87539286D01*
X160358800Y-87539286D02*
X160444514Y-87567857D01*
X160444514Y-87567857D02*
X160787371Y-87910714D01*
X160787371Y-87910714D02*
X160787371Y-87539286D01*
X160787371Y-86967857D02*
X160787371Y-87310714D01*
X160787371Y-87139285D02*
X160187371Y-87139285D01*
X160187371Y-87139285D02*
X160273085Y-87196428D01*
X160273085Y-87196428D02*
X160330228Y-87253571D01*
X160330228Y-87253571D02*
X160358800Y-87310714D01*
X140411428Y-100232371D02*
X140411428Y-99632371D01*
X140411428Y-99632371D02*
X140554285Y-99632371D01*
X140554285Y-99632371D02*
X140639999Y-99660942D01*
X140639999Y-99660942D02*
X140697142Y-99718085D01*
X140697142Y-99718085D02*
X140725713Y-99775228D01*
X140725713Y-99775228D02*
X140754285Y-99889514D01*
X140754285Y-99889514D02*
X140754285Y-99975228D01*
X140754285Y-99975228D02*
X140725713Y-100089514D01*
X140725713Y-100089514D02*
X140697142Y-100146657D01*
X140697142Y-100146657D02*
X140639999Y-100203800D01*
X140639999Y-100203800D02*
X140554285Y-100232371D01*
X140554285Y-100232371D02*
X140411428Y-100232371D01*
X141325713Y-100232371D02*
X140982856Y-100232371D01*
X141154285Y-100232371D02*
X141154285Y-99632371D01*
X141154285Y-99632371D02*
X141097142Y-99718085D01*
X141097142Y-99718085D02*
X141039999Y-99775228D01*
X141039999Y-99775228D02*
X140982856Y-99803800D01*
X141697142Y-99632371D02*
X141754285Y-99632371D01*
X141754285Y-99632371D02*
X141811428Y-99660942D01*
X141811428Y-99660942D02*
X141840000Y-99689514D01*
X141840000Y-99689514D02*
X141868571Y-99746657D01*
X141868571Y-99746657D02*
X141897142Y-99860942D01*
X141897142Y-99860942D02*
X141897142Y-100003800D01*
X141897142Y-100003800D02*
X141868571Y-100118085D01*
X141868571Y-100118085D02*
X141840000Y-100175228D01*
X141840000Y-100175228D02*
X141811428Y-100203800D01*
X141811428Y-100203800D02*
X141754285Y-100232371D01*
X141754285Y-100232371D02*
X141697142Y-100232371D01*
X141697142Y-100232371D02*
X141640000Y-100203800D01*
X141640000Y-100203800D02*
X141611428Y-100175228D01*
X141611428Y-100175228D02*
X141582857Y-100118085D01*
X141582857Y-100118085D02*
X141554285Y-100003800D01*
X141554285Y-100003800D02*
X141554285Y-99860942D01*
X141554285Y-99860942D02*
X141582857Y-99746657D01*
X141582857Y-99746657D02*
X141611428Y-99689514D01*
X141611428Y-99689514D02*
X141640000Y-99660942D01*
X141640000Y-99660942D02*
X141697142Y-99632371D01*
X121690000Y-93865228D02*
X121661428Y-93893800D01*
X121661428Y-93893800D02*
X121575714Y-93922371D01*
X121575714Y-93922371D02*
X121518571Y-93922371D01*
X121518571Y-93922371D02*
X121432857Y-93893800D01*
X121432857Y-93893800D02*
X121375714Y-93836657D01*
X121375714Y-93836657D02*
X121347143Y-93779514D01*
X121347143Y-93779514D02*
X121318571Y-93665228D01*
X121318571Y-93665228D02*
X121318571Y-93579514D01*
X121318571Y-93579514D02*
X121347143Y-93465228D01*
X121347143Y-93465228D02*
X121375714Y-93408085D01*
X121375714Y-93408085D02*
X121432857Y-93350942D01*
X121432857Y-93350942D02*
X121518571Y-93322371D01*
X121518571Y-93322371D02*
X121575714Y-93322371D01*
X121575714Y-93322371D02*
X121661428Y-93350942D01*
X121661428Y-93350942D02*
X121690000Y-93379514D01*
X121890000Y-93322371D02*
X122290000Y-93322371D01*
X122290000Y-93322371D02*
X122032857Y-93922371D01*
X165844285Y-65967371D02*
X165644285Y-65681657D01*
X165501428Y-65967371D02*
X165501428Y-65367371D01*
X165501428Y-65367371D02*
X165729999Y-65367371D01*
X165729999Y-65367371D02*
X165787142Y-65395942D01*
X165787142Y-65395942D02*
X165815713Y-65424514D01*
X165815713Y-65424514D02*
X165844285Y-65481657D01*
X165844285Y-65481657D02*
X165844285Y-65567371D01*
X165844285Y-65567371D02*
X165815713Y-65624514D01*
X165815713Y-65624514D02*
X165787142Y-65653085D01*
X165787142Y-65653085D02*
X165729999Y-65681657D01*
X165729999Y-65681657D02*
X165501428Y-65681657D01*
X166072856Y-65424514D02*
X166101428Y-65395942D01*
X166101428Y-65395942D02*
X166158571Y-65367371D01*
X166158571Y-65367371D02*
X166301428Y-65367371D01*
X166301428Y-65367371D02*
X166358571Y-65395942D01*
X166358571Y-65395942D02*
X166387142Y-65424514D01*
X166387142Y-65424514D02*
X166415713Y-65481657D01*
X166415713Y-65481657D02*
X166415713Y-65538800D01*
X166415713Y-65538800D02*
X166387142Y-65624514D01*
X166387142Y-65624514D02*
X166044285Y-65967371D01*
X166044285Y-65967371D02*
X166415713Y-65967371D01*
X166930000Y-65367371D02*
X166815714Y-65367371D01*
X166815714Y-65367371D02*
X166758571Y-65395942D01*
X166758571Y-65395942D02*
X166730000Y-65424514D01*
X166730000Y-65424514D02*
X166672857Y-65510228D01*
X166672857Y-65510228D02*
X166644285Y-65624514D01*
X166644285Y-65624514D02*
X166644285Y-65853085D01*
X166644285Y-65853085D02*
X166672857Y-65910228D01*
X166672857Y-65910228D02*
X166701428Y-65938800D01*
X166701428Y-65938800D02*
X166758571Y-65967371D01*
X166758571Y-65967371D02*
X166872857Y-65967371D01*
X166872857Y-65967371D02*
X166930000Y-65938800D01*
X166930000Y-65938800D02*
X166958571Y-65910228D01*
X166958571Y-65910228D02*
X166987142Y-65853085D01*
X166987142Y-65853085D02*
X166987142Y-65710228D01*
X166987142Y-65710228D02*
X166958571Y-65653085D01*
X166958571Y-65653085D02*
X166930000Y-65624514D01*
X166930000Y-65624514D02*
X166872857Y-65595942D01*
X166872857Y-65595942D02*
X166758571Y-65595942D01*
X166758571Y-65595942D02*
X166701428Y-65624514D01*
X166701428Y-65624514D02*
X166672857Y-65653085D01*
X166672857Y-65653085D02*
X166644285Y-65710228D01*
X128915357Y-116012371D02*
X128915357Y-116498085D01*
X128915357Y-116498085D02*
X128943928Y-116555228D01*
X128943928Y-116555228D02*
X128972500Y-116583800D01*
X128972500Y-116583800D02*
X129029642Y-116612371D01*
X129029642Y-116612371D02*
X129143928Y-116612371D01*
X129143928Y-116612371D02*
X129201071Y-116583800D01*
X129201071Y-116583800D02*
X129229642Y-116555228D01*
X129229642Y-116555228D02*
X129258214Y-116498085D01*
X129258214Y-116498085D02*
X129258214Y-116012371D01*
X129829642Y-116012371D02*
X129543928Y-116012371D01*
X129543928Y-116012371D02*
X129515356Y-116298085D01*
X129515356Y-116298085D02*
X129543928Y-116269514D01*
X129543928Y-116269514D02*
X129601071Y-116240942D01*
X129601071Y-116240942D02*
X129743928Y-116240942D01*
X129743928Y-116240942D02*
X129801071Y-116269514D01*
X129801071Y-116269514D02*
X129829642Y-116298085D01*
X129829642Y-116298085D02*
X129858213Y-116355228D01*
X129858213Y-116355228D02*
X129858213Y-116498085D01*
X129858213Y-116498085D02*
X129829642Y-116555228D01*
X129829642Y-116555228D02*
X129801071Y-116583800D01*
X129801071Y-116583800D02*
X129743928Y-116612371D01*
X129743928Y-116612371D02*
X129601071Y-116612371D01*
X129601071Y-116612371D02*
X129543928Y-116583800D01*
X129543928Y-116583800D02*
X129515356Y-116555228D01*
X130712143Y-65509871D02*
X130712143Y-64909871D01*
X130712143Y-64909871D02*
X130855000Y-64909871D01*
X130855000Y-64909871D02*
X130940714Y-64938442D01*
X130940714Y-64938442D02*
X130997857Y-64995585D01*
X130997857Y-64995585D02*
X131026428Y-65052728D01*
X131026428Y-65052728D02*
X131055000Y-65167014D01*
X131055000Y-65167014D02*
X131055000Y-65252728D01*
X131055000Y-65252728D02*
X131026428Y-65367014D01*
X131026428Y-65367014D02*
X130997857Y-65424157D01*
X130997857Y-65424157D02*
X130940714Y-65481300D01*
X130940714Y-65481300D02*
X130855000Y-65509871D01*
X130855000Y-65509871D02*
X130712143Y-65509871D01*
X131569286Y-64909871D02*
X131455000Y-64909871D01*
X131455000Y-64909871D02*
X131397857Y-64938442D01*
X131397857Y-64938442D02*
X131369286Y-64967014D01*
X131369286Y-64967014D02*
X131312143Y-65052728D01*
X131312143Y-65052728D02*
X131283571Y-65167014D01*
X131283571Y-65167014D02*
X131283571Y-65395585D01*
X131283571Y-65395585D02*
X131312143Y-65452728D01*
X131312143Y-65452728D02*
X131340714Y-65481300D01*
X131340714Y-65481300D02*
X131397857Y-65509871D01*
X131397857Y-65509871D02*
X131512143Y-65509871D01*
X131512143Y-65509871D02*
X131569286Y-65481300D01*
X131569286Y-65481300D02*
X131597857Y-65452728D01*
X131597857Y-65452728D02*
X131626428Y-65395585D01*
X131626428Y-65395585D02*
X131626428Y-65252728D01*
X131626428Y-65252728D02*
X131597857Y-65195585D01*
X131597857Y-65195585D02*
X131569286Y-65167014D01*
X131569286Y-65167014D02*
X131512143Y-65138442D01*
X131512143Y-65138442D02*
X131397857Y-65138442D01*
X131397857Y-65138442D02*
X131340714Y-65167014D01*
X131340714Y-65167014D02*
X131312143Y-65195585D01*
X131312143Y-65195585D02*
X131283571Y-65252728D01*
X171859871Y-111492142D02*
X172345585Y-111492142D01*
X172345585Y-111492142D02*
X172402728Y-111463571D01*
X172402728Y-111463571D02*
X172431300Y-111435000D01*
X172431300Y-111435000D02*
X172459871Y-111377857D01*
X172459871Y-111377857D02*
X172459871Y-111263571D01*
X172459871Y-111263571D02*
X172431300Y-111206428D01*
X172431300Y-111206428D02*
X172402728Y-111177857D01*
X172402728Y-111177857D02*
X172345585Y-111149285D01*
X172345585Y-111149285D02*
X171859871Y-111149285D01*
X171859871Y-110606429D02*
X171859871Y-110720714D01*
X171859871Y-110720714D02*
X171888442Y-110777857D01*
X171888442Y-110777857D02*
X171917014Y-110806429D01*
X171917014Y-110806429D02*
X172002728Y-110863571D01*
X172002728Y-110863571D02*
X172117014Y-110892143D01*
X172117014Y-110892143D02*
X172345585Y-110892143D01*
X172345585Y-110892143D02*
X172402728Y-110863571D01*
X172402728Y-110863571D02*
X172431300Y-110835000D01*
X172431300Y-110835000D02*
X172459871Y-110777857D01*
X172459871Y-110777857D02*
X172459871Y-110663571D01*
X172459871Y-110663571D02*
X172431300Y-110606429D01*
X172431300Y-110606429D02*
X172402728Y-110577857D01*
X172402728Y-110577857D02*
X172345585Y-110549286D01*
X172345585Y-110549286D02*
X172202728Y-110549286D01*
X172202728Y-110549286D02*
X172145585Y-110577857D01*
X172145585Y-110577857D02*
X172117014Y-110606429D01*
X172117014Y-110606429D02*
X172088442Y-110663571D01*
X172088442Y-110663571D02*
X172088442Y-110777857D01*
X172088442Y-110777857D02*
X172117014Y-110835000D01*
X172117014Y-110835000D02*
X172145585Y-110863571D01*
X172145585Y-110863571D02*
X172202728Y-110892143D01*
X158924285Y-117832853D02*
X158895713Y-117861425D01*
X158895713Y-117861425D02*
X158809999Y-117889996D01*
X158809999Y-117889996D02*
X158752856Y-117889996D01*
X158752856Y-117889996D02*
X158667142Y-117861425D01*
X158667142Y-117861425D02*
X158609999Y-117804282D01*
X158609999Y-117804282D02*
X158581428Y-117747139D01*
X158581428Y-117747139D02*
X158552856Y-117632853D01*
X158552856Y-117632853D02*
X158552856Y-117547139D01*
X158552856Y-117547139D02*
X158581428Y-117432853D01*
X158581428Y-117432853D02*
X158609999Y-117375710D01*
X158609999Y-117375710D02*
X158667142Y-117318567D01*
X158667142Y-117318567D02*
X158752856Y-117289996D01*
X158752856Y-117289996D02*
X158809999Y-117289996D01*
X158809999Y-117289996D02*
X158895713Y-117318567D01*
X158895713Y-117318567D02*
X158924285Y-117347139D01*
X159152856Y-117347139D02*
X159181428Y-117318567D01*
X159181428Y-117318567D02*
X159238571Y-117289996D01*
X159238571Y-117289996D02*
X159381428Y-117289996D01*
X159381428Y-117289996D02*
X159438571Y-117318567D01*
X159438571Y-117318567D02*
X159467142Y-117347139D01*
X159467142Y-117347139D02*
X159495713Y-117404282D01*
X159495713Y-117404282D02*
X159495713Y-117461425D01*
X159495713Y-117461425D02*
X159467142Y-117547139D01*
X159467142Y-117547139D02*
X159124285Y-117889996D01*
X159124285Y-117889996D02*
X159495713Y-117889996D01*
X160067142Y-117889996D02*
X159724285Y-117889996D01*
X159895714Y-117889996D02*
X159895714Y-117289996D01*
X159895714Y-117289996D02*
X159838571Y-117375710D01*
X159838571Y-117375710D02*
X159781428Y-117432853D01*
X159781428Y-117432853D02*
X159724285Y-117461425D01*
X130712143Y-59929871D02*
X130712143Y-59329871D01*
X130712143Y-59329871D02*
X130855000Y-59329871D01*
X130855000Y-59329871D02*
X130940714Y-59358442D01*
X130940714Y-59358442D02*
X130997857Y-59415585D01*
X130997857Y-59415585D02*
X131026428Y-59472728D01*
X131026428Y-59472728D02*
X131055000Y-59587014D01*
X131055000Y-59587014D02*
X131055000Y-59672728D01*
X131055000Y-59672728D02*
X131026428Y-59787014D01*
X131026428Y-59787014D02*
X130997857Y-59844157D01*
X130997857Y-59844157D02*
X130940714Y-59901300D01*
X130940714Y-59901300D02*
X130855000Y-59929871D01*
X130855000Y-59929871D02*
X130712143Y-59929871D01*
X131397857Y-59587014D02*
X131340714Y-59558442D01*
X131340714Y-59558442D02*
X131312143Y-59529871D01*
X131312143Y-59529871D02*
X131283571Y-59472728D01*
X131283571Y-59472728D02*
X131283571Y-59444157D01*
X131283571Y-59444157D02*
X131312143Y-59387014D01*
X131312143Y-59387014D02*
X131340714Y-59358442D01*
X131340714Y-59358442D02*
X131397857Y-59329871D01*
X131397857Y-59329871D02*
X131512143Y-59329871D01*
X131512143Y-59329871D02*
X131569286Y-59358442D01*
X131569286Y-59358442D02*
X131597857Y-59387014D01*
X131597857Y-59387014D02*
X131626428Y-59444157D01*
X131626428Y-59444157D02*
X131626428Y-59472728D01*
X131626428Y-59472728D02*
X131597857Y-59529871D01*
X131597857Y-59529871D02*
X131569286Y-59558442D01*
X131569286Y-59558442D02*
X131512143Y-59587014D01*
X131512143Y-59587014D02*
X131397857Y-59587014D01*
X131397857Y-59587014D02*
X131340714Y-59615585D01*
X131340714Y-59615585D02*
X131312143Y-59644157D01*
X131312143Y-59644157D02*
X131283571Y-59701300D01*
X131283571Y-59701300D02*
X131283571Y-59815585D01*
X131283571Y-59815585D02*
X131312143Y-59872728D01*
X131312143Y-59872728D02*
X131340714Y-59901300D01*
X131340714Y-59901300D02*
X131397857Y-59929871D01*
X131397857Y-59929871D02*
X131512143Y-59929871D01*
X131512143Y-59929871D02*
X131569286Y-59901300D01*
X131569286Y-59901300D02*
X131597857Y-59872728D01*
X131597857Y-59872728D02*
X131626428Y-59815585D01*
X131626428Y-59815585D02*
X131626428Y-59701300D01*
X131626428Y-59701300D02*
X131597857Y-59644157D01*
X131597857Y-59644157D02*
X131569286Y-59615585D01*
X131569286Y-59615585D02*
X131512143Y-59587014D01*
X118700000Y-79705228D02*
X118671428Y-79733800D01*
X118671428Y-79733800D02*
X118585714Y-79762371D01*
X118585714Y-79762371D02*
X118528571Y-79762371D01*
X118528571Y-79762371D02*
X118442857Y-79733800D01*
X118442857Y-79733800D02*
X118385714Y-79676657D01*
X118385714Y-79676657D02*
X118357143Y-79619514D01*
X118357143Y-79619514D02*
X118328571Y-79505228D01*
X118328571Y-79505228D02*
X118328571Y-79419514D01*
X118328571Y-79419514D02*
X118357143Y-79305228D01*
X118357143Y-79305228D02*
X118385714Y-79248085D01*
X118385714Y-79248085D02*
X118442857Y-79190942D01*
X118442857Y-79190942D02*
X118528571Y-79162371D01*
X118528571Y-79162371D02*
X118585714Y-79162371D01*
X118585714Y-79162371D02*
X118671428Y-79190942D01*
X118671428Y-79190942D02*
X118700000Y-79219514D01*
X119271428Y-79762371D02*
X118928571Y-79762371D01*
X119100000Y-79762371D02*
X119100000Y-79162371D01*
X119100000Y-79162371D02*
X119042857Y-79248085D01*
X119042857Y-79248085D02*
X118985714Y-79305228D01*
X118985714Y-79305228D02*
X118928571Y-79333800D01*
X126320000Y-89242371D02*
X126120000Y-88956657D01*
X125977143Y-89242371D02*
X125977143Y-88642371D01*
X125977143Y-88642371D02*
X126205714Y-88642371D01*
X126205714Y-88642371D02*
X126262857Y-88670942D01*
X126262857Y-88670942D02*
X126291428Y-88699514D01*
X126291428Y-88699514D02*
X126320000Y-88756657D01*
X126320000Y-88756657D02*
X126320000Y-88842371D01*
X126320000Y-88842371D02*
X126291428Y-88899514D01*
X126291428Y-88899514D02*
X126262857Y-88928085D01*
X126262857Y-88928085D02*
X126205714Y-88956657D01*
X126205714Y-88956657D02*
X125977143Y-88956657D01*
X126662857Y-88899514D02*
X126605714Y-88870942D01*
X126605714Y-88870942D02*
X126577143Y-88842371D01*
X126577143Y-88842371D02*
X126548571Y-88785228D01*
X126548571Y-88785228D02*
X126548571Y-88756657D01*
X126548571Y-88756657D02*
X126577143Y-88699514D01*
X126577143Y-88699514D02*
X126605714Y-88670942D01*
X126605714Y-88670942D02*
X126662857Y-88642371D01*
X126662857Y-88642371D02*
X126777143Y-88642371D01*
X126777143Y-88642371D02*
X126834286Y-88670942D01*
X126834286Y-88670942D02*
X126862857Y-88699514D01*
X126862857Y-88699514D02*
X126891428Y-88756657D01*
X126891428Y-88756657D02*
X126891428Y-88785228D01*
X126891428Y-88785228D02*
X126862857Y-88842371D01*
X126862857Y-88842371D02*
X126834286Y-88870942D01*
X126834286Y-88870942D02*
X126777143Y-88899514D01*
X126777143Y-88899514D02*
X126662857Y-88899514D01*
X126662857Y-88899514D02*
X126605714Y-88928085D01*
X126605714Y-88928085D02*
X126577143Y-88956657D01*
X126577143Y-88956657D02*
X126548571Y-89013800D01*
X126548571Y-89013800D02*
X126548571Y-89128085D01*
X126548571Y-89128085D02*
X126577143Y-89185228D01*
X126577143Y-89185228D02*
X126605714Y-89213800D01*
X126605714Y-89213800D02*
X126662857Y-89242371D01*
X126662857Y-89242371D02*
X126777143Y-89242371D01*
X126777143Y-89242371D02*
X126834286Y-89213800D01*
X126834286Y-89213800D02*
X126862857Y-89185228D01*
X126862857Y-89185228D02*
X126891428Y-89128085D01*
X126891428Y-89128085D02*
X126891428Y-89013800D01*
X126891428Y-89013800D02*
X126862857Y-88956657D01*
X126862857Y-88956657D02*
X126834286Y-88928085D01*
X126834286Y-88928085D02*
X126777143Y-88899514D01*
X149214285Y-75252728D02*
X149185713Y-75281300D01*
X149185713Y-75281300D02*
X149099999Y-75309871D01*
X149099999Y-75309871D02*
X149042856Y-75309871D01*
X149042856Y-75309871D02*
X148957142Y-75281300D01*
X148957142Y-75281300D02*
X148899999Y-75224157D01*
X148899999Y-75224157D02*
X148871428Y-75167014D01*
X148871428Y-75167014D02*
X148842856Y-75052728D01*
X148842856Y-75052728D02*
X148842856Y-74967014D01*
X148842856Y-74967014D02*
X148871428Y-74852728D01*
X148871428Y-74852728D02*
X148899999Y-74795585D01*
X148899999Y-74795585D02*
X148957142Y-74738442D01*
X148957142Y-74738442D02*
X149042856Y-74709871D01*
X149042856Y-74709871D02*
X149099999Y-74709871D01*
X149099999Y-74709871D02*
X149185713Y-74738442D01*
X149185713Y-74738442D02*
X149214285Y-74767014D01*
X149785713Y-75309871D02*
X149442856Y-75309871D01*
X149614285Y-75309871D02*
X149614285Y-74709871D01*
X149614285Y-74709871D02*
X149557142Y-74795585D01*
X149557142Y-74795585D02*
X149499999Y-74852728D01*
X149499999Y-74852728D02*
X149442856Y-74881300D01*
X150157142Y-74709871D02*
X150214285Y-74709871D01*
X150214285Y-74709871D02*
X150271428Y-74738442D01*
X150271428Y-74738442D02*
X150300000Y-74767014D01*
X150300000Y-74767014D02*
X150328571Y-74824157D01*
X150328571Y-74824157D02*
X150357142Y-74938442D01*
X150357142Y-74938442D02*
X150357142Y-75081300D01*
X150357142Y-75081300D02*
X150328571Y-75195585D01*
X150328571Y-75195585D02*
X150300000Y-75252728D01*
X150300000Y-75252728D02*
X150271428Y-75281300D01*
X150271428Y-75281300D02*
X150214285Y-75309871D01*
X150214285Y-75309871D02*
X150157142Y-75309871D01*
X150157142Y-75309871D02*
X150100000Y-75281300D01*
X150100000Y-75281300D02*
X150071428Y-75252728D01*
X150071428Y-75252728D02*
X150042857Y-75195585D01*
X150042857Y-75195585D02*
X150014285Y-75081300D01*
X150014285Y-75081300D02*
X150014285Y-74938442D01*
X150014285Y-74938442D02*
X150042857Y-74824157D01*
X150042857Y-74824157D02*
X150071428Y-74767014D01*
X150071428Y-74767014D02*
X150100000Y-74738442D01*
X150100000Y-74738442D02*
X150157142Y-74709871D01*
X182444285Y-108805228D02*
X182415713Y-108833800D01*
X182415713Y-108833800D02*
X182329999Y-108862371D01*
X182329999Y-108862371D02*
X182272856Y-108862371D01*
X182272856Y-108862371D02*
X182187142Y-108833800D01*
X182187142Y-108833800D02*
X182129999Y-108776657D01*
X182129999Y-108776657D02*
X182101428Y-108719514D01*
X182101428Y-108719514D02*
X182072856Y-108605228D01*
X182072856Y-108605228D02*
X182072856Y-108519514D01*
X182072856Y-108519514D02*
X182101428Y-108405228D01*
X182101428Y-108405228D02*
X182129999Y-108348085D01*
X182129999Y-108348085D02*
X182187142Y-108290942D01*
X182187142Y-108290942D02*
X182272856Y-108262371D01*
X182272856Y-108262371D02*
X182329999Y-108262371D01*
X182329999Y-108262371D02*
X182415713Y-108290942D01*
X182415713Y-108290942D02*
X182444285Y-108319514D01*
X182672856Y-108319514D02*
X182701428Y-108290942D01*
X182701428Y-108290942D02*
X182758571Y-108262371D01*
X182758571Y-108262371D02*
X182901428Y-108262371D01*
X182901428Y-108262371D02*
X182958571Y-108290942D01*
X182958571Y-108290942D02*
X182987142Y-108319514D01*
X182987142Y-108319514D02*
X183015713Y-108376657D01*
X183015713Y-108376657D02*
X183015713Y-108433800D01*
X183015713Y-108433800D02*
X182987142Y-108519514D01*
X182987142Y-108519514D02*
X182644285Y-108862371D01*
X182644285Y-108862371D02*
X183015713Y-108862371D01*
X183558571Y-108262371D02*
X183272857Y-108262371D01*
X183272857Y-108262371D02*
X183244285Y-108548085D01*
X183244285Y-108548085D02*
X183272857Y-108519514D01*
X183272857Y-108519514D02*
X183330000Y-108490942D01*
X183330000Y-108490942D02*
X183472857Y-108490942D01*
X183472857Y-108490942D02*
X183530000Y-108519514D01*
X183530000Y-108519514D02*
X183558571Y-108548085D01*
X183558571Y-108548085D02*
X183587142Y-108605228D01*
X183587142Y-108605228D02*
X183587142Y-108748085D01*
X183587142Y-108748085D02*
X183558571Y-108805228D01*
X183558571Y-108805228D02*
X183530000Y-108833800D01*
X183530000Y-108833800D02*
X183472857Y-108862371D01*
X183472857Y-108862371D02*
X183330000Y-108862371D01*
X183330000Y-108862371D02*
X183272857Y-108833800D01*
X183272857Y-108833800D02*
X183244285Y-108805228D01*
X183899999Y-49392371D02*
X183899999Y-49820942D01*
X183899999Y-49820942D02*
X183871428Y-49906657D01*
X183871428Y-49906657D02*
X183814285Y-49963800D01*
X183814285Y-49963800D02*
X183728571Y-49992371D01*
X183728571Y-49992371D02*
X183671428Y-49992371D01*
X184128571Y-49392371D02*
X184499999Y-49392371D01*
X184499999Y-49392371D02*
X184299999Y-49620942D01*
X184299999Y-49620942D02*
X184385714Y-49620942D01*
X184385714Y-49620942D02*
X184442857Y-49649514D01*
X184442857Y-49649514D02*
X184471428Y-49678085D01*
X184471428Y-49678085D02*
X184499999Y-49735228D01*
X184499999Y-49735228D02*
X184499999Y-49878085D01*
X184499999Y-49878085D02*
X184471428Y-49935228D01*
X184471428Y-49935228D02*
X184442857Y-49963800D01*
X184442857Y-49963800D02*
X184385714Y-49992371D01*
X184385714Y-49992371D02*
X184214285Y-49992371D01*
X184214285Y-49992371D02*
X184157142Y-49963800D01*
X184157142Y-49963800D02*
X184128571Y-49935228D01*
X160739871Y-83680714D02*
X160454157Y-83880714D01*
X160739871Y-84023571D02*
X160139871Y-84023571D01*
X160139871Y-84023571D02*
X160139871Y-83795000D01*
X160139871Y-83795000D02*
X160168442Y-83737857D01*
X160168442Y-83737857D02*
X160197014Y-83709286D01*
X160197014Y-83709286D02*
X160254157Y-83680714D01*
X160254157Y-83680714D02*
X160339871Y-83680714D01*
X160339871Y-83680714D02*
X160397014Y-83709286D01*
X160397014Y-83709286D02*
X160425585Y-83737857D01*
X160425585Y-83737857D02*
X160454157Y-83795000D01*
X160454157Y-83795000D02*
X160454157Y-84023571D01*
X160739871Y-83109286D02*
X160739871Y-83452143D01*
X160739871Y-83280714D02*
X160139871Y-83280714D01*
X160139871Y-83280714D02*
X160225585Y-83337857D01*
X160225585Y-83337857D02*
X160282728Y-83395000D01*
X160282728Y-83395000D02*
X160311300Y-83452143D01*
X160397014Y-82766428D02*
X160368442Y-82823571D01*
X160368442Y-82823571D02*
X160339871Y-82852142D01*
X160339871Y-82852142D02*
X160282728Y-82880714D01*
X160282728Y-82880714D02*
X160254157Y-82880714D01*
X160254157Y-82880714D02*
X160197014Y-82852142D01*
X160197014Y-82852142D02*
X160168442Y-82823571D01*
X160168442Y-82823571D02*
X160139871Y-82766428D01*
X160139871Y-82766428D02*
X160139871Y-82652142D01*
X160139871Y-82652142D02*
X160168442Y-82595000D01*
X160168442Y-82595000D02*
X160197014Y-82566428D01*
X160197014Y-82566428D02*
X160254157Y-82537857D01*
X160254157Y-82537857D02*
X160282728Y-82537857D01*
X160282728Y-82537857D02*
X160339871Y-82566428D01*
X160339871Y-82566428D02*
X160368442Y-82595000D01*
X160368442Y-82595000D02*
X160397014Y-82652142D01*
X160397014Y-82652142D02*
X160397014Y-82766428D01*
X160397014Y-82766428D02*
X160425585Y-82823571D01*
X160425585Y-82823571D02*
X160454157Y-82852142D01*
X160454157Y-82852142D02*
X160511300Y-82880714D01*
X160511300Y-82880714D02*
X160625585Y-82880714D01*
X160625585Y-82880714D02*
X160682728Y-82852142D01*
X160682728Y-82852142D02*
X160711300Y-82823571D01*
X160711300Y-82823571D02*
X160739871Y-82766428D01*
X160739871Y-82766428D02*
X160739871Y-82652142D01*
X160739871Y-82652142D02*
X160711300Y-82595000D01*
X160711300Y-82595000D02*
X160682728Y-82566428D01*
X160682728Y-82566428D02*
X160625585Y-82537857D01*
X160625585Y-82537857D02*
X160511300Y-82537857D01*
X160511300Y-82537857D02*
X160454157Y-82566428D01*
X160454157Y-82566428D02*
X160425585Y-82595000D01*
X160425585Y-82595000D02*
X160397014Y-82652142D01*
X160722371Y-85970714D02*
X160436657Y-86170714D01*
X160722371Y-86313571D02*
X160122371Y-86313571D01*
X160122371Y-86313571D02*
X160122371Y-86085000D01*
X160122371Y-86085000D02*
X160150942Y-86027857D01*
X160150942Y-86027857D02*
X160179514Y-85999286D01*
X160179514Y-85999286D02*
X160236657Y-85970714D01*
X160236657Y-85970714D02*
X160322371Y-85970714D01*
X160322371Y-85970714D02*
X160379514Y-85999286D01*
X160379514Y-85999286D02*
X160408085Y-86027857D01*
X160408085Y-86027857D02*
X160436657Y-86085000D01*
X160436657Y-86085000D02*
X160436657Y-86313571D01*
X160722371Y-85399286D02*
X160722371Y-85742143D01*
X160722371Y-85570714D02*
X160122371Y-85570714D01*
X160122371Y-85570714D02*
X160208085Y-85627857D01*
X160208085Y-85627857D02*
X160265228Y-85685000D01*
X160265228Y-85685000D02*
X160293800Y-85742143D01*
X160122371Y-85199285D02*
X160122371Y-84799285D01*
X160122371Y-84799285D02*
X160722371Y-85056428D01*
X174919999Y-60643800D02*
X175005714Y-60672371D01*
X175005714Y-60672371D02*
X175148571Y-60672371D01*
X175148571Y-60672371D02*
X175205714Y-60643800D01*
X175205714Y-60643800D02*
X175234285Y-60615228D01*
X175234285Y-60615228D02*
X175262856Y-60558085D01*
X175262856Y-60558085D02*
X175262856Y-60500942D01*
X175262856Y-60500942D02*
X175234285Y-60443800D01*
X175234285Y-60443800D02*
X175205714Y-60415228D01*
X175205714Y-60415228D02*
X175148571Y-60386657D01*
X175148571Y-60386657D02*
X175034285Y-60358085D01*
X175034285Y-60358085D02*
X174977142Y-60329514D01*
X174977142Y-60329514D02*
X174948571Y-60300942D01*
X174948571Y-60300942D02*
X174919999Y-60243800D01*
X174919999Y-60243800D02*
X174919999Y-60186657D01*
X174919999Y-60186657D02*
X174948571Y-60129514D01*
X174948571Y-60129514D02*
X174977142Y-60100942D01*
X174977142Y-60100942D02*
X175034285Y-60072371D01*
X175034285Y-60072371D02*
X175177142Y-60072371D01*
X175177142Y-60072371D02*
X175262856Y-60100942D01*
X175462857Y-60072371D02*
X175605714Y-60672371D01*
X175605714Y-60672371D02*
X175720000Y-60243800D01*
X175720000Y-60243800D02*
X175834285Y-60672371D01*
X175834285Y-60672371D02*
X175977143Y-60072371D01*
X176148571Y-60072371D02*
X176519999Y-60072371D01*
X176519999Y-60072371D02*
X176319999Y-60300942D01*
X176319999Y-60300942D02*
X176405714Y-60300942D01*
X176405714Y-60300942D02*
X176462857Y-60329514D01*
X176462857Y-60329514D02*
X176491428Y-60358085D01*
X176491428Y-60358085D02*
X176519999Y-60415228D01*
X176519999Y-60415228D02*
X176519999Y-60558085D01*
X176519999Y-60558085D02*
X176491428Y-60615228D01*
X176491428Y-60615228D02*
X176462857Y-60643800D01*
X176462857Y-60643800D02*
X176405714Y-60672371D01*
X176405714Y-60672371D02*
X176234285Y-60672371D01*
X176234285Y-60672371D02*
X176177142Y-60643800D01*
X176177142Y-60643800D02*
X176148571Y-60615228D01*
X124427143Y-82344871D02*
X124427143Y-81744871D01*
X124427143Y-81744871D02*
X124570000Y-81744871D01*
X124570000Y-81744871D02*
X124655714Y-81773442D01*
X124655714Y-81773442D02*
X124712857Y-81830585D01*
X124712857Y-81830585D02*
X124741428Y-81887728D01*
X124741428Y-81887728D02*
X124770000Y-82002014D01*
X124770000Y-82002014D02*
X124770000Y-82087728D01*
X124770000Y-82087728D02*
X124741428Y-82202014D01*
X124741428Y-82202014D02*
X124712857Y-82259157D01*
X124712857Y-82259157D02*
X124655714Y-82316300D01*
X124655714Y-82316300D02*
X124570000Y-82344871D01*
X124570000Y-82344871D02*
X124427143Y-82344871D01*
X125341428Y-82344871D02*
X124998571Y-82344871D01*
X125170000Y-82344871D02*
X125170000Y-81744871D01*
X125170000Y-81744871D02*
X125112857Y-81830585D01*
X125112857Y-81830585D02*
X125055714Y-81887728D01*
X125055714Y-81887728D02*
X124998571Y-81916300D01*
X116654285Y-70042728D02*
X116625713Y-70071300D01*
X116625713Y-70071300D02*
X116539999Y-70099871D01*
X116539999Y-70099871D02*
X116482856Y-70099871D01*
X116482856Y-70099871D02*
X116397142Y-70071300D01*
X116397142Y-70071300D02*
X116339999Y-70014157D01*
X116339999Y-70014157D02*
X116311428Y-69957014D01*
X116311428Y-69957014D02*
X116282856Y-69842728D01*
X116282856Y-69842728D02*
X116282856Y-69757014D01*
X116282856Y-69757014D02*
X116311428Y-69642728D01*
X116311428Y-69642728D02*
X116339999Y-69585585D01*
X116339999Y-69585585D02*
X116397142Y-69528442D01*
X116397142Y-69528442D02*
X116482856Y-69499871D01*
X116482856Y-69499871D02*
X116539999Y-69499871D01*
X116539999Y-69499871D02*
X116625713Y-69528442D01*
X116625713Y-69528442D02*
X116654285Y-69557014D01*
X117225713Y-70099871D02*
X116882856Y-70099871D01*
X117054285Y-70099871D02*
X117054285Y-69499871D01*
X117054285Y-69499871D02*
X116997142Y-69585585D01*
X116997142Y-69585585D02*
X116939999Y-69642728D01*
X116939999Y-69642728D02*
X116882856Y-69671300D01*
X117425714Y-69499871D02*
X117797142Y-69499871D01*
X117797142Y-69499871D02*
X117597142Y-69728442D01*
X117597142Y-69728442D02*
X117682857Y-69728442D01*
X117682857Y-69728442D02*
X117740000Y-69757014D01*
X117740000Y-69757014D02*
X117768571Y-69785585D01*
X117768571Y-69785585D02*
X117797142Y-69842728D01*
X117797142Y-69842728D02*
X117797142Y-69985585D01*
X117797142Y-69985585D02*
X117768571Y-70042728D01*
X117768571Y-70042728D02*
X117740000Y-70071300D01*
X117740000Y-70071300D02*
X117682857Y-70099871D01*
X117682857Y-70099871D02*
X117511428Y-70099871D01*
X117511428Y-70099871D02*
X117454285Y-70071300D01*
X117454285Y-70071300D02*
X117425714Y-70042728D01*
X178452371Y-114305714D02*
X178880942Y-114305714D01*
X178880942Y-114305714D02*
X178966657Y-114334285D01*
X178966657Y-114334285D02*
X179023800Y-114391428D01*
X179023800Y-114391428D02*
X179052371Y-114477142D01*
X179052371Y-114477142D02*
X179052371Y-114534285D01*
X179052371Y-113705714D02*
X179052371Y-114048571D01*
X179052371Y-113877142D02*
X178452371Y-113877142D01*
X178452371Y-113877142D02*
X178538085Y-113934285D01*
X178538085Y-113934285D02*
X178595228Y-113991428D01*
X178595228Y-113991428D02*
X178623800Y-114048571D01*
X178452371Y-113334285D02*
X178452371Y-113277142D01*
X178452371Y-113277142D02*
X178480942Y-113219999D01*
X178480942Y-113219999D02*
X178509514Y-113191428D01*
X178509514Y-113191428D02*
X178566657Y-113162856D01*
X178566657Y-113162856D02*
X178680942Y-113134285D01*
X178680942Y-113134285D02*
X178823800Y-113134285D01*
X178823800Y-113134285D02*
X178938085Y-113162856D01*
X178938085Y-113162856D02*
X178995228Y-113191428D01*
X178995228Y-113191428D02*
X179023800Y-113219999D01*
X179023800Y-113219999D02*
X179052371Y-113277142D01*
X179052371Y-113277142D02*
X179052371Y-113334285D01*
X179052371Y-113334285D02*
X179023800Y-113391428D01*
X179023800Y-113391428D02*
X178995228Y-113419999D01*
X178995228Y-113419999D02*
X178938085Y-113448570D01*
X178938085Y-113448570D02*
X178823800Y-113477142D01*
X178823800Y-113477142D02*
X178680942Y-113477142D01*
X178680942Y-113477142D02*
X178566657Y-113448570D01*
X178566657Y-113448570D02*
X178509514Y-113419999D01*
X178509514Y-113419999D02*
X178480942Y-113391428D01*
X178480942Y-113391428D02*
X178452371Y-113334285D01*
X148627728Y-107830714D02*
X148656300Y-107859286D01*
X148656300Y-107859286D02*
X148684871Y-107945000D01*
X148684871Y-107945000D02*
X148684871Y-108002143D01*
X148684871Y-108002143D02*
X148656300Y-108087857D01*
X148656300Y-108087857D02*
X148599157Y-108145000D01*
X148599157Y-108145000D02*
X148542014Y-108173571D01*
X148542014Y-108173571D02*
X148427728Y-108202143D01*
X148427728Y-108202143D02*
X148342014Y-108202143D01*
X148342014Y-108202143D02*
X148227728Y-108173571D01*
X148227728Y-108173571D02*
X148170585Y-108145000D01*
X148170585Y-108145000D02*
X148113442Y-108087857D01*
X148113442Y-108087857D02*
X148084871Y-108002143D01*
X148084871Y-108002143D02*
X148084871Y-107945000D01*
X148084871Y-107945000D02*
X148113442Y-107859286D01*
X148113442Y-107859286D02*
X148142014Y-107830714D01*
X148684871Y-107259286D02*
X148684871Y-107602143D01*
X148684871Y-107430714D02*
X148084871Y-107430714D01*
X148084871Y-107430714D02*
X148170585Y-107487857D01*
X148170585Y-107487857D02*
X148227728Y-107545000D01*
X148227728Y-107545000D02*
X148256300Y-107602143D01*
X148084871Y-106745000D02*
X148084871Y-106859285D01*
X148084871Y-106859285D02*
X148113442Y-106916428D01*
X148113442Y-106916428D02*
X148142014Y-106945000D01*
X148142014Y-106945000D02*
X148227728Y-107002142D01*
X148227728Y-107002142D02*
X148342014Y-107030714D01*
X148342014Y-107030714D02*
X148570585Y-107030714D01*
X148570585Y-107030714D02*
X148627728Y-107002142D01*
X148627728Y-107002142D02*
X148656300Y-106973571D01*
X148656300Y-106973571D02*
X148684871Y-106916428D01*
X148684871Y-106916428D02*
X148684871Y-106802142D01*
X148684871Y-106802142D02*
X148656300Y-106745000D01*
X148656300Y-106745000D02*
X148627728Y-106716428D01*
X148627728Y-106716428D02*
X148570585Y-106687857D01*
X148570585Y-106687857D02*
X148427728Y-106687857D01*
X148427728Y-106687857D02*
X148370585Y-106716428D01*
X148370585Y-106716428D02*
X148342014Y-106745000D01*
X148342014Y-106745000D02*
X148313442Y-106802142D01*
X148313442Y-106802142D02*
X148313442Y-106916428D01*
X148313442Y-106916428D02*
X148342014Y-106973571D01*
X148342014Y-106973571D02*
X148370585Y-107002142D01*
X148370585Y-107002142D02*
X148427728Y-107030714D01*
X124152371Y-86919999D02*
X123866657Y-87119999D01*
X124152371Y-87262856D02*
X123552371Y-87262856D01*
X123552371Y-87262856D02*
X123552371Y-87034285D01*
X123552371Y-87034285D02*
X123580942Y-86977142D01*
X123580942Y-86977142D02*
X123609514Y-86948571D01*
X123609514Y-86948571D02*
X123666657Y-86919999D01*
X123666657Y-86919999D02*
X123752371Y-86919999D01*
X123752371Y-86919999D02*
X123809514Y-86948571D01*
X123809514Y-86948571D02*
X123838085Y-86977142D01*
X123838085Y-86977142D02*
X123866657Y-87034285D01*
X123866657Y-87034285D02*
X123866657Y-87262856D01*
X123609514Y-86691428D02*
X123580942Y-86662856D01*
X123580942Y-86662856D02*
X123552371Y-86605714D01*
X123552371Y-86605714D02*
X123552371Y-86462856D01*
X123552371Y-86462856D02*
X123580942Y-86405714D01*
X123580942Y-86405714D02*
X123609514Y-86377142D01*
X123609514Y-86377142D02*
X123666657Y-86348571D01*
X123666657Y-86348571D02*
X123723800Y-86348571D01*
X123723800Y-86348571D02*
X123809514Y-86377142D01*
X123809514Y-86377142D02*
X124152371Y-86719999D01*
X124152371Y-86719999D02*
X124152371Y-86348571D01*
X126431785Y-109772371D02*
X126231785Y-109486657D01*
X126088928Y-109772371D02*
X126088928Y-109172371D01*
X126088928Y-109172371D02*
X126317499Y-109172371D01*
X126317499Y-109172371D02*
X126374642Y-109200942D01*
X126374642Y-109200942D02*
X126403213Y-109229514D01*
X126403213Y-109229514D02*
X126431785Y-109286657D01*
X126431785Y-109286657D02*
X126431785Y-109372371D01*
X126431785Y-109372371D02*
X126403213Y-109429514D01*
X126403213Y-109429514D02*
X126374642Y-109458085D01*
X126374642Y-109458085D02*
X126317499Y-109486657D01*
X126317499Y-109486657D02*
X126088928Y-109486657D01*
X126631785Y-109172371D02*
X127003213Y-109172371D01*
X127003213Y-109172371D02*
X126803213Y-109400942D01*
X126803213Y-109400942D02*
X126888928Y-109400942D01*
X126888928Y-109400942D02*
X126946071Y-109429514D01*
X126946071Y-109429514D02*
X126974642Y-109458085D01*
X126974642Y-109458085D02*
X127003213Y-109515228D01*
X127003213Y-109515228D02*
X127003213Y-109658085D01*
X127003213Y-109658085D02*
X126974642Y-109715228D01*
X126974642Y-109715228D02*
X126946071Y-109743800D01*
X126946071Y-109743800D02*
X126888928Y-109772371D01*
X126888928Y-109772371D02*
X126717499Y-109772371D01*
X126717499Y-109772371D02*
X126660356Y-109743800D01*
X126660356Y-109743800D02*
X126631785Y-109715228D01*
X127203214Y-109172371D02*
X127603214Y-109172371D01*
X127603214Y-109172371D02*
X127346071Y-109772371D01*
X122370000Y-80162371D02*
X122170000Y-79876657D01*
X122027143Y-80162371D02*
X122027143Y-79562371D01*
X122027143Y-79562371D02*
X122255714Y-79562371D01*
X122255714Y-79562371D02*
X122312857Y-79590942D01*
X122312857Y-79590942D02*
X122341428Y-79619514D01*
X122341428Y-79619514D02*
X122370000Y-79676657D01*
X122370000Y-79676657D02*
X122370000Y-79762371D01*
X122370000Y-79762371D02*
X122341428Y-79819514D01*
X122341428Y-79819514D02*
X122312857Y-79848085D01*
X122312857Y-79848085D02*
X122255714Y-79876657D01*
X122255714Y-79876657D02*
X122027143Y-79876657D01*
X122941428Y-80162371D02*
X122598571Y-80162371D01*
X122770000Y-80162371D02*
X122770000Y-79562371D01*
X122770000Y-79562371D02*
X122712857Y-79648085D01*
X122712857Y-79648085D02*
X122655714Y-79705228D01*
X122655714Y-79705228D02*
X122598571Y-79733800D01*
X125454285Y-75021621D02*
X125254285Y-74735907D01*
X125111428Y-75021621D02*
X125111428Y-74421621D01*
X125111428Y-74421621D02*
X125339999Y-74421621D01*
X125339999Y-74421621D02*
X125397142Y-74450192D01*
X125397142Y-74450192D02*
X125425713Y-74478764D01*
X125425713Y-74478764D02*
X125454285Y-74535907D01*
X125454285Y-74535907D02*
X125454285Y-74621621D01*
X125454285Y-74621621D02*
X125425713Y-74678764D01*
X125425713Y-74678764D02*
X125397142Y-74707335D01*
X125397142Y-74707335D02*
X125339999Y-74735907D01*
X125339999Y-74735907D02*
X125111428Y-74735907D01*
X126025713Y-75021621D02*
X125682856Y-75021621D01*
X125854285Y-75021621D02*
X125854285Y-74421621D01*
X125854285Y-74421621D02*
X125797142Y-74507335D01*
X125797142Y-74507335D02*
X125739999Y-74564478D01*
X125739999Y-74564478D02*
X125682856Y-74593050D01*
X126254285Y-74478764D02*
X126282857Y-74450192D01*
X126282857Y-74450192D02*
X126340000Y-74421621D01*
X126340000Y-74421621D02*
X126482857Y-74421621D01*
X126482857Y-74421621D02*
X126540000Y-74450192D01*
X126540000Y-74450192D02*
X126568571Y-74478764D01*
X126568571Y-74478764D02*
X126597142Y-74535907D01*
X126597142Y-74535907D02*
X126597142Y-74593050D01*
X126597142Y-74593050D02*
X126568571Y-74678764D01*
X126568571Y-74678764D02*
X126225714Y-75021621D01*
X126225714Y-75021621D02*
X126597142Y-75021621D01*
X169520000Y-60605228D02*
X169491428Y-60633800D01*
X169491428Y-60633800D02*
X169405714Y-60662371D01*
X169405714Y-60662371D02*
X169348571Y-60662371D01*
X169348571Y-60662371D02*
X169262857Y-60633800D01*
X169262857Y-60633800D02*
X169205714Y-60576657D01*
X169205714Y-60576657D02*
X169177143Y-60519514D01*
X169177143Y-60519514D02*
X169148571Y-60405228D01*
X169148571Y-60405228D02*
X169148571Y-60319514D01*
X169148571Y-60319514D02*
X169177143Y-60205228D01*
X169177143Y-60205228D02*
X169205714Y-60148085D01*
X169205714Y-60148085D02*
X169262857Y-60090942D01*
X169262857Y-60090942D02*
X169348571Y-60062371D01*
X169348571Y-60062371D02*
X169405714Y-60062371D01*
X169405714Y-60062371D02*
X169491428Y-60090942D01*
X169491428Y-60090942D02*
X169520000Y-60119514D01*
X170034286Y-60262371D02*
X170034286Y-60662371D01*
X169891428Y-60033800D02*
X169748571Y-60462371D01*
X169748571Y-60462371D02*
X170120000Y-60462371D01*
X122235228Y-107725714D02*
X122263800Y-107754286D01*
X122263800Y-107754286D02*
X122292371Y-107840000D01*
X122292371Y-107840000D02*
X122292371Y-107897143D01*
X122292371Y-107897143D02*
X122263800Y-107982857D01*
X122263800Y-107982857D02*
X122206657Y-108040000D01*
X122206657Y-108040000D02*
X122149514Y-108068571D01*
X122149514Y-108068571D02*
X122035228Y-108097143D01*
X122035228Y-108097143D02*
X121949514Y-108097143D01*
X121949514Y-108097143D02*
X121835228Y-108068571D01*
X121835228Y-108068571D02*
X121778085Y-108040000D01*
X121778085Y-108040000D02*
X121720942Y-107982857D01*
X121720942Y-107982857D02*
X121692371Y-107897143D01*
X121692371Y-107897143D02*
X121692371Y-107840000D01*
X121692371Y-107840000D02*
X121720942Y-107754286D01*
X121720942Y-107754286D02*
X121749514Y-107725714D01*
X122292371Y-107154286D02*
X122292371Y-107497143D01*
X122292371Y-107325714D02*
X121692371Y-107325714D01*
X121692371Y-107325714D02*
X121778085Y-107382857D01*
X121778085Y-107382857D02*
X121835228Y-107440000D01*
X121835228Y-107440000D02*
X121863800Y-107497143D01*
X121892371Y-106640000D02*
X122292371Y-106640000D01*
X121663800Y-106782857D02*
X122092371Y-106925714D01*
X122092371Y-106925714D02*
X122092371Y-106554285D01*
X130519285Y-94162371D02*
X130319285Y-93876657D01*
X130176428Y-94162371D02*
X130176428Y-93562371D01*
X130176428Y-93562371D02*
X130404999Y-93562371D01*
X130404999Y-93562371D02*
X130462142Y-93590942D01*
X130462142Y-93590942D02*
X130490713Y-93619514D01*
X130490713Y-93619514D02*
X130519285Y-93676657D01*
X130519285Y-93676657D02*
X130519285Y-93762371D01*
X130519285Y-93762371D02*
X130490713Y-93819514D01*
X130490713Y-93819514D02*
X130462142Y-93848085D01*
X130462142Y-93848085D02*
X130404999Y-93876657D01*
X130404999Y-93876657D02*
X130176428Y-93876657D01*
X131090713Y-94162371D02*
X130747856Y-94162371D01*
X130919285Y-94162371D02*
X130919285Y-93562371D01*
X130919285Y-93562371D02*
X130862142Y-93648085D01*
X130862142Y-93648085D02*
X130804999Y-93705228D01*
X130804999Y-93705228D02*
X130747856Y-93733800D01*
X131605000Y-93762371D02*
X131605000Y-94162371D01*
X131462142Y-93533800D02*
X131319285Y-93962371D01*
X131319285Y-93962371D02*
X131690714Y-93962371D01*
X165791785Y-55164871D02*
X165591785Y-54879157D01*
X165448928Y-55164871D02*
X165448928Y-54564871D01*
X165448928Y-54564871D02*
X165677499Y-54564871D01*
X165677499Y-54564871D02*
X165734642Y-54593442D01*
X165734642Y-54593442D02*
X165763213Y-54622014D01*
X165763213Y-54622014D02*
X165791785Y-54679157D01*
X165791785Y-54679157D02*
X165791785Y-54764871D01*
X165791785Y-54764871D02*
X165763213Y-54822014D01*
X165763213Y-54822014D02*
X165734642Y-54850585D01*
X165734642Y-54850585D02*
X165677499Y-54879157D01*
X165677499Y-54879157D02*
X165448928Y-54879157D01*
X166020356Y-54622014D02*
X166048928Y-54593442D01*
X166048928Y-54593442D02*
X166106071Y-54564871D01*
X166106071Y-54564871D02*
X166248928Y-54564871D01*
X166248928Y-54564871D02*
X166306071Y-54593442D01*
X166306071Y-54593442D02*
X166334642Y-54622014D01*
X166334642Y-54622014D02*
X166363213Y-54679157D01*
X166363213Y-54679157D02*
X166363213Y-54736300D01*
X166363213Y-54736300D02*
X166334642Y-54822014D01*
X166334642Y-54822014D02*
X165991785Y-55164871D01*
X165991785Y-55164871D02*
X166363213Y-55164871D01*
X166706071Y-54822014D02*
X166648928Y-54793442D01*
X166648928Y-54793442D02*
X166620357Y-54764871D01*
X166620357Y-54764871D02*
X166591785Y-54707728D01*
X166591785Y-54707728D02*
X166591785Y-54679157D01*
X166591785Y-54679157D02*
X166620357Y-54622014D01*
X166620357Y-54622014D02*
X166648928Y-54593442D01*
X166648928Y-54593442D02*
X166706071Y-54564871D01*
X166706071Y-54564871D02*
X166820357Y-54564871D01*
X166820357Y-54564871D02*
X166877500Y-54593442D01*
X166877500Y-54593442D02*
X166906071Y-54622014D01*
X166906071Y-54622014D02*
X166934642Y-54679157D01*
X166934642Y-54679157D02*
X166934642Y-54707728D01*
X166934642Y-54707728D02*
X166906071Y-54764871D01*
X166906071Y-54764871D02*
X166877500Y-54793442D01*
X166877500Y-54793442D02*
X166820357Y-54822014D01*
X166820357Y-54822014D02*
X166706071Y-54822014D01*
X166706071Y-54822014D02*
X166648928Y-54850585D01*
X166648928Y-54850585D02*
X166620357Y-54879157D01*
X166620357Y-54879157D02*
X166591785Y-54936300D01*
X166591785Y-54936300D02*
X166591785Y-55050585D01*
X166591785Y-55050585D02*
X166620357Y-55107728D01*
X166620357Y-55107728D02*
X166648928Y-55136300D01*
X166648928Y-55136300D02*
X166706071Y-55164871D01*
X166706071Y-55164871D02*
X166820357Y-55164871D01*
X166820357Y-55164871D02*
X166877500Y-55136300D01*
X166877500Y-55136300D02*
X166906071Y-55107728D01*
X166906071Y-55107728D02*
X166934642Y-55050585D01*
X166934642Y-55050585D02*
X166934642Y-54936300D01*
X166934642Y-54936300D02*
X166906071Y-54879157D01*
X166906071Y-54879157D02*
X166877500Y-54850585D01*
X166877500Y-54850585D02*
X166820357Y-54822014D01*
X119524285Y-70109871D02*
X119324285Y-69824157D01*
X119181428Y-70109871D02*
X119181428Y-69509871D01*
X119181428Y-69509871D02*
X119409999Y-69509871D01*
X119409999Y-69509871D02*
X119467142Y-69538442D01*
X119467142Y-69538442D02*
X119495713Y-69567014D01*
X119495713Y-69567014D02*
X119524285Y-69624157D01*
X119524285Y-69624157D02*
X119524285Y-69709871D01*
X119524285Y-69709871D02*
X119495713Y-69767014D01*
X119495713Y-69767014D02*
X119467142Y-69795585D01*
X119467142Y-69795585D02*
X119409999Y-69824157D01*
X119409999Y-69824157D02*
X119181428Y-69824157D01*
X119724285Y-69509871D02*
X120095713Y-69509871D01*
X120095713Y-69509871D02*
X119895713Y-69738442D01*
X119895713Y-69738442D02*
X119981428Y-69738442D01*
X119981428Y-69738442D02*
X120038571Y-69767014D01*
X120038571Y-69767014D02*
X120067142Y-69795585D01*
X120067142Y-69795585D02*
X120095713Y-69852728D01*
X120095713Y-69852728D02*
X120095713Y-69995585D01*
X120095713Y-69995585D02*
X120067142Y-70052728D01*
X120067142Y-70052728D02*
X120038571Y-70081300D01*
X120038571Y-70081300D02*
X119981428Y-70109871D01*
X119981428Y-70109871D02*
X119809999Y-70109871D01*
X119809999Y-70109871D02*
X119752856Y-70081300D01*
X119752856Y-70081300D02*
X119724285Y-70052728D01*
X120667142Y-70109871D02*
X120324285Y-70109871D01*
X120495714Y-70109871D02*
X120495714Y-69509871D01*
X120495714Y-69509871D02*
X120438571Y-69595585D01*
X120438571Y-69595585D02*
X120381428Y-69652728D01*
X120381428Y-69652728D02*
X120324285Y-69681300D01*
X126220000Y-68362371D02*
X126020000Y-68076657D01*
X125877143Y-68362371D02*
X125877143Y-67762371D01*
X125877143Y-67762371D02*
X126105714Y-67762371D01*
X126105714Y-67762371D02*
X126162857Y-67790942D01*
X126162857Y-67790942D02*
X126191428Y-67819514D01*
X126191428Y-67819514D02*
X126220000Y-67876657D01*
X126220000Y-67876657D02*
X126220000Y-67962371D01*
X126220000Y-67962371D02*
X126191428Y-68019514D01*
X126191428Y-68019514D02*
X126162857Y-68048085D01*
X126162857Y-68048085D02*
X126105714Y-68076657D01*
X126105714Y-68076657D02*
X125877143Y-68076657D01*
X126420000Y-67762371D02*
X126791428Y-67762371D01*
X126791428Y-67762371D02*
X126591428Y-67990942D01*
X126591428Y-67990942D02*
X126677143Y-67990942D01*
X126677143Y-67990942D02*
X126734286Y-68019514D01*
X126734286Y-68019514D02*
X126762857Y-68048085D01*
X126762857Y-68048085D02*
X126791428Y-68105228D01*
X126791428Y-68105228D02*
X126791428Y-68248085D01*
X126791428Y-68248085D02*
X126762857Y-68305228D01*
X126762857Y-68305228D02*
X126734286Y-68333800D01*
X126734286Y-68333800D02*
X126677143Y-68362371D01*
X126677143Y-68362371D02*
X126505714Y-68362371D01*
X126505714Y-68362371D02*
X126448571Y-68333800D01*
X126448571Y-68333800D02*
X126420000Y-68305228D01*
X111773571Y-118158085D02*
X111859285Y-118186657D01*
X111859285Y-118186657D02*
X111887856Y-118215228D01*
X111887856Y-118215228D02*
X111916428Y-118272371D01*
X111916428Y-118272371D02*
X111916428Y-118358085D01*
X111916428Y-118358085D02*
X111887856Y-118415228D01*
X111887856Y-118415228D02*
X111859285Y-118443800D01*
X111859285Y-118443800D02*
X111802142Y-118472371D01*
X111802142Y-118472371D02*
X111573571Y-118472371D01*
X111573571Y-118472371D02*
X111573571Y-117872371D01*
X111573571Y-117872371D02*
X111773571Y-117872371D01*
X111773571Y-117872371D02*
X111830714Y-117900942D01*
X111830714Y-117900942D02*
X111859285Y-117929514D01*
X111859285Y-117929514D02*
X111887856Y-117986657D01*
X111887856Y-117986657D02*
X111887856Y-118043800D01*
X111887856Y-118043800D02*
X111859285Y-118100942D01*
X111859285Y-118100942D02*
X111830714Y-118129514D01*
X111830714Y-118129514D02*
X111773571Y-118158085D01*
X111773571Y-118158085D02*
X111573571Y-118158085D01*
X112087856Y-117872371D02*
X112430714Y-117872371D01*
X112259285Y-118472371D02*
X112259285Y-117872371D01*
X112944999Y-118472371D02*
X112602142Y-118472371D01*
X112773571Y-118472371D02*
X112773571Y-117872371D01*
X112773571Y-117872371D02*
X112716428Y-117958085D01*
X112716428Y-117958085D02*
X112659285Y-118015228D01*
X112659285Y-118015228D02*
X112602142Y-118043800D01*
X143912857Y-79302371D02*
X143912857Y-79788085D01*
X143912857Y-79788085D02*
X143941428Y-79845228D01*
X143941428Y-79845228D02*
X143970000Y-79873800D01*
X143970000Y-79873800D02*
X144027142Y-79902371D01*
X144027142Y-79902371D02*
X144141428Y-79902371D01*
X144141428Y-79902371D02*
X144198571Y-79873800D01*
X144198571Y-79873800D02*
X144227142Y-79845228D01*
X144227142Y-79845228D02*
X144255714Y-79788085D01*
X144255714Y-79788085D02*
X144255714Y-79302371D01*
X144512856Y-79359514D02*
X144541428Y-79330942D01*
X144541428Y-79330942D02*
X144598571Y-79302371D01*
X144598571Y-79302371D02*
X144741428Y-79302371D01*
X144741428Y-79302371D02*
X144798571Y-79330942D01*
X144798571Y-79330942D02*
X144827142Y-79359514D01*
X144827142Y-79359514D02*
X144855713Y-79416657D01*
X144855713Y-79416657D02*
X144855713Y-79473800D01*
X144855713Y-79473800D02*
X144827142Y-79559514D01*
X144827142Y-79559514D02*
X144484285Y-79902371D01*
X144484285Y-79902371D02*
X144855713Y-79902371D01*
X135132857Y-81542371D02*
X135132857Y-82028085D01*
X135132857Y-82028085D02*
X135161428Y-82085228D01*
X135161428Y-82085228D02*
X135190000Y-82113800D01*
X135190000Y-82113800D02*
X135247142Y-82142371D01*
X135247142Y-82142371D02*
X135361428Y-82142371D01*
X135361428Y-82142371D02*
X135418571Y-82113800D01*
X135418571Y-82113800D02*
X135447142Y-82085228D01*
X135447142Y-82085228D02*
X135475714Y-82028085D01*
X135475714Y-82028085D02*
X135475714Y-81542371D01*
X136075713Y-82142371D02*
X135732856Y-82142371D01*
X135904285Y-82142371D02*
X135904285Y-81542371D01*
X135904285Y-81542371D02*
X135847142Y-81628085D01*
X135847142Y-81628085D02*
X135789999Y-81685228D01*
X135789999Y-81685228D02*
X135732856Y-81713800D01*
X160757371Y-79360714D02*
X160471657Y-79560714D01*
X160757371Y-79703571D02*
X160157371Y-79703571D01*
X160157371Y-79703571D02*
X160157371Y-79475000D01*
X160157371Y-79475000D02*
X160185942Y-79417857D01*
X160185942Y-79417857D02*
X160214514Y-79389286D01*
X160214514Y-79389286D02*
X160271657Y-79360714D01*
X160271657Y-79360714D02*
X160357371Y-79360714D01*
X160357371Y-79360714D02*
X160414514Y-79389286D01*
X160414514Y-79389286D02*
X160443085Y-79417857D01*
X160443085Y-79417857D02*
X160471657Y-79475000D01*
X160471657Y-79475000D02*
X160471657Y-79703571D01*
X160214514Y-79132143D02*
X160185942Y-79103571D01*
X160185942Y-79103571D02*
X160157371Y-79046429D01*
X160157371Y-79046429D02*
X160157371Y-78903571D01*
X160157371Y-78903571D02*
X160185942Y-78846429D01*
X160185942Y-78846429D02*
X160214514Y-78817857D01*
X160214514Y-78817857D02*
X160271657Y-78789286D01*
X160271657Y-78789286D02*
X160328800Y-78789286D01*
X160328800Y-78789286D02*
X160414514Y-78817857D01*
X160414514Y-78817857D02*
X160757371Y-79160714D01*
X160757371Y-79160714D02*
X160757371Y-78789286D01*
X160157371Y-78417857D02*
X160157371Y-78360714D01*
X160157371Y-78360714D02*
X160185942Y-78303571D01*
X160185942Y-78303571D02*
X160214514Y-78275000D01*
X160214514Y-78275000D02*
X160271657Y-78246428D01*
X160271657Y-78246428D02*
X160385942Y-78217857D01*
X160385942Y-78217857D02*
X160528800Y-78217857D01*
X160528800Y-78217857D02*
X160643085Y-78246428D01*
X160643085Y-78246428D02*
X160700228Y-78275000D01*
X160700228Y-78275000D02*
X160728800Y-78303571D01*
X160728800Y-78303571D02*
X160757371Y-78360714D01*
X160757371Y-78360714D02*
X160757371Y-78417857D01*
X160757371Y-78417857D02*
X160728800Y-78475000D01*
X160728800Y-78475000D02*
X160700228Y-78503571D01*
X160700228Y-78503571D02*
X160643085Y-78532142D01*
X160643085Y-78532142D02*
X160528800Y-78560714D01*
X160528800Y-78560714D02*
X160385942Y-78560714D01*
X160385942Y-78560714D02*
X160271657Y-78532142D01*
X160271657Y-78532142D02*
X160214514Y-78503571D01*
X160214514Y-78503571D02*
X160185942Y-78475000D01*
X160185942Y-78475000D02*
X160157371Y-78417857D01*
X130712143Y-71039871D02*
X130712143Y-70439871D01*
X130712143Y-70439871D02*
X130855000Y-70439871D01*
X130855000Y-70439871D02*
X130940714Y-70468442D01*
X130940714Y-70468442D02*
X130997857Y-70525585D01*
X130997857Y-70525585D02*
X131026428Y-70582728D01*
X131026428Y-70582728D02*
X131055000Y-70697014D01*
X131055000Y-70697014D02*
X131055000Y-70782728D01*
X131055000Y-70782728D02*
X131026428Y-70897014D01*
X131026428Y-70897014D02*
X130997857Y-70954157D01*
X130997857Y-70954157D02*
X130940714Y-71011300D01*
X130940714Y-71011300D02*
X130855000Y-71039871D01*
X130855000Y-71039871D02*
X130712143Y-71039871D01*
X131597857Y-70439871D02*
X131312143Y-70439871D01*
X131312143Y-70439871D02*
X131283571Y-70725585D01*
X131283571Y-70725585D02*
X131312143Y-70697014D01*
X131312143Y-70697014D02*
X131369286Y-70668442D01*
X131369286Y-70668442D02*
X131512143Y-70668442D01*
X131512143Y-70668442D02*
X131569286Y-70697014D01*
X131569286Y-70697014D02*
X131597857Y-70725585D01*
X131597857Y-70725585D02*
X131626428Y-70782728D01*
X131626428Y-70782728D02*
X131626428Y-70925585D01*
X131626428Y-70925585D02*
X131597857Y-70982728D01*
X131597857Y-70982728D02*
X131569286Y-71011300D01*
X131569286Y-71011300D02*
X131512143Y-71039871D01*
X131512143Y-71039871D02*
X131369286Y-71039871D01*
X131369286Y-71039871D02*
X131312143Y-71011300D01*
X131312143Y-71011300D02*
X131283571Y-70982728D01*
X169550000Y-71175228D02*
X169521428Y-71203800D01*
X169521428Y-71203800D02*
X169435714Y-71232371D01*
X169435714Y-71232371D02*
X169378571Y-71232371D01*
X169378571Y-71232371D02*
X169292857Y-71203800D01*
X169292857Y-71203800D02*
X169235714Y-71146657D01*
X169235714Y-71146657D02*
X169207143Y-71089514D01*
X169207143Y-71089514D02*
X169178571Y-70975228D01*
X169178571Y-70975228D02*
X169178571Y-70889514D01*
X169178571Y-70889514D02*
X169207143Y-70775228D01*
X169207143Y-70775228D02*
X169235714Y-70718085D01*
X169235714Y-70718085D02*
X169292857Y-70660942D01*
X169292857Y-70660942D02*
X169378571Y-70632371D01*
X169378571Y-70632371D02*
X169435714Y-70632371D01*
X169435714Y-70632371D02*
X169521428Y-70660942D01*
X169521428Y-70660942D02*
X169550000Y-70689514D01*
X169778571Y-70689514D02*
X169807143Y-70660942D01*
X169807143Y-70660942D02*
X169864286Y-70632371D01*
X169864286Y-70632371D02*
X170007143Y-70632371D01*
X170007143Y-70632371D02*
X170064286Y-70660942D01*
X170064286Y-70660942D02*
X170092857Y-70689514D01*
X170092857Y-70689514D02*
X170121428Y-70746657D01*
X170121428Y-70746657D02*
X170121428Y-70803800D01*
X170121428Y-70803800D02*
X170092857Y-70889514D01*
X170092857Y-70889514D02*
X169750000Y-71232371D01*
X169750000Y-71232371D02*
X170121428Y-71232371D01*
X126240000Y-62622371D02*
X126040000Y-62336657D01*
X125897143Y-62622371D02*
X125897143Y-62022371D01*
X125897143Y-62022371D02*
X126125714Y-62022371D01*
X126125714Y-62022371D02*
X126182857Y-62050942D01*
X126182857Y-62050942D02*
X126211428Y-62079514D01*
X126211428Y-62079514D02*
X126240000Y-62136657D01*
X126240000Y-62136657D02*
X126240000Y-62222371D01*
X126240000Y-62222371D02*
X126211428Y-62279514D01*
X126211428Y-62279514D02*
X126182857Y-62308085D01*
X126182857Y-62308085D02*
X126125714Y-62336657D01*
X126125714Y-62336657D02*
X125897143Y-62336657D01*
X126754286Y-62022371D02*
X126640000Y-62022371D01*
X126640000Y-62022371D02*
X126582857Y-62050942D01*
X126582857Y-62050942D02*
X126554286Y-62079514D01*
X126554286Y-62079514D02*
X126497143Y-62165228D01*
X126497143Y-62165228D02*
X126468571Y-62279514D01*
X126468571Y-62279514D02*
X126468571Y-62508085D01*
X126468571Y-62508085D02*
X126497143Y-62565228D01*
X126497143Y-62565228D02*
X126525714Y-62593800D01*
X126525714Y-62593800D02*
X126582857Y-62622371D01*
X126582857Y-62622371D02*
X126697143Y-62622371D01*
X126697143Y-62622371D02*
X126754286Y-62593800D01*
X126754286Y-62593800D02*
X126782857Y-62565228D01*
X126782857Y-62565228D02*
X126811428Y-62508085D01*
X126811428Y-62508085D02*
X126811428Y-62365228D01*
X126811428Y-62365228D02*
X126782857Y-62308085D01*
X126782857Y-62308085D02*
X126754286Y-62279514D01*
X126754286Y-62279514D02*
X126697143Y-62250942D01*
X126697143Y-62250942D02*
X126582857Y-62250942D01*
X126582857Y-62250942D02*
X126525714Y-62279514D01*
X126525714Y-62279514D02*
X126497143Y-62308085D01*
X126497143Y-62308085D02*
X126468571Y-62365228D01*
X169530000Y-49902728D02*
X169501428Y-49931300D01*
X169501428Y-49931300D02*
X169415714Y-49959871D01*
X169415714Y-49959871D02*
X169358571Y-49959871D01*
X169358571Y-49959871D02*
X169272857Y-49931300D01*
X169272857Y-49931300D02*
X169215714Y-49874157D01*
X169215714Y-49874157D02*
X169187143Y-49817014D01*
X169187143Y-49817014D02*
X169158571Y-49702728D01*
X169158571Y-49702728D02*
X169158571Y-49617014D01*
X169158571Y-49617014D02*
X169187143Y-49502728D01*
X169187143Y-49502728D02*
X169215714Y-49445585D01*
X169215714Y-49445585D02*
X169272857Y-49388442D01*
X169272857Y-49388442D02*
X169358571Y-49359871D01*
X169358571Y-49359871D02*
X169415714Y-49359871D01*
X169415714Y-49359871D02*
X169501428Y-49388442D01*
X169501428Y-49388442D02*
X169530000Y-49417014D01*
X170044286Y-49359871D02*
X169930000Y-49359871D01*
X169930000Y-49359871D02*
X169872857Y-49388442D01*
X169872857Y-49388442D02*
X169844286Y-49417014D01*
X169844286Y-49417014D02*
X169787143Y-49502728D01*
X169787143Y-49502728D02*
X169758571Y-49617014D01*
X169758571Y-49617014D02*
X169758571Y-49845585D01*
X169758571Y-49845585D02*
X169787143Y-49902728D01*
X169787143Y-49902728D02*
X169815714Y-49931300D01*
X169815714Y-49931300D02*
X169872857Y-49959871D01*
X169872857Y-49959871D02*
X169987143Y-49959871D01*
X169987143Y-49959871D02*
X170044286Y-49931300D01*
X170044286Y-49931300D02*
X170072857Y-49902728D01*
X170072857Y-49902728D02*
X170101428Y-49845585D01*
X170101428Y-49845585D02*
X170101428Y-49702728D01*
X170101428Y-49702728D02*
X170072857Y-49645585D01*
X170072857Y-49645585D02*
X170044286Y-49617014D01*
X170044286Y-49617014D02*
X169987143Y-49588442D01*
X169987143Y-49588442D02*
X169872857Y-49588442D01*
X169872857Y-49588442D02*
X169815714Y-49617014D01*
X169815714Y-49617014D02*
X169787143Y-49645585D01*
X169787143Y-49645585D02*
X169758571Y-49702728D01*
X126270000Y-71132371D02*
X126070000Y-70846657D01*
X125927143Y-71132371D02*
X125927143Y-70532371D01*
X125927143Y-70532371D02*
X126155714Y-70532371D01*
X126155714Y-70532371D02*
X126212857Y-70560942D01*
X126212857Y-70560942D02*
X126241428Y-70589514D01*
X126241428Y-70589514D02*
X126270000Y-70646657D01*
X126270000Y-70646657D02*
X126270000Y-70732371D01*
X126270000Y-70732371D02*
X126241428Y-70789514D01*
X126241428Y-70789514D02*
X126212857Y-70818085D01*
X126212857Y-70818085D02*
X126155714Y-70846657D01*
X126155714Y-70846657D02*
X125927143Y-70846657D01*
X126784286Y-70732371D02*
X126784286Y-71132371D01*
X126641428Y-70503800D02*
X126498571Y-70932371D01*
X126498571Y-70932371D02*
X126870000Y-70932371D01*
X164811785Y-97830228D02*
X164783213Y-97858800D01*
X164783213Y-97858800D02*
X164697499Y-97887371D01*
X164697499Y-97887371D02*
X164640356Y-97887371D01*
X164640356Y-97887371D02*
X164554642Y-97858800D01*
X164554642Y-97858800D02*
X164497499Y-97801657D01*
X164497499Y-97801657D02*
X164468928Y-97744514D01*
X164468928Y-97744514D02*
X164440356Y-97630228D01*
X164440356Y-97630228D02*
X164440356Y-97544514D01*
X164440356Y-97544514D02*
X164468928Y-97430228D01*
X164468928Y-97430228D02*
X164497499Y-97373085D01*
X164497499Y-97373085D02*
X164554642Y-97315942D01*
X164554642Y-97315942D02*
X164640356Y-97287371D01*
X164640356Y-97287371D02*
X164697499Y-97287371D01*
X164697499Y-97287371D02*
X164783213Y-97315942D01*
X164783213Y-97315942D02*
X164811785Y-97344514D01*
X165383213Y-97887371D02*
X165040356Y-97887371D01*
X165211785Y-97887371D02*
X165211785Y-97287371D01*
X165211785Y-97287371D02*
X165154642Y-97373085D01*
X165154642Y-97373085D02*
X165097499Y-97430228D01*
X165097499Y-97430228D02*
X165040356Y-97458800D01*
X165668928Y-97887371D02*
X165783214Y-97887371D01*
X165783214Y-97887371D02*
X165840357Y-97858800D01*
X165840357Y-97858800D02*
X165868928Y-97830228D01*
X165868928Y-97830228D02*
X165926071Y-97744514D01*
X165926071Y-97744514D02*
X165954642Y-97630228D01*
X165954642Y-97630228D02*
X165954642Y-97401657D01*
X165954642Y-97401657D02*
X165926071Y-97344514D01*
X165926071Y-97344514D02*
X165897500Y-97315942D01*
X165897500Y-97315942D02*
X165840357Y-97287371D01*
X165840357Y-97287371D02*
X165726071Y-97287371D01*
X165726071Y-97287371D02*
X165668928Y-97315942D01*
X165668928Y-97315942D02*
X165640357Y-97344514D01*
X165640357Y-97344514D02*
X165611785Y-97401657D01*
X165611785Y-97401657D02*
X165611785Y-97544514D01*
X165611785Y-97544514D02*
X165640357Y-97601657D01*
X165640357Y-97601657D02*
X165668928Y-97630228D01*
X165668928Y-97630228D02*
X165726071Y-97658800D01*
X165726071Y-97658800D02*
X165840357Y-97658800D01*
X165840357Y-97658800D02*
X165897500Y-97630228D01*
X165897500Y-97630228D02*
X165926071Y-97601657D01*
X165926071Y-97601657D02*
X165954642Y-97544514D01*
X123640000Y-55447628D02*
X123640000Y-55019057D01*
X123640000Y-55019057D02*
X123668571Y-54933342D01*
X123668571Y-54933342D02*
X123725714Y-54876200D01*
X123725714Y-54876200D02*
X123811428Y-54847628D01*
X123811428Y-54847628D02*
X123868571Y-54847628D01*
X123325714Y-54847628D02*
X123211428Y-54847628D01*
X123211428Y-54847628D02*
X123154285Y-54876200D01*
X123154285Y-54876200D02*
X123125714Y-54904771D01*
X123125714Y-54904771D02*
X123068571Y-54990485D01*
X123068571Y-54990485D02*
X123040000Y-55104771D01*
X123040000Y-55104771D02*
X123040000Y-55333342D01*
X123040000Y-55333342D02*
X123068571Y-55390485D01*
X123068571Y-55390485D02*
X123097143Y-55419057D01*
X123097143Y-55419057D02*
X123154285Y-55447628D01*
X123154285Y-55447628D02*
X123268571Y-55447628D01*
X123268571Y-55447628D02*
X123325714Y-55419057D01*
X123325714Y-55419057D02*
X123354285Y-55390485D01*
X123354285Y-55390485D02*
X123382857Y-55333342D01*
X123382857Y-55333342D02*
X123382857Y-55190485D01*
X123382857Y-55190485D02*
X123354285Y-55133342D01*
X123354285Y-55133342D02*
X123325714Y-55104771D01*
X123325714Y-55104771D02*
X123268571Y-55076200D01*
X123268571Y-55076200D02*
X123154285Y-55076200D01*
X123154285Y-55076200D02*
X123097143Y-55104771D01*
X123097143Y-55104771D02*
X123068571Y-55133342D01*
X123068571Y-55133342D02*
X123040000Y-55190485D01*
X173739977Y-103675714D02*
X173768549Y-103704286D01*
X173768549Y-103704286D02*
X173797120Y-103790000D01*
X173797120Y-103790000D02*
X173797120Y-103847143D01*
X173797120Y-103847143D02*
X173768549Y-103932857D01*
X173768549Y-103932857D02*
X173711406Y-103990000D01*
X173711406Y-103990000D02*
X173654263Y-104018571D01*
X173654263Y-104018571D02*
X173539977Y-104047143D01*
X173539977Y-104047143D02*
X173454263Y-104047143D01*
X173454263Y-104047143D02*
X173339977Y-104018571D01*
X173339977Y-104018571D02*
X173282834Y-103990000D01*
X173282834Y-103990000D02*
X173225691Y-103932857D01*
X173225691Y-103932857D02*
X173197120Y-103847143D01*
X173197120Y-103847143D02*
X173197120Y-103790000D01*
X173197120Y-103790000D02*
X173225691Y-103704286D01*
X173225691Y-103704286D02*
X173254263Y-103675714D01*
X173254263Y-103447143D02*
X173225691Y-103418571D01*
X173225691Y-103418571D02*
X173197120Y-103361429D01*
X173197120Y-103361429D02*
X173197120Y-103218571D01*
X173197120Y-103218571D02*
X173225691Y-103161429D01*
X173225691Y-103161429D02*
X173254263Y-103132857D01*
X173254263Y-103132857D02*
X173311406Y-103104286D01*
X173311406Y-103104286D02*
X173368549Y-103104286D01*
X173368549Y-103104286D02*
X173454263Y-103132857D01*
X173454263Y-103132857D02*
X173797120Y-103475714D01*
X173797120Y-103475714D02*
X173797120Y-103104286D01*
X173397120Y-102590000D02*
X173797120Y-102590000D01*
X173168549Y-102732857D02*
X173597120Y-102875714D01*
X173597120Y-102875714D02*
X173597120Y-102504285D01*
X183899999Y-73724871D02*
X183899999Y-74153442D01*
X183899999Y-74153442D02*
X183871428Y-74239157D01*
X183871428Y-74239157D02*
X183814285Y-74296300D01*
X183814285Y-74296300D02*
X183728571Y-74324871D01*
X183728571Y-74324871D02*
X183671428Y-74324871D01*
X184442857Y-73924871D02*
X184442857Y-74324871D01*
X184299999Y-73696300D02*
X184157142Y-74124871D01*
X184157142Y-74124871D02*
X184528571Y-74124871D01*
X145203571Y-113947628D02*
X145203571Y-114547628D01*
X145203571Y-114547628D02*
X145060714Y-114547628D01*
X145060714Y-114547628D02*
X144975000Y-114519057D01*
X144975000Y-114519057D02*
X144917857Y-114461914D01*
X144917857Y-114461914D02*
X144889286Y-114404771D01*
X144889286Y-114404771D02*
X144860714Y-114290485D01*
X144860714Y-114290485D02*
X144860714Y-114204771D01*
X144860714Y-114204771D02*
X144889286Y-114090485D01*
X144889286Y-114090485D02*
X144917857Y-114033342D01*
X144917857Y-114033342D02*
X144975000Y-113976200D01*
X144975000Y-113976200D02*
X145060714Y-113947628D01*
X145060714Y-113947628D02*
X145203571Y-113947628D01*
X144289286Y-113947628D02*
X144632143Y-113947628D01*
X144460714Y-113947628D02*
X144460714Y-114547628D01*
X144460714Y-114547628D02*
X144517857Y-114461914D01*
X144517857Y-114461914D02*
X144575000Y-114404771D01*
X144575000Y-114404771D02*
X144632143Y-114376200D01*
X143717857Y-113947628D02*
X144060714Y-113947628D01*
X143889285Y-113947628D02*
X143889285Y-114547628D01*
X143889285Y-114547628D02*
X143946428Y-114461914D01*
X143946428Y-114461914D02*
X144003571Y-114404771D01*
X144003571Y-114404771D02*
X144060714Y-114376200D01*
X126220000Y-65572371D02*
X126020000Y-65286657D01*
X125877143Y-65572371D02*
X125877143Y-64972371D01*
X125877143Y-64972371D02*
X126105714Y-64972371D01*
X126105714Y-64972371D02*
X126162857Y-65000942D01*
X126162857Y-65000942D02*
X126191428Y-65029514D01*
X126191428Y-65029514D02*
X126220000Y-65086657D01*
X126220000Y-65086657D02*
X126220000Y-65172371D01*
X126220000Y-65172371D02*
X126191428Y-65229514D01*
X126191428Y-65229514D02*
X126162857Y-65258085D01*
X126162857Y-65258085D02*
X126105714Y-65286657D01*
X126105714Y-65286657D02*
X125877143Y-65286657D01*
X126762857Y-64972371D02*
X126477143Y-64972371D01*
X126477143Y-64972371D02*
X126448571Y-65258085D01*
X126448571Y-65258085D02*
X126477143Y-65229514D01*
X126477143Y-65229514D02*
X126534286Y-65200942D01*
X126534286Y-65200942D02*
X126677143Y-65200942D01*
X126677143Y-65200942D02*
X126734286Y-65229514D01*
X126734286Y-65229514D02*
X126762857Y-65258085D01*
X126762857Y-65258085D02*
X126791428Y-65315228D01*
X126791428Y-65315228D02*
X126791428Y-65458085D01*
X126791428Y-65458085D02*
X126762857Y-65515228D01*
X126762857Y-65515228D02*
X126734286Y-65543800D01*
X126734286Y-65543800D02*
X126677143Y-65572371D01*
X126677143Y-65572371D02*
X126534286Y-65572371D01*
X126534286Y-65572371D02*
X126477143Y-65543800D01*
X126477143Y-65543800D02*
X126448571Y-65515228D01*
X173767603Y-100265714D02*
X173796175Y-100294286D01*
X173796175Y-100294286D02*
X173824746Y-100380000D01*
X173824746Y-100380000D02*
X173824746Y-100437143D01*
X173824746Y-100437143D02*
X173796175Y-100522857D01*
X173796175Y-100522857D02*
X173739032Y-100580000D01*
X173739032Y-100580000D02*
X173681889Y-100608571D01*
X173681889Y-100608571D02*
X173567603Y-100637143D01*
X173567603Y-100637143D02*
X173481889Y-100637143D01*
X173481889Y-100637143D02*
X173367603Y-100608571D01*
X173367603Y-100608571D02*
X173310460Y-100580000D01*
X173310460Y-100580000D02*
X173253317Y-100522857D01*
X173253317Y-100522857D02*
X173224746Y-100437143D01*
X173224746Y-100437143D02*
X173224746Y-100380000D01*
X173224746Y-100380000D02*
X173253317Y-100294286D01*
X173253317Y-100294286D02*
X173281889Y-100265714D01*
X173281889Y-100037143D02*
X173253317Y-100008571D01*
X173253317Y-100008571D02*
X173224746Y-99951429D01*
X173224746Y-99951429D02*
X173224746Y-99808571D01*
X173224746Y-99808571D02*
X173253317Y-99751429D01*
X173253317Y-99751429D02*
X173281889Y-99722857D01*
X173281889Y-99722857D02*
X173339032Y-99694286D01*
X173339032Y-99694286D02*
X173396175Y-99694286D01*
X173396175Y-99694286D02*
X173481889Y-99722857D01*
X173481889Y-99722857D02*
X173824746Y-100065714D01*
X173824746Y-100065714D02*
X173824746Y-99694286D01*
X173281889Y-99465714D02*
X173253317Y-99437142D01*
X173253317Y-99437142D02*
X173224746Y-99380000D01*
X173224746Y-99380000D02*
X173224746Y-99237142D01*
X173224746Y-99237142D02*
X173253317Y-99180000D01*
X173253317Y-99180000D02*
X173281889Y-99151428D01*
X173281889Y-99151428D02*
X173339032Y-99122857D01*
X173339032Y-99122857D02*
X173396175Y-99122857D01*
X173396175Y-99122857D02*
X173481889Y-99151428D01*
X173481889Y-99151428D02*
X173824746Y-99494285D01*
X173824746Y-99494285D02*
X173824746Y-99122857D01*
X132182857Y-79388764D02*
X132125714Y-79360192D01*
X132125714Y-79360192D02*
X132068571Y-79303050D01*
X132068571Y-79303050D02*
X131982857Y-79217335D01*
X131982857Y-79217335D02*
X131925714Y-79188764D01*
X131925714Y-79188764D02*
X131868571Y-79188764D01*
X131897142Y-79331621D02*
X131840000Y-79303050D01*
X131840000Y-79303050D02*
X131782857Y-79245907D01*
X131782857Y-79245907D02*
X131754285Y-79131621D01*
X131754285Y-79131621D02*
X131754285Y-78931621D01*
X131754285Y-78931621D02*
X131782857Y-78817335D01*
X131782857Y-78817335D02*
X131840000Y-78760192D01*
X131840000Y-78760192D02*
X131897142Y-78731621D01*
X131897142Y-78731621D02*
X132011428Y-78731621D01*
X132011428Y-78731621D02*
X132068571Y-78760192D01*
X132068571Y-78760192D02*
X132125714Y-78817335D01*
X132125714Y-78817335D02*
X132154285Y-78931621D01*
X132154285Y-78931621D02*
X132154285Y-79131621D01*
X132154285Y-79131621D02*
X132125714Y-79245907D01*
X132125714Y-79245907D02*
X132068571Y-79303050D01*
X132068571Y-79303050D02*
X132011428Y-79331621D01*
X132011428Y-79331621D02*
X131897142Y-79331621D01*
X132725713Y-79331621D02*
X132382856Y-79331621D01*
X132554285Y-79331621D02*
X132554285Y-78731621D01*
X132554285Y-78731621D02*
X132497142Y-78817335D01*
X132497142Y-78817335D02*
X132439999Y-78874478D01*
X132439999Y-78874478D02*
X132382856Y-78903050D01*
X112079871Y-101905000D02*
X112508442Y-101905000D01*
X112508442Y-101905000D02*
X112594157Y-101933571D01*
X112594157Y-101933571D02*
X112651300Y-101990714D01*
X112651300Y-101990714D02*
X112679871Y-102076428D01*
X112679871Y-102076428D02*
X112679871Y-102133571D01*
X112079871Y-101333571D02*
X112079871Y-101619285D01*
X112079871Y-101619285D02*
X112365585Y-101647857D01*
X112365585Y-101647857D02*
X112337014Y-101619285D01*
X112337014Y-101619285D02*
X112308442Y-101562143D01*
X112308442Y-101562143D02*
X112308442Y-101419285D01*
X112308442Y-101419285D02*
X112337014Y-101362143D01*
X112337014Y-101362143D02*
X112365585Y-101333571D01*
X112365585Y-101333571D02*
X112422728Y-101305000D01*
X112422728Y-101305000D02*
X112565585Y-101305000D01*
X112565585Y-101305000D02*
X112622728Y-101333571D01*
X112622728Y-101333571D02*
X112651300Y-101362143D01*
X112651300Y-101362143D02*
X112679871Y-101419285D01*
X112679871Y-101419285D02*
X112679871Y-101562143D01*
X112679871Y-101562143D02*
X112651300Y-101619285D01*
X112651300Y-101619285D02*
X112622728Y-101647857D01*
X174999999Y-65931300D02*
X175085714Y-65959871D01*
X175085714Y-65959871D02*
X175228571Y-65959871D01*
X175228571Y-65959871D02*
X175285714Y-65931300D01*
X175285714Y-65931300D02*
X175314285Y-65902728D01*
X175314285Y-65902728D02*
X175342856Y-65845585D01*
X175342856Y-65845585D02*
X175342856Y-65788442D01*
X175342856Y-65788442D02*
X175314285Y-65731300D01*
X175314285Y-65731300D02*
X175285714Y-65702728D01*
X175285714Y-65702728D02*
X175228571Y-65674157D01*
X175228571Y-65674157D02*
X175114285Y-65645585D01*
X175114285Y-65645585D02*
X175057142Y-65617014D01*
X175057142Y-65617014D02*
X175028571Y-65588442D01*
X175028571Y-65588442D02*
X174999999Y-65531300D01*
X174999999Y-65531300D02*
X174999999Y-65474157D01*
X174999999Y-65474157D02*
X175028571Y-65417014D01*
X175028571Y-65417014D02*
X175057142Y-65388442D01*
X175057142Y-65388442D02*
X175114285Y-65359871D01*
X175114285Y-65359871D02*
X175257142Y-65359871D01*
X175257142Y-65359871D02*
X175342856Y-65388442D01*
X175542857Y-65359871D02*
X175685714Y-65959871D01*
X175685714Y-65959871D02*
X175800000Y-65531300D01*
X175800000Y-65531300D02*
X175914285Y-65959871D01*
X175914285Y-65959871D02*
X176057143Y-65359871D01*
X176257142Y-65417014D02*
X176285714Y-65388442D01*
X176285714Y-65388442D02*
X176342857Y-65359871D01*
X176342857Y-65359871D02*
X176485714Y-65359871D01*
X176485714Y-65359871D02*
X176542857Y-65388442D01*
X176542857Y-65388442D02*
X176571428Y-65417014D01*
X176571428Y-65417014D02*
X176599999Y-65474157D01*
X176599999Y-65474157D02*
X176599999Y-65531300D01*
X176599999Y-65531300D02*
X176571428Y-65617014D01*
X176571428Y-65617014D02*
X176228571Y-65959871D01*
X176228571Y-65959871D02*
X176599999Y-65959871D01*
X135706785Y-110937371D02*
X135506785Y-110651657D01*
X135363928Y-110937371D02*
X135363928Y-110337371D01*
X135363928Y-110337371D02*
X135592499Y-110337371D01*
X135592499Y-110337371D02*
X135649642Y-110365942D01*
X135649642Y-110365942D02*
X135678213Y-110394514D01*
X135678213Y-110394514D02*
X135706785Y-110451657D01*
X135706785Y-110451657D02*
X135706785Y-110537371D01*
X135706785Y-110537371D02*
X135678213Y-110594514D01*
X135678213Y-110594514D02*
X135649642Y-110623085D01*
X135649642Y-110623085D02*
X135592499Y-110651657D01*
X135592499Y-110651657D02*
X135363928Y-110651657D01*
X135906785Y-110337371D02*
X136278213Y-110337371D01*
X136278213Y-110337371D02*
X136078213Y-110565942D01*
X136078213Y-110565942D02*
X136163928Y-110565942D01*
X136163928Y-110565942D02*
X136221071Y-110594514D01*
X136221071Y-110594514D02*
X136249642Y-110623085D01*
X136249642Y-110623085D02*
X136278213Y-110680228D01*
X136278213Y-110680228D02*
X136278213Y-110823085D01*
X136278213Y-110823085D02*
X136249642Y-110880228D01*
X136249642Y-110880228D02*
X136221071Y-110908800D01*
X136221071Y-110908800D02*
X136163928Y-110937371D01*
X136163928Y-110937371D02*
X135992499Y-110937371D01*
X135992499Y-110937371D02*
X135935356Y-110908800D01*
X135935356Y-110908800D02*
X135906785Y-110880228D01*
X136792500Y-110337371D02*
X136678214Y-110337371D01*
X136678214Y-110337371D02*
X136621071Y-110365942D01*
X136621071Y-110365942D02*
X136592500Y-110394514D01*
X136592500Y-110394514D02*
X136535357Y-110480228D01*
X136535357Y-110480228D02*
X136506785Y-110594514D01*
X136506785Y-110594514D02*
X136506785Y-110823085D01*
X136506785Y-110823085D02*
X136535357Y-110880228D01*
X136535357Y-110880228D02*
X136563928Y-110908800D01*
X136563928Y-110908800D02*
X136621071Y-110937371D01*
X136621071Y-110937371D02*
X136735357Y-110937371D01*
X136735357Y-110937371D02*
X136792500Y-110908800D01*
X136792500Y-110908800D02*
X136821071Y-110880228D01*
X136821071Y-110880228D02*
X136849642Y-110823085D01*
X136849642Y-110823085D02*
X136849642Y-110680228D01*
X136849642Y-110680228D02*
X136821071Y-110623085D01*
X136821071Y-110623085D02*
X136792500Y-110594514D01*
X136792500Y-110594514D02*
X136735357Y-110565942D01*
X136735357Y-110565942D02*
X136621071Y-110565942D01*
X136621071Y-110565942D02*
X136563928Y-110594514D01*
X136563928Y-110594514D02*
X136535357Y-110623085D01*
X136535357Y-110623085D02*
X136506785Y-110680228D01*
X152694285Y-117965228D02*
X152665713Y-117993800D01*
X152665713Y-117993800D02*
X152579999Y-118022371D01*
X152579999Y-118022371D02*
X152522856Y-118022371D01*
X152522856Y-118022371D02*
X152437142Y-117993800D01*
X152437142Y-117993800D02*
X152379999Y-117936657D01*
X152379999Y-117936657D02*
X152351428Y-117879514D01*
X152351428Y-117879514D02*
X152322856Y-117765228D01*
X152322856Y-117765228D02*
X152322856Y-117679514D01*
X152322856Y-117679514D02*
X152351428Y-117565228D01*
X152351428Y-117565228D02*
X152379999Y-117508085D01*
X152379999Y-117508085D02*
X152437142Y-117450942D01*
X152437142Y-117450942D02*
X152522856Y-117422371D01*
X152522856Y-117422371D02*
X152579999Y-117422371D01*
X152579999Y-117422371D02*
X152665713Y-117450942D01*
X152665713Y-117450942D02*
X152694285Y-117479514D01*
X152922856Y-117479514D02*
X152951428Y-117450942D01*
X152951428Y-117450942D02*
X153008571Y-117422371D01*
X153008571Y-117422371D02*
X153151428Y-117422371D01*
X153151428Y-117422371D02*
X153208571Y-117450942D01*
X153208571Y-117450942D02*
X153237142Y-117479514D01*
X153237142Y-117479514D02*
X153265713Y-117536657D01*
X153265713Y-117536657D02*
X153265713Y-117593800D01*
X153265713Y-117593800D02*
X153237142Y-117679514D01*
X153237142Y-117679514D02*
X152894285Y-118022371D01*
X152894285Y-118022371D02*
X153265713Y-118022371D01*
X153637142Y-117422371D02*
X153694285Y-117422371D01*
X153694285Y-117422371D02*
X153751428Y-117450942D01*
X153751428Y-117450942D02*
X153780000Y-117479514D01*
X153780000Y-117479514D02*
X153808571Y-117536657D01*
X153808571Y-117536657D02*
X153837142Y-117650942D01*
X153837142Y-117650942D02*
X153837142Y-117793800D01*
X153837142Y-117793800D02*
X153808571Y-117908085D01*
X153808571Y-117908085D02*
X153780000Y-117965228D01*
X153780000Y-117965228D02*
X153751428Y-117993800D01*
X153751428Y-117993800D02*
X153694285Y-118022371D01*
X153694285Y-118022371D02*
X153637142Y-118022371D01*
X153637142Y-118022371D02*
X153580000Y-117993800D01*
X153580000Y-117993800D02*
X153551428Y-117965228D01*
X153551428Y-117965228D02*
X153522857Y-117908085D01*
X153522857Y-117908085D02*
X153494285Y-117793800D01*
X153494285Y-117793800D02*
X153494285Y-117650942D01*
X153494285Y-117650942D02*
X153522857Y-117536657D01*
X153522857Y-117536657D02*
X153551428Y-117479514D01*
X153551428Y-117479514D02*
X153580000Y-117450942D01*
X153580000Y-117450942D02*
X153637142Y-117422371D01*
D12*
X122750000Y-78119250D02*
X122750000Y-77619250D01*
X122000000Y-78119250D02*
X122750000Y-78119250D01*
X121500000Y-77119250D02*
X121000000Y-77119250D01*
X120500000Y-78119250D02*
X119750000Y-78119250D01*
X119750000Y-78119250D02*
X119750000Y-77619250D01*
D13*
X125747500Y-104174724D02*
X125747500Y-103665276D01*
X126792500Y-104174724D02*
X126792500Y-103665276D01*
D12*
X114340000Y-80525000D02*
X112700000Y-80525000D01*
X109390000Y-80525000D02*
X110250000Y-80525000D01*
X109390000Y-80525000D02*
X109390000Y-89465000D01*
X114340000Y-89465000D02*
X112700000Y-89465000D01*
X109390000Y-89465000D02*
X110250000Y-89465000D01*
D14*
X116350000Y-79420000D02*
G75*
G03*
X116350000Y-79420000I-100000J0D01*
G01*
D13*
X120132500Y-64022776D02*
X120132500Y-64532224D01*
X119087500Y-64022776D02*
X119087500Y-64532224D01*
X179907500Y-68549724D02*
X179907500Y-68040276D01*
X180952500Y-68549724D02*
X180952500Y-68040276D01*
X136375276Y-75686750D02*
X136884724Y-75686750D01*
X136375276Y-76731750D02*
X136884724Y-76731750D01*
X142987500Y-102984724D02*
X142987500Y-102475276D01*
X144032500Y-102984724D02*
X144032500Y-102475276D01*
X174790000Y-79460000D02*
X176120000Y-79460000D01*
X174790000Y-80790000D02*
X174790000Y-79460000D01*
X174790000Y-82060000D02*
X174790000Y-94820000D01*
X174790000Y-82060000D02*
X177450000Y-82060000D01*
X174790000Y-94820000D02*
X177450000Y-94820000D01*
X177450000Y-82060000D02*
X177450000Y-94820000D01*
X125310000Y-114096267D02*
X125310000Y-113803733D01*
X126330000Y-114096267D02*
X126330000Y-113803733D01*
X117310000Y-64091233D02*
X117310000Y-64383767D01*
X116290000Y-64091233D02*
X116290000Y-64383767D01*
X130650276Y-89667500D02*
X131159724Y-89667500D01*
X130650276Y-90712500D02*
X131159724Y-90712500D01*
X170320000Y-67761233D02*
X170320000Y-68053767D01*
X169300000Y-67761233D02*
X169300000Y-68053767D01*
X109740000Y-70477500D02*
X113880000Y-70477500D01*
X109740000Y-70777500D02*
X109740000Y-70477500D01*
X109740000Y-73617500D02*
X109740000Y-73317500D01*
X113880000Y-70477500D02*
X113880000Y-70777500D01*
X113880000Y-73317500D02*
X113880000Y-73617500D01*
X113880000Y-73617500D02*
X109740000Y-73617500D01*
X122578767Y-90700000D02*
X122286233Y-90700000D01*
X122578767Y-89680000D02*
X122286233Y-89680000D01*
D12*
X129855000Y-102930000D02*
X133855000Y-102930000D01*
X129855000Y-108030000D02*
X133855000Y-108030000D01*
D14*
X127510000Y-102975000D02*
G75*
G03*
X127510000Y-102975000I-100000J0D01*
G01*
D13*
X158022776Y-80652500D02*
X158532224Y-80652500D01*
X158022776Y-81697500D02*
X158532224Y-81697500D01*
X133965000Y-112587776D02*
X133965000Y-113097224D01*
X132920000Y-112587776D02*
X132920000Y-113097224D01*
X185520000Y-62865000D02*
X185520000Y-73085000D01*
X182860000Y-73085000D02*
X185520000Y-73085000D01*
X182860000Y-62865000D02*
X185520000Y-62865000D01*
X182860000Y-62865000D02*
X182860000Y-73085000D01*
X182860000Y-61595000D02*
X182860000Y-60265000D01*
X182860000Y-60265000D02*
X184190000Y-60265000D01*
X138135000Y-104437500D02*
X139605000Y-104437500D01*
X139605000Y-104437500D02*
X139605000Y-101977500D01*
X138135000Y-101977500D02*
X138135000Y-104437500D01*
X160935276Y-49537500D02*
X161444724Y-49537500D01*
X160935276Y-50582500D02*
X161444724Y-50582500D01*
X125840000Y-87390000D02*
X127040000Y-87390000D01*
X125840000Y-85430000D02*
X125840000Y-87390000D01*
X127040000Y-85430000D02*
X127040000Y-87390000D01*
X136392776Y-78206750D02*
X136902224Y-78206750D01*
X136392776Y-79251750D02*
X136902224Y-79251750D01*
X126044724Y-79341750D02*
X125535276Y-79341750D01*
X126044724Y-78296750D02*
X125535276Y-78296750D01*
X158133733Y-89370000D02*
X158426267Y-89370000D01*
X158133733Y-90390000D02*
X158426267Y-90390000D01*
X138535000Y-42092500D02*
X138535000Y-48507500D01*
X138535000Y-42092500D02*
X156775000Y-42092500D01*
X138535000Y-48507500D02*
X138155000Y-48507500D01*
X138535000Y-67052500D02*
X138535000Y-67832500D01*
X138535000Y-67832500D02*
X139535000Y-67832500D01*
X156775000Y-42092500D02*
X156775000Y-48507500D01*
X156775000Y-67052500D02*
X156775000Y-67832500D01*
X156775000Y-67832500D02*
X155775000Y-67832500D01*
X109550000Y-62617500D02*
X113690000Y-62617500D01*
X109550000Y-62917500D02*
X109550000Y-62617500D01*
X109550000Y-65757500D02*
X109550000Y-65457500D01*
X113690000Y-62617500D02*
X113690000Y-62917500D01*
X113690000Y-65457500D02*
X113690000Y-65757500D01*
X113690000Y-65757500D02*
X109550000Y-65757500D01*
X145267500Y-102934724D02*
X145267500Y-102425276D01*
X146312500Y-102934724D02*
X146312500Y-102425276D01*
X138452500Y-108457500D02*
X138452500Y-110132500D01*
X138452500Y-108457500D02*
X138452500Y-107807500D01*
X141572500Y-108457500D02*
X141572500Y-109107500D01*
X141572500Y-108457500D02*
X141572500Y-107807500D01*
X173650000Y-50227500D02*
X177790000Y-50227500D01*
X173650000Y-50527500D02*
X173650000Y-50227500D01*
X173650000Y-53367500D02*
X173650000Y-53067500D01*
X177790000Y-50227500D02*
X177790000Y-50527500D01*
X177790000Y-53067500D02*
X177790000Y-53367500D01*
X177790000Y-53367500D02*
X173650000Y-53367500D01*
X173650000Y-71610000D02*
X177790000Y-71610000D01*
X173650000Y-71910000D02*
X173650000Y-71610000D01*
X173650000Y-74750000D02*
X173650000Y-74450000D01*
X177790000Y-71610000D02*
X177790000Y-71910000D01*
X177790000Y-74450000D02*
X177790000Y-74750000D01*
X177790000Y-74750000D02*
X173650000Y-74750000D01*
D11*
X109257500Y-116625000D02*
X116997500Y-116625000D01*
X116997500Y-116625000D02*
X116997500Y-106845000D01*
X116997500Y-106845000D02*
X109257500Y-106845000D01*
X109257500Y-106845000D02*
X109257500Y-116625000D01*
D13*
X155300000Y-106498748D02*
X155300000Y-107921252D01*
X153480000Y-106498748D02*
X153480000Y-107921252D01*
X121260000Y-80270000D02*
X120060000Y-80270000D01*
X121260000Y-82230000D02*
X121260000Y-80270000D01*
X120060000Y-82230000D02*
X120060000Y-80270000D01*
D10*
X123662500Y-111007500D02*
X123537500Y-111007500D01*
X123662500Y-111007500D02*
X123662500Y-114257500D01*
X123537500Y-111007500D02*
X123537500Y-109932500D01*
X120412500Y-111007500D02*
X120637500Y-111007500D01*
X120412500Y-111007500D02*
X120412500Y-114257500D01*
X123662500Y-114257500D02*
X123437500Y-114257500D01*
X120412500Y-114257500D02*
X120637500Y-114257500D01*
D13*
X166712500Y-51462776D02*
X166712500Y-51972224D01*
X165667500Y-51462776D02*
X165667500Y-51972224D01*
X132850000Y-64382500D02*
X132850000Y-62912500D01*
X132850000Y-62912500D02*
X130390000Y-62912500D01*
X130390000Y-64382500D02*
X132850000Y-64382500D01*
X180017500Y-76202224D02*
X180017500Y-75692776D01*
X181062500Y-76202224D02*
X181062500Y-75692776D01*
X177485000Y-105280251D02*
X177485000Y-105880251D01*
X177785000Y-105580251D02*
X177185000Y-105580251D01*
X178850000Y-108620000D02*
G75*
G03*
X178850000Y-108620000I-3120000J0D01*
G01*
X173650000Y-55540000D02*
X177790000Y-55540000D01*
X173650000Y-55840000D02*
X173650000Y-55540000D01*
X173650000Y-58680000D02*
X173650000Y-58380000D01*
X177790000Y-55540000D02*
X177790000Y-55840000D01*
X177790000Y-58380000D02*
X177790000Y-58680000D01*
X177790000Y-58680000D02*
X173650000Y-58680000D01*
X132850000Y-70112500D02*
X132850000Y-68642500D01*
X132850000Y-68642500D02*
X130390000Y-68642500D01*
X130390000Y-70112500D02*
X132850000Y-70112500D01*
X125657776Y-60475000D02*
X126167224Y-60475000D01*
X125657776Y-61520000D02*
X126167224Y-61520000D01*
X170320000Y-56883733D02*
X170320000Y-57176267D01*
X169300000Y-56883733D02*
X169300000Y-57176267D01*
X169527500Y-99971248D02*
X169527500Y-101393752D01*
X167707500Y-99971248D02*
X167707500Y-101393752D01*
X182650000Y-84650000D02*
X183980000Y-84650000D01*
X182650000Y-85980000D02*
X182650000Y-84650000D01*
X182650000Y-87250000D02*
X182650000Y-94930000D01*
X182650000Y-87250000D02*
X185310000Y-87250000D01*
X182650000Y-94930000D02*
X185310000Y-94930000D01*
X185310000Y-87250000D02*
X185310000Y-94930000D01*
X166712500Y-62315276D02*
X166712500Y-62824724D01*
X165667500Y-62315276D02*
X165667500Y-62824724D01*
X158037776Y-76272500D02*
X158547224Y-76272500D01*
X158037776Y-77317500D02*
X158547224Y-77317500D01*
X166712500Y-72845276D02*
X166712500Y-73354724D01*
X165667500Y-72845276D02*
X165667500Y-73354724D01*
X158410000Y-106498748D02*
X158410000Y-107921252D01*
X156590000Y-106498748D02*
X156590000Y-107921252D01*
X153130000Y-75833748D02*
X153130000Y-77256252D01*
X151310000Y-75833748D02*
X151310000Y-77256252D01*
X126687224Y-92972500D02*
X126177776Y-92972500D01*
X126687224Y-91927500D02*
X126177776Y-91927500D01*
X158000276Y-87272500D02*
X158509724Y-87272500D01*
X158000276Y-88317500D02*
X158509724Y-88317500D01*
X140435000Y-104415000D02*
X141905000Y-104415000D01*
X141905000Y-104415000D02*
X141905000Y-101955000D01*
X140435000Y-101955000D02*
X140435000Y-104415000D01*
X122578767Y-92970000D02*
X122286233Y-92970000D01*
X122578767Y-91950000D02*
X122286233Y-91950000D01*
X166712500Y-67652776D02*
X166712500Y-68162224D01*
X165667500Y-67652776D02*
X165667500Y-68162224D01*
X129372500Y-115500000D02*
X131172500Y-115500000D01*
X129372500Y-115500000D02*
X128572500Y-115500000D01*
X129372500Y-112380000D02*
X130172500Y-112380000D01*
X129372500Y-112380000D02*
X128572500Y-112380000D01*
X132850000Y-67252500D02*
X132850000Y-65782500D01*
X132850000Y-65782500D02*
X130390000Y-65782500D01*
X130390000Y-67252500D02*
X132850000Y-67252500D01*
X171137500Y-107725000D02*
X170867500Y-107725000D01*
X170867500Y-107725000D02*
X170867500Y-104895000D01*
X164507500Y-107725000D02*
X164507500Y-106625000D01*
X164237500Y-107725000D02*
X164507500Y-107725000D01*
X171137500Y-114145000D02*
X171137500Y-107725000D01*
X164237500Y-114145000D02*
X164237500Y-107725000D01*
X161105000Y-110460251D02*
X161105000Y-111060251D01*
X161405000Y-110760251D02*
X160805000Y-110760251D01*
X162470000Y-113800000D02*
G75*
G03*
X162470000Y-113800000I-3120000J0D01*
G01*
X132850000Y-61672500D02*
X132850000Y-60202500D01*
X132850000Y-60202500D02*
X130390000Y-60202500D01*
X130390000Y-61672500D02*
X132850000Y-61672500D01*
X119310000Y-81373733D02*
X119310000Y-81666267D01*
X118290000Y-81373733D02*
X118290000Y-81666267D01*
X126177776Y-89657500D02*
X126687224Y-89657500D01*
X126177776Y-90702500D02*
X126687224Y-90702500D01*
X149170000Y-77393767D02*
X149170000Y-77101233D01*
X150190000Y-77393767D02*
X150190000Y-77101233D01*
X184755000Y-101370251D02*
X184755000Y-101970251D01*
X185055000Y-101670251D02*
X184455000Y-101670251D01*
X186120000Y-104710000D02*
G75*
G03*
X186120000Y-104710000I-3120000J0D01*
G01*
X185450000Y-58287500D02*
X184120000Y-58287500D01*
X185450000Y-56957500D02*
X185450000Y-58287500D01*
X185450000Y-55687500D02*
X185450000Y-50547500D01*
X185450000Y-55687500D02*
X182790000Y-55687500D01*
X185450000Y-50547500D02*
X182790000Y-50547500D01*
X182790000Y-55687500D02*
X182790000Y-50547500D01*
X158015276Y-82822500D02*
X158524724Y-82822500D01*
X158015276Y-83867500D02*
X158524724Y-83867500D01*
X158007776Y-85012500D02*
X158517224Y-85012500D01*
X158007776Y-86057500D02*
X158517224Y-86057500D01*
X173650000Y-61080000D02*
X177790000Y-61080000D01*
X173650000Y-61380000D02*
X173650000Y-61080000D01*
X173650000Y-64220000D02*
X173650000Y-63920000D01*
X177790000Y-61080000D02*
X177790000Y-61380000D01*
X177790000Y-63920000D02*
X177790000Y-64220000D01*
X177790000Y-64220000D02*
X173650000Y-64220000D01*
X125460000Y-82582500D02*
X124260000Y-82582500D01*
X125460000Y-84542500D02*
X125460000Y-82582500D01*
X124260000Y-84542500D02*
X124260000Y-82582500D01*
X117500000Y-71951233D02*
X117500000Y-72243767D01*
X116480000Y-71951233D02*
X116480000Y-72243767D01*
X179780000Y-115150000D02*
X179780000Y-113820000D01*
X181110000Y-115150000D02*
X179780000Y-115150000D01*
X182380000Y-115150000D02*
X184980000Y-115150000D01*
X182380000Y-115150000D02*
X182380000Y-112490000D01*
X184980000Y-115150000D02*
X184980000Y-112490000D01*
X182380000Y-112490000D02*
X184980000Y-112490000D01*
X145973752Y-108565000D02*
X144551248Y-108565000D01*
X145973752Y-106745000D02*
X144551248Y-106745000D01*
X121535276Y-86227500D02*
X122044724Y-86227500D01*
X121535276Y-87272500D02*
X122044724Y-87272500D01*
X126515276Y-110407500D02*
X127024724Y-110407500D01*
X126515276Y-111452500D02*
X127024724Y-111452500D01*
X121877500Y-82224724D02*
X121877500Y-81715276D01*
X122922500Y-82224724D02*
X122922500Y-81715276D01*
X125535276Y-75616750D02*
X126044724Y-75616750D01*
X125535276Y-76661750D02*
X126044724Y-76661750D01*
X170320000Y-62423733D02*
X170320000Y-62716267D01*
X169300000Y-62423733D02*
X169300000Y-62716267D01*
X124376267Y-107900000D02*
X124083733Y-107900000D01*
X124376267Y-106880000D02*
X124083733Y-106880000D01*
X131159724Y-92982500D02*
X130650276Y-92982500D01*
X131159724Y-91937500D02*
X130650276Y-91937500D01*
X166712500Y-56775276D02*
X166712500Y-57284724D01*
X165667500Y-56775276D02*
X165667500Y-57284724D01*
X120322500Y-71882776D02*
X120322500Y-72392224D01*
X119277500Y-71882776D02*
X119277500Y-72392224D01*
X125657776Y-68735000D02*
X126167224Y-68735000D01*
X125657776Y-69780000D02*
X126167224Y-69780000D01*
D12*
X106070000Y-129630000D02*
X108070000Y-129630000D01*
X107070000Y-128630000D02*
X107070000Y-130630000D01*
X109220000Y-119140000D02*
X186180000Y-119140000D01*
X109220000Y-140120000D02*
X109220000Y-119140000D01*
X186180000Y-119140000D02*
X186180000Y-140120000D01*
X186180000Y-140120000D02*
X109220000Y-140120000D01*
X187330000Y-129630000D02*
X189330000Y-129630000D01*
D10*
X145715000Y-80635000D02*
X145715000Y-80860000D01*
X145715000Y-80635000D02*
X151465000Y-80635000D01*
X145715000Y-80860000D02*
X144115000Y-80860000D01*
X145715000Y-89285000D02*
X145715000Y-88985000D01*
X145715000Y-89285000D02*
X151465000Y-89285000D01*
X151465000Y-80635000D02*
X151465000Y-80935000D01*
X151465000Y-89285000D02*
X151465000Y-88985000D01*
D13*
X129210000Y-87380000D02*
X129210000Y-86655000D01*
X129935000Y-82160000D02*
X129210000Y-82160000D01*
X129935000Y-87380000D02*
X129210000Y-87380000D01*
X133705000Y-82160000D02*
X134430000Y-82160000D01*
X133705000Y-87380000D02*
X134430000Y-87380000D01*
X134430000Y-82160000D02*
X134430000Y-82885000D01*
X134430000Y-87380000D02*
X134430000Y-86655000D01*
X158030276Y-78462500D02*
X158539724Y-78462500D01*
X158030276Y-79507500D02*
X158539724Y-79507500D01*
X132850000Y-72782500D02*
X132850000Y-71312500D01*
X132850000Y-71312500D02*
X130390000Y-71312500D01*
X130390000Y-72782500D02*
X132850000Y-72782500D01*
X170320000Y-72953733D02*
X170320000Y-73246267D01*
X169300000Y-72953733D02*
X169300000Y-73246267D01*
X125657776Y-62975000D02*
X126167224Y-62975000D01*
X125657776Y-64020000D02*
X126167224Y-64020000D01*
X170320000Y-51571233D02*
X170320000Y-51863767D01*
X169300000Y-51571233D02*
X169300000Y-51863767D01*
X125657776Y-71535000D02*
X126167224Y-71535000D01*
X125657776Y-72580000D02*
X126167224Y-72580000D01*
X166187500Y-99893748D02*
X166187500Y-101316252D01*
X164367500Y-99893748D02*
X164367500Y-101316252D01*
X175838748Y-102000000D02*
X177261252Y-102000000D01*
X175838748Y-103820000D02*
X177261252Y-103820000D01*
X182770000Y-74930000D02*
X184100000Y-74930000D01*
X182770000Y-76260000D02*
X182770000Y-74930000D01*
X182770000Y-77530000D02*
X182770000Y-82670000D01*
X182770000Y-77530000D02*
X185430000Y-77530000D01*
X182770000Y-82670000D02*
X185430000Y-82670000D01*
X185430000Y-77530000D02*
X185430000Y-82670000D01*
X145680000Y-115805000D02*
X145680000Y-111535000D01*
X145680000Y-111535000D02*
X139795000Y-111535000D01*
X139795000Y-115805000D02*
X145680000Y-115805000D01*
X125657776Y-65965000D02*
X126167224Y-65965000D01*
X125657776Y-67010000D02*
X126167224Y-67010000D01*
X175861123Y-98650000D02*
X177283627Y-98650000D01*
X175861123Y-100470000D02*
X177283627Y-100470000D01*
D12*
X132030000Y-78159250D02*
X132030000Y-77659250D01*
X131280000Y-78159250D02*
X132030000Y-78159250D01*
X130780000Y-77159250D02*
X130280000Y-77159250D01*
X129780000Y-78159250D02*
X129030000Y-78159250D01*
X129030000Y-78159250D02*
X129030000Y-77659250D01*
D11*
X109157500Y-104035000D02*
X116897500Y-104035000D01*
X116897500Y-104035000D02*
X116897500Y-94255000D01*
X116897500Y-94255000D02*
X109157500Y-94255000D01*
X109157500Y-94255000D02*
X109157500Y-104035000D01*
D13*
X173650000Y-66417500D02*
X177790000Y-66417500D01*
X173650000Y-66717500D02*
X173650000Y-66417500D01*
X173650000Y-69557500D02*
X173650000Y-69257500D01*
X177790000Y-66417500D02*
X177790000Y-66717500D01*
X177790000Y-69257500D02*
X177790000Y-69557500D01*
X177790000Y-69557500D02*
X173650000Y-69557500D01*
X135630000Y-113107224D02*
X135630000Y-112597776D01*
X136675000Y-113107224D02*
X136675000Y-112597776D01*
X153665000Y-110460251D02*
X153665000Y-111060251D01*
X153965000Y-110760251D02*
X153365000Y-110760251D01*
X155030000Y-113800000D02*
G75*
G03*
X155030000Y-113800000I-3120000J0D01*
G01*
%LPC*%
D15*
X122200000Y-76519250D03*
X121250000Y-78719250D03*
X120300000Y-76519250D03*
D16*
X126270000Y-104832500D03*
X126270000Y-103007500D03*
D17*
X115180000Y-82105000D03*
X115180000Y-87885000D03*
D18*
X116250000Y-81645000D03*
X116250000Y-82445000D03*
X116250000Y-83745000D03*
X116250000Y-84745000D03*
X116250000Y-85245000D03*
X116250000Y-86245000D03*
X116250000Y-87545000D03*
X116250000Y-88345000D03*
X116250000Y-88045000D03*
X116250000Y-87245000D03*
X116250000Y-86745000D03*
X116250000Y-85745000D03*
X116250000Y-84245000D03*
X116250000Y-83245000D03*
X116250000Y-82745000D03*
X116250000Y-81945000D03*
D19*
X115660000Y-80670000D03*
D20*
X115660000Y-89320000D03*
X111480000Y-80670000D03*
X111480000Y-89320000D03*
D21*
X119610000Y-63365000D03*
X119610000Y-65190000D03*
D16*
X180430000Y-69207500D03*
X180430000Y-67382500D03*
D22*
X135717500Y-76209250D03*
X137542500Y-76209250D03*
D16*
X143510000Y-103642500D03*
X143510000Y-101817500D03*
D23*
X176120000Y-80790000D03*
D24*
X176120000Y-83330000D03*
X176120000Y-85870000D03*
X176120000Y-88410000D03*
X176120000Y-90950000D03*
X176120000Y-93490000D03*
D25*
X125820000Y-114812500D03*
X125820000Y-113087500D03*
D26*
X116800000Y-63375000D03*
X116800000Y-65100000D03*
D22*
X129992500Y-90190000D03*
X131817500Y-90190000D03*
D26*
X169810000Y-67045000D03*
X169810000Y-68770000D03*
D27*
X109710000Y-72047500D03*
X113910000Y-72047500D03*
D28*
X123295000Y-90190000D03*
X121570000Y-90190000D03*
D29*
X129380000Y-103575000D03*
X129380000Y-104845000D03*
X129380000Y-106115000D03*
X129380000Y-107385000D03*
X134330000Y-107385000D03*
X134330000Y-106115000D03*
X134330000Y-104845000D03*
X134330000Y-103575000D03*
D30*
X131855000Y-105480000D03*
D22*
X157365000Y-81175000D03*
X159190000Y-81175000D03*
D21*
X133442500Y-111930000D03*
X133442500Y-113755000D03*
D24*
X184190000Y-71755000D03*
X184190000Y-69215000D03*
X184190000Y-66675000D03*
X184190000Y-64135000D03*
D23*
X184190000Y-61595000D03*
D31*
X138870000Y-103652500D03*
X138870000Y-101902500D03*
D22*
X160277500Y-50060000D03*
X162102500Y-50060000D03*
D32*
X126440000Y-86830000D03*
X126440000Y-85430000D03*
D22*
X135735000Y-78729250D03*
X137560000Y-78729250D03*
D33*
X126702500Y-78819250D03*
X124877500Y-78819250D03*
D34*
X157417500Y-89880000D03*
X159142500Y-89880000D03*
D35*
X138905000Y-49702500D03*
X138905000Y-50972500D03*
X138905000Y-52242500D03*
X138905000Y-53512500D03*
X138905000Y-54782500D03*
X138905000Y-56052500D03*
X138905000Y-57322500D03*
X138905000Y-58592500D03*
X138905000Y-59862500D03*
X138905000Y-61132500D03*
X138905000Y-62402500D03*
X138905000Y-63672500D03*
X138905000Y-64942500D03*
X138905000Y-66212500D03*
D36*
X141945000Y-67462500D03*
X143215000Y-67462500D03*
X144485000Y-67462500D03*
X145755000Y-67462500D03*
X147025000Y-67462500D03*
X148295000Y-67462500D03*
X149565000Y-67462500D03*
X150835000Y-67462500D03*
X152105000Y-67462500D03*
X153375000Y-67462500D03*
D35*
X156405000Y-66212500D03*
X156405000Y-64942500D03*
X156405000Y-63672500D03*
X156405000Y-62402500D03*
X156405000Y-61132500D03*
X156405000Y-59862500D03*
X156405000Y-58592500D03*
X156405000Y-57322500D03*
X156405000Y-56052500D03*
X156405000Y-54782500D03*
X156405000Y-53512500D03*
X156405000Y-52242500D03*
X156405000Y-50972500D03*
X156405000Y-49702500D03*
D37*
X145450000Y-56280000D03*
X145450000Y-57805000D03*
X146212500Y-55517500D03*
X146212500Y-57042500D03*
X146212500Y-58567500D03*
X146975000Y-56280000D03*
D38*
X146975000Y-57042500D03*
D37*
X146975000Y-57805000D03*
X147737500Y-55517500D03*
X147737500Y-57042500D03*
X147737500Y-58567500D03*
X148500000Y-56280000D03*
X148500000Y-57805000D03*
D27*
X109520000Y-64187500D03*
X113720000Y-64187500D03*
D16*
X145790000Y-103592500D03*
X145790000Y-101767500D03*
D39*
X139062500Y-109395000D03*
X140962500Y-109395000D03*
X140012500Y-107520000D03*
D27*
X173620000Y-51797500D03*
X177820000Y-51797500D03*
X173620000Y-73180000D03*
X177820000Y-73180000D03*
D40*
X113007500Y-114295000D03*
X113007500Y-109215000D03*
D41*
X154390000Y-105647500D03*
X154390000Y-108772500D03*
D42*
X120660000Y-80830000D03*
X120660000Y-82230000D03*
D43*
X123012500Y-110482500D03*
X122362500Y-110482500D03*
X121712500Y-110482500D03*
X121062500Y-110482500D03*
X121062500Y-114782500D03*
X121712500Y-114782500D03*
X122362500Y-114782500D03*
X123012500Y-114782500D03*
D21*
X166190000Y-50805000D03*
X166190000Y-52630000D03*
D44*
X132065000Y-63647500D03*
X130315000Y-63647500D03*
D16*
X180540000Y-76860000D03*
X180540000Y-75035000D03*
D45*
X175730000Y-107370000D03*
D46*
X175730000Y-109870000D03*
D27*
X173620000Y-57110000D03*
X177820000Y-57110000D03*
D44*
X132065000Y-69377500D03*
X130315000Y-69377500D03*
D22*
X125000000Y-60997500D03*
X126825000Y-60997500D03*
D26*
X169810000Y-56167500D03*
X169810000Y-57892500D03*
D41*
X168617500Y-99120000D03*
X168617500Y-102245000D03*
D23*
X183980000Y-85980000D03*
D24*
X183980000Y-88520000D03*
X183980000Y-91060000D03*
X183980000Y-93600000D03*
D21*
X166190000Y-61657500D03*
X166190000Y-63482500D03*
D22*
X157380000Y-76795000D03*
X159205000Y-76795000D03*
D21*
X166190000Y-72187500D03*
X166190000Y-74012500D03*
D41*
X157500000Y-105647500D03*
X157500000Y-108772500D03*
X152220000Y-74982500D03*
X152220000Y-78107500D03*
D33*
X127345000Y-92450000D03*
X125520000Y-92450000D03*
D22*
X157342500Y-87795000D03*
X159167500Y-87795000D03*
D31*
X141170000Y-103630000D03*
X141170000Y-101880000D03*
D28*
X123295000Y-92460000D03*
X121570000Y-92460000D03*
D21*
X166190000Y-66995000D03*
X166190000Y-68820000D03*
D47*
X130510000Y-114890000D03*
X130510000Y-113940000D03*
X130510000Y-112990000D03*
X128235000Y-112990000D03*
X128235000Y-113940000D03*
X128235000Y-114890000D03*
D44*
X132065000Y-66517500D03*
X130315000Y-66517500D03*
D48*
X169967500Y-105995000D03*
X167687500Y-105995000D03*
D49*
X167687500Y-112295000D03*
D48*
X165407500Y-105995000D03*
D45*
X159350000Y-112550000D03*
D46*
X159350000Y-115050000D03*
D44*
X132065000Y-60937500D03*
X130315000Y-60937500D03*
D26*
X118800000Y-80657500D03*
X118800000Y-82382500D03*
D22*
X125520000Y-90180000D03*
X127345000Y-90180000D03*
D25*
X149680000Y-78110000D03*
X149680000Y-76385000D03*
D45*
X183000000Y-103460000D03*
D46*
X183000000Y-105960000D03*
D23*
X184120000Y-56957500D03*
D24*
X184120000Y-54417500D03*
X184120000Y-51877500D03*
D22*
X157357500Y-83345000D03*
X159182500Y-83345000D03*
X157350000Y-85535000D03*
X159175000Y-85535000D03*
D27*
X173620000Y-62650000D03*
X177820000Y-62650000D03*
D42*
X124860000Y-83142500D03*
X124860000Y-84542500D03*
D26*
X116990000Y-71235000D03*
X116990000Y-72960000D03*
D23*
X181110000Y-113820000D03*
D24*
X183650000Y-113820000D03*
D50*
X146825000Y-107655000D03*
X143700000Y-107655000D03*
D22*
X120877500Y-86750000D03*
X122702500Y-86750000D03*
X125857500Y-110930000D03*
X127682500Y-110930000D03*
D16*
X122400000Y-82882500D03*
X122400000Y-81057500D03*
D22*
X124877500Y-76139250D03*
X126702500Y-76139250D03*
D26*
X169810000Y-61707500D03*
X169810000Y-63432500D03*
D28*
X125092500Y-107390000D03*
X123367500Y-107390000D03*
D33*
X131817500Y-92460000D03*
X129992500Y-92460000D03*
D21*
X166190000Y-56117500D03*
X166190000Y-57942500D03*
X119800000Y-71225000D03*
X119800000Y-73050000D03*
D22*
X125000000Y-69257500D03*
X126825000Y-69257500D03*
D51*
X119895000Y-129630000D03*
X175510000Y-129630000D03*
D52*
X111400000Y-129630000D03*
X184300000Y-129630000D03*
D53*
X144990000Y-81385000D03*
X144990000Y-82035000D03*
X144990000Y-82685000D03*
X144990000Y-83335000D03*
X144990000Y-83985000D03*
X144990000Y-84635000D03*
X144990000Y-85285000D03*
X144990000Y-85935000D03*
X144990000Y-86585000D03*
X144990000Y-87235000D03*
X144990000Y-87885000D03*
X144990000Y-88535000D03*
X152190000Y-88535000D03*
X152190000Y-87885000D03*
X152190000Y-87235000D03*
X152190000Y-86585000D03*
X152190000Y-85935000D03*
X152190000Y-85285000D03*
X152190000Y-84635000D03*
X152190000Y-83985000D03*
X152190000Y-83335000D03*
X152190000Y-82685000D03*
X152190000Y-82035000D03*
X152190000Y-81385000D03*
D54*
X129370000Y-83270000D03*
X129370000Y-83770000D03*
X129370000Y-84270000D03*
X129370000Y-84770000D03*
X129370000Y-85270000D03*
X129370000Y-85770000D03*
X129370000Y-86270000D03*
D55*
X130320000Y-87220000D03*
X130820000Y-87220000D03*
X131320000Y-87220000D03*
X131820000Y-87220000D03*
X132320000Y-87220000D03*
X132820000Y-87220000D03*
X133320000Y-87220000D03*
D54*
X134270000Y-86270000D03*
X134270000Y-85770000D03*
X134270000Y-85270000D03*
X134270000Y-84770000D03*
X134270000Y-84270000D03*
X134270000Y-83770000D03*
X134270000Y-83270000D03*
D55*
X133320000Y-82320000D03*
X132820000Y-82320000D03*
X132320000Y-82320000D03*
X131820000Y-82320000D03*
X131320000Y-82320000D03*
X130820000Y-82320000D03*
X130320000Y-82320000D03*
D56*
X131820000Y-84770000D03*
D22*
X157372500Y-78985000D03*
X159197500Y-78985000D03*
D44*
X132065000Y-72047500D03*
X130315000Y-72047500D03*
D26*
X169810000Y-72237500D03*
X169810000Y-73962500D03*
D22*
X125000000Y-63497500D03*
X126825000Y-63497500D03*
D26*
X169810000Y-50855000D03*
X169810000Y-52580000D03*
D22*
X125000000Y-72057500D03*
X126825000Y-72057500D03*
D41*
X165277500Y-99042500D03*
X165277500Y-102167500D03*
D57*
X123440000Y-54620000D03*
D58*
X174987500Y-102910000D03*
X178112500Y-102910000D03*
D23*
X184100000Y-76260000D03*
D24*
X184100000Y-78800000D03*
X184100000Y-81340000D03*
D59*
X144475000Y-113720000D03*
X139715000Y-113720000D03*
D22*
X125000000Y-66487500D03*
X126825000Y-66487500D03*
D58*
X175009875Y-99560000D03*
X178134875Y-99560000D03*
D15*
X131480000Y-76559250D03*
X130530000Y-78759250D03*
X129580000Y-76559250D03*
D40*
X112907500Y-101705000D03*
X112907500Y-96625000D03*
D27*
X173620000Y-67987500D03*
X177820000Y-67987500D03*
D16*
X136152500Y-113765000D03*
X136152500Y-111940000D03*
D45*
X151910000Y-112550000D03*
D46*
X151910000Y-115050000D03*
%LPD*%
M02*
