%TF.GenerationSoftware,KiCad,Pcbnew,7.0.8*%
%TF.CreationDate,2023-11-10T10:02:43+08:00*%
%TF.ProjectId,ESPCARproject,45535043-4152-4707-926f-6a6563742e6b,rev?*%
%TF.SameCoordinates,Original*%
%TF.FileFunction,Drillmap*%
%TF.FilePolarity,Positive*%
%FSLAX45Y45*%
G04 Gerber Fmt 4.5, Leading zero omitted, Abs format (unit mm)*
G04 Created by KiCad (PCBNEW 7.0.8) date 2023-11-10 10:02:43*
%MOMM*%
%LPD*%
G01*
G04 APERTURE LIST*
%ADD10C,0.100000*%
%ADD11C,0.200000*%
%ADD12C,0.020000*%
%ADD13C,0.040000*%
%ADD14C,0.050000*%
%ADD15C,0.065000*%
%ADD16C,0.070000*%
%ADD17C,0.080000*%
%ADD18C,0.110000*%
%ADD19C,0.138000*%
%ADD20C,0.400000*%
G04 APERTURE END LIST*
D10*
X10852000Y-4837750D02*
X18649000Y-4837750D01*
X18649000Y-14034750D01*
X10852000Y-14034750D01*
X10852000Y-4837750D01*
D11*
D12*
X14535000Y-5618000D02*
X14555000Y-5638000D01*
X14555000Y-5618000D02*
X14535000Y-5638000D01*
X14535000Y-5770500D02*
X14555000Y-5790500D01*
X14555000Y-5770500D02*
X14535000Y-5790500D01*
X14611250Y-5541750D02*
X14631250Y-5561750D01*
X14631250Y-5541750D02*
X14611250Y-5561750D01*
X14611250Y-5694250D02*
X14631250Y-5714250D01*
X14631250Y-5694250D02*
X14611250Y-5714250D01*
X14611250Y-5846750D02*
X14631250Y-5866750D01*
X14631250Y-5846750D02*
X14611250Y-5866750D01*
X14687500Y-5618000D02*
X14707500Y-5638000D01*
X14707500Y-5618000D02*
X14687500Y-5638000D01*
X14687500Y-5770500D02*
X14707500Y-5790500D01*
X14707500Y-5770500D02*
X14687500Y-5790500D01*
X14763750Y-5541750D02*
X14783750Y-5561750D01*
X14783750Y-5541750D02*
X14763750Y-5561750D01*
X14763750Y-5694250D02*
X14783750Y-5714250D01*
X14783750Y-5694250D02*
X14763750Y-5714250D01*
X14763750Y-5846750D02*
X14783750Y-5866750D01*
X14783750Y-5846750D02*
X14763750Y-5866750D01*
X14840000Y-5618000D02*
X14860000Y-5638000D01*
X14860000Y-5618000D02*
X14840000Y-5638000D01*
X14840000Y-5770500D02*
X14860000Y-5790500D01*
X14860000Y-5770500D02*
X14840000Y-5790500D01*
D13*
X11402000Y-8423000D02*
G75*
G03*
X11402000Y-8423000I-20000J0D01*
G01*
X11404000Y-8633000D02*
G75*
G03*
X11404000Y-8633000I-20000J0D01*
G01*
X12043000Y-11164000D02*
G75*
G03*
X12043000Y-11164000I-20000J0D01*
G01*
X12157000Y-7302000D02*
G75*
G03*
X12157000Y-7302000I-20000J0D01*
G01*
X12184000Y-6440000D02*
G75*
G03*
X12184000Y-6440000I-20000J0D01*
G01*
X12708000Y-8130000D02*
G75*
G03*
X12708000Y-8130000I-20000J0D01*
G01*
X13015000Y-11197000D02*
G75*
G03*
X13015000Y-11197000I-20000J0D01*
G01*
X13303000Y-7654000D02*
G75*
G03*
X13303000Y-7654000I-20000J0D01*
G01*
X13412000Y-6364000D02*
G75*
G03*
X13412000Y-6364000I-20000J0D01*
G01*
X13435000Y-8082000D02*
G75*
G03*
X13435000Y-8082000I-20000J0D01*
G01*
X13583000Y-6004000D02*
G75*
G03*
X13583000Y-6004000I-20000J0D01*
G01*
X13597000Y-6937750D02*
G75*
G03*
X13597000Y-6937750I-20000J0D01*
G01*
X13698000Y-6366000D02*
G75*
G03*
X13698000Y-6366000I-20000J0D01*
G01*
X13718000Y-5601000D02*
G75*
G03*
X13718000Y-5601000I-20000J0D01*
G01*
X13720000Y-5730000D02*
G75*
G03*
X13720000Y-5730000I-20000J0D01*
G01*
X13738000Y-5282000D02*
G75*
G03*
X13738000Y-5282000I-20000J0D01*
G01*
X13751000Y-6112000D02*
G75*
G03*
X13751000Y-6112000I-20000J0D01*
G01*
X14053000Y-6240000D02*
G75*
G03*
X14053000Y-6240000I-20000J0D01*
G01*
X14347000Y-7179000D02*
G75*
G03*
X14347000Y-7179000I-20000J0D01*
G01*
X14366000Y-7378000D02*
G75*
G03*
X14366000Y-7378000I-20000J0D01*
G01*
X14429000Y-7105000D02*
G75*
G03*
X14429000Y-7105000I-20000J0D01*
G01*
X14489000Y-7688000D02*
G75*
G03*
X14489000Y-7688000I-20000J0D01*
G01*
X14499000Y-7508000D02*
G75*
G03*
X14499000Y-7508000I-20000J0D01*
G01*
X14567000Y-6988000D02*
G75*
G03*
X14567000Y-6988000I-20000J0D01*
G01*
X14697000Y-6924000D02*
G75*
G03*
X14697000Y-6924000I-20000J0D01*
G01*
X15058000Y-8563000D02*
G75*
G03*
X15058000Y-8563000I-20000J0D01*
G01*
X15069000Y-8152000D02*
G75*
G03*
X15069000Y-8152000I-20000J0D01*
G01*
X15208000Y-5773000D02*
G75*
G03*
X15208000Y-5773000I-20000J0D01*
G01*
X15388000Y-5484000D02*
G75*
G03*
X15388000Y-5484000I-20000J0D01*
G01*
X15400000Y-6398000D02*
G75*
G03*
X15400000Y-6398000I-20000J0D01*
G01*
X15462000Y-6192000D02*
G75*
G03*
X15462000Y-6192000I-20000J0D01*
G01*
X15518741Y-7073000D02*
G75*
G03*
X15518741Y-7073000I-20000J0D01*
G01*
X15534000Y-8343000D02*
G75*
G03*
X15534000Y-8343000I-20000J0D01*
G01*
X15659000Y-7048000D02*
G75*
G03*
X15659000Y-7048000I-20000J0D01*
G01*
X15835000Y-8260000D02*
G75*
G03*
X15835000Y-8260000I-20000J0D01*
G01*
X16803000Y-5738000D02*
G75*
G03*
X16803000Y-5738000I-20000J0D01*
G01*
X16825000Y-5429000D02*
G75*
G03*
X16825000Y-5429000I-20000J0D01*
G01*
D14*
X12125000Y-7052000D02*
X12125000Y-7102000D01*
X12100000Y-7077000D02*
X12150000Y-7077000D01*
X12128000Y-6240000D02*
X12128000Y-6290000D01*
X12103000Y-6265000D02*
X12153000Y-6265000D01*
X12278000Y-9404000D02*
X12278000Y-9454000D01*
X12253000Y-9429000D02*
X12303000Y-9429000D01*
X12351000Y-6074000D02*
X12351000Y-6124000D01*
X12326000Y-6099000D02*
X12376000Y-6099000D01*
X12352000Y-6618000D02*
X12352000Y-6668000D01*
X12327000Y-6643000D02*
X12377000Y-6643000D01*
X12352000Y-6898000D02*
X12352000Y-6948000D01*
X12327000Y-6923000D02*
X12377000Y-6923000D01*
X12358000Y-7181000D02*
X12358000Y-7231000D01*
X12333000Y-7206000D02*
X12383000Y-7206000D01*
X12359000Y-6310000D02*
X12359000Y-6360000D01*
X12334000Y-6335000D02*
X12384000Y-6335000D01*
X12397000Y-8818000D02*
X12397000Y-8868000D01*
X12372000Y-8843000D02*
X12422000Y-8843000D01*
X12481000Y-8640000D02*
X12481000Y-8690000D01*
X12456000Y-8665000D02*
X12506000Y-8665000D01*
X12625000Y-8329000D02*
X12625000Y-8379000D01*
X12600000Y-8354000D02*
X12650000Y-8354000D01*
X12667000Y-9482000D02*
X12667000Y-9532000D01*
X12642000Y-9507000D02*
X12692000Y-9507000D01*
X12909000Y-9471000D02*
X12909000Y-9521000D01*
X12884000Y-9496000D02*
X12934000Y-9496000D01*
X13181000Y-10250000D02*
X13181000Y-10300000D01*
X13156000Y-10275000D02*
X13206000Y-10275000D01*
X13325000Y-9192000D02*
X13325000Y-9242000D01*
X13300000Y-9217000D02*
X13350000Y-9217000D01*
X13338000Y-9009000D02*
X13338000Y-9059000D01*
X13313000Y-9034000D02*
X13363000Y-9034000D01*
X13493000Y-8966000D02*
X13493000Y-9016000D01*
X13468000Y-8991000D02*
X13518000Y-8991000D01*
X13509000Y-10133000D02*
X13509000Y-10183000D01*
X13484000Y-10158000D02*
X13534000Y-10158000D01*
X13588000Y-8873000D02*
X13588000Y-8923000D01*
X13563000Y-8898000D02*
X13613000Y-8898000D01*
X13639000Y-5073000D02*
X13639000Y-5123000D01*
X13614000Y-5098000D02*
X13664000Y-5098000D01*
X13881000Y-9565000D02*
X13881000Y-9615000D01*
X13856000Y-9590000D02*
X13906000Y-9590000D01*
X14031000Y-9462000D02*
X14031000Y-9512000D01*
X14006000Y-9487000D02*
X14056000Y-9487000D01*
X14145000Y-9359000D02*
X14145000Y-9409000D01*
X14120000Y-9384000D02*
X14170000Y-9384000D01*
X14519000Y-5984000D02*
X14519000Y-6034000D01*
X14494000Y-6009000D02*
X14544000Y-6009000D01*
X14633000Y-6246000D02*
X14633000Y-6296000D01*
X14608000Y-6271000D02*
X14658000Y-6271000D01*
X14876000Y-6218000D02*
X14876000Y-6268000D01*
X14851000Y-6243000D02*
X14901000Y-6243000D01*
X14877000Y-5972000D02*
X14877000Y-6022000D01*
X14852000Y-5997000D02*
X14902000Y-5997000D01*
X14892000Y-8747000D02*
X14892000Y-8797000D01*
X14867000Y-8772000D02*
X14917000Y-8772000D01*
X14972000Y-8288000D02*
X14972000Y-8338000D01*
X14947000Y-8313000D02*
X14997000Y-8313000D01*
X14985000Y-7962000D02*
X14985000Y-8012000D01*
X14960000Y-7987000D02*
X15010000Y-7987000D01*
X15038000Y-8869000D02*
X15038000Y-8919000D01*
X15013000Y-8894000D02*
X15063000Y-8894000D01*
X15110000Y-7135000D02*
X15110000Y-7185000D01*
X15085000Y-7160000D02*
X15135000Y-7160000D01*
X15214000Y-6897000D02*
X15214000Y-6947000D01*
X15189000Y-6922000D02*
X15239000Y-6922000D01*
X15217000Y-7263000D02*
X15217000Y-7313000D01*
X15192000Y-7288000D02*
X15242000Y-7288000D01*
X15282000Y-9313000D02*
X15282000Y-9363000D01*
X15257000Y-9338000D02*
X15307000Y-9338000D01*
X15313000Y-6517000D02*
X15313000Y-6567000D01*
X15288000Y-6542000D02*
X15338000Y-6542000D01*
X15345000Y-6977000D02*
X15345000Y-7027000D01*
X15320000Y-7002000D02*
X15370000Y-7002000D01*
X15351000Y-9635000D02*
X15351000Y-9685000D01*
X15326000Y-9660000D02*
X15376000Y-9660000D01*
X15468000Y-9754000D02*
X15468000Y-9804000D01*
X15443000Y-9779000D02*
X15493000Y-9779000D01*
X15593000Y-8944000D02*
X15593000Y-8994000D01*
X15568000Y-8969000D02*
X15618000Y-8969000D01*
X15610000Y-9316000D02*
X15610000Y-9366000D01*
X15585000Y-9341000D02*
X15635000Y-9341000D01*
X15764000Y-9343000D02*
X15764000Y-9393000D01*
X15739000Y-9368000D02*
X15789000Y-9368000D01*
X15764450Y-9503294D02*
X15764450Y-9553294D01*
X15739450Y-9528294D02*
X15789450Y-9528294D01*
X16052000Y-5714000D02*
X16052000Y-5764000D01*
X16027000Y-5739000D02*
X16077000Y-5739000D01*
X16052000Y-6006000D02*
X16052000Y-6056000D01*
X16027000Y-6031000D02*
X16077000Y-6031000D01*
X16284000Y-6607000D02*
X16284000Y-6657000D01*
X16259000Y-6632000D02*
X16309000Y-6632000D01*
X16369000Y-4988000D02*
X16369000Y-5038000D01*
X16344000Y-5013000D02*
X16394000Y-5013000D01*
X16378000Y-6371000D02*
X16378000Y-6421000D01*
X16353000Y-6396000D02*
X16403000Y-6396000D01*
X16413000Y-5252000D02*
X16413000Y-5302000D01*
X16388000Y-5277000D02*
X16438000Y-5277000D01*
X16806000Y-6870000D02*
X16806000Y-6920000D01*
X16781000Y-6895000D02*
X16831000Y-6895000D01*
X16830000Y-7387000D02*
X16830000Y-7437000D01*
X16805000Y-7412000D02*
X16855000Y-7412000D01*
X16937000Y-7539000D02*
X16937000Y-7589000D01*
X16912000Y-7564000D02*
X16962000Y-7564000D01*
X17116000Y-5775000D02*
X17116000Y-5825000D01*
X17091000Y-5800000D02*
X17141000Y-5800000D01*
X17118000Y-5238000D02*
X17118000Y-5288000D01*
X17093000Y-5263000D02*
X17143000Y-5263000D01*
X17124000Y-6327000D02*
X17124000Y-6377000D01*
X17099000Y-6352000D02*
X17149000Y-6352000D01*
X17140000Y-7801000D02*
X17140000Y-7851000D01*
X17115000Y-7826000D02*
X17165000Y-7826000D01*
X17309000Y-7785000D02*
X17309000Y-7835000D01*
X17284000Y-7810000D02*
X17334000Y-7810000D01*
X17546000Y-7539000D02*
X17546000Y-7589000D01*
X17521000Y-7564000D02*
X17571000Y-7564000D01*
X17648000Y-7222000D02*
X17648000Y-7272000D01*
X17623000Y-7247000D02*
X17673000Y-7247000D01*
X17650000Y-5155000D02*
X17650000Y-5205000D01*
X17625000Y-5180000D02*
X17675000Y-5180000D01*
X17654000Y-6778000D02*
X17654000Y-6828000D01*
X17629000Y-6803000D02*
X17679000Y-6803000D01*
X17663000Y-5680000D02*
X17663000Y-5730000D01*
X17638000Y-5705000D02*
X17688000Y-5705000D01*
X17663000Y-6248000D02*
X17663000Y-6298000D01*
X17638000Y-6273000D02*
X17688000Y-6273000D01*
X17955000Y-7267000D02*
X17955000Y-7317000D01*
X17930000Y-7292000D02*
X17980000Y-7292000D01*
X18003000Y-5639000D02*
X18003000Y-5689000D01*
X17978000Y-5664000D02*
X18028000Y-5664000D01*
X18030000Y-5203000D02*
X18030000Y-5253000D01*
X18005000Y-5228000D02*
X18055000Y-5228000D01*
X18138000Y-6180000D02*
X18138000Y-6230000D01*
X18113000Y-6205000D02*
X18163000Y-6205000D01*
X18164000Y-6657000D02*
X18164000Y-6707000D01*
X18139000Y-6682000D02*
X18189000Y-6682000D01*
X18221000Y-6754000D02*
X18221000Y-6804000D01*
X18196000Y-6779000D02*
X18246000Y-6779000D01*
X18224000Y-7023000D02*
X18224000Y-7073000D01*
X18199000Y-7048000D02*
X18249000Y-7048000D01*
X18236000Y-7140000D02*
X18236000Y-7190000D01*
X18211000Y-7165000D02*
X18261000Y-7165000D01*
D15*
X11170981Y-8089981D02*
X11170981Y-8044019D01*
X11125019Y-8044019D01*
X11125019Y-8089981D01*
X11170981Y-8089981D01*
D11*
X11185500Y-8034500D02*
X11110500Y-8034500D01*
X11110500Y-8034500D02*
G75*
G03*
X11110500Y-8099500I0J-32500D01*
G01*
X11110500Y-8099500D02*
X11185500Y-8099500D01*
X11185500Y-8099500D02*
G75*
G03*
X11185500Y-8034500I0J32500D01*
G01*
D15*
X11170981Y-8954981D02*
X11170981Y-8909019D01*
X11125019Y-8909019D01*
X11125019Y-8954981D01*
X11170981Y-8954981D01*
D11*
X11185500Y-8899500D02*
X11110500Y-8899500D01*
X11110500Y-8899500D02*
G75*
G03*
X11110500Y-8964500I0J-32500D01*
G01*
X11110500Y-8964500D02*
X11185500Y-8964500D01*
X11185500Y-8964500D02*
G75*
G03*
X11185500Y-8899500I0J32500D01*
G01*
D15*
X11588981Y-8089981D02*
X11588981Y-8044019D01*
X11543019Y-8044019D01*
X11543019Y-8089981D01*
X11588981Y-8089981D01*
D11*
X11619516Y-8034500D02*
X11512484Y-8034500D01*
X11512484Y-8034500D02*
G75*
G03*
X11512484Y-8099500I0J-32500D01*
G01*
X11512484Y-8099500D02*
X11619516Y-8099500D01*
X11619516Y-8099500D02*
G75*
G03*
X11619516Y-8034500I0J32500D01*
G01*
D15*
X11588981Y-8954981D02*
X11588981Y-8909019D01*
X11543019Y-8909019D01*
X11543019Y-8954981D01*
X11588981Y-8954981D01*
D11*
X11603500Y-8899500D02*
X11528500Y-8899500D01*
X11528500Y-8899500D02*
G75*
G03*
X11528500Y-8964500I0J-32500D01*
G01*
X11528500Y-8964500D02*
X11603500Y-8964500D01*
X11603500Y-8964500D02*
G75*
G03*
X11603500Y-8899500I0J32500D01*
G01*
D16*
X11880000Y-8806000D02*
X11915000Y-8771000D01*
X11880000Y-8736000D01*
X11845000Y-8771000D01*
X11880000Y-8806000D01*
X11998000Y-8919000D02*
X12033000Y-8884000D01*
X11998000Y-8849000D01*
X11963000Y-8884000D01*
X11998000Y-8919000D01*
X12066000Y-8375000D02*
X12101000Y-8340000D01*
X12066000Y-8305000D01*
X12031000Y-8340000D01*
X12066000Y-8375000D01*
X12581000Y-11698000D02*
X12616000Y-11663000D01*
X12581000Y-11628000D01*
X12546000Y-11663000D01*
X12581000Y-11698000D01*
X13535000Y-9952000D02*
X13570000Y-9917000D01*
X13535000Y-9882000D01*
X13500000Y-9917000D01*
X13535000Y-9952000D01*
X13585000Y-8638000D02*
X13620000Y-8603000D01*
X13585000Y-8568000D01*
X13550000Y-8603000D01*
X13585000Y-8638000D01*
X13653000Y-8764000D02*
X13688000Y-8729000D01*
X13653000Y-8694000D01*
X13618000Y-8729000D01*
X13653000Y-8764000D01*
X13802000Y-8248000D02*
X13837000Y-8213000D01*
X13802000Y-8178000D01*
X13767000Y-8213000D01*
X13802000Y-8248000D01*
X13946000Y-8384000D02*
X13981000Y-8349000D01*
X13946000Y-8314000D01*
X13911000Y-8349000D01*
X13946000Y-8384000D01*
X13967000Y-11693000D02*
X14002000Y-11658000D01*
X13967000Y-11623000D01*
X13932000Y-11658000D01*
X13967000Y-11693000D01*
X14370000Y-9405000D02*
X14405000Y-9370000D01*
X14370000Y-9335000D01*
X14335000Y-9370000D01*
X14370000Y-9405000D01*
X14701000Y-8957000D02*
X14736000Y-8922000D01*
X14701000Y-8887000D01*
X14666000Y-8922000D01*
X14701000Y-8957000D01*
X14743000Y-10398000D02*
X14778000Y-10363000D01*
X14743000Y-10328000D01*
X14708000Y-10363000D01*
X14743000Y-10398000D01*
X15645000Y-9957000D02*
X15680000Y-9922000D01*
X15645000Y-9887000D01*
X15610000Y-9922000D01*
X15645000Y-9957000D01*
X15954000Y-9645000D02*
X15989000Y-9610000D01*
X15954000Y-9575000D01*
X15919000Y-9610000D01*
X15954000Y-9645000D01*
X16861750Y-10421250D02*
X16896750Y-10386250D01*
X16861750Y-10351250D01*
X16826750Y-10386250D01*
X16861750Y-10421250D01*
X17041000Y-10275000D02*
X17076000Y-10240000D01*
X17041000Y-10205000D01*
X17006000Y-10240000D01*
X17041000Y-10275000D01*
X17810000Y-10164000D02*
X17845000Y-10129000D01*
X17810000Y-10094000D01*
X17775000Y-10129000D01*
X17810000Y-10164000D01*
X17819000Y-9797000D02*
X17854000Y-9762000D01*
X17819000Y-9727000D01*
X17784000Y-9762000D01*
X17819000Y-9797000D01*
X17955000Y-10380000D02*
X17990000Y-10345000D01*
X17955000Y-10310000D01*
X17920000Y-10345000D01*
X17955000Y-10380000D01*
D17*
X15151000Y-11215000D02*
X15231000Y-11295000D01*
X15231000Y-11215000D02*
X15151000Y-11295000D01*
X15231000Y-11255000D02*
G75*
G03*
X15231000Y-11255000I-40000J0D01*
G01*
X15151000Y-11465000D02*
X15231000Y-11545000D01*
X15231000Y-11465000D02*
X15151000Y-11545000D01*
X15231000Y-11505000D02*
G75*
G03*
X15231000Y-11505000I-40000J0D01*
G01*
X15895000Y-11215000D02*
X15975000Y-11295000D01*
X15975000Y-11215000D02*
X15895000Y-11295000D01*
X15975000Y-11255000D02*
G75*
G03*
X15975000Y-11255000I-40000J0D01*
G01*
X15895000Y-11465000D02*
X15975000Y-11545000D01*
X15975000Y-11465000D02*
X15895000Y-11545000D01*
X15975000Y-11505000D02*
G75*
G03*
X15975000Y-11505000I-40000J0D01*
G01*
X17533000Y-10697000D02*
X17613000Y-10777000D01*
X17613000Y-10697000D02*
X17533000Y-10777000D01*
X17613000Y-10737000D02*
G75*
G03*
X17613000Y-10737000I-40000J0D01*
G01*
X17533000Y-10947000D02*
X17613000Y-11027000D01*
X17613000Y-10947000D02*
X17533000Y-11027000D01*
X17613000Y-10987000D02*
G75*
G03*
X17613000Y-10987000I-40000J0D01*
G01*
X18260000Y-10306000D02*
X18340000Y-10386000D01*
X18340000Y-10306000D02*
X18260000Y-10386000D01*
X18340000Y-10346000D02*
G75*
G03*
X18340000Y-10346000I-40000J0D01*
G01*
X18260000Y-10556000D02*
X18340000Y-10636000D01*
X18340000Y-10556000D02*
X18260000Y-10636000D01*
X18340000Y-10596000D02*
G75*
G03*
X18340000Y-10596000I-40000J0D01*
G01*
D10*
X17562000Y-8029000D02*
X17662000Y-8129000D01*
X17662000Y-8029000D02*
X17562000Y-8129000D01*
X17612000Y-8029000D02*
X17612000Y-8129000D01*
X17562000Y-8079000D02*
X17662000Y-8079000D01*
X17562000Y-8283000D02*
X17662000Y-8383000D01*
X17662000Y-8283000D02*
X17562000Y-8383000D01*
X17612000Y-8283000D02*
X17612000Y-8383000D01*
X17562000Y-8333000D02*
X17662000Y-8333000D01*
X17562000Y-8537000D02*
X17662000Y-8637000D01*
X17662000Y-8537000D02*
X17562000Y-8637000D01*
X17612000Y-8537000D02*
X17612000Y-8637000D01*
X17562000Y-8587000D02*
X17662000Y-8587000D01*
X17562000Y-8791000D02*
X17662000Y-8891000D01*
X17662000Y-8791000D02*
X17562000Y-8891000D01*
X17612000Y-8791000D02*
X17612000Y-8891000D01*
X17562000Y-8841000D02*
X17662000Y-8841000D01*
X17562000Y-9045000D02*
X17662000Y-9145000D01*
X17662000Y-9045000D02*
X17562000Y-9145000D01*
X17612000Y-9045000D02*
X17612000Y-9145000D01*
X17562000Y-9095000D02*
X17662000Y-9095000D01*
X17562000Y-9299000D02*
X17662000Y-9399000D01*
X17662000Y-9299000D02*
X17562000Y-9399000D01*
X17612000Y-9299000D02*
X17612000Y-9399000D01*
X17562000Y-9349000D02*
X17662000Y-9349000D01*
X18061000Y-11332000D02*
X18161000Y-11432000D01*
X18161000Y-11332000D02*
X18061000Y-11432000D01*
X18111000Y-11332000D02*
X18111000Y-11432000D01*
X18061000Y-11382000D02*
X18161000Y-11382000D01*
X18315000Y-11332000D02*
X18415000Y-11432000D01*
X18415000Y-11332000D02*
X18315000Y-11432000D01*
X18365000Y-11332000D02*
X18365000Y-11432000D01*
X18315000Y-11382000D02*
X18415000Y-11382000D01*
X18348000Y-8548000D02*
X18448000Y-8648000D01*
X18448000Y-8548000D02*
X18348000Y-8648000D01*
X18398000Y-8548000D02*
X18398000Y-8648000D01*
X18348000Y-8598000D02*
X18448000Y-8598000D01*
X18348000Y-8802000D02*
X18448000Y-8902000D01*
X18448000Y-8802000D02*
X18348000Y-8902000D01*
X18398000Y-8802000D02*
X18398000Y-8902000D01*
X18348000Y-8852000D02*
X18448000Y-8852000D01*
X18348000Y-9056000D02*
X18448000Y-9156000D01*
X18448000Y-9056000D02*
X18348000Y-9156000D01*
X18398000Y-9056000D02*
X18398000Y-9156000D01*
X18348000Y-9106000D02*
X18448000Y-9106000D01*
X18348000Y-9310000D02*
X18448000Y-9410000D01*
X18448000Y-9310000D02*
X18348000Y-9410000D01*
X18398000Y-9310000D02*
X18398000Y-9410000D01*
X18348000Y-9360000D02*
X18448000Y-9360000D01*
X18360000Y-7576000D02*
X18460000Y-7676000D01*
X18460000Y-7576000D02*
X18360000Y-7676000D01*
X18410000Y-7576000D02*
X18410000Y-7676000D01*
X18360000Y-7626000D02*
X18460000Y-7626000D01*
X18360000Y-7830000D02*
X18460000Y-7930000D01*
X18460000Y-7830000D02*
X18360000Y-7930000D01*
X18410000Y-7830000D02*
X18410000Y-7930000D01*
X18360000Y-7880000D02*
X18460000Y-7880000D01*
X18360000Y-8084000D02*
X18460000Y-8184000D01*
X18460000Y-8084000D02*
X18360000Y-8184000D01*
X18410000Y-8084000D02*
X18410000Y-8184000D01*
X18360000Y-8134000D02*
X18460000Y-8134000D01*
X18362000Y-5137750D02*
X18462000Y-5237750D01*
X18462000Y-5137750D02*
X18362000Y-5237750D01*
X18412000Y-5137750D02*
X18412000Y-5237750D01*
X18362000Y-5187750D02*
X18462000Y-5187750D01*
X18362000Y-5391750D02*
X18462000Y-5491750D01*
X18462000Y-5391750D02*
X18362000Y-5491750D01*
X18412000Y-5391750D02*
X18412000Y-5491750D01*
X18362000Y-5441750D02*
X18462000Y-5441750D01*
X18362000Y-5645750D02*
X18462000Y-5745750D01*
X18462000Y-5645750D02*
X18362000Y-5745750D01*
X18412000Y-5645750D02*
X18412000Y-5745750D01*
X18362000Y-5695750D02*
X18462000Y-5695750D01*
X18369000Y-6109500D02*
X18469000Y-6209500D01*
X18469000Y-6109500D02*
X18369000Y-6209500D01*
X18419000Y-6109500D02*
X18419000Y-6209500D01*
X18369000Y-6159500D02*
X18469000Y-6159500D01*
X18369000Y-6363500D02*
X18469000Y-6463500D01*
X18469000Y-6363500D02*
X18369000Y-6463500D01*
X18419000Y-6363500D02*
X18419000Y-6463500D01*
X18369000Y-6413500D02*
X18469000Y-6413500D01*
X18369000Y-6617500D02*
X18469000Y-6717500D01*
X18469000Y-6617500D02*
X18369000Y-6717500D01*
X18419000Y-6617500D02*
X18419000Y-6717500D01*
X18369000Y-6667500D02*
X18469000Y-6667500D01*
X18369000Y-6871500D02*
X18469000Y-6971500D01*
X18469000Y-6871500D02*
X18369000Y-6971500D01*
X18419000Y-6871500D02*
X18419000Y-6971500D01*
X18369000Y-6921500D02*
X18469000Y-6921500D01*
X18369000Y-7125500D02*
X18469000Y-7225500D01*
X18469000Y-7125500D02*
X18369000Y-7225500D01*
X18419000Y-7125500D02*
X18419000Y-7225500D01*
X18369000Y-7175500D02*
X18469000Y-7175500D01*
D18*
X11235750Y-9607500D02*
X11345750Y-9717500D01*
X11345750Y-9607500D02*
X11235750Y-9717500D01*
X11329641Y-9701391D02*
X11329641Y-9623609D01*
X11251859Y-9623609D01*
X11251859Y-9701391D01*
X11329641Y-9701391D01*
X11235750Y-10115500D02*
X11345750Y-10225500D01*
X11345750Y-10115500D02*
X11235750Y-10225500D01*
X11329641Y-10209391D02*
X11329641Y-10131609D01*
X11251859Y-10131609D01*
X11251859Y-10209391D01*
X11329641Y-10209391D01*
X11245750Y-10866500D02*
X11355750Y-10976500D01*
X11355750Y-10866500D02*
X11245750Y-10976500D01*
X11339641Y-10960391D02*
X11339641Y-10882609D01*
X11261859Y-10882609D01*
X11261859Y-10960391D01*
X11339641Y-10960391D01*
X11245750Y-11374500D02*
X11355750Y-11484500D01*
X11355750Y-11374500D02*
X11245750Y-11484500D01*
X11339641Y-11468391D02*
X11339641Y-11390609D01*
X11261859Y-11390609D01*
X11261859Y-11468391D01*
X11339641Y-11468391D01*
D19*
X11071000Y-12894000D02*
X11209000Y-13032000D01*
X11209000Y-12894000D02*
X11071000Y-13032000D01*
X11140000Y-13032000D02*
X11209000Y-12963000D01*
X11140000Y-12894000D01*
X11071000Y-12963000D01*
X11140000Y-13032000D01*
D11*
X11071000Y-12912000D02*
X11071000Y-13014000D01*
X11071000Y-13014000D02*
G75*
G03*
X11209000Y-13014000I69000J0D01*
G01*
X11209000Y-13014000D02*
X11209000Y-12912000D01*
X11209000Y-12912000D02*
G75*
G03*
X11071000Y-12912000I-69000J0D01*
G01*
D19*
X18361000Y-12894000D02*
X18499000Y-13032000D01*
X18499000Y-12894000D02*
X18361000Y-13032000D01*
X18430000Y-13032000D02*
X18499000Y-12963000D01*
X18430000Y-12894000D01*
X18361000Y-12963000D01*
X18430000Y-13032000D01*
D11*
X18361000Y-12912000D02*
X18361000Y-13014000D01*
X18361000Y-13014000D02*
G75*
G03*
X18499000Y-13014000I69000J0D01*
G01*
X18499000Y-13014000D02*
X18499000Y-12912000D01*
X18499000Y-12912000D02*
G75*
G03*
X18361000Y-12912000I-69000J0D01*
G01*
D20*
X11358000Y-5141000D02*
X11358000Y-5541000D01*
X11158000Y-5341000D02*
X11558000Y-5341000D01*
X11558000Y-5341000D02*
G75*
G03*
X11558000Y-5341000I-200000J0D01*
G01*
X14854000Y-9421000D02*
X14854000Y-9821000D01*
X14654000Y-9621000D02*
X15054000Y-9621000D01*
X15054000Y-9621000D02*
G75*
G03*
X15054000Y-9621000I-200000J0D01*
G01*
D11*
X11107777Y-14351234D02*
X11107777Y-14151234D01*
X11107777Y-14151234D02*
X11155396Y-14151234D01*
X11155396Y-14151234D02*
X11183967Y-14160758D01*
X11183967Y-14160758D02*
X11203015Y-14179805D01*
X11203015Y-14179805D02*
X11212539Y-14198853D01*
X11212539Y-14198853D02*
X11222062Y-14236948D01*
X11222062Y-14236948D02*
X11222062Y-14265519D01*
X11222062Y-14265519D02*
X11212539Y-14303615D01*
X11212539Y-14303615D02*
X11203015Y-14322662D01*
X11203015Y-14322662D02*
X11183967Y-14341710D01*
X11183967Y-14341710D02*
X11155396Y-14351234D01*
X11155396Y-14351234D02*
X11107777Y-14351234D01*
X11307777Y-14351234D02*
X11307777Y-14217900D01*
X11307777Y-14255996D02*
X11317301Y-14236948D01*
X11317301Y-14236948D02*
X11326824Y-14227424D01*
X11326824Y-14227424D02*
X11345872Y-14217900D01*
X11345872Y-14217900D02*
X11364920Y-14217900D01*
X11431586Y-14351234D02*
X11431586Y-14217900D01*
X11431586Y-14151234D02*
X11422062Y-14160758D01*
X11422062Y-14160758D02*
X11431586Y-14170281D01*
X11431586Y-14170281D02*
X11441110Y-14160758D01*
X11441110Y-14160758D02*
X11431586Y-14151234D01*
X11431586Y-14151234D02*
X11431586Y-14170281D01*
X11555396Y-14351234D02*
X11536348Y-14341710D01*
X11536348Y-14341710D02*
X11526824Y-14322662D01*
X11526824Y-14322662D02*
X11526824Y-14151234D01*
X11660158Y-14351234D02*
X11641110Y-14341710D01*
X11641110Y-14341710D02*
X11631586Y-14322662D01*
X11631586Y-14322662D02*
X11631586Y-14151234D01*
X11888729Y-14351234D02*
X11888729Y-14151234D01*
X11888729Y-14151234D02*
X11955396Y-14294091D01*
X11955396Y-14294091D02*
X12022062Y-14151234D01*
X12022062Y-14151234D02*
X12022062Y-14351234D01*
X12203015Y-14351234D02*
X12203015Y-14246472D01*
X12203015Y-14246472D02*
X12193491Y-14227424D01*
X12193491Y-14227424D02*
X12174443Y-14217900D01*
X12174443Y-14217900D02*
X12136348Y-14217900D01*
X12136348Y-14217900D02*
X12117301Y-14227424D01*
X12203015Y-14341710D02*
X12183967Y-14351234D01*
X12183967Y-14351234D02*
X12136348Y-14351234D01*
X12136348Y-14351234D02*
X12117301Y-14341710D01*
X12117301Y-14341710D02*
X12107777Y-14322662D01*
X12107777Y-14322662D02*
X12107777Y-14303615D01*
X12107777Y-14303615D02*
X12117301Y-14284567D01*
X12117301Y-14284567D02*
X12136348Y-14275043D01*
X12136348Y-14275043D02*
X12183967Y-14275043D01*
X12183967Y-14275043D02*
X12203015Y-14265519D01*
X12298253Y-14217900D02*
X12298253Y-14417900D01*
X12298253Y-14227424D02*
X12317301Y-14217900D01*
X12317301Y-14217900D02*
X12355396Y-14217900D01*
X12355396Y-14217900D02*
X12374443Y-14227424D01*
X12374443Y-14227424D02*
X12383967Y-14236948D01*
X12383967Y-14236948D02*
X12393491Y-14255996D01*
X12393491Y-14255996D02*
X12393491Y-14313138D01*
X12393491Y-14313138D02*
X12383967Y-14332186D01*
X12383967Y-14332186D02*
X12374443Y-14341710D01*
X12374443Y-14341710D02*
X12355396Y-14351234D01*
X12355396Y-14351234D02*
X12317301Y-14351234D01*
X12317301Y-14351234D02*
X12298253Y-14341710D01*
X12479205Y-14332186D02*
X12488729Y-14341710D01*
X12488729Y-14341710D02*
X12479205Y-14351234D01*
X12479205Y-14351234D02*
X12469682Y-14341710D01*
X12469682Y-14341710D02*
X12479205Y-14332186D01*
X12479205Y-14332186D02*
X12479205Y-14351234D01*
X12479205Y-14227424D02*
X12488729Y-14236948D01*
X12488729Y-14236948D02*
X12479205Y-14246472D01*
X12479205Y-14246472D02*
X12469682Y-14236948D01*
X12469682Y-14236948D02*
X12479205Y-14227424D01*
X12479205Y-14227424D02*
X12479205Y-14246472D01*
D12*
X10827000Y-14669750D02*
X10847000Y-14689750D01*
X10847000Y-14669750D02*
X10827000Y-14689750D01*
D11*
X11145872Y-14571234D02*
X11164920Y-14571234D01*
X11164920Y-14571234D02*
X11183967Y-14580758D01*
X11183967Y-14580758D02*
X11193491Y-14590281D01*
X11193491Y-14590281D02*
X11203015Y-14609329D01*
X11203015Y-14609329D02*
X11212539Y-14647424D01*
X11212539Y-14647424D02*
X11212539Y-14695043D01*
X11212539Y-14695043D02*
X11203015Y-14733138D01*
X11203015Y-14733138D02*
X11193491Y-14752186D01*
X11193491Y-14752186D02*
X11183967Y-14761710D01*
X11183967Y-14761710D02*
X11164920Y-14771234D01*
X11164920Y-14771234D02*
X11145872Y-14771234D01*
X11145872Y-14771234D02*
X11126824Y-14761710D01*
X11126824Y-14761710D02*
X11117301Y-14752186D01*
X11117301Y-14752186D02*
X11107777Y-14733138D01*
X11107777Y-14733138D02*
X11098253Y-14695043D01*
X11098253Y-14695043D02*
X11098253Y-14647424D01*
X11098253Y-14647424D02*
X11107777Y-14609329D01*
X11107777Y-14609329D02*
X11117301Y-14590281D01*
X11117301Y-14590281D02*
X11126824Y-14580758D01*
X11126824Y-14580758D02*
X11145872Y-14571234D01*
X11298253Y-14752186D02*
X11307777Y-14761710D01*
X11307777Y-14761710D02*
X11298253Y-14771234D01*
X11298253Y-14771234D02*
X11288729Y-14761710D01*
X11288729Y-14761710D02*
X11298253Y-14752186D01*
X11298253Y-14752186D02*
X11298253Y-14771234D01*
X11383967Y-14590281D02*
X11393491Y-14580758D01*
X11393491Y-14580758D02*
X11412539Y-14571234D01*
X11412539Y-14571234D02*
X11460158Y-14571234D01*
X11460158Y-14571234D02*
X11479205Y-14580758D01*
X11479205Y-14580758D02*
X11488729Y-14590281D01*
X11488729Y-14590281D02*
X11498253Y-14609329D01*
X11498253Y-14609329D02*
X11498253Y-14628377D01*
X11498253Y-14628377D02*
X11488729Y-14656948D01*
X11488729Y-14656948D02*
X11374443Y-14771234D01*
X11374443Y-14771234D02*
X11498253Y-14771234D01*
X11622062Y-14571234D02*
X11641110Y-14571234D01*
X11641110Y-14571234D02*
X11660158Y-14580758D01*
X11660158Y-14580758D02*
X11669682Y-14590281D01*
X11669682Y-14590281D02*
X11679205Y-14609329D01*
X11679205Y-14609329D02*
X11688729Y-14647424D01*
X11688729Y-14647424D02*
X11688729Y-14695043D01*
X11688729Y-14695043D02*
X11679205Y-14733138D01*
X11679205Y-14733138D02*
X11669682Y-14752186D01*
X11669682Y-14752186D02*
X11660158Y-14761710D01*
X11660158Y-14761710D02*
X11641110Y-14771234D01*
X11641110Y-14771234D02*
X11622062Y-14771234D01*
X11622062Y-14771234D02*
X11603015Y-14761710D01*
X11603015Y-14761710D02*
X11593491Y-14752186D01*
X11593491Y-14752186D02*
X11583967Y-14733138D01*
X11583967Y-14733138D02*
X11574443Y-14695043D01*
X11574443Y-14695043D02*
X11574443Y-14647424D01*
X11574443Y-14647424D02*
X11583967Y-14609329D01*
X11583967Y-14609329D02*
X11593491Y-14590281D01*
X11593491Y-14590281D02*
X11603015Y-14580758D01*
X11603015Y-14580758D02*
X11622062Y-14571234D01*
X11812539Y-14571234D02*
X11831586Y-14571234D01*
X11831586Y-14571234D02*
X11850634Y-14580758D01*
X11850634Y-14580758D02*
X11860158Y-14590281D01*
X11860158Y-14590281D02*
X11869682Y-14609329D01*
X11869682Y-14609329D02*
X11879205Y-14647424D01*
X11879205Y-14647424D02*
X11879205Y-14695043D01*
X11879205Y-14695043D02*
X11869682Y-14733138D01*
X11869682Y-14733138D02*
X11860158Y-14752186D01*
X11860158Y-14752186D02*
X11850634Y-14761710D01*
X11850634Y-14761710D02*
X11831586Y-14771234D01*
X11831586Y-14771234D02*
X11812539Y-14771234D01*
X11812539Y-14771234D02*
X11793491Y-14761710D01*
X11793491Y-14761710D02*
X11783967Y-14752186D01*
X11783967Y-14752186D02*
X11774443Y-14733138D01*
X11774443Y-14733138D02*
X11764920Y-14695043D01*
X11764920Y-14695043D02*
X11764920Y-14647424D01*
X11764920Y-14647424D02*
X11774443Y-14609329D01*
X11774443Y-14609329D02*
X11783967Y-14590281D01*
X11783967Y-14590281D02*
X11793491Y-14580758D01*
X11793491Y-14580758D02*
X11812539Y-14571234D01*
X11964920Y-14771234D02*
X11964920Y-14637900D01*
X11964920Y-14656948D02*
X11974443Y-14647424D01*
X11974443Y-14647424D02*
X11993491Y-14637900D01*
X11993491Y-14637900D02*
X12022063Y-14637900D01*
X12022063Y-14637900D02*
X12041110Y-14647424D01*
X12041110Y-14647424D02*
X12050634Y-14666472D01*
X12050634Y-14666472D02*
X12050634Y-14771234D01*
X12050634Y-14666472D02*
X12060158Y-14647424D01*
X12060158Y-14647424D02*
X12079205Y-14637900D01*
X12079205Y-14637900D02*
X12107777Y-14637900D01*
X12107777Y-14637900D02*
X12126824Y-14647424D01*
X12126824Y-14647424D02*
X12136348Y-14666472D01*
X12136348Y-14666472D02*
X12136348Y-14771234D01*
X12231586Y-14771234D02*
X12231586Y-14637900D01*
X12231586Y-14656948D02*
X12241110Y-14647424D01*
X12241110Y-14647424D02*
X12260158Y-14637900D01*
X12260158Y-14637900D02*
X12288729Y-14637900D01*
X12288729Y-14637900D02*
X12307777Y-14647424D01*
X12307777Y-14647424D02*
X12317301Y-14666472D01*
X12317301Y-14666472D02*
X12317301Y-14771234D01*
X12317301Y-14666472D02*
X12326824Y-14647424D01*
X12326824Y-14647424D02*
X12345872Y-14637900D01*
X12345872Y-14637900D02*
X12374443Y-14637900D01*
X12374443Y-14637900D02*
X12393491Y-14647424D01*
X12393491Y-14647424D02*
X12403015Y-14666472D01*
X12403015Y-14666472D02*
X12403015Y-14771234D01*
X12793491Y-14561710D02*
X12622063Y-14818853D01*
X13050634Y-14571234D02*
X13069682Y-14571234D01*
X13069682Y-14571234D02*
X13088729Y-14580758D01*
X13088729Y-14580758D02*
X13098253Y-14590281D01*
X13098253Y-14590281D02*
X13107777Y-14609329D01*
X13107777Y-14609329D02*
X13117301Y-14647424D01*
X13117301Y-14647424D02*
X13117301Y-14695043D01*
X13117301Y-14695043D02*
X13107777Y-14733138D01*
X13107777Y-14733138D02*
X13098253Y-14752186D01*
X13098253Y-14752186D02*
X13088729Y-14761710D01*
X13088729Y-14761710D02*
X13069682Y-14771234D01*
X13069682Y-14771234D02*
X13050634Y-14771234D01*
X13050634Y-14771234D02*
X13031586Y-14761710D01*
X13031586Y-14761710D02*
X13022063Y-14752186D01*
X13022063Y-14752186D02*
X13012539Y-14733138D01*
X13012539Y-14733138D02*
X13003015Y-14695043D01*
X13003015Y-14695043D02*
X13003015Y-14647424D01*
X13003015Y-14647424D02*
X13012539Y-14609329D01*
X13012539Y-14609329D02*
X13022063Y-14590281D01*
X13022063Y-14590281D02*
X13031586Y-14580758D01*
X13031586Y-14580758D02*
X13050634Y-14571234D01*
X13203015Y-14752186D02*
X13212539Y-14761710D01*
X13212539Y-14761710D02*
X13203015Y-14771234D01*
X13203015Y-14771234D02*
X13193491Y-14761710D01*
X13193491Y-14761710D02*
X13203015Y-14752186D01*
X13203015Y-14752186D02*
X13203015Y-14771234D01*
X13336348Y-14571234D02*
X13355396Y-14571234D01*
X13355396Y-14571234D02*
X13374444Y-14580758D01*
X13374444Y-14580758D02*
X13383967Y-14590281D01*
X13383967Y-14590281D02*
X13393491Y-14609329D01*
X13393491Y-14609329D02*
X13403015Y-14647424D01*
X13403015Y-14647424D02*
X13403015Y-14695043D01*
X13403015Y-14695043D02*
X13393491Y-14733138D01*
X13393491Y-14733138D02*
X13383967Y-14752186D01*
X13383967Y-14752186D02*
X13374444Y-14761710D01*
X13374444Y-14761710D02*
X13355396Y-14771234D01*
X13355396Y-14771234D02*
X13336348Y-14771234D01*
X13336348Y-14771234D02*
X13317301Y-14761710D01*
X13317301Y-14761710D02*
X13307777Y-14752186D01*
X13307777Y-14752186D02*
X13298253Y-14733138D01*
X13298253Y-14733138D02*
X13288729Y-14695043D01*
X13288729Y-14695043D02*
X13288729Y-14647424D01*
X13288729Y-14647424D02*
X13298253Y-14609329D01*
X13298253Y-14609329D02*
X13307777Y-14590281D01*
X13307777Y-14590281D02*
X13317301Y-14580758D01*
X13317301Y-14580758D02*
X13336348Y-14571234D01*
X13526825Y-14571234D02*
X13545872Y-14571234D01*
X13545872Y-14571234D02*
X13564920Y-14580758D01*
X13564920Y-14580758D02*
X13574444Y-14590281D01*
X13574444Y-14590281D02*
X13583967Y-14609329D01*
X13583967Y-14609329D02*
X13593491Y-14647424D01*
X13593491Y-14647424D02*
X13593491Y-14695043D01*
X13593491Y-14695043D02*
X13583967Y-14733138D01*
X13583967Y-14733138D02*
X13574444Y-14752186D01*
X13574444Y-14752186D02*
X13564920Y-14761710D01*
X13564920Y-14761710D02*
X13545872Y-14771234D01*
X13545872Y-14771234D02*
X13526825Y-14771234D01*
X13526825Y-14771234D02*
X13507777Y-14761710D01*
X13507777Y-14761710D02*
X13498253Y-14752186D01*
X13498253Y-14752186D02*
X13488729Y-14733138D01*
X13488729Y-14733138D02*
X13479206Y-14695043D01*
X13479206Y-14695043D02*
X13479206Y-14647424D01*
X13479206Y-14647424D02*
X13488729Y-14609329D01*
X13488729Y-14609329D02*
X13498253Y-14590281D01*
X13498253Y-14590281D02*
X13507777Y-14580758D01*
X13507777Y-14580758D02*
X13526825Y-14571234D01*
X13660158Y-14571234D02*
X13793491Y-14571234D01*
X13793491Y-14571234D02*
X13707777Y-14771234D01*
X13879206Y-14771234D02*
X13917301Y-14771234D01*
X13917301Y-14771234D02*
X13936348Y-14761710D01*
X13936348Y-14761710D02*
X13945872Y-14752186D01*
X13945872Y-14752186D02*
X13964920Y-14723615D01*
X13964920Y-14723615D02*
X13974444Y-14685519D01*
X13974444Y-14685519D02*
X13974444Y-14609329D01*
X13974444Y-14609329D02*
X13964920Y-14590281D01*
X13964920Y-14590281D02*
X13955396Y-14580758D01*
X13955396Y-14580758D02*
X13936348Y-14571234D01*
X13936348Y-14571234D02*
X13898253Y-14571234D01*
X13898253Y-14571234D02*
X13879206Y-14580758D01*
X13879206Y-14580758D02*
X13869682Y-14590281D01*
X13869682Y-14590281D02*
X13860158Y-14609329D01*
X13860158Y-14609329D02*
X13860158Y-14656948D01*
X13860158Y-14656948D02*
X13869682Y-14675996D01*
X13869682Y-14675996D02*
X13879206Y-14685519D01*
X13879206Y-14685519D02*
X13898253Y-14695043D01*
X13898253Y-14695043D02*
X13936348Y-14695043D01*
X13936348Y-14695043D02*
X13955396Y-14685519D01*
X13955396Y-14685519D02*
X13964920Y-14675996D01*
X13964920Y-14675996D02*
X13974444Y-14656948D01*
X14050634Y-14571234D02*
X14050634Y-14609329D01*
X14126825Y-14571234D02*
X14126825Y-14609329D01*
X14422063Y-14847424D02*
X14412539Y-14837900D01*
X14412539Y-14837900D02*
X14393491Y-14809329D01*
X14393491Y-14809329D02*
X14383968Y-14790281D01*
X14383968Y-14790281D02*
X14374444Y-14761710D01*
X14374444Y-14761710D02*
X14364920Y-14714091D01*
X14364920Y-14714091D02*
X14364920Y-14675996D01*
X14364920Y-14675996D02*
X14374444Y-14628377D01*
X14374444Y-14628377D02*
X14383968Y-14599805D01*
X14383968Y-14599805D02*
X14393491Y-14580758D01*
X14393491Y-14580758D02*
X14412539Y-14552186D01*
X14412539Y-14552186D02*
X14422063Y-14542662D01*
X14603015Y-14771234D02*
X14488729Y-14771234D01*
X14545872Y-14771234D02*
X14545872Y-14571234D01*
X14545872Y-14571234D02*
X14526825Y-14599805D01*
X14526825Y-14599805D02*
X14507777Y-14618853D01*
X14507777Y-14618853D02*
X14488729Y-14628377D01*
X14679206Y-14590281D02*
X14688729Y-14580758D01*
X14688729Y-14580758D02*
X14707777Y-14571234D01*
X14707777Y-14571234D02*
X14755396Y-14571234D01*
X14755396Y-14571234D02*
X14774444Y-14580758D01*
X14774444Y-14580758D02*
X14783968Y-14590281D01*
X14783968Y-14590281D02*
X14793491Y-14609329D01*
X14793491Y-14609329D02*
X14793491Y-14628377D01*
X14793491Y-14628377D02*
X14783968Y-14656948D01*
X14783968Y-14656948D02*
X14669682Y-14771234D01*
X14669682Y-14771234D02*
X14793491Y-14771234D01*
X15031587Y-14771234D02*
X15031587Y-14571234D01*
X15117301Y-14771234D02*
X15117301Y-14666472D01*
X15117301Y-14666472D02*
X15107777Y-14647424D01*
X15107777Y-14647424D02*
X15088730Y-14637900D01*
X15088730Y-14637900D02*
X15060158Y-14637900D01*
X15060158Y-14637900D02*
X15041110Y-14647424D01*
X15041110Y-14647424D02*
X15031587Y-14656948D01*
X15241110Y-14771234D02*
X15222063Y-14761710D01*
X15222063Y-14761710D02*
X15212539Y-14752186D01*
X15212539Y-14752186D02*
X15203015Y-14733138D01*
X15203015Y-14733138D02*
X15203015Y-14675996D01*
X15203015Y-14675996D02*
X15212539Y-14656948D01*
X15212539Y-14656948D02*
X15222063Y-14647424D01*
X15222063Y-14647424D02*
X15241110Y-14637900D01*
X15241110Y-14637900D02*
X15269682Y-14637900D01*
X15269682Y-14637900D02*
X15288730Y-14647424D01*
X15288730Y-14647424D02*
X15298253Y-14656948D01*
X15298253Y-14656948D02*
X15307777Y-14675996D01*
X15307777Y-14675996D02*
X15307777Y-14733138D01*
X15307777Y-14733138D02*
X15298253Y-14752186D01*
X15298253Y-14752186D02*
X15288730Y-14761710D01*
X15288730Y-14761710D02*
X15269682Y-14771234D01*
X15269682Y-14771234D02*
X15241110Y-14771234D01*
X15422063Y-14771234D02*
X15403015Y-14761710D01*
X15403015Y-14761710D02*
X15393491Y-14742662D01*
X15393491Y-14742662D02*
X15393491Y-14571234D01*
X15574444Y-14761710D02*
X15555396Y-14771234D01*
X15555396Y-14771234D02*
X15517301Y-14771234D01*
X15517301Y-14771234D02*
X15498253Y-14761710D01*
X15498253Y-14761710D02*
X15488730Y-14742662D01*
X15488730Y-14742662D02*
X15488730Y-14666472D01*
X15488730Y-14666472D02*
X15498253Y-14647424D01*
X15498253Y-14647424D02*
X15517301Y-14637900D01*
X15517301Y-14637900D02*
X15555396Y-14637900D01*
X15555396Y-14637900D02*
X15574444Y-14647424D01*
X15574444Y-14647424D02*
X15583968Y-14666472D01*
X15583968Y-14666472D02*
X15583968Y-14685519D01*
X15583968Y-14685519D02*
X15488730Y-14704567D01*
X15660158Y-14761710D02*
X15679206Y-14771234D01*
X15679206Y-14771234D02*
X15717301Y-14771234D01*
X15717301Y-14771234D02*
X15736349Y-14761710D01*
X15736349Y-14761710D02*
X15745872Y-14742662D01*
X15745872Y-14742662D02*
X15745872Y-14733138D01*
X15745872Y-14733138D02*
X15736349Y-14714091D01*
X15736349Y-14714091D02*
X15717301Y-14704567D01*
X15717301Y-14704567D02*
X15688730Y-14704567D01*
X15688730Y-14704567D02*
X15669682Y-14695043D01*
X15669682Y-14695043D02*
X15660158Y-14675996D01*
X15660158Y-14675996D02*
X15660158Y-14666472D01*
X15660158Y-14666472D02*
X15669682Y-14647424D01*
X15669682Y-14647424D02*
X15688730Y-14637900D01*
X15688730Y-14637900D02*
X15717301Y-14637900D01*
X15717301Y-14637900D02*
X15736349Y-14647424D01*
X15812539Y-14847424D02*
X15822063Y-14837900D01*
X15822063Y-14837900D02*
X15841111Y-14809329D01*
X15841111Y-14809329D02*
X15850634Y-14790281D01*
X15850634Y-14790281D02*
X15860158Y-14761710D01*
X15860158Y-14761710D02*
X15869682Y-14714091D01*
X15869682Y-14714091D02*
X15869682Y-14675996D01*
X15869682Y-14675996D02*
X15860158Y-14628377D01*
X15860158Y-14628377D02*
X15850634Y-14599805D01*
X15850634Y-14599805D02*
X15841111Y-14580758D01*
X15841111Y-14580758D02*
X15822063Y-14552186D01*
X15822063Y-14552186D02*
X15812539Y-14542662D01*
D13*
X10847000Y-14943750D02*
G75*
G03*
X10847000Y-14943750I-20000J0D01*
G01*
D11*
X11145872Y-14835234D02*
X11164920Y-14835234D01*
X11164920Y-14835234D02*
X11183967Y-14844758D01*
X11183967Y-14844758D02*
X11193491Y-14854281D01*
X11193491Y-14854281D02*
X11203015Y-14873329D01*
X11203015Y-14873329D02*
X11212539Y-14911424D01*
X11212539Y-14911424D02*
X11212539Y-14959043D01*
X11212539Y-14959043D02*
X11203015Y-14997138D01*
X11203015Y-14997138D02*
X11193491Y-15016186D01*
X11193491Y-15016186D02*
X11183967Y-15025710D01*
X11183967Y-15025710D02*
X11164920Y-15035234D01*
X11164920Y-15035234D02*
X11145872Y-15035234D01*
X11145872Y-15035234D02*
X11126824Y-15025710D01*
X11126824Y-15025710D02*
X11117301Y-15016186D01*
X11117301Y-15016186D02*
X11107777Y-14997138D01*
X11107777Y-14997138D02*
X11098253Y-14959043D01*
X11098253Y-14959043D02*
X11098253Y-14911424D01*
X11098253Y-14911424D02*
X11107777Y-14873329D01*
X11107777Y-14873329D02*
X11117301Y-14854281D01*
X11117301Y-14854281D02*
X11126824Y-14844758D01*
X11126824Y-14844758D02*
X11145872Y-14835234D01*
X11298253Y-15016186D02*
X11307777Y-15025710D01*
X11307777Y-15025710D02*
X11298253Y-15035234D01*
X11298253Y-15035234D02*
X11288729Y-15025710D01*
X11288729Y-15025710D02*
X11298253Y-15016186D01*
X11298253Y-15016186D02*
X11298253Y-15035234D01*
X11479205Y-14901900D02*
X11479205Y-15035234D01*
X11431586Y-14825710D02*
X11383967Y-14968567D01*
X11383967Y-14968567D02*
X11507777Y-14968567D01*
X11622062Y-14835234D02*
X11641110Y-14835234D01*
X11641110Y-14835234D02*
X11660158Y-14844758D01*
X11660158Y-14844758D02*
X11669682Y-14854281D01*
X11669682Y-14854281D02*
X11679205Y-14873329D01*
X11679205Y-14873329D02*
X11688729Y-14911424D01*
X11688729Y-14911424D02*
X11688729Y-14959043D01*
X11688729Y-14959043D02*
X11679205Y-14997138D01*
X11679205Y-14997138D02*
X11669682Y-15016186D01*
X11669682Y-15016186D02*
X11660158Y-15025710D01*
X11660158Y-15025710D02*
X11641110Y-15035234D01*
X11641110Y-15035234D02*
X11622062Y-15035234D01*
X11622062Y-15035234D02*
X11603015Y-15025710D01*
X11603015Y-15025710D02*
X11593491Y-15016186D01*
X11593491Y-15016186D02*
X11583967Y-14997138D01*
X11583967Y-14997138D02*
X11574443Y-14959043D01*
X11574443Y-14959043D02*
X11574443Y-14911424D01*
X11574443Y-14911424D02*
X11583967Y-14873329D01*
X11583967Y-14873329D02*
X11593491Y-14854281D01*
X11593491Y-14854281D02*
X11603015Y-14844758D01*
X11603015Y-14844758D02*
X11622062Y-14835234D01*
X11812539Y-14835234D02*
X11831586Y-14835234D01*
X11831586Y-14835234D02*
X11850634Y-14844758D01*
X11850634Y-14844758D02*
X11860158Y-14854281D01*
X11860158Y-14854281D02*
X11869682Y-14873329D01*
X11869682Y-14873329D02*
X11879205Y-14911424D01*
X11879205Y-14911424D02*
X11879205Y-14959043D01*
X11879205Y-14959043D02*
X11869682Y-14997138D01*
X11869682Y-14997138D02*
X11860158Y-15016186D01*
X11860158Y-15016186D02*
X11850634Y-15025710D01*
X11850634Y-15025710D02*
X11831586Y-15035234D01*
X11831586Y-15035234D02*
X11812539Y-15035234D01*
X11812539Y-15035234D02*
X11793491Y-15025710D01*
X11793491Y-15025710D02*
X11783967Y-15016186D01*
X11783967Y-15016186D02*
X11774443Y-14997138D01*
X11774443Y-14997138D02*
X11764920Y-14959043D01*
X11764920Y-14959043D02*
X11764920Y-14911424D01*
X11764920Y-14911424D02*
X11774443Y-14873329D01*
X11774443Y-14873329D02*
X11783967Y-14854281D01*
X11783967Y-14854281D02*
X11793491Y-14844758D01*
X11793491Y-14844758D02*
X11812539Y-14835234D01*
X11964920Y-15035234D02*
X11964920Y-14901900D01*
X11964920Y-14920948D02*
X11974443Y-14911424D01*
X11974443Y-14911424D02*
X11993491Y-14901900D01*
X11993491Y-14901900D02*
X12022063Y-14901900D01*
X12022063Y-14901900D02*
X12041110Y-14911424D01*
X12041110Y-14911424D02*
X12050634Y-14930472D01*
X12050634Y-14930472D02*
X12050634Y-15035234D01*
X12050634Y-14930472D02*
X12060158Y-14911424D01*
X12060158Y-14911424D02*
X12079205Y-14901900D01*
X12079205Y-14901900D02*
X12107777Y-14901900D01*
X12107777Y-14901900D02*
X12126824Y-14911424D01*
X12126824Y-14911424D02*
X12136348Y-14930472D01*
X12136348Y-14930472D02*
X12136348Y-15035234D01*
X12231586Y-15035234D02*
X12231586Y-14901900D01*
X12231586Y-14920948D02*
X12241110Y-14911424D01*
X12241110Y-14911424D02*
X12260158Y-14901900D01*
X12260158Y-14901900D02*
X12288729Y-14901900D01*
X12288729Y-14901900D02*
X12307777Y-14911424D01*
X12307777Y-14911424D02*
X12317301Y-14930472D01*
X12317301Y-14930472D02*
X12317301Y-15035234D01*
X12317301Y-14930472D02*
X12326824Y-14911424D01*
X12326824Y-14911424D02*
X12345872Y-14901900D01*
X12345872Y-14901900D02*
X12374443Y-14901900D01*
X12374443Y-14901900D02*
X12393491Y-14911424D01*
X12393491Y-14911424D02*
X12403015Y-14930472D01*
X12403015Y-14930472D02*
X12403015Y-15035234D01*
X12793491Y-14825710D02*
X12622063Y-15082853D01*
X13050634Y-14835234D02*
X13069682Y-14835234D01*
X13069682Y-14835234D02*
X13088729Y-14844758D01*
X13088729Y-14844758D02*
X13098253Y-14854281D01*
X13098253Y-14854281D02*
X13107777Y-14873329D01*
X13107777Y-14873329D02*
X13117301Y-14911424D01*
X13117301Y-14911424D02*
X13117301Y-14959043D01*
X13117301Y-14959043D02*
X13107777Y-14997138D01*
X13107777Y-14997138D02*
X13098253Y-15016186D01*
X13098253Y-15016186D02*
X13088729Y-15025710D01*
X13088729Y-15025710D02*
X13069682Y-15035234D01*
X13069682Y-15035234D02*
X13050634Y-15035234D01*
X13050634Y-15035234D02*
X13031586Y-15025710D01*
X13031586Y-15025710D02*
X13022063Y-15016186D01*
X13022063Y-15016186D02*
X13012539Y-14997138D01*
X13012539Y-14997138D02*
X13003015Y-14959043D01*
X13003015Y-14959043D02*
X13003015Y-14911424D01*
X13003015Y-14911424D02*
X13012539Y-14873329D01*
X13012539Y-14873329D02*
X13022063Y-14854281D01*
X13022063Y-14854281D02*
X13031586Y-14844758D01*
X13031586Y-14844758D02*
X13050634Y-14835234D01*
X13203015Y-15016186D02*
X13212539Y-15025710D01*
X13212539Y-15025710D02*
X13203015Y-15035234D01*
X13203015Y-15035234D02*
X13193491Y-15025710D01*
X13193491Y-15025710D02*
X13203015Y-15016186D01*
X13203015Y-15016186D02*
X13203015Y-15035234D01*
X13336348Y-14835234D02*
X13355396Y-14835234D01*
X13355396Y-14835234D02*
X13374444Y-14844758D01*
X13374444Y-14844758D02*
X13383967Y-14854281D01*
X13383967Y-14854281D02*
X13393491Y-14873329D01*
X13393491Y-14873329D02*
X13403015Y-14911424D01*
X13403015Y-14911424D02*
X13403015Y-14959043D01*
X13403015Y-14959043D02*
X13393491Y-14997138D01*
X13393491Y-14997138D02*
X13383967Y-15016186D01*
X13383967Y-15016186D02*
X13374444Y-15025710D01*
X13374444Y-15025710D02*
X13355396Y-15035234D01*
X13355396Y-15035234D02*
X13336348Y-15035234D01*
X13336348Y-15035234D02*
X13317301Y-15025710D01*
X13317301Y-15025710D02*
X13307777Y-15016186D01*
X13307777Y-15016186D02*
X13298253Y-14997138D01*
X13298253Y-14997138D02*
X13288729Y-14959043D01*
X13288729Y-14959043D02*
X13288729Y-14911424D01*
X13288729Y-14911424D02*
X13298253Y-14873329D01*
X13298253Y-14873329D02*
X13307777Y-14854281D01*
X13307777Y-14854281D02*
X13317301Y-14844758D01*
X13317301Y-14844758D02*
X13336348Y-14835234D01*
X13593491Y-15035234D02*
X13479206Y-15035234D01*
X13536348Y-15035234D02*
X13536348Y-14835234D01*
X13536348Y-14835234D02*
X13517301Y-14863805D01*
X13517301Y-14863805D02*
X13498253Y-14882853D01*
X13498253Y-14882853D02*
X13479206Y-14892377D01*
X13774444Y-14835234D02*
X13679206Y-14835234D01*
X13679206Y-14835234D02*
X13669682Y-14930472D01*
X13669682Y-14930472D02*
X13679206Y-14920948D01*
X13679206Y-14920948D02*
X13698253Y-14911424D01*
X13698253Y-14911424D02*
X13745872Y-14911424D01*
X13745872Y-14911424D02*
X13764920Y-14920948D01*
X13764920Y-14920948D02*
X13774444Y-14930472D01*
X13774444Y-14930472D02*
X13783967Y-14949519D01*
X13783967Y-14949519D02*
X13783967Y-14997138D01*
X13783967Y-14997138D02*
X13774444Y-15016186D01*
X13774444Y-15016186D02*
X13764920Y-15025710D01*
X13764920Y-15025710D02*
X13745872Y-15035234D01*
X13745872Y-15035234D02*
X13698253Y-15035234D01*
X13698253Y-15035234D02*
X13679206Y-15025710D01*
X13679206Y-15025710D02*
X13669682Y-15016186D01*
X13850634Y-14835234D02*
X13983967Y-14835234D01*
X13983967Y-14835234D02*
X13898253Y-15035234D01*
X14050634Y-14835234D02*
X14050634Y-14873329D01*
X14126825Y-14835234D02*
X14126825Y-14873329D01*
X14422063Y-15111424D02*
X14412539Y-15101900D01*
X14412539Y-15101900D02*
X14393491Y-15073329D01*
X14393491Y-15073329D02*
X14383968Y-15054281D01*
X14383968Y-15054281D02*
X14374444Y-15025710D01*
X14374444Y-15025710D02*
X14364920Y-14978091D01*
X14364920Y-14978091D02*
X14364920Y-14939996D01*
X14364920Y-14939996D02*
X14374444Y-14892377D01*
X14374444Y-14892377D02*
X14383968Y-14863805D01*
X14383968Y-14863805D02*
X14393491Y-14844758D01*
X14393491Y-14844758D02*
X14412539Y-14816186D01*
X14412539Y-14816186D02*
X14422063Y-14806662D01*
X14479206Y-14835234D02*
X14603015Y-14835234D01*
X14603015Y-14835234D02*
X14536348Y-14911424D01*
X14536348Y-14911424D02*
X14564920Y-14911424D01*
X14564920Y-14911424D02*
X14583968Y-14920948D01*
X14583968Y-14920948D02*
X14593491Y-14930472D01*
X14593491Y-14930472D02*
X14603015Y-14949519D01*
X14603015Y-14949519D02*
X14603015Y-14997138D01*
X14603015Y-14997138D02*
X14593491Y-15016186D01*
X14593491Y-15016186D02*
X14583968Y-15025710D01*
X14583968Y-15025710D02*
X14564920Y-15035234D01*
X14564920Y-15035234D02*
X14507777Y-15035234D01*
X14507777Y-15035234D02*
X14488729Y-15025710D01*
X14488729Y-15025710D02*
X14479206Y-15016186D01*
X14669682Y-14835234D02*
X14803015Y-14835234D01*
X14803015Y-14835234D02*
X14717301Y-15035234D01*
X15031587Y-15035234D02*
X15031587Y-14835234D01*
X15117301Y-15035234D02*
X15117301Y-14930472D01*
X15117301Y-14930472D02*
X15107777Y-14911424D01*
X15107777Y-14911424D02*
X15088730Y-14901900D01*
X15088730Y-14901900D02*
X15060158Y-14901900D01*
X15060158Y-14901900D02*
X15041110Y-14911424D01*
X15041110Y-14911424D02*
X15031587Y-14920948D01*
X15241110Y-15035234D02*
X15222063Y-15025710D01*
X15222063Y-15025710D02*
X15212539Y-15016186D01*
X15212539Y-15016186D02*
X15203015Y-14997138D01*
X15203015Y-14997138D02*
X15203015Y-14939996D01*
X15203015Y-14939996D02*
X15212539Y-14920948D01*
X15212539Y-14920948D02*
X15222063Y-14911424D01*
X15222063Y-14911424D02*
X15241110Y-14901900D01*
X15241110Y-14901900D02*
X15269682Y-14901900D01*
X15269682Y-14901900D02*
X15288730Y-14911424D01*
X15288730Y-14911424D02*
X15298253Y-14920948D01*
X15298253Y-14920948D02*
X15307777Y-14939996D01*
X15307777Y-14939996D02*
X15307777Y-14997138D01*
X15307777Y-14997138D02*
X15298253Y-15016186D01*
X15298253Y-15016186D02*
X15288730Y-15025710D01*
X15288730Y-15025710D02*
X15269682Y-15035234D01*
X15269682Y-15035234D02*
X15241110Y-15035234D01*
X15422063Y-15035234D02*
X15403015Y-15025710D01*
X15403015Y-15025710D02*
X15393491Y-15006662D01*
X15393491Y-15006662D02*
X15393491Y-14835234D01*
X15574444Y-15025710D02*
X15555396Y-15035234D01*
X15555396Y-15035234D02*
X15517301Y-15035234D01*
X15517301Y-15035234D02*
X15498253Y-15025710D01*
X15498253Y-15025710D02*
X15488730Y-15006662D01*
X15488730Y-15006662D02*
X15488730Y-14930472D01*
X15488730Y-14930472D02*
X15498253Y-14911424D01*
X15498253Y-14911424D02*
X15517301Y-14901900D01*
X15517301Y-14901900D02*
X15555396Y-14901900D01*
X15555396Y-14901900D02*
X15574444Y-14911424D01*
X15574444Y-14911424D02*
X15583968Y-14930472D01*
X15583968Y-14930472D02*
X15583968Y-14949519D01*
X15583968Y-14949519D02*
X15488730Y-14968567D01*
X15660158Y-15025710D02*
X15679206Y-15035234D01*
X15679206Y-15035234D02*
X15717301Y-15035234D01*
X15717301Y-15035234D02*
X15736349Y-15025710D01*
X15736349Y-15025710D02*
X15745872Y-15006662D01*
X15745872Y-15006662D02*
X15745872Y-14997138D01*
X15745872Y-14997138D02*
X15736349Y-14978091D01*
X15736349Y-14978091D02*
X15717301Y-14968567D01*
X15717301Y-14968567D02*
X15688730Y-14968567D01*
X15688730Y-14968567D02*
X15669682Y-14959043D01*
X15669682Y-14959043D02*
X15660158Y-14939996D01*
X15660158Y-14939996D02*
X15660158Y-14930472D01*
X15660158Y-14930472D02*
X15669682Y-14911424D01*
X15669682Y-14911424D02*
X15688730Y-14901900D01*
X15688730Y-14901900D02*
X15717301Y-14901900D01*
X15717301Y-14901900D02*
X15736349Y-14911424D01*
X15812539Y-15111424D02*
X15822063Y-15101900D01*
X15822063Y-15101900D02*
X15841111Y-15073329D01*
X15841111Y-15073329D02*
X15850634Y-15054281D01*
X15850634Y-15054281D02*
X15860158Y-15025710D01*
X15860158Y-15025710D02*
X15869682Y-14978091D01*
X15869682Y-14978091D02*
X15869682Y-14939996D01*
X15869682Y-14939996D02*
X15860158Y-14892377D01*
X15860158Y-14892377D02*
X15850634Y-14863805D01*
X15850634Y-14863805D02*
X15841111Y-14844758D01*
X15841111Y-14844758D02*
X15822063Y-14816186D01*
X15822063Y-14816186D02*
X15812539Y-14806662D01*
D14*
X10822000Y-15182750D02*
X10822000Y-15232750D01*
X10797000Y-15207750D02*
X10847000Y-15207750D01*
D11*
X11145872Y-15099234D02*
X11164920Y-15099234D01*
X11164920Y-15099234D02*
X11183967Y-15108758D01*
X11183967Y-15108758D02*
X11193491Y-15118281D01*
X11193491Y-15118281D02*
X11203015Y-15137329D01*
X11203015Y-15137329D02*
X11212539Y-15175424D01*
X11212539Y-15175424D02*
X11212539Y-15223043D01*
X11212539Y-15223043D02*
X11203015Y-15261138D01*
X11203015Y-15261138D02*
X11193491Y-15280186D01*
X11193491Y-15280186D02*
X11183967Y-15289710D01*
X11183967Y-15289710D02*
X11164920Y-15299234D01*
X11164920Y-15299234D02*
X11145872Y-15299234D01*
X11145872Y-15299234D02*
X11126824Y-15289710D01*
X11126824Y-15289710D02*
X11117301Y-15280186D01*
X11117301Y-15280186D02*
X11107777Y-15261138D01*
X11107777Y-15261138D02*
X11098253Y-15223043D01*
X11098253Y-15223043D02*
X11098253Y-15175424D01*
X11098253Y-15175424D02*
X11107777Y-15137329D01*
X11107777Y-15137329D02*
X11117301Y-15118281D01*
X11117301Y-15118281D02*
X11126824Y-15108758D01*
X11126824Y-15108758D02*
X11145872Y-15099234D01*
X11298253Y-15280186D02*
X11307777Y-15289710D01*
X11307777Y-15289710D02*
X11298253Y-15299234D01*
X11298253Y-15299234D02*
X11288729Y-15289710D01*
X11288729Y-15289710D02*
X11298253Y-15280186D01*
X11298253Y-15280186D02*
X11298253Y-15299234D01*
X11488729Y-15099234D02*
X11393491Y-15099234D01*
X11393491Y-15099234D02*
X11383967Y-15194472D01*
X11383967Y-15194472D02*
X11393491Y-15184948D01*
X11393491Y-15184948D02*
X11412539Y-15175424D01*
X11412539Y-15175424D02*
X11460158Y-15175424D01*
X11460158Y-15175424D02*
X11479205Y-15184948D01*
X11479205Y-15184948D02*
X11488729Y-15194472D01*
X11488729Y-15194472D02*
X11498253Y-15213519D01*
X11498253Y-15213519D02*
X11498253Y-15261138D01*
X11498253Y-15261138D02*
X11488729Y-15280186D01*
X11488729Y-15280186D02*
X11479205Y-15289710D01*
X11479205Y-15289710D02*
X11460158Y-15299234D01*
X11460158Y-15299234D02*
X11412539Y-15299234D01*
X11412539Y-15299234D02*
X11393491Y-15289710D01*
X11393491Y-15289710D02*
X11383967Y-15280186D01*
X11622062Y-15099234D02*
X11641110Y-15099234D01*
X11641110Y-15099234D02*
X11660158Y-15108758D01*
X11660158Y-15108758D02*
X11669682Y-15118281D01*
X11669682Y-15118281D02*
X11679205Y-15137329D01*
X11679205Y-15137329D02*
X11688729Y-15175424D01*
X11688729Y-15175424D02*
X11688729Y-15223043D01*
X11688729Y-15223043D02*
X11679205Y-15261138D01*
X11679205Y-15261138D02*
X11669682Y-15280186D01*
X11669682Y-15280186D02*
X11660158Y-15289710D01*
X11660158Y-15289710D02*
X11641110Y-15299234D01*
X11641110Y-15299234D02*
X11622062Y-15299234D01*
X11622062Y-15299234D02*
X11603015Y-15289710D01*
X11603015Y-15289710D02*
X11593491Y-15280186D01*
X11593491Y-15280186D02*
X11583967Y-15261138D01*
X11583967Y-15261138D02*
X11574443Y-15223043D01*
X11574443Y-15223043D02*
X11574443Y-15175424D01*
X11574443Y-15175424D02*
X11583967Y-15137329D01*
X11583967Y-15137329D02*
X11593491Y-15118281D01*
X11593491Y-15118281D02*
X11603015Y-15108758D01*
X11603015Y-15108758D02*
X11622062Y-15099234D01*
X11812539Y-15099234D02*
X11831586Y-15099234D01*
X11831586Y-15099234D02*
X11850634Y-15108758D01*
X11850634Y-15108758D02*
X11860158Y-15118281D01*
X11860158Y-15118281D02*
X11869682Y-15137329D01*
X11869682Y-15137329D02*
X11879205Y-15175424D01*
X11879205Y-15175424D02*
X11879205Y-15223043D01*
X11879205Y-15223043D02*
X11869682Y-15261138D01*
X11869682Y-15261138D02*
X11860158Y-15280186D01*
X11860158Y-15280186D02*
X11850634Y-15289710D01*
X11850634Y-15289710D02*
X11831586Y-15299234D01*
X11831586Y-15299234D02*
X11812539Y-15299234D01*
X11812539Y-15299234D02*
X11793491Y-15289710D01*
X11793491Y-15289710D02*
X11783967Y-15280186D01*
X11783967Y-15280186D02*
X11774443Y-15261138D01*
X11774443Y-15261138D02*
X11764920Y-15223043D01*
X11764920Y-15223043D02*
X11764920Y-15175424D01*
X11764920Y-15175424D02*
X11774443Y-15137329D01*
X11774443Y-15137329D02*
X11783967Y-15118281D01*
X11783967Y-15118281D02*
X11793491Y-15108758D01*
X11793491Y-15108758D02*
X11812539Y-15099234D01*
X11964920Y-15299234D02*
X11964920Y-15165900D01*
X11964920Y-15184948D02*
X11974443Y-15175424D01*
X11974443Y-15175424D02*
X11993491Y-15165900D01*
X11993491Y-15165900D02*
X12022063Y-15165900D01*
X12022063Y-15165900D02*
X12041110Y-15175424D01*
X12041110Y-15175424D02*
X12050634Y-15194472D01*
X12050634Y-15194472D02*
X12050634Y-15299234D01*
X12050634Y-15194472D02*
X12060158Y-15175424D01*
X12060158Y-15175424D02*
X12079205Y-15165900D01*
X12079205Y-15165900D02*
X12107777Y-15165900D01*
X12107777Y-15165900D02*
X12126824Y-15175424D01*
X12126824Y-15175424D02*
X12136348Y-15194472D01*
X12136348Y-15194472D02*
X12136348Y-15299234D01*
X12231586Y-15299234D02*
X12231586Y-15165900D01*
X12231586Y-15184948D02*
X12241110Y-15175424D01*
X12241110Y-15175424D02*
X12260158Y-15165900D01*
X12260158Y-15165900D02*
X12288729Y-15165900D01*
X12288729Y-15165900D02*
X12307777Y-15175424D01*
X12307777Y-15175424D02*
X12317301Y-15194472D01*
X12317301Y-15194472D02*
X12317301Y-15299234D01*
X12317301Y-15194472D02*
X12326824Y-15175424D01*
X12326824Y-15175424D02*
X12345872Y-15165900D01*
X12345872Y-15165900D02*
X12374443Y-15165900D01*
X12374443Y-15165900D02*
X12393491Y-15175424D01*
X12393491Y-15175424D02*
X12403015Y-15194472D01*
X12403015Y-15194472D02*
X12403015Y-15299234D01*
X12793491Y-15089710D02*
X12622063Y-15346853D01*
X13050634Y-15099234D02*
X13069682Y-15099234D01*
X13069682Y-15099234D02*
X13088729Y-15108758D01*
X13088729Y-15108758D02*
X13098253Y-15118281D01*
X13098253Y-15118281D02*
X13107777Y-15137329D01*
X13107777Y-15137329D02*
X13117301Y-15175424D01*
X13117301Y-15175424D02*
X13117301Y-15223043D01*
X13117301Y-15223043D02*
X13107777Y-15261138D01*
X13107777Y-15261138D02*
X13098253Y-15280186D01*
X13098253Y-15280186D02*
X13088729Y-15289710D01*
X13088729Y-15289710D02*
X13069682Y-15299234D01*
X13069682Y-15299234D02*
X13050634Y-15299234D01*
X13050634Y-15299234D02*
X13031586Y-15289710D01*
X13031586Y-15289710D02*
X13022063Y-15280186D01*
X13022063Y-15280186D02*
X13012539Y-15261138D01*
X13012539Y-15261138D02*
X13003015Y-15223043D01*
X13003015Y-15223043D02*
X13003015Y-15175424D01*
X13003015Y-15175424D02*
X13012539Y-15137329D01*
X13012539Y-15137329D02*
X13022063Y-15118281D01*
X13022063Y-15118281D02*
X13031586Y-15108758D01*
X13031586Y-15108758D02*
X13050634Y-15099234D01*
X13203015Y-15280186D02*
X13212539Y-15289710D01*
X13212539Y-15289710D02*
X13203015Y-15299234D01*
X13203015Y-15299234D02*
X13193491Y-15289710D01*
X13193491Y-15289710D02*
X13203015Y-15280186D01*
X13203015Y-15280186D02*
X13203015Y-15299234D01*
X13336348Y-15099234D02*
X13355396Y-15099234D01*
X13355396Y-15099234D02*
X13374444Y-15108758D01*
X13374444Y-15108758D02*
X13383967Y-15118281D01*
X13383967Y-15118281D02*
X13393491Y-15137329D01*
X13393491Y-15137329D02*
X13403015Y-15175424D01*
X13403015Y-15175424D02*
X13403015Y-15223043D01*
X13403015Y-15223043D02*
X13393491Y-15261138D01*
X13393491Y-15261138D02*
X13383967Y-15280186D01*
X13383967Y-15280186D02*
X13374444Y-15289710D01*
X13374444Y-15289710D02*
X13355396Y-15299234D01*
X13355396Y-15299234D02*
X13336348Y-15299234D01*
X13336348Y-15299234D02*
X13317301Y-15289710D01*
X13317301Y-15289710D02*
X13307777Y-15280186D01*
X13307777Y-15280186D02*
X13298253Y-15261138D01*
X13298253Y-15261138D02*
X13288729Y-15223043D01*
X13288729Y-15223043D02*
X13288729Y-15175424D01*
X13288729Y-15175424D02*
X13298253Y-15137329D01*
X13298253Y-15137329D02*
X13307777Y-15118281D01*
X13307777Y-15118281D02*
X13317301Y-15108758D01*
X13317301Y-15108758D02*
X13336348Y-15099234D01*
X13593491Y-15299234D02*
X13479206Y-15299234D01*
X13536348Y-15299234D02*
X13536348Y-15099234D01*
X13536348Y-15099234D02*
X13517301Y-15127805D01*
X13517301Y-15127805D02*
X13498253Y-15146853D01*
X13498253Y-15146853D02*
X13479206Y-15156377D01*
X13688729Y-15299234D02*
X13726825Y-15299234D01*
X13726825Y-15299234D02*
X13745872Y-15289710D01*
X13745872Y-15289710D02*
X13755396Y-15280186D01*
X13755396Y-15280186D02*
X13774444Y-15251615D01*
X13774444Y-15251615D02*
X13783967Y-15213519D01*
X13783967Y-15213519D02*
X13783967Y-15137329D01*
X13783967Y-15137329D02*
X13774444Y-15118281D01*
X13774444Y-15118281D02*
X13764920Y-15108758D01*
X13764920Y-15108758D02*
X13745872Y-15099234D01*
X13745872Y-15099234D02*
X13707777Y-15099234D01*
X13707777Y-15099234D02*
X13688729Y-15108758D01*
X13688729Y-15108758D02*
X13679206Y-15118281D01*
X13679206Y-15118281D02*
X13669682Y-15137329D01*
X13669682Y-15137329D02*
X13669682Y-15184948D01*
X13669682Y-15184948D02*
X13679206Y-15203996D01*
X13679206Y-15203996D02*
X13688729Y-15213519D01*
X13688729Y-15213519D02*
X13707777Y-15223043D01*
X13707777Y-15223043D02*
X13745872Y-15223043D01*
X13745872Y-15223043D02*
X13764920Y-15213519D01*
X13764920Y-15213519D02*
X13774444Y-15203996D01*
X13774444Y-15203996D02*
X13783967Y-15184948D01*
X13850634Y-15099234D02*
X13983967Y-15099234D01*
X13983967Y-15099234D02*
X13898253Y-15299234D01*
X14050634Y-15099234D02*
X14050634Y-15137329D01*
X14126825Y-15099234D02*
X14126825Y-15137329D01*
X14422063Y-15375424D02*
X14412539Y-15365900D01*
X14412539Y-15365900D02*
X14393491Y-15337329D01*
X14393491Y-15337329D02*
X14383968Y-15318281D01*
X14383968Y-15318281D02*
X14374444Y-15289710D01*
X14374444Y-15289710D02*
X14364920Y-15242091D01*
X14364920Y-15242091D02*
X14364920Y-15203996D01*
X14364920Y-15203996D02*
X14374444Y-15156377D01*
X14374444Y-15156377D02*
X14383968Y-15127805D01*
X14383968Y-15127805D02*
X14393491Y-15108758D01*
X14393491Y-15108758D02*
X14412539Y-15080186D01*
X14412539Y-15080186D02*
X14422063Y-15070662D01*
X14479206Y-15099234D02*
X14612539Y-15099234D01*
X14612539Y-15099234D02*
X14526825Y-15299234D01*
X14793491Y-15299234D02*
X14679206Y-15299234D01*
X14736348Y-15299234D02*
X14736348Y-15099234D01*
X14736348Y-15099234D02*
X14717301Y-15127805D01*
X14717301Y-15127805D02*
X14698253Y-15146853D01*
X14698253Y-15146853D02*
X14679206Y-15156377D01*
X15031587Y-15299234D02*
X15031587Y-15099234D01*
X15117301Y-15299234D02*
X15117301Y-15194472D01*
X15117301Y-15194472D02*
X15107777Y-15175424D01*
X15107777Y-15175424D02*
X15088730Y-15165900D01*
X15088730Y-15165900D02*
X15060158Y-15165900D01*
X15060158Y-15165900D02*
X15041110Y-15175424D01*
X15041110Y-15175424D02*
X15031587Y-15184948D01*
X15241110Y-15299234D02*
X15222063Y-15289710D01*
X15222063Y-15289710D02*
X15212539Y-15280186D01*
X15212539Y-15280186D02*
X15203015Y-15261138D01*
X15203015Y-15261138D02*
X15203015Y-15203996D01*
X15203015Y-15203996D02*
X15212539Y-15184948D01*
X15212539Y-15184948D02*
X15222063Y-15175424D01*
X15222063Y-15175424D02*
X15241110Y-15165900D01*
X15241110Y-15165900D02*
X15269682Y-15165900D01*
X15269682Y-15165900D02*
X15288730Y-15175424D01*
X15288730Y-15175424D02*
X15298253Y-15184948D01*
X15298253Y-15184948D02*
X15307777Y-15203996D01*
X15307777Y-15203996D02*
X15307777Y-15261138D01*
X15307777Y-15261138D02*
X15298253Y-15280186D01*
X15298253Y-15280186D02*
X15288730Y-15289710D01*
X15288730Y-15289710D02*
X15269682Y-15299234D01*
X15269682Y-15299234D02*
X15241110Y-15299234D01*
X15422063Y-15299234D02*
X15403015Y-15289710D01*
X15403015Y-15289710D02*
X15393491Y-15270662D01*
X15393491Y-15270662D02*
X15393491Y-15099234D01*
X15574444Y-15289710D02*
X15555396Y-15299234D01*
X15555396Y-15299234D02*
X15517301Y-15299234D01*
X15517301Y-15299234D02*
X15498253Y-15289710D01*
X15498253Y-15289710D02*
X15488730Y-15270662D01*
X15488730Y-15270662D02*
X15488730Y-15194472D01*
X15488730Y-15194472D02*
X15498253Y-15175424D01*
X15498253Y-15175424D02*
X15517301Y-15165900D01*
X15517301Y-15165900D02*
X15555396Y-15165900D01*
X15555396Y-15165900D02*
X15574444Y-15175424D01*
X15574444Y-15175424D02*
X15583968Y-15194472D01*
X15583968Y-15194472D02*
X15583968Y-15213519D01*
X15583968Y-15213519D02*
X15488730Y-15232567D01*
X15660158Y-15289710D02*
X15679206Y-15299234D01*
X15679206Y-15299234D02*
X15717301Y-15299234D01*
X15717301Y-15299234D02*
X15736349Y-15289710D01*
X15736349Y-15289710D02*
X15745872Y-15270662D01*
X15745872Y-15270662D02*
X15745872Y-15261138D01*
X15745872Y-15261138D02*
X15736349Y-15242091D01*
X15736349Y-15242091D02*
X15717301Y-15232567D01*
X15717301Y-15232567D02*
X15688730Y-15232567D01*
X15688730Y-15232567D02*
X15669682Y-15223043D01*
X15669682Y-15223043D02*
X15660158Y-15203996D01*
X15660158Y-15203996D02*
X15660158Y-15194472D01*
X15660158Y-15194472D02*
X15669682Y-15175424D01*
X15669682Y-15175424D02*
X15688730Y-15165900D01*
X15688730Y-15165900D02*
X15717301Y-15165900D01*
X15717301Y-15165900D02*
X15736349Y-15175424D01*
X15812539Y-15375424D02*
X15822063Y-15365900D01*
X15822063Y-15365900D02*
X15841111Y-15337329D01*
X15841111Y-15337329D02*
X15850634Y-15318281D01*
X15850634Y-15318281D02*
X15860158Y-15289710D01*
X15860158Y-15289710D02*
X15869682Y-15242091D01*
X15869682Y-15242091D02*
X15869682Y-15203996D01*
X15869682Y-15203996D02*
X15860158Y-15156377D01*
X15860158Y-15156377D02*
X15850634Y-15127805D01*
X15850634Y-15127805D02*
X15841111Y-15108758D01*
X15841111Y-15108758D02*
X15822063Y-15080186D01*
X15822063Y-15080186D02*
X15812539Y-15070662D01*
D15*
X10837481Y-15494731D02*
X10837481Y-15448769D01*
X10791519Y-15448769D01*
X10791519Y-15494731D01*
X10837481Y-15494731D01*
D11*
X11145872Y-15363234D02*
X11164920Y-15363234D01*
X11164920Y-15363234D02*
X11183967Y-15372758D01*
X11183967Y-15372758D02*
X11193491Y-15382281D01*
X11193491Y-15382281D02*
X11203015Y-15401329D01*
X11203015Y-15401329D02*
X11212539Y-15439424D01*
X11212539Y-15439424D02*
X11212539Y-15487043D01*
X11212539Y-15487043D02*
X11203015Y-15525138D01*
X11203015Y-15525138D02*
X11193491Y-15544186D01*
X11193491Y-15544186D02*
X11183967Y-15553710D01*
X11183967Y-15553710D02*
X11164920Y-15563234D01*
X11164920Y-15563234D02*
X11145872Y-15563234D01*
X11145872Y-15563234D02*
X11126824Y-15553710D01*
X11126824Y-15553710D02*
X11117301Y-15544186D01*
X11117301Y-15544186D02*
X11107777Y-15525138D01*
X11107777Y-15525138D02*
X11098253Y-15487043D01*
X11098253Y-15487043D02*
X11098253Y-15439424D01*
X11098253Y-15439424D02*
X11107777Y-15401329D01*
X11107777Y-15401329D02*
X11117301Y-15382281D01*
X11117301Y-15382281D02*
X11126824Y-15372758D01*
X11126824Y-15372758D02*
X11145872Y-15363234D01*
X11298253Y-15544186D02*
X11307777Y-15553710D01*
X11307777Y-15553710D02*
X11298253Y-15563234D01*
X11298253Y-15563234D02*
X11288729Y-15553710D01*
X11288729Y-15553710D02*
X11298253Y-15544186D01*
X11298253Y-15544186D02*
X11298253Y-15563234D01*
X11479205Y-15363234D02*
X11441110Y-15363234D01*
X11441110Y-15363234D02*
X11422062Y-15372758D01*
X11422062Y-15372758D02*
X11412539Y-15382281D01*
X11412539Y-15382281D02*
X11393491Y-15410853D01*
X11393491Y-15410853D02*
X11383967Y-15448948D01*
X11383967Y-15448948D02*
X11383967Y-15525138D01*
X11383967Y-15525138D02*
X11393491Y-15544186D01*
X11393491Y-15544186D02*
X11403015Y-15553710D01*
X11403015Y-15553710D02*
X11422062Y-15563234D01*
X11422062Y-15563234D02*
X11460158Y-15563234D01*
X11460158Y-15563234D02*
X11479205Y-15553710D01*
X11479205Y-15553710D02*
X11488729Y-15544186D01*
X11488729Y-15544186D02*
X11498253Y-15525138D01*
X11498253Y-15525138D02*
X11498253Y-15477519D01*
X11498253Y-15477519D02*
X11488729Y-15458472D01*
X11488729Y-15458472D02*
X11479205Y-15448948D01*
X11479205Y-15448948D02*
X11460158Y-15439424D01*
X11460158Y-15439424D02*
X11422062Y-15439424D01*
X11422062Y-15439424D02*
X11403015Y-15448948D01*
X11403015Y-15448948D02*
X11393491Y-15458472D01*
X11393491Y-15458472D02*
X11383967Y-15477519D01*
X11679205Y-15363234D02*
X11583967Y-15363234D01*
X11583967Y-15363234D02*
X11574443Y-15458472D01*
X11574443Y-15458472D02*
X11583967Y-15448948D01*
X11583967Y-15448948D02*
X11603015Y-15439424D01*
X11603015Y-15439424D02*
X11650634Y-15439424D01*
X11650634Y-15439424D02*
X11669682Y-15448948D01*
X11669682Y-15448948D02*
X11679205Y-15458472D01*
X11679205Y-15458472D02*
X11688729Y-15477519D01*
X11688729Y-15477519D02*
X11688729Y-15525138D01*
X11688729Y-15525138D02*
X11679205Y-15544186D01*
X11679205Y-15544186D02*
X11669682Y-15553710D01*
X11669682Y-15553710D02*
X11650634Y-15563234D01*
X11650634Y-15563234D02*
X11603015Y-15563234D01*
X11603015Y-15563234D02*
X11583967Y-15553710D01*
X11583967Y-15553710D02*
X11574443Y-15544186D01*
X11812539Y-15363234D02*
X11831586Y-15363234D01*
X11831586Y-15363234D02*
X11850634Y-15372758D01*
X11850634Y-15372758D02*
X11860158Y-15382281D01*
X11860158Y-15382281D02*
X11869682Y-15401329D01*
X11869682Y-15401329D02*
X11879205Y-15439424D01*
X11879205Y-15439424D02*
X11879205Y-15487043D01*
X11879205Y-15487043D02*
X11869682Y-15525138D01*
X11869682Y-15525138D02*
X11860158Y-15544186D01*
X11860158Y-15544186D02*
X11850634Y-15553710D01*
X11850634Y-15553710D02*
X11831586Y-15563234D01*
X11831586Y-15563234D02*
X11812539Y-15563234D01*
X11812539Y-15563234D02*
X11793491Y-15553710D01*
X11793491Y-15553710D02*
X11783967Y-15544186D01*
X11783967Y-15544186D02*
X11774443Y-15525138D01*
X11774443Y-15525138D02*
X11764920Y-15487043D01*
X11764920Y-15487043D02*
X11764920Y-15439424D01*
X11764920Y-15439424D02*
X11774443Y-15401329D01*
X11774443Y-15401329D02*
X11783967Y-15382281D01*
X11783967Y-15382281D02*
X11793491Y-15372758D01*
X11793491Y-15372758D02*
X11812539Y-15363234D01*
X11964920Y-15563234D02*
X11964920Y-15429900D01*
X11964920Y-15448948D02*
X11974443Y-15439424D01*
X11974443Y-15439424D02*
X11993491Y-15429900D01*
X11993491Y-15429900D02*
X12022063Y-15429900D01*
X12022063Y-15429900D02*
X12041110Y-15439424D01*
X12041110Y-15439424D02*
X12050634Y-15458472D01*
X12050634Y-15458472D02*
X12050634Y-15563234D01*
X12050634Y-15458472D02*
X12060158Y-15439424D01*
X12060158Y-15439424D02*
X12079205Y-15429900D01*
X12079205Y-15429900D02*
X12107777Y-15429900D01*
X12107777Y-15429900D02*
X12126824Y-15439424D01*
X12126824Y-15439424D02*
X12136348Y-15458472D01*
X12136348Y-15458472D02*
X12136348Y-15563234D01*
X12231586Y-15563234D02*
X12231586Y-15429900D01*
X12231586Y-15448948D02*
X12241110Y-15439424D01*
X12241110Y-15439424D02*
X12260158Y-15429900D01*
X12260158Y-15429900D02*
X12288729Y-15429900D01*
X12288729Y-15429900D02*
X12307777Y-15439424D01*
X12307777Y-15439424D02*
X12317301Y-15458472D01*
X12317301Y-15458472D02*
X12317301Y-15563234D01*
X12317301Y-15458472D02*
X12326824Y-15439424D01*
X12326824Y-15439424D02*
X12345872Y-15429900D01*
X12345872Y-15429900D02*
X12374443Y-15429900D01*
X12374443Y-15429900D02*
X12393491Y-15439424D01*
X12393491Y-15439424D02*
X12403015Y-15458472D01*
X12403015Y-15458472D02*
X12403015Y-15563234D01*
X12793491Y-15353710D02*
X12622063Y-15610853D01*
X13050634Y-15363234D02*
X13069682Y-15363234D01*
X13069682Y-15363234D02*
X13088729Y-15372758D01*
X13088729Y-15372758D02*
X13098253Y-15382281D01*
X13098253Y-15382281D02*
X13107777Y-15401329D01*
X13107777Y-15401329D02*
X13117301Y-15439424D01*
X13117301Y-15439424D02*
X13117301Y-15487043D01*
X13117301Y-15487043D02*
X13107777Y-15525138D01*
X13107777Y-15525138D02*
X13098253Y-15544186D01*
X13098253Y-15544186D02*
X13088729Y-15553710D01*
X13088729Y-15553710D02*
X13069682Y-15563234D01*
X13069682Y-15563234D02*
X13050634Y-15563234D01*
X13050634Y-15563234D02*
X13031586Y-15553710D01*
X13031586Y-15553710D02*
X13022063Y-15544186D01*
X13022063Y-15544186D02*
X13012539Y-15525138D01*
X13012539Y-15525138D02*
X13003015Y-15487043D01*
X13003015Y-15487043D02*
X13003015Y-15439424D01*
X13003015Y-15439424D02*
X13012539Y-15401329D01*
X13012539Y-15401329D02*
X13022063Y-15382281D01*
X13022063Y-15382281D02*
X13031586Y-15372758D01*
X13031586Y-15372758D02*
X13050634Y-15363234D01*
X13203015Y-15544186D02*
X13212539Y-15553710D01*
X13212539Y-15553710D02*
X13203015Y-15563234D01*
X13203015Y-15563234D02*
X13193491Y-15553710D01*
X13193491Y-15553710D02*
X13203015Y-15544186D01*
X13203015Y-15544186D02*
X13203015Y-15563234D01*
X13336348Y-15363234D02*
X13355396Y-15363234D01*
X13355396Y-15363234D02*
X13374444Y-15372758D01*
X13374444Y-15372758D02*
X13383967Y-15382281D01*
X13383967Y-15382281D02*
X13393491Y-15401329D01*
X13393491Y-15401329D02*
X13403015Y-15439424D01*
X13403015Y-15439424D02*
X13403015Y-15487043D01*
X13403015Y-15487043D02*
X13393491Y-15525138D01*
X13393491Y-15525138D02*
X13383967Y-15544186D01*
X13383967Y-15544186D02*
X13374444Y-15553710D01*
X13374444Y-15553710D02*
X13355396Y-15563234D01*
X13355396Y-15563234D02*
X13336348Y-15563234D01*
X13336348Y-15563234D02*
X13317301Y-15553710D01*
X13317301Y-15553710D02*
X13307777Y-15544186D01*
X13307777Y-15544186D02*
X13298253Y-15525138D01*
X13298253Y-15525138D02*
X13288729Y-15487043D01*
X13288729Y-15487043D02*
X13288729Y-15439424D01*
X13288729Y-15439424D02*
X13298253Y-15401329D01*
X13298253Y-15401329D02*
X13307777Y-15382281D01*
X13307777Y-15382281D02*
X13317301Y-15372758D01*
X13317301Y-15372758D02*
X13336348Y-15363234D01*
X13479206Y-15382281D02*
X13488729Y-15372758D01*
X13488729Y-15372758D02*
X13507777Y-15363234D01*
X13507777Y-15363234D02*
X13555396Y-15363234D01*
X13555396Y-15363234D02*
X13574444Y-15372758D01*
X13574444Y-15372758D02*
X13583967Y-15382281D01*
X13583967Y-15382281D02*
X13593491Y-15401329D01*
X13593491Y-15401329D02*
X13593491Y-15420377D01*
X13593491Y-15420377D02*
X13583967Y-15448948D01*
X13583967Y-15448948D02*
X13469682Y-15563234D01*
X13469682Y-15563234D02*
X13593491Y-15563234D01*
X13774444Y-15363234D02*
X13679206Y-15363234D01*
X13679206Y-15363234D02*
X13669682Y-15458472D01*
X13669682Y-15458472D02*
X13679206Y-15448948D01*
X13679206Y-15448948D02*
X13698253Y-15439424D01*
X13698253Y-15439424D02*
X13745872Y-15439424D01*
X13745872Y-15439424D02*
X13764920Y-15448948D01*
X13764920Y-15448948D02*
X13774444Y-15458472D01*
X13774444Y-15458472D02*
X13783967Y-15477519D01*
X13783967Y-15477519D02*
X13783967Y-15525138D01*
X13783967Y-15525138D02*
X13774444Y-15544186D01*
X13774444Y-15544186D02*
X13764920Y-15553710D01*
X13764920Y-15553710D02*
X13745872Y-15563234D01*
X13745872Y-15563234D02*
X13698253Y-15563234D01*
X13698253Y-15563234D02*
X13679206Y-15553710D01*
X13679206Y-15553710D02*
X13669682Y-15544186D01*
X13955396Y-15363234D02*
X13917301Y-15363234D01*
X13917301Y-15363234D02*
X13898253Y-15372758D01*
X13898253Y-15372758D02*
X13888729Y-15382281D01*
X13888729Y-15382281D02*
X13869682Y-15410853D01*
X13869682Y-15410853D02*
X13860158Y-15448948D01*
X13860158Y-15448948D02*
X13860158Y-15525138D01*
X13860158Y-15525138D02*
X13869682Y-15544186D01*
X13869682Y-15544186D02*
X13879206Y-15553710D01*
X13879206Y-15553710D02*
X13898253Y-15563234D01*
X13898253Y-15563234D02*
X13936348Y-15563234D01*
X13936348Y-15563234D02*
X13955396Y-15553710D01*
X13955396Y-15553710D02*
X13964920Y-15544186D01*
X13964920Y-15544186D02*
X13974444Y-15525138D01*
X13974444Y-15525138D02*
X13974444Y-15477519D01*
X13974444Y-15477519D02*
X13964920Y-15458472D01*
X13964920Y-15458472D02*
X13955396Y-15448948D01*
X13955396Y-15448948D02*
X13936348Y-15439424D01*
X13936348Y-15439424D02*
X13898253Y-15439424D01*
X13898253Y-15439424D02*
X13879206Y-15448948D01*
X13879206Y-15448948D02*
X13869682Y-15458472D01*
X13869682Y-15458472D02*
X13860158Y-15477519D01*
X14050634Y-15363234D02*
X14050634Y-15401329D01*
X14126825Y-15363234D02*
X14126825Y-15401329D01*
X14422063Y-15639424D02*
X14412539Y-15629900D01*
X14412539Y-15629900D02*
X14393491Y-15601329D01*
X14393491Y-15601329D02*
X14383968Y-15582281D01*
X14383968Y-15582281D02*
X14374444Y-15553710D01*
X14374444Y-15553710D02*
X14364920Y-15506091D01*
X14364920Y-15506091D02*
X14364920Y-15467996D01*
X14364920Y-15467996D02*
X14374444Y-15420377D01*
X14374444Y-15420377D02*
X14383968Y-15391805D01*
X14383968Y-15391805D02*
X14393491Y-15372758D01*
X14393491Y-15372758D02*
X14412539Y-15344186D01*
X14412539Y-15344186D02*
X14422063Y-15334662D01*
X14536348Y-15363234D02*
X14555396Y-15363234D01*
X14555396Y-15363234D02*
X14574444Y-15372758D01*
X14574444Y-15372758D02*
X14583968Y-15382281D01*
X14583968Y-15382281D02*
X14593491Y-15401329D01*
X14593491Y-15401329D02*
X14603015Y-15439424D01*
X14603015Y-15439424D02*
X14603015Y-15487043D01*
X14603015Y-15487043D02*
X14593491Y-15525138D01*
X14593491Y-15525138D02*
X14583968Y-15544186D01*
X14583968Y-15544186D02*
X14574444Y-15553710D01*
X14574444Y-15553710D02*
X14555396Y-15563234D01*
X14555396Y-15563234D02*
X14536348Y-15563234D01*
X14536348Y-15563234D02*
X14517301Y-15553710D01*
X14517301Y-15553710D02*
X14507777Y-15544186D01*
X14507777Y-15544186D02*
X14498253Y-15525138D01*
X14498253Y-15525138D02*
X14488729Y-15487043D01*
X14488729Y-15487043D02*
X14488729Y-15439424D01*
X14488729Y-15439424D02*
X14498253Y-15401329D01*
X14498253Y-15401329D02*
X14507777Y-15382281D01*
X14507777Y-15382281D02*
X14517301Y-15372758D01*
X14517301Y-15372758D02*
X14536348Y-15363234D01*
X14841110Y-15563234D02*
X14841110Y-15363234D01*
X14926825Y-15563234D02*
X14926825Y-15458472D01*
X14926825Y-15458472D02*
X14917301Y-15439424D01*
X14917301Y-15439424D02*
X14898253Y-15429900D01*
X14898253Y-15429900D02*
X14869682Y-15429900D01*
X14869682Y-15429900D02*
X14850634Y-15439424D01*
X14850634Y-15439424D02*
X14841110Y-15448948D01*
X15050634Y-15563234D02*
X15031587Y-15553710D01*
X15031587Y-15553710D02*
X15022063Y-15544186D01*
X15022063Y-15544186D02*
X15012539Y-15525138D01*
X15012539Y-15525138D02*
X15012539Y-15467996D01*
X15012539Y-15467996D02*
X15022063Y-15448948D01*
X15022063Y-15448948D02*
X15031587Y-15439424D01*
X15031587Y-15439424D02*
X15050634Y-15429900D01*
X15050634Y-15429900D02*
X15079206Y-15429900D01*
X15079206Y-15429900D02*
X15098253Y-15439424D01*
X15098253Y-15439424D02*
X15107777Y-15448948D01*
X15107777Y-15448948D02*
X15117301Y-15467996D01*
X15117301Y-15467996D02*
X15117301Y-15525138D01*
X15117301Y-15525138D02*
X15107777Y-15544186D01*
X15107777Y-15544186D02*
X15098253Y-15553710D01*
X15098253Y-15553710D02*
X15079206Y-15563234D01*
X15079206Y-15563234D02*
X15050634Y-15563234D01*
X15231587Y-15563234D02*
X15212539Y-15553710D01*
X15212539Y-15553710D02*
X15203015Y-15534662D01*
X15203015Y-15534662D02*
X15203015Y-15363234D01*
X15383968Y-15553710D02*
X15364920Y-15563234D01*
X15364920Y-15563234D02*
X15326825Y-15563234D01*
X15326825Y-15563234D02*
X15307777Y-15553710D01*
X15307777Y-15553710D02*
X15298253Y-15534662D01*
X15298253Y-15534662D02*
X15298253Y-15458472D01*
X15298253Y-15458472D02*
X15307777Y-15439424D01*
X15307777Y-15439424D02*
X15326825Y-15429900D01*
X15326825Y-15429900D02*
X15364920Y-15429900D01*
X15364920Y-15429900D02*
X15383968Y-15439424D01*
X15383968Y-15439424D02*
X15393491Y-15458472D01*
X15393491Y-15458472D02*
X15393491Y-15477519D01*
X15393491Y-15477519D02*
X15298253Y-15496567D01*
X15469682Y-15553710D02*
X15488730Y-15563234D01*
X15488730Y-15563234D02*
X15526825Y-15563234D01*
X15526825Y-15563234D02*
X15545872Y-15553710D01*
X15545872Y-15553710D02*
X15555396Y-15534662D01*
X15555396Y-15534662D02*
X15555396Y-15525138D01*
X15555396Y-15525138D02*
X15545872Y-15506091D01*
X15545872Y-15506091D02*
X15526825Y-15496567D01*
X15526825Y-15496567D02*
X15498253Y-15496567D01*
X15498253Y-15496567D02*
X15479206Y-15487043D01*
X15479206Y-15487043D02*
X15469682Y-15467996D01*
X15469682Y-15467996D02*
X15469682Y-15458472D01*
X15469682Y-15458472D02*
X15479206Y-15439424D01*
X15479206Y-15439424D02*
X15498253Y-15429900D01*
X15498253Y-15429900D02*
X15526825Y-15429900D01*
X15526825Y-15429900D02*
X15545872Y-15439424D01*
X15793492Y-15487043D02*
X15945873Y-15487043D01*
X15869682Y-15563234D02*
X15869682Y-15410853D01*
X16279206Y-15429900D02*
X16279206Y-15563234D01*
X16231587Y-15353710D02*
X16183968Y-15496567D01*
X16183968Y-15496567D02*
X16307777Y-15496567D01*
X16526825Y-15553710D02*
X16545873Y-15563234D01*
X16545873Y-15563234D02*
X16583968Y-15563234D01*
X16583968Y-15563234D02*
X16603015Y-15553710D01*
X16603015Y-15553710D02*
X16612539Y-15534662D01*
X16612539Y-15534662D02*
X16612539Y-15525138D01*
X16612539Y-15525138D02*
X16603015Y-15506091D01*
X16603015Y-15506091D02*
X16583968Y-15496567D01*
X16583968Y-15496567D02*
X16555396Y-15496567D01*
X16555396Y-15496567D02*
X16536349Y-15487043D01*
X16536349Y-15487043D02*
X16526825Y-15467996D01*
X16526825Y-15467996D02*
X16526825Y-15458472D01*
X16526825Y-15458472D02*
X16536349Y-15439424D01*
X16536349Y-15439424D02*
X16555396Y-15429900D01*
X16555396Y-15429900D02*
X16583968Y-15429900D01*
X16583968Y-15429900D02*
X16603015Y-15439424D01*
X16726825Y-15563234D02*
X16707777Y-15553710D01*
X16707777Y-15553710D02*
X16698254Y-15534662D01*
X16698254Y-15534662D02*
X16698254Y-15363234D01*
X16831587Y-15563234D02*
X16812539Y-15553710D01*
X16812539Y-15553710D02*
X16803016Y-15544186D01*
X16803016Y-15544186D02*
X16793492Y-15525138D01*
X16793492Y-15525138D02*
X16793492Y-15467996D01*
X16793492Y-15467996D02*
X16803016Y-15448948D01*
X16803016Y-15448948D02*
X16812539Y-15439424D01*
X16812539Y-15439424D02*
X16831587Y-15429900D01*
X16831587Y-15429900D02*
X16860158Y-15429900D01*
X16860158Y-15429900D02*
X16879206Y-15439424D01*
X16879206Y-15439424D02*
X16888730Y-15448948D01*
X16888730Y-15448948D02*
X16898254Y-15467996D01*
X16898254Y-15467996D02*
X16898254Y-15525138D01*
X16898254Y-15525138D02*
X16888730Y-15544186D01*
X16888730Y-15544186D02*
X16879206Y-15553710D01*
X16879206Y-15553710D02*
X16860158Y-15563234D01*
X16860158Y-15563234D02*
X16831587Y-15563234D01*
X16955397Y-15429900D02*
X17031587Y-15429900D01*
X16983968Y-15363234D02*
X16983968Y-15534662D01*
X16983968Y-15534662D02*
X16993492Y-15553710D01*
X16993492Y-15553710D02*
X17012539Y-15563234D01*
X17012539Y-15563234D02*
X17031587Y-15563234D01*
X17088730Y-15553710D02*
X17107777Y-15563234D01*
X17107777Y-15563234D02*
X17145873Y-15563234D01*
X17145873Y-15563234D02*
X17164920Y-15553710D01*
X17164920Y-15553710D02*
X17174444Y-15534662D01*
X17174444Y-15534662D02*
X17174444Y-15525138D01*
X17174444Y-15525138D02*
X17164920Y-15506091D01*
X17164920Y-15506091D02*
X17145873Y-15496567D01*
X17145873Y-15496567D02*
X17117301Y-15496567D01*
X17117301Y-15496567D02*
X17098254Y-15487043D01*
X17098254Y-15487043D02*
X17088730Y-15467996D01*
X17088730Y-15467996D02*
X17088730Y-15458472D01*
X17088730Y-15458472D02*
X17098254Y-15439424D01*
X17098254Y-15439424D02*
X17117301Y-15429900D01*
X17117301Y-15429900D02*
X17145873Y-15429900D01*
X17145873Y-15429900D02*
X17164920Y-15439424D01*
X17241111Y-15639424D02*
X17250635Y-15629900D01*
X17250635Y-15629900D02*
X17269682Y-15601329D01*
X17269682Y-15601329D02*
X17279206Y-15582281D01*
X17279206Y-15582281D02*
X17288730Y-15553710D01*
X17288730Y-15553710D02*
X17298254Y-15506091D01*
X17298254Y-15506091D02*
X17298254Y-15467996D01*
X17298254Y-15467996D02*
X17288730Y-15420377D01*
X17288730Y-15420377D02*
X17279206Y-15391805D01*
X17279206Y-15391805D02*
X17269682Y-15372758D01*
X17269682Y-15372758D02*
X17250635Y-15344186D01*
X17250635Y-15344186D02*
X17241111Y-15334662D01*
D16*
X10812000Y-15770750D02*
X10847000Y-15735750D01*
X10812000Y-15700750D01*
X10777000Y-15735750D01*
X10812000Y-15770750D01*
D11*
X11145872Y-15627234D02*
X11164920Y-15627234D01*
X11164920Y-15627234D02*
X11183967Y-15636758D01*
X11183967Y-15636758D02*
X11193491Y-15646281D01*
X11193491Y-15646281D02*
X11203015Y-15665329D01*
X11203015Y-15665329D02*
X11212539Y-15703424D01*
X11212539Y-15703424D02*
X11212539Y-15751043D01*
X11212539Y-15751043D02*
X11203015Y-15789138D01*
X11203015Y-15789138D02*
X11193491Y-15808186D01*
X11193491Y-15808186D02*
X11183967Y-15817710D01*
X11183967Y-15817710D02*
X11164920Y-15827234D01*
X11164920Y-15827234D02*
X11145872Y-15827234D01*
X11145872Y-15827234D02*
X11126824Y-15817710D01*
X11126824Y-15817710D02*
X11117301Y-15808186D01*
X11117301Y-15808186D02*
X11107777Y-15789138D01*
X11107777Y-15789138D02*
X11098253Y-15751043D01*
X11098253Y-15751043D02*
X11098253Y-15703424D01*
X11098253Y-15703424D02*
X11107777Y-15665329D01*
X11107777Y-15665329D02*
X11117301Y-15646281D01*
X11117301Y-15646281D02*
X11126824Y-15636758D01*
X11126824Y-15636758D02*
X11145872Y-15627234D01*
X11298253Y-15808186D02*
X11307777Y-15817710D01*
X11307777Y-15817710D02*
X11298253Y-15827234D01*
X11298253Y-15827234D02*
X11288729Y-15817710D01*
X11288729Y-15817710D02*
X11298253Y-15808186D01*
X11298253Y-15808186D02*
X11298253Y-15827234D01*
X11374443Y-15627234D02*
X11507777Y-15627234D01*
X11507777Y-15627234D02*
X11422062Y-15827234D01*
X11622062Y-15627234D02*
X11641110Y-15627234D01*
X11641110Y-15627234D02*
X11660158Y-15636758D01*
X11660158Y-15636758D02*
X11669682Y-15646281D01*
X11669682Y-15646281D02*
X11679205Y-15665329D01*
X11679205Y-15665329D02*
X11688729Y-15703424D01*
X11688729Y-15703424D02*
X11688729Y-15751043D01*
X11688729Y-15751043D02*
X11679205Y-15789138D01*
X11679205Y-15789138D02*
X11669682Y-15808186D01*
X11669682Y-15808186D02*
X11660158Y-15817710D01*
X11660158Y-15817710D02*
X11641110Y-15827234D01*
X11641110Y-15827234D02*
X11622062Y-15827234D01*
X11622062Y-15827234D02*
X11603015Y-15817710D01*
X11603015Y-15817710D02*
X11593491Y-15808186D01*
X11593491Y-15808186D02*
X11583967Y-15789138D01*
X11583967Y-15789138D02*
X11574443Y-15751043D01*
X11574443Y-15751043D02*
X11574443Y-15703424D01*
X11574443Y-15703424D02*
X11583967Y-15665329D01*
X11583967Y-15665329D02*
X11593491Y-15646281D01*
X11593491Y-15646281D02*
X11603015Y-15636758D01*
X11603015Y-15636758D02*
X11622062Y-15627234D01*
X11812539Y-15627234D02*
X11831586Y-15627234D01*
X11831586Y-15627234D02*
X11850634Y-15636758D01*
X11850634Y-15636758D02*
X11860158Y-15646281D01*
X11860158Y-15646281D02*
X11869682Y-15665329D01*
X11869682Y-15665329D02*
X11879205Y-15703424D01*
X11879205Y-15703424D02*
X11879205Y-15751043D01*
X11879205Y-15751043D02*
X11869682Y-15789138D01*
X11869682Y-15789138D02*
X11860158Y-15808186D01*
X11860158Y-15808186D02*
X11850634Y-15817710D01*
X11850634Y-15817710D02*
X11831586Y-15827234D01*
X11831586Y-15827234D02*
X11812539Y-15827234D01*
X11812539Y-15827234D02*
X11793491Y-15817710D01*
X11793491Y-15817710D02*
X11783967Y-15808186D01*
X11783967Y-15808186D02*
X11774443Y-15789138D01*
X11774443Y-15789138D02*
X11764920Y-15751043D01*
X11764920Y-15751043D02*
X11764920Y-15703424D01*
X11764920Y-15703424D02*
X11774443Y-15665329D01*
X11774443Y-15665329D02*
X11783967Y-15646281D01*
X11783967Y-15646281D02*
X11793491Y-15636758D01*
X11793491Y-15636758D02*
X11812539Y-15627234D01*
X11964920Y-15827234D02*
X11964920Y-15693900D01*
X11964920Y-15712948D02*
X11974443Y-15703424D01*
X11974443Y-15703424D02*
X11993491Y-15693900D01*
X11993491Y-15693900D02*
X12022063Y-15693900D01*
X12022063Y-15693900D02*
X12041110Y-15703424D01*
X12041110Y-15703424D02*
X12050634Y-15722472D01*
X12050634Y-15722472D02*
X12050634Y-15827234D01*
X12050634Y-15722472D02*
X12060158Y-15703424D01*
X12060158Y-15703424D02*
X12079205Y-15693900D01*
X12079205Y-15693900D02*
X12107777Y-15693900D01*
X12107777Y-15693900D02*
X12126824Y-15703424D01*
X12126824Y-15703424D02*
X12136348Y-15722472D01*
X12136348Y-15722472D02*
X12136348Y-15827234D01*
X12231586Y-15827234D02*
X12231586Y-15693900D01*
X12231586Y-15712948D02*
X12241110Y-15703424D01*
X12241110Y-15703424D02*
X12260158Y-15693900D01*
X12260158Y-15693900D02*
X12288729Y-15693900D01*
X12288729Y-15693900D02*
X12307777Y-15703424D01*
X12307777Y-15703424D02*
X12317301Y-15722472D01*
X12317301Y-15722472D02*
X12317301Y-15827234D01*
X12317301Y-15722472D02*
X12326824Y-15703424D01*
X12326824Y-15703424D02*
X12345872Y-15693900D01*
X12345872Y-15693900D02*
X12374443Y-15693900D01*
X12374443Y-15693900D02*
X12393491Y-15703424D01*
X12393491Y-15703424D02*
X12403015Y-15722472D01*
X12403015Y-15722472D02*
X12403015Y-15827234D01*
X12793491Y-15617710D02*
X12622063Y-15874853D01*
X13050634Y-15627234D02*
X13069682Y-15627234D01*
X13069682Y-15627234D02*
X13088729Y-15636758D01*
X13088729Y-15636758D02*
X13098253Y-15646281D01*
X13098253Y-15646281D02*
X13107777Y-15665329D01*
X13107777Y-15665329D02*
X13117301Y-15703424D01*
X13117301Y-15703424D02*
X13117301Y-15751043D01*
X13117301Y-15751043D02*
X13107777Y-15789138D01*
X13107777Y-15789138D02*
X13098253Y-15808186D01*
X13098253Y-15808186D02*
X13088729Y-15817710D01*
X13088729Y-15817710D02*
X13069682Y-15827234D01*
X13069682Y-15827234D02*
X13050634Y-15827234D01*
X13050634Y-15827234D02*
X13031586Y-15817710D01*
X13031586Y-15817710D02*
X13022063Y-15808186D01*
X13022063Y-15808186D02*
X13012539Y-15789138D01*
X13012539Y-15789138D02*
X13003015Y-15751043D01*
X13003015Y-15751043D02*
X13003015Y-15703424D01*
X13003015Y-15703424D02*
X13012539Y-15665329D01*
X13012539Y-15665329D02*
X13022063Y-15646281D01*
X13022063Y-15646281D02*
X13031586Y-15636758D01*
X13031586Y-15636758D02*
X13050634Y-15627234D01*
X13203015Y-15808186D02*
X13212539Y-15817710D01*
X13212539Y-15817710D02*
X13203015Y-15827234D01*
X13203015Y-15827234D02*
X13193491Y-15817710D01*
X13193491Y-15817710D02*
X13203015Y-15808186D01*
X13203015Y-15808186D02*
X13203015Y-15827234D01*
X13336348Y-15627234D02*
X13355396Y-15627234D01*
X13355396Y-15627234D02*
X13374444Y-15636758D01*
X13374444Y-15636758D02*
X13383967Y-15646281D01*
X13383967Y-15646281D02*
X13393491Y-15665329D01*
X13393491Y-15665329D02*
X13403015Y-15703424D01*
X13403015Y-15703424D02*
X13403015Y-15751043D01*
X13403015Y-15751043D02*
X13393491Y-15789138D01*
X13393491Y-15789138D02*
X13383967Y-15808186D01*
X13383967Y-15808186D02*
X13374444Y-15817710D01*
X13374444Y-15817710D02*
X13355396Y-15827234D01*
X13355396Y-15827234D02*
X13336348Y-15827234D01*
X13336348Y-15827234D02*
X13317301Y-15817710D01*
X13317301Y-15817710D02*
X13307777Y-15808186D01*
X13307777Y-15808186D02*
X13298253Y-15789138D01*
X13298253Y-15789138D02*
X13288729Y-15751043D01*
X13288729Y-15751043D02*
X13288729Y-15703424D01*
X13288729Y-15703424D02*
X13298253Y-15665329D01*
X13298253Y-15665329D02*
X13307777Y-15646281D01*
X13307777Y-15646281D02*
X13317301Y-15636758D01*
X13317301Y-15636758D02*
X13336348Y-15627234D01*
X13479206Y-15646281D02*
X13488729Y-15636758D01*
X13488729Y-15636758D02*
X13507777Y-15627234D01*
X13507777Y-15627234D02*
X13555396Y-15627234D01*
X13555396Y-15627234D02*
X13574444Y-15636758D01*
X13574444Y-15636758D02*
X13583967Y-15646281D01*
X13583967Y-15646281D02*
X13593491Y-15665329D01*
X13593491Y-15665329D02*
X13593491Y-15684377D01*
X13593491Y-15684377D02*
X13583967Y-15712948D01*
X13583967Y-15712948D02*
X13469682Y-15827234D01*
X13469682Y-15827234D02*
X13593491Y-15827234D01*
X13660158Y-15627234D02*
X13793491Y-15627234D01*
X13793491Y-15627234D02*
X13707777Y-15827234D01*
X13955396Y-15627234D02*
X13917301Y-15627234D01*
X13917301Y-15627234D02*
X13898253Y-15636758D01*
X13898253Y-15636758D02*
X13888729Y-15646281D01*
X13888729Y-15646281D02*
X13869682Y-15674853D01*
X13869682Y-15674853D02*
X13860158Y-15712948D01*
X13860158Y-15712948D02*
X13860158Y-15789138D01*
X13860158Y-15789138D02*
X13869682Y-15808186D01*
X13869682Y-15808186D02*
X13879206Y-15817710D01*
X13879206Y-15817710D02*
X13898253Y-15827234D01*
X13898253Y-15827234D02*
X13936348Y-15827234D01*
X13936348Y-15827234D02*
X13955396Y-15817710D01*
X13955396Y-15817710D02*
X13964920Y-15808186D01*
X13964920Y-15808186D02*
X13974444Y-15789138D01*
X13974444Y-15789138D02*
X13974444Y-15741519D01*
X13974444Y-15741519D02*
X13964920Y-15722472D01*
X13964920Y-15722472D02*
X13955396Y-15712948D01*
X13955396Y-15712948D02*
X13936348Y-15703424D01*
X13936348Y-15703424D02*
X13898253Y-15703424D01*
X13898253Y-15703424D02*
X13879206Y-15712948D01*
X13879206Y-15712948D02*
X13869682Y-15722472D01*
X13869682Y-15722472D02*
X13860158Y-15741519D01*
X14050634Y-15627234D02*
X14050634Y-15665329D01*
X14126825Y-15627234D02*
X14126825Y-15665329D01*
X14422063Y-15903424D02*
X14412539Y-15893900D01*
X14412539Y-15893900D02*
X14393491Y-15865329D01*
X14393491Y-15865329D02*
X14383968Y-15846281D01*
X14383968Y-15846281D02*
X14374444Y-15817710D01*
X14374444Y-15817710D02*
X14364920Y-15770091D01*
X14364920Y-15770091D02*
X14364920Y-15731996D01*
X14364920Y-15731996D02*
X14374444Y-15684377D01*
X14374444Y-15684377D02*
X14383968Y-15655805D01*
X14383968Y-15655805D02*
X14393491Y-15636758D01*
X14393491Y-15636758D02*
X14412539Y-15608186D01*
X14412539Y-15608186D02*
X14422063Y-15598662D01*
X14488729Y-15646281D02*
X14498253Y-15636758D01*
X14498253Y-15636758D02*
X14517301Y-15627234D01*
X14517301Y-15627234D02*
X14564920Y-15627234D01*
X14564920Y-15627234D02*
X14583968Y-15636758D01*
X14583968Y-15636758D02*
X14593491Y-15646281D01*
X14593491Y-15646281D02*
X14603015Y-15665329D01*
X14603015Y-15665329D02*
X14603015Y-15684377D01*
X14603015Y-15684377D02*
X14593491Y-15712948D01*
X14593491Y-15712948D02*
X14479206Y-15827234D01*
X14479206Y-15827234D02*
X14603015Y-15827234D01*
X14726825Y-15627234D02*
X14745872Y-15627234D01*
X14745872Y-15627234D02*
X14764920Y-15636758D01*
X14764920Y-15636758D02*
X14774444Y-15646281D01*
X14774444Y-15646281D02*
X14783968Y-15665329D01*
X14783968Y-15665329D02*
X14793491Y-15703424D01*
X14793491Y-15703424D02*
X14793491Y-15751043D01*
X14793491Y-15751043D02*
X14783968Y-15789138D01*
X14783968Y-15789138D02*
X14774444Y-15808186D01*
X14774444Y-15808186D02*
X14764920Y-15817710D01*
X14764920Y-15817710D02*
X14745872Y-15827234D01*
X14745872Y-15827234D02*
X14726825Y-15827234D01*
X14726825Y-15827234D02*
X14707777Y-15817710D01*
X14707777Y-15817710D02*
X14698253Y-15808186D01*
X14698253Y-15808186D02*
X14688729Y-15789138D01*
X14688729Y-15789138D02*
X14679206Y-15751043D01*
X14679206Y-15751043D02*
X14679206Y-15703424D01*
X14679206Y-15703424D02*
X14688729Y-15665329D01*
X14688729Y-15665329D02*
X14698253Y-15646281D01*
X14698253Y-15646281D02*
X14707777Y-15636758D01*
X14707777Y-15636758D02*
X14726825Y-15627234D01*
X15031587Y-15827234D02*
X15031587Y-15627234D01*
X15117301Y-15827234D02*
X15117301Y-15722472D01*
X15117301Y-15722472D02*
X15107777Y-15703424D01*
X15107777Y-15703424D02*
X15088730Y-15693900D01*
X15088730Y-15693900D02*
X15060158Y-15693900D01*
X15060158Y-15693900D02*
X15041110Y-15703424D01*
X15041110Y-15703424D02*
X15031587Y-15712948D01*
X15241110Y-15827234D02*
X15222063Y-15817710D01*
X15222063Y-15817710D02*
X15212539Y-15808186D01*
X15212539Y-15808186D02*
X15203015Y-15789138D01*
X15203015Y-15789138D02*
X15203015Y-15731996D01*
X15203015Y-15731996D02*
X15212539Y-15712948D01*
X15212539Y-15712948D02*
X15222063Y-15703424D01*
X15222063Y-15703424D02*
X15241110Y-15693900D01*
X15241110Y-15693900D02*
X15269682Y-15693900D01*
X15269682Y-15693900D02*
X15288730Y-15703424D01*
X15288730Y-15703424D02*
X15298253Y-15712948D01*
X15298253Y-15712948D02*
X15307777Y-15731996D01*
X15307777Y-15731996D02*
X15307777Y-15789138D01*
X15307777Y-15789138D02*
X15298253Y-15808186D01*
X15298253Y-15808186D02*
X15288730Y-15817710D01*
X15288730Y-15817710D02*
X15269682Y-15827234D01*
X15269682Y-15827234D02*
X15241110Y-15827234D01*
X15422063Y-15827234D02*
X15403015Y-15817710D01*
X15403015Y-15817710D02*
X15393491Y-15798662D01*
X15393491Y-15798662D02*
X15393491Y-15627234D01*
X15574444Y-15817710D02*
X15555396Y-15827234D01*
X15555396Y-15827234D02*
X15517301Y-15827234D01*
X15517301Y-15827234D02*
X15498253Y-15817710D01*
X15498253Y-15817710D02*
X15488730Y-15798662D01*
X15488730Y-15798662D02*
X15488730Y-15722472D01*
X15488730Y-15722472D02*
X15498253Y-15703424D01*
X15498253Y-15703424D02*
X15517301Y-15693900D01*
X15517301Y-15693900D02*
X15555396Y-15693900D01*
X15555396Y-15693900D02*
X15574444Y-15703424D01*
X15574444Y-15703424D02*
X15583968Y-15722472D01*
X15583968Y-15722472D02*
X15583968Y-15741519D01*
X15583968Y-15741519D02*
X15488730Y-15760567D01*
X15660158Y-15817710D02*
X15679206Y-15827234D01*
X15679206Y-15827234D02*
X15717301Y-15827234D01*
X15717301Y-15827234D02*
X15736349Y-15817710D01*
X15736349Y-15817710D02*
X15745872Y-15798662D01*
X15745872Y-15798662D02*
X15745872Y-15789138D01*
X15745872Y-15789138D02*
X15736349Y-15770091D01*
X15736349Y-15770091D02*
X15717301Y-15760567D01*
X15717301Y-15760567D02*
X15688730Y-15760567D01*
X15688730Y-15760567D02*
X15669682Y-15751043D01*
X15669682Y-15751043D02*
X15660158Y-15731996D01*
X15660158Y-15731996D02*
X15660158Y-15722472D01*
X15660158Y-15722472D02*
X15669682Y-15703424D01*
X15669682Y-15703424D02*
X15688730Y-15693900D01*
X15688730Y-15693900D02*
X15717301Y-15693900D01*
X15717301Y-15693900D02*
X15736349Y-15703424D01*
X15812539Y-15903424D02*
X15822063Y-15893900D01*
X15822063Y-15893900D02*
X15841111Y-15865329D01*
X15841111Y-15865329D02*
X15850634Y-15846281D01*
X15850634Y-15846281D02*
X15860158Y-15817710D01*
X15860158Y-15817710D02*
X15869682Y-15770091D01*
X15869682Y-15770091D02*
X15869682Y-15731996D01*
X15869682Y-15731996D02*
X15860158Y-15684377D01*
X15860158Y-15684377D02*
X15850634Y-15655805D01*
X15850634Y-15655805D02*
X15841111Y-15636758D01*
X15841111Y-15636758D02*
X15822063Y-15608186D01*
X15822063Y-15608186D02*
X15812539Y-15598662D01*
D17*
X10767000Y-15959750D02*
X10847000Y-16039750D01*
X10847000Y-15959750D02*
X10767000Y-16039750D01*
X10847000Y-15999750D02*
G75*
G03*
X10847000Y-15999750I-40000J0D01*
G01*
D11*
X11145872Y-15891234D02*
X11164920Y-15891234D01*
X11164920Y-15891234D02*
X11183967Y-15900758D01*
X11183967Y-15900758D02*
X11193491Y-15910281D01*
X11193491Y-15910281D02*
X11203015Y-15929329D01*
X11203015Y-15929329D02*
X11212539Y-15967424D01*
X11212539Y-15967424D02*
X11212539Y-16015043D01*
X11212539Y-16015043D02*
X11203015Y-16053138D01*
X11203015Y-16053138D02*
X11193491Y-16072186D01*
X11193491Y-16072186D02*
X11183967Y-16081710D01*
X11183967Y-16081710D02*
X11164920Y-16091234D01*
X11164920Y-16091234D02*
X11145872Y-16091234D01*
X11145872Y-16091234D02*
X11126824Y-16081710D01*
X11126824Y-16081710D02*
X11117301Y-16072186D01*
X11117301Y-16072186D02*
X11107777Y-16053138D01*
X11107777Y-16053138D02*
X11098253Y-16015043D01*
X11098253Y-16015043D02*
X11098253Y-15967424D01*
X11098253Y-15967424D02*
X11107777Y-15929329D01*
X11107777Y-15929329D02*
X11117301Y-15910281D01*
X11117301Y-15910281D02*
X11126824Y-15900758D01*
X11126824Y-15900758D02*
X11145872Y-15891234D01*
X11298253Y-16072186D02*
X11307777Y-16081710D01*
X11307777Y-16081710D02*
X11298253Y-16091234D01*
X11298253Y-16091234D02*
X11288729Y-16081710D01*
X11288729Y-16081710D02*
X11298253Y-16072186D01*
X11298253Y-16072186D02*
X11298253Y-16091234D01*
X11422062Y-15976948D02*
X11403015Y-15967424D01*
X11403015Y-15967424D02*
X11393491Y-15957900D01*
X11393491Y-15957900D02*
X11383967Y-15938853D01*
X11383967Y-15938853D02*
X11383967Y-15929329D01*
X11383967Y-15929329D02*
X11393491Y-15910281D01*
X11393491Y-15910281D02*
X11403015Y-15900758D01*
X11403015Y-15900758D02*
X11422062Y-15891234D01*
X11422062Y-15891234D02*
X11460158Y-15891234D01*
X11460158Y-15891234D02*
X11479205Y-15900758D01*
X11479205Y-15900758D02*
X11488729Y-15910281D01*
X11488729Y-15910281D02*
X11498253Y-15929329D01*
X11498253Y-15929329D02*
X11498253Y-15938853D01*
X11498253Y-15938853D02*
X11488729Y-15957900D01*
X11488729Y-15957900D02*
X11479205Y-15967424D01*
X11479205Y-15967424D02*
X11460158Y-15976948D01*
X11460158Y-15976948D02*
X11422062Y-15976948D01*
X11422062Y-15976948D02*
X11403015Y-15986472D01*
X11403015Y-15986472D02*
X11393491Y-15995996D01*
X11393491Y-15995996D02*
X11383967Y-16015043D01*
X11383967Y-16015043D02*
X11383967Y-16053138D01*
X11383967Y-16053138D02*
X11393491Y-16072186D01*
X11393491Y-16072186D02*
X11403015Y-16081710D01*
X11403015Y-16081710D02*
X11422062Y-16091234D01*
X11422062Y-16091234D02*
X11460158Y-16091234D01*
X11460158Y-16091234D02*
X11479205Y-16081710D01*
X11479205Y-16081710D02*
X11488729Y-16072186D01*
X11488729Y-16072186D02*
X11498253Y-16053138D01*
X11498253Y-16053138D02*
X11498253Y-16015043D01*
X11498253Y-16015043D02*
X11488729Y-15995996D01*
X11488729Y-15995996D02*
X11479205Y-15986472D01*
X11479205Y-15986472D02*
X11460158Y-15976948D01*
X11622062Y-15891234D02*
X11641110Y-15891234D01*
X11641110Y-15891234D02*
X11660158Y-15900758D01*
X11660158Y-15900758D02*
X11669682Y-15910281D01*
X11669682Y-15910281D02*
X11679205Y-15929329D01*
X11679205Y-15929329D02*
X11688729Y-15967424D01*
X11688729Y-15967424D02*
X11688729Y-16015043D01*
X11688729Y-16015043D02*
X11679205Y-16053138D01*
X11679205Y-16053138D02*
X11669682Y-16072186D01*
X11669682Y-16072186D02*
X11660158Y-16081710D01*
X11660158Y-16081710D02*
X11641110Y-16091234D01*
X11641110Y-16091234D02*
X11622062Y-16091234D01*
X11622062Y-16091234D02*
X11603015Y-16081710D01*
X11603015Y-16081710D02*
X11593491Y-16072186D01*
X11593491Y-16072186D02*
X11583967Y-16053138D01*
X11583967Y-16053138D02*
X11574443Y-16015043D01*
X11574443Y-16015043D02*
X11574443Y-15967424D01*
X11574443Y-15967424D02*
X11583967Y-15929329D01*
X11583967Y-15929329D02*
X11593491Y-15910281D01*
X11593491Y-15910281D02*
X11603015Y-15900758D01*
X11603015Y-15900758D02*
X11622062Y-15891234D01*
X11812539Y-15891234D02*
X11831586Y-15891234D01*
X11831586Y-15891234D02*
X11850634Y-15900758D01*
X11850634Y-15900758D02*
X11860158Y-15910281D01*
X11860158Y-15910281D02*
X11869682Y-15929329D01*
X11869682Y-15929329D02*
X11879205Y-15967424D01*
X11879205Y-15967424D02*
X11879205Y-16015043D01*
X11879205Y-16015043D02*
X11869682Y-16053138D01*
X11869682Y-16053138D02*
X11860158Y-16072186D01*
X11860158Y-16072186D02*
X11850634Y-16081710D01*
X11850634Y-16081710D02*
X11831586Y-16091234D01*
X11831586Y-16091234D02*
X11812539Y-16091234D01*
X11812539Y-16091234D02*
X11793491Y-16081710D01*
X11793491Y-16081710D02*
X11783967Y-16072186D01*
X11783967Y-16072186D02*
X11774443Y-16053138D01*
X11774443Y-16053138D02*
X11764920Y-16015043D01*
X11764920Y-16015043D02*
X11764920Y-15967424D01*
X11764920Y-15967424D02*
X11774443Y-15929329D01*
X11774443Y-15929329D02*
X11783967Y-15910281D01*
X11783967Y-15910281D02*
X11793491Y-15900758D01*
X11793491Y-15900758D02*
X11812539Y-15891234D01*
X11964920Y-16091234D02*
X11964920Y-15957900D01*
X11964920Y-15976948D02*
X11974443Y-15967424D01*
X11974443Y-15967424D02*
X11993491Y-15957900D01*
X11993491Y-15957900D02*
X12022063Y-15957900D01*
X12022063Y-15957900D02*
X12041110Y-15967424D01*
X12041110Y-15967424D02*
X12050634Y-15986472D01*
X12050634Y-15986472D02*
X12050634Y-16091234D01*
X12050634Y-15986472D02*
X12060158Y-15967424D01*
X12060158Y-15967424D02*
X12079205Y-15957900D01*
X12079205Y-15957900D02*
X12107777Y-15957900D01*
X12107777Y-15957900D02*
X12126824Y-15967424D01*
X12126824Y-15967424D02*
X12136348Y-15986472D01*
X12136348Y-15986472D02*
X12136348Y-16091234D01*
X12231586Y-16091234D02*
X12231586Y-15957900D01*
X12231586Y-15976948D02*
X12241110Y-15967424D01*
X12241110Y-15967424D02*
X12260158Y-15957900D01*
X12260158Y-15957900D02*
X12288729Y-15957900D01*
X12288729Y-15957900D02*
X12307777Y-15967424D01*
X12307777Y-15967424D02*
X12317301Y-15986472D01*
X12317301Y-15986472D02*
X12317301Y-16091234D01*
X12317301Y-15986472D02*
X12326824Y-15967424D01*
X12326824Y-15967424D02*
X12345872Y-15957900D01*
X12345872Y-15957900D02*
X12374443Y-15957900D01*
X12374443Y-15957900D02*
X12393491Y-15967424D01*
X12393491Y-15967424D02*
X12403015Y-15986472D01*
X12403015Y-15986472D02*
X12403015Y-16091234D01*
X12793491Y-15881710D02*
X12622063Y-16138853D01*
X13050634Y-15891234D02*
X13069682Y-15891234D01*
X13069682Y-15891234D02*
X13088729Y-15900758D01*
X13088729Y-15900758D02*
X13098253Y-15910281D01*
X13098253Y-15910281D02*
X13107777Y-15929329D01*
X13107777Y-15929329D02*
X13117301Y-15967424D01*
X13117301Y-15967424D02*
X13117301Y-16015043D01*
X13117301Y-16015043D02*
X13107777Y-16053138D01*
X13107777Y-16053138D02*
X13098253Y-16072186D01*
X13098253Y-16072186D02*
X13088729Y-16081710D01*
X13088729Y-16081710D02*
X13069682Y-16091234D01*
X13069682Y-16091234D02*
X13050634Y-16091234D01*
X13050634Y-16091234D02*
X13031586Y-16081710D01*
X13031586Y-16081710D02*
X13022063Y-16072186D01*
X13022063Y-16072186D02*
X13012539Y-16053138D01*
X13012539Y-16053138D02*
X13003015Y-16015043D01*
X13003015Y-16015043D02*
X13003015Y-15967424D01*
X13003015Y-15967424D02*
X13012539Y-15929329D01*
X13012539Y-15929329D02*
X13022063Y-15910281D01*
X13022063Y-15910281D02*
X13031586Y-15900758D01*
X13031586Y-15900758D02*
X13050634Y-15891234D01*
X13203015Y-16072186D02*
X13212539Y-16081710D01*
X13212539Y-16081710D02*
X13203015Y-16091234D01*
X13203015Y-16091234D02*
X13193491Y-16081710D01*
X13193491Y-16081710D02*
X13203015Y-16072186D01*
X13203015Y-16072186D02*
X13203015Y-16091234D01*
X13336348Y-15891234D02*
X13355396Y-15891234D01*
X13355396Y-15891234D02*
X13374444Y-15900758D01*
X13374444Y-15900758D02*
X13383967Y-15910281D01*
X13383967Y-15910281D02*
X13393491Y-15929329D01*
X13393491Y-15929329D02*
X13403015Y-15967424D01*
X13403015Y-15967424D02*
X13403015Y-16015043D01*
X13403015Y-16015043D02*
X13393491Y-16053138D01*
X13393491Y-16053138D02*
X13383967Y-16072186D01*
X13383967Y-16072186D02*
X13374444Y-16081710D01*
X13374444Y-16081710D02*
X13355396Y-16091234D01*
X13355396Y-16091234D02*
X13336348Y-16091234D01*
X13336348Y-16091234D02*
X13317301Y-16081710D01*
X13317301Y-16081710D02*
X13307777Y-16072186D01*
X13307777Y-16072186D02*
X13298253Y-16053138D01*
X13298253Y-16053138D02*
X13288729Y-16015043D01*
X13288729Y-16015043D02*
X13288729Y-15967424D01*
X13288729Y-15967424D02*
X13298253Y-15929329D01*
X13298253Y-15929329D02*
X13307777Y-15910281D01*
X13307777Y-15910281D02*
X13317301Y-15900758D01*
X13317301Y-15900758D02*
X13336348Y-15891234D01*
X13469682Y-15891234D02*
X13593491Y-15891234D01*
X13593491Y-15891234D02*
X13526825Y-15967424D01*
X13526825Y-15967424D02*
X13555396Y-15967424D01*
X13555396Y-15967424D02*
X13574444Y-15976948D01*
X13574444Y-15976948D02*
X13583967Y-15986472D01*
X13583967Y-15986472D02*
X13593491Y-16005519D01*
X13593491Y-16005519D02*
X13593491Y-16053138D01*
X13593491Y-16053138D02*
X13583967Y-16072186D01*
X13583967Y-16072186D02*
X13574444Y-16081710D01*
X13574444Y-16081710D02*
X13555396Y-16091234D01*
X13555396Y-16091234D02*
X13498253Y-16091234D01*
X13498253Y-16091234D02*
X13479206Y-16081710D01*
X13479206Y-16081710D02*
X13469682Y-16072186D01*
X13783967Y-16091234D02*
X13669682Y-16091234D01*
X13726825Y-16091234D02*
X13726825Y-15891234D01*
X13726825Y-15891234D02*
X13707777Y-15919805D01*
X13707777Y-15919805D02*
X13688729Y-15938853D01*
X13688729Y-15938853D02*
X13669682Y-15948377D01*
X13964920Y-15891234D02*
X13869682Y-15891234D01*
X13869682Y-15891234D02*
X13860158Y-15986472D01*
X13860158Y-15986472D02*
X13869682Y-15976948D01*
X13869682Y-15976948D02*
X13888729Y-15967424D01*
X13888729Y-15967424D02*
X13936348Y-15967424D01*
X13936348Y-15967424D02*
X13955396Y-15976948D01*
X13955396Y-15976948D02*
X13964920Y-15986472D01*
X13964920Y-15986472D02*
X13974444Y-16005519D01*
X13974444Y-16005519D02*
X13974444Y-16053138D01*
X13974444Y-16053138D02*
X13964920Y-16072186D01*
X13964920Y-16072186D02*
X13955396Y-16081710D01*
X13955396Y-16081710D02*
X13936348Y-16091234D01*
X13936348Y-16091234D02*
X13888729Y-16091234D01*
X13888729Y-16091234D02*
X13869682Y-16081710D01*
X13869682Y-16081710D02*
X13860158Y-16072186D01*
X14050634Y-15891234D02*
X14050634Y-15929329D01*
X14126825Y-15891234D02*
X14126825Y-15929329D01*
X14422063Y-16167424D02*
X14412539Y-16157900D01*
X14412539Y-16157900D02*
X14393491Y-16129329D01*
X14393491Y-16129329D02*
X14383968Y-16110281D01*
X14383968Y-16110281D02*
X14374444Y-16081710D01*
X14374444Y-16081710D02*
X14364920Y-16034091D01*
X14364920Y-16034091D02*
X14364920Y-15995996D01*
X14364920Y-15995996D02*
X14374444Y-15948377D01*
X14374444Y-15948377D02*
X14383968Y-15919805D01*
X14383968Y-15919805D02*
X14393491Y-15900758D01*
X14393491Y-15900758D02*
X14412539Y-15872186D01*
X14412539Y-15872186D02*
X14422063Y-15862662D01*
X14526825Y-15976948D02*
X14507777Y-15967424D01*
X14507777Y-15967424D02*
X14498253Y-15957900D01*
X14498253Y-15957900D02*
X14488729Y-15938853D01*
X14488729Y-15938853D02*
X14488729Y-15929329D01*
X14488729Y-15929329D02*
X14498253Y-15910281D01*
X14498253Y-15910281D02*
X14507777Y-15900758D01*
X14507777Y-15900758D02*
X14526825Y-15891234D01*
X14526825Y-15891234D02*
X14564920Y-15891234D01*
X14564920Y-15891234D02*
X14583968Y-15900758D01*
X14583968Y-15900758D02*
X14593491Y-15910281D01*
X14593491Y-15910281D02*
X14603015Y-15929329D01*
X14603015Y-15929329D02*
X14603015Y-15938853D01*
X14603015Y-15938853D02*
X14593491Y-15957900D01*
X14593491Y-15957900D02*
X14583968Y-15967424D01*
X14583968Y-15967424D02*
X14564920Y-15976948D01*
X14564920Y-15976948D02*
X14526825Y-15976948D01*
X14526825Y-15976948D02*
X14507777Y-15986472D01*
X14507777Y-15986472D02*
X14498253Y-15995996D01*
X14498253Y-15995996D02*
X14488729Y-16015043D01*
X14488729Y-16015043D02*
X14488729Y-16053138D01*
X14488729Y-16053138D02*
X14498253Y-16072186D01*
X14498253Y-16072186D02*
X14507777Y-16081710D01*
X14507777Y-16081710D02*
X14526825Y-16091234D01*
X14526825Y-16091234D02*
X14564920Y-16091234D01*
X14564920Y-16091234D02*
X14583968Y-16081710D01*
X14583968Y-16081710D02*
X14593491Y-16072186D01*
X14593491Y-16072186D02*
X14603015Y-16053138D01*
X14603015Y-16053138D02*
X14603015Y-16015043D01*
X14603015Y-16015043D02*
X14593491Y-15995996D01*
X14593491Y-15995996D02*
X14583968Y-15986472D01*
X14583968Y-15986472D02*
X14564920Y-15976948D01*
X14841110Y-16091234D02*
X14841110Y-15891234D01*
X14926825Y-16091234D02*
X14926825Y-15986472D01*
X14926825Y-15986472D02*
X14917301Y-15967424D01*
X14917301Y-15967424D02*
X14898253Y-15957900D01*
X14898253Y-15957900D02*
X14869682Y-15957900D01*
X14869682Y-15957900D02*
X14850634Y-15967424D01*
X14850634Y-15967424D02*
X14841110Y-15976948D01*
X15050634Y-16091234D02*
X15031587Y-16081710D01*
X15031587Y-16081710D02*
X15022063Y-16072186D01*
X15022063Y-16072186D02*
X15012539Y-16053138D01*
X15012539Y-16053138D02*
X15012539Y-15995996D01*
X15012539Y-15995996D02*
X15022063Y-15976948D01*
X15022063Y-15976948D02*
X15031587Y-15967424D01*
X15031587Y-15967424D02*
X15050634Y-15957900D01*
X15050634Y-15957900D02*
X15079206Y-15957900D01*
X15079206Y-15957900D02*
X15098253Y-15967424D01*
X15098253Y-15967424D02*
X15107777Y-15976948D01*
X15107777Y-15976948D02*
X15117301Y-15995996D01*
X15117301Y-15995996D02*
X15117301Y-16053138D01*
X15117301Y-16053138D02*
X15107777Y-16072186D01*
X15107777Y-16072186D02*
X15098253Y-16081710D01*
X15098253Y-16081710D02*
X15079206Y-16091234D01*
X15079206Y-16091234D02*
X15050634Y-16091234D01*
X15231587Y-16091234D02*
X15212539Y-16081710D01*
X15212539Y-16081710D02*
X15203015Y-16062662D01*
X15203015Y-16062662D02*
X15203015Y-15891234D01*
X15383968Y-16081710D02*
X15364920Y-16091234D01*
X15364920Y-16091234D02*
X15326825Y-16091234D01*
X15326825Y-16091234D02*
X15307777Y-16081710D01*
X15307777Y-16081710D02*
X15298253Y-16062662D01*
X15298253Y-16062662D02*
X15298253Y-15986472D01*
X15298253Y-15986472D02*
X15307777Y-15967424D01*
X15307777Y-15967424D02*
X15326825Y-15957900D01*
X15326825Y-15957900D02*
X15364920Y-15957900D01*
X15364920Y-15957900D02*
X15383968Y-15967424D01*
X15383968Y-15967424D02*
X15393491Y-15986472D01*
X15393491Y-15986472D02*
X15393491Y-16005519D01*
X15393491Y-16005519D02*
X15298253Y-16024567D01*
X15469682Y-16081710D02*
X15488730Y-16091234D01*
X15488730Y-16091234D02*
X15526825Y-16091234D01*
X15526825Y-16091234D02*
X15545872Y-16081710D01*
X15545872Y-16081710D02*
X15555396Y-16062662D01*
X15555396Y-16062662D02*
X15555396Y-16053138D01*
X15555396Y-16053138D02*
X15545872Y-16034091D01*
X15545872Y-16034091D02*
X15526825Y-16024567D01*
X15526825Y-16024567D02*
X15498253Y-16024567D01*
X15498253Y-16024567D02*
X15479206Y-16015043D01*
X15479206Y-16015043D02*
X15469682Y-15995996D01*
X15469682Y-15995996D02*
X15469682Y-15986472D01*
X15469682Y-15986472D02*
X15479206Y-15967424D01*
X15479206Y-15967424D02*
X15498253Y-15957900D01*
X15498253Y-15957900D02*
X15526825Y-15957900D01*
X15526825Y-15957900D02*
X15545872Y-15967424D01*
X15622063Y-16167424D02*
X15631587Y-16157900D01*
X15631587Y-16157900D02*
X15650634Y-16129329D01*
X15650634Y-16129329D02*
X15660158Y-16110281D01*
X15660158Y-16110281D02*
X15669682Y-16081710D01*
X15669682Y-16081710D02*
X15679206Y-16034091D01*
X15679206Y-16034091D02*
X15679206Y-15995996D01*
X15679206Y-15995996D02*
X15669682Y-15948377D01*
X15669682Y-15948377D02*
X15660158Y-15919805D01*
X15660158Y-15919805D02*
X15650634Y-15900758D01*
X15650634Y-15900758D02*
X15631587Y-15872186D01*
X15631587Y-15872186D02*
X15622063Y-15862662D01*
D10*
X10747000Y-16213750D02*
X10847000Y-16313750D01*
X10847000Y-16213750D02*
X10747000Y-16313750D01*
X10797000Y-16213750D02*
X10797000Y-16313750D01*
X10747000Y-16263750D02*
X10847000Y-16263750D01*
D11*
X11212539Y-16355234D02*
X11098253Y-16355234D01*
X11155396Y-16355234D02*
X11155396Y-16155234D01*
X11155396Y-16155234D02*
X11136348Y-16183805D01*
X11136348Y-16183805D02*
X11117301Y-16202853D01*
X11117301Y-16202853D02*
X11098253Y-16212377D01*
X11298253Y-16336186D02*
X11307777Y-16345710D01*
X11307777Y-16345710D02*
X11298253Y-16355234D01*
X11298253Y-16355234D02*
X11288729Y-16345710D01*
X11288729Y-16345710D02*
X11298253Y-16336186D01*
X11298253Y-16336186D02*
X11298253Y-16355234D01*
X11431586Y-16155234D02*
X11450634Y-16155234D01*
X11450634Y-16155234D02*
X11469682Y-16164758D01*
X11469682Y-16164758D02*
X11479205Y-16174281D01*
X11479205Y-16174281D02*
X11488729Y-16193329D01*
X11488729Y-16193329D02*
X11498253Y-16231424D01*
X11498253Y-16231424D02*
X11498253Y-16279043D01*
X11498253Y-16279043D02*
X11488729Y-16317138D01*
X11488729Y-16317138D02*
X11479205Y-16336186D01*
X11479205Y-16336186D02*
X11469682Y-16345710D01*
X11469682Y-16345710D02*
X11450634Y-16355234D01*
X11450634Y-16355234D02*
X11431586Y-16355234D01*
X11431586Y-16355234D02*
X11412539Y-16345710D01*
X11412539Y-16345710D02*
X11403015Y-16336186D01*
X11403015Y-16336186D02*
X11393491Y-16317138D01*
X11393491Y-16317138D02*
X11383967Y-16279043D01*
X11383967Y-16279043D02*
X11383967Y-16231424D01*
X11383967Y-16231424D02*
X11393491Y-16193329D01*
X11393491Y-16193329D02*
X11403015Y-16174281D01*
X11403015Y-16174281D02*
X11412539Y-16164758D01*
X11412539Y-16164758D02*
X11431586Y-16155234D01*
X11622062Y-16155234D02*
X11641110Y-16155234D01*
X11641110Y-16155234D02*
X11660158Y-16164758D01*
X11660158Y-16164758D02*
X11669682Y-16174281D01*
X11669682Y-16174281D02*
X11679205Y-16193329D01*
X11679205Y-16193329D02*
X11688729Y-16231424D01*
X11688729Y-16231424D02*
X11688729Y-16279043D01*
X11688729Y-16279043D02*
X11679205Y-16317138D01*
X11679205Y-16317138D02*
X11669682Y-16336186D01*
X11669682Y-16336186D02*
X11660158Y-16345710D01*
X11660158Y-16345710D02*
X11641110Y-16355234D01*
X11641110Y-16355234D02*
X11622062Y-16355234D01*
X11622062Y-16355234D02*
X11603015Y-16345710D01*
X11603015Y-16345710D02*
X11593491Y-16336186D01*
X11593491Y-16336186D02*
X11583967Y-16317138D01*
X11583967Y-16317138D02*
X11574443Y-16279043D01*
X11574443Y-16279043D02*
X11574443Y-16231424D01*
X11574443Y-16231424D02*
X11583967Y-16193329D01*
X11583967Y-16193329D02*
X11593491Y-16174281D01*
X11593491Y-16174281D02*
X11603015Y-16164758D01*
X11603015Y-16164758D02*
X11622062Y-16155234D01*
X11812539Y-16155234D02*
X11831586Y-16155234D01*
X11831586Y-16155234D02*
X11850634Y-16164758D01*
X11850634Y-16164758D02*
X11860158Y-16174281D01*
X11860158Y-16174281D02*
X11869682Y-16193329D01*
X11869682Y-16193329D02*
X11879205Y-16231424D01*
X11879205Y-16231424D02*
X11879205Y-16279043D01*
X11879205Y-16279043D02*
X11869682Y-16317138D01*
X11869682Y-16317138D02*
X11860158Y-16336186D01*
X11860158Y-16336186D02*
X11850634Y-16345710D01*
X11850634Y-16345710D02*
X11831586Y-16355234D01*
X11831586Y-16355234D02*
X11812539Y-16355234D01*
X11812539Y-16355234D02*
X11793491Y-16345710D01*
X11793491Y-16345710D02*
X11783967Y-16336186D01*
X11783967Y-16336186D02*
X11774443Y-16317138D01*
X11774443Y-16317138D02*
X11764920Y-16279043D01*
X11764920Y-16279043D02*
X11764920Y-16231424D01*
X11764920Y-16231424D02*
X11774443Y-16193329D01*
X11774443Y-16193329D02*
X11783967Y-16174281D01*
X11783967Y-16174281D02*
X11793491Y-16164758D01*
X11793491Y-16164758D02*
X11812539Y-16155234D01*
X11964920Y-16355234D02*
X11964920Y-16221900D01*
X11964920Y-16240948D02*
X11974443Y-16231424D01*
X11974443Y-16231424D02*
X11993491Y-16221900D01*
X11993491Y-16221900D02*
X12022063Y-16221900D01*
X12022063Y-16221900D02*
X12041110Y-16231424D01*
X12041110Y-16231424D02*
X12050634Y-16250472D01*
X12050634Y-16250472D02*
X12050634Y-16355234D01*
X12050634Y-16250472D02*
X12060158Y-16231424D01*
X12060158Y-16231424D02*
X12079205Y-16221900D01*
X12079205Y-16221900D02*
X12107777Y-16221900D01*
X12107777Y-16221900D02*
X12126824Y-16231424D01*
X12126824Y-16231424D02*
X12136348Y-16250472D01*
X12136348Y-16250472D02*
X12136348Y-16355234D01*
X12231586Y-16355234D02*
X12231586Y-16221900D01*
X12231586Y-16240948D02*
X12241110Y-16231424D01*
X12241110Y-16231424D02*
X12260158Y-16221900D01*
X12260158Y-16221900D02*
X12288729Y-16221900D01*
X12288729Y-16221900D02*
X12307777Y-16231424D01*
X12307777Y-16231424D02*
X12317301Y-16250472D01*
X12317301Y-16250472D02*
X12317301Y-16355234D01*
X12317301Y-16250472D02*
X12326824Y-16231424D01*
X12326824Y-16231424D02*
X12345872Y-16221900D01*
X12345872Y-16221900D02*
X12374443Y-16221900D01*
X12374443Y-16221900D02*
X12393491Y-16231424D01*
X12393491Y-16231424D02*
X12403015Y-16250472D01*
X12403015Y-16250472D02*
X12403015Y-16355234D01*
X12793491Y-16145710D02*
X12622063Y-16402853D01*
X13050634Y-16155234D02*
X13069682Y-16155234D01*
X13069682Y-16155234D02*
X13088729Y-16164758D01*
X13088729Y-16164758D02*
X13098253Y-16174281D01*
X13098253Y-16174281D02*
X13107777Y-16193329D01*
X13107777Y-16193329D02*
X13117301Y-16231424D01*
X13117301Y-16231424D02*
X13117301Y-16279043D01*
X13117301Y-16279043D02*
X13107777Y-16317138D01*
X13107777Y-16317138D02*
X13098253Y-16336186D01*
X13098253Y-16336186D02*
X13088729Y-16345710D01*
X13088729Y-16345710D02*
X13069682Y-16355234D01*
X13069682Y-16355234D02*
X13050634Y-16355234D01*
X13050634Y-16355234D02*
X13031586Y-16345710D01*
X13031586Y-16345710D02*
X13022063Y-16336186D01*
X13022063Y-16336186D02*
X13012539Y-16317138D01*
X13012539Y-16317138D02*
X13003015Y-16279043D01*
X13003015Y-16279043D02*
X13003015Y-16231424D01*
X13003015Y-16231424D02*
X13012539Y-16193329D01*
X13012539Y-16193329D02*
X13022063Y-16174281D01*
X13022063Y-16174281D02*
X13031586Y-16164758D01*
X13031586Y-16164758D02*
X13050634Y-16155234D01*
X13203015Y-16336186D02*
X13212539Y-16345710D01*
X13212539Y-16345710D02*
X13203015Y-16355234D01*
X13203015Y-16355234D02*
X13193491Y-16345710D01*
X13193491Y-16345710D02*
X13203015Y-16336186D01*
X13203015Y-16336186D02*
X13203015Y-16355234D01*
X13336348Y-16155234D02*
X13355396Y-16155234D01*
X13355396Y-16155234D02*
X13374444Y-16164758D01*
X13374444Y-16164758D02*
X13383967Y-16174281D01*
X13383967Y-16174281D02*
X13393491Y-16193329D01*
X13393491Y-16193329D02*
X13403015Y-16231424D01*
X13403015Y-16231424D02*
X13403015Y-16279043D01*
X13403015Y-16279043D02*
X13393491Y-16317138D01*
X13393491Y-16317138D02*
X13383967Y-16336186D01*
X13383967Y-16336186D02*
X13374444Y-16345710D01*
X13374444Y-16345710D02*
X13355396Y-16355234D01*
X13355396Y-16355234D02*
X13336348Y-16355234D01*
X13336348Y-16355234D02*
X13317301Y-16345710D01*
X13317301Y-16345710D02*
X13307777Y-16336186D01*
X13307777Y-16336186D02*
X13298253Y-16317138D01*
X13298253Y-16317138D02*
X13288729Y-16279043D01*
X13288729Y-16279043D02*
X13288729Y-16231424D01*
X13288729Y-16231424D02*
X13298253Y-16193329D01*
X13298253Y-16193329D02*
X13307777Y-16174281D01*
X13307777Y-16174281D02*
X13317301Y-16164758D01*
X13317301Y-16164758D02*
X13336348Y-16155234D01*
X13469682Y-16155234D02*
X13593491Y-16155234D01*
X13593491Y-16155234D02*
X13526825Y-16231424D01*
X13526825Y-16231424D02*
X13555396Y-16231424D01*
X13555396Y-16231424D02*
X13574444Y-16240948D01*
X13574444Y-16240948D02*
X13583967Y-16250472D01*
X13583967Y-16250472D02*
X13593491Y-16269519D01*
X13593491Y-16269519D02*
X13593491Y-16317138D01*
X13593491Y-16317138D02*
X13583967Y-16336186D01*
X13583967Y-16336186D02*
X13574444Y-16345710D01*
X13574444Y-16345710D02*
X13555396Y-16355234D01*
X13555396Y-16355234D02*
X13498253Y-16355234D01*
X13498253Y-16355234D02*
X13479206Y-16345710D01*
X13479206Y-16345710D02*
X13469682Y-16336186D01*
X13688729Y-16355234D02*
X13726825Y-16355234D01*
X13726825Y-16355234D02*
X13745872Y-16345710D01*
X13745872Y-16345710D02*
X13755396Y-16336186D01*
X13755396Y-16336186D02*
X13774444Y-16307615D01*
X13774444Y-16307615D02*
X13783967Y-16269519D01*
X13783967Y-16269519D02*
X13783967Y-16193329D01*
X13783967Y-16193329D02*
X13774444Y-16174281D01*
X13774444Y-16174281D02*
X13764920Y-16164758D01*
X13764920Y-16164758D02*
X13745872Y-16155234D01*
X13745872Y-16155234D02*
X13707777Y-16155234D01*
X13707777Y-16155234D02*
X13688729Y-16164758D01*
X13688729Y-16164758D02*
X13679206Y-16174281D01*
X13679206Y-16174281D02*
X13669682Y-16193329D01*
X13669682Y-16193329D02*
X13669682Y-16240948D01*
X13669682Y-16240948D02*
X13679206Y-16259996D01*
X13679206Y-16259996D02*
X13688729Y-16269519D01*
X13688729Y-16269519D02*
X13707777Y-16279043D01*
X13707777Y-16279043D02*
X13745872Y-16279043D01*
X13745872Y-16279043D02*
X13764920Y-16269519D01*
X13764920Y-16269519D02*
X13774444Y-16259996D01*
X13774444Y-16259996D02*
X13783967Y-16240948D01*
X13955396Y-16221900D02*
X13955396Y-16355234D01*
X13907777Y-16145710D02*
X13860158Y-16288567D01*
X13860158Y-16288567D02*
X13983967Y-16288567D01*
X14050634Y-16155234D02*
X14050634Y-16193329D01*
X14126825Y-16155234D02*
X14126825Y-16193329D01*
X14422063Y-16431424D02*
X14412539Y-16421900D01*
X14412539Y-16421900D02*
X14393491Y-16393329D01*
X14393491Y-16393329D02*
X14383968Y-16374281D01*
X14383968Y-16374281D02*
X14374444Y-16345710D01*
X14374444Y-16345710D02*
X14364920Y-16298091D01*
X14364920Y-16298091D02*
X14364920Y-16259996D01*
X14364920Y-16259996D02*
X14374444Y-16212377D01*
X14374444Y-16212377D02*
X14383968Y-16183805D01*
X14383968Y-16183805D02*
X14393491Y-16164758D01*
X14393491Y-16164758D02*
X14412539Y-16136186D01*
X14412539Y-16136186D02*
X14422063Y-16126662D01*
X14488729Y-16174281D02*
X14498253Y-16164758D01*
X14498253Y-16164758D02*
X14517301Y-16155234D01*
X14517301Y-16155234D02*
X14564920Y-16155234D01*
X14564920Y-16155234D02*
X14583968Y-16164758D01*
X14583968Y-16164758D02*
X14593491Y-16174281D01*
X14593491Y-16174281D02*
X14603015Y-16193329D01*
X14603015Y-16193329D02*
X14603015Y-16212377D01*
X14603015Y-16212377D02*
X14593491Y-16240948D01*
X14593491Y-16240948D02*
X14479206Y-16355234D01*
X14479206Y-16355234D02*
X14603015Y-16355234D01*
X14669682Y-16155234D02*
X14793491Y-16155234D01*
X14793491Y-16155234D02*
X14726825Y-16231424D01*
X14726825Y-16231424D02*
X14755396Y-16231424D01*
X14755396Y-16231424D02*
X14774444Y-16240948D01*
X14774444Y-16240948D02*
X14783968Y-16250472D01*
X14783968Y-16250472D02*
X14793491Y-16269519D01*
X14793491Y-16269519D02*
X14793491Y-16317138D01*
X14793491Y-16317138D02*
X14783968Y-16336186D01*
X14783968Y-16336186D02*
X14774444Y-16345710D01*
X14774444Y-16345710D02*
X14755396Y-16355234D01*
X14755396Y-16355234D02*
X14698253Y-16355234D01*
X14698253Y-16355234D02*
X14679206Y-16345710D01*
X14679206Y-16345710D02*
X14669682Y-16336186D01*
X15031587Y-16355234D02*
X15031587Y-16155234D01*
X15117301Y-16355234D02*
X15117301Y-16250472D01*
X15117301Y-16250472D02*
X15107777Y-16231424D01*
X15107777Y-16231424D02*
X15088730Y-16221900D01*
X15088730Y-16221900D02*
X15060158Y-16221900D01*
X15060158Y-16221900D02*
X15041110Y-16231424D01*
X15041110Y-16231424D02*
X15031587Y-16240948D01*
X15241110Y-16355234D02*
X15222063Y-16345710D01*
X15222063Y-16345710D02*
X15212539Y-16336186D01*
X15212539Y-16336186D02*
X15203015Y-16317138D01*
X15203015Y-16317138D02*
X15203015Y-16259996D01*
X15203015Y-16259996D02*
X15212539Y-16240948D01*
X15212539Y-16240948D02*
X15222063Y-16231424D01*
X15222063Y-16231424D02*
X15241110Y-16221900D01*
X15241110Y-16221900D02*
X15269682Y-16221900D01*
X15269682Y-16221900D02*
X15288730Y-16231424D01*
X15288730Y-16231424D02*
X15298253Y-16240948D01*
X15298253Y-16240948D02*
X15307777Y-16259996D01*
X15307777Y-16259996D02*
X15307777Y-16317138D01*
X15307777Y-16317138D02*
X15298253Y-16336186D01*
X15298253Y-16336186D02*
X15288730Y-16345710D01*
X15288730Y-16345710D02*
X15269682Y-16355234D01*
X15269682Y-16355234D02*
X15241110Y-16355234D01*
X15422063Y-16355234D02*
X15403015Y-16345710D01*
X15403015Y-16345710D02*
X15393491Y-16326662D01*
X15393491Y-16326662D02*
X15393491Y-16155234D01*
X15574444Y-16345710D02*
X15555396Y-16355234D01*
X15555396Y-16355234D02*
X15517301Y-16355234D01*
X15517301Y-16355234D02*
X15498253Y-16345710D01*
X15498253Y-16345710D02*
X15488730Y-16326662D01*
X15488730Y-16326662D02*
X15488730Y-16250472D01*
X15488730Y-16250472D02*
X15498253Y-16231424D01*
X15498253Y-16231424D02*
X15517301Y-16221900D01*
X15517301Y-16221900D02*
X15555396Y-16221900D01*
X15555396Y-16221900D02*
X15574444Y-16231424D01*
X15574444Y-16231424D02*
X15583968Y-16250472D01*
X15583968Y-16250472D02*
X15583968Y-16269519D01*
X15583968Y-16269519D02*
X15488730Y-16288567D01*
X15660158Y-16345710D02*
X15679206Y-16355234D01*
X15679206Y-16355234D02*
X15717301Y-16355234D01*
X15717301Y-16355234D02*
X15736349Y-16345710D01*
X15736349Y-16345710D02*
X15745872Y-16326662D01*
X15745872Y-16326662D02*
X15745872Y-16317138D01*
X15745872Y-16317138D02*
X15736349Y-16298091D01*
X15736349Y-16298091D02*
X15717301Y-16288567D01*
X15717301Y-16288567D02*
X15688730Y-16288567D01*
X15688730Y-16288567D02*
X15669682Y-16279043D01*
X15669682Y-16279043D02*
X15660158Y-16259996D01*
X15660158Y-16259996D02*
X15660158Y-16250472D01*
X15660158Y-16250472D02*
X15669682Y-16231424D01*
X15669682Y-16231424D02*
X15688730Y-16221900D01*
X15688730Y-16221900D02*
X15717301Y-16221900D01*
X15717301Y-16221900D02*
X15736349Y-16231424D01*
X15812539Y-16431424D02*
X15822063Y-16421900D01*
X15822063Y-16421900D02*
X15841111Y-16393329D01*
X15841111Y-16393329D02*
X15850634Y-16374281D01*
X15850634Y-16374281D02*
X15860158Y-16345710D01*
X15860158Y-16345710D02*
X15869682Y-16298091D01*
X15869682Y-16298091D02*
X15869682Y-16259996D01*
X15869682Y-16259996D02*
X15860158Y-16212377D01*
X15860158Y-16212377D02*
X15850634Y-16183805D01*
X15850634Y-16183805D02*
X15841111Y-16164758D01*
X15841111Y-16164758D02*
X15822063Y-16136186D01*
X15822063Y-16136186D02*
X15812539Y-16126662D01*
D18*
X10737000Y-16472750D02*
X10847000Y-16582750D01*
X10847000Y-16472750D02*
X10737000Y-16582750D01*
X10830891Y-16566641D02*
X10830891Y-16488859D01*
X10753109Y-16488859D01*
X10753109Y-16566641D01*
X10830891Y-16566641D01*
D11*
X11212539Y-16619234D02*
X11098253Y-16619234D01*
X11155396Y-16619234D02*
X11155396Y-16419234D01*
X11155396Y-16419234D02*
X11136348Y-16447805D01*
X11136348Y-16447805D02*
X11117301Y-16466853D01*
X11117301Y-16466853D02*
X11098253Y-16476377D01*
X11298253Y-16600186D02*
X11307777Y-16609710D01*
X11307777Y-16609710D02*
X11298253Y-16619234D01*
X11298253Y-16619234D02*
X11288729Y-16609710D01*
X11288729Y-16609710D02*
X11298253Y-16600186D01*
X11298253Y-16600186D02*
X11298253Y-16619234D01*
X11498253Y-16619234D02*
X11383967Y-16619234D01*
X11441110Y-16619234D02*
X11441110Y-16419234D01*
X11441110Y-16419234D02*
X11422062Y-16447805D01*
X11422062Y-16447805D02*
X11403015Y-16466853D01*
X11403015Y-16466853D02*
X11383967Y-16476377D01*
X11622062Y-16419234D02*
X11641110Y-16419234D01*
X11641110Y-16419234D02*
X11660158Y-16428758D01*
X11660158Y-16428758D02*
X11669682Y-16438281D01*
X11669682Y-16438281D02*
X11679205Y-16457329D01*
X11679205Y-16457329D02*
X11688729Y-16495424D01*
X11688729Y-16495424D02*
X11688729Y-16543043D01*
X11688729Y-16543043D02*
X11679205Y-16581138D01*
X11679205Y-16581138D02*
X11669682Y-16600186D01*
X11669682Y-16600186D02*
X11660158Y-16609710D01*
X11660158Y-16609710D02*
X11641110Y-16619234D01*
X11641110Y-16619234D02*
X11622062Y-16619234D01*
X11622062Y-16619234D02*
X11603015Y-16609710D01*
X11603015Y-16609710D02*
X11593491Y-16600186D01*
X11593491Y-16600186D02*
X11583967Y-16581138D01*
X11583967Y-16581138D02*
X11574443Y-16543043D01*
X11574443Y-16543043D02*
X11574443Y-16495424D01*
X11574443Y-16495424D02*
X11583967Y-16457329D01*
X11583967Y-16457329D02*
X11593491Y-16438281D01*
X11593491Y-16438281D02*
X11603015Y-16428758D01*
X11603015Y-16428758D02*
X11622062Y-16419234D01*
X11812539Y-16419234D02*
X11831586Y-16419234D01*
X11831586Y-16419234D02*
X11850634Y-16428758D01*
X11850634Y-16428758D02*
X11860158Y-16438281D01*
X11860158Y-16438281D02*
X11869682Y-16457329D01*
X11869682Y-16457329D02*
X11879205Y-16495424D01*
X11879205Y-16495424D02*
X11879205Y-16543043D01*
X11879205Y-16543043D02*
X11869682Y-16581138D01*
X11869682Y-16581138D02*
X11860158Y-16600186D01*
X11860158Y-16600186D02*
X11850634Y-16609710D01*
X11850634Y-16609710D02*
X11831586Y-16619234D01*
X11831586Y-16619234D02*
X11812539Y-16619234D01*
X11812539Y-16619234D02*
X11793491Y-16609710D01*
X11793491Y-16609710D02*
X11783967Y-16600186D01*
X11783967Y-16600186D02*
X11774443Y-16581138D01*
X11774443Y-16581138D02*
X11764920Y-16543043D01*
X11764920Y-16543043D02*
X11764920Y-16495424D01*
X11764920Y-16495424D02*
X11774443Y-16457329D01*
X11774443Y-16457329D02*
X11783967Y-16438281D01*
X11783967Y-16438281D02*
X11793491Y-16428758D01*
X11793491Y-16428758D02*
X11812539Y-16419234D01*
X11964920Y-16619234D02*
X11964920Y-16485900D01*
X11964920Y-16504948D02*
X11974443Y-16495424D01*
X11974443Y-16495424D02*
X11993491Y-16485900D01*
X11993491Y-16485900D02*
X12022063Y-16485900D01*
X12022063Y-16485900D02*
X12041110Y-16495424D01*
X12041110Y-16495424D02*
X12050634Y-16514472D01*
X12050634Y-16514472D02*
X12050634Y-16619234D01*
X12050634Y-16514472D02*
X12060158Y-16495424D01*
X12060158Y-16495424D02*
X12079205Y-16485900D01*
X12079205Y-16485900D02*
X12107777Y-16485900D01*
X12107777Y-16485900D02*
X12126824Y-16495424D01*
X12126824Y-16495424D02*
X12136348Y-16514472D01*
X12136348Y-16514472D02*
X12136348Y-16619234D01*
X12231586Y-16619234D02*
X12231586Y-16485900D01*
X12231586Y-16504948D02*
X12241110Y-16495424D01*
X12241110Y-16495424D02*
X12260158Y-16485900D01*
X12260158Y-16485900D02*
X12288729Y-16485900D01*
X12288729Y-16485900D02*
X12307777Y-16495424D01*
X12307777Y-16495424D02*
X12317301Y-16514472D01*
X12317301Y-16514472D02*
X12317301Y-16619234D01*
X12317301Y-16514472D02*
X12326824Y-16495424D01*
X12326824Y-16495424D02*
X12345872Y-16485900D01*
X12345872Y-16485900D02*
X12374443Y-16485900D01*
X12374443Y-16485900D02*
X12393491Y-16495424D01*
X12393491Y-16495424D02*
X12403015Y-16514472D01*
X12403015Y-16514472D02*
X12403015Y-16619234D01*
X12793491Y-16409710D02*
X12622063Y-16666853D01*
X13050634Y-16419234D02*
X13069682Y-16419234D01*
X13069682Y-16419234D02*
X13088729Y-16428758D01*
X13088729Y-16428758D02*
X13098253Y-16438281D01*
X13098253Y-16438281D02*
X13107777Y-16457329D01*
X13107777Y-16457329D02*
X13117301Y-16495424D01*
X13117301Y-16495424D02*
X13117301Y-16543043D01*
X13117301Y-16543043D02*
X13107777Y-16581138D01*
X13107777Y-16581138D02*
X13098253Y-16600186D01*
X13098253Y-16600186D02*
X13088729Y-16609710D01*
X13088729Y-16609710D02*
X13069682Y-16619234D01*
X13069682Y-16619234D02*
X13050634Y-16619234D01*
X13050634Y-16619234D02*
X13031586Y-16609710D01*
X13031586Y-16609710D02*
X13022063Y-16600186D01*
X13022063Y-16600186D02*
X13012539Y-16581138D01*
X13012539Y-16581138D02*
X13003015Y-16543043D01*
X13003015Y-16543043D02*
X13003015Y-16495424D01*
X13003015Y-16495424D02*
X13012539Y-16457329D01*
X13012539Y-16457329D02*
X13022063Y-16438281D01*
X13022063Y-16438281D02*
X13031586Y-16428758D01*
X13031586Y-16428758D02*
X13050634Y-16419234D01*
X13203015Y-16600186D02*
X13212539Y-16609710D01*
X13212539Y-16609710D02*
X13203015Y-16619234D01*
X13203015Y-16619234D02*
X13193491Y-16609710D01*
X13193491Y-16609710D02*
X13203015Y-16600186D01*
X13203015Y-16600186D02*
X13203015Y-16619234D01*
X13336348Y-16419234D02*
X13355396Y-16419234D01*
X13355396Y-16419234D02*
X13374444Y-16428758D01*
X13374444Y-16428758D02*
X13383967Y-16438281D01*
X13383967Y-16438281D02*
X13393491Y-16457329D01*
X13393491Y-16457329D02*
X13403015Y-16495424D01*
X13403015Y-16495424D02*
X13403015Y-16543043D01*
X13403015Y-16543043D02*
X13393491Y-16581138D01*
X13393491Y-16581138D02*
X13383967Y-16600186D01*
X13383967Y-16600186D02*
X13374444Y-16609710D01*
X13374444Y-16609710D02*
X13355396Y-16619234D01*
X13355396Y-16619234D02*
X13336348Y-16619234D01*
X13336348Y-16619234D02*
X13317301Y-16609710D01*
X13317301Y-16609710D02*
X13307777Y-16600186D01*
X13307777Y-16600186D02*
X13298253Y-16581138D01*
X13298253Y-16581138D02*
X13288729Y-16543043D01*
X13288729Y-16543043D02*
X13288729Y-16495424D01*
X13288729Y-16495424D02*
X13298253Y-16457329D01*
X13298253Y-16457329D02*
X13307777Y-16438281D01*
X13307777Y-16438281D02*
X13317301Y-16428758D01*
X13317301Y-16428758D02*
X13336348Y-16419234D01*
X13574444Y-16485900D02*
X13574444Y-16619234D01*
X13526825Y-16409710D02*
X13479206Y-16552567D01*
X13479206Y-16552567D02*
X13603015Y-16552567D01*
X13660158Y-16419234D02*
X13783967Y-16419234D01*
X13783967Y-16419234D02*
X13717301Y-16495424D01*
X13717301Y-16495424D02*
X13745872Y-16495424D01*
X13745872Y-16495424D02*
X13764920Y-16504948D01*
X13764920Y-16504948D02*
X13774444Y-16514472D01*
X13774444Y-16514472D02*
X13783967Y-16533519D01*
X13783967Y-16533519D02*
X13783967Y-16581138D01*
X13783967Y-16581138D02*
X13774444Y-16600186D01*
X13774444Y-16600186D02*
X13764920Y-16609710D01*
X13764920Y-16609710D02*
X13745872Y-16619234D01*
X13745872Y-16619234D02*
X13688729Y-16619234D01*
X13688729Y-16619234D02*
X13669682Y-16609710D01*
X13669682Y-16609710D02*
X13660158Y-16600186D01*
X13850634Y-16419234D02*
X13974444Y-16419234D01*
X13974444Y-16419234D02*
X13907777Y-16495424D01*
X13907777Y-16495424D02*
X13936348Y-16495424D01*
X13936348Y-16495424D02*
X13955396Y-16504948D01*
X13955396Y-16504948D02*
X13964920Y-16514472D01*
X13964920Y-16514472D02*
X13974444Y-16533519D01*
X13974444Y-16533519D02*
X13974444Y-16581138D01*
X13974444Y-16581138D02*
X13964920Y-16600186D01*
X13964920Y-16600186D02*
X13955396Y-16609710D01*
X13955396Y-16609710D02*
X13936348Y-16619234D01*
X13936348Y-16619234D02*
X13879206Y-16619234D01*
X13879206Y-16619234D02*
X13860158Y-16609710D01*
X13860158Y-16609710D02*
X13850634Y-16600186D01*
X14050634Y-16419234D02*
X14050634Y-16457329D01*
X14126825Y-16419234D02*
X14126825Y-16457329D01*
X14422063Y-16695424D02*
X14412539Y-16685900D01*
X14412539Y-16685900D02*
X14393491Y-16657329D01*
X14393491Y-16657329D02*
X14383968Y-16638281D01*
X14383968Y-16638281D02*
X14374444Y-16609710D01*
X14374444Y-16609710D02*
X14364920Y-16562091D01*
X14364920Y-16562091D02*
X14364920Y-16523996D01*
X14364920Y-16523996D02*
X14374444Y-16476377D01*
X14374444Y-16476377D02*
X14383968Y-16447805D01*
X14383968Y-16447805D02*
X14393491Y-16428758D01*
X14393491Y-16428758D02*
X14412539Y-16400186D01*
X14412539Y-16400186D02*
X14422063Y-16390662D01*
X14583968Y-16485900D02*
X14583968Y-16619234D01*
X14536348Y-16409710D02*
X14488729Y-16552567D01*
X14488729Y-16552567D02*
X14612539Y-16552567D01*
X14841110Y-16619234D02*
X14841110Y-16419234D01*
X14926825Y-16619234D02*
X14926825Y-16514472D01*
X14926825Y-16514472D02*
X14917301Y-16495424D01*
X14917301Y-16495424D02*
X14898253Y-16485900D01*
X14898253Y-16485900D02*
X14869682Y-16485900D01*
X14869682Y-16485900D02*
X14850634Y-16495424D01*
X14850634Y-16495424D02*
X14841110Y-16504948D01*
X15050634Y-16619234D02*
X15031587Y-16609710D01*
X15031587Y-16609710D02*
X15022063Y-16600186D01*
X15022063Y-16600186D02*
X15012539Y-16581138D01*
X15012539Y-16581138D02*
X15012539Y-16523996D01*
X15012539Y-16523996D02*
X15022063Y-16504948D01*
X15022063Y-16504948D02*
X15031587Y-16495424D01*
X15031587Y-16495424D02*
X15050634Y-16485900D01*
X15050634Y-16485900D02*
X15079206Y-16485900D01*
X15079206Y-16485900D02*
X15098253Y-16495424D01*
X15098253Y-16495424D02*
X15107777Y-16504948D01*
X15107777Y-16504948D02*
X15117301Y-16523996D01*
X15117301Y-16523996D02*
X15117301Y-16581138D01*
X15117301Y-16581138D02*
X15107777Y-16600186D01*
X15107777Y-16600186D02*
X15098253Y-16609710D01*
X15098253Y-16609710D02*
X15079206Y-16619234D01*
X15079206Y-16619234D02*
X15050634Y-16619234D01*
X15231587Y-16619234D02*
X15212539Y-16609710D01*
X15212539Y-16609710D02*
X15203015Y-16590662D01*
X15203015Y-16590662D02*
X15203015Y-16419234D01*
X15383968Y-16609710D02*
X15364920Y-16619234D01*
X15364920Y-16619234D02*
X15326825Y-16619234D01*
X15326825Y-16619234D02*
X15307777Y-16609710D01*
X15307777Y-16609710D02*
X15298253Y-16590662D01*
X15298253Y-16590662D02*
X15298253Y-16514472D01*
X15298253Y-16514472D02*
X15307777Y-16495424D01*
X15307777Y-16495424D02*
X15326825Y-16485900D01*
X15326825Y-16485900D02*
X15364920Y-16485900D01*
X15364920Y-16485900D02*
X15383968Y-16495424D01*
X15383968Y-16495424D02*
X15393491Y-16514472D01*
X15393491Y-16514472D02*
X15393491Y-16533519D01*
X15393491Y-16533519D02*
X15298253Y-16552567D01*
X15469682Y-16609710D02*
X15488730Y-16619234D01*
X15488730Y-16619234D02*
X15526825Y-16619234D01*
X15526825Y-16619234D02*
X15545872Y-16609710D01*
X15545872Y-16609710D02*
X15555396Y-16590662D01*
X15555396Y-16590662D02*
X15555396Y-16581138D01*
X15555396Y-16581138D02*
X15545872Y-16562091D01*
X15545872Y-16562091D02*
X15526825Y-16552567D01*
X15526825Y-16552567D02*
X15498253Y-16552567D01*
X15498253Y-16552567D02*
X15479206Y-16543043D01*
X15479206Y-16543043D02*
X15469682Y-16523996D01*
X15469682Y-16523996D02*
X15469682Y-16514472D01*
X15469682Y-16514472D02*
X15479206Y-16495424D01*
X15479206Y-16495424D02*
X15498253Y-16485900D01*
X15498253Y-16485900D02*
X15526825Y-16485900D01*
X15526825Y-16485900D02*
X15545872Y-16495424D01*
X15622063Y-16695424D02*
X15631587Y-16685900D01*
X15631587Y-16685900D02*
X15650634Y-16657329D01*
X15650634Y-16657329D02*
X15660158Y-16638281D01*
X15660158Y-16638281D02*
X15669682Y-16609710D01*
X15669682Y-16609710D02*
X15679206Y-16562091D01*
X15679206Y-16562091D02*
X15679206Y-16523996D01*
X15679206Y-16523996D02*
X15669682Y-16476377D01*
X15669682Y-16476377D02*
X15660158Y-16447805D01*
X15660158Y-16447805D02*
X15650634Y-16428758D01*
X15650634Y-16428758D02*
X15631587Y-16400186D01*
X15631587Y-16400186D02*
X15622063Y-16390662D01*
D19*
X10709000Y-16722750D02*
X10847000Y-16860750D01*
X10847000Y-16722750D02*
X10709000Y-16860750D01*
X10778000Y-16860750D02*
X10847000Y-16791750D01*
X10778000Y-16722750D01*
X10709000Y-16791750D01*
X10778000Y-16860750D01*
D11*
X11212539Y-16883234D02*
X11098253Y-16883234D01*
X11155396Y-16883234D02*
X11155396Y-16683234D01*
X11155396Y-16683234D02*
X11136348Y-16711805D01*
X11136348Y-16711805D02*
X11117301Y-16730853D01*
X11117301Y-16730853D02*
X11098253Y-16740377D01*
X11298253Y-16864186D02*
X11307777Y-16873710D01*
X11307777Y-16873710D02*
X11298253Y-16883234D01*
X11298253Y-16883234D02*
X11288729Y-16873710D01*
X11288729Y-16873710D02*
X11298253Y-16864186D01*
X11298253Y-16864186D02*
X11298253Y-16883234D01*
X11374443Y-16683234D02*
X11498253Y-16683234D01*
X11498253Y-16683234D02*
X11431586Y-16759424D01*
X11431586Y-16759424D02*
X11460158Y-16759424D01*
X11460158Y-16759424D02*
X11479205Y-16768948D01*
X11479205Y-16768948D02*
X11488729Y-16778472D01*
X11488729Y-16778472D02*
X11498253Y-16797520D01*
X11498253Y-16797520D02*
X11498253Y-16845139D01*
X11498253Y-16845139D02*
X11488729Y-16864186D01*
X11488729Y-16864186D02*
X11479205Y-16873710D01*
X11479205Y-16873710D02*
X11460158Y-16883234D01*
X11460158Y-16883234D02*
X11403015Y-16883234D01*
X11403015Y-16883234D02*
X11383967Y-16873710D01*
X11383967Y-16873710D02*
X11374443Y-16864186D01*
X11612539Y-16768948D02*
X11593491Y-16759424D01*
X11593491Y-16759424D02*
X11583967Y-16749900D01*
X11583967Y-16749900D02*
X11574443Y-16730853D01*
X11574443Y-16730853D02*
X11574443Y-16721329D01*
X11574443Y-16721329D02*
X11583967Y-16702281D01*
X11583967Y-16702281D02*
X11593491Y-16692758D01*
X11593491Y-16692758D02*
X11612539Y-16683234D01*
X11612539Y-16683234D02*
X11650634Y-16683234D01*
X11650634Y-16683234D02*
X11669682Y-16692758D01*
X11669682Y-16692758D02*
X11679205Y-16702281D01*
X11679205Y-16702281D02*
X11688729Y-16721329D01*
X11688729Y-16721329D02*
X11688729Y-16730853D01*
X11688729Y-16730853D02*
X11679205Y-16749900D01*
X11679205Y-16749900D02*
X11669682Y-16759424D01*
X11669682Y-16759424D02*
X11650634Y-16768948D01*
X11650634Y-16768948D02*
X11612539Y-16768948D01*
X11612539Y-16768948D02*
X11593491Y-16778472D01*
X11593491Y-16778472D02*
X11583967Y-16787996D01*
X11583967Y-16787996D02*
X11574443Y-16807043D01*
X11574443Y-16807043D02*
X11574443Y-16845139D01*
X11574443Y-16845139D02*
X11583967Y-16864186D01*
X11583967Y-16864186D02*
X11593491Y-16873710D01*
X11593491Y-16873710D02*
X11612539Y-16883234D01*
X11612539Y-16883234D02*
X11650634Y-16883234D01*
X11650634Y-16883234D02*
X11669682Y-16873710D01*
X11669682Y-16873710D02*
X11679205Y-16864186D01*
X11679205Y-16864186D02*
X11688729Y-16845139D01*
X11688729Y-16845139D02*
X11688729Y-16807043D01*
X11688729Y-16807043D02*
X11679205Y-16787996D01*
X11679205Y-16787996D02*
X11669682Y-16778472D01*
X11669682Y-16778472D02*
X11650634Y-16768948D01*
X11812539Y-16683234D02*
X11831586Y-16683234D01*
X11831586Y-16683234D02*
X11850634Y-16692758D01*
X11850634Y-16692758D02*
X11860158Y-16702281D01*
X11860158Y-16702281D02*
X11869682Y-16721329D01*
X11869682Y-16721329D02*
X11879205Y-16759424D01*
X11879205Y-16759424D02*
X11879205Y-16807043D01*
X11879205Y-16807043D02*
X11869682Y-16845139D01*
X11869682Y-16845139D02*
X11860158Y-16864186D01*
X11860158Y-16864186D02*
X11850634Y-16873710D01*
X11850634Y-16873710D02*
X11831586Y-16883234D01*
X11831586Y-16883234D02*
X11812539Y-16883234D01*
X11812539Y-16883234D02*
X11793491Y-16873710D01*
X11793491Y-16873710D02*
X11783967Y-16864186D01*
X11783967Y-16864186D02*
X11774443Y-16845139D01*
X11774443Y-16845139D02*
X11764920Y-16807043D01*
X11764920Y-16807043D02*
X11764920Y-16759424D01*
X11764920Y-16759424D02*
X11774443Y-16721329D01*
X11774443Y-16721329D02*
X11783967Y-16702281D01*
X11783967Y-16702281D02*
X11793491Y-16692758D01*
X11793491Y-16692758D02*
X11812539Y-16683234D01*
X11964920Y-16883234D02*
X11964920Y-16749900D01*
X11964920Y-16768948D02*
X11974443Y-16759424D01*
X11974443Y-16759424D02*
X11993491Y-16749900D01*
X11993491Y-16749900D02*
X12022063Y-16749900D01*
X12022063Y-16749900D02*
X12041110Y-16759424D01*
X12041110Y-16759424D02*
X12050634Y-16778472D01*
X12050634Y-16778472D02*
X12050634Y-16883234D01*
X12050634Y-16778472D02*
X12060158Y-16759424D01*
X12060158Y-16759424D02*
X12079205Y-16749900D01*
X12079205Y-16749900D02*
X12107777Y-16749900D01*
X12107777Y-16749900D02*
X12126824Y-16759424D01*
X12126824Y-16759424D02*
X12136348Y-16778472D01*
X12136348Y-16778472D02*
X12136348Y-16883234D01*
X12231586Y-16883234D02*
X12231586Y-16749900D01*
X12231586Y-16768948D02*
X12241110Y-16759424D01*
X12241110Y-16759424D02*
X12260158Y-16749900D01*
X12260158Y-16749900D02*
X12288729Y-16749900D01*
X12288729Y-16749900D02*
X12307777Y-16759424D01*
X12307777Y-16759424D02*
X12317301Y-16778472D01*
X12317301Y-16778472D02*
X12317301Y-16883234D01*
X12317301Y-16778472D02*
X12326824Y-16759424D01*
X12326824Y-16759424D02*
X12345872Y-16749900D01*
X12345872Y-16749900D02*
X12374443Y-16749900D01*
X12374443Y-16749900D02*
X12393491Y-16759424D01*
X12393491Y-16759424D02*
X12403015Y-16778472D01*
X12403015Y-16778472D02*
X12403015Y-16883234D01*
X12793491Y-16673710D02*
X12622063Y-16930853D01*
X13050634Y-16683234D02*
X13069682Y-16683234D01*
X13069682Y-16683234D02*
X13088729Y-16692758D01*
X13088729Y-16692758D02*
X13098253Y-16702281D01*
X13098253Y-16702281D02*
X13107777Y-16721329D01*
X13107777Y-16721329D02*
X13117301Y-16759424D01*
X13117301Y-16759424D02*
X13117301Y-16807043D01*
X13117301Y-16807043D02*
X13107777Y-16845139D01*
X13107777Y-16845139D02*
X13098253Y-16864186D01*
X13098253Y-16864186D02*
X13088729Y-16873710D01*
X13088729Y-16873710D02*
X13069682Y-16883234D01*
X13069682Y-16883234D02*
X13050634Y-16883234D01*
X13050634Y-16883234D02*
X13031586Y-16873710D01*
X13031586Y-16873710D02*
X13022063Y-16864186D01*
X13022063Y-16864186D02*
X13012539Y-16845139D01*
X13012539Y-16845139D02*
X13003015Y-16807043D01*
X13003015Y-16807043D02*
X13003015Y-16759424D01*
X13003015Y-16759424D02*
X13012539Y-16721329D01*
X13012539Y-16721329D02*
X13022063Y-16702281D01*
X13022063Y-16702281D02*
X13031586Y-16692758D01*
X13031586Y-16692758D02*
X13050634Y-16683234D01*
X13203015Y-16864186D02*
X13212539Y-16873710D01*
X13212539Y-16873710D02*
X13203015Y-16883234D01*
X13203015Y-16883234D02*
X13193491Y-16873710D01*
X13193491Y-16873710D02*
X13203015Y-16864186D01*
X13203015Y-16864186D02*
X13203015Y-16883234D01*
X13336348Y-16683234D02*
X13355396Y-16683234D01*
X13355396Y-16683234D02*
X13374444Y-16692758D01*
X13374444Y-16692758D02*
X13383967Y-16702281D01*
X13383967Y-16702281D02*
X13393491Y-16721329D01*
X13393491Y-16721329D02*
X13403015Y-16759424D01*
X13403015Y-16759424D02*
X13403015Y-16807043D01*
X13403015Y-16807043D02*
X13393491Y-16845139D01*
X13393491Y-16845139D02*
X13383967Y-16864186D01*
X13383967Y-16864186D02*
X13374444Y-16873710D01*
X13374444Y-16873710D02*
X13355396Y-16883234D01*
X13355396Y-16883234D02*
X13336348Y-16883234D01*
X13336348Y-16883234D02*
X13317301Y-16873710D01*
X13317301Y-16873710D02*
X13307777Y-16864186D01*
X13307777Y-16864186D02*
X13298253Y-16845139D01*
X13298253Y-16845139D02*
X13288729Y-16807043D01*
X13288729Y-16807043D02*
X13288729Y-16759424D01*
X13288729Y-16759424D02*
X13298253Y-16721329D01*
X13298253Y-16721329D02*
X13307777Y-16702281D01*
X13307777Y-16702281D02*
X13317301Y-16692758D01*
X13317301Y-16692758D02*
X13336348Y-16683234D01*
X13583967Y-16683234D02*
X13488729Y-16683234D01*
X13488729Y-16683234D02*
X13479206Y-16778472D01*
X13479206Y-16778472D02*
X13488729Y-16768948D01*
X13488729Y-16768948D02*
X13507777Y-16759424D01*
X13507777Y-16759424D02*
X13555396Y-16759424D01*
X13555396Y-16759424D02*
X13574444Y-16768948D01*
X13574444Y-16768948D02*
X13583967Y-16778472D01*
X13583967Y-16778472D02*
X13593491Y-16797520D01*
X13593491Y-16797520D02*
X13593491Y-16845139D01*
X13593491Y-16845139D02*
X13583967Y-16864186D01*
X13583967Y-16864186D02*
X13574444Y-16873710D01*
X13574444Y-16873710D02*
X13555396Y-16883234D01*
X13555396Y-16883234D02*
X13507777Y-16883234D01*
X13507777Y-16883234D02*
X13488729Y-16873710D01*
X13488729Y-16873710D02*
X13479206Y-16864186D01*
X13764920Y-16749900D02*
X13764920Y-16883234D01*
X13717301Y-16673710D02*
X13669682Y-16816567D01*
X13669682Y-16816567D02*
X13793491Y-16816567D01*
X13850634Y-16683234D02*
X13974444Y-16683234D01*
X13974444Y-16683234D02*
X13907777Y-16759424D01*
X13907777Y-16759424D02*
X13936348Y-16759424D01*
X13936348Y-16759424D02*
X13955396Y-16768948D01*
X13955396Y-16768948D02*
X13964920Y-16778472D01*
X13964920Y-16778472D02*
X13974444Y-16797520D01*
X13974444Y-16797520D02*
X13974444Y-16845139D01*
X13974444Y-16845139D02*
X13964920Y-16864186D01*
X13964920Y-16864186D02*
X13955396Y-16873710D01*
X13955396Y-16873710D02*
X13936348Y-16883234D01*
X13936348Y-16883234D02*
X13879206Y-16883234D01*
X13879206Y-16883234D02*
X13860158Y-16873710D01*
X13860158Y-16873710D02*
X13850634Y-16864186D01*
X14050634Y-16683234D02*
X14050634Y-16721329D01*
X14126825Y-16683234D02*
X14126825Y-16721329D01*
X14422063Y-16959424D02*
X14412539Y-16949900D01*
X14412539Y-16949900D02*
X14393491Y-16921329D01*
X14393491Y-16921329D02*
X14383968Y-16902281D01*
X14383968Y-16902281D02*
X14374444Y-16873710D01*
X14374444Y-16873710D02*
X14364920Y-16826091D01*
X14364920Y-16826091D02*
X14364920Y-16787996D01*
X14364920Y-16787996D02*
X14374444Y-16740377D01*
X14374444Y-16740377D02*
X14383968Y-16711805D01*
X14383968Y-16711805D02*
X14393491Y-16692758D01*
X14393491Y-16692758D02*
X14412539Y-16664186D01*
X14412539Y-16664186D02*
X14422063Y-16654662D01*
X14536348Y-16683234D02*
X14555396Y-16683234D01*
X14555396Y-16683234D02*
X14574444Y-16692758D01*
X14574444Y-16692758D02*
X14583968Y-16702281D01*
X14583968Y-16702281D02*
X14593491Y-16721329D01*
X14593491Y-16721329D02*
X14603015Y-16759424D01*
X14603015Y-16759424D02*
X14603015Y-16807043D01*
X14603015Y-16807043D02*
X14593491Y-16845139D01*
X14593491Y-16845139D02*
X14583968Y-16864186D01*
X14583968Y-16864186D02*
X14574444Y-16873710D01*
X14574444Y-16873710D02*
X14555396Y-16883234D01*
X14555396Y-16883234D02*
X14536348Y-16883234D01*
X14536348Y-16883234D02*
X14517301Y-16873710D01*
X14517301Y-16873710D02*
X14507777Y-16864186D01*
X14507777Y-16864186D02*
X14498253Y-16845139D01*
X14498253Y-16845139D02*
X14488729Y-16807043D01*
X14488729Y-16807043D02*
X14488729Y-16759424D01*
X14488729Y-16759424D02*
X14498253Y-16721329D01*
X14498253Y-16721329D02*
X14507777Y-16702281D01*
X14507777Y-16702281D02*
X14517301Y-16692758D01*
X14517301Y-16692758D02*
X14536348Y-16683234D01*
X14841110Y-16883234D02*
X14841110Y-16683234D01*
X14926825Y-16883234D02*
X14926825Y-16778472D01*
X14926825Y-16778472D02*
X14917301Y-16759424D01*
X14917301Y-16759424D02*
X14898253Y-16749900D01*
X14898253Y-16749900D02*
X14869682Y-16749900D01*
X14869682Y-16749900D02*
X14850634Y-16759424D01*
X14850634Y-16759424D02*
X14841110Y-16768948D01*
X15050634Y-16883234D02*
X15031587Y-16873710D01*
X15031587Y-16873710D02*
X15022063Y-16864186D01*
X15022063Y-16864186D02*
X15012539Y-16845139D01*
X15012539Y-16845139D02*
X15012539Y-16787996D01*
X15012539Y-16787996D02*
X15022063Y-16768948D01*
X15022063Y-16768948D02*
X15031587Y-16759424D01*
X15031587Y-16759424D02*
X15050634Y-16749900D01*
X15050634Y-16749900D02*
X15079206Y-16749900D01*
X15079206Y-16749900D02*
X15098253Y-16759424D01*
X15098253Y-16759424D02*
X15107777Y-16768948D01*
X15107777Y-16768948D02*
X15117301Y-16787996D01*
X15117301Y-16787996D02*
X15117301Y-16845139D01*
X15117301Y-16845139D02*
X15107777Y-16864186D01*
X15107777Y-16864186D02*
X15098253Y-16873710D01*
X15098253Y-16873710D02*
X15079206Y-16883234D01*
X15079206Y-16883234D02*
X15050634Y-16883234D01*
X15231587Y-16883234D02*
X15212539Y-16873710D01*
X15212539Y-16873710D02*
X15203015Y-16854662D01*
X15203015Y-16854662D02*
X15203015Y-16683234D01*
X15383968Y-16873710D02*
X15364920Y-16883234D01*
X15364920Y-16883234D02*
X15326825Y-16883234D01*
X15326825Y-16883234D02*
X15307777Y-16873710D01*
X15307777Y-16873710D02*
X15298253Y-16854662D01*
X15298253Y-16854662D02*
X15298253Y-16778472D01*
X15298253Y-16778472D02*
X15307777Y-16759424D01*
X15307777Y-16759424D02*
X15326825Y-16749900D01*
X15326825Y-16749900D02*
X15364920Y-16749900D01*
X15364920Y-16749900D02*
X15383968Y-16759424D01*
X15383968Y-16759424D02*
X15393491Y-16778472D01*
X15393491Y-16778472D02*
X15393491Y-16797520D01*
X15393491Y-16797520D02*
X15298253Y-16816567D01*
X15469682Y-16873710D02*
X15488730Y-16883234D01*
X15488730Y-16883234D02*
X15526825Y-16883234D01*
X15526825Y-16883234D02*
X15545872Y-16873710D01*
X15545872Y-16873710D02*
X15555396Y-16854662D01*
X15555396Y-16854662D02*
X15555396Y-16845139D01*
X15555396Y-16845139D02*
X15545872Y-16826091D01*
X15545872Y-16826091D02*
X15526825Y-16816567D01*
X15526825Y-16816567D02*
X15498253Y-16816567D01*
X15498253Y-16816567D02*
X15479206Y-16807043D01*
X15479206Y-16807043D02*
X15469682Y-16787996D01*
X15469682Y-16787996D02*
X15469682Y-16778472D01*
X15469682Y-16778472D02*
X15479206Y-16759424D01*
X15479206Y-16759424D02*
X15498253Y-16749900D01*
X15498253Y-16749900D02*
X15526825Y-16749900D01*
X15526825Y-16749900D02*
X15545872Y-16759424D01*
X15793492Y-16807043D02*
X15945873Y-16807043D01*
X15869682Y-16883234D02*
X15869682Y-16730853D01*
X16183968Y-16702281D02*
X16193492Y-16692758D01*
X16193492Y-16692758D02*
X16212539Y-16683234D01*
X16212539Y-16683234D02*
X16260158Y-16683234D01*
X16260158Y-16683234D02*
X16279206Y-16692758D01*
X16279206Y-16692758D02*
X16288730Y-16702281D01*
X16288730Y-16702281D02*
X16298253Y-16721329D01*
X16298253Y-16721329D02*
X16298253Y-16740377D01*
X16298253Y-16740377D02*
X16288730Y-16768948D01*
X16288730Y-16768948D02*
X16174444Y-16883234D01*
X16174444Y-16883234D02*
X16298253Y-16883234D01*
X16526825Y-16873710D02*
X16545873Y-16883234D01*
X16545873Y-16883234D02*
X16583968Y-16883234D01*
X16583968Y-16883234D02*
X16603015Y-16873710D01*
X16603015Y-16873710D02*
X16612539Y-16854662D01*
X16612539Y-16854662D02*
X16612539Y-16845139D01*
X16612539Y-16845139D02*
X16603015Y-16826091D01*
X16603015Y-16826091D02*
X16583968Y-16816567D01*
X16583968Y-16816567D02*
X16555396Y-16816567D01*
X16555396Y-16816567D02*
X16536349Y-16807043D01*
X16536349Y-16807043D02*
X16526825Y-16787996D01*
X16526825Y-16787996D02*
X16526825Y-16778472D01*
X16526825Y-16778472D02*
X16536349Y-16759424D01*
X16536349Y-16759424D02*
X16555396Y-16749900D01*
X16555396Y-16749900D02*
X16583968Y-16749900D01*
X16583968Y-16749900D02*
X16603015Y-16759424D01*
X16726825Y-16883234D02*
X16707777Y-16873710D01*
X16707777Y-16873710D02*
X16698254Y-16854662D01*
X16698254Y-16854662D02*
X16698254Y-16683234D01*
X16831587Y-16883234D02*
X16812539Y-16873710D01*
X16812539Y-16873710D02*
X16803016Y-16864186D01*
X16803016Y-16864186D02*
X16793492Y-16845139D01*
X16793492Y-16845139D02*
X16793492Y-16787996D01*
X16793492Y-16787996D02*
X16803016Y-16768948D01*
X16803016Y-16768948D02*
X16812539Y-16759424D01*
X16812539Y-16759424D02*
X16831587Y-16749900D01*
X16831587Y-16749900D02*
X16860158Y-16749900D01*
X16860158Y-16749900D02*
X16879206Y-16759424D01*
X16879206Y-16759424D02*
X16888730Y-16768948D01*
X16888730Y-16768948D02*
X16898254Y-16787996D01*
X16898254Y-16787996D02*
X16898254Y-16845139D01*
X16898254Y-16845139D02*
X16888730Y-16864186D01*
X16888730Y-16864186D02*
X16879206Y-16873710D01*
X16879206Y-16873710D02*
X16860158Y-16883234D01*
X16860158Y-16883234D02*
X16831587Y-16883234D01*
X16955397Y-16749900D02*
X17031587Y-16749900D01*
X16983968Y-16683234D02*
X16983968Y-16854662D01*
X16983968Y-16854662D02*
X16993492Y-16873710D01*
X16993492Y-16873710D02*
X17012539Y-16883234D01*
X17012539Y-16883234D02*
X17031587Y-16883234D01*
X17088730Y-16873710D02*
X17107777Y-16883234D01*
X17107777Y-16883234D02*
X17145873Y-16883234D01*
X17145873Y-16883234D02*
X17164920Y-16873710D01*
X17164920Y-16873710D02*
X17174444Y-16854662D01*
X17174444Y-16854662D02*
X17174444Y-16845139D01*
X17174444Y-16845139D02*
X17164920Y-16826091D01*
X17164920Y-16826091D02*
X17145873Y-16816567D01*
X17145873Y-16816567D02*
X17117301Y-16816567D01*
X17117301Y-16816567D02*
X17098254Y-16807043D01*
X17098254Y-16807043D02*
X17088730Y-16787996D01*
X17088730Y-16787996D02*
X17088730Y-16778472D01*
X17088730Y-16778472D02*
X17098254Y-16759424D01*
X17098254Y-16759424D02*
X17117301Y-16749900D01*
X17117301Y-16749900D02*
X17145873Y-16749900D01*
X17145873Y-16749900D02*
X17164920Y-16759424D01*
X17241111Y-16959424D02*
X17250635Y-16949900D01*
X17250635Y-16949900D02*
X17269682Y-16921329D01*
X17269682Y-16921329D02*
X17279206Y-16902281D01*
X17279206Y-16902281D02*
X17288730Y-16873710D01*
X17288730Y-16873710D02*
X17298254Y-16826091D01*
X17298254Y-16826091D02*
X17298254Y-16787996D01*
X17298254Y-16787996D02*
X17288730Y-16740377D01*
X17288730Y-16740377D02*
X17279206Y-16711805D01*
X17279206Y-16711805D02*
X17269682Y-16692758D01*
X17269682Y-16692758D02*
X17250635Y-16664186D01*
X17250635Y-16664186D02*
X17241111Y-16654662D01*
X10747000Y-16955750D02*
X10747000Y-17155750D01*
X10647000Y-17055750D02*
X10847000Y-17055750D01*
X10847000Y-17055750D02*
G75*
G03*
X10847000Y-17055750I-100000J0D01*
G01*
X11193491Y-17013900D02*
X11193491Y-17147234D01*
X11145872Y-16937710D02*
X11098253Y-17080567D01*
X11098253Y-17080567D02*
X11222062Y-17080567D01*
X11298253Y-17128186D02*
X11307777Y-17137710D01*
X11307777Y-17137710D02*
X11298253Y-17147234D01*
X11298253Y-17147234D02*
X11288729Y-17137710D01*
X11288729Y-17137710D02*
X11298253Y-17128186D01*
X11298253Y-17128186D02*
X11298253Y-17147234D01*
X11431586Y-16947234D02*
X11450634Y-16947234D01*
X11450634Y-16947234D02*
X11469682Y-16956758D01*
X11469682Y-16956758D02*
X11479205Y-16966281D01*
X11479205Y-16966281D02*
X11488729Y-16985329D01*
X11488729Y-16985329D02*
X11498253Y-17023424D01*
X11498253Y-17023424D02*
X11498253Y-17071043D01*
X11498253Y-17071043D02*
X11488729Y-17109139D01*
X11488729Y-17109139D02*
X11479205Y-17128186D01*
X11479205Y-17128186D02*
X11469682Y-17137710D01*
X11469682Y-17137710D02*
X11450634Y-17147234D01*
X11450634Y-17147234D02*
X11431586Y-17147234D01*
X11431586Y-17147234D02*
X11412539Y-17137710D01*
X11412539Y-17137710D02*
X11403015Y-17128186D01*
X11403015Y-17128186D02*
X11393491Y-17109139D01*
X11393491Y-17109139D02*
X11383967Y-17071043D01*
X11383967Y-17071043D02*
X11383967Y-17023424D01*
X11383967Y-17023424D02*
X11393491Y-16985329D01*
X11393491Y-16985329D02*
X11403015Y-16966281D01*
X11403015Y-16966281D02*
X11412539Y-16956758D01*
X11412539Y-16956758D02*
X11431586Y-16947234D01*
X11622062Y-16947234D02*
X11641110Y-16947234D01*
X11641110Y-16947234D02*
X11660158Y-16956758D01*
X11660158Y-16956758D02*
X11669682Y-16966281D01*
X11669682Y-16966281D02*
X11679205Y-16985329D01*
X11679205Y-16985329D02*
X11688729Y-17023424D01*
X11688729Y-17023424D02*
X11688729Y-17071043D01*
X11688729Y-17071043D02*
X11679205Y-17109139D01*
X11679205Y-17109139D02*
X11669682Y-17128186D01*
X11669682Y-17128186D02*
X11660158Y-17137710D01*
X11660158Y-17137710D02*
X11641110Y-17147234D01*
X11641110Y-17147234D02*
X11622062Y-17147234D01*
X11622062Y-17147234D02*
X11603015Y-17137710D01*
X11603015Y-17137710D02*
X11593491Y-17128186D01*
X11593491Y-17128186D02*
X11583967Y-17109139D01*
X11583967Y-17109139D02*
X11574443Y-17071043D01*
X11574443Y-17071043D02*
X11574443Y-17023424D01*
X11574443Y-17023424D02*
X11583967Y-16985329D01*
X11583967Y-16985329D02*
X11593491Y-16966281D01*
X11593491Y-16966281D02*
X11603015Y-16956758D01*
X11603015Y-16956758D02*
X11622062Y-16947234D01*
X11812539Y-16947234D02*
X11831586Y-16947234D01*
X11831586Y-16947234D02*
X11850634Y-16956758D01*
X11850634Y-16956758D02*
X11860158Y-16966281D01*
X11860158Y-16966281D02*
X11869682Y-16985329D01*
X11869682Y-16985329D02*
X11879205Y-17023424D01*
X11879205Y-17023424D02*
X11879205Y-17071043D01*
X11879205Y-17071043D02*
X11869682Y-17109139D01*
X11869682Y-17109139D02*
X11860158Y-17128186D01*
X11860158Y-17128186D02*
X11850634Y-17137710D01*
X11850634Y-17137710D02*
X11831586Y-17147234D01*
X11831586Y-17147234D02*
X11812539Y-17147234D01*
X11812539Y-17147234D02*
X11793491Y-17137710D01*
X11793491Y-17137710D02*
X11783967Y-17128186D01*
X11783967Y-17128186D02*
X11774443Y-17109139D01*
X11774443Y-17109139D02*
X11764920Y-17071043D01*
X11764920Y-17071043D02*
X11764920Y-17023424D01*
X11764920Y-17023424D02*
X11774443Y-16985329D01*
X11774443Y-16985329D02*
X11783967Y-16966281D01*
X11783967Y-16966281D02*
X11793491Y-16956758D01*
X11793491Y-16956758D02*
X11812539Y-16947234D01*
X11964920Y-17147234D02*
X11964920Y-17013900D01*
X11964920Y-17032948D02*
X11974443Y-17023424D01*
X11974443Y-17023424D02*
X11993491Y-17013900D01*
X11993491Y-17013900D02*
X12022063Y-17013900D01*
X12022063Y-17013900D02*
X12041110Y-17023424D01*
X12041110Y-17023424D02*
X12050634Y-17042472D01*
X12050634Y-17042472D02*
X12050634Y-17147234D01*
X12050634Y-17042472D02*
X12060158Y-17023424D01*
X12060158Y-17023424D02*
X12079205Y-17013900D01*
X12079205Y-17013900D02*
X12107777Y-17013900D01*
X12107777Y-17013900D02*
X12126824Y-17023424D01*
X12126824Y-17023424D02*
X12136348Y-17042472D01*
X12136348Y-17042472D02*
X12136348Y-17147234D01*
X12231586Y-17147234D02*
X12231586Y-17013900D01*
X12231586Y-17032948D02*
X12241110Y-17023424D01*
X12241110Y-17023424D02*
X12260158Y-17013900D01*
X12260158Y-17013900D02*
X12288729Y-17013900D01*
X12288729Y-17013900D02*
X12307777Y-17023424D01*
X12307777Y-17023424D02*
X12317301Y-17042472D01*
X12317301Y-17042472D02*
X12317301Y-17147234D01*
X12317301Y-17042472D02*
X12326824Y-17023424D01*
X12326824Y-17023424D02*
X12345872Y-17013900D01*
X12345872Y-17013900D02*
X12374443Y-17013900D01*
X12374443Y-17013900D02*
X12393491Y-17023424D01*
X12393491Y-17023424D02*
X12403015Y-17042472D01*
X12403015Y-17042472D02*
X12403015Y-17147234D01*
X12793491Y-16937710D02*
X12622063Y-17194853D01*
X13050634Y-16947234D02*
X13069682Y-16947234D01*
X13069682Y-16947234D02*
X13088729Y-16956758D01*
X13088729Y-16956758D02*
X13098253Y-16966281D01*
X13098253Y-16966281D02*
X13107777Y-16985329D01*
X13107777Y-16985329D02*
X13117301Y-17023424D01*
X13117301Y-17023424D02*
X13117301Y-17071043D01*
X13117301Y-17071043D02*
X13107777Y-17109139D01*
X13107777Y-17109139D02*
X13098253Y-17128186D01*
X13098253Y-17128186D02*
X13088729Y-17137710D01*
X13088729Y-17137710D02*
X13069682Y-17147234D01*
X13069682Y-17147234D02*
X13050634Y-17147234D01*
X13050634Y-17147234D02*
X13031586Y-17137710D01*
X13031586Y-17137710D02*
X13022063Y-17128186D01*
X13022063Y-17128186D02*
X13012539Y-17109139D01*
X13012539Y-17109139D02*
X13003015Y-17071043D01*
X13003015Y-17071043D02*
X13003015Y-17023424D01*
X13003015Y-17023424D02*
X13012539Y-16985329D01*
X13012539Y-16985329D02*
X13022063Y-16966281D01*
X13022063Y-16966281D02*
X13031586Y-16956758D01*
X13031586Y-16956758D02*
X13050634Y-16947234D01*
X13203015Y-17128186D02*
X13212539Y-17137710D01*
X13212539Y-17137710D02*
X13203015Y-17147234D01*
X13203015Y-17147234D02*
X13193491Y-17137710D01*
X13193491Y-17137710D02*
X13203015Y-17128186D01*
X13203015Y-17128186D02*
X13203015Y-17147234D01*
X13403015Y-17147234D02*
X13288729Y-17147234D01*
X13345872Y-17147234D02*
X13345872Y-16947234D01*
X13345872Y-16947234D02*
X13326825Y-16975805D01*
X13326825Y-16975805D02*
X13307777Y-16994853D01*
X13307777Y-16994853D02*
X13288729Y-17004377D01*
X13583967Y-16947234D02*
X13488729Y-16947234D01*
X13488729Y-16947234D02*
X13479206Y-17042472D01*
X13479206Y-17042472D02*
X13488729Y-17032948D01*
X13488729Y-17032948D02*
X13507777Y-17023424D01*
X13507777Y-17023424D02*
X13555396Y-17023424D01*
X13555396Y-17023424D02*
X13574444Y-17032948D01*
X13574444Y-17032948D02*
X13583967Y-17042472D01*
X13583967Y-17042472D02*
X13593491Y-17061520D01*
X13593491Y-17061520D02*
X13593491Y-17109139D01*
X13593491Y-17109139D02*
X13583967Y-17128186D01*
X13583967Y-17128186D02*
X13574444Y-17137710D01*
X13574444Y-17137710D02*
X13555396Y-17147234D01*
X13555396Y-17147234D02*
X13507777Y-17147234D01*
X13507777Y-17147234D02*
X13488729Y-17137710D01*
X13488729Y-17137710D02*
X13479206Y-17128186D01*
X13660158Y-16947234D02*
X13793491Y-16947234D01*
X13793491Y-16947234D02*
X13707777Y-17147234D01*
X13964920Y-16947234D02*
X13869682Y-16947234D01*
X13869682Y-16947234D02*
X13860158Y-17042472D01*
X13860158Y-17042472D02*
X13869682Y-17032948D01*
X13869682Y-17032948D02*
X13888729Y-17023424D01*
X13888729Y-17023424D02*
X13936348Y-17023424D01*
X13936348Y-17023424D02*
X13955396Y-17032948D01*
X13955396Y-17032948D02*
X13964920Y-17042472D01*
X13964920Y-17042472D02*
X13974444Y-17061520D01*
X13974444Y-17061520D02*
X13974444Y-17109139D01*
X13974444Y-17109139D02*
X13964920Y-17128186D01*
X13964920Y-17128186D02*
X13955396Y-17137710D01*
X13955396Y-17137710D02*
X13936348Y-17147234D01*
X13936348Y-17147234D02*
X13888729Y-17147234D01*
X13888729Y-17147234D02*
X13869682Y-17137710D01*
X13869682Y-17137710D02*
X13860158Y-17128186D01*
X14050634Y-16947234D02*
X14050634Y-16985329D01*
X14126825Y-16947234D02*
X14126825Y-16985329D01*
X14422063Y-17223424D02*
X14412539Y-17213900D01*
X14412539Y-17213900D02*
X14393491Y-17185329D01*
X14393491Y-17185329D02*
X14383968Y-17166281D01*
X14383968Y-17166281D02*
X14374444Y-17137710D01*
X14374444Y-17137710D02*
X14364920Y-17090091D01*
X14364920Y-17090091D02*
X14364920Y-17051996D01*
X14364920Y-17051996D02*
X14374444Y-17004377D01*
X14374444Y-17004377D02*
X14383968Y-16975805D01*
X14383968Y-16975805D02*
X14393491Y-16956758D01*
X14393491Y-16956758D02*
X14412539Y-16928186D01*
X14412539Y-16928186D02*
X14422063Y-16918662D01*
X14488729Y-16966281D02*
X14498253Y-16956758D01*
X14498253Y-16956758D02*
X14517301Y-16947234D01*
X14517301Y-16947234D02*
X14564920Y-16947234D01*
X14564920Y-16947234D02*
X14583968Y-16956758D01*
X14583968Y-16956758D02*
X14593491Y-16966281D01*
X14593491Y-16966281D02*
X14603015Y-16985329D01*
X14603015Y-16985329D02*
X14603015Y-17004377D01*
X14603015Y-17004377D02*
X14593491Y-17032948D01*
X14593491Y-17032948D02*
X14479206Y-17147234D01*
X14479206Y-17147234D02*
X14603015Y-17147234D01*
X14841110Y-17147234D02*
X14841110Y-16947234D01*
X14926825Y-17147234D02*
X14926825Y-17042472D01*
X14926825Y-17042472D02*
X14917301Y-17023424D01*
X14917301Y-17023424D02*
X14898253Y-17013900D01*
X14898253Y-17013900D02*
X14869682Y-17013900D01*
X14869682Y-17013900D02*
X14850634Y-17023424D01*
X14850634Y-17023424D02*
X14841110Y-17032948D01*
X15050634Y-17147234D02*
X15031587Y-17137710D01*
X15031587Y-17137710D02*
X15022063Y-17128186D01*
X15022063Y-17128186D02*
X15012539Y-17109139D01*
X15012539Y-17109139D02*
X15012539Y-17051996D01*
X15012539Y-17051996D02*
X15022063Y-17032948D01*
X15022063Y-17032948D02*
X15031587Y-17023424D01*
X15031587Y-17023424D02*
X15050634Y-17013900D01*
X15050634Y-17013900D02*
X15079206Y-17013900D01*
X15079206Y-17013900D02*
X15098253Y-17023424D01*
X15098253Y-17023424D02*
X15107777Y-17032948D01*
X15107777Y-17032948D02*
X15117301Y-17051996D01*
X15117301Y-17051996D02*
X15117301Y-17109139D01*
X15117301Y-17109139D02*
X15107777Y-17128186D01*
X15107777Y-17128186D02*
X15098253Y-17137710D01*
X15098253Y-17137710D02*
X15079206Y-17147234D01*
X15079206Y-17147234D02*
X15050634Y-17147234D01*
X15231587Y-17147234D02*
X15212539Y-17137710D01*
X15212539Y-17137710D02*
X15203015Y-17118662D01*
X15203015Y-17118662D02*
X15203015Y-16947234D01*
X15383968Y-17137710D02*
X15364920Y-17147234D01*
X15364920Y-17147234D02*
X15326825Y-17147234D01*
X15326825Y-17147234D02*
X15307777Y-17137710D01*
X15307777Y-17137710D02*
X15298253Y-17118662D01*
X15298253Y-17118662D02*
X15298253Y-17042472D01*
X15298253Y-17042472D02*
X15307777Y-17023424D01*
X15307777Y-17023424D02*
X15326825Y-17013900D01*
X15326825Y-17013900D02*
X15364920Y-17013900D01*
X15364920Y-17013900D02*
X15383968Y-17023424D01*
X15383968Y-17023424D02*
X15393491Y-17042472D01*
X15393491Y-17042472D02*
X15393491Y-17061520D01*
X15393491Y-17061520D02*
X15298253Y-17080567D01*
X15469682Y-17137710D02*
X15488730Y-17147234D01*
X15488730Y-17147234D02*
X15526825Y-17147234D01*
X15526825Y-17147234D02*
X15545872Y-17137710D01*
X15545872Y-17137710D02*
X15555396Y-17118662D01*
X15555396Y-17118662D02*
X15555396Y-17109139D01*
X15555396Y-17109139D02*
X15545872Y-17090091D01*
X15545872Y-17090091D02*
X15526825Y-17080567D01*
X15526825Y-17080567D02*
X15498253Y-17080567D01*
X15498253Y-17080567D02*
X15479206Y-17071043D01*
X15479206Y-17071043D02*
X15469682Y-17051996D01*
X15469682Y-17051996D02*
X15469682Y-17042472D01*
X15469682Y-17042472D02*
X15479206Y-17023424D01*
X15479206Y-17023424D02*
X15498253Y-17013900D01*
X15498253Y-17013900D02*
X15526825Y-17013900D01*
X15526825Y-17013900D02*
X15545872Y-17023424D01*
X15622063Y-17223424D02*
X15631587Y-17213900D01*
X15631587Y-17213900D02*
X15650634Y-17185329D01*
X15650634Y-17185329D02*
X15660158Y-17166281D01*
X15660158Y-17166281D02*
X15669682Y-17137710D01*
X15669682Y-17137710D02*
X15679206Y-17090091D01*
X15679206Y-17090091D02*
X15679206Y-17051996D01*
X15679206Y-17051996D02*
X15669682Y-17004377D01*
X15669682Y-17004377D02*
X15660158Y-16975805D01*
X15660158Y-16975805D02*
X15650634Y-16956758D01*
X15650634Y-16956758D02*
X15631587Y-16928186D01*
X15631587Y-16928186D02*
X15622063Y-16918662D01*
M02*
