%TF.GenerationSoftware,KiCad,Pcbnew,7.0.8*%
%TF.CreationDate,2023-11-10T10:02:43+08:00*%
%TF.ProjectId,ESPCARproject,45535043-4152-4707-926f-6a6563742e6b,rev?*%
%TF.SameCoordinates,Original*%
%TF.FileFunction,Drillmap*%
%TF.FilePolarity,Positive*%
%FSLAX45Y45*%
G04 Gerber Fmt 4.5, Leading zero omitted, Abs format (unit mm)*
G04 Created by KiCad (PCBNEW 7.0.8) date 2023-11-10 10:02:43*
%MOMM*%
%LPD*%
G01*
G04 APERTURE LIST*
%ADD10C,0.100000*%
%ADD11C,0.200000*%
%ADD12C,0.065000*%
%ADD13C,0.320000*%
G04 APERTURE END LIST*
D10*
X10852000Y-4837750D02*
X18649000Y-4837750D01*
X18649000Y-14034750D01*
X10852000Y-14034750D01*
X10852000Y-4837750D01*
D11*
D12*
X11485500Y-8178000D02*
X11550500Y-8243000D01*
X11550500Y-8178000D02*
X11485500Y-8243000D01*
X11485500Y-8756000D02*
X11550500Y-8821000D01*
X11550500Y-8756000D02*
X11485500Y-8821000D01*
D13*
X12149500Y-12963000D02*
G75*
G03*
X12149500Y-12963000I-160000J0D01*
G01*
X17711000Y-12963000D02*
G75*
G03*
X17711000Y-12963000I-160000J0D01*
G01*
D11*
X11107777Y-14351234D02*
X11107777Y-14151234D01*
X11107777Y-14151234D02*
X11155396Y-14151234D01*
X11155396Y-14151234D02*
X11183967Y-14160758D01*
X11183967Y-14160758D02*
X11203015Y-14179805D01*
X11203015Y-14179805D02*
X11212539Y-14198853D01*
X11212539Y-14198853D02*
X11222062Y-14236948D01*
X11222062Y-14236948D02*
X11222062Y-14265519D01*
X11222062Y-14265519D02*
X11212539Y-14303615D01*
X11212539Y-14303615D02*
X11203015Y-14322662D01*
X11203015Y-14322662D02*
X11183967Y-14341710D01*
X11183967Y-14341710D02*
X11155396Y-14351234D01*
X11155396Y-14351234D02*
X11107777Y-14351234D01*
X11307777Y-14351234D02*
X11307777Y-14217900D01*
X11307777Y-14255996D02*
X11317301Y-14236948D01*
X11317301Y-14236948D02*
X11326824Y-14227424D01*
X11326824Y-14227424D02*
X11345872Y-14217900D01*
X11345872Y-14217900D02*
X11364920Y-14217900D01*
X11431586Y-14351234D02*
X11431586Y-14217900D01*
X11431586Y-14151234D02*
X11422062Y-14160758D01*
X11422062Y-14160758D02*
X11431586Y-14170281D01*
X11431586Y-14170281D02*
X11441110Y-14160758D01*
X11441110Y-14160758D02*
X11431586Y-14151234D01*
X11431586Y-14151234D02*
X11431586Y-14170281D01*
X11555396Y-14351234D02*
X11536348Y-14341710D01*
X11536348Y-14341710D02*
X11526824Y-14322662D01*
X11526824Y-14322662D02*
X11526824Y-14151234D01*
X11660158Y-14351234D02*
X11641110Y-14341710D01*
X11641110Y-14341710D02*
X11631586Y-14322662D01*
X11631586Y-14322662D02*
X11631586Y-14151234D01*
X11888729Y-14351234D02*
X11888729Y-14151234D01*
X11888729Y-14151234D02*
X11955396Y-14294091D01*
X11955396Y-14294091D02*
X12022062Y-14151234D01*
X12022062Y-14151234D02*
X12022062Y-14351234D01*
X12203015Y-14351234D02*
X12203015Y-14246472D01*
X12203015Y-14246472D02*
X12193491Y-14227424D01*
X12193491Y-14227424D02*
X12174443Y-14217900D01*
X12174443Y-14217900D02*
X12136348Y-14217900D01*
X12136348Y-14217900D02*
X12117301Y-14227424D01*
X12203015Y-14341710D02*
X12183967Y-14351234D01*
X12183967Y-14351234D02*
X12136348Y-14351234D01*
X12136348Y-14351234D02*
X12117301Y-14341710D01*
X12117301Y-14341710D02*
X12107777Y-14322662D01*
X12107777Y-14322662D02*
X12107777Y-14303615D01*
X12107777Y-14303615D02*
X12117301Y-14284567D01*
X12117301Y-14284567D02*
X12136348Y-14275043D01*
X12136348Y-14275043D02*
X12183967Y-14275043D01*
X12183967Y-14275043D02*
X12203015Y-14265519D01*
X12298253Y-14217900D02*
X12298253Y-14417900D01*
X12298253Y-14227424D02*
X12317301Y-14217900D01*
X12317301Y-14217900D02*
X12355396Y-14217900D01*
X12355396Y-14217900D02*
X12374443Y-14227424D01*
X12374443Y-14227424D02*
X12383967Y-14236948D01*
X12383967Y-14236948D02*
X12393491Y-14255996D01*
X12393491Y-14255996D02*
X12393491Y-14313138D01*
X12393491Y-14313138D02*
X12383967Y-14332186D01*
X12383967Y-14332186D02*
X12374443Y-14341710D01*
X12374443Y-14341710D02*
X12355396Y-14351234D01*
X12355396Y-14351234D02*
X12317301Y-14351234D01*
X12317301Y-14351234D02*
X12298253Y-14341710D01*
X12479205Y-14332186D02*
X12488729Y-14341710D01*
X12488729Y-14341710D02*
X12479205Y-14351234D01*
X12479205Y-14351234D02*
X12469682Y-14341710D01*
X12469682Y-14341710D02*
X12479205Y-14332186D01*
X12479205Y-14332186D02*
X12479205Y-14351234D01*
X12479205Y-14227424D02*
X12488729Y-14236948D01*
X12488729Y-14236948D02*
X12479205Y-14246472D01*
X12479205Y-14246472D02*
X12469682Y-14236948D01*
X12469682Y-14236948D02*
X12479205Y-14227424D01*
X12479205Y-14227424D02*
X12479205Y-14246472D01*
D12*
X10782000Y-14647250D02*
X10847000Y-14712250D01*
X10847000Y-14647250D02*
X10782000Y-14712250D01*
D11*
X11145872Y-14571234D02*
X11164920Y-14571234D01*
X11164920Y-14571234D02*
X11183967Y-14580758D01*
X11183967Y-14580758D02*
X11193491Y-14590281D01*
X11193491Y-14590281D02*
X11203015Y-14609329D01*
X11203015Y-14609329D02*
X11212539Y-14647424D01*
X11212539Y-14647424D02*
X11212539Y-14695043D01*
X11212539Y-14695043D02*
X11203015Y-14733138D01*
X11203015Y-14733138D02*
X11193491Y-14752186D01*
X11193491Y-14752186D02*
X11183967Y-14761710D01*
X11183967Y-14761710D02*
X11164920Y-14771234D01*
X11164920Y-14771234D02*
X11145872Y-14771234D01*
X11145872Y-14771234D02*
X11126824Y-14761710D01*
X11126824Y-14761710D02*
X11117301Y-14752186D01*
X11117301Y-14752186D02*
X11107777Y-14733138D01*
X11107777Y-14733138D02*
X11098253Y-14695043D01*
X11098253Y-14695043D02*
X11098253Y-14647424D01*
X11098253Y-14647424D02*
X11107777Y-14609329D01*
X11107777Y-14609329D02*
X11117301Y-14590281D01*
X11117301Y-14590281D02*
X11126824Y-14580758D01*
X11126824Y-14580758D02*
X11145872Y-14571234D01*
X11298253Y-14752186D02*
X11307777Y-14761710D01*
X11307777Y-14761710D02*
X11298253Y-14771234D01*
X11298253Y-14771234D02*
X11288729Y-14761710D01*
X11288729Y-14761710D02*
X11298253Y-14752186D01*
X11298253Y-14752186D02*
X11298253Y-14771234D01*
X11479205Y-14571234D02*
X11441110Y-14571234D01*
X11441110Y-14571234D02*
X11422062Y-14580758D01*
X11422062Y-14580758D02*
X11412539Y-14590281D01*
X11412539Y-14590281D02*
X11393491Y-14618853D01*
X11393491Y-14618853D02*
X11383967Y-14656948D01*
X11383967Y-14656948D02*
X11383967Y-14733138D01*
X11383967Y-14733138D02*
X11393491Y-14752186D01*
X11393491Y-14752186D02*
X11403015Y-14761710D01*
X11403015Y-14761710D02*
X11422062Y-14771234D01*
X11422062Y-14771234D02*
X11460158Y-14771234D01*
X11460158Y-14771234D02*
X11479205Y-14761710D01*
X11479205Y-14761710D02*
X11488729Y-14752186D01*
X11488729Y-14752186D02*
X11498253Y-14733138D01*
X11498253Y-14733138D02*
X11498253Y-14685519D01*
X11498253Y-14685519D02*
X11488729Y-14666472D01*
X11488729Y-14666472D02*
X11479205Y-14656948D01*
X11479205Y-14656948D02*
X11460158Y-14647424D01*
X11460158Y-14647424D02*
X11422062Y-14647424D01*
X11422062Y-14647424D02*
X11403015Y-14656948D01*
X11403015Y-14656948D02*
X11393491Y-14666472D01*
X11393491Y-14666472D02*
X11383967Y-14685519D01*
X11679205Y-14571234D02*
X11583967Y-14571234D01*
X11583967Y-14571234D02*
X11574443Y-14666472D01*
X11574443Y-14666472D02*
X11583967Y-14656948D01*
X11583967Y-14656948D02*
X11603015Y-14647424D01*
X11603015Y-14647424D02*
X11650634Y-14647424D01*
X11650634Y-14647424D02*
X11669682Y-14656948D01*
X11669682Y-14656948D02*
X11679205Y-14666472D01*
X11679205Y-14666472D02*
X11688729Y-14685519D01*
X11688729Y-14685519D02*
X11688729Y-14733138D01*
X11688729Y-14733138D02*
X11679205Y-14752186D01*
X11679205Y-14752186D02*
X11669682Y-14761710D01*
X11669682Y-14761710D02*
X11650634Y-14771234D01*
X11650634Y-14771234D02*
X11603015Y-14771234D01*
X11603015Y-14771234D02*
X11583967Y-14761710D01*
X11583967Y-14761710D02*
X11574443Y-14752186D01*
X11812539Y-14571234D02*
X11831586Y-14571234D01*
X11831586Y-14571234D02*
X11850634Y-14580758D01*
X11850634Y-14580758D02*
X11860158Y-14590281D01*
X11860158Y-14590281D02*
X11869682Y-14609329D01*
X11869682Y-14609329D02*
X11879205Y-14647424D01*
X11879205Y-14647424D02*
X11879205Y-14695043D01*
X11879205Y-14695043D02*
X11869682Y-14733138D01*
X11869682Y-14733138D02*
X11860158Y-14752186D01*
X11860158Y-14752186D02*
X11850634Y-14761710D01*
X11850634Y-14761710D02*
X11831586Y-14771234D01*
X11831586Y-14771234D02*
X11812539Y-14771234D01*
X11812539Y-14771234D02*
X11793491Y-14761710D01*
X11793491Y-14761710D02*
X11783967Y-14752186D01*
X11783967Y-14752186D02*
X11774443Y-14733138D01*
X11774443Y-14733138D02*
X11764920Y-14695043D01*
X11764920Y-14695043D02*
X11764920Y-14647424D01*
X11764920Y-14647424D02*
X11774443Y-14609329D01*
X11774443Y-14609329D02*
X11783967Y-14590281D01*
X11783967Y-14590281D02*
X11793491Y-14580758D01*
X11793491Y-14580758D02*
X11812539Y-14571234D01*
X11964920Y-14771234D02*
X11964920Y-14637900D01*
X11964920Y-14656948D02*
X11974443Y-14647424D01*
X11974443Y-14647424D02*
X11993491Y-14637900D01*
X11993491Y-14637900D02*
X12022063Y-14637900D01*
X12022063Y-14637900D02*
X12041110Y-14647424D01*
X12041110Y-14647424D02*
X12050634Y-14666472D01*
X12050634Y-14666472D02*
X12050634Y-14771234D01*
X12050634Y-14666472D02*
X12060158Y-14647424D01*
X12060158Y-14647424D02*
X12079205Y-14637900D01*
X12079205Y-14637900D02*
X12107777Y-14637900D01*
X12107777Y-14637900D02*
X12126824Y-14647424D01*
X12126824Y-14647424D02*
X12136348Y-14666472D01*
X12136348Y-14666472D02*
X12136348Y-14771234D01*
X12231586Y-14771234D02*
X12231586Y-14637900D01*
X12231586Y-14656948D02*
X12241110Y-14647424D01*
X12241110Y-14647424D02*
X12260158Y-14637900D01*
X12260158Y-14637900D02*
X12288729Y-14637900D01*
X12288729Y-14637900D02*
X12307777Y-14647424D01*
X12307777Y-14647424D02*
X12317301Y-14666472D01*
X12317301Y-14666472D02*
X12317301Y-14771234D01*
X12317301Y-14666472D02*
X12326824Y-14647424D01*
X12326824Y-14647424D02*
X12345872Y-14637900D01*
X12345872Y-14637900D02*
X12374443Y-14637900D01*
X12374443Y-14637900D02*
X12393491Y-14647424D01*
X12393491Y-14647424D02*
X12403015Y-14666472D01*
X12403015Y-14666472D02*
X12403015Y-14771234D01*
X12793491Y-14561710D02*
X12622063Y-14818853D01*
X13050634Y-14571234D02*
X13069682Y-14571234D01*
X13069682Y-14571234D02*
X13088729Y-14580758D01*
X13088729Y-14580758D02*
X13098253Y-14590281D01*
X13098253Y-14590281D02*
X13107777Y-14609329D01*
X13107777Y-14609329D02*
X13117301Y-14647424D01*
X13117301Y-14647424D02*
X13117301Y-14695043D01*
X13117301Y-14695043D02*
X13107777Y-14733138D01*
X13107777Y-14733138D02*
X13098253Y-14752186D01*
X13098253Y-14752186D02*
X13088729Y-14761710D01*
X13088729Y-14761710D02*
X13069682Y-14771234D01*
X13069682Y-14771234D02*
X13050634Y-14771234D01*
X13050634Y-14771234D02*
X13031586Y-14761710D01*
X13031586Y-14761710D02*
X13022063Y-14752186D01*
X13022063Y-14752186D02*
X13012539Y-14733138D01*
X13012539Y-14733138D02*
X13003015Y-14695043D01*
X13003015Y-14695043D02*
X13003015Y-14647424D01*
X13003015Y-14647424D02*
X13012539Y-14609329D01*
X13012539Y-14609329D02*
X13022063Y-14590281D01*
X13022063Y-14590281D02*
X13031586Y-14580758D01*
X13031586Y-14580758D02*
X13050634Y-14571234D01*
X13203015Y-14752186D02*
X13212539Y-14761710D01*
X13212539Y-14761710D02*
X13203015Y-14771234D01*
X13203015Y-14771234D02*
X13193491Y-14761710D01*
X13193491Y-14761710D02*
X13203015Y-14752186D01*
X13203015Y-14752186D02*
X13203015Y-14771234D01*
X13336348Y-14571234D02*
X13355396Y-14571234D01*
X13355396Y-14571234D02*
X13374444Y-14580758D01*
X13374444Y-14580758D02*
X13383967Y-14590281D01*
X13383967Y-14590281D02*
X13393491Y-14609329D01*
X13393491Y-14609329D02*
X13403015Y-14647424D01*
X13403015Y-14647424D02*
X13403015Y-14695043D01*
X13403015Y-14695043D02*
X13393491Y-14733138D01*
X13393491Y-14733138D02*
X13383967Y-14752186D01*
X13383967Y-14752186D02*
X13374444Y-14761710D01*
X13374444Y-14761710D02*
X13355396Y-14771234D01*
X13355396Y-14771234D02*
X13336348Y-14771234D01*
X13336348Y-14771234D02*
X13317301Y-14761710D01*
X13317301Y-14761710D02*
X13307777Y-14752186D01*
X13307777Y-14752186D02*
X13298253Y-14733138D01*
X13298253Y-14733138D02*
X13288729Y-14695043D01*
X13288729Y-14695043D02*
X13288729Y-14647424D01*
X13288729Y-14647424D02*
X13298253Y-14609329D01*
X13298253Y-14609329D02*
X13307777Y-14590281D01*
X13307777Y-14590281D02*
X13317301Y-14580758D01*
X13317301Y-14580758D02*
X13336348Y-14571234D01*
X13479206Y-14590281D02*
X13488729Y-14580758D01*
X13488729Y-14580758D02*
X13507777Y-14571234D01*
X13507777Y-14571234D02*
X13555396Y-14571234D01*
X13555396Y-14571234D02*
X13574444Y-14580758D01*
X13574444Y-14580758D02*
X13583967Y-14590281D01*
X13583967Y-14590281D02*
X13593491Y-14609329D01*
X13593491Y-14609329D02*
X13593491Y-14628377D01*
X13593491Y-14628377D02*
X13583967Y-14656948D01*
X13583967Y-14656948D02*
X13469682Y-14771234D01*
X13469682Y-14771234D02*
X13593491Y-14771234D01*
X13774444Y-14571234D02*
X13679206Y-14571234D01*
X13679206Y-14571234D02*
X13669682Y-14666472D01*
X13669682Y-14666472D02*
X13679206Y-14656948D01*
X13679206Y-14656948D02*
X13698253Y-14647424D01*
X13698253Y-14647424D02*
X13745872Y-14647424D01*
X13745872Y-14647424D02*
X13764920Y-14656948D01*
X13764920Y-14656948D02*
X13774444Y-14666472D01*
X13774444Y-14666472D02*
X13783967Y-14685519D01*
X13783967Y-14685519D02*
X13783967Y-14733138D01*
X13783967Y-14733138D02*
X13774444Y-14752186D01*
X13774444Y-14752186D02*
X13764920Y-14761710D01*
X13764920Y-14761710D02*
X13745872Y-14771234D01*
X13745872Y-14771234D02*
X13698253Y-14771234D01*
X13698253Y-14771234D02*
X13679206Y-14761710D01*
X13679206Y-14761710D02*
X13669682Y-14752186D01*
X13955396Y-14571234D02*
X13917301Y-14571234D01*
X13917301Y-14571234D02*
X13898253Y-14580758D01*
X13898253Y-14580758D02*
X13888729Y-14590281D01*
X13888729Y-14590281D02*
X13869682Y-14618853D01*
X13869682Y-14618853D02*
X13860158Y-14656948D01*
X13860158Y-14656948D02*
X13860158Y-14733138D01*
X13860158Y-14733138D02*
X13869682Y-14752186D01*
X13869682Y-14752186D02*
X13879206Y-14761710D01*
X13879206Y-14761710D02*
X13898253Y-14771234D01*
X13898253Y-14771234D02*
X13936348Y-14771234D01*
X13936348Y-14771234D02*
X13955396Y-14761710D01*
X13955396Y-14761710D02*
X13964920Y-14752186D01*
X13964920Y-14752186D02*
X13974444Y-14733138D01*
X13974444Y-14733138D02*
X13974444Y-14685519D01*
X13974444Y-14685519D02*
X13964920Y-14666472D01*
X13964920Y-14666472D02*
X13955396Y-14656948D01*
X13955396Y-14656948D02*
X13936348Y-14647424D01*
X13936348Y-14647424D02*
X13898253Y-14647424D01*
X13898253Y-14647424D02*
X13879206Y-14656948D01*
X13879206Y-14656948D02*
X13869682Y-14666472D01*
X13869682Y-14666472D02*
X13860158Y-14685519D01*
X14050634Y-14571234D02*
X14050634Y-14609329D01*
X14126825Y-14571234D02*
X14126825Y-14609329D01*
X14422063Y-14847424D02*
X14412539Y-14837900D01*
X14412539Y-14837900D02*
X14393491Y-14809329D01*
X14393491Y-14809329D02*
X14383968Y-14790281D01*
X14383968Y-14790281D02*
X14374444Y-14761710D01*
X14374444Y-14761710D02*
X14364920Y-14714091D01*
X14364920Y-14714091D02*
X14364920Y-14675996D01*
X14364920Y-14675996D02*
X14374444Y-14628377D01*
X14374444Y-14628377D02*
X14383968Y-14599805D01*
X14383968Y-14599805D02*
X14393491Y-14580758D01*
X14393491Y-14580758D02*
X14412539Y-14552186D01*
X14412539Y-14552186D02*
X14422063Y-14542662D01*
X14488729Y-14590281D02*
X14498253Y-14580758D01*
X14498253Y-14580758D02*
X14517301Y-14571234D01*
X14517301Y-14571234D02*
X14564920Y-14571234D01*
X14564920Y-14571234D02*
X14583968Y-14580758D01*
X14583968Y-14580758D02*
X14593491Y-14590281D01*
X14593491Y-14590281D02*
X14603015Y-14609329D01*
X14603015Y-14609329D02*
X14603015Y-14628377D01*
X14603015Y-14628377D02*
X14593491Y-14656948D01*
X14593491Y-14656948D02*
X14479206Y-14771234D01*
X14479206Y-14771234D02*
X14603015Y-14771234D01*
X14841110Y-14771234D02*
X14841110Y-14571234D01*
X14926825Y-14771234D02*
X14926825Y-14666472D01*
X14926825Y-14666472D02*
X14917301Y-14647424D01*
X14917301Y-14647424D02*
X14898253Y-14637900D01*
X14898253Y-14637900D02*
X14869682Y-14637900D01*
X14869682Y-14637900D02*
X14850634Y-14647424D01*
X14850634Y-14647424D02*
X14841110Y-14656948D01*
X15050634Y-14771234D02*
X15031587Y-14761710D01*
X15031587Y-14761710D02*
X15022063Y-14752186D01*
X15022063Y-14752186D02*
X15012539Y-14733138D01*
X15012539Y-14733138D02*
X15012539Y-14675996D01*
X15012539Y-14675996D02*
X15022063Y-14656948D01*
X15022063Y-14656948D02*
X15031587Y-14647424D01*
X15031587Y-14647424D02*
X15050634Y-14637900D01*
X15050634Y-14637900D02*
X15079206Y-14637900D01*
X15079206Y-14637900D02*
X15098253Y-14647424D01*
X15098253Y-14647424D02*
X15107777Y-14656948D01*
X15107777Y-14656948D02*
X15117301Y-14675996D01*
X15117301Y-14675996D02*
X15117301Y-14733138D01*
X15117301Y-14733138D02*
X15107777Y-14752186D01*
X15107777Y-14752186D02*
X15098253Y-14761710D01*
X15098253Y-14761710D02*
X15079206Y-14771234D01*
X15079206Y-14771234D02*
X15050634Y-14771234D01*
X15231587Y-14771234D02*
X15212539Y-14761710D01*
X15212539Y-14761710D02*
X15203015Y-14742662D01*
X15203015Y-14742662D02*
X15203015Y-14571234D01*
X15383968Y-14761710D02*
X15364920Y-14771234D01*
X15364920Y-14771234D02*
X15326825Y-14771234D01*
X15326825Y-14771234D02*
X15307777Y-14761710D01*
X15307777Y-14761710D02*
X15298253Y-14742662D01*
X15298253Y-14742662D02*
X15298253Y-14666472D01*
X15298253Y-14666472D02*
X15307777Y-14647424D01*
X15307777Y-14647424D02*
X15326825Y-14637900D01*
X15326825Y-14637900D02*
X15364920Y-14637900D01*
X15364920Y-14637900D02*
X15383968Y-14647424D01*
X15383968Y-14647424D02*
X15393491Y-14666472D01*
X15393491Y-14666472D02*
X15393491Y-14685519D01*
X15393491Y-14685519D02*
X15298253Y-14704567D01*
X15469682Y-14761710D02*
X15488730Y-14771234D01*
X15488730Y-14771234D02*
X15526825Y-14771234D01*
X15526825Y-14771234D02*
X15545872Y-14761710D01*
X15545872Y-14761710D02*
X15555396Y-14742662D01*
X15555396Y-14742662D02*
X15555396Y-14733138D01*
X15555396Y-14733138D02*
X15545872Y-14714091D01*
X15545872Y-14714091D02*
X15526825Y-14704567D01*
X15526825Y-14704567D02*
X15498253Y-14704567D01*
X15498253Y-14704567D02*
X15479206Y-14695043D01*
X15479206Y-14695043D02*
X15469682Y-14675996D01*
X15469682Y-14675996D02*
X15469682Y-14666472D01*
X15469682Y-14666472D02*
X15479206Y-14647424D01*
X15479206Y-14647424D02*
X15498253Y-14637900D01*
X15498253Y-14637900D02*
X15526825Y-14637900D01*
X15526825Y-14637900D02*
X15545872Y-14647424D01*
X15622063Y-14847424D02*
X15631587Y-14837900D01*
X15631587Y-14837900D02*
X15650634Y-14809329D01*
X15650634Y-14809329D02*
X15660158Y-14790281D01*
X15660158Y-14790281D02*
X15669682Y-14761710D01*
X15669682Y-14761710D02*
X15679206Y-14714091D01*
X15679206Y-14714091D02*
X15679206Y-14675996D01*
X15679206Y-14675996D02*
X15669682Y-14628377D01*
X15669682Y-14628377D02*
X15660158Y-14599805D01*
X15660158Y-14599805D02*
X15650634Y-14580758D01*
X15650634Y-14580758D02*
X15631587Y-14552186D01*
X15631587Y-14552186D02*
X15622063Y-14542662D01*
X15983968Y-14847424D02*
X15974444Y-14837900D01*
X15974444Y-14837900D02*
X15955396Y-14809329D01*
X15955396Y-14809329D02*
X15945872Y-14790281D01*
X15945872Y-14790281D02*
X15936349Y-14761710D01*
X15936349Y-14761710D02*
X15926825Y-14714091D01*
X15926825Y-14714091D02*
X15926825Y-14675996D01*
X15926825Y-14675996D02*
X15936349Y-14628377D01*
X15936349Y-14628377D02*
X15945872Y-14599805D01*
X15945872Y-14599805D02*
X15955396Y-14580758D01*
X15955396Y-14580758D02*
X15974444Y-14552186D01*
X15974444Y-14552186D02*
X15983968Y-14542662D01*
X16060158Y-14637900D02*
X16060158Y-14771234D01*
X16060158Y-14656948D02*
X16069682Y-14647424D01*
X16069682Y-14647424D02*
X16088730Y-14637900D01*
X16088730Y-14637900D02*
X16117301Y-14637900D01*
X16117301Y-14637900D02*
X16136349Y-14647424D01*
X16136349Y-14647424D02*
X16145872Y-14666472D01*
X16145872Y-14666472D02*
X16145872Y-14771234D01*
X16269682Y-14771234D02*
X16250634Y-14761710D01*
X16250634Y-14761710D02*
X16241111Y-14752186D01*
X16241111Y-14752186D02*
X16231587Y-14733138D01*
X16231587Y-14733138D02*
X16231587Y-14675996D01*
X16231587Y-14675996D02*
X16241111Y-14656948D01*
X16241111Y-14656948D02*
X16250634Y-14647424D01*
X16250634Y-14647424D02*
X16269682Y-14637900D01*
X16269682Y-14637900D02*
X16298253Y-14637900D01*
X16298253Y-14637900D02*
X16317301Y-14647424D01*
X16317301Y-14647424D02*
X16326825Y-14656948D01*
X16326825Y-14656948D02*
X16336349Y-14675996D01*
X16336349Y-14675996D02*
X16336349Y-14733138D01*
X16336349Y-14733138D02*
X16326825Y-14752186D01*
X16326825Y-14752186D02*
X16317301Y-14761710D01*
X16317301Y-14761710D02*
X16298253Y-14771234D01*
X16298253Y-14771234D02*
X16269682Y-14771234D01*
X16393492Y-14637900D02*
X16469682Y-14637900D01*
X16422063Y-14571234D02*
X16422063Y-14742662D01*
X16422063Y-14742662D02*
X16431587Y-14761710D01*
X16431587Y-14761710D02*
X16450634Y-14771234D01*
X16450634Y-14771234D02*
X16469682Y-14771234D01*
X16688730Y-14637900D02*
X16688730Y-14837900D01*
X16688730Y-14647424D02*
X16707777Y-14637900D01*
X16707777Y-14637900D02*
X16745873Y-14637900D01*
X16745873Y-14637900D02*
X16764920Y-14647424D01*
X16764920Y-14647424D02*
X16774444Y-14656948D01*
X16774444Y-14656948D02*
X16783968Y-14675996D01*
X16783968Y-14675996D02*
X16783968Y-14733138D01*
X16783968Y-14733138D02*
X16774444Y-14752186D01*
X16774444Y-14752186D02*
X16764920Y-14761710D01*
X16764920Y-14761710D02*
X16745873Y-14771234D01*
X16745873Y-14771234D02*
X16707777Y-14771234D01*
X16707777Y-14771234D02*
X16688730Y-14761710D01*
X16898254Y-14771234D02*
X16879206Y-14761710D01*
X16879206Y-14761710D02*
X16869682Y-14742662D01*
X16869682Y-14742662D02*
X16869682Y-14571234D01*
X17060158Y-14771234D02*
X17060158Y-14666472D01*
X17060158Y-14666472D02*
X17050635Y-14647424D01*
X17050635Y-14647424D02*
X17031587Y-14637900D01*
X17031587Y-14637900D02*
X16993492Y-14637900D01*
X16993492Y-14637900D02*
X16974444Y-14647424D01*
X17060158Y-14761710D02*
X17041111Y-14771234D01*
X17041111Y-14771234D02*
X16993492Y-14771234D01*
X16993492Y-14771234D02*
X16974444Y-14761710D01*
X16974444Y-14761710D02*
X16964920Y-14742662D01*
X16964920Y-14742662D02*
X16964920Y-14723615D01*
X16964920Y-14723615D02*
X16974444Y-14704567D01*
X16974444Y-14704567D02*
X16993492Y-14695043D01*
X16993492Y-14695043D02*
X17041111Y-14695043D01*
X17041111Y-14695043D02*
X17060158Y-14685519D01*
X17126825Y-14637900D02*
X17203015Y-14637900D01*
X17155396Y-14571234D02*
X17155396Y-14742662D01*
X17155396Y-14742662D02*
X17164920Y-14761710D01*
X17164920Y-14761710D02*
X17183968Y-14771234D01*
X17183968Y-14771234D02*
X17203015Y-14771234D01*
X17345873Y-14761710D02*
X17326825Y-14771234D01*
X17326825Y-14771234D02*
X17288730Y-14771234D01*
X17288730Y-14771234D02*
X17269682Y-14761710D01*
X17269682Y-14761710D02*
X17260158Y-14742662D01*
X17260158Y-14742662D02*
X17260158Y-14666472D01*
X17260158Y-14666472D02*
X17269682Y-14647424D01*
X17269682Y-14647424D02*
X17288730Y-14637900D01*
X17288730Y-14637900D02*
X17326825Y-14637900D01*
X17326825Y-14637900D02*
X17345873Y-14647424D01*
X17345873Y-14647424D02*
X17355396Y-14666472D01*
X17355396Y-14666472D02*
X17355396Y-14685519D01*
X17355396Y-14685519D02*
X17260158Y-14704567D01*
X17526825Y-14771234D02*
X17526825Y-14571234D01*
X17526825Y-14761710D02*
X17507777Y-14771234D01*
X17507777Y-14771234D02*
X17469682Y-14771234D01*
X17469682Y-14771234D02*
X17450635Y-14761710D01*
X17450635Y-14761710D02*
X17441111Y-14752186D01*
X17441111Y-14752186D02*
X17431587Y-14733138D01*
X17431587Y-14733138D02*
X17431587Y-14675996D01*
X17431587Y-14675996D02*
X17441111Y-14656948D01*
X17441111Y-14656948D02*
X17450635Y-14647424D01*
X17450635Y-14647424D02*
X17469682Y-14637900D01*
X17469682Y-14637900D02*
X17507777Y-14637900D01*
X17507777Y-14637900D02*
X17526825Y-14647424D01*
X17603016Y-14847424D02*
X17612539Y-14837900D01*
X17612539Y-14837900D02*
X17631587Y-14809329D01*
X17631587Y-14809329D02*
X17641111Y-14790281D01*
X17641111Y-14790281D02*
X17650635Y-14761710D01*
X17650635Y-14761710D02*
X17660158Y-14714091D01*
X17660158Y-14714091D02*
X17660158Y-14675996D01*
X17660158Y-14675996D02*
X17650635Y-14628377D01*
X17650635Y-14628377D02*
X17641111Y-14599805D01*
X17641111Y-14599805D02*
X17631587Y-14580758D01*
X17631587Y-14580758D02*
X17612539Y-14552186D01*
X17612539Y-14552186D02*
X17603016Y-14542662D01*
X10847000Y-14943750D02*
G75*
G03*
X10847000Y-14943750I-100000J0D01*
G01*
X11088729Y-14835234D02*
X11212539Y-14835234D01*
X11212539Y-14835234D02*
X11145872Y-14911424D01*
X11145872Y-14911424D02*
X11174444Y-14911424D01*
X11174444Y-14911424D02*
X11193491Y-14920948D01*
X11193491Y-14920948D02*
X11203015Y-14930472D01*
X11203015Y-14930472D02*
X11212539Y-14949519D01*
X11212539Y-14949519D02*
X11212539Y-14997138D01*
X11212539Y-14997138D02*
X11203015Y-15016186D01*
X11203015Y-15016186D02*
X11193491Y-15025710D01*
X11193491Y-15025710D02*
X11174444Y-15035234D01*
X11174444Y-15035234D02*
X11117301Y-15035234D01*
X11117301Y-15035234D02*
X11098253Y-15025710D01*
X11098253Y-15025710D02*
X11088729Y-15016186D01*
X11298253Y-15016186D02*
X11307777Y-15025710D01*
X11307777Y-15025710D02*
X11298253Y-15035234D01*
X11298253Y-15035234D02*
X11288729Y-15025710D01*
X11288729Y-15025710D02*
X11298253Y-15016186D01*
X11298253Y-15016186D02*
X11298253Y-15035234D01*
X11383967Y-14854281D02*
X11393491Y-14844758D01*
X11393491Y-14844758D02*
X11412539Y-14835234D01*
X11412539Y-14835234D02*
X11460158Y-14835234D01*
X11460158Y-14835234D02*
X11479205Y-14844758D01*
X11479205Y-14844758D02*
X11488729Y-14854281D01*
X11488729Y-14854281D02*
X11498253Y-14873329D01*
X11498253Y-14873329D02*
X11498253Y-14892377D01*
X11498253Y-14892377D02*
X11488729Y-14920948D01*
X11488729Y-14920948D02*
X11374443Y-15035234D01*
X11374443Y-15035234D02*
X11498253Y-15035234D01*
X11622062Y-14835234D02*
X11641110Y-14835234D01*
X11641110Y-14835234D02*
X11660158Y-14844758D01*
X11660158Y-14844758D02*
X11669682Y-14854281D01*
X11669682Y-14854281D02*
X11679205Y-14873329D01*
X11679205Y-14873329D02*
X11688729Y-14911424D01*
X11688729Y-14911424D02*
X11688729Y-14959043D01*
X11688729Y-14959043D02*
X11679205Y-14997138D01*
X11679205Y-14997138D02*
X11669682Y-15016186D01*
X11669682Y-15016186D02*
X11660158Y-15025710D01*
X11660158Y-15025710D02*
X11641110Y-15035234D01*
X11641110Y-15035234D02*
X11622062Y-15035234D01*
X11622062Y-15035234D02*
X11603015Y-15025710D01*
X11603015Y-15025710D02*
X11593491Y-15016186D01*
X11593491Y-15016186D02*
X11583967Y-14997138D01*
X11583967Y-14997138D02*
X11574443Y-14959043D01*
X11574443Y-14959043D02*
X11574443Y-14911424D01*
X11574443Y-14911424D02*
X11583967Y-14873329D01*
X11583967Y-14873329D02*
X11593491Y-14854281D01*
X11593491Y-14854281D02*
X11603015Y-14844758D01*
X11603015Y-14844758D02*
X11622062Y-14835234D01*
X11812539Y-14835234D02*
X11831586Y-14835234D01*
X11831586Y-14835234D02*
X11850634Y-14844758D01*
X11850634Y-14844758D02*
X11860158Y-14854281D01*
X11860158Y-14854281D02*
X11869682Y-14873329D01*
X11869682Y-14873329D02*
X11879205Y-14911424D01*
X11879205Y-14911424D02*
X11879205Y-14959043D01*
X11879205Y-14959043D02*
X11869682Y-14997138D01*
X11869682Y-14997138D02*
X11860158Y-15016186D01*
X11860158Y-15016186D02*
X11850634Y-15025710D01*
X11850634Y-15025710D02*
X11831586Y-15035234D01*
X11831586Y-15035234D02*
X11812539Y-15035234D01*
X11812539Y-15035234D02*
X11793491Y-15025710D01*
X11793491Y-15025710D02*
X11783967Y-15016186D01*
X11783967Y-15016186D02*
X11774443Y-14997138D01*
X11774443Y-14997138D02*
X11764920Y-14959043D01*
X11764920Y-14959043D02*
X11764920Y-14911424D01*
X11764920Y-14911424D02*
X11774443Y-14873329D01*
X11774443Y-14873329D02*
X11783967Y-14854281D01*
X11783967Y-14854281D02*
X11793491Y-14844758D01*
X11793491Y-14844758D02*
X11812539Y-14835234D01*
X11964920Y-15035234D02*
X11964920Y-14901900D01*
X11964920Y-14920948D02*
X11974443Y-14911424D01*
X11974443Y-14911424D02*
X11993491Y-14901900D01*
X11993491Y-14901900D02*
X12022063Y-14901900D01*
X12022063Y-14901900D02*
X12041110Y-14911424D01*
X12041110Y-14911424D02*
X12050634Y-14930472D01*
X12050634Y-14930472D02*
X12050634Y-15035234D01*
X12050634Y-14930472D02*
X12060158Y-14911424D01*
X12060158Y-14911424D02*
X12079205Y-14901900D01*
X12079205Y-14901900D02*
X12107777Y-14901900D01*
X12107777Y-14901900D02*
X12126824Y-14911424D01*
X12126824Y-14911424D02*
X12136348Y-14930472D01*
X12136348Y-14930472D02*
X12136348Y-15035234D01*
X12231586Y-15035234D02*
X12231586Y-14901900D01*
X12231586Y-14920948D02*
X12241110Y-14911424D01*
X12241110Y-14911424D02*
X12260158Y-14901900D01*
X12260158Y-14901900D02*
X12288729Y-14901900D01*
X12288729Y-14901900D02*
X12307777Y-14911424D01*
X12307777Y-14911424D02*
X12317301Y-14930472D01*
X12317301Y-14930472D02*
X12317301Y-15035234D01*
X12317301Y-14930472D02*
X12326824Y-14911424D01*
X12326824Y-14911424D02*
X12345872Y-14901900D01*
X12345872Y-14901900D02*
X12374443Y-14901900D01*
X12374443Y-14901900D02*
X12393491Y-14911424D01*
X12393491Y-14911424D02*
X12403015Y-14930472D01*
X12403015Y-14930472D02*
X12403015Y-15035234D01*
X12793491Y-14825710D02*
X12622063Y-15082853D01*
X13050634Y-14835234D02*
X13069682Y-14835234D01*
X13069682Y-14835234D02*
X13088729Y-14844758D01*
X13088729Y-14844758D02*
X13098253Y-14854281D01*
X13098253Y-14854281D02*
X13107777Y-14873329D01*
X13107777Y-14873329D02*
X13117301Y-14911424D01*
X13117301Y-14911424D02*
X13117301Y-14959043D01*
X13117301Y-14959043D02*
X13107777Y-14997138D01*
X13107777Y-14997138D02*
X13098253Y-15016186D01*
X13098253Y-15016186D02*
X13088729Y-15025710D01*
X13088729Y-15025710D02*
X13069682Y-15035234D01*
X13069682Y-15035234D02*
X13050634Y-15035234D01*
X13050634Y-15035234D02*
X13031586Y-15025710D01*
X13031586Y-15025710D02*
X13022063Y-15016186D01*
X13022063Y-15016186D02*
X13012539Y-14997138D01*
X13012539Y-14997138D02*
X13003015Y-14959043D01*
X13003015Y-14959043D02*
X13003015Y-14911424D01*
X13003015Y-14911424D02*
X13012539Y-14873329D01*
X13012539Y-14873329D02*
X13022063Y-14854281D01*
X13022063Y-14854281D02*
X13031586Y-14844758D01*
X13031586Y-14844758D02*
X13050634Y-14835234D01*
X13203015Y-15016186D02*
X13212539Y-15025710D01*
X13212539Y-15025710D02*
X13203015Y-15035234D01*
X13203015Y-15035234D02*
X13193491Y-15025710D01*
X13193491Y-15025710D02*
X13203015Y-15016186D01*
X13203015Y-15016186D02*
X13203015Y-15035234D01*
X13403015Y-15035234D02*
X13288729Y-15035234D01*
X13345872Y-15035234D02*
X13345872Y-14835234D01*
X13345872Y-14835234D02*
X13326825Y-14863805D01*
X13326825Y-14863805D02*
X13307777Y-14882853D01*
X13307777Y-14882853D02*
X13288729Y-14892377D01*
X13479206Y-14854281D02*
X13488729Y-14844758D01*
X13488729Y-14844758D02*
X13507777Y-14835234D01*
X13507777Y-14835234D02*
X13555396Y-14835234D01*
X13555396Y-14835234D02*
X13574444Y-14844758D01*
X13574444Y-14844758D02*
X13583967Y-14854281D01*
X13583967Y-14854281D02*
X13593491Y-14873329D01*
X13593491Y-14873329D02*
X13593491Y-14892377D01*
X13593491Y-14892377D02*
X13583967Y-14920948D01*
X13583967Y-14920948D02*
X13469682Y-15035234D01*
X13469682Y-15035234D02*
X13593491Y-15035234D01*
X13764920Y-14835234D02*
X13726825Y-14835234D01*
X13726825Y-14835234D02*
X13707777Y-14844758D01*
X13707777Y-14844758D02*
X13698253Y-14854281D01*
X13698253Y-14854281D02*
X13679206Y-14882853D01*
X13679206Y-14882853D02*
X13669682Y-14920948D01*
X13669682Y-14920948D02*
X13669682Y-14997138D01*
X13669682Y-14997138D02*
X13679206Y-15016186D01*
X13679206Y-15016186D02*
X13688729Y-15025710D01*
X13688729Y-15025710D02*
X13707777Y-15035234D01*
X13707777Y-15035234D02*
X13745872Y-15035234D01*
X13745872Y-15035234D02*
X13764920Y-15025710D01*
X13764920Y-15025710D02*
X13774444Y-15016186D01*
X13774444Y-15016186D02*
X13783967Y-14997138D01*
X13783967Y-14997138D02*
X13783967Y-14949519D01*
X13783967Y-14949519D02*
X13774444Y-14930472D01*
X13774444Y-14930472D02*
X13764920Y-14920948D01*
X13764920Y-14920948D02*
X13745872Y-14911424D01*
X13745872Y-14911424D02*
X13707777Y-14911424D01*
X13707777Y-14911424D02*
X13688729Y-14920948D01*
X13688729Y-14920948D02*
X13679206Y-14930472D01*
X13679206Y-14930472D02*
X13669682Y-14949519D01*
X13907777Y-14835234D02*
X13926825Y-14835234D01*
X13926825Y-14835234D02*
X13945872Y-14844758D01*
X13945872Y-14844758D02*
X13955396Y-14854281D01*
X13955396Y-14854281D02*
X13964920Y-14873329D01*
X13964920Y-14873329D02*
X13974444Y-14911424D01*
X13974444Y-14911424D02*
X13974444Y-14959043D01*
X13974444Y-14959043D02*
X13964920Y-14997138D01*
X13964920Y-14997138D02*
X13955396Y-15016186D01*
X13955396Y-15016186D02*
X13945872Y-15025710D01*
X13945872Y-15025710D02*
X13926825Y-15035234D01*
X13926825Y-15035234D02*
X13907777Y-15035234D01*
X13907777Y-15035234D02*
X13888729Y-15025710D01*
X13888729Y-15025710D02*
X13879206Y-15016186D01*
X13879206Y-15016186D02*
X13869682Y-14997138D01*
X13869682Y-14997138D02*
X13860158Y-14959043D01*
X13860158Y-14959043D02*
X13860158Y-14911424D01*
X13860158Y-14911424D02*
X13869682Y-14873329D01*
X13869682Y-14873329D02*
X13879206Y-14854281D01*
X13879206Y-14854281D02*
X13888729Y-14844758D01*
X13888729Y-14844758D02*
X13907777Y-14835234D01*
X14050634Y-14835234D02*
X14050634Y-14873329D01*
X14126825Y-14835234D02*
X14126825Y-14873329D01*
X14422063Y-15111424D02*
X14412539Y-15101900D01*
X14412539Y-15101900D02*
X14393491Y-15073329D01*
X14393491Y-15073329D02*
X14383968Y-15054281D01*
X14383968Y-15054281D02*
X14374444Y-15025710D01*
X14374444Y-15025710D02*
X14364920Y-14978091D01*
X14364920Y-14978091D02*
X14364920Y-14939996D01*
X14364920Y-14939996D02*
X14374444Y-14892377D01*
X14374444Y-14892377D02*
X14383968Y-14863805D01*
X14383968Y-14863805D02*
X14393491Y-14844758D01*
X14393491Y-14844758D02*
X14412539Y-14816186D01*
X14412539Y-14816186D02*
X14422063Y-14806662D01*
X14488729Y-14854281D02*
X14498253Y-14844758D01*
X14498253Y-14844758D02*
X14517301Y-14835234D01*
X14517301Y-14835234D02*
X14564920Y-14835234D01*
X14564920Y-14835234D02*
X14583968Y-14844758D01*
X14583968Y-14844758D02*
X14593491Y-14854281D01*
X14593491Y-14854281D02*
X14603015Y-14873329D01*
X14603015Y-14873329D02*
X14603015Y-14892377D01*
X14603015Y-14892377D02*
X14593491Y-14920948D01*
X14593491Y-14920948D02*
X14479206Y-15035234D01*
X14479206Y-15035234D02*
X14603015Y-15035234D01*
X14841110Y-15035234D02*
X14841110Y-14835234D01*
X14926825Y-15035234D02*
X14926825Y-14930472D01*
X14926825Y-14930472D02*
X14917301Y-14911424D01*
X14917301Y-14911424D02*
X14898253Y-14901900D01*
X14898253Y-14901900D02*
X14869682Y-14901900D01*
X14869682Y-14901900D02*
X14850634Y-14911424D01*
X14850634Y-14911424D02*
X14841110Y-14920948D01*
X15050634Y-15035234D02*
X15031587Y-15025710D01*
X15031587Y-15025710D02*
X15022063Y-15016186D01*
X15022063Y-15016186D02*
X15012539Y-14997138D01*
X15012539Y-14997138D02*
X15012539Y-14939996D01*
X15012539Y-14939996D02*
X15022063Y-14920948D01*
X15022063Y-14920948D02*
X15031587Y-14911424D01*
X15031587Y-14911424D02*
X15050634Y-14901900D01*
X15050634Y-14901900D02*
X15079206Y-14901900D01*
X15079206Y-14901900D02*
X15098253Y-14911424D01*
X15098253Y-14911424D02*
X15107777Y-14920948D01*
X15107777Y-14920948D02*
X15117301Y-14939996D01*
X15117301Y-14939996D02*
X15117301Y-14997138D01*
X15117301Y-14997138D02*
X15107777Y-15016186D01*
X15107777Y-15016186D02*
X15098253Y-15025710D01*
X15098253Y-15025710D02*
X15079206Y-15035234D01*
X15079206Y-15035234D02*
X15050634Y-15035234D01*
X15231587Y-15035234D02*
X15212539Y-15025710D01*
X15212539Y-15025710D02*
X15203015Y-15006662D01*
X15203015Y-15006662D02*
X15203015Y-14835234D01*
X15383968Y-15025710D02*
X15364920Y-15035234D01*
X15364920Y-15035234D02*
X15326825Y-15035234D01*
X15326825Y-15035234D02*
X15307777Y-15025710D01*
X15307777Y-15025710D02*
X15298253Y-15006662D01*
X15298253Y-15006662D02*
X15298253Y-14930472D01*
X15298253Y-14930472D02*
X15307777Y-14911424D01*
X15307777Y-14911424D02*
X15326825Y-14901900D01*
X15326825Y-14901900D02*
X15364920Y-14901900D01*
X15364920Y-14901900D02*
X15383968Y-14911424D01*
X15383968Y-14911424D02*
X15393491Y-14930472D01*
X15393491Y-14930472D02*
X15393491Y-14949519D01*
X15393491Y-14949519D02*
X15298253Y-14968567D01*
X15469682Y-15025710D02*
X15488730Y-15035234D01*
X15488730Y-15035234D02*
X15526825Y-15035234D01*
X15526825Y-15035234D02*
X15545872Y-15025710D01*
X15545872Y-15025710D02*
X15555396Y-15006662D01*
X15555396Y-15006662D02*
X15555396Y-14997138D01*
X15555396Y-14997138D02*
X15545872Y-14978091D01*
X15545872Y-14978091D02*
X15526825Y-14968567D01*
X15526825Y-14968567D02*
X15498253Y-14968567D01*
X15498253Y-14968567D02*
X15479206Y-14959043D01*
X15479206Y-14959043D02*
X15469682Y-14939996D01*
X15469682Y-14939996D02*
X15469682Y-14930472D01*
X15469682Y-14930472D02*
X15479206Y-14911424D01*
X15479206Y-14911424D02*
X15498253Y-14901900D01*
X15498253Y-14901900D02*
X15526825Y-14901900D01*
X15526825Y-14901900D02*
X15545872Y-14911424D01*
X15622063Y-15111424D02*
X15631587Y-15101900D01*
X15631587Y-15101900D02*
X15650634Y-15073329D01*
X15650634Y-15073329D02*
X15660158Y-15054281D01*
X15660158Y-15054281D02*
X15669682Y-15025710D01*
X15669682Y-15025710D02*
X15679206Y-14978091D01*
X15679206Y-14978091D02*
X15679206Y-14939996D01*
X15679206Y-14939996D02*
X15669682Y-14892377D01*
X15669682Y-14892377D02*
X15660158Y-14863805D01*
X15660158Y-14863805D02*
X15650634Y-14844758D01*
X15650634Y-14844758D02*
X15631587Y-14816186D01*
X15631587Y-14816186D02*
X15622063Y-14806662D01*
X15983968Y-15111424D02*
X15974444Y-15101900D01*
X15974444Y-15101900D02*
X15955396Y-15073329D01*
X15955396Y-15073329D02*
X15945872Y-15054281D01*
X15945872Y-15054281D02*
X15936349Y-15025710D01*
X15936349Y-15025710D02*
X15926825Y-14978091D01*
X15926825Y-14978091D02*
X15926825Y-14939996D01*
X15926825Y-14939996D02*
X15936349Y-14892377D01*
X15936349Y-14892377D02*
X15945872Y-14863805D01*
X15945872Y-14863805D02*
X15955396Y-14844758D01*
X15955396Y-14844758D02*
X15974444Y-14816186D01*
X15974444Y-14816186D02*
X15983968Y-14806662D01*
X16060158Y-14901900D02*
X16060158Y-15035234D01*
X16060158Y-14920948D02*
X16069682Y-14911424D01*
X16069682Y-14911424D02*
X16088730Y-14901900D01*
X16088730Y-14901900D02*
X16117301Y-14901900D01*
X16117301Y-14901900D02*
X16136349Y-14911424D01*
X16136349Y-14911424D02*
X16145872Y-14930472D01*
X16145872Y-14930472D02*
X16145872Y-15035234D01*
X16269682Y-15035234D02*
X16250634Y-15025710D01*
X16250634Y-15025710D02*
X16241111Y-15016186D01*
X16241111Y-15016186D02*
X16231587Y-14997138D01*
X16231587Y-14997138D02*
X16231587Y-14939996D01*
X16231587Y-14939996D02*
X16241111Y-14920948D01*
X16241111Y-14920948D02*
X16250634Y-14911424D01*
X16250634Y-14911424D02*
X16269682Y-14901900D01*
X16269682Y-14901900D02*
X16298253Y-14901900D01*
X16298253Y-14901900D02*
X16317301Y-14911424D01*
X16317301Y-14911424D02*
X16326825Y-14920948D01*
X16326825Y-14920948D02*
X16336349Y-14939996D01*
X16336349Y-14939996D02*
X16336349Y-14997138D01*
X16336349Y-14997138D02*
X16326825Y-15016186D01*
X16326825Y-15016186D02*
X16317301Y-15025710D01*
X16317301Y-15025710D02*
X16298253Y-15035234D01*
X16298253Y-15035234D02*
X16269682Y-15035234D01*
X16393492Y-14901900D02*
X16469682Y-14901900D01*
X16422063Y-14835234D02*
X16422063Y-15006662D01*
X16422063Y-15006662D02*
X16431587Y-15025710D01*
X16431587Y-15025710D02*
X16450634Y-15035234D01*
X16450634Y-15035234D02*
X16469682Y-15035234D01*
X16688730Y-14901900D02*
X16688730Y-15101900D01*
X16688730Y-14911424D02*
X16707777Y-14901900D01*
X16707777Y-14901900D02*
X16745873Y-14901900D01*
X16745873Y-14901900D02*
X16764920Y-14911424D01*
X16764920Y-14911424D02*
X16774444Y-14920948D01*
X16774444Y-14920948D02*
X16783968Y-14939996D01*
X16783968Y-14939996D02*
X16783968Y-14997138D01*
X16783968Y-14997138D02*
X16774444Y-15016186D01*
X16774444Y-15016186D02*
X16764920Y-15025710D01*
X16764920Y-15025710D02*
X16745873Y-15035234D01*
X16745873Y-15035234D02*
X16707777Y-15035234D01*
X16707777Y-15035234D02*
X16688730Y-15025710D01*
X16898254Y-15035234D02*
X16879206Y-15025710D01*
X16879206Y-15025710D02*
X16869682Y-15006662D01*
X16869682Y-15006662D02*
X16869682Y-14835234D01*
X17060158Y-15035234D02*
X17060158Y-14930472D01*
X17060158Y-14930472D02*
X17050635Y-14911424D01*
X17050635Y-14911424D02*
X17031587Y-14901900D01*
X17031587Y-14901900D02*
X16993492Y-14901900D01*
X16993492Y-14901900D02*
X16974444Y-14911424D01*
X17060158Y-15025710D02*
X17041111Y-15035234D01*
X17041111Y-15035234D02*
X16993492Y-15035234D01*
X16993492Y-15035234D02*
X16974444Y-15025710D01*
X16974444Y-15025710D02*
X16964920Y-15006662D01*
X16964920Y-15006662D02*
X16964920Y-14987615D01*
X16964920Y-14987615D02*
X16974444Y-14968567D01*
X16974444Y-14968567D02*
X16993492Y-14959043D01*
X16993492Y-14959043D02*
X17041111Y-14959043D01*
X17041111Y-14959043D02*
X17060158Y-14949519D01*
X17126825Y-14901900D02*
X17203015Y-14901900D01*
X17155396Y-14835234D02*
X17155396Y-15006662D01*
X17155396Y-15006662D02*
X17164920Y-15025710D01*
X17164920Y-15025710D02*
X17183968Y-15035234D01*
X17183968Y-15035234D02*
X17203015Y-15035234D01*
X17345873Y-15025710D02*
X17326825Y-15035234D01*
X17326825Y-15035234D02*
X17288730Y-15035234D01*
X17288730Y-15035234D02*
X17269682Y-15025710D01*
X17269682Y-15025710D02*
X17260158Y-15006662D01*
X17260158Y-15006662D02*
X17260158Y-14930472D01*
X17260158Y-14930472D02*
X17269682Y-14911424D01*
X17269682Y-14911424D02*
X17288730Y-14901900D01*
X17288730Y-14901900D02*
X17326825Y-14901900D01*
X17326825Y-14901900D02*
X17345873Y-14911424D01*
X17345873Y-14911424D02*
X17355396Y-14930472D01*
X17355396Y-14930472D02*
X17355396Y-14949519D01*
X17355396Y-14949519D02*
X17260158Y-14968567D01*
X17526825Y-15035234D02*
X17526825Y-14835234D01*
X17526825Y-15025710D02*
X17507777Y-15035234D01*
X17507777Y-15035234D02*
X17469682Y-15035234D01*
X17469682Y-15035234D02*
X17450635Y-15025710D01*
X17450635Y-15025710D02*
X17441111Y-15016186D01*
X17441111Y-15016186D02*
X17431587Y-14997138D01*
X17431587Y-14997138D02*
X17431587Y-14939996D01*
X17431587Y-14939996D02*
X17441111Y-14920948D01*
X17441111Y-14920948D02*
X17450635Y-14911424D01*
X17450635Y-14911424D02*
X17469682Y-14901900D01*
X17469682Y-14901900D02*
X17507777Y-14901900D01*
X17507777Y-14901900D02*
X17526825Y-14911424D01*
X17603016Y-15111424D02*
X17612539Y-15101900D01*
X17612539Y-15101900D02*
X17631587Y-15073329D01*
X17631587Y-15073329D02*
X17641111Y-15054281D01*
X17641111Y-15054281D02*
X17650635Y-15025710D01*
X17650635Y-15025710D02*
X17660158Y-14978091D01*
X17660158Y-14978091D02*
X17660158Y-14939996D01*
X17660158Y-14939996D02*
X17650635Y-14892377D01*
X17650635Y-14892377D02*
X17641111Y-14863805D01*
X17641111Y-14863805D02*
X17631587Y-14844758D01*
X17631587Y-14844758D02*
X17612539Y-14816186D01*
X17612539Y-14816186D02*
X17603016Y-14806662D01*
M02*
