%TF.GenerationSoftware,KiCad,Pcbnew,7.0.8*%
%TF.CreationDate,2023-12-01T18:44:57+08:00*%
%TF.ProjectId,ESPCARproject,45535043-4152-4707-926f-6a6563742e6b,rev?*%
%TF.SameCoordinates,Original*%
%TF.FileFunction,Drillmap*%
%TF.FilePolarity,Positive*%
%FSLAX45Y45*%
G04 Gerber Fmt 4.5, Leading zero omitted, Abs format (unit mm)*
G04 Created by KiCad (PCBNEW 7.0.8) date 2023-12-01 18:44:57*
%MOMM*%
%LPD*%
G01*
G04 APERTURE LIST*
%ADD10C,0.100000*%
%ADD11C,0.200000*%
G04 APERTURE END LIST*
D10*
X10852000Y-4837750D02*
X18649000Y-4837750D01*
X18649000Y-14034750D01*
X10852000Y-14034750D01*
X10852000Y-4837750D01*
D11*
X11107777Y-14351234D02*
X11107777Y-14151234D01*
X11107777Y-14151234D02*
X11155396Y-14151234D01*
X11155396Y-14151234D02*
X11183967Y-14160758D01*
X11183967Y-14160758D02*
X11203015Y-14179805D01*
X11203015Y-14179805D02*
X11212539Y-14198853D01*
X11212539Y-14198853D02*
X11222062Y-14236948D01*
X11222062Y-14236948D02*
X11222062Y-14265519D01*
X11222062Y-14265519D02*
X11212539Y-14303615D01*
X11212539Y-14303615D02*
X11203015Y-14322662D01*
X11203015Y-14322662D02*
X11183967Y-14341710D01*
X11183967Y-14341710D02*
X11155396Y-14351234D01*
X11155396Y-14351234D02*
X11107777Y-14351234D01*
X11307777Y-14351234D02*
X11307777Y-14217900D01*
X11307777Y-14255996D02*
X11317301Y-14236948D01*
X11317301Y-14236948D02*
X11326824Y-14227424D01*
X11326824Y-14227424D02*
X11345872Y-14217900D01*
X11345872Y-14217900D02*
X11364920Y-14217900D01*
X11431586Y-14351234D02*
X11431586Y-14217900D01*
X11431586Y-14151234D02*
X11422062Y-14160758D01*
X11422062Y-14160758D02*
X11431586Y-14170281D01*
X11431586Y-14170281D02*
X11441110Y-14160758D01*
X11441110Y-14160758D02*
X11431586Y-14151234D01*
X11431586Y-14151234D02*
X11431586Y-14170281D01*
X11555396Y-14351234D02*
X11536348Y-14341710D01*
X11536348Y-14341710D02*
X11526824Y-14322662D01*
X11526824Y-14322662D02*
X11526824Y-14151234D01*
X11660158Y-14351234D02*
X11641110Y-14341710D01*
X11641110Y-14341710D02*
X11631586Y-14322662D01*
X11631586Y-14322662D02*
X11631586Y-14151234D01*
X11888729Y-14351234D02*
X11888729Y-14151234D01*
X11888729Y-14151234D02*
X11955396Y-14294091D01*
X11955396Y-14294091D02*
X12022062Y-14151234D01*
X12022062Y-14151234D02*
X12022062Y-14351234D01*
X12203015Y-14351234D02*
X12203015Y-14246472D01*
X12203015Y-14246472D02*
X12193491Y-14227424D01*
X12193491Y-14227424D02*
X12174443Y-14217900D01*
X12174443Y-14217900D02*
X12136348Y-14217900D01*
X12136348Y-14217900D02*
X12117301Y-14227424D01*
X12203015Y-14341710D02*
X12183967Y-14351234D01*
X12183967Y-14351234D02*
X12136348Y-14351234D01*
X12136348Y-14351234D02*
X12117301Y-14341710D01*
X12117301Y-14341710D02*
X12107777Y-14322662D01*
X12107777Y-14322662D02*
X12107777Y-14303615D01*
X12107777Y-14303615D02*
X12117301Y-14284567D01*
X12117301Y-14284567D02*
X12136348Y-14275043D01*
X12136348Y-14275043D02*
X12183967Y-14275043D01*
X12183967Y-14275043D02*
X12203015Y-14265519D01*
X12298253Y-14217900D02*
X12298253Y-14417900D01*
X12298253Y-14227424D02*
X12317301Y-14217900D01*
X12317301Y-14217900D02*
X12355396Y-14217900D01*
X12355396Y-14217900D02*
X12374443Y-14227424D01*
X12374443Y-14227424D02*
X12383967Y-14236948D01*
X12383967Y-14236948D02*
X12393491Y-14255996D01*
X12393491Y-14255996D02*
X12393491Y-14313138D01*
X12393491Y-14313138D02*
X12383967Y-14332186D01*
X12383967Y-14332186D02*
X12374443Y-14341710D01*
X12374443Y-14341710D02*
X12355396Y-14351234D01*
X12355396Y-14351234D02*
X12317301Y-14351234D01*
X12317301Y-14351234D02*
X12298253Y-14341710D01*
X12479205Y-14332186D02*
X12488729Y-14341710D01*
X12488729Y-14341710D02*
X12479205Y-14351234D01*
X12479205Y-14351234D02*
X12469682Y-14341710D01*
X12469682Y-14341710D02*
X12479205Y-14332186D01*
X12479205Y-14332186D02*
X12479205Y-14351234D01*
X12479205Y-14227424D02*
X12488729Y-14236948D01*
X12488729Y-14236948D02*
X12479205Y-14246472D01*
X12479205Y-14246472D02*
X12469682Y-14236948D01*
X12469682Y-14236948D02*
X12479205Y-14227424D01*
X12479205Y-14227424D02*
X12479205Y-14246472D01*
M02*
