G04 #@! TF.GenerationSoftware,KiCad,Pcbnew,7.0.8*
G04 #@! TF.CreationDate,2023-12-01T18:56:09+08:00*
G04 #@! TF.ProjectId,ESPCARproject,45535043-4152-4707-926f-6a6563742e6b,rev?*
G04 #@! TF.SameCoordinates,Original*
G04 #@! TF.FileFunction,Soldermask,Bot*
G04 #@! TF.FilePolarity,Negative*
%FSLAX46Y46*%
G04 Gerber Fmt 4.6, Leading zero omitted, Abs format (unit mm)*
G04 Created by KiCad (PCBNEW 7.0.8) date 2023-12-01 18:56:09*
%MOMM*%
%LPD*%
G01*
G04 APERTURE LIST*
%ADD10R,1.700000X1.700000*%
%ADD11O,1.700000X1.700000*%
%ADD12C,3.000000*%
%ADD13R,1.600000X1.600000*%
%ADD14C,1.600000*%
%ADD15R,1.500000X1.500000*%
%ADD16O,1.500000X1.500000*%
G04 APERTURE END LIST*
D10*
X183582500Y-59507500D03*
X183582500Y-56967500D03*
D11*
X183582500Y-54427500D03*
X183582500Y-51887500D03*
D10*
X183582500Y-70770000D03*
D11*
X183582500Y-73310000D03*
X183582500Y-75850000D03*
X183582500Y-78390000D03*
X183582500Y-80930000D03*
D10*
X183582500Y-68230000D03*
X183582500Y-87565000D03*
X183582500Y-90105000D03*
D11*
X183582500Y-92645000D03*
X183582500Y-95185000D03*
X183582500Y-111660000D03*
X183582500Y-109120000D03*
X183582500Y-106580000D03*
D10*
X183582500Y-104040000D03*
X183582500Y-101500000D03*
X172960000Y-80740000D03*
D11*
X172960000Y-83280000D03*
X172960000Y-85820000D03*
X172960000Y-88360000D03*
X172960000Y-90900000D03*
X172960000Y-93440000D03*
X121770000Y-128310000D03*
X119230000Y-128310000D03*
X116690000Y-128310000D03*
D10*
X114150000Y-128310000D03*
D12*
X163420000Y-129180000D03*
X158340000Y-129180000D03*
D13*
X174672375Y-109170000D03*
D14*
X177172375Y-109170000D03*
D12*
X149280000Y-129180000D03*
X144200000Y-129180000D03*
D13*
X159350000Y-112550000D03*
D14*
X159350000Y-115050000D03*
X177150000Y-116590000D03*
D13*
X174650000Y-116590000D03*
D15*
X172290000Y-137070000D03*
D16*
X172290000Y-134570000D03*
X172290000Y-132070000D03*
D12*
X134690000Y-129180000D03*
X129610000Y-129180000D03*
D13*
X151910000Y-112550000D03*
D14*
X151910000Y-115050000D03*
M02*
