M48
; DRILL file {KiCad 7.0.8} date Fri Dec  1 18:56:14 2023
; FORMAT={-:-/ absolute / metric / decimal}
; #@! TF.CreationDate,2023-12-01T18:56:14+08:00
; #@! TF.GenerationSoftware,Kicad,Pcbnew,7.0.8
; #@! TF.FileFunction,Plated,1,2,PTH
FMAT,2
METRIC
; #@! TA.AperFunction,Plated,PTH,ComponentDrill
T1C0.200
; #@! TA.AperFunction,Plated,PTH,ViaDrill
T2C0.400
; #@! TA.AperFunction,Plated,PTH,ViaDrill
T3C0.500
; #@! TA.AperFunction,Plated,PTH,ViaDrill
T4C0.700
; #@! TA.AperFunction,Plated,PTH,ComponentDrill
T5C0.800
; #@! TA.AperFunction,Plated,PTH,ComponentDrill
T6C1.000
; #@! TA.AperFunction,Plated,PTH,ComponentDrill
T7C1.100
; #@! TA.AperFunction,Plated,PTH,ViaDrill
T8C4.000
%
G90
G05
T1
X145.45Y-56.28
X145.45Y-57.805
X146.213Y-55.517
X146.213Y-57.042
X146.213Y-58.567
X146.975Y-56.28
X146.975Y-57.805
X147.737Y-55.517
X147.737Y-57.042
X147.737Y-58.567
X148.5Y-56.28
X148.5Y-57.805
T2
X117.59Y-91.89
X117.59Y-111.05
X117.93Y-113.18
X118.85Y-91.87
X118.99Y-83.26
X119.0Y-85.21
X121.14Y-111.51
X121.33Y-113.54
X121.37Y-73.02
X121.43Y-95.66
X121.64Y-64.4
X125.67Y-97.83
X125.76Y-83.34
X125.97Y-100.73
X127.45Y-97.74
X127.62Y-100.66
X128.56Y-84.46
X131.87Y-107.85
X132.83Y-76.54
X132.84Y-110.74
X133.92Y-63.64
X135.63Y-60.04
X136.78Y-63.66
X136.98Y-56.01
X137.0Y-57.3
X137.18Y-52.82
X137.31Y-61.12
X137.335Y-70.985
X140.33Y-62.4
X143.27Y-71.79
X143.46Y-73.78
X144.09Y-71.05
X144.79Y-75.08
X145.47Y-69.88
X146.77Y-69.24
X150.38Y-85.63
X150.49Y-81.52
X151.88Y-57.73
X152.79Y-63.88
X153.68Y-54.84
X154.42Y-61.92
X154.987Y-70.73
X155.14Y-83.43
X155.43Y-88.26
X156.39Y-70.48
X157.08Y-89.35
X158.02Y-70.52
X158.15Y-82.6
X158.16Y-66.41
X160.34Y-68.76
X160.44Y-72.85
X161.49Y-67.18
X161.545Y-70.455
X162.77Y-71.23
X164.16Y-69.32
X167.83Y-57.38
X168.05Y-54.29
X174.19Y-54.28
X177.04Y-82.68
X178.24Y-84.02
X178.55Y-79.62
X179.65Y-80.43
X179.84Y-52.37
T3
X121.25Y-70.77
X121.28Y-62.65
X123.51Y-60.99
X123.52Y-66.43
X123.56Y-69.632
X123.59Y-63.35
X132.76Y-95.26
X135.46Y-95.23
X136.39Y-50.98
X137.75Y-95.18
X139.88Y-95.22
X145.19Y-60.09
X146.33Y-62.71
X148.76Y-62.43
X148.77Y-59.97
X148.92Y-87.72
X149.26Y-49.75
X149.34Y-52.37
X149.72Y-83.13
X149.85Y-79.87
X150.38Y-88.94
X151.1Y-71.6
X151.51Y-52.36
X152.03Y-49.76
X152.14Y-69.22
X152.17Y-72.88
X152.82Y-93.38
X153.13Y-65.42
X153.45Y-70.02
X153.51Y-96.6
X154.25Y-57.46
X154.25Y-59.76
X154.68Y-97.79
X156.1Y-93.41
X157.64Y-93.68
X157.644Y-95.283
X160.52Y-57.39
X160.83Y-60.92
X161.28Y-59.91
X162.84Y-66.32
X163.69Y-50.13
X163.78Y-63.96
X164.13Y-52.77
X168.06Y-68.95
X168.3Y-74.12
X171.16Y-58.0
X171.18Y-52.63
X171.24Y-63.52
X176.48Y-72.47
X176.5Y-51.8
X176.54Y-68.03
X176.63Y-57.05
X176.63Y-62.73
T4
X156.45Y-99.22
X159.54Y-96.1
X168.617Y-103.862
X170.41Y-102.4
X178.1Y-101.29
X178.19Y-97.62
T5
X151.91Y-112.55
X151.91Y-115.05
X159.35Y-112.55
X159.35Y-115.05
X172.29Y-132.07
X172.29Y-134.57
X172.29Y-137.07
X174.65Y-116.59
X174.672Y-109.17
X177.15Y-116.59
X177.172Y-109.17
T6
X114.15Y-128.31
X116.69Y-128.31
X119.23Y-128.31
X121.77Y-128.31
X172.96Y-80.74
X172.96Y-83.28
X172.96Y-85.82
X172.96Y-88.36
X172.96Y-90.9
X172.96Y-93.44
X183.582Y-51.887
X183.582Y-54.427
X183.582Y-56.967
X183.582Y-59.508
X183.582Y-68.23
X183.582Y-70.77
X183.582Y-73.31
X183.582Y-75.85
X183.582Y-78.39
X183.582Y-80.93
X183.582Y-87.565
X183.582Y-90.105
X183.582Y-92.645
X183.582Y-95.185
X183.582Y-101.5
X183.582Y-104.04
X183.582Y-106.58
X183.582Y-109.12
X183.582Y-111.66
T7
X129.61Y-129.18
X134.69Y-129.18
X144.2Y-129.18
X149.28Y-129.18
X158.34Y-129.18
X163.42Y-129.18
T8
X113.58Y-53.41
X148.54Y-96.21
X181.46Y-135.3
T0
M30
